<?xml version="1.0" encoding="UTF-8"?>
<svg xmlns="http://www.w3.org/2000/svg" width="1360" height="980" viewBox="0 0 1360 980">
  <defs>
    <linearGradient id="bg" x1="0" y1="0" x2="1" y2="1">
      <stop offset="0%" stop-color="#f4efe6" />
      <stop offset="100%" stop-color="#eef5f2" />
    </linearGradient>
  </defs>
  <rect x="0" y="0" width="1360" height="980" fill="url(#bg)" />
  <text x="46" y="36" fill="#1f2937" font-size="31" font-weight="700">159100 离线研究图（持仓逐日估值版）</text>
  <text x="46" y="66" fill="#5b6b68" font-size="13">历史前十大持仓 + 持仓逐日涨跌幅 + USDCNY；双目标 lambda=0.10；披露期数 1；覆盖率均值 92.5%</text>
  <g>
    <text x="54" y="110" fill="#1f2937" font-size="16" font-weight="700">A. 净值拟合（同日对齐，无平移）</text>
    <line x1="98" y1="130" x2="124" y2="130" stroke="#0f766e" stroke-width="2"  />
      <text x="130" y="134" fill="#24312e" font-size="12">真实净值</text>
<line x1="313" y1="130" x2="339" y2="130" stroke="#1d4ed8" stroke-width="2"  />
      <text x="345" y="134" fill="#24312e" font-size="12">持仓分段估值</text>
    <line x1="98" y1="132.00" x2="1292" y2="132.00" stroke="#d7e3df" stroke-width="1" />
      <text x="90" y="136.00" text-anchor="end" fill="#5b6b68" font-size="11">1.231</text>
<line x1="98" y1="209.50" x2="1292" y2="209.50" stroke="#d7e3df" stroke-width="1" />
      <text x="90" y="213.50" text-anchor="end" fill="#5b6b68" font-size="11">1.160</text>
<line x1="98" y1="287.00" x2="1292" y2="287.00" stroke="#d7e3df" stroke-width="1" />
      <text x="90" y="291.00" text-anchor="end" fill="#5b6b68" font-size="11">1.090</text>
<line x1="98" y1="364.50" x2="1292" y2="364.50" stroke="#d7e3df" stroke-width="1" />
      <text x="90" y="368.50" text-anchor="end" fill="#5b6b68" font-size="11">1.020</text>
<line x1="98" y1="442.00" x2="1292" y2="442.00" stroke="#d7e3df" stroke-width="1" />
      <text x="90" y="446.00" text-anchor="end" fill="#5b6b68" font-size="11">0.949</text>
    <line x1="698.75" y1="132" x2="698.75" y2="442" stroke="#eef3f1" stroke-width="1" />
      <text x="698.75" y="470" text-anchor="middle" fill="#5b6b68" font-size="11">25-11-07</text>
<line x1="886.49" y1="132" x2="886.49" y2="442" stroke="#eef3f1" stroke-width="1" />
      <text x="886.49" y="470" text-anchor="middle" fill="#5b6b68" font-size="11">25-12-16</text>
<line x1="1081.74" y1="132" x2="1081.74" y2="442" stroke="#eef3f1" stroke-width="1" />
      <text x="1081.74" y="470" text-anchor="middle" fill="#5b6b68" font-size="11">26-01-23</text>
<line x1="698.75" y1="132" x2="698.75" y2="442" stroke="#eef3f1" stroke-width="1" />
      <text x="698.75" y="470" text-anchor="middle" fill="#5b6b68" font-size="11">25-11-07</text>
<line x1="909.02" y1="132" x2="909.02" y2="442" stroke="#eef3f1" stroke-width="1" />
      <text x="909.02" y="470" text-anchor="middle" fill="#5b6b68" font-size="11">25-12-19</text>
<line x1="1104.26" y1="132" x2="1104.26" y2="442" stroke="#eef3f1" stroke-width="1" />
      <text x="1104.26" y="470" text-anchor="middle" fill="#5b6b68" font-size="11">26-01-28</text>
<line x1="1292.00" y1="132" x2="1292.00" y2="442" stroke="#eef3f1" stroke-width="1" />
      <text x="1292.00" y="470" text-anchor="middle" fill="#5b6b68" font-size="11">26-03-12</text>
    <line x1="698.75" y1="132" x2="698.75" y2="442" stroke="#f59e0b" stroke-width="1.4" stroke-dasharray="4 4" />
       <text x="704.75" y="124" fill="#a16207" font-size="11">验证起点</text>
    <path d="M 698.75 385.78 L 706.26 369.25 L 713.77 375.20 L 721.28 374.32 L 728.79 381.27 L 736.30 384.90 L 743.81 397.02 L 751.32 395.48 L 758.83 408.15 L 766.34 411.79 L 773.85 402.86 L 781.36 389.20 L 788.87 383.69 L 796.38 375.87 L 803.89 383.03 L 811.40 366.72 L 818.91 356.03 L 826.42 332.45 L 833.92 386.77 L 841.43 396.36 L 848.94 412.78 L 856.45 404.29 L 863.96 398.68 L 871.47 379.06 L 878.98 368.15 L 886.49 406.72 L 894.00 425.67 L 901.51 428.65 L 909.02 423.03 L 916.53 428.76 L 924.04 422.37 L 931.55 413.88 L 939.06 415.09 L 946.57 418.07 L 954.08 426.00 L 961.58 408.59 L 969.09 405.29 L 976.60 394.27 L 984.11 371.68 L 991.62 379.17 L 999.13 375.65 L 1006.64 367.49 L 1014.15 373.11 L 1021.66 380.93 L 1029.17 358.24 L 1036.68 361.76 L 1044.19 362.09 L 1051.70 360.77 L 1059.21 357.69 L 1066.72 310.41 L 1074.23 278.79 L 1081.74 249.37 L 1089.25 248.93 L 1096.75 217.86 L 1104.26 184.47 L 1111.77 195.27 L 1119.28 220.61 L 1126.79 214.22 L 1134.30 186.34 L 1141.81 214.77 L 1149.32 218.08 L 1156.83 209.37 L 1164.34 182.71 L 1171.85 186.56 L 1179.36 155.05 L 1186.87 168.27 L 1194.38 189.43 L 1201.89 146.45 L 1209.40 145.46 L 1216.91 149.98 L 1224.42 169.26 L 1231.92 170.59 L 1239.43 223.70 L 1246.94 194.72 L 1254.45 239.45 L 1261.96 258.96 L 1269.47 225.02 L 1276.98 205.52 L 1284.49 199.57 L 1292.00 242.98 L 698.75 385.78 L 706.26 369.25 L 713.77 375.20 L 721.28 374.32 L 728.79 381.27 L 736.30 384.90 L 743.81 397.02 L 751.32 395.48 L 758.83 408.15 L 766.34 411.79 L 773.85 402.86 L 781.36 389.20 L 788.87 383.69 L 796.38 375.87 L 803.89 383.03 L 811.40 366.72 L 818.91 356.03 L 826.42 332.45 L 833.92 386.77 L 841.43 396.36 L 848.94 412.78 L 856.45 404.29 L 863.96 398.68 L 871.47 379.06 L 878.98 368.15 L 886.49 406.72 L 894.00 425.67 L 901.51 428.65 L 909.02 423.03 L 916.53 428.76 L 924.04 422.37 L 931.55 413.88 L 939.06 415.09 L 946.57 418.07 L 954.08 426.00 L 961.58 408.59 L 969.09 405.29 L 976.60 394.27 L 984.11 371.68 L 991.62 379.17 L 999.13 375.65 L 1006.64 367.49 L 1014.15 373.11 L 1021.66 380.93 L 1029.17 358.24 L 1036.68 361.76 L 1044.19 362.09 L 1051.70 360.77 L 1059.21 357.69 L 1066.72 310.41 L 1074.23 278.79 L 1081.74 249.37 L 1089.25 248.93 L 1096.75 217.86 L 1104.26 184.47 L 1111.77 195.27 L 1119.28 220.61 L 1126.79 214.22 L 1134.30 186.34 L 1141.81 214.77 L 1149.32 218.08 L 1156.83 209.37 L 1164.34 182.71 L 1171.85 186.56 L 1179.36 155.05 L 1186.87 168.27 L 1194.38 189.43 L 1201.89 146.45 L 1209.40 145.46 L 1216.91 149.98 L 1224.42 169.26 L 1231.92 170.59 L 1239.43 223.70 L 1246.94 194.72 L 1254.45 239.45 L 1261.96 258.96 L 1269.47 225.02 L 1276.98 205.52 L 1284.49 199.57 L 1292.00 242.98" fill="none" stroke="#0f766e" stroke-width="2"  />
<path d="M 698.75 386.78 L 706.26 350.26 L 713.77 372.49 L 721.28 370.56 L 728.79 379.25 L 736.30 379.79 L 743.81 387.27 L 751.32 406.28 L 758.83 392.78 L 766.34 406.61 L 773.85 409.16 L 781.36 380.83 L 788.87 386.04 L 796.38 381.99 L 803.89 376.52 L 811.40 372.09 L 818.91 361.33 L 826.42 344.21 L 833.92 403.29 L 841.43 392.81 L 848.94 397.53 L 856.45 413.95 L 863.96 393.72 L 871.47 394.07 L 878.98 373.65 L 886.49 405.42 L 894.00 420.84 L 901.51 425.19 L 909.02 429.60 L 916.53 436.74 L 924.04 409.12 L 931.55 422.27 L 939.06 411.09 L 946.57 413.83 L 954.08 419.69 L 961.58 421.58 L 969.09 406.67 L 976.60 385.25 L 984.11 385.45 L 991.62 370.48 L 999.13 375.99 L 1006.64 370.34 L 1014.15 365.54 L 1021.66 375.85 L 1029.17 376.00 L 1036.68 351.46 L 1044.19 364.24 L 1051.70 362.19 L 1059.21 358.96 L 1066.72 317.74 L 1074.23 282.43 L 1081.74 258.70 L 1089.25 243.67 L 1096.75 209.08 L 1104.26 206.01 L 1111.77 181.61 L 1119.28 219.77 L 1126.79 220.29 L 1134.30 193.02 L 1141.81 205.26 L 1149.32 218.35 L 1156.83 207.38 L 1164.34 197.73 L 1171.85 177.87 L 1179.36 163.52 L 1186.87 167.40 L 1194.38 172.61 L 1201.89 146.55 L 1209.40 138.75 L 1216.91 145.45 L 1224.42 154.65 L 1231.92 172.50 L 1239.43 222.31 L 1246.94 210.64 L 1254.45 220.29 L 1261.96 245.81 L 1269.47 249.53 L 1276.98 211.33 L 1284.49 200.96 L 1292.00 249.58 L 698.75 389.46 L 706.26 357.93 L 713.77 373.28 L 721.28 370.25 L 728.79 374.73 L 736.30 379.77 L 743.81 387.58 L 751.32 406.81 L 758.83 392.78 L 766.34 405.16 L 773.85 409.12 L 781.36 380.28 L 788.87 386.11 L 796.38 382.06 L 803.89 374.07 L 811.40 371.83 L 818.91 361.35 L 826.42 344.14 L 833.92 404.07 L 841.43 391.55 L 848.94 397.59 L 856.45 414.00 L 863.96 393.71 L 871.47 394.10 L 878.98 372.71 L 886.49 404.54 L 894.00 420.93 L 901.51 425.23 L 909.02 428.73 L 916.53 434.03 L 924.04 409.16 L 931.55 422.33 L 939.06 411.14 L 946.57 413.88 L 954.08 418.78 L 961.58 421.62 L 969.09 406.72 L 976.60 386.42 L 984.11 385.48 L 991.62 370.53 L 999.13 376.03 L 1006.64 370.38 L 1014.15 365.00 L 1021.66 375.90 L 1029.17 376.03 L 1036.68 351.50 L 1044.19 364.27 L 1051.70 361.71 L 1059.21 358.99 L 1066.72 317.78 L 1074.23 282.48 L 1081.74 258.75 L 1089.25 243.31 L 1096.75 209.12 L 1104.26 206.03 L 1111.77 181.64 L 1119.28 219.82 L 1126.79 220.21 L 1134.30 193.06 L 1141.81 205.30 L 1149.32 218.37 L 1156.83 207.41 L 1164.34 198.09 L 1171.85 177.89 L 1179.36 163.55 L 1186.87 167.44 L 1194.38 172.63 L 1201.89 147.66 L 1209.40 138.77 L 1216.91 145.47 L 1224.42 154.66 L 1231.92 171.97 L 1239.43 222.34 L 1246.94 210.67 L 1254.45 220.32 L 1261.96 245.82 L 1269.47 249.55 L 1276.98 211.34 L 1284.49 200.97 L 1292.00 249.59" fill="none" stroke="#1d4ed8" stroke-width="2"  />
  </g>
  <g>
    <text x="54" y="538" fill="#1f2937" font-size="16" font-weight="700">B. 绝对误差（越低越好）</text>
    <line x1="98" y1="558" x2="124" y2="558" stroke="#1d4ed8" stroke-width="2"  />
      <text x="130" y="562" fill="#24312e" font-size="12">持仓分段误差</text>
    <line x1="98" y1="560.00" x2="1292" y2="560.00" stroke="#d7e3df" stroke-width="1" />
      <text x="90" y="564.00" text-anchor="end" fill="#5b6b68" font-size="11">2.17%</text>
<line x1="98" y1="630.00" x2="1292" y2="630.00" stroke="#d7e3df" stroke-width="1" />
      <text x="90" y="634.00" text-anchor="end" fill="#5b6b68" font-size="11">1.63%</text>
<line x1="98" y1="700.00" x2="1292" y2="700.00" stroke="#d7e3df" stroke-width="1" />
      <text x="90" y="704.00" text-anchor="end" fill="#5b6b68" font-size="11">1.09%</text>
<line x1="98" y1="770.00" x2="1292" y2="770.00" stroke="#d7e3df" stroke-width="1" />
      <text x="90" y="774.00" text-anchor="end" fill="#5b6b68" font-size="11">0.54%</text>
<line x1="98" y1="840.00" x2="1292" y2="840.00" stroke="#d7e3df" stroke-width="1" />
      <text x="90" y="844.00" text-anchor="end" fill="#5b6b68" font-size="11">0.00%</text>
    <line x1="698.75" y1="560" x2="698.75" y2="840" stroke="#eef3f1" stroke-width="1" />
      <text x="698.75" y="868" text-anchor="middle" fill="#5b6b68" font-size="11">25-11-07</text>
<line x1="886.49" y1="560" x2="886.49" y2="840" stroke="#eef3f1" stroke-width="1" />
      <text x="886.49" y="868" text-anchor="middle" fill="#5b6b68" font-size="11">25-12-16</text>
<line x1="1081.74" y1="560" x2="1081.74" y2="840" stroke="#eef3f1" stroke-width="1" />
      <text x="1081.74" y="868" text-anchor="middle" fill="#5b6b68" font-size="11">26-01-23</text>
<line x1="698.75" y1="560" x2="698.75" y2="840" stroke="#eef3f1" stroke-width="1" />
      <text x="698.75" y="868" text-anchor="middle" fill="#5b6b68" font-size="11">25-11-07</text>
<line x1="909.02" y1="560" x2="909.02" y2="840" stroke="#eef3f1" stroke-width="1" />
      <text x="909.02" y="868" text-anchor="middle" fill="#5b6b68" font-size="11">25-12-19</text>
<line x1="1104.26" y1="560" x2="1104.26" y2="840" stroke="#eef3f1" stroke-width="1" />
      <text x="1104.26" y="868" text-anchor="middle" fill="#5b6b68" font-size="11">26-01-28</text>
<line x1="1292.00" y1="560" x2="1292.00" y2="840" stroke="#eef3f1" stroke-width="1" />
      <text x="1292.00" y="868" text-anchor="middle" fill="#5b6b68" font-size="11">26-03-12</text>
    <line x1="698.75" y1="560" x2="698.75" y2="840" stroke="#f59e0b" stroke-width="1.4" stroke-dasharray="4 4" />
       <text x="704.75" y="552" fill="#a16207" font-size="11">验证起点</text>
    <path d="M 698.75 828.38 L 706.26 621.43 L 713.77 808.59 L 721.28 796.51 L 728.79 816.52 L 736.30 780.39 L 743.81 724.95 L 751.32 712.79 L 758.83 656.74 L 766.34 778.08 L 773.85 765.31 L 781.36 741.90 L 788.87 812.57 L 796.38 769.12 L 803.89 764.16 L 811.40 778.30 L 818.91 779.77 L 826.42 708.98 L 833.92 646.96 L 841.43 798.15 L 848.94 657.39 L 856.45 725.34 L 863.96 781.44 L 871.47 665.72 L 878.98 776.82 L 886.49 824.48 L 894.00 781.44 L 901.51 797.97 L 909.02 760.55 L 916.53 742.94 L 924.04 680.03 L 931.55 739.50 L 939.06 791.99 L 946.57 788.96 L 954.08 763.51 L 961.58 685.12 L 969.09 823.55 L 976.60 733.87 L 984.11 681.23 L 991.62 739.13 L 999.13 835.99 L 1006.64 807.27 L 1014.15 752.61 L 1021.66 780.93 L 1029.17 637.61 L 1036.68 722.27 L 1044.19 815.48 L 1051.70 823.84 L 1059.21 825.50 L 1066.72 759.93 L 1074.23 801.23 L 1081.74 742.99 L 1089.25 785.38 L 1096.75 751.03 L 1104.26 627.32 L 1111.77 704.01 L 1119.28 831.46 L 1126.79 778.62 L 1134.30 773.97 L 1141.81 743.82 L 1149.32 837.23 L 1156.83 819.99 L 1164.34 691.85 L 1171.85 753.97 L 1179.36 758.19 L 1186.87 831.52 L 1194.38 673.24 L 1201.89 839.05 L 1209.40 775.60 L 1216.91 796.40 L 1224.42 697.29 L 1231.92 821.34 L 1239.43 825.90 L 1246.94 681.48 L 1254.45 642.46 L 1261.96 702.32 L 1269.47 590.16 L 1276.98 781.65 L 1284.49 826.08 L 1292.00 771.80 L 698.75 797.01 L 706.26 709.68 L 713.77 817.74 L 721.28 792.95 L 728.79 763.98 L 736.30 780.08 L 743.81 728.59 L 751.32 706.47 L 758.83 656.74 L 766.34 760.75 L 773.85 765.77 L 781.36 735.47 L 788.87 811.77 L 796.38 768.27 L 803.89 735.68 L 811.40 781.33 L 818.91 779.49 L 826.42 709.82 L 833.92 637.78 L 841.43 783.29 L 848.94 658.17 L 856.45 724.76 L 863.96 781.30 L 871.47 665.38 L 878.98 787.60 L 886.49 814.01 L 894.00 782.58 L 901.51 798.49 L 909.02 771.05 L 916.53 775.88 L 924.04 680.51 L 931.55 738.78 L 939.06 792.62 L 946.57 789.56 L 954.08 752.49 L 961.58 684.68 L 969.09 822.95 L 976.60 747.69 L 984.11 680.81 L 991.62 739.70 L 999.13 835.54 L 1006.64 806.84 L 1014.15 746.35 L 1021.66 781.40 L 1029.17 637.22 L 1036.68 722.68 L 1044.19 815.08 L 1051.70 829.29 L 1059.21 825.12 L 1066.72 759.45 L 1074.23 800.70 L 1081.74 742.48 L 1089.25 781.63 L 1096.75 751.49 L 1104.26 627.03 L 1111.77 704.30 L 1119.28 831.94 L 1126.79 779.46 L 1134.30 773.55 L 1141.81 744.25 L 1149.32 837.00 L 1156.83 820.21 L 1164.34 688.24 L 1171.85 754.19 L 1179.36 757.86 L 1186.87 831.85 L 1194.38 673.43 L 1201.89 828.47 L 1209.40 775.78 L 1216.91 796.57 L 1224.42 697.46 L 1231.92 826.52 L 1239.43 826.18 L 1246.94 681.24 L 1254.45 642.70 L 1261.96 702.45 L 1269.47 590.00 L 1276.98 781.52 L 1284.49 825.96 L 1292.00 771.60" fill="none" stroke="#1d4ed8" stroke-width="2"  />
  </g>
</svg>