<?xml version="1.0" encoding="UTF-8"?>
<svg xmlns="http://www.w3.org/2000/svg" width="1360" height="980" viewBox="0 0 1360 980">
  <defs>
    <linearGradient id="bg" x1="0" y1="0" x2="1" y2="1">
      <stop offset="0%" stop-color="#f4efe6" />
      <stop offset="100%" stop-color="#eef5f2" />
    </linearGradient>
  </defs>
  <rect x="0" y="0" width="1360" height="980" fill="url(#bg)" />
  <text x="46" y="36" fill="#1f2937" font-size="31" font-weight="700">159329 离线研究图（持仓逐日估值版）</text>
  <text x="46" y="66" fill="#5b6b68" font-size="13">历史前十大持仓 + 持仓逐日涨跌幅 + USDCNY；双目标 lambda=0.10；披露期数 6；覆盖率均值 76.5%</text>
  <g>
    <text x="54" y="110" fill="#1f2937" font-size="16" font-weight="700">A. 净值拟合（同日对齐，无平移）</text>
    <line x1="98" y1="130" x2="124" y2="130" stroke="#0f766e" stroke-width="2"  />
      <text x="130" y="134" fill="#24312e" font-size="12">真实净值</text>
<line x1="313" y1="130" x2="339" y2="130" stroke="#1d4ed8" stroke-width="2"  />
      <text x="345" y="134" fill="#24312e" font-size="12">持仓分段估值</text>
    <line x1="98" y1="132.00" x2="1292" y2="132.00" stroke="#d7e3df" stroke-width="1" />
      <text x="90" y="136.00" text-anchor="end" fill="#5b6b68" font-size="11">1.055</text>
<line x1="98" y1="209.50" x2="1292" y2="209.50" stroke="#d7e3df" stroke-width="1" />
      <text x="90" y="213.50" text-anchor="end" fill="#5b6b68" font-size="11">1.007</text>
<line x1="98" y1="287.00" x2="1292" y2="287.00" stroke="#d7e3df" stroke-width="1" />
      <text x="90" y="291.00" text-anchor="end" fill="#5b6b68" font-size="11">0.960</text>
<line x1="98" y1="364.50" x2="1292" y2="364.50" stroke="#d7e3df" stroke-width="1" />
      <text x="90" y="368.50" text-anchor="end" fill="#5b6b68" font-size="11">0.912</text>
<line x1="98" y1="442.00" x2="1292" y2="442.00" stroke="#d7e3df" stroke-width="1" />
      <text x="90" y="446.00" text-anchor="end" fill="#5b6b68" font-size="11">0.864</text>
    <line x1="98.00" y1="132" x2="98.00" y2="442" stroke="#eef3f1" stroke-width="1" />
      <text x="98.00" y="470" text-anchor="middle" fill="#5b6b68" font-size="11">25-01-02</text>
<line x1="290.72" y1="132" x2="290.72" y2="442" stroke="#eef3f1" stroke-width="1" />
      <text x="290.72" y="470" text-anchor="middle" fill="#5b6b68" font-size="11">25-03-17</text>
<line x1="479.24" y1="132" x2="479.24" y2="442" stroke="#eef3f1" stroke-width="1" />
      <text x="479.24" y="470" text-anchor="middle" fill="#5b6b68" font-size="11">25-05-23</text>
<line x1="697.09" y1="132" x2="697.09" y2="442" stroke="#eef3f1" stroke-width="1" />
      <text x="697.09" y="470" text-anchor="middle" fill="#5b6b68" font-size="11">25-08-06</text>
<line x1="910.76" y1="132" x2="910.76" y2="442" stroke="#eef3f1" stroke-width="1" />
      <text x="910.76" y="470" text-anchor="middle" fill="#5b6b68" font-size="11">25-10-24</text>
<line x1="1099.28" y1="132" x2="1099.28" y2="442" stroke="#eef3f1" stroke-width="1" />
      <text x="1099.28" y="470" text-anchor="middle" fill="#5b6b68" font-size="11">25-12-26</text>
<line x1="1292.00" y1="132" x2="1292.00" y2="442" stroke="#eef3f1" stroke-width="1" />
      <text x="1292.00" y="470" text-anchor="middle" fill="#5b6b68" font-size="11">26-03-12</text>
    <line x1="1116.04" y1="132" x2="1116.04" y2="442" stroke="#f59e0b" stroke-width="1.4" stroke-dasharray="4 4" />
       <text x="1122.04" y="124" fill="#a16207" font-size="11">验证起点</text>
    <path d="M 98.00 181.11 L 102.19 182.08 L 106.38 186.64 L 110.57 182.90 L 114.76 185.50 L 118.95 182.90 L 123.14 184.20 L 127.33 181.27 L 131.52 175.74 L 135.71 167.93 L 139.89 160.77 L 144.08 158.82 L 148.27 140.76 L 152.46 150.85 L 156.65 157.52 L 160.84 156.22 L 165.03 156.87 L 169.22 165.00 L 173.41 155.40 L 177.60 157.19 L 181.79 154.43 L 185.98 144.18 L 190.17 150.52 L 194.36 155.40 L 198.55 155.40 L 202.74 160.94 L 206.93 177.37 L 211.12 164.19 L 215.31 160.61 L 219.49 148.08 L 223.68 153.62 L 227.87 157.36 L 232.06 160.61 L 236.25 172.49 L 240.44 190.87 L 244.63 187.45 L 248.82 182.90 L 253.01 213.80 L 257.20 218.19 L 261.39 230.23 L 265.58 229.26 L 269.77 234.79 L 273.96 234.46 L 278.15 244.22 L 282.34 238.20 L 286.53 237.88 L 290.72 216.41 L 294.91 227.30 L 299.09 236.90 L 303.28 229.42 L 307.47 227.63 L 311.66 224.70 L 315.85 233.81 L 320.04 199.49 L 324.23 190.87 L 328.42 192.82 L 332.61 192.33 L 336.80 193.14 L 340.99 191.84 L 345.18 213.64 L 349.37 299.85 L 353.56 282.61 L 357.75 309.13 L 361.94 250.57 L 366.13 254.31 L 370.32 236.09 L 374.51 232.51 L 378.69 224.38 L 382.88 227.47 L 387.07 228.28 L 391.26 240.48 L 395.45 237.88 L 399.64 216.41 L 403.83 207.13 L 408.02 209.57 L 412.21 211.04 L 416.40 218.68 L 420.59 224.70 L 424.78 260.16 L 428.97 266.67 L 433.16 266.67 L 437.35 264.07 L 441.54 249.43 L 445.73 244.06 L 449.92 250.08 L 454.11 250.57 L 458.29 251.70 L 462.48 261.30 L 466.67 257.56 L 470.86 277.24 L 475.05 289.77 L 479.24 287.65 L 483.43 306.04 L 487.62 324.58 L 491.81 306.20 L 496.00 314.66 L 500.19 320.51 L 504.38 341.82 L 508.57 310.92 L 512.76 314.66 L 516.95 315.63 L 521.14 312.87 L 525.33 313.68 L 529.52 317.42 L 533.71 336.78 L 537.89 338.24 L 542.08 333.69 L 546.27 354.02 L 550.46 365.73 L 554.65 366.22 L 558.84 367.69 L 563.03 354.51 L 567.22 324.09 L 571.41 321.98 L 575.60 309.94 L 579.79 309.29 L 583.98 308.96 L 588.17 299.69 L 592.36 303.76 L 596.55 284.56 L 600.74 283.59 L 604.93 271.87 L 609.12 275.94 L 613.31 280.82 L 617.49 281.64 L 621.68 282.45 L 625.87 289.77 L 630.06 306.69 L 634.25 311.89 L 638.44 317.75 L 642.63 317.75 L 646.82 321.16 L 651.01 342.96 L 655.20 321.98 L 659.39 327.67 L 663.58 325.88 L 667.77 333.53 L 671.96 338.08 L 676.15 326.53 L 680.34 321.81 L 684.53 321.65 L 688.72 333.85 L 692.91 318.72 L 697.09 314.82 L 701.28 318.56 L 705.47 318.72 L 709.66 332.22 L 713.85 334.83 L 718.04 336.62 L 722.23 326.86 L 726.42 324.58 L 730.61 320.02 L 734.80 319.70 L 738.99 315.31 L 743.18 313.52 L 747.37 313.19 L 751.56 316.45 L 755.75 319.21 L 759.94 330.92 L 764.13 344.26 L 768.32 347.03 L 772.51 351.42 L 776.69 351.09 L 780.88 355.81 L 785.07 351.74 L 789.26 351.42 L 793.45 375.01 L 797.64 370.94 L 801.83 372.08 L 806.02 378.91 L 810.21 380.21 L 814.40 383.63 L 818.59 371.26 L 822.78 356.95 L 826.97 338.57 L 831.16 336.78 L 835.35 321.98 L 839.54 324.09 L 843.73 240.81 L 847.92 257.40 L 852.11 255.93 L 856.29 243.25 L 860.48 231.37 L 864.67 217.71 L 868.86 217.22 L 873.05 222.59 L 877.24 218.19 L 881.43 207.30 L 885.62 206.81 L 889.81 206.81 L 894.00 211.04 L 898.19 226.00 L 902.38 223.40 L 906.57 220.96 L 910.76 221.12 L 914.95 223.07 L 919.14 224.70 L 923.33 217.71 L 927.52 218.36 L 931.71 216.41 L 935.89 243.08 L 940.08 253.98 L 944.27 272.20 L 948.46 270.57 L 952.65 272.36 L 956.84 277.73 L 961.03 272.85 L 965.22 277.41 L 969.41 289.61 L 973.60 291.40 L 977.79 307.34 L 981.98 295.79 L 986.17 311.40 L 990.36 308.48 L 994.55 308.64 L 998.74 331.25 L 1002.93 352.88 L 1007.12 361.67 L 1011.31 363.46 L 1015.49 362.97 L 1019.68 376.63 L 1023.87 376.63 L 1028.06 373.87 L 1032.25 369.48 L 1036.44 366.38 L 1040.63 365.08 L 1044.82 355.65 L 1049.01 351.26 L 1053.20 353.37 L 1057.39 354.35 L 1061.58 373.05 L 1065.77 393.88 L 1069.96 399.89 L 1074.15 393.39 L 1078.34 393.88 L 1082.53 378.42 L 1086.72 373.70 L 1090.91 374.84 L 1095.09 376.47 L 1099.28 385.91 L 1103.47 391.92 L 1107.66 404.29 L 1111.85 395.01 L 1116.04 416.16 L 1120.23 422.99 L 1124.42 396.64 L 1128.61 392.74 L 1132.80 394.53 L 1136.99 355.32 L 1141.18 334.18 L 1145.37 322.63 L 1149.56 342.31 L 1153.75 341.82 L 1157.94 330.44 L 1162.13 333.69 L 1166.32 330.11 L 1170.51 301.97 L 1174.69 305.22 L 1178.88 284.40 L 1183.07 266.51 L 1187.26 261.79 L 1191.45 268.30 L 1195.64 268.46 L 1199.83 276.92 L 1204.02 277.24 L 1208.21 277.41 L 1212.40 300.67 L 1216.59 299.53 L 1220.78 303.60 L 1224.97 304.08 L 1229.16 309.94 L 1233.35 298.23 L 1237.54 298.88 L 1241.73 342.80 L 1245.92 355.65 L 1250.11 379.24 L 1254.29 381.84 L 1258.48 412.26 L 1262.67 399.41 L 1266.86 379.40 L 1271.05 368.66 L 1275.24 368.66 L 1279.43 360.69 L 1283.62 351.26 L 1287.81 348.33 L 1292.00 353.05" fill="none" stroke="#0f766e" stroke-width="2"  />
<path d="M 98.00 190.84 L 102.19 176.74 L 106.38 184.39 L 110.57 188.68 L 114.76 182.43 L 118.95 187.67 L 123.14 184.49 L 127.33 182.26 L 131.52 180.84 L 135.71 163.25 L 139.89 167.57 L 144.08 158.97 L 148.27 162.47 L 152.46 140.54 L 156.65 154.85 L 160.84 158.02 L 165.03 157.55 L 169.22 156.47 L 173.41 166.17 L 177.60 154.09 L 181.79 159.15 L 185.98 152.11 L 190.17 143.51 L 194.36 152.96 L 198.55 154.55 L 202.74 156.54 L 206.93 163.21 L 211.12 181.37 L 215.31 162.12 L 219.49 158.21 L 223.68 160.42 L 227.87 155.66 L 232.06 157.61 L 236.25 170.83 L 240.44 186.25 L 244.63 193.80 L 248.82 188.44 L 253.01 196.51 L 257.20 217.83 L 261.39 232.09 L 265.58 231.78 L 269.77 232.38 L 273.96 237.23 L 278.15 233.79 L 282.34 245.98 L 286.53 230.77 L 290.72 221.57 L 294.91 221.75 L 299.09 229.96 L 303.28 238.37 L 307.47 228.08 L 311.66 227.44 L 315.85 225.76 L 320.04 224.39 L 324.23 182.29 L 328.42 197.30 L 332.61 192.36 L 336.80 192.05 L 340.99 192.40 L 345.18 207.12 L 349.37 279.01 L 353.56 321.66 L 357.75 249.45 L 361.94 326.63 L 366.13 240.69 L 370.32 254.59 L 374.51 231.95 L 378.69 232.93 L 382.88 222.34 L 387.07 229.40 L 391.26 231.57 L 395.45 235.20 L 399.64 237.69 L 403.83 205.22 L 408.02 205.26 L 412.21 214.45 L 416.40 211.80 L 420.59 221.16 L 424.78 255.10 L 428.97 266.35 L 433.16 267.98 L 437.35 265.90 L 441.54 263.80 L 445.73 245.85 L 449.92 243.46 L 454.11 251.06 L 458.29 250.11 L 462.48 254.89 L 466.67 262.67 L 470.86 268.22 L 475.05 281.80 L 479.24 293.96 L 483.43 290.95 L 487.62 310.06 L 491.81 324.70 L 496.00 312.06 L 500.19 316.67 L 504.38 327.05 L 508.57 336.86 L 512.76 305.45 L 516.95 314.64 L 521.14 319.81 L 525.33 311.19 L 529.52 315.60 L 533.71 324.86 L 537.89 358.61 L 542.08 338.40 L 546.27 343.99 L 550.46 365.02 L 554.65 368.96 L 558.84 367.91 L 563.03 355.12 L 567.22 342.83 L 571.41 318.38 L 575.60 319.20 L 579.79 307.12 L 583.98 310.80 L 588.17 310.97 L 592.36 296.69 L 596.55 296.85 L 600.74 282.91 L 604.93 288.04 L 609.12 271.20 L 613.31 276.34 L 617.49 280.69 L 621.68 282.31 L 625.87 285.70 L 630.06 299.02 L 634.25 308.84 L 638.44 312.24 L 642.63 318.68 L 646.82 321.66 L 651.01 325.95 L 655.20 338.80 L 659.39 321.23 L 663.58 327.97 L 667.77 328.14 L 671.96 336.14 L 676.15 337.14 L 680.34 324.88 L 684.53 322.55 L 688.72 322.85 L 692.91 334.37 L 697.09 314.05 L 701.28 316.10 L 705.47 318.52 L 709.66 332.78 L 713.85 333.53 L 718.04 335.57 L 722.23 336.17 L 726.42 325.52 L 730.61 326.08 L 734.80 319.11 L 738.99 319.04 L 743.18 313.83 L 747.37 311.15 L 751.56 316.74 L 755.75 317.22 L 759.94 328.01 L 764.13 340.59 L 768.32 347.32 L 772.51 351.86 L 776.69 353.32 L 780.88 351.91 L 785.07 354.62 L 789.26 352.24 L 793.45 368.13 L 797.64 378.16 L 801.83 369.80 L 806.02 371.96 L 810.21 380.37 L 814.40 383.68 L 818.59 383.06 L 822.78 358.46 L 826.97 351.96 L 831.16 334.72 L 835.35 337.84 L 839.54 262.02 L 843.73 326.03 L 847.92 241.15 L 852.11 258.68 L 856.29 256.71 L 860.48 233.17 L 864.67 229.50 L 868.86 231.52 L 873.05 183.40 L 877.24 222.48 L 881.43 216.77 L 885.62 206.59 L 889.81 206.19 L 894.00 210.04 L 898.19 221.12 L 902.38 227.22 L 906.57 221.40 L 910.76 219.76 L 914.95 226.00 L 919.14 221.33 L 923.33 223.76 L 927.52 232.03 L 931.71 217.63 L 935.89 221.13 L 940.08 249.07 L 944.27 261.18 L 948.46 275.32 L 952.65 270.09 L 956.84 277.34 L 961.03 277.72 L 965.22 274.05 L 969.41 290.36 L 973.60 290.46 L 977.79 299.01 L 981.98 307.23 L 986.17 300.99 L 990.36 315.55 L 994.55 307.13 L 998.74 314.95 L 1002.93 345.93 L 1007.12 357.49 L 1011.31 364.33 L 1015.49 365.27 L 1019.68 383.66 L 1023.87 379.06 L 1028.06 376.17 L 1032.25 372.29 L 1036.44 368.36 L 1040.63 371.32 L 1044.82 363.26 L 1049.01 352.32 L 1053.20 350.82 L 1057.39 355.07 L 1061.58 382.82 L 1065.77 388.25 L 1069.96 398.53 L 1074.15 392.51 L 1078.34 392.24 L 1082.53 396.30 L 1086.72 374.92 L 1090.91 374.26 L 1095.09 376.43 L 1099.28 378.13 L 1103.47 390.92 L 1107.66 399.06 L 1111.85 399.99 L 1116.04 411.21 L 1120.23 402.93 L 1124.42 434.94 L 1128.61 385.76 L 1132.80 391.64 L 1136.99 365.45 L 1141.18 347.55 L 1145.37 330.60 L 1149.56 322.29 L 1153.75 346.48 L 1157.94 345.50 L 1162.13 330.28 L 1166.32 325.64 L 1170.51 317.91 L 1174.69 297.03 L 1178.88 287.43 L 1183.07 271.92 L 1187.26 263.33 L 1191.45 263.33 L 1195.64 269.03 L 1199.83 269.87 L 1204.02 279.88 L 1208.21 276.68 L 1212.40 283.86 L 1216.59 294.12 L 1220.78 303.72 L 1224.97 306.08 L 1229.16 304.37 L 1233.35 313.32 L 1237.54 294.86 L 1241.73 343.91 L 1245.92 351.45 L 1250.11 376.69 L 1254.29 382.09 L 1258.48 401.15 L 1262.67 415.84 L 1266.86 379.68 L 1271.05 378.53 L 1275.24 367.66 L 1279.43 327.98 L 1283.62 359.89 L 1287.81 351.06 L 1292.00 349.29" fill="none" stroke="#1d4ed8" stroke-width="2"  />
  </g>
  <g>
    <text x="54" y="538" fill="#1f2937" font-size="16" font-weight="700">B. 绝对误差（越低越好）</text>
    <line x1="98" y1="558" x2="124" y2="558" stroke="#1d4ed8" stroke-width="2"  />
      <text x="130" y="562" fill="#24312e" font-size="12">持仓分段误差</text>
    <line x1="98" y1="560.00" x2="1292" y2="560.00" stroke="#d7e3df" stroke-width="1" />
      <text x="90" y="564.00" text-anchor="end" fill="#5b6b68" font-size="11">5.94%</text>
<line x1="98" y1="630.00" x2="1292" y2="630.00" stroke="#d7e3df" stroke-width="1" />
      <text x="90" y="634.00" text-anchor="end" fill="#5b6b68" font-size="11">4.45%</text>
<line x1="98" y1="700.00" x2="1292" y2="700.00" stroke="#d7e3df" stroke-width="1" />
      <text x="90" y="704.00" text-anchor="end" fill="#5b6b68" font-size="11">2.97%</text>
<line x1="98" y1="770.00" x2="1292" y2="770.00" stroke="#d7e3df" stroke-width="1" />
      <text x="90" y="774.00" text-anchor="end" fill="#5b6b68" font-size="11">1.48%</text>
<line x1="98" y1="840.00" x2="1292" y2="840.00" stroke="#d7e3df" stroke-width="1" />
      <text x="90" y="844.00" text-anchor="end" fill="#5b6b68" font-size="11">0.00%</text>
    <line x1="98.00" y1="560" x2="98.00" y2="840" stroke="#eef3f1" stroke-width="1" />
      <text x="98.00" y="868" text-anchor="middle" fill="#5b6b68" font-size="11">25-01-02</text>
<line x1="290.72" y1="560" x2="290.72" y2="840" stroke="#eef3f1" stroke-width="1" />
      <text x="290.72" y="868" text-anchor="middle" fill="#5b6b68" font-size="11">25-03-17</text>
<line x1="479.24" y1="560" x2="479.24" y2="840" stroke="#eef3f1" stroke-width="1" />
      <text x="479.24" y="868" text-anchor="middle" fill="#5b6b68" font-size="11">25-05-23</text>
<line x1="697.09" y1="560" x2="697.09" y2="840" stroke="#eef3f1" stroke-width="1" />
      <text x="697.09" y="868" text-anchor="middle" fill="#5b6b68" font-size="11">25-08-06</text>
<line x1="910.76" y1="560" x2="910.76" y2="840" stroke="#eef3f1" stroke-width="1" />
      <text x="910.76" y="868" text-anchor="middle" fill="#5b6b68" font-size="11">25-10-24</text>
<line x1="1099.28" y1="560" x2="1099.28" y2="840" stroke="#eef3f1" stroke-width="1" />
      <text x="1099.28" y="868" text-anchor="middle" fill="#5b6b68" font-size="11">25-12-26</text>
<line x1="1292.00" y1="560" x2="1292.00" y2="840" stroke="#eef3f1" stroke-width="1" />
      <text x="1292.00" y="868" text-anchor="middle" fill="#5b6b68" font-size="11">26-03-12</text>
    <line x1="1116.04" y1="560" x2="1116.04" y2="840" stroke="#f59e0b" stroke-width="1.4" stroke-dasharray="4 4" />
       <text x="1122.04" y="552" fill="#a16207" font-size="11">验证起点</text>
    <path d="M 98.00 812.47 L 102.19 824.87 L 106.38 833.61 L 110.57 823.62 L 114.76 831.29 L 118.95 826.49 L 123.14 839.17 L 127.33 837.20 L 131.52 825.60 L 135.71 826.87 L 139.89 821.00 L 144.08 839.58 L 148.27 780.07 L 152.46 811.35 L 156.65 832.57 L 160.84 834.97 L 165.03 838.11 L 169.22 816.10 L 173.41 810.00 L 177.60 831.35 L 181.79 826.87 L 185.98 818.05 L 190.17 820.53 L 194.36 833.18 L 198.55 837.63 L 202.74 827.72 L 206.93 800.06 L 211.12 791.90 L 215.31 835.78 L 219.49 811.92 L 223.68 821.08 L 227.87 835.26 L 232.06 831.62 L 236.25 835.34 L 240.44 826.86 L 244.63 821.98 L 248.82 824.30 L 253.01 790.10 L 257.20 838.96 L 261.39 834.57 L 265.58 832.64 L 269.77 832.95 L 273.96 831.91 L 278.15 809.34 L 282.34 817.24 L 286.53 819.20 L 290.72 825.08 L 294.91 823.84 L 299.09 819.68 L 303.28 813.93 L 307.47 838.68 L 311.66 832.05 L 315.85 816.47 L 320.04 768.78 L 324.23 815.60 L 328.42 827.25 L 332.61 839.91 L 336.80 836.87 L 340.99 838.40 L 345.18 821.19 L 349.37 776.52 L 353.56 722.40 L 357.75 657.17 L 361.94 615.51 L 366.13 799.73 L 370.32 785.89 L 374.51 838.37 L 378.69 815.15 L 382.88 825.10 L 387.07 836.75 L 391.26 813.87 L 395.45 832.17 L 399.64 778.51 L 403.83 834.49 L 408.02 827.57 L 412.21 830.17 L 416.40 820.07 L 420.59 829.70 L 424.78 824.97 L 428.97 839.04 L 433.16 836.09 L 437.35 834.53 L 441.54 797.60 L 445.73 834.75 L 449.92 820.47 L 454.11 838.55 L 458.29 835.30 L 462.48 820.96 L 466.67 824.86 L 470.86 812.91 L 475.05 815.89 L 479.24 820.95 L 483.43 793.87 L 487.62 795.07 L 491.81 783.44 L 496.00 832.02 L 500.19 828.14 L 504.38 793.75 L 508.57 760.42 L 512.76 811.69 L 516.95 836.93 L 521.14 818.68 L 525.33 832.34 L 529.52 834.38 L 533.71 802.82 L 537.89 776.40 L 542.08 825.33 L 546.27 808.35 L 550.46 837.74 L 554.65 831.30 L 558.84 839.30 L 563.03 838.07 L 567.22 782.03 L 571.41 828.88 L 575.60 811.62 L 579.79 833.36 L 583.98 834.38 L 588.17 805.67 L 592.36 818.43 L 596.55 802.96 L 600.74 837.95 L 604.93 791.66 L 609.12 825.79 L 613.31 826.51 L 617.49 837.15 L 621.68 839.57 L 625.87 827.68 L 630.06 816.55 L 634.25 830.65 L 638.44 823.04 L 642.63 837.14 L 646.82 838.46 L 651.01 786.72 L 655.20 788.02 L 659.39 820.03 L 663.58 833.52 L 667.77 823.22 L 671.96 833.95 L 676.15 807.14 L 680.34 830.53 L 684.53 837.21 L 688.72 805.75 L 692.91 791.77 L 697.09 837.64 L 701.28 832.43 L 705.47 839.38 L 709.66 838.27 L 713.85 835.97 L 718.04 836.72 L 722.23 811.14 L 726.42 837.08 L 730.61 821.33 L 734.80 838.18 L 738.99 828.52 L 743.18 839.03 L 747.37 833.74 L 751.56 839.08 L 755.75 833.87 L 759.94 830.95 L 764.13 828.48 L 768.32 839.09 L 772.51 838.62 L 776.69 833.00 L 780.88 827.66 L 785.07 830.95 L 789.26 837.41 L 793.45 818.00 L 797.64 816.96 L 801.83 832.72 L 806.02 817.69 L 810.21 839.48 L 814.40 839.84 L 818.59 802.35 L 822.78 835.23 L 826.97 798.17 L 831.16 833.56 L 835.35 790.99 L 839.54 647.95 L 843.73 590.00 L 847.92 791.85 L 852.11 831.88 L 856.29 800.45 L 860.48 834.76 L 864.67 805.89 L 868.86 798.65 L 873.05 726.35 L 877.24 827.60 L 881.43 812.78 L 885.62 839.39 L 889.81 838.23 L 894.00 837.12 L 898.19 825.81 L 902.38 828.93 L 906.57 838.73 L 910.76 836.05 L 914.95 831.50 L 919.14 830.21 L 923.33 822.48 L 927.52 800.44 L 931.71 836.47 L 935.89 775.50 L 940.08 825.46 L 944.27 807.04 L 948.46 825.80 L 952.65 833.18 L 956.84 838.83 L 961.03 825.43 L 965.22 829.92 L 969.41 837.72 L 973.60 837.15 L 977.79 814.52 L 981.98 805.23 L 986.17 808.04 L 990.36 818.34 L 994.55 835.39 L 998.74 789.34 L 1002.93 818.08 L 1007.12 826.75 L 1011.31 837.23 L 1015.49 832.68 L 1019.68 817.49 L 1023.87 832.23 L 1028.06 832.63 L 1032.25 831.02 L 1036.44 833.71 L 1040.63 820.16 L 1044.82 815.97 L 1049.01 836.66 L 1053.20 831.96 L 1057.39 837.73 L 1061.58 808.78 L 1065.77 821.77 L 1069.96 835.57 L 1074.15 837.15 L 1078.34 834.69 L 1082.53 782.66 L 1086.72 836.11 L 1090.91 838.14 L 1095.09 839.86 L 1099.28 814.93 L 1103.47 836.75 L 1107.66 822.95 L 1111.85 823.87 L 1116.04 823.70 L 1120.23 773.61 L 1124.42 715.60 L 1128.61 817.41 L 1132.80 830.62 L 1136.99 808.02 L 1141.18 798.36 L 1145.37 815.37 L 1149.56 777.31 L 1153.75 825.42 L 1157.94 793.21 L 1162.13 829.38 L 1166.32 826.13 L 1170.51 791.39 L 1174.69 814.96 L 1178.88 830.87 L 1183.07 823.87 L 1187.26 835.43 L 1191.45 825.18 L 1195.64 838.30 L 1199.83 818.85 L 1204.02 832.09 L 1208.21 837.83 L 1212.40 788.80 L 1216.59 823.53 L 1220.78 839.61 L 1224.97 833.89 L 1229.16 822.93 L 1233.35 794.10 L 1237.54 827.77 L 1241.73 836.53 L 1245.92 826.74 L 1250.11 831.83 L 1254.29 839.20 L 1258.48 803.51 L 1262.67 786.51 L 1266.86 839.09 L 1271.05 808.57 L 1275.24 836.80 L 1279.43 736.30 L 1283.62 812.81 L 1287.81 831.41 L 1292.00 828.15" fill="none" stroke="#1d4ed8" stroke-width="2"  />
  </g>
</svg>