<?xml version="1.0" encoding="UTF-8"?>
<svg xmlns="http://www.w3.org/2000/svg" width="1360" height="980" viewBox="0 0 1360 980">
  <defs>
    <linearGradient id="bg" x1="0" y1="0" x2="1" y2="1">
      <stop offset="0%" stop-color="#f4efe6" />
      <stop offset="100%" stop-color="#eef5f2" />
    </linearGradient>
  </defs>
  <rect x="0" y="0" width="1360" height="980" fill="url(#bg)" />
  <text x="46" y="36" fill="#1f2937" font-size="31" font-weight="700">豆粕ETF（159985）离线研究图（持仓逐日估值版）</text>
  <text x="46" y="66" fill="#5b6b68" font-size="13">历史前十大持仓 + 持仓逐日涨跌幅 + USDCNY；双目标 lambda=0.10；披露期数 18；覆盖率均值 73.9%</text>
  <g>
    <text x="54" y="110" fill="#1f2937" font-size="16" font-weight="700">A. 净值拟合（同日对齐，无平移）</text>
    <line x1="98" y1="130" x2="124" y2="130" stroke="#0f766e" stroke-width="2"  />
      <text x="130" y="134" fill="#24312e" font-size="12">真实净值</text>
<line x1="313" y1="130" x2="339" y2="130" stroke="#1d4ed8" stroke-width="2"  />
      <text x="345" y="134" fill="#24312e" font-size="12">持仓分段估值</text>
    <line x1="98" y1="132.00" x2="1292" y2="132.00" stroke="#d7e3df" stroke-width="1" />
      <text x="90" y="136.00" text-anchor="end" fill="#5b6b68" font-size="11">2.213</text>
<line x1="98" y1="209.50" x2="1292" y2="209.50" stroke="#d7e3df" stroke-width="1" />
      <text x="90" y="213.50" text-anchor="end" fill="#5b6b68" font-size="11">2.092</text>
<line x1="98" y1="287.00" x2="1292" y2="287.00" stroke="#d7e3df" stroke-width="1" />
      <text x="90" y="291.00" text-anchor="end" fill="#5b6b68" font-size="11">1.971</text>
<line x1="98" y1="364.50" x2="1292" y2="364.50" stroke="#d7e3df" stroke-width="1" />
      <text x="90" y="368.50" text-anchor="end" fill="#5b6b68" font-size="11">1.851</text>
<line x1="98" y1="442.00" x2="1292" y2="442.00" stroke="#d7e3df" stroke-width="1" />
      <text x="90" y="446.00" text-anchor="end" fill="#5b6b68" font-size="11">1.730</text>
    <line x1="98.00" y1="132" x2="98.00" y2="442" stroke="#eef3f1" stroke-width="1" />
      <text x="98.00" y="470" text-anchor="middle" fill="#5b6b68" font-size="11">24-06-24</text>
<line x1="289.38" y1="132" x2="289.38" y2="442" stroke="#eef3f1" stroke-width="1" />
      <text x="289.38" y="470" text-anchor="middle" fill="#5b6b68" font-size="11">24-09-26</text>
<line x1="480.77" y1="132" x2="480.77" y2="442" stroke="#eef3f1" stroke-width="1" />
      <text x="480.77" y="470" text-anchor="middle" fill="#5b6b68" font-size="11">25-01-07</text>
<line x1="695.00" y1="132" x2="695.00" y2="442" stroke="#eef3f1" stroke-width="1" />
      <text x="695.00" y="470" text-anchor="middle" fill="#5b6b68" font-size="11">25-05-06</text>
<line x1="909.23" y1="132" x2="909.23" y2="442" stroke="#eef3f1" stroke-width="1" />
      <text x="909.23" y="470" text-anchor="middle" fill="#5b6b68" font-size="11">25-08-20</text>
<line x1="1100.62" y1="132" x2="1100.62" y2="442" stroke="#eef3f1" stroke-width="1" />
      <text x="1100.62" y="470" text-anchor="middle" fill="#5b6b68" font-size="11">25-12-01</text>
<line x1="1292.00" y1="132" x2="1292.00" y2="442" stroke="#eef3f1" stroke-width="1" />
      <text x="1292.00" y="470" text-anchor="middle" fill="#5b6b68" font-size="11">26-03-16</text>
    <line x1="98.00" y1="132" x2="98.00" y2="442" stroke="#f59e0b" stroke-width="1.4" stroke-dasharray="4 4" />
       <text x="104.00" y="124" fill="#a16207" font-size="11">验证起点</text>
    <path d="M 98.00 161.35 L 100.86 162.95 L 103.71 160.45 L 106.57 157.50 L 109.43 153.33 L 112.28 153.20 L 115.14 158.14 L 118.00 153.58 L 120.85 142.36 L 123.71 162.63 L 126.56 170.07 L 129.42 167.82 L 132.28 195.21 L 135.13 210.09 L 137.99 217.08 L 140.85 227.41 L 143.70 254.66 L 146.56 266.66 L 149.42 250.88 L 152.27 260.37 L 155.13 252.03 L 157.99 239.46 L 160.84 234.46 L 163.70 236.06 L 166.56 243.50 L 169.41 234.78 L 172.27 263.71 L 175.12 269.93 L 177.98 274.93 L 180.84 277.18 L 183.69 275.89 L 186.55 269.93 L 189.41 283.01 L 192.26 296.80 L 195.12 304.11 L 197.98 310.98 L 200.83 314.95 L 203.69 340.93 L 206.55 371.39 L 209.40 356.71 L 212.26 353.05 L 215.11 359.01 L 217.97 354.91 L 220.83 354.52 L 223.68 346.32 L 226.54 354.85 L 229.40 358.37 L 232.25 346.57 L 235.11 327.84 L 237.97 331.05 L 240.82 321.69 L 243.68 322.39 L 246.54 306.10 L 249.39 309.69 L 252.25 301.55 L 255.11 291.35 L 257.96 290.84 L 260.82 300.97 L 263.67 315.59 L 266.53 312.71 L 269.39 307.38 L 272.24 281.22 L 275.10 291.35 L 277.96 306.74 L 280.81 311.94 L 283.67 292.76 L 286.53 292.76 L 289.38 290.71 L 292.24 293.92 L 295.10 278.33 L 297.95 308.54 L 300.81 312.58 L 303.67 321.11 L 306.52 329.64 L 309.38 336.44 L 312.23 330.73 L 315.09 330.28 L 317.95 332.27 L 320.80 341.63 L 323.66 336.25 L 326.52 339.07 L 329.37 332.08 L 332.23 333.68 L 335.09 337.72 L 337.94 343.37 L 340.80 335.99 L 343.66 331.05 L 346.51 329.45 L 349.37 334.71 L 352.22 337.02 L 355.08 339.77 L 357.94 335.22 L 360.79 308.73 L 363.65 301.03 L 366.51 294.11 L 369.36 280.58 L 372.22 280.58 L 375.08 287.05 L 377.93 313.09 L 380.79 325.98 L 383.65 322.52 L 386.50 324.64 L 389.36 326.37 L 392.22 338.94 L 395.07 340.54 L 397.93 334.45 L 400.78 332.27 L 403.64 335.67 L 406.50 333.94 L 409.35 340.80 L 412.21 352.02 L 415.07 366.78 L 417.92 390.19 L 420.78 395.38 L 423.64 393.07 L 426.49 386.14 L 429.35 394.35 L 432.21 400.83 L 435.06 405.58 L 437.92 404.62 L 440.78 410.26 L 443.63 427.58 L 446.49 436.24 L 449.34 420.97 L 452.20 409.17 L 455.06 411.73 L 457.91 407.37 L 460.77 399.55 L 463.63 386.47 L 466.48 388.13 L 469.34 378.96 L 472.20 368.51 L 475.05 375.82 L 477.91 384.48 L 480.77 390.06 L 483.62 396.53 L 486.48 408.27 L 489.33 403.01 L 492.19 373.89 L 495.05 354.72 L 497.90 352.54 L 500.76 349.46 L 503.62 349.91 L 506.47 337.66 L 509.33 320.28 L 512.19 312.45 L 515.04 312.39 L 517.90 313.67 L 520.76 328.87 L 523.61 286.99 L 526.47 286.54 L 529.33 292.18 L 532.18 282.11 L 535.04 290.77 L 537.89 303.79 L 540.75 316.88 L 543.61 302.89 L 546.46 303.28 L 549.32 306.74 L 552.18 295.84 L 555.03 285.39 L 557.89 265.37 L 560.75 274.48 L 563.60 285.32 L 566.46 296.16 L 569.32 285.26 L 572.17 276.98 L 575.03 258.64 L 577.89 253.00 L 580.74 278.20 L 583.60 296.48 L 586.45 288.21 L 589.31 276.86 L 592.17 298.98 L 595.02 313.35 L 597.88 306.81 L 600.74 293.27 L 603.59 285.00 L 606.45 287.57 L 609.31 286.67 L 612.16 290.13 L 615.02 304.50 L 617.88 311.43 L 620.73 306.17 L 623.59 313.99 L 626.44 322.71 L 629.30 320.34 L 632.16 316.75 L 635.01 320.34 L 637.87 317.26 L 640.73 302.25 L 643.58 271.40 L 646.44 261.85 L 649.30 248.96 L 652.15 265.57 L 655.01 273.46 L 657.87 263.84 L 660.72 265.05 L 663.58 286.22 L 666.44 294.11 L 669.29 296.16 L 672.15 286.16 L 675.00 284.04 L 677.86 285.71 L 680.72 281.09 L 683.57 286.92 L 686.43 304.69 L 689.29 313.41 L 692.14 326.69 L 695.00 336.57 L 697.86 338.23 L 700.71 340.29 L 703.57 339.84 L 706.43 348.11 L 709.28 343.94 L 712.14 345.99 L 715.00 343.88 L 717.85 344.33 L 720.71 347.98 L 723.56 353.82 L 726.42 341.70 L 729.28 331.76 L 732.13 324.25 L 734.99 325.41 L 737.85 320.85 L 740.70 318.74 L 743.56 322.91 L 746.42 317.45 L 749.27 328.61 L 752.13 329.00 L 754.99 322.33 L 757.84 306.94 L 760.70 298.60 L 763.56 295.26 L 766.41 286.48 L 769.27 283.97 L 772.12 283.14 L 774.98 286.80 L 777.84 277.63 L 780.69 273.46 L 783.55 276.79 L 786.41 273.84 L 789.26 285.45 L 792.12 290.84 L 794.98 299.11 L 797.83 323.23 L 800.69 328.61 L 803.55 320.28 L 806.40 318.99 L 809.26 324.77 L 812.11 319.38 L 814.97 318.54 L 817.83 324.25 L 820.68 328.42 L 823.54 327.59 L 826.40 326.30 L 829.25 314.63 L 832.11 312.13 L 834.97 308.35 L 837.82 311.62 L 840.68 297.89 L 843.54 284.55 L 846.39 277.88 L 849.25 270.76 L 852.11 262.42 L 854.96 285.32 L 857.82 291.93 L 860.67 301.87 L 863.53 313.09 L 866.39 301.80 L 869.24 299.75 L 872.10 300.91 L 874.96 294.11 L 877.81 287.89 L 880.67 287.12 L 883.53 288.72 L 886.38 280.51 L 889.24 288.21 L 892.10 286.16 L 894.95 256.97 L 897.81 249.15 L 900.67 260.18 L 903.52 256.01 L 906.38 247.80 L 909.23 256.40 L 912.09 263.77 L 914.95 277.75 L 917.80 271.15 L 920.66 276.47 L 923.52 293.72 L 926.37 297.38 L 929.23 296.99 L 932.09 291.54 L 934.94 293.21 L 937.80 292.76 L 940.66 290.26 L 943.51 292.31 L 946.37 283.59 L 949.22 284.81 L 952.08 289.75 L 954.94 285.19 L 957.79 280.25 L 960.65 295.01 L 963.51 297.06 L 966.36 308.15 L 969.22 315.53 L 972.08 314.31 L 974.93 303.54 L 977.79 334.77 L 980.65 347.92 L 983.50 331.88 L 986.36 336.76 L 989.22 341.70 L 992.07 343.30 L 994.93 342.72 L 997.78 346.83 L 1000.64 341.83 L 1003.50 351.70 L 1006.35 350.87 L 1009.21 350.42 L 1012.07 364.02 L 1014.92 359.01 L 1017.78 357.73 L 1020.64 368.06 L 1023.49 349.91 L 1026.35 340.03 L 1029.21 342.47 L 1032.06 329.26 L 1034.92 325.92 L 1037.78 323.03 L 1040.63 313.16 L 1043.49 300.33 L 1046.34 303.60 L 1049.20 299.05 L 1052.06 286.28 L 1054.91 294.11 L 1057.77 294.04 L 1060.63 291.16 L 1063.48 293.21 L 1066.34 289.49 L 1069.20 281.60 L 1072.05 293.92 L 1074.91 291.41 L 1077.77 302.13 L 1080.62 309.50 L 1083.48 307.83 L 1086.33 312.71 L 1089.19 311.04 L 1092.05 306.10 L 1094.90 298.28 L 1097.76 293.92 L 1100.62 296.03 L 1103.47 296.74 L 1106.33 295.90 L 1109.19 300.20 L 1112.04 301.29 L 1114.90 315.40 L 1117.76 325.02 L 1120.61 334.32 L 1123.47 332.53 L 1126.33 324.12 L 1129.18 328.93 L 1132.04 328.42 L 1134.89 327.07 L 1137.75 336.37 L 1140.61 340.35 L 1143.46 338.49 L 1146.32 337.59 L 1149.18 338.94 L 1152.03 338.88 L 1154.89 319.89 L 1157.75 317.20 L 1160.60 325.98 L 1163.46 329.96 L 1166.32 335.60 L 1169.17 328.10 L 1172.03 315.66 L 1174.89 309.89 L 1177.74 317.84 L 1180.60 317.77 L 1183.45 322.20 L 1186.31 334.13 L 1189.17 334.58 L 1192.02 340.74 L 1194.88 343.37 L 1197.74 344.20 L 1200.59 343.75 L 1203.45 334.00 L 1206.31 329.58 L 1209.16 326.43 L 1212.02 326.37 L 1214.88 321.49 L 1217.73 312.19 L 1220.59 321.88 L 1223.44 330.73 L 1226.30 339.52 L 1229.16 344.39 L 1232.01 342.15 L 1234.87 338.62 L 1237.73 335.48 L 1240.58 340.74 L 1243.44 329.64 L 1246.30 319.06 L 1249.15 311.23 L 1252.01 313.54 L 1254.87 300.52 L 1257.72 296.22 L 1260.58 298.21 L 1263.44 300.20 L 1266.29 291.54 L 1269.15 295.13 L 1272.00 294.24 L 1274.86 270.12 L 1277.72 221.18 L 1280.57 241.26 L 1283.43 212.59 L 1286.29 194.70 L 1289.14 170.90 L 1292.00 191.75" fill="none" stroke="#0f766e" stroke-width="2"  />
<path d="M 98.00 173.51 L 100.86 174.87 L 103.71 163.29 L 106.57 155.25 L 109.43 158.11 L 112.28 146.33 L 115.14 150.98 L 118.00 156.22 L 120.85 152.07 L 123.71 139.06 L 126.56 164.23 L 129.42 192.46 L 132.28 168.17 L 135.13 202.63 L 137.99 209.31 L 140.85 220.14 L 143.70 246.75 L 146.56 261.92 L 149.42 268.45 L 152.27 249.92 L 155.13 262.53 L 157.99 222.75 L 160.84 238.01 L 163.70 234.80 L 166.56 243.49 L 169.41 253.22 L 172.27 229.53 L 175.12 277.21 L 177.98 272.17 L 180.84 277.73 L 183.69 276.97 L 186.55 285.65 L 189.41 273.10 L 192.26 283.47 L 195.12 301.78 L 197.98 309.64 L 200.83 317.10 L 203.69 325.46 L 206.55 345.04 L 209.40 376.70 L 212.26 355.06 L 215.11 351.67 L 217.97 359.73 L 220.83 355.34 L 223.68 362.54 L 226.54 344.56 L 229.40 360.70 L 232.25 357.31 L 235.11 345.54 L 237.97 324.50 L 240.82 330.75 L 243.68 314.51 L 246.54 320.73 L 249.39 305.64 L 252.25 310.92 L 255.11 309.40 L 257.96 273.23 L 260.82 291.70 L 263.67 303.96 L 266.53 316.73 L 269.39 311.68 L 272.24 308.99 L 275.10 279.03 L 277.96 294.00 L 280.81 296.05 L 283.67 313.26 L 286.53 288.32 L 289.38 294.13 L 292.24 289.58 L 295.10 297.93 L 297.95 267.63 L 300.81 311.84 L 303.67 312.67 L 306.52 323.38 L 309.38 338.84 L 312.23 337.91 L 315.09 330.35 L 317.95 329.69 L 320.80 340.80 L 323.66 350.07 L 326.52 334.23 L 329.37 339.06 L 332.23 331.81 L 335.09 335.10 L 337.94 342.13 L 340.80 343.06 L 343.66 334.49 L 346.51 330.26 L 349.37 329.68 L 352.22 339.61 L 355.08 336.48 L 357.94 338.29 L 360.79 332.46 L 363.65 304.62 L 366.51 297.83 L 369.36 293.12 L 372.22 280.59 L 375.08 285.28 L 377.93 287.42 L 380.79 325.86 L 383.65 328.30 L 386.50 321.41 L 389.36 326.33 L 392.22 326.05 L 395.07 347.71 L 397.93 340.47 L 400.78 334.25 L 403.64 330.45 L 406.50 335.06 L 409.35 333.32 L 412.21 341.58 L 415.07 354.76 L 417.92 367.12 L 420.78 393.15 L 423.64 399.33 L 426.49 392.06 L 429.35 384.89 L 432.21 396.87 L 435.06 402.40 L 437.92 408.75 L 440.78 405.98 L 443.63 416.67 L 446.49 435.30 L 449.34 436.42 L 452.20 409.02 L 455.06 407.86 L 457.91 411.16 L 460.77 405.53 L 463.63 399.73 L 466.48 379.46 L 469.34 377.40 L 472.20 375.35 L 475.05 369.95 L 477.91 380.96 L 480.77 386.01 L 483.62 392.05 L 486.48 396.30 L 489.33 409.19 L 492.19 389.09 L 495.05 370.74 L 497.90 351.95 L 500.76 363.36 L 503.62 347.14 L 506.47 348.51 L 509.33 335.45 L 512.19 317.99 L 515.04 309.86 L 517.90 313.36 L 520.76 313.41 L 523.61 288.54 L 526.47 278.69 L 529.33 288.50 L 532.18 295.76 L 535.04 281.06 L 537.89 292.67 L 540.75 305.80 L 543.61 317.83 L 546.46 291.99 L 549.32 301.49 L 552.18 308.95 L 555.03 299.21 L 557.89 285.42 L 560.75 259.98 L 563.60 275.75 L 566.46 288.10 L 569.32 300.40 L 572.17 285.94 L 575.03 278.00 L 577.89 256.85 L 580.74 250.67 L 583.60 280.80 L 586.45 299.21 L 589.31 279.69 L 592.17 276.59 L 595.02 303.52 L 597.88 314.63 L 600.74 306.07 L 603.59 283.28 L 606.45 284.88 L 609.31 288.30 L 612.16 286.58 L 615.02 291.16 L 617.88 312.10 L 620.73 312.95 L 623.59 307.18 L 626.44 315.33 L 629.30 324.59 L 632.16 317.90 L 635.01 303.90 L 637.87 321.19 L 640.73 317.56 L 643.58 304.77 L 646.44 266.70 L 649.30 238.87 L 652.15 248.11 L 655.01 257.91 L 657.87 276.49 L 660.72 263.35 L 663.58 264.70 L 666.44 290.05 L 669.29 294.37 L 672.15 292.93 L 675.00 284.59 L 677.86 285.54 L 680.72 285.43 L 683.57 280.38 L 686.43 287.68 L 689.29 318.65 L 692.14 315.71 L 695.00 340.63 L 697.86 338.51 L 700.71 338.87 L 703.57 341.02 L 706.43 337.76 L 709.28 349.60 L 712.14 343.87 L 715.00 349.89 L 717.85 345.22 L 720.71 342.98 L 723.56 346.50 L 726.42 354.41 L 729.28 340.75 L 732.13 332.31 L 734.99 317.53 L 737.85 323.95 L 740.70 322.44 L 743.56 318.60 L 746.42 324.08 L 749.27 314.44 L 752.13 328.83 L 754.99 328.11 L 757.84 319.56 L 760.70 300.93 L 763.56 298.38 L 766.41 295.09 L 769.27 285.95 L 772.12 277.12 L 774.98 284.62 L 777.84 287.04 L 780.69 275.05 L 783.55 271.27 L 786.41 275.99 L 789.26 273.32 L 792.12 295.66 L 794.98 293.77 L 797.83 300.95 L 800.69 325.51 L 803.55 333.58 L 806.40 318.94 L 809.26 307.09 L 812.11 325.54 L 814.97 317.18 L 817.83 316.45 L 820.68 325.99 L 823.54 329.06 L 826.40 327.41 L 829.25 327.72 L 832.11 308.30 L 834.97 312.59 L 837.82 306.03 L 840.68 312.55 L 843.54 293.81 L 846.39 278.00 L 849.25 276.80 L 852.11 270.18 L 854.96 260.88 L 857.82 289.17 L 860.67 296.97 L 863.53 304.83 L 866.39 315.46 L 869.24 300.16 L 872.10 300.09 L 874.96 303.06 L 877.81 293.89 L 880.67 286.99 L 883.53 285.56 L 886.38 289.62 L 889.24 272.15 L 892.10 289.46 L 894.95 285.51 L 897.81 253.81 L 900.67 237.53 L 903.52 268.59 L 906.38 255.88 L 909.23 245.80 L 912.09 256.26 L 914.95 264.28 L 917.80 286.76 L 920.66 270.67 L 923.52 277.50 L 926.37 296.98 L 929.23 296.48 L 932.09 294.16 L 934.94 289.12 L 937.80 294.93 L 940.66 292.89 L 943.51 290.84 L 946.37 292.31 L 949.22 283.58 L 952.08 285.58 L 954.94 289.26 L 957.79 283.30 L 960.65 275.56 L 963.51 296.62 L 966.36 299.42 L 969.22 310.81 L 972.08 317.32 L 974.93 315.24 L 977.79 301.32 L 980.65 339.58 L 983.50 350.02 L 986.36 329.61 L 989.22 338.98 L 992.07 344.47 L 994.93 343.53 L 997.78 344.62 L 1000.64 348.59 L 1003.50 340.93 L 1006.35 353.68 L 1009.21 350.51 L 1012.07 350.62 L 1014.92 370.56 L 1017.78 359.38 L 1020.64 357.48 L 1023.49 369.01 L 1026.35 348.13 L 1029.21 330.09 L 1032.06 342.72 L 1034.92 327.28 L 1037.78 325.61 L 1040.63 321.79 L 1043.49 294.01 L 1046.34 299.80 L 1049.20 303.06 L 1052.06 311.90 L 1054.91 284.43 L 1057.77 296.69 L 1060.63 293.67 L 1063.48 290.79 L 1066.34 293.22 L 1069.20 298.15 L 1072.05 263.76 L 1074.91 295.75 L 1077.77 293.55 L 1080.62 305.20 L 1083.48 310.72 L 1086.33 308.96 L 1089.19 313.35 L 1092.05 309.27 L 1094.90 303.71 L 1097.76 295.72 L 1100.62 293.61 L 1103.47 295.52 L 1106.33 298.09 L 1109.19 295.06 L 1112.04 301.68 L 1114.90 304.19 L 1117.76 317.69 L 1120.61 326.69 L 1123.47 335.14 L 1126.33 333.95 L 1129.18 322.14 L 1132.04 331.35 L 1134.89 328.23 L 1137.75 327.08 L 1140.61 337.88 L 1143.46 343.32 L 1146.32 338.33 L 1149.18 336.23 L 1152.03 337.74 L 1154.89 337.40 L 1157.75 311.19 L 1160.60 318.03 L 1163.46 328.24 L 1166.32 334.22 L 1169.17 337.27 L 1172.03 325.35 L 1174.89 313.56 L 1177.74 309.62 L 1180.60 336.81 L 1183.45 319.03 L 1186.31 322.67 L 1189.17 335.81 L 1192.02 333.35 L 1194.88 343.50 L 1197.74 342.53 L 1200.59 343.64 L 1203.45 342.99 L 1206.31 330.54 L 1209.16 327.89 L 1212.02 325.63 L 1214.88 325.18 L 1217.73 320.29 L 1220.59 311.72 L 1223.44 329.64 L 1226.30 331.25 L 1229.16 339.88 L 1232.01 343.04 L 1234.87 342.42 L 1237.73 337.27 L 1240.58 334.70 L 1243.44 341.07 L 1246.30 326.35 L 1249.15 318.03 L 1252.01 306.46 L 1254.87 313.38 L 1257.72 299.16 L 1260.58 293.73 L 1263.44 300.81 L 1266.29 299.04 L 1269.15 290.63 L 1272.00 292.62 L 1274.86 269.02 L 1277.72 258.81 L 1280.57 214.56 L 1283.43 242.50 L 1286.29 207.42 L 1289.14 189.44 L 1292.00 189.65" fill="none" stroke="#1d4ed8" stroke-width="2"  />
  </g>
  <g>
    <text x="54" y="538" fill="#1f2937" font-size="16" font-weight="700">B. 绝对误差（越低越好）</text>
    <line x1="98" y1="558" x2="124" y2="558" stroke="#1d4ed8" stroke-width="2"  />
      <text x="130" y="562" fill="#24312e" font-size="12">持仓分段误差</text>
    <line x1="98" y1="560.00" x2="1292" y2="560.00" stroke="#d7e3df" stroke-width="1" />
      <text x="90" y="564.00" text-anchor="end" fill="#5b6b68" font-size="11">3.69%</text>
<line x1="98" y1="630.00" x2="1292" y2="630.00" stroke="#d7e3df" stroke-width="1" />
      <text x="90" y="634.00" text-anchor="end" fill="#5b6b68" font-size="11">2.76%</text>
<line x1="98" y1="700.00" x2="1292" y2="700.00" stroke="#d7e3df" stroke-width="1" />
      <text x="90" y="704.00" text-anchor="end" fill="#5b6b68" font-size="11">1.84%</text>
<line x1="98" y1="770.00" x2="1292" y2="770.00" stroke="#d7e3df" stroke-width="1" />
      <text x="90" y="774.00" text-anchor="end" fill="#5b6b68" font-size="11">0.92%</text>
<line x1="98" y1="840.00" x2="1292" y2="840.00" stroke="#d7e3df" stroke-width="1" />
      <text x="90" y="844.00" text-anchor="end" fill="#5b6b68" font-size="11">0.00%</text>
    <line x1="98.00" y1="560" x2="98.00" y2="840" stroke="#eef3f1" stroke-width="1" />
      <text x="98.00" y="868" text-anchor="middle" fill="#5b6b68" font-size="11">24-06-24</text>
<line x1="289.38" y1="560" x2="289.38" y2="840" stroke="#eef3f1" stroke-width="1" />
      <text x="289.38" y="868" text-anchor="middle" fill="#5b6b68" font-size="11">24-09-26</text>
<line x1="480.77" y1="560" x2="480.77" y2="840" stroke="#eef3f1" stroke-width="1" />
      <text x="480.77" y="868" text-anchor="middle" fill="#5b6b68" font-size="11">25-01-07</text>
<line x1="695.00" y1="560" x2="695.00" y2="840" stroke="#eef3f1" stroke-width="1" />
      <text x="695.00" y="868" text-anchor="middle" fill="#5b6b68" font-size="11">25-05-06</text>
<line x1="909.23" y1="560" x2="909.23" y2="840" stroke="#eef3f1" stroke-width="1" />
      <text x="909.23" y="868" text-anchor="middle" fill="#5b6b68" font-size="11">25-08-20</text>
<line x1="1100.62" y1="560" x2="1100.62" y2="840" stroke="#eef3f1" stroke-width="1" />
      <text x="1100.62" y="868" text-anchor="middle" fill="#5b6b68" font-size="11">25-12-01</text>
<line x1="1292.00" y1="560" x2="1292.00" y2="840" stroke="#eef3f1" stroke-width="1" />
      <text x="1292.00" y="868" text-anchor="middle" fill="#5b6b68" font-size="11">26-03-16</text>
    <line x1="98.00" y1="560" x2="98.00" y2="840" stroke="#f59e0b" stroke-width="1.4" stroke-dasharray="4 4" />
       <text x="104.00" y="552" fill="#a16207" font-size="11">验证起点</text>
    <path d="M 98.00 773.52 L 100.86 774.76 L 103.71 824.50 L 106.57 827.73 L 109.43 814.00 L 112.28 802.68 L 115.14 800.97 L 118.00 825.71 L 120.85 787.64 L 123.71 711.11 L 126.56 807.90 L 129.42 704.77 L 132.28 688.57 L 135.13 797.77 L 137.99 795.76 L 140.85 798.34 L 143.70 793.65 L 146.56 811.97 L 149.42 737.39 L 152.27 778.49 L 155.13 778.67 L 157.99 743.22 L 160.84 819.53 L 163.70 832.70 L 166.56 839.91 L 169.41 733.62 L 172.27 638.38 L 175.12 796.81 L 177.98 823.59 L 180.84 836.70 L 183.69 833.61 L 186.55 746.81 L 189.41 780.62 L 192.26 759.31 L 195.12 825.81 L 197.98 831.79 L 200.83 826.81 L 203.69 742.97 L 206.55 670.37 L 209.40 712.91 L 212.26 827.23 L 215.11 793.21 L 217.97 809.39 L 220.83 834.82 L 223.68 737.73 L 226.54 774.68 L 229.40 825.16 L 232.25 772.30 L 235.11 730.16 L 237.97 799.24 L 240.82 784.01 L 243.68 791.28 L 246.54 750.78 L 249.39 815.19 L 252.25 783.06 L 255.11 731.17 L 257.96 733.90 L 260.82 783.68 L 263.67 768.50 L 266.53 815.36 L 269.39 813.79 L 272.24 673.94 L 275.10 765.71 L 277.96 762.21 L 280.81 742.63 L 283.67 716.30 L 286.53 813.23 L 289.38 819.42 L 292.24 813.83 L 295.10 723.04 L 297.95 590.00 L 300.81 835.45 L 303.67 787.87 L 306.52 801.06 L 309.38 824.96 L 312.23 795.31 L 315.09 839.57 L 317.95 823.95 L 320.80 834.77 L 323.66 753.59 L 326.52 809.68 L 329.37 796.49 L 332.23 828.30 L 335.09 823.57 L 337.94 832.22 L 340.80 795.82 L 343.66 818.59 L 346.51 834.95 L 349.37 808.64 L 352.22 823.77 L 355.08 819.33 L 357.94 820.82 L 360.79 694.99 L 363.65 818.20 L 366.51 817.50 L 369.36 765.02 L 372.22 839.90 L 375.08 829.37 L 377.93 682.53 L 380.79 839.22 L 383.65 804.31 L 386.50 820.04 L 389.36 839.74 L 392.22 759.24 L 395.07 795.03 L 397.93 802.42 L 400.78 827.69 L 403.64 807.42 L 406.50 832.98 L 409.35 793.05 L 412.21 773.87 L 415.07 762.93 L 417.92 689.17 L 420.78 825.37 L 423.64 798.97 L 426.49 801.45 L 429.35 777.89 L 432.21 813.86 L 435.06 818.94 L 437.92 812.62 L 440.78 811.54 L 443.63 766.29 L 446.49 833.61 L 449.34 736.16 L 452.20 838.99 L 455.06 814.19 L 457.91 814.87 L 460.77 800.53 L 463.63 753.52 L 466.48 783.34 L 469.34 829.88 L 472.20 796.04 L 475.05 802.11 L 477.91 817.13 L 480.77 813.52 L 483.62 810.49 L 486.48 760.43 L 489.33 799.12 L 492.19 742.00 L 495.05 738.29 L 497.90 836.30 L 500.76 752.15 L 503.62 822.49 L 506.47 772.08 L 509.33 746.38 L 512.19 806.06 L 515.04 824.54 L 517.90 838.10 L 520.76 743.92 L 523.61 830.68 L 526.47 792.84 L 529.33 817.79 L 532.18 758.36 L 535.04 781.48 L 537.89 772.30 L 540.75 771.87 L 543.61 749.14 L 546.46 771.31 L 549.32 807.94 L 552.18 760.70 L 555.03 757.08 L 557.89 721.59 L 560.75 753.74 L 563.60 782.59 L 566.46 791.24 L 569.32 749.17 L 572.17 786.63 L 575.03 726.25 L 577.89 817.48 L 580.74 675.73 L 583.60 745.08 L 586.45 773.85 L 589.31 823.10 L 592.17 704.21 L 595.02 779.73 L 597.88 792.25 L 600.74 762.78 L 603.59 829.69 L 606.45 823.83 L 609.31 830.21 L 612.16 818.59 L 615.02 758.78 L 617.88 835.88 L 620.73 798.63 L 623.59 798.20 L 626.44 794.35 L 629.30 813.80 L 632.16 832.89 L 635.01 738.60 L 637.87 815.80 L 640.73 746.95 L 643.58 642.03 L 646.44 811.42 L 649.30 781.19 L 652.15 736.90 L 655.01 747.62 L 657.87 765.33 L 660.72 829.92 L 663.58 710.78 L 666.44 815.48 L 669.29 829.18 L 672.15 799.34 L 675.00 836.72 L 677.86 839.00 L 680.72 814.05 L 683.57 800.69 L 686.43 736.38 L 689.29 807.87 L 692.14 771.93 L 695.00 814.60 L 697.86 838.30 L 700.71 831.13 L 703.57 832.56 L 706.43 774.67 L 709.28 804.40 L 712.14 826.64 L 715.00 802.19 L 717.85 834.39 L 720.71 808.45 L 723.56 793.58 L 726.42 760.15 L 729.28 784.00 L 732.13 790.15 L 734.99 791.19 L 737.85 820.90 L 740.70 817.18 L 743.56 813.41 L 746.42 799.20 L 749.27 751.95 L 752.13 838.97 L 754.99 804.27 L 757.84 762.94 L 760.70 825.89 L 763.56 821.14 L 766.41 788.25 L 769.27 828.14 L 772.12 803.96 L 774.98 826.90 L 777.84 783.85 L 780.69 830.52 L 783.55 807.13 L 786.41 827.20 L 789.26 767.23 L 792.12 810.95 L 794.98 807.61 L 797.83 702.21 L 800.69 820.74 L 803.55 757.94 L 806.40 839.69 L 809.26 730.55 L 812.11 802.01 L 814.97 831.59 L 817.83 791.72 L 820.68 824.90 L 823.54 830.85 L 826.40 833.17 L 829.25 759.61 L 832.11 816.49 L 834.97 814.09 L 837.82 805.79 L 840.68 751.18 L 843.54 784.49 L 846.39 839.31 L 849.25 804.20 L 852.11 794.28 L 854.96 693.37 L 857.82 823.39 L 860.67 810.24 L 863.53 789.31 L 866.39 756.98 L 869.24 837.51 L 872.10 835.02 L 874.96 785.90 L 877.81 803.92 L 880.67 839.26 L 883.53 820.98 L 886.38 785.54 L 889.24 743.45 L 892.10 820.16 L 894.95 672.54 L 897.81 812.78 L 900.67 706.74 L 903.52 766.25 L 906.38 792.95 L 909.23 777.88 L 912.09 795.72 L 914.95 759.65 L 917.80 747.38 L 920.66 805.42 L 923.52 742.00 L 926.37 837.57 L 929.23 836.91 L 932.09 824.20 L 934.94 815.32 L 937.80 826.92 L 940.66 824.17 L 943.51 831.12 L 946.37 787.78 L 949.22 832.64 L 952.08 814.92 L 954.94 815.59 L 957.79 821.83 L 960.65 722.46 L 963.51 837.33 L 966.36 786.66 L 969.22 810.98 L 972.08 821.52 L 974.93 768.74 L 977.79 631.15 L 980.65 787.36 L 983.50 727.05 L 986.36 795.33 L 989.22 822.93 L 992.07 832.62 L 994.93 834.93 L 997.78 826.08 L 1000.64 797.52 L 1003.50 771.79 L 1006.35 822.20 L 1009.21 839.46 L 1012.07 754.31 L 1014.92 766.48 L 1017.78 829.54 L 1020.64 772.11 L 1023.49 719.23 L 1026.35 789.24 L 1029.21 762.22 L 1032.06 756.31 L 1034.92 831.60 L 1037.78 824.08 L 1040.63 787.02 L 1043.49 801.62 L 1046.34 816.85 L 1049.20 815.65 L 1052.06 686.22 L 1054.91 781.54 L 1057.77 824.00 L 1060.63 824.85 L 1063.48 825.38 L 1066.34 817.57 L 1069.20 741.04 L 1072.05 657.84 L 1074.91 813.86 L 1077.77 787.87 L 1080.62 813.72 L 1083.48 822.35 L 1086.33 817.01 L 1089.19 825.85 L 1092.05 820.65 L 1094.90 807.09 L 1097.76 829.12 L 1100.62 825.32 L 1103.47 832.65 L 1106.33 826.78 L 1109.19 808.81 L 1112.04 837.62 L 1114.90 771.09 L 1117.76 794.61 L 1120.61 792.37 L 1123.47 823.74 L 1126.33 779.18 L 1129.18 797.77 L 1132.04 821.83 L 1134.89 832.81 L 1137.75 781.92 L 1140.61 824.52 L 1143.46 809.75 L 1146.32 835.38 L 1149.18 823.05 L 1152.03 832.86 L 1154.89 732.01 L 1157.75 803.01 L 1160.60 790.68 L 1163.46 829.31 L 1166.32 831.37 L 1169.17 783.07 L 1172.03 780.40 L 1174.89 817.52 L 1177.74 789.42 L 1180.60 722.82 L 1183.45 820.39 L 1186.31 768.47 L 1189.17 832.30 L 1192.02 793.66 L 1194.88 839.16 L 1197.74 829.51 L 1200.59 839.31 L 1203.45 783.91 L 1206.31 834.03 L 1209.16 830.95 L 1212.02 835.40 L 1214.88 817.26 L 1217.73 790.40 L 1220.59 777.26 L 1223.44 833.23 L 1226.30 788.20 L 1229.16 811.63 L 1232.01 834.39 L 1234.87 816.20 L 1237.73 828.81 L 1240.58 802.14 L 1243.44 768.92 L 1246.30 795.06 L 1249.15 798.36 L 1252.01 796.56 L 1254.87 761.90 L 1257.72 822.26 L 1260.58 812.85 L 1263.44 836.28 L 1266.29 794.82 L 1269.15 812.78 L 1272.00 830.26 L 1274.86 833.49 L 1277.72 625.16 L 1280.57 685.23 L 1283.43 670.34 L 1286.29 768.76 L 1289.14 738.00 L 1292.00 828.27" fill="none" stroke="#1d4ed8" stroke-width="2"  />
  </g>
</svg>