<?xml version="1.0" encoding="UTF-8"?>
<svg xmlns="http://www.w3.org/2000/svg" width="1360" height="980" viewBox="0 0 1360 980">
  <defs>
    <linearGradient id="bg" x1="0" y1="0" x2="1" y2="1">
      <stop offset="0%" stop-color="#f4efe6" />
      <stop offset="100%" stop-color="#eef5f2" />
    </linearGradient>
  </defs>
  <rect x="0" y="0" width="1360" height="980" fill="url(#bg)" />
  <text x="46" y="36" fill="#1f2937" font-size="31" font-weight="700">159982 离线研究图（持仓逐日估值版）</text>
  <text x="46" y="66" fill="#5b6b68" font-size="13">历史前十大持仓 + 持仓逐日涨跌幅 + USDCNY；双目标 lambda=0.10；披露期数 23；覆盖率均值 33.2%</text>
  <g>
    <text x="54" y="110" fill="#1f2937" font-size="16" font-weight="700">A. 净值拟合（同日对齐，无平移）</text>
    <line x1="98" y1="130" x2="124" y2="130" stroke="#0f766e" stroke-width="2"  />
      <text x="130" y="134" fill="#24312e" font-size="12">真实净值</text>
<line x1="313" y1="130" x2="339" y2="130" stroke="#1d4ed8" stroke-width="2"  />
      <text x="345" y="134" fill="#24312e" font-size="12">持仓分段估值</text>
    <line x1="98" y1="132.00" x2="1292" y2="132.00" stroke="#d7e3df" stroke-width="1" />
      <text x="90" y="136.00" text-anchor="end" fill="#5b6b68" font-size="11">2.286</text>
<line x1="98" y1="209.50" x2="1292" y2="209.50" stroke="#d7e3df" stroke-width="1" />
      <text x="90" y="213.50" text-anchor="end" fill="#5b6b68" font-size="11">2.050</text>
<line x1="98" y1="287.00" x2="1292" y2="287.00" stroke="#d7e3df" stroke-width="1" />
      <text x="90" y="291.00" text-anchor="end" fill="#5b6b68" font-size="11">1.814</text>
<line x1="98" y1="364.50" x2="1292" y2="364.50" stroke="#d7e3df" stroke-width="1" />
      <text x="90" y="368.50" text-anchor="end" fill="#5b6b68" font-size="11">1.578</text>
<line x1="98" y1="442.00" x2="1292" y2="442.00" stroke="#d7e3df" stroke-width="1" />
      <text x="90" y="446.00" text-anchor="end" fill="#5b6b68" font-size="11">1.343</text>
    <line x1="98.00" y1="132" x2="98.00" y2="442" stroke="#eef3f1" stroke-width="1" />
      <text x="98.00" y="470" text-anchor="middle" fill="#5b6b68" font-size="11">25-01-02</text>
<line x1="290.04" y1="132" x2="290.04" y2="442" stroke="#eef3f1" stroke-width="1" />
      <text x="290.04" y="470" text-anchor="middle" fill="#5b6b68" font-size="11">25-03-17</text>
<line x1="482.08" y1="132" x2="482.08" y2="442" stroke="#eef3f1" stroke-width="1" />
      <text x="482.08" y="470" text-anchor="middle" fill="#5b6b68" font-size="11">25-05-26</text>
<line x1="695.00" y1="132" x2="695.00" y2="442" stroke="#eef3f1" stroke-width="1" />
      <text x="695.00" y="470" text-anchor="middle" fill="#5b6b68" font-size="11">25-08-06</text>
<line x1="907.92" y1="132" x2="907.92" y2="442" stroke="#eef3f1" stroke-width="1" />
      <text x="907.92" y="470" text-anchor="middle" fill="#5b6b68" font-size="11">25-10-24</text>
<line x1="1099.96" y1="132" x2="1099.96" y2="442" stroke="#eef3f1" stroke-width="1" />
      <text x="1099.96" y="470" text-anchor="middle" fill="#5b6b68" font-size="11">25-12-29</text>
<line x1="1292.00" y1="132" x2="1292.00" y2="442" stroke="#eef3f1" stroke-width="1" />
      <text x="1292.00" y="470" text-anchor="middle" fill="#5b6b68" font-size="11">26-03-13</text>
    <line x1="1112.48" y1="132" x2="1112.48" y2="442" stroke="#f59e0b" stroke-width="1.4" stroke-dasharray="4 4" />
       <text x="1118.48" y="124" fill="#a16207" font-size="11">验证起点</text>
    <path d="M 98.00 421.22 L 102.17 430.75 L 106.35 430.95 L 110.52 426.21 L 114.70 427.99 L 118.87 428.45 L 123.05 435.05 L 127.22 434.13 L 131.40 418.30 L 135.57 422.11 L 139.75 420.24 L 143.92 416.69 L 148.10 414.42 L 152.27 412.81 L 156.45 414.65 L 160.62 416.26 L 164.80 410.77 L 168.97 415.47 L 173.15 413.50 L 177.32 402.36 L 181.50 395.30 L 185.67 390.73 L 189.85 393.23 L 194.02 386.49 L 198.20 389.88 L 202.37 385.84 L 206.55 385.84 L 210.72 394.71 L 214.90 386.13 L 219.07 384.98 L 223.24 376.70 L 227.42 377.89 L 231.59 383.11 L 235.77 377.33 L 239.94 379.23 L 244.12 393.13 L 248.29 390.93 L 252.47 386.63 L 256.64 385.57 L 260.82 377.43 L 264.99 380.28 L 269.17 380.42 L 273.34 377.56 L 277.52 377.79 L 281.69 381.76 L 285.87 372.83 L 290.04 372.17 L 294.22 369.90 L 298.39 372.50 L 302.57 375.88 L 306.74 383.14 L 310.92 383.50 L 315.09 385.08 L 319.27 384.85 L 323.44 383.87 L 327.62 387.35 L 331.79 392.24 L 335.97 389.29 L 340.14 388.53 L 344.31 393.00 L 348.49 439.78 L 352.66 436.70 L 356.84 426.94 L 361.01 418.26 L 365.19 415.04 L 369.36 411.46 L 373.54 413.53 L 377.71 417.31 L 381.89 416.95 L 386.06 416.69 L 390.24 409.85 L 394.41 411.33 L 398.59 410.44 L 402.76 412.81 L 406.94 410.97 L 411.11 413.37 L 415.29 412.78 L 419.46 410.54 L 423.64 401.48 L 427.81 400.72 L 431.99 398.62 L 436.16 402.95 L 440.34 396.94 L 444.51 397.99 L 448.69 396.42 L 452.86 403.35 L 457.03 403.18 L 461.21 402.56 L 465.38 400.29 L 469.56 399.34 L 473.73 403.68 L 477.91 407.65 L 482.08 406.17 L 486.26 407.52 L 490.43 408.74 L 494.61 401.64 L 498.78 405.42 L 502.96 403.41 L 507.13 399.57 L 511.31 396.74 L 515.48 397.14 L 519.66 393.36 L 523.83 397.34 L 528.01 393.69 L 532.18 392.93 L 536.36 397.57 L 540.53 395.27 L 544.71 396.55 L 548.88 396.78 L 553.06 402.43 L 557.23 404.89 L 561.41 401.94 L 565.58 394.18 L 569.76 385.87 L 573.93 387.74 L 578.10 385.38 L 582.28 381.01 L 586.45 379.43 L 590.63 382.88 L 594.80 380.38 L 598.98 381.17 L 603.15 382.06 L 607.33 375.13 L 611.50 377.03 L 615.68 374.44 L 619.85 370.49 L 624.03 371.05 L 628.20 371.25 L 632.38 371.28 L 636.55 365.70 L 640.73 364.19 L 644.90 358.96 L 649.08 354.53 L 653.25 355.51 L 657.43 347.36 L 661.60 346.77 L 665.78 344.80 L 669.95 342.11 L 674.13 345.36 L 678.30 352.92 L 682.48 353.97 L 686.65 349.89 L 690.83 346.38 L 695.00 341.45 L 699.17 343.16 L 703.35 344.11 L 707.52 338.26 L 711.70 336.03 L 715.87 328.28 L 720.05 334.72 L 724.22 322.86 L 728.40 314.38 L 732.57 315.43 L 736.75 309.32 L 740.92 311.32 L 745.10 301.07 L 749.27 290.13 L 753.45 289.05 L 757.62 297.46 L 761.80 285.40 L 765.97 282.54 L 770.15 277.02 L 774.32 289.64 L 778.50 297.46 L 782.67 312.11 L 786.85 293.42 L 791.02 286.91 L 795.20 292.33 L 799.37 291.84 L 803.55 275.41 L 807.72 273.08 L 811.90 274.13 L 816.07 269.63 L 820.24 263.72 L 824.42 269.04 L 828.59 271.24 L 832.77 266.84 L 836.94 270.72 L 841.12 258.10 L 845.29 255.96 L 849.47 264.31 L 853.64 254.98 L 857.82 249.69 L 861.99 238.03 L 866.17 250.94 L 870.34 252.88 L 874.52 268.42 L 878.69 259.84 L 882.87 265.26 L 887.04 283.13 L 891.22 278.63 L 895.39 268.61 L 899.57 273.38 L 903.74 272.26 L 907.92 262.14 L 912.09 251.82 L 916.27 254.52 L 920.44 242.59 L 924.62 250.51 L 928.79 255.08 L 932.97 255.01 L 937.14 265.62 L 941.31 263.82 L 945.49 253.86 L 949.66 255.34 L 953.84 254.06 L 958.01 258.46 L 962.19 262.47 L 966.36 253.04 L 970.54 262.96 L 974.71 263.09 L 978.89 270.26 L 983.06 272.52 L 987.24 277.65 L 991.41 298.28 L 995.59 293.94 L 999.76 286.72 L 1003.94 285.83 L 1008.11 286.98 L 1012.29 280.24 L 1016.46 274.36 L 1020.64 279.52 L 1024.81 283.23 L 1028.99 281.75 L 1033.16 274.10 L 1037.34 267.82 L 1041.51 272.13 L 1045.69 269.14 L 1049.86 275.18 L 1054.03 266.90 L 1058.21 271.57 L 1062.38 281.16 L 1066.56 269.47 L 1070.73 272.52 L 1074.91 266.64 L 1079.08 259.35 L 1083.26 259.25 L 1087.43 251.04 L 1091.61 245.94 L 1095.78 241.80 L 1099.96 244.27 L 1104.13 241.77 L 1108.31 241.31 L 1112.48 225.41 L 1116.66 211.51 L 1120.83 206.35 L 1125.01 204.78 L 1129.18 190.75 L 1133.36 174.26 L 1137.53 183.26 L 1141.71 176.23 L 1145.88 176.59 L 1150.06 175.70 L 1154.23 170.90 L 1158.41 174.42 L 1162.58 166.40 L 1166.76 162.49 L 1170.93 145.15 L 1175.10 152.44 L 1179.28 148.70 L 1183.45 144.26 L 1187.63 151.32 L 1191.80 163.87 L 1195.98 192.46 L 1200.15 171.10 L 1204.33 170.15 L 1208.50 183.03 L 1212.68 182.86 L 1216.85 169.03 L 1221.03 168.41 L 1225.20 166.63 L 1229.38 158.32 L 1233.55 168.90 L 1237.73 161.11 L 1241.90 149.68 L 1246.08 147.22 L 1250.25 138.64 L 1254.43 138.67 L 1258.60 170.51 L 1262.78 173.34 L 1266.95 168.44 L 1271.13 163.74 L 1275.30 170.48 L 1279.48 159.37 L 1283.65 160.00 L 1287.83 163.81 L 1292.00 173.80" fill="none" stroke="#0f766e" stroke-width="2"  />
<path d="M 98.00 425.42 L 102.17 431.08 L 106.35 430.23 L 110.52 428.35 L 114.70 426.65 L 118.87 427.42 L 123.05 435.78 L 127.22 434.10 L 131.40 418.61 L 135.57 419.65 L 139.75 420.94 L 143.92 418.36 L 148.10 415.20 L 152.27 414.11 L 156.45 413.52 L 160.62 414.57 L 164.80 413.62 L 168.97 414.15 L 173.15 414.27 L 177.32 401.50 L 181.50 395.11 L 185.67 392.85 L 189.85 391.65 L 194.02 386.74 L 198.20 388.06 L 202.37 387.89 L 206.55 384.69 L 210.72 392.72 L 214.90 387.51 L 219.07 386.06 L 223.24 377.68 L 227.42 376.29 L 231.59 380.07 L 235.77 380.07 L 239.94 377.57 L 244.12 394.32 L 248.29 391.71 L 252.47 388.98 L 256.64 386.17 L 260.82 378.08 L 264.99 378.73 L 269.17 379.21 L 273.34 379.27 L 277.52 376.72 L 281.69 379.30 L 285.87 373.18 L 290.04 372.17 L 294.22 370.63 L 298.39 370.49 L 302.57 373.64 L 306.74 383.80 L 310.92 381.94 L 315.09 383.37 L 319.27 384.60 L 323.44 383.85 L 327.62 385.36 L 331.79 391.65 L 335.97 390.13 L 340.14 388.78 L 344.31 389.86 L 348.49 435.47 L 352.66 434.73 L 356.84 428.86 L 361.01 419.83 L 365.19 417.22 L 369.36 413.66 L 373.54 412.06 L 377.71 414.61 L 381.89 417.11 L 386.06 416.58 L 390.24 412.22 L 394.41 409.72 L 398.59 411.08 L 402.76 410.85 L 406.94 411.98 L 411.11 410.80 L 415.29 413.43 L 419.46 411.29 L 423.64 406.05 L 427.81 400.27 L 431.99 398.88 L 436.16 400.01 L 440.34 399.81 L 444.51 397.38 L 448.69 396.36 L 452.86 400.71 L 457.03 403.76 L 461.21 401.63 L 465.38 401.34 L 469.56 399.73 L 473.73 400.79 L 477.91 406.02 L 482.08 406.28 L 486.26 406.84 L 490.43 407.66 L 494.61 404.20 L 498.78 402.83 L 502.96 404.07 L 507.13 401.52 L 511.31 398.06 L 515.48 396.33 L 519.66 394.56 L 523.83 395.33 L 528.01 395.20 L 532.18 393.11 L 536.36 394.79 L 540.53 395.44 L 544.71 395.58 L 548.88 396.19 L 553.06 401.54 L 557.23 403.47 L 561.41 402.29 L 565.58 397.28 L 569.76 386.13 L 573.93 386.63 L 578.10 386.82 L 582.28 382.36 L 586.45 380.12 L 590.63 380.27 L 594.80 381.44 L 598.98 379.67 L 603.15 380.44 L 607.33 376.77 L 611.50 375.49 L 615.68 375.46 L 619.85 372.11 L 624.03 369.64 L 628.20 370.50 L 632.38 371.20 L 636.55 368.06 L 640.73 364.44 L 644.90 361.54 L 649.08 356.04 L 653.25 355.00 L 657.43 350.69 L 661.60 347.01 L 665.78 344.55 L 669.95 342.88 L 674.13 342.80 L 678.30 351.63 L 682.48 352.94 L 686.65 351.59 L 690.83 348.33 L 695.00 343.72 L 699.17 342.11 L 703.35 342.96 L 707.52 340.74 L 711.70 336.62 L 715.87 330.76 L 720.05 330.69 L 724.22 322.57 L 728.40 315.63 L 732.57 315.38 L 736.75 309.16 L 740.92 309.88 L 745.10 302.14 L 749.27 289.75 L 753.45 289.75 L 757.62 295.62 L 761.80 287.77 L 765.97 282.97 L 770.15 279.42 L 774.32 286.92 L 778.50 294.33 L 782.67 314.33 L 786.85 294.32 L 791.02 289.98 L 795.20 289.00 L 799.37 291.50 L 803.55 274.20 L 807.72 274.84 L 811.90 271.51 L 816.07 272.38 L 820.24 265.97 L 824.42 268.98 L 828.59 268.90 L 832.77 267.72 L 836.94 268.12 L 841.12 256.85 L 845.29 257.36 L 849.47 259.18 L 853.64 253.87 L 857.82 252.38 L 861.99 235.72 L 866.17 254.08 L 870.34 250.62 L 874.52 267.49 L 878.69 264.31 L 882.87 261.73 L 887.04 286.53 L 891.22 280.66 L 895.39 270.07 L 899.57 269.99 L 903.74 272.13 L 907.92 263.82 L 912.09 253.53 L 916.27 253.09 L 920.44 243.42 L 924.62 248.26 L 928.79 252.65 L 932.97 253.02 L 937.14 262.50 L 941.31 264.58 L 945.49 254.97 L 949.66 254.51 L 953.84 253.26 L 958.01 255.85 L 962.19 259.45 L 966.36 256.39 L 970.54 264.55 L 974.71 262.30 L 978.89 265.31 L 983.06 270.60 L 987.24 274.59 L 991.41 303.44 L 995.59 296.20 L 999.76 290.85 L 1003.94 285.58 L 1008.11 286.12 L 1012.29 284.20 L 1016.46 276.33 L 1020.64 276.27 L 1024.81 280.88 L 1028.99 281.69 L 1033.16 278.03 L 1037.34 270.48 L 1041.51 269.68 L 1045.69 270.45 L 1049.86 271.11 L 1054.03 271.75 L 1058.21 267.16 L 1062.38 279.75 L 1066.56 270.40 L 1070.73 270.88 L 1074.91 269.66 L 1079.08 262.71 L 1083.26 259.10 L 1087.43 255.65 L 1091.61 248.50 L 1095.78 243.73 L 1099.96 241.48 L 1104.13 242.61 L 1108.31 241.36 L 1112.48 223.57 L 1116.66 213.42 L 1120.83 209.51 L 1125.01 205.32 L 1129.18 190.61 L 1133.36 175.19 L 1137.53 184.94 L 1141.71 180.20 L 1145.88 175.79 L 1150.06 175.87 L 1154.23 172.75 L 1158.41 172.04 L 1162.58 170.38 L 1166.76 163.88 L 1170.93 145.56 L 1175.10 153.02 L 1179.28 149.63 L 1183.45 146.13 L 1187.63 146.71 L 1191.80 162.91 L 1195.98 192.34 L 1200.15 172.84 L 1204.33 169.14 L 1208.50 181.20 L 1212.68 182.69 L 1216.85 169.08 L 1221.03 169.07 L 1225.20 167.23 L 1229.38 162.89 L 1233.55 167.11 L 1237.73 164.96 L 1241.90 152.83 L 1246.08 148.87 L 1250.25 142.69 L 1254.43 135.74 L 1258.60 169.27 L 1262.78 172.21 L 1266.95 170.47 L 1271.13 165.18 L 1275.30 168.13 L 1279.48 163.71 L 1283.65 158.48 L 1287.83 161.40 L 1292.00 165.97" fill="none" stroke="#1d4ed8" stroke-width="2"  />
  </g>
  <g>
    <text x="54" y="538" fill="#1f2937" font-size="16" font-weight="700">B. 绝对误差（越低越好）</text>
    <line x1="98" y1="558" x2="124" y2="558" stroke="#1d4ed8" stroke-width="2"  />
      <text x="130" y="562" fill="#24312e" font-size="12">持仓分段误差</text>
    <line x1="98" y1="560.00" x2="1292" y2="560.00" stroke="#d7e3df" stroke-width="1" />
      <text x="90" y="564.00" text-anchor="end" fill="#5b6b68" font-size="11">1.24%</text>
<line x1="98" y1="630.00" x2="1292" y2="630.00" stroke="#d7e3df" stroke-width="1" />
      <text x="90" y="634.00" text-anchor="end" fill="#5b6b68" font-size="11">0.93%</text>
<line x1="98" y1="700.00" x2="1292" y2="700.00" stroke="#d7e3df" stroke-width="1" />
      <text x="90" y="704.00" text-anchor="end" fill="#5b6b68" font-size="11">0.62%</text>
<line x1="98" y1="770.00" x2="1292" y2="770.00" stroke="#d7e3df" stroke-width="1" />
      <text x="90" y="774.00" text-anchor="end" fill="#5b6b68" font-size="11">0.31%</text>
<line x1="98" y1="840.00" x2="1292" y2="840.00" stroke="#d7e3df" stroke-width="1" />
      <text x="90" y="844.00" text-anchor="end" fill="#5b6b68" font-size="11">0.00%</text>
    <line x1="98.00" y1="560" x2="98.00" y2="840" stroke="#eef3f1" stroke-width="1" />
      <text x="98.00" y="868" text-anchor="middle" fill="#5b6b68" font-size="11">25-01-02</text>
<line x1="290.04" y1="560" x2="290.04" y2="840" stroke="#eef3f1" stroke-width="1" />
      <text x="290.04" y="868" text-anchor="middle" fill="#5b6b68" font-size="11">25-03-17</text>
<line x1="482.08" y1="560" x2="482.08" y2="840" stroke="#eef3f1" stroke-width="1" />
      <text x="482.08" y="868" text-anchor="middle" fill="#5b6b68" font-size="11">25-05-26</text>
<line x1="695.00" y1="560" x2="695.00" y2="840" stroke="#eef3f1" stroke-width="1" />
      <text x="695.00" y="868" text-anchor="middle" fill="#5b6b68" font-size="11">25-08-06</text>
<line x1="907.92" y1="560" x2="907.92" y2="840" stroke="#eef3f1" stroke-width="1" />
      <text x="907.92" y="868" text-anchor="middle" fill="#5b6b68" font-size="11">25-10-24</text>
<line x1="1099.96" y1="560" x2="1099.96" y2="840" stroke="#eef3f1" stroke-width="1" />
      <text x="1099.96" y="868" text-anchor="middle" fill="#5b6b68" font-size="11">25-12-29</text>
<line x1="1292.00" y1="560" x2="1292.00" y2="840" stroke="#eef3f1" stroke-width="1" />
      <text x="1292.00" y="868" text-anchor="middle" fill="#5b6b68" font-size="11">26-03-13</text>
    <line x1="1112.48" y1="560" x2="1112.48" y2="840" stroke="#f59e0b" stroke-width="1.4" stroke-dasharray="4 4" />
       <text x="1118.48" y="552" fill="#a16207" font-size="11">验证起点</text>
    <path d="M 98.00 634.23 L 102.17 823.28 L 106.35 804.04 L 110.52 734.23 L 114.70 773.43 L 118.87 788.87 L 123.05 803.26 L 127.22 838.43 L 131.40 824.51 L 135.57 719.06 L 139.75 805.38 L 143.92 758.53 L 148.10 802.19 L 152.27 777.54 L 156.45 785.28 L 160.62 758.20 L 164.80 703.63 L 168.97 776.01 L 173.15 803.02 L 177.32 799.33 L 181.50 831.45 L 185.67 742.76 L 189.85 766.91 L 194.02 828.88 L 198.20 756.60 L 202.37 746.56 L 206.55 787.52 L 210.72 747.59 L 214.90 777.18 L 219.07 791.19 L 223.24 796.16 L 227.42 768.50 L 231.59 702.10 L 235.77 717.23 L 239.94 765.29 L 244.12 784.79 L 248.29 804.08 L 252.47 732.62 L 256.64 812.85 L 260.82 810.83 L 264.99 769.81 L 269.17 785.70 L 273.34 763.27 L 277.52 792.01 L 281.69 728.47 L 285.87 824.26 L 290.04 839.88 L 294.22 808.08 L 298.39 750.67 L 302.57 739.85 L 306.74 810.34 L 310.92 769.01 L 315.09 762.08 L 319.27 828.49 L 323.44 839.17 L 327.62 749.34 L 331.79 812.41 L 335.97 801.36 L 340.14 828.55 L 344.31 695.05 L 348.49 619.72 L 352.66 740.13 L 356.84 744.60 L 361.01 763.83 L 365.19 734.53 L 369.36 734.50 L 373.54 769.09 L 377.71 708.58 L 381.89 832.18 L 386.06 834.94 L 390.24 726.81 L 394.41 762.46 L 398.59 809.62 L 402.76 745.64 L 406.94 791.52 L 411.11 716.05 L 415.29 808.34 L 419.46 804.32 L 423.64 624.63 L 427.81 819.01 L 431.99 827.86 L 436.16 700.91 L 440.34 706.38 L 444.51 811.40 L 448.69 837.54 L 452.86 715.28 L 457.03 812.97 L 461.21 796.17 L 465.38 790.65 L 469.56 821.61 L 473.73 703.56 L 477.91 762.24 L 482.08 834.90 L 486.26 807.66 L 490.43 788.69 L 494.61 719.33 L 498.78 717.11 L 502.96 809.22 L 507.13 748.52 L 511.31 778.55 L 515.48 802.35 L 519.66 784.28 L 523.83 746.36 L 528.01 770.07 L 532.18 831.67 L 536.36 710.30 L 540.53 831.69 L 544.71 795.04 L 548.88 812.55 L 553.06 798.27 L 557.23 772.49 L 561.41 823.40 L 565.58 696.23 L 569.76 828.11 L 573.93 789.04 L 578.10 774.14 L 582.28 778.88 L 586.45 809.03 L 590.63 721.68 L 594.80 792.26 L 598.98 772.18 L 603.15 766.95 L 607.33 766.64 L 611.50 771.17 L 615.68 794.61 L 619.85 768.49 L 624.03 777.33 L 628.20 806.77 L 632.38 836.22 L 636.55 736.31 L 640.73 828.81 L 644.90 728.36 L 649.08 775.16 L 653.25 818.18 L 657.43 699.16 L 661.60 830.16 L 665.78 829.37 L 669.95 807.68 L 674.13 732.27 L 678.30 785.01 L 682.48 795.93 L 686.65 767.92 L 690.83 757.56 L 695.00 745.25 L 699.17 795.91 L 703.35 791.41 L 707.52 736.82 L 711.70 815.52 L 715.87 738.72 L 720.05 673.56 L 724.22 828.42 L 728.40 790.07 L 732.57 838.19 L 736.75 833.67 L 740.92 782.79 L 745.10 798.65 L 749.27 825.30 L 753.45 813.17 L 757.62 768.66 L 761.80 750.30 L 765.97 823.97 L 770.15 750.58 L 774.32 735.98 L 778.50 719.12 L 782.67 752.12 L 786.85 805.18 L 791.02 723.35 L 795.20 712.32 L 799.37 827.09 L 803.55 794.68 L 807.72 774.49 L 811.90 742.38 L 816.07 738.40 L 820.24 757.64 L 824.42 837.89 L 828.59 753.47 L 832.77 807.72 L 836.94 743.81 L 841.12 794.82 L 845.29 789.42 L 849.47 652.22 L 853.64 799.98 L 857.82 743.65 L 861.99 759.00 L 866.17 727.39 L 870.34 758.90 L 874.52 805.90 L 878.69 677.68 L 882.87 710.32 L 887.04 711.91 L 891.22 763.89 L 895.39 786.22 L 899.57 714.04 L 903.74 835.28 L 907.92 778.68 L 912.09 778.76 L 916.27 788.63 L 920.44 810.88 L 924.62 759.32 L 928.79 752.50 L 932.97 768.21 L 937.14 725.25 L 941.31 811.98 L 945.49 800.25 L 949.66 810.00 L 953.84 811.35 L 958.01 745.25 L 962.19 729.65 L 966.36 719.64 L 970.54 782.06 L 974.71 811.15 L 978.89 657.16 L 983.06 768.54 L 987.24 725.56 L 991.41 640.01 L 995.59 753.35 L 999.76 683.03 L 1003.94 830.62 L 1008.11 807.30 L 1012.29 691.35 L 1016.46 766.64 L 1020.64 718.13 L 1024.81 750.99 L 1028.99 837.66 L 1033.16 693.92 L 1037.34 742.08 L 1041.51 749.24 L 1045.69 791.63 L 1049.86 688.22 L 1054.03 661.65 L 1058.21 676.64 L 1062.38 786.70 L 1066.56 805.50 L 1070.73 779.03 L 1074.91 728.97 L 1079.08 717.83 L 1083.26 834.55 L 1087.43 674.62 L 1091.61 749.01 L 1095.78 771.87 L 1099.96 741.19 L 1104.13 810.46 L 1108.31 838.39 L 1112.48 776.45 L 1116.66 775.80 L 1120.83 734.38 L 1125.01 822.02 L 1129.18 835.62 L 1133.36 810.05 L 1137.53 785.50 L 1141.71 712.61 L 1145.88 814.46 L 1150.06 834.73 L 1154.23 781.14 L 1158.41 764.03 L 1162.58 714.38 L 1166.76 796.30 L 1170.93 827.36 L 1175.10 822.15 L 1179.28 811.28 L 1183.45 782.66 L 1187.63 697.23 L 1191.80 809.50 L 1195.98 836.24 L 1200.15 784.71 L 1204.33 808.00 L 1208.50 780.96 L 1212.68 834.25 L 1216.85 838.57 L 1221.03 818.86 L 1225.20 821.24 L 1229.38 697.03 L 1233.55 783.12 L 1237.73 719.22 L 1241.90 742.56 L 1246.08 789.17 L 1250.25 716.63 L 1254.43 750.58 L 1258.60 800.41 L 1262.78 804.07 L 1266.95 775.56 L 1271.13 794.72 L 1275.30 765.35 L 1279.48 704.28 L 1283.65 792.54 L 1287.83 764.25 L 1292.00 590.00" fill="none" stroke="#1d4ed8" stroke-width="2"  />
  </g>
</svg>