<?xml version="1.0" encoding="UTF-8"?>
<svg xmlns="http://www.w3.org/2000/svg" width="1360" height="980" viewBox="0 0 1360 980">
  <defs>
    <linearGradient id="bg" x1="0" y1="0" x2="1" y2="1">
      <stop offset="0%" stop-color="#f4efe6" />
      <stop offset="100%" stop-color="#eef5f2" />
    </linearGradient>
  </defs>
  <rect x="0" y="0" width="1360" height="980" fill="url(#bg)" />
  <text x="46" y="36" fill="#1f2937" font-size="31" font-weight="700">160140 离线研究图（持仓逐日估值版）</text>
  <text x="46" y="66" fill="#5b6b68" font-size="13">历史前十大持仓 + 持仓逐日涨跌幅 + USDCNY；双目标 lambda=0.10；披露期数 33；覆盖率均值 92.1%</text>
  <g>
    <text x="54" y="110" fill="#1f2937" font-size="16" font-weight="700">A. 净值拟合（同日对齐，无平移）</text>
    <line x1="98" y1="130" x2="124" y2="130" stroke="#0f766e" stroke-width="2"  />
      <text x="130" y="134" fill="#24312e" font-size="12">真实净值</text>
<line x1="313" y1="130" x2="339" y2="130" stroke="#1d4ed8" stroke-width="2"  />
      <text x="345" y="134" fill="#24312e" font-size="12">持仓分段估值</text>
    <line x1="98" y1="132.00" x2="1292" y2="132.00" stroke="#d7e3df" stroke-width="1" />
      <text x="90" y="136.00" text-anchor="end" fill="#5b6b68" font-size="11">1.409</text>
<line x1="98" y1="209.50" x2="1292" y2="209.50" stroke="#d7e3df" stroke-width="1" />
      <text x="90" y="213.50" text-anchor="end" fill="#5b6b68" font-size="11">1.341</text>
<line x1="98" y1="287.00" x2="1292" y2="287.00" stroke="#d7e3df" stroke-width="1" />
      <text x="90" y="291.00" text-anchor="end" fill="#5b6b68" font-size="11">1.273</text>
<line x1="98" y1="364.50" x2="1292" y2="364.50" stroke="#d7e3df" stroke-width="1" />
      <text x="90" y="368.50" text-anchor="end" fill="#5b6b68" font-size="11">1.205</text>
<line x1="98" y1="442.00" x2="1292" y2="442.00" stroke="#d7e3df" stroke-width="1" />
      <text x="90" y="446.00" text-anchor="end" fill="#5b6b68" font-size="11">1.136</text>
    <line x1="98.00" y1="132" x2="98.00" y2="442" stroke="#eef3f1" stroke-width="1" />
      <text x="98.00" y="470" text-anchor="middle" fill="#5b6b68" font-size="11">25-01-02</text>
<line x1="290.72" y1="132" x2="290.72" y2="442" stroke="#eef3f1" stroke-width="1" />
      <text x="290.72" y="470" text-anchor="middle" fill="#5b6b68" font-size="11">25-03-17</text>
<line x1="479.24" y1="132" x2="479.24" y2="442" stroke="#eef3f1" stroke-width="1" />
      <text x="479.24" y="470" text-anchor="middle" fill="#5b6b68" font-size="11">25-05-23</text>
<line x1="697.09" y1="132" x2="697.09" y2="442" stroke="#eef3f1" stroke-width="1" />
      <text x="697.09" y="470" text-anchor="middle" fill="#5b6b68" font-size="11">25-08-06</text>
<line x1="910.76" y1="132" x2="910.76" y2="442" stroke="#eef3f1" stroke-width="1" />
      <text x="910.76" y="470" text-anchor="middle" fill="#5b6b68" font-size="11">25-10-24</text>
<line x1="1099.28" y1="132" x2="1099.28" y2="442" stroke="#eef3f1" stroke-width="1" />
      <text x="1099.28" y="470" text-anchor="middle" fill="#5b6b68" font-size="11">25-12-26</text>
<line x1="1292.00" y1="132" x2="1292.00" y2="442" stroke="#eef3f1" stroke-width="1" />
      <text x="1292.00" y="470" text-anchor="middle" fill="#5b6b68" font-size="11">26-03-12</text>
    <line x1="1116.04" y1="132" x2="1116.04" y2="442" stroke="#f59e0b" stroke-width="1.4" stroke-dasharray="4 4" />
       <text x="1122.04" y="124" fill="#a16207" font-size="11">验证起点</text>
    <path d="M 98.00 286.54 L 102.19 267.87 L 106.38 289.96 L 110.57 296.45 L 114.76 293.26 L 118.95 294.17 L 123.14 324.46 L 127.33 309.55 L 131.52 298.61 L 135.71 298.27 L 139.89 275.84 L 144.08 277.89 L 148.27 278.00 L 152.46 252.83 L 156.65 277.43 L 160.84 265.70 L 165.03 258.30 L 169.22 245.89 L 173.41 248.28 L 177.60 244.52 L 181.79 248.51 L 185.98 249.42 L 190.17 241.33 L 194.36 250.79 L 198.55 232.91 L 202.74 241.11 L 206.93 241.33 L 211.12 234.96 L 215.31 233.59 L 219.49 226.30 L 223.68 238.71 L 227.87 232.79 L 232.06 221.63 L 236.25 227.55 L 240.44 219.58 L 244.63 208.54 L 248.82 199.31 L 253.01 217.76 L 257.20 203.07 L 261.39 242.93 L 265.58 237.01 L 269.77 253.86 L 273.96 268.66 L 278.15 273.22 L 282.34 302.83 L 286.53 281.08 L 290.72 258.64 L 294.91 267.07 L 299.09 266.16 L 303.28 267.98 L 307.47 287.45 L 311.66 261.95 L 315.85 276.07 L 320.04 267.53 L 324.23 275.04 L 328.42 275.61 L 332.61 262.06 L 336.80 261.95 L 340.99 253.29 L 345.18 310.34 L 349.37 406.80 L 353.56 435.50 L 357.75 354.30 L 361.94 386.07 L 366.13 371.95 L 370.32 344.51 L 374.51 340.98 L 378.69 340.41 L 382.88 320.59 L 387.07 320.93 L 391.26 348.72 L 395.45 323.67 L 399.64 315.47 L 403.83 310.34 L 408.02 311.82 L 412.21 301.92 L 416.40 305.67 L 420.59 295.43 L 424.78 287.57 L 428.97 284.49 L 433.16 288.48 L 437.35 278.69 L 441.54 264.91 L 445.73 283.70 L 449.92 299.07 L 454.11 276.86 L 458.29 259.67 L 462.48 259.33 L 466.67 267.98 L 470.86 305.90 L 475.05 310.23 L 479.24 311.37 L 483.43 313.30 L 487.62 286.32 L 491.81 285.29 L 496.00 270.60 L 500.19 271.51 L 504.38 275.38 L 508.57 273.33 L 512.76 277.55 L 516.95 266.39 L 521.14 265.02 L 525.33 256.02 L 529.52 266.96 L 533.71 262.74 L 537.89 275.61 L 542.08 277.43 L 546.27 280.05 L 550.46 276.18 L 554.65 276.75 L 558.84 280.17 L 563.03 262.97 L 567.22 262.97 L 571.41 300.09 L 575.60 303.06 L 579.79 297.93 L 583.98 292.01 L 588.17 286.32 L 592.36 281.08 L 596.55 278.23 L 600.74 278.00 L 604.93 291.33 L 609.12 293.83 L 613.31 295.99 L 617.49 288.25 L 621.68 285.63 L 625.87 276.29 L 630.06 294.97 L 634.25 283.24 L 638.44 289.28 L 642.63 285.18 L 646.82 281.53 L 651.01 260.01 L 655.20 259.78 L 659.39 269.46 L 663.58 268.32 L 667.77 290.30 L 671.96 260.46 L 676.15 282.90 L 680.34 305.79 L 684.53 312.17 L 688.72 302.37 L 692.91 291.90 L 697.09 301.35 L 701.28 298.73 L 705.47 308.52 L 709.66 316.38 L 713.85 305.33 L 718.04 294.29 L 722.23 305.22 L 726.42 297.59 L 730.61 309.66 L 734.80 281.65 L 738.99 278.23 L 743.18 284.83 L 747.37 261.26 L 751.56 272.76 L 755.75 272.88 L 759.94 257.62 L 764.13 261.03 L 768.32 252.61 L 772.51 251.92 L 776.69 275.04 L 780.88 270.49 L 785.07 259.67 L 789.26 245.66 L 793.45 252.04 L 797.64 256.59 L 801.83 256.82 L 806.02 234.39 L 810.21 238.49 L 814.40 242.70 L 818.59 253.06 L 822.78 258.42 L 826.97 250.56 L 831.16 257.85 L 835.35 255.68 L 839.54 245.21 L 843.73 258.42 L 847.92 261.72 L 852.11 246.46 L 856.29 248.62 L 860.48 238.83 L 864.67 267.64 L 868.86 287.68 L 873.05 276.18 L 877.24 262.51 L 881.43 242.36 L 885.62 247.48 L 889.81 234.96 L 894.00 221.29 L 898.19 229.49 L 902.38 220.61 L 906.57 224.71 L 910.76 220.27 L 914.95 214.34 L 919.14 243.61 L 923.33 275.72 L 927.52 265.36 L 931.71 262.17 L 935.89 262.17 L 940.08 261.60 L 944.27 257.85 L 948.46 262.40 L 952.65 241.33 L 956.84 245.55 L 961.03 232.79 L 965.22 246.00 L 969.41 258.07 L 973.60 256.25 L 977.79 261.72 L 981.98 254.66 L 986.17 265.59 L 990.36 267.64 L 994.55 247.60 L 998.74 244.64 L 1002.93 234.61 L 1007.12 228.12 L 1011.31 228.58 L 1015.49 223.00 L 1019.68 236.89 L 1023.87 240.19 L 1028.06 240.42 L 1032.25 246.00 L 1036.44 246.80 L 1040.63 261.72 L 1044.82 267.30 L 1049.01 264.56 L 1053.20 263.43 L 1057.39 263.43 L 1061.58 251.35 L 1065.77 265.59 L 1069.96 259.67 L 1074.15 266.04 L 1078.34 271.62 L 1082.53 264.56 L 1086.72 269.12 L 1090.91 259.33 L 1095.09 260.92 L 1099.28 261.60 L 1103.47 259.67 L 1107.66 256.93 L 1111.85 270.49 L 1116.04 270.26 L 1120.23 258.64 L 1124.42 267.98 L 1128.61 253.29 L 1132.80 251.81 L 1136.99 253.52 L 1141.18 245.89 L 1145.37 234.73 L 1149.56 230.17 L 1153.75 213.77 L 1157.94 214.46 L 1162.13 237.12 L 1166.32 233.36 L 1170.51 252.38 L 1174.69 250.79 L 1178.88 257.39 L 1183.07 254.88 L 1187.26 271.28 L 1191.45 248.05 L 1195.64 243.38 L 1199.83 255.68 L 1204.02 250.90 L 1208.21 232.68 L 1212.40 224.48 L 1216.59 201.70 L 1220.78 200.45 L 1224.97 182.23 L 1229.16 177.90 L 1233.35 178.70 L 1237.54 161.16 L 1241.73 154.33 L 1245.92 153.42 L 1250.11 144.42 L 1254.29 146.47 L 1258.48 139.98 L 1262.67 153.65 L 1266.86 150.46 L 1271.05 168.34 L 1275.24 185.42 L 1279.43 178.59 L 1283.62 180.29 L 1287.81 194.64 L 1292.00 200.68" fill="none" stroke="#0f766e" stroke-width="2"  />
<path d="M 98.00 285.90 L 102.19 266.07 L 106.38 280.68 L 110.57 302.64 L 114.76 293.05 L 118.95 293.83 L 123.14 295.29 L 127.33 311.36 L 131.52 305.24 L 135.71 293.69 L 139.89 278.70 L 144.08 274.56 L 148.27 281.16 L 152.46 281.33 L 156.65 266.93 L 160.84 271.34 L 165.03 265.76 L 169.22 252.97 L 173.41 244.19 L 177.60 243.95 L 181.79 246.78 L 185.98 245.74 L 190.17 245.95 L 194.36 245.26 L 198.55 241.02 L 202.74 235.62 L 206.93 242.70 L 211.12 241.25 L 215.31 233.00 L 219.49 231.31 L 223.68 238.46 L 227.87 237.70 L 232.06 220.50 L 236.25 223.50 L 240.44 226.74 L 244.63 204.86 L 248.82 207.29 L 253.01 215.37 L 257.20 205.90 L 261.39 235.37 L 265.58 238.89 L 269.77 251.73 L 273.96 269.02 L 278.15 268.77 L 282.34 296.63 L 286.53 277.58 L 290.72 260.09 L 294.91 264.16 L 299.09 264.12 L 303.28 267.34 L 307.47 273.00 L 311.66 263.82 L 315.85 275.22 L 320.04 276.79 L 324.23 269.41 L 328.42 279.30 L 332.61 263.22 L 336.80 260.39 L 340.99 258.45 L 345.18 299.50 L 349.37 410.81 L 353.56 432.35 L 357.75 344.95 L 361.94 394.03 L 366.13 374.14 L 370.32 345.94 L 374.51 343.13 L 378.69 345.08 L 382.88 328.20 L 387.07 321.19 L 391.26 321.29 L 395.45 320.54 L 399.64 321.36 L 403.83 309.06 L 408.02 309.41 L 412.21 309.97 L 416.40 298.86 L 420.59 303.35 L 424.78 294.56 L 428.97 285.64 L 433.16 283.97 L 437.35 284.46 L 441.54 267.35 L 445.73 274.28 L 449.92 288.08 L 454.11 279.46 L 458.29 264.59 L 462.48 258.03 L 466.67 262.31 L 470.86 304.19 L 475.05 308.11 L 479.24 312.49 L 483.43 312.70 L 487.62 314.04 L 491.81 286.69 L 496.00 278.15 L 500.19 268.26 L 504.38 270.67 L 508.57 272.90 L 512.76 273.76 L 516.95 271.82 L 521.14 266.06 L 525.33 257.92 L 529.52 258.35 L 533.71 263.06 L 537.89 273.28 L 542.08 274.97 L 546.27 279.95 L 550.46 277.46 L 554.65 277.08 L 558.84 278.02 L 563.03 263.25 L 567.22 259.66 L 571.41 287.25 L 575.60 301.47 L 579.79 301.54 L 583.98 294.42 L 588.17 288.91 L 592.36 283.28 L 596.55 279.45 L 600.74 279.07 L 604.93 279.06 L 609.12 291.18 L 613.31 291.95 L 617.49 292.74 L 621.68 288.71 L 625.87 284.06 L 630.06 288.25 L 634.25 286.20 L 638.44 282.57 L 642.63 288.06 L 646.82 283.77 L 651.01 265.71 L 655.20 258.01 L 659.39 261.18 L 663.58 268.06 L 667.77 283.51 L 671.96 277.20 L 676.15 272.69 L 680.34 295.25 L 684.53 308.98 L 688.72 304.78 L 692.91 300.91 L 697.09 294.06 L 701.28 300.20 L 705.47 301.70 L 709.66 311.71 L 713.85 311.19 L 718.04 299.98 L 722.23 298.30 L 726.42 301.31 L 730.61 302.53 L 734.80 293.13 L 738.99 279.16 L 743.18 280.10 L 747.37 258.38 L 751.56 267.26 L 755.75 272.92 L 759.94 267.98 L 764.13 259.36 L 768.32 257.95 L 772.51 256.27 L 776.69 251.63 L 780.88 273.69 L 785.07 264.82 L 789.26 253.38 L 793.45 249.73 L 797.64 252.39 L 801.83 255.99 L 806.02 234.57 L 810.21 236.62 L 814.40 240.09 L 818.59 247.22 L 822.78 254.73 L 826.97 256.53 L 831.16 252.83 L 835.35 258.11 L 839.54 252.64 L 843.73 261.33 L 847.92 260.64 L 852.11 247.29 L 856.29 247.40 L 860.48 243.82 L 864.67 260.09 L 868.86 290.81 L 873.05 280.10 L 877.24 268.78 L 881.43 245.35 L 885.62 244.65 L 889.81 241.04 L 894.00 224.99 L 898.19 222.60 L 902.38 226.63 L 906.57 218.90 L 910.76 220.43 L 914.95 218.23 L 919.14 237.18 L 923.33 272.04 L 927.52 274.27 L 931.71 261.73 L 935.89 262.07 L 940.08 262.74 L 944.27 259.35 L 948.46 262.71 L 952.65 244.77 L 956.84 239.76 L 961.03 232.90 L 965.22 236.72 L 969.41 266.88 L 973.60 255.84 L 977.79 261.01 L 981.98 259.77 L 986.17 257.51 L 990.36 270.10 L 994.55 248.44 L 998.74 245.42 L 1002.93 238.15 L 1007.12 230.19 L 1011.31 228.60 L 1015.49 229.68 L 1019.68 234.63 L 1023.87 237.31 L 1028.06 237.77 L 1032.25 240.46 L 1036.44 245.75 L 1040.63 250.93 L 1044.82 264.53 L 1049.01 265.39 L 1053.20 262.17 L 1057.39 265.68 L 1061.58 263.87 L 1065.77 262.43 L 1069.96 264.84 L 1074.15 260.99 L 1078.34 266.67 L 1082.53 269.63 L 1086.72 264.80 L 1090.91 265.35 L 1095.09 260.55 L 1099.28 262.13 L 1103.47 260.71 L 1107.66 259.34 L 1111.85 262.32 L 1116.04 267.67 L 1120.23 265.07 L 1124.42 263.62 L 1128.61 263.21 L 1132.80 249.78 L 1136.99 251.13 L 1141.18 249.87 L 1145.37 240.75 L 1149.56 229.64 L 1153.75 217.07 L 1157.94 215.77 L 1162.13 215.16 L 1166.32 232.98 L 1170.51 237.91 L 1174.69 251.69 L 1178.88 250.82 L 1183.07 256.78 L 1187.26 265.94 L 1191.45 260.50 L 1195.64 247.25 L 1199.83 247.88 L 1204.02 257.42 L 1208.21 237.25 L 1212.40 234.60 L 1216.59 200.51 L 1220.78 201.21 L 1224.97 188.41 L 1229.16 181.62 L 1233.35 179.74 L 1237.54 162.71 L 1241.73 159.82 L 1245.92 153.34 L 1250.11 151.02 L 1254.29 141.38 L 1258.48 144.01 L 1262.67 142.28 L 1266.86 150.78 L 1271.05 162.14 L 1275.24 180.61 L 1279.43 182.52 L 1283.62 181.65 L 1287.81 190.32 L 1292.00 206.15" fill="none" stroke="#1d4ed8" stroke-width="2"  />
  </g>
  <g>
    <text x="54" y="538" fill="#1f2937" font-size="16" font-weight="700">B. 绝对误差（越低越好）</text>
    <line x1="98" y1="558" x2="124" y2="558" stroke="#1d4ed8" stroke-width="2"  />
      <text x="130" y="562" fill="#24312e" font-size="12">持仓分段误差</text>
    <line x1="98" y1="560.00" x2="1292" y2="560.00" stroke="#d7e3df" stroke-width="1" />
      <text x="90" y="564.00" text-anchor="end" fill="#5b6b68" font-size="11">2.31%</text>
<line x1="98" y1="630.00" x2="1292" y2="630.00" stroke="#d7e3df" stroke-width="1" />
      <text x="90" y="634.00" text-anchor="end" fill="#5b6b68" font-size="11">1.74%</text>
<line x1="98" y1="700.00" x2="1292" y2="700.00" stroke="#d7e3df" stroke-width="1" />
      <text x="90" y="704.00" text-anchor="end" fill="#5b6b68" font-size="11">1.16%</text>
<line x1="98" y1="770.00" x2="1292" y2="770.00" stroke="#d7e3df" stroke-width="1" />
      <text x="90" y="774.00" text-anchor="end" fill="#5b6b68" font-size="11">0.58%</text>
<line x1="98" y1="840.00" x2="1292" y2="840.00" stroke="#d7e3df" stroke-width="1" />
      <text x="90" y="844.00" text-anchor="end" fill="#5b6b68" font-size="11">0.00%</text>
    <line x1="98.00" y1="560" x2="98.00" y2="840" stroke="#eef3f1" stroke-width="1" />
      <text x="98.00" y="868" text-anchor="middle" fill="#5b6b68" font-size="11">25-01-02</text>
<line x1="290.72" y1="560" x2="290.72" y2="840" stroke="#eef3f1" stroke-width="1" />
      <text x="290.72" y="868" text-anchor="middle" fill="#5b6b68" font-size="11">25-03-17</text>
<line x1="479.24" y1="560" x2="479.24" y2="840" stroke="#eef3f1" stroke-width="1" />
      <text x="479.24" y="868" text-anchor="middle" fill="#5b6b68" font-size="11">25-05-23</text>
<line x1="697.09" y1="560" x2="697.09" y2="840" stroke="#eef3f1" stroke-width="1" />
      <text x="697.09" y="868" text-anchor="middle" fill="#5b6b68" font-size="11">25-08-06</text>
<line x1="910.76" y1="560" x2="910.76" y2="840" stroke="#eef3f1" stroke-width="1" />
      <text x="910.76" y="868" text-anchor="middle" fill="#5b6b68" font-size="11">25-10-24</text>
<line x1="1099.28" y1="560" x2="1099.28" y2="840" stroke="#eef3f1" stroke-width="1" />
      <text x="1099.28" y="868" text-anchor="middle" fill="#5b6b68" font-size="11">25-12-26</text>
<line x1="1292.00" y1="560" x2="1292.00" y2="840" stroke="#eef3f1" stroke-width="1" />
      <text x="1292.00" y="868" text-anchor="middle" fill="#5b6b68" font-size="11">26-03-12</text>
    <line x1="1116.04" y1="560" x2="1116.04" y2="840" stroke="#f59e0b" stroke-width="1.4" stroke-dasharray="4 4" />
       <text x="1122.04" y="552" fill="#a16207" font-size="11">验证起点</text>
    <path d="M 98.00 834.65 L 102.19 825.16 L 106.38 762.38 L 110.57 788.00 L 114.76 838.24 L 118.95 837.15 L 123.14 590.00 L 127.33 824.64 L 131.52 784.23 L 135.71 801.44 L 139.89 816.31 L 144.08 812.35 L 148.27 813.79 L 152.46 607.55 L 156.65 752.89 L 160.84 793.64 L 165.03 778.90 L 169.22 782.52 L 173.41 806.75 L 177.60 835.36 L 181.79 825.92 L 185.98 810.08 L 190.17 802.66 L 194.36 795.01 L 198.55 774.72 L 202.74 795.58 L 206.93 828.97 L 211.12 789.31 L 215.31 835.22 L 219.49 799.90 L 223.68 837.92 L 227.87 800.53 L 232.06 830.95 L 236.25 807.49 L 240.44 782.94 L 244.63 810.89 L 248.82 777.21 L 253.01 820.99 L 257.20 817.63 L 261.39 778.77 L 265.58 824.78 L 269.77 822.60 L 273.96 837.04 L 278.15 803.20 L 282.34 787.72 L 286.53 810.92 L 290.72 828.17 L 294.91 816.06 L 299.09 823.20 L 303.28 834.69 L 307.47 719.27 L 311.66 824.60 L 315.85 833.00 L 320.04 763.64 L 324.23 793.41 L 328.42 809.48 L 332.61 830.47 L 336.80 827.24 L 340.99 797.92 L 345.18 747.98 L 349.37 803.47 L 353.56 810.76 L 357.75 758.13 L 361.94 768.71 L 366.13 820.61 L 370.32 827.56 L 374.51 821.35 L 378.69 799.46 L 382.88 774.97 L 387.07 837.78 L 391.26 600.80 L 395.45 813.18 L 399.64 789.82 L 403.83 829.12 L 408.02 819.48 L 412.21 772.07 L 416.40 782.33 L 420.59 773.46 L 424.78 781.59 L 428.97 830.46 L 433.16 802.35 L 437.35 792.10 L 441.54 819.94 L 445.73 761.56 L 449.92 747.45 L 454.11 818.46 L 458.29 799.65 L 462.48 829.37 L 466.67 793.30 L 470.86 825.52 L 475.05 822.01 L 479.24 830.48 L 483.43 834.84 L 487.62 608.65 L 491.81 828.37 L 496.00 777.70 L 500.19 813.17 L 504.38 800.97 L 508.57 836.39 L 512.76 808.60 L 516.95 795.25 L 521.14 831.48 L 525.33 824.53 L 529.52 769.10 L 533.71 837.35 L 537.89 820.69 L 542.08 819.56 L 546.27 839.18 L 550.46 829.36 L 554.65 837.23 L 558.84 822.20 L 563.03 837.72 L 567.22 812.79 L 571.41 731.75 L 575.60 826.60 L 579.79 809.66 L 583.98 819.83 L 588.17 818.36 L 592.36 821.66 L 596.55 829.85 L 600.74 831.12 L 604.93 737.33 L 609.12 817.75 L 613.31 806.06 L 617.49 802.47 L 621.68 814.36 L 625.87 775.68 L 630.06 783.56 L 634.25 815.40 L 638.44 783.92 L 642.63 815.93 L 646.82 821.40 L 651.01 793.30 L 655.20 825.51 L 659.39 771.67 L 663.58 837.82 L 667.77 783.18 L 671.96 702.77 L 676.15 755.00 L 680.34 750.83 L 684.53 812.97 L 688.72 819.66 L 692.91 764.52 L 697.09 778.55 L 701.28 827.61 L 705.47 782.18 L 709.66 800.21 L 713.85 790.49 L 718.04 792.25 L 722.23 781.46 L 726.42 808.68 L 730.61 779.49 L 734.80 744.49 L 738.99 832.31 L 743.18 800.49 L 747.37 816.35 L 751.56 794.47 L 755.75 839.66 L 759.94 755.18 L 764.13 826.28 L 768.32 796.45 L 772.51 804.55 L 776.69 646.14 L 780.88 813.56 L 785.07 797.75 L 789.26 777.36 L 793.45 821.16 L 797.64 805.61 L 801.83 833.20 L 806.02 838.56 L 810.21 824.88 L 814.40 818.83 L 818.59 792.37 L 822.78 809.86 L 826.97 791.40 L 831.16 798.96 L 835.35 820.16 L 839.54 779.70 L 843.73 816.10 L 847.92 831.18 L 852.11 833.24 L 856.29 830.07 L 860.48 799.66 L 864.67 777.83 L 868.86 813.89 L 873.05 807.48 L 877.24 788.60 L 881.43 815.73 L 885.62 817.00 L 889.81 791.00 L 894.00 810.44 L 898.19 784.66 L 902.38 791.92 L 906.57 793.53 L 910.76 838.70 L 914.95 809.14 L 919.14 787.84 L 923.33 809.44 L 927.52 766.72 L 931.71 836.38 L 935.89 839.17 L 940.08 830.68 L 944.27 827.69 L 948.46 837.45 L 952.65 812.17 L 956.84 793.00 L 961.03 839.12 L 965.22 764.64 L 969.41 767.92 L 973.60 836.60 L 977.79 834.23 L 981.98 798.21 L 986.17 773.50 L 990.36 819.72 L 994.55 833.15 L 998.74 833.65 L 1002.93 811.50 L 1007.12 823.44 L 1011.31 839.81 L 1015.49 786.62 L 1019.68 821.78 L 1023.87 816.65 L 1028.06 818.57 L 1032.25 794.99 L 1036.44 831.50 L 1040.63 751.49 L 1044.82 817.21 L 1049.01 833.21 L 1053.20 829.67 L 1057.39 821.48 L 1061.58 738.06 L 1065.77 814.01 L 1069.96 797.65 L 1074.15 798.43 L 1078.34 799.10 L 1082.53 798.37 L 1086.72 804.39 L 1090.91 790.69 L 1095.09 836.93 L 1099.28 835.67 L 1103.47 831.45 L 1107.66 820.29 L 1111.85 772.59 L 1116.04 818.63 L 1120.23 787.37 L 1124.42 804.05 L 1128.61 759.10 L 1132.80 823.46 L 1136.99 820.51 L 1141.18 807.69 L 1145.37 791.51 L 1149.56 835.72 L 1153.75 813.80 L 1157.94 829.61 L 1162.13 662.76 L 1166.32 836.95 L 1170.51 722.03 L 1174.69 832.66 L 1178.88 786.22 L 1183.07 824.56 L 1187.26 795.90 L 1191.45 738.81 L 1195.64 808.67 L 1199.83 776.27 L 1204.02 786.91 L 1208.21 803.21 L 1212.40 758.97 L 1216.59 830.60 L 1220.78 834.00 L 1224.97 791.90 L 1229.16 811.16 L 1233.35 831.90 L 1237.54 828.09 L 1241.73 797.98 L 1245.92 839.42 L 1250.11 789.88 L 1254.29 801.22 L 1258.48 809.44 L 1262.67 753.12 L 1266.86 837.54 L 1271.05 792.16 L 1275.24 802.47 L 1279.43 809.42 L 1283.62 829.45 L 1287.81 806.04 L 1292.00 796.92" fill="none" stroke="#1d4ed8" stroke-width="2"  />
  </g>
</svg>