<?xml version="1.0" encoding="UTF-8"?>
<svg xmlns="http://www.w3.org/2000/svg" width="1360" height="980" viewBox="0 0 1360 980">
  <defs>
    <linearGradient id="bg" x1="0" y1="0" x2="1" y2="1">
      <stop offset="0%" stop-color="#f4efe6" />
      <stop offset="100%" stop-color="#eef5f2" />
    </linearGradient>
  </defs>
  <rect x="0" y="0" width="1360" height="980" fill="url(#bg)" />
  <text x="46" y="36" fill="#1f2937" font-size="31" font-weight="700">160620 离线研究图（持仓逐日估值版）</text>
  <text x="46" y="66" fill="#5b6b68" font-size="13">历史前十大持仓 + 持仓逐日涨跌幅 + USDCNY；双目标 lambda=0.10；披露期数 49；覆盖率均值 77.0%</text>
  <g>
    <text x="54" y="110" fill="#1f2937" font-size="16" font-weight="700">A. 净值拟合（同日对齐，无平移）</text>
    <line x1="98" y1="130" x2="124" y2="130" stroke="#0f766e" stroke-width="2"  />
      <text x="130" y="134" fill="#24312e" font-size="12">真实净值</text>
<line x1="313" y1="130" x2="339" y2="130" stroke="#1d4ed8" stroke-width="2"  />
      <text x="345" y="134" fill="#24312e" font-size="12">持仓分段估值</text>
    <line x1="98" y1="132.00" x2="1292" y2="132.00" stroke="#d7e3df" stroke-width="1" />
      <text x="90" y="136.00" text-anchor="end" fill="#5b6b68" font-size="11">3.565</text>
<line x1="98" y1="209.50" x2="1292" y2="209.50" stroke="#d7e3df" stroke-width="1" />
      <text x="90" y="213.50" text-anchor="end" fill="#5b6b68" font-size="11">3.073</text>
<line x1="98" y1="287.00" x2="1292" y2="287.00" stroke="#d7e3df" stroke-width="1" />
      <text x="90" y="291.00" text-anchor="end" fill="#5b6b68" font-size="11">2.581</text>
<line x1="98" y1="364.50" x2="1292" y2="364.50" stroke="#d7e3df" stroke-width="1" />
      <text x="90" y="368.50" text-anchor="end" fill="#5b6b68" font-size="11">2.089</text>
<line x1="98" y1="442.00" x2="1292" y2="442.00" stroke="#d7e3df" stroke-width="1" />
      <text x="90" y="446.00" text-anchor="end" fill="#5b6b68" font-size="11">1.597</text>
    <line x1="98.00" y1="132" x2="98.00" y2="442" stroke="#eef3f1" stroke-width="1" />
      <text x="98.00" y="470" text-anchor="middle" fill="#5b6b68" font-size="11">25-01-02</text>
<line x1="290.04" y1="132" x2="290.04" y2="442" stroke="#eef3f1" stroke-width="1" />
      <text x="290.04" y="470" text-anchor="middle" fill="#5b6b68" font-size="11">25-03-17</text>
<line x1="482.08" y1="132" x2="482.08" y2="442" stroke="#eef3f1" stroke-width="1" />
      <text x="482.08" y="470" text-anchor="middle" fill="#5b6b68" font-size="11">25-05-26</text>
<line x1="695.00" y1="132" x2="695.00" y2="442" stroke="#eef3f1" stroke-width="1" />
      <text x="695.00" y="470" text-anchor="middle" fill="#5b6b68" font-size="11">25-08-06</text>
<line x1="907.92" y1="132" x2="907.92" y2="442" stroke="#eef3f1" stroke-width="1" />
      <text x="907.92" y="470" text-anchor="middle" fill="#5b6b68" font-size="11">25-10-24</text>
<line x1="1099.96" y1="132" x2="1099.96" y2="442" stroke="#eef3f1" stroke-width="1" />
      <text x="1099.96" y="470" text-anchor="middle" fill="#5b6b68" font-size="11">25-12-29</text>
<line x1="1292.00" y1="132" x2="1292.00" y2="442" stroke="#eef3f1" stroke-width="1" />
      <text x="1292.00" y="470" text-anchor="middle" fill="#5b6b68" font-size="11">26-03-13</text>
    <line x1="1112.48" y1="132" x2="1112.48" y2="442" stroke="#f59e0b" stroke-width="1.4" stroke-dasharray="4 4" />
       <text x="1118.48" y="124" fill="#a16207" font-size="11">验证起点</text>
    <path d="M 98.00 417.25 L 102.17 415.72 L 106.35 414.80 L 110.52 412.73 L 114.70 415.80 L 118.87 417.54 L 123.05 419.16 L 127.22 415.91 L 131.40 411.43 L 135.57 413.50 L 139.75 408.83 L 143.92 408.62 L 148.10 411.77 L 152.27 413.87 L 156.45 414.97 L 160.62 416.10 L 164.80 414.07 L 168.97 412.81 L 173.15 414.12 L 177.32 412.18 L 181.50 409.25 L 185.67 409.25 L 189.85 409.33 L 194.02 410.87 L 198.20 412.50 L 202.37 412.01 L 206.55 416.09 L 210.72 418.34 L 214.90 418.01 L 219.07 417.60 L 223.24 418.29 L 227.42 418.51 L 231.59 420.87 L 235.77 419.31 L 239.94 420.35 L 244.12 422.69 L 248.29 418.98 L 252.47 419.71 L 256.64 418.75 L 260.82 416.73 L 264.99 413.91 L 269.17 411.36 L 273.34 410.31 L 277.52 411.50 L 281.69 407.93 L 285.87 406.07 L 290.04 406.87 L 294.22 405.39 L 298.39 405.55 L 302.57 404.95 L 306.74 407.47 L 310.92 404.37 L 315.09 402.50 L 319.27 404.39 L 323.44 406.51 L 327.62 408.40 L 331.79 410.01 L 335.97 407.87 L 340.14 410.12 L 344.31 412.62 L 348.49 434.46 L 352.66 431.63 L 356.84 429.77 L 361.01 423.90 L 365.19 423.58 L 369.36 418.43 L 373.54 419.82 L 377.71 419.24 L 381.89 420.48 L 386.06 420.51 L 390.24 415.65 L 394.41 416.28 L 398.59 418.34 L 402.76 418.31 L 406.94 418.46 L 411.11 419.98 L 415.29 420.98 L 419.46 421.99 L 423.64 417.94 L 427.81 416.83 L 431.99 418.24 L 436.16 418.72 L 440.34 416.62 L 444.51 415.85 L 448.69 413.27 L 452.86 415.39 L 457.03 416.39 L 461.21 416.70 L 465.38 415.96 L 469.56 410.98 L 473.73 413.33 L 477.91 413.93 L 482.08 413.57 L 486.26 417.17 L 490.43 415.58 L 494.61 414.46 L 498.78 415.99 L 502.96 414.67 L 507.13 412.40 L 511.31 413.85 L 515.48 412.04 L 519.66 410.87 L 523.83 411.55 L 528.01 408.10 L 532.18 407.03 L 536.36 405.68 L 540.53 406.26 L 544.71 405.25 L 548.88 406.07 L 553.06 408.98 L 557.23 410.43 L 561.41 408.21 L 565.58 408.75 L 569.76 407.66 L 573.93 406.98 L 578.10 403.36 L 582.28 403.13 L 586.45 400.18 L 590.63 397.02 L 594.80 397.65 L 598.98 399.47 L 603.15 400.94 L 607.33 398.59 L 611.50 401.46 L 615.68 397.60 L 619.85 395.22 L 624.03 394.13 L 628.20 397.55 L 632.38 398.39 L 636.55 397.02 L 640.73 392.75 L 644.90 385.58 L 649.08 375.31 L 653.25 376.61 L 657.43 368.79 L 661.60 370.17 L 665.78 373.80 L 669.95 372.89 L 674.13 373.35 L 678.30 382.76 L 682.48 384.40 L 686.65 381.77 L 690.83 379.02 L 695.00 374.42 L 699.17 372.29 L 703.35 369.47 L 707.52 368.86 L 711.70 367.61 L 715.87 365.36 L 720.05 369.93 L 724.22 363.58 L 728.40 364.12 L 732.57 364.95 L 736.75 362.16 L 740.92 361.69 L 745.10 359.24 L 749.27 348.24 L 753.45 348.87 L 757.62 355.20 L 761.80 351.83 L 765.97 344.86 L 770.15 336.51 L 774.32 338.01 L 778.50 341.09 L 782.67 350.53 L 786.85 340.07 L 791.02 339.57 L 795.20 338.13 L 799.37 341.99 L 803.55 336.62 L 807.72 331.68 L 811.90 332.67 L 816.07 334.95 L 820.24 331.38 L 824.42 343.13 L 828.59 337.74 L 832.77 337.25 L 836.94 339.36 L 841.12 335.87 L 845.29 332.84 L 849.47 333.24 L 853.64 325.24 L 857.82 317.76 L 861.99 296.09 L 866.17 300.73 L 870.34 294.98 L 874.52 301.49 L 878.69 299.71 L 882.87 302.97 L 887.04 310.10 L 891.22 308.94 L 895.39 304.87 L 899.57 307.83 L 903.74 303.66 L 907.92 300.62 L 912.09 293.44 L 916.27 302.61 L 920.44 288.75 L 924.62 286.75 L 928.79 294.95 L 932.97 294.57 L 937.14 302.51 L 941.31 299.88 L 945.49 289.35 L 949.66 288.23 L 953.84 286.83 L 958.01 292.37 L 962.19 291.55 L 966.36 281.17 L 970.54 288.15 L 974.71 289.19 L 978.89 299.93 L 983.06 291.80 L 987.24 296.35 L 991.41 313.01 L 995.59 315.17 L 999.76 308.83 L 1003.94 310.31 L 1008.11 309.25 L 1012.29 305.20 L 1016.46 295.58 L 1020.64 299.31 L 1024.81 295.61 L 1028.99 295.00 L 1033.16 286.83 L 1037.34 286.73 L 1041.51 295.57 L 1045.69 293.19 L 1049.86 297.05 L 1054.03 292.59 L 1058.21 293.96 L 1062.38 303.68 L 1066.56 294.87 L 1070.73 294.10 L 1074.91 289.42 L 1079.08 283.17 L 1083.26 280.50 L 1087.43 279.68 L 1091.61 282.65 L 1095.78 274.29 L 1099.96 279.25 L 1104.13 274.90 L 1108.31 272.79 L 1112.48 264.90 L 1116.66 250.49 L 1120.83 246.34 L 1125.01 250.86 L 1129.18 237.38 L 1133.36 233.30 L 1137.53 231.57 L 1141.71 226.68 L 1145.88 221.72 L 1150.06 226.35 L 1154.23 223.64 L 1158.41 221.99 L 1162.58 212.54 L 1166.76 211.61 L 1170.93 202.98 L 1175.10 179.99 L 1179.28 186.12 L 1183.45 157.09 L 1187.63 150.60 L 1191.80 180.59 L 1195.98 216.04 L 1200.15 204.62 L 1204.33 198.05 L 1208.50 216.92 L 1212.68 214.20 L 1216.85 207.00 L 1221.03 205.57 L 1225.20 194.43 L 1229.38 189.79 L 1233.55 204.35 L 1237.73 187.08 L 1241.90 173.17 L 1246.08 175.60 L 1250.25 159.05 L 1254.43 134.79 L 1258.60 149.09 L 1262.78 150.45 L 1266.95 155.39 L 1271.13 166.42 L 1275.30 164.68 L 1279.48 168.70 L 1283.65 168.95 L 1287.83 165.39 L 1292.00 178.38" fill="none" stroke="#0f766e" stroke-width="2"  />
<path d="M 98.00 412.59 L 102.17 417.04 L 106.35 414.16 L 110.52 414.09 L 114.70 412.00 L 118.87 416.94 L 123.05 418.53 L 127.22 419.88 L 131.40 414.71 L 135.57 405.89 L 139.75 413.42 L 143.92 407.20 L 148.10 409.31 L 152.27 413.14 L 156.45 418.34 L 160.62 414.57 L 164.80 415.97 L 168.97 416.88 L 173.15 411.93 L 177.32 413.53 L 181.50 410.69 L 185.67 401.67 L 189.85 409.82 L 194.02 409.34 L 198.20 409.96 L 202.37 414.57 L 206.55 412.77 L 210.72 417.32 L 214.90 418.52 L 219.07 417.49 L 223.24 420.94 L 227.42 418.90 L 231.59 418.41 L 235.77 420.82 L 239.94 418.71 L 244.12 420.55 L 248.29 428.67 L 252.47 418.24 L 256.64 417.00 L 260.82 418.36 L 264.99 415.99 L 269.17 413.44 L 273.34 409.75 L 277.52 409.42 L 281.69 411.18 L 285.87 404.34 L 290.04 403.34 L 294.22 406.47 L 298.39 404.14 L 302.57 405.20 L 306.74 404.89 L 310.92 408.59 L 315.09 402.97 L 319.27 401.97 L 323.44 404.89 L 327.62 409.74 L 331.79 409.41 L 335.97 409.75 L 340.14 406.98 L 344.31 421.37 L 348.49 436.52 L 352.66 440.74 L 356.84 420.58 L 361.01 433.62 L 365.19 419.99 L 369.36 423.50 L 373.54 417.27 L 377.71 419.31 L 381.89 418.24 L 386.06 421.34 L 390.24 421.83 L 394.41 412.29 L 398.59 415.92 L 402.76 416.39 L 406.94 418.09 L 411.11 418.36 L 415.29 420.01 L 419.46 424.16 L 423.64 417.75 L 427.81 418.31 L 431.99 415.39 L 436.16 417.75 L 440.34 414.74 L 444.51 415.27 L 448.69 415.47 L 452.86 412.57 L 457.03 415.90 L 461.21 416.79 L 465.38 416.19 L 469.56 417.27 L 473.73 409.93 L 477.91 411.15 L 482.08 414.96 L 486.26 414.21 L 490.43 417.63 L 494.61 414.98 L 498.78 414.04 L 502.96 409.45 L 507.13 414.03 L 511.31 411.48 L 515.48 413.37 L 519.66 409.92 L 523.83 410.23 L 528.01 410.75 L 532.18 406.93 L 536.36 404.56 L 540.53 404.05 L 544.71 405.60 L 548.88 404.68 L 553.06 406.96 L 557.23 410.21 L 561.41 412.36 L 565.58 407.96 L 569.76 408.47 L 573.93 404.21 L 578.10 406.77 L 582.28 399.88 L 586.45 402.49 L 590.63 395.68 L 594.80 396.24 L 598.98 398.51 L 603.15 402.16 L 607.33 400.46 L 611.50 397.91 L 615.68 401.04 L 619.85 396.30 L 624.03 392.62 L 628.20 394.28 L 632.38 397.60 L 636.55 397.87 L 640.73 396.14 L 644.90 388.25 L 649.08 380.50 L 653.25 372.77 L 657.43 376.73 L 661.60 367.46 L 665.78 369.77 L 669.95 373.22 L 674.13 375.63 L 678.30 373.14 L 682.48 387.11 L 686.65 385.43 L 690.83 380.58 L 695.00 378.05 L 699.17 372.56 L 703.35 369.02 L 707.52 366.18 L 711.70 365.66 L 715.87 366.65 L 720.05 364.59 L 724.22 370.09 L 728.40 356.98 L 732.57 366.67 L 736.75 364.11 L 740.92 360.62 L 745.10 356.50 L 749.27 356.54 L 753.45 345.84 L 757.62 348.48 L 761.80 355.21 L 765.97 350.10 L 770.15 339.24 L 774.32 336.02 L 778.50 338.06 L 782.67 341.59 L 786.85 351.16 L 791.02 328.41 L 795.20 338.98 L 799.37 333.06 L 803.55 341.17 L 807.72 335.01 L 811.90 323.23 L 816.07 332.07 L 820.24 335.75 L 824.42 330.79 L 828.59 344.08 L 832.77 333.44 L 836.94 335.81 L 841.12 335.12 L 845.29 334.09 L 849.47 331.38 L 853.64 334.17 L 857.82 323.66 L 861.99 301.17 L 866.17 301.91 L 870.34 290.08 L 874.52 297.73 L 878.69 301.86 L 882.87 299.72 L 887.04 306.85 L 891.22 312.44 L 895.39 315.44 L 899.57 300.77 L 903.74 303.97 L 907.92 302.16 L 912.09 296.92 L 916.27 291.93 L 920.44 302.75 L 924.62 286.97 L 928.79 285.19 L 932.97 300.87 L 937.14 300.93 L 941.31 302.58 L 945.49 298.54 L 949.66 282.65 L 953.84 284.99 L 958.01 285.99 L 962.19 293.12 L 966.36 295.62 L 970.54 278.59 L 974.71 292.15 L 978.89 287.21 L 983.06 300.80 L 987.24 298.06 L 991.41 295.80 L 995.59 322.91 L 999.76 314.92 L 1003.94 302.85 L 1008.11 311.60 L 1012.29 310.21 L 1016.46 299.41 L 1020.64 293.95 L 1024.81 292.46 L 1028.99 294.12 L 1033.16 292.35 L 1037.34 277.46 L 1041.51 286.06 L 1045.69 292.74 L 1049.86 293.73 L 1054.03 302.19 L 1058.21 288.07 L 1062.38 297.45 L 1066.56 301.65 L 1070.73 293.00 L 1074.91 289.26 L 1079.08 284.46 L 1083.26 280.58 L 1087.43 279.74 L 1091.61 280.68 L 1095.78 284.22 L 1099.96 267.38 L 1104.13 279.11 L 1108.31 274.42 L 1112.48 254.80 L 1116.66 266.33 L 1120.83 255.29 L 1125.01 243.77 L 1129.18 246.31 L 1133.36 221.31 L 1137.53 231.20 L 1141.71 224.23 L 1145.88 225.83 L 1150.06 221.76 L 1154.23 233.03 L 1158.41 224.32 L 1162.58 215.40 L 1166.76 213.08 L 1170.93 202.97 L 1175.10 191.73 L 1179.28 170.03 L 1183.45 185.20 L 1187.63 142.62 L 1191.80 164.96 L 1195.98 211.37 L 1200.15 205.78 L 1204.33 208.41 L 1208.50 206.41 L 1212.68 211.51 L 1216.85 203.99 L 1221.03 205.95 L 1225.20 201.15 L 1229.38 202.58 L 1233.55 187.54 L 1237.73 201.65 L 1241.90 183.20 L 1246.08 170.42 L 1250.25 168.61 L 1254.43 135.65 L 1258.60 137.60 L 1262.78 148.90 L 1266.95 156.04 L 1271.13 145.30 L 1275.30 175.53 L 1279.48 163.22 L 1283.65 167.71 L 1287.83 165.75 L 1292.00 170.03" fill="none" stroke="#1d4ed8" stroke-width="2"  />
  </g>
  <g>
    <text x="54" y="538" fill="#1f2937" font-size="16" font-weight="700">B. 绝对误差（越低越好）</text>
    <line x1="98" y1="558" x2="124" y2="558" stroke="#1d4ed8" stroke-width="2"  />
      <text x="130" y="562" fill="#24312e" font-size="12">持仓分段误差</text>
    <line x1="98" y1="560.00" x2="1292" y2="560.00" stroke="#d7e3df" stroke-width="1" />
      <text x="90" y="564.00" text-anchor="end" fill="#5b6b68" font-size="11">5.87%</text>
<line x1="98" y1="630.00" x2="1292" y2="630.00" stroke="#d7e3df" stroke-width="1" />
      <text x="90" y="634.00" text-anchor="end" fill="#5b6b68" font-size="11">4.40%</text>
<line x1="98" y1="700.00" x2="1292" y2="700.00" stroke="#d7e3df" stroke-width="1" />
      <text x="90" y="704.00" text-anchor="end" fill="#5b6b68" font-size="11">2.93%</text>
<line x1="98" y1="770.00" x2="1292" y2="770.00" stroke="#d7e3df" stroke-width="1" />
      <text x="90" y="774.00" text-anchor="end" fill="#5b6b68" font-size="11">1.47%</text>
<line x1="98" y1="840.00" x2="1292" y2="840.00" stroke="#d7e3df" stroke-width="1" />
      <text x="90" y="844.00" text-anchor="end" fill="#5b6b68" font-size="11">0.00%</text>
    <line x1="98.00" y1="560" x2="98.00" y2="840" stroke="#eef3f1" stroke-width="1" />
      <text x="98.00" y="868" text-anchor="middle" fill="#5b6b68" font-size="11">25-01-02</text>
<line x1="290.04" y1="560" x2="290.04" y2="840" stroke="#eef3f1" stroke-width="1" />
      <text x="290.04" y="868" text-anchor="middle" fill="#5b6b68" font-size="11">25-03-17</text>
<line x1="482.08" y1="560" x2="482.08" y2="840" stroke="#eef3f1" stroke-width="1" />
      <text x="482.08" y="868" text-anchor="middle" fill="#5b6b68" font-size="11">25-05-26</text>
<line x1="695.00" y1="560" x2="695.00" y2="840" stroke="#eef3f1" stroke-width="1" />
      <text x="695.00" y="868" text-anchor="middle" fill="#5b6b68" font-size="11">25-08-06</text>
<line x1="907.92" y1="560" x2="907.92" y2="840" stroke="#eef3f1" stroke-width="1" />
      <text x="907.92" y="868" text-anchor="middle" fill="#5b6b68" font-size="11">25-10-24</text>
<line x1="1099.96" y1="560" x2="1099.96" y2="840" stroke="#eef3f1" stroke-width="1" />
      <text x="1099.96" y="868" text-anchor="middle" fill="#5b6b68" font-size="11">25-12-29</text>
<line x1="1292.00" y1="560" x2="1292.00" y2="840" stroke="#eef3f1" stroke-width="1" />
      <text x="1292.00" y="868" text-anchor="middle" fill="#5b6b68" font-size="11">26-03-13</text>
    <line x1="1112.48" y1="560" x2="1112.48" y2="840" stroke="#f59e0b" stroke-width="1.4" stroke-dasharray="4 4" />
       <text x="1118.48" y="552" fill="#a16207" font-size="11">验证起点</text>
    <path d="M 98.00 759.42 L 102.17 817.45 L 106.35 829.11 L 110.52 816.91 L 114.70 774.58 L 118.87 829.73 L 123.05 829.17 L 127.22 771.81 L 131.40 784.39 L 135.57 710.21 L 139.75 763.06 L 143.92 816.22 L 148.10 798.36 L 152.27 827.53 L 156.45 782.32 L 160.62 813.56 L 164.80 807.65 L 168.97 770.86 L 173.15 802.59 L 177.32 817.04 L 181.50 815.80 L 185.67 712.74 L 189.85 831.84 L 194.02 814.08 L 198.20 796.97 L 202.37 796.62 L 206.55 783.02 L 210.72 822.26 L 214.90 831.09 L 219.07 838.13 L 223.24 794.08 L 227.42 833.21 L 231.59 796.87 L 235.77 813.89 L 239.94 811.26 L 244.12 802.29 L 248.29 671.64 L 252.47 814.46 L 256.64 809.66 L 260.82 811.93 L 264.99 804.49 L 269.17 804.80 L 273.34 830.54 L 277.52 804.74 L 281.69 785.69 L 285.87 811.29 L 290.04 781.20 L 294.22 822.17 L 298.39 816.69 L 302.57 835.88 L 306.74 796.95 L 310.92 770.41 L 315.09 832.24 L 319.27 800.16 L 323.44 812.99 L 327.62 817.57 L 331.79 830.02 L 335.97 808.44 L 340.14 787.21 L 344.31 691.41 L 348.49 802.04 L 352.66 674.04 L 356.84 673.68 L 361.01 667.96 L 365.19 776.55 L 369.36 752.07 L 373.54 795.49 L 377.71 838.70 L 381.89 800.92 L 386.06 825.56 L 390.24 733.81 L 394.41 771.33 L 398.59 798.14 L 402.76 806.69 L 406.94 833.50 L 411.11 811.83 L 415.29 822.91 L 419.46 801.83 L 423.64 836.65 L 427.81 814.45 L 431.99 790.58 L 436.16 823.27 L 440.34 807.52 L 444.51 830.06 L 448.69 802.50 L 452.86 791.54 L 457.03 831.57 L 461.21 838.40 L 465.38 835.99 L 469.56 733.80 L 473.73 782.11 L 477.91 792.51 L 482.08 816.31 L 486.26 788.81 L 490.43 804.82 L 494.61 831.16 L 498.78 806.41 L 502.96 750.62 L 507.13 812.27 L 511.31 799.49 L 515.48 817.50 L 519.66 823.93 L 523.83 817.68 L 528.01 795.76 L 532.18 838.28 L 536.36 821.40 L 540.53 803.33 L 544.71 834.30 L 548.88 816.88 L 553.06 806.03 L 557.23 836.29 L 561.41 770.64 L 565.58 826.75 L 569.76 826.58 L 573.93 793.77 L 578.10 783.99 L 582.28 786.71 L 586.45 802.40 L 590.63 818.56 L 594.80 817.30 L 598.98 824.38 L 603.15 820.02 L 607.33 809.82 L 611.50 782.08 L 615.68 784.54 L 619.85 822.70 L 624.03 815.91 L 628.20 787.31 L 632.38 827.30 L 636.55 826.20 L 640.73 786.14 L 644.90 798.61 L 649.08 762.30 L 653.25 782.19 L 657.43 723.32 L 661.60 800.05 L 665.78 779.87 L 669.95 835.08 L 674.13 805.91 L 678.30 692.18 L 682.48 798.21 L 686.65 783.93 L 690.83 816.28 L 695.00 785.66 L 699.17 836.02 L 703.35 833.32 L 707.52 800.56 L 711.70 811.36 L 715.87 821.28 L 720.05 761.27 L 724.22 745.85 L 728.40 736.58 L 732.57 815.05 L 736.75 812.04 L 740.92 824.61 L 745.10 800.94 L 749.27 725.28 L 753.45 798.05 L 757.62 745.09 L 761.80 792.83 L 765.97 768.31 L 770.15 803.58 L 774.32 813.29 L 778.50 798.85 L 782.67 715.67 L 786.85 690.28 L 791.02 689.64 L 795.20 828.59 L 799.37 718.75 L 803.55 779.16 L 807.72 795.97 L 811.90 715.20 L 816.07 801.68 L 820.24 782.38 L 824.42 672.01 L 828.59 754.94 L 832.77 788.99 L 836.94 792.17 L 841.12 830.05 L 845.29 823.54 L 849.47 815.37 L 853.64 724.20 L 857.82 764.99 L 861.99 778.98 L 866.17 825.64 L 870.34 781.34 L 874.52 794.32 L 878.69 813.91 L 882.87 800.27 L 887.04 799.52 L 891.22 796.51 L 895.39 710.20 L 899.57 752.54 L 903.74 836.17 L 907.92 821.31 L 912.09 798.52 L 916.27 709.63 L 920.44 674.87 L 924.62 837.37 L 928.79 723.09 L 932.97 764.72 L 937.14 820.66 L 941.31 807.23 L 945.49 731.48 L 949.66 774.28 L 953.84 818.46 L 958.01 764.14 L 962.19 821.35 L 966.36 672.80 L 970.54 727.49 L 974.71 805.00 L 978.89 685.74 L 983.06 733.12 L 987.24 819.54 L 991.41 624.09 L 995.59 742.34 L 999.76 764.41 L 1003.94 747.18 L 1008.11 810.86 L 1012.29 778.46 L 1016.46 794.12 L 1020.64 775.06 L 1024.81 802.24 L 1028.99 829.45 L 1033.16 775.13 L 1037.34 731.26 L 1041.51 726.00 L 1045.69 834.66 L 1049.86 800.05 L 1054.03 725.73 L 1058.21 769.61 L 1062.38 763.83 L 1066.56 758.93 L 1070.73 826.87 L 1074.91 838.02 L 1079.08 825.07 L 1083.26 839.06 L 1087.43 839.26 L 1091.61 817.04 L 1095.78 726.96 L 1099.96 703.31 L 1104.13 792.01 L 1108.31 821.59 L 1112.48 727.46 L 1116.66 669.38 L 1120.83 744.51 L 1125.01 763.55 L 1129.18 746.53 L 1133.36 715.70 L 1137.53 836.27 L 1141.71 814.90 L 1145.88 798.43 L 1150.06 793.08 L 1154.23 744.66 L 1158.41 816.46 L 1162.58 811.68 L 1166.76 825.46 L 1170.93 839.89 L 1175.10 730.92 L 1179.28 688.69 L 1183.45 590.00 L 1187.63 769.85 L 1191.80 694.56 L 1195.98 793.33 L 1200.15 828.64 L 1204.33 740.22 L 1208.50 734.80 L 1212.68 813.26 L 1216.85 810.48 L 1221.03 836.27 L 1225.20 775.72 L 1229.38 718.84 L 1233.55 676.00 L 1237.73 702.70 L 1241.90 748.02 L 1246.08 792.28 L 1250.25 754.63 L 1254.43 832.66 L 1258.60 739.30 L 1262.78 826.42 L 1266.95 834.24 L 1271.13 648.84 L 1275.30 742.16 L 1279.48 790.14 L 1283.65 828.70 L 1287.83 836.79 L 1292.00 762.61" fill="none" stroke="#1d4ed8" stroke-width="2"  />
  </g>
</svg>