<?xml version="1.0" encoding="UTF-8"?>
<svg xmlns="http://www.w3.org/2000/svg" width="1360" height="980" viewBox="0 0 1360 980">
  <defs>
    <linearGradient id="bg" x1="0" y1="0" x2="1" y2="1">
      <stop offset="0%" stop-color="#f4efe6" />
      <stop offset="100%" stop-color="#eef5f2" />
    </linearGradient>
  </defs>
  <rect x="0" y="0" width="1360" height="980" fill="url(#bg)" />
  <text x="46" y="36" fill="#1f2937" font-size="31" font-weight="700">160644 离线研究图（持仓逐日估值版）</text>
  <text x="46" y="66" fill="#5b6b68" font-size="13">历史前十大持仓 + 持仓逐日涨跌幅 + USDCNY；双目标 lambda=0.10；披露期数 31；覆盖率均值 93.2%</text>
  <g>
    <text x="54" y="110" fill="#1f2937" font-size="16" font-weight="700">A. 净值拟合（同日对齐，无平移）</text>
    <line x1="98" y1="130" x2="124" y2="130" stroke="#0f766e" stroke-width="2"  />
      <text x="130" y="134" fill="#24312e" font-size="12">真实净值</text>
<line x1="313" y1="130" x2="339" y2="130" stroke="#1d4ed8" stroke-width="2"  />
      <text x="345" y="134" fill="#24312e" font-size="12">持仓分段估值</text>
    <line x1="98" y1="132.00" x2="1292" y2="132.00" stroke="#d7e3df" stroke-width="1" />
      <text x="90" y="136.00" text-anchor="end" fill="#5b6b68" font-size="11">1.758</text>
<line x1="98" y1="209.50" x2="1292" y2="209.50" stroke="#d7e3df" stroke-width="1" />
      <text x="90" y="213.50" text-anchor="end" fill="#5b6b68" font-size="11">1.594</text>
<line x1="98" y1="287.00" x2="1292" y2="287.00" stroke="#d7e3df" stroke-width="1" />
      <text x="90" y="291.00" text-anchor="end" fill="#5b6b68" font-size="11">1.429</text>
<line x1="98" y1="364.50" x2="1292" y2="364.50" stroke="#d7e3df" stroke-width="1" />
      <text x="90" y="368.50" text-anchor="end" fill="#5b6b68" font-size="11">1.265</text>
<line x1="98" y1="442.00" x2="1292" y2="442.00" stroke="#d7e3df" stroke-width="1" />
      <text x="90" y="446.00" text-anchor="end" fill="#5b6b68" font-size="11">1.100</text>
    <line x1="98.00" y1="132" x2="98.00" y2="442" stroke="#eef3f1" stroke-width="1" />
      <text x="98.00" y="470" text-anchor="middle" fill="#5b6b68" font-size="11">25-01-02</text>
<line x1="289.21" y1="132" x2="289.21" y2="442" stroke="#eef3f1" stroke-width="1" />
      <text x="289.21" y="470" text-anchor="middle" fill="#5b6b68" font-size="11">25-03-14</text>
<line x1="480.42" y1="132" x2="480.42" y2="442" stroke="#eef3f1" stroke-width="1" />
      <text x="480.42" y="470" text-anchor="middle" fill="#5b6b68" font-size="11">25-05-26</text>
<line x1="697.12" y1="132" x2="697.12" y2="442" stroke="#eef3f1" stroke-width="1" />
      <text x="697.12" y="470" text-anchor="middle" fill="#5b6b68" font-size="11">25-08-06</text>
<line x1="909.58" y1="132" x2="909.58" y2="442" stroke="#eef3f1" stroke-width="1" />
      <text x="909.58" y="470" text-anchor="middle" fill="#5b6b68" font-size="11">25-10-23</text>
<line x1="1100.79" y1="132" x2="1100.79" y2="442" stroke="#eef3f1" stroke-width="1" />
      <text x="1100.79" y="470" text-anchor="middle" fill="#5b6b68" font-size="11">25-12-29</text>
<line x1="1292.00" y1="132" x2="1292.00" y2="442" stroke="#eef3f1" stroke-width="1" />
      <text x="1292.00" y="470" text-anchor="middle" fill="#5b6b68" font-size="11">26-03-12</text>
    <line x1="1113.54" y1="132" x2="1113.54" y2="442" stroke="#f59e0b" stroke-width="1.4" stroke-dasharray="4 4" />
       <text x="1119.54" y="124" fill="#a16207" font-size="11">验证起点</text>
    <path d="M 98.00 346.43 L 102.25 337.00 L 106.50 329.89 L 110.75 345.39 L 115.00 349.77 L 119.25 350.05 L 123.49 357.12 L 127.74 364.66 L 131.99 361.93 L 136.24 353.40 L 140.49 351.89 L 144.74 347.37 L 148.99 339.78 L 153.24 335.96 L 157.49 337.90 L 161.74 337.47 L 165.99 335.92 L 170.23 354.11 L 174.48 334.98 L 178.73 331.82 L 182.98 333.80 L 187.23 322.77 L 191.48 324.80 L 195.73 321.55 L 199.98 318.01 L 204.23 302.18 L 208.48 302.13 L 212.73 298.69 L 216.98 302.70 L 221.22 311.13 L 225.47 302.60 L 229.72 312.50 L 233.97 324.28 L 238.22 308.63 L 242.47 323.85 L 246.72 331.30 L 250.97 340.11 L 255.22 339.69 L 259.47 326.40 L 263.72 322.11 L 267.96 321.17 L 272.21 341.15 L 276.46 339.07 L 280.71 335.59 L 284.96 345.20 L 289.21 329.18 L 293.46 329.51 L 297.71 325.36 L 301.96 323.43 L 306.21 331.68 L 310.46 337.10 L 314.70 329.04 L 318.95 336.67 L 323.20 341.81 L 327.45 342.51 L 331.70 351.28 L 335.95 357.26 L 340.20 350.24 L 344.45 348.26 L 348.70 370.22 L 352.95 419.89 L 357.20 416.87 L 361.44 385.72 L 365.69 391.47 L 369.94 385.96 L 374.19 379.55 L 378.44 377.67 L 382.69 393.55 L 386.94 390.77 L 391.19 392.18 L 395.44 379.74 L 399.69 379.08 L 403.94 376.39 L 408.19 374.79 L 412.43 373.66 L 416.68 373.19 L 420.93 359.85 L 425.18 363.44 L 429.43 361.74 L 433.68 357.78 L 437.93 341.05 L 442.18 344.63 L 446.43 336.29 L 450.68 338.65 L 454.93 342.14 L 459.17 339.59 L 463.42 336.48 L 467.67 332.48 L 471.92 333.75 L 476.17 336.48 L 480.42 342.47 L 484.67 332.67 L 488.92 339.50 L 493.17 330.22 L 497.42 339.92 L 501.67 333.37 L 505.91 325.93 L 510.16 322.91 L 514.41 319.76 L 518.66 313.06 L 522.91 310.71 L 527.16 305.81 L 531.41 311.74 L 535.66 316.93 L 539.91 311.93 L 544.16 316.41 L 548.41 320.79 L 552.65 330.83 L 556.90 333.28 L 561.15 330.40 L 565.40 319.80 L 569.65 317.16 L 573.90 316.17 L 578.15 312.83 L 582.40 315.00 L 586.65 317.40 L 590.90 318.25 L 595.15 320.89 L 599.40 321.92 L 603.64 322.35 L 607.89 316.41 L 612.14 319.61 L 616.39 320.93 L 620.64 322.21 L 624.89 318.11 L 629.14 305.57 L 633.39 308.78 L 637.64 307.69 L 641.89 304.30 L 646.14 300.62 L 650.38 300.72 L 654.63 293.23 L 658.88 289.79 L 663.13 295.82 L 667.38 292.28 L 671.63 288.94 L 675.88 294.07 L 680.13 296.29 L 684.38 305.10 L 688.63 296.38 L 692.88 294.69 L 697.12 285.88 L 701.37 282.67 L 705.62 283.57 L 709.87 284.56 L 714.12 285.07 L 718.37 274.47 L 722.62 275.32 L 726.87 277.49 L 731.12 273.44 L 735.37 278.62 L 739.62 270.47 L 743.86 273.01 L 748.11 265.05 L 752.36 253.65 L 756.61 253.50 L 760.86 261.37 L 765.11 267.07 L 769.36 271.03 L 773.61 263.68 L 777.86 268.87 L 782.11 263.59 L 786.36 267.83 L 790.60 260.81 L 794.85 260.53 L 799.10 250.77 L 803.35 246.25 L 807.60 247.90 L 811.85 239.32 L 816.10 236.82 L 820.35 237.77 L 824.60 231.97 L 828.85 232.02 L 833.10 228.86 L 837.35 230.42 L 841.59 235.74 L 845.84 228.44 L 850.09 229.00 L 854.34 234.66 L 858.59 226.88 L 862.84 218.31 L 867.09 204.26 L 871.34 230.56 L 875.59 223.87 L 879.84 240.07 L 884.09 226.74 L 888.33 224.38 L 892.58 236.16 L 896.83 225.18 L 901.08 231.31 L 905.33 237.77 L 909.58 237.67 L 913.83 227.59 L 918.08 213.78 L 922.33 213.78 L 926.58 207.66 L 930.83 214.02 L 935.07 225.23 L 939.32 221.13 L 943.57 237.29 L 947.82 234.00 L 952.07 232.77 L 956.32 242.57 L 960.57 218.82 L 964.82 224.20 L 969.07 224.71 L 973.32 237.62 L 977.57 243.89 L 981.81 245.35 L 986.06 261.28 L 990.31 256.38 L 994.56 275.42 L 998.81 282.01 L 1003.06 253.08 L 1007.31 250.30 L 1011.56 249.26 L 1015.81 248.89 L 1020.06 244.17 L 1024.31 246.81 L 1028.56 244.83 L 1032.80 251.71 L 1037.05 247.80 L 1041.30 236.73 L 1045.55 238.80 L 1049.80 244.55 L 1054.05 235.03 L 1058.30 240.12 L 1062.55 255.77 L 1066.80 267.73 L 1071.05 272.54 L 1075.30 279.33 L 1079.54 269.48 L 1083.79 255.91 L 1088.04 246.58 L 1092.29 243.56 L 1096.54 240.50 L 1100.79 244.79 L 1105.04 243.37 L 1109.29 248.27 L 1113.54 218.82 L 1117.79 199.65 L 1122.04 205.39 L 1126.28 218.26 L 1130.53 204.59 L 1134.78 189.61 L 1139.03 188.90 L 1143.28 188.62 L 1147.53 186.64 L 1151.78 184.99 L 1156.03 189.18 L 1160.28 194.93 L 1164.53 179.24 L 1168.78 172.79 L 1173.02 168.12 L 1177.27 169.91 L 1181.52 158.23 L 1185.77 138.67 L 1190.02 136.74 L 1194.27 153.00 L 1198.52 147.20 L 1202.77 152.71 L 1207.02 180.33 L 1211.27 182.92 L 1215.52 171.66 L 1219.77 162.94 L 1224.01 169.21 L 1228.26 157.71 L 1232.51 160.91 L 1236.76 172.50 L 1241.01 166.66 L 1245.26 159.78 L 1249.51 176.56 L 1253.76 180.37 L 1258.01 186.78 L 1262.26 214.63 L 1266.51 207.33 L 1270.75 216.04 L 1275.00 226.08 L 1279.25 210.15 L 1283.50 196.91 L 1287.75 190.50 L 1292.00 204.36" fill="none" stroke="#0f766e" stroke-width="2"  />
<path d="M 98.00 351.07 L 102.25 341.72 L 106.50 334.93 L 110.75 329.49 L 115.00 350.22 L 119.25 350.38 L 123.49 350.39 L 127.74 354.18 L 131.99 355.33 L 136.24 357.02 L 140.49 352.88 L 144.74 336.56 L 148.99 346.67 L 153.24 339.74 L 157.49 335.88 L 161.74 338.66 L 165.99 326.88 L 170.23 333.04 L 174.48 353.45 L 178.73 328.92 L 182.98 328.79 L 187.23 320.18 L 191.48 324.06 L 195.73 321.70 L 199.98 319.28 L 204.23 312.36 L 208.48 298.44 L 212.73 302.12 L 216.98 301.36 L 221.22 295.47 L 225.47 303.87 L 229.72 326.66 L 233.97 311.31 L 238.22 322.04 L 242.47 308.97 L 246.72 336.58 L 250.97 334.81 L 255.22 338.61 L 259.47 321.49 L 263.72 325.25 L 267.96 322.68 L 272.21 329.73 L 276.46 340.15 L 280.71 340.87 L 284.96 334.62 L 289.21 342.21 L 293.46 313.57 L 297.71 332.25 L 301.96 326.38 L 306.21 328.91 L 310.46 335.85 L 314.70 339.03 L 318.95 330.71 L 323.20 337.46 L 327.45 339.71 L 331.70 349.26 L 335.95 355.42 L 340.20 357.14 L 344.45 350.98 L 348.70 351.31 L 352.95 435.89 L 357.20 439.39 L 361.44 401.54 L 365.69 384.74 L 369.94 384.14 L 374.19 372.33 L 378.44 380.51 L 382.69 383.04 L 386.94 395.22 L 391.19 382.38 L 395.44 388.78 L 399.69 376.40 L 403.94 377.93 L 408.19 375.10 L 412.43 374.33 L 416.68 373.45 L 420.93 360.81 L 425.18 366.21 L 429.43 361.03 L 433.68 362.80 L 437.93 343.28 L 442.18 336.19 L 446.43 344.33 L 450.68 345.27 L 454.93 339.81 L 459.17 340.95 L 463.42 337.70 L 467.67 339.77 L 471.92 332.04 L 476.17 335.14 L 480.42 335.53 L 484.67 342.87 L 488.92 338.90 L 493.17 335.90 L 497.42 336.17 L 501.67 337.88 L 505.91 326.27 L 510.16 323.34 L 514.41 321.30 L 518.66 313.32 L 522.91 312.40 L 527.16 309.83 L 531.41 306.06 L 535.66 322.85 L 539.91 312.00 L 544.16 313.50 L 548.41 319.85 L 552.65 321.15 L 556.90 332.35 L 561.15 330.27 L 565.40 317.57 L 569.65 318.60 L 573.90 317.06 L 578.15 316.17 L 582.40 311.50 L 586.65 314.44 L 590.90 319.82 L 595.15 319.35 L 599.40 321.08 L 603.64 320.57 L 607.89 319.54 L 612.14 319.07 L 616.39 319.36 L 620.64 321.53 L 624.89 321.04 L 629.14 305.85 L 633.39 306.29 L 637.64 306.30 L 641.89 305.11 L 646.14 301.34 L 650.38 297.30 L 654.63 298.71 L 658.88 293.55 L 663.13 289.46 L 667.38 295.75 L 671.63 295.09 L 675.88 291.96 L 680.13 292.40 L 684.38 301.79 L 688.63 300.80 L 692.88 294.93 L 697.12 291.69 L 701.37 284.10 L 705.62 282.40 L 709.87 283.03 L 714.12 278.20 L 718.37 279.04 L 722.62 279.87 L 726.87 272.68 L 731.12 273.86 L 735.37 274.44 L 739.62 279.08 L 743.86 267.80 L 748.11 265.39 L 752.36 259.07 L 756.61 252.34 L 760.86 258.19 L 765.11 262.75 L 769.36 258.13 L 773.61 269.61 L 777.86 262.66 L 782.11 270.16 L 786.36 264.14 L 790.60 265.24 L 794.85 248.25 L 799.10 258.93 L 803.35 251.07 L 807.60 237.86 L 811.85 248.24 L 816.10 234.77 L 820.35 231.54 L 824.60 231.68 L 828.85 233.13 L 833.10 232.99 L 837.35 228.31 L 841.59 235.53 L 845.84 228.84 L 850.09 226.32 L 854.34 231.44 L 858.59 228.42 L 862.84 227.09 L 867.09 218.70 L 871.34 221.13 L 875.59 218.62 L 879.84 226.99 L 884.09 240.59 L 888.33 225.82 L 892.58 222.38 L 896.83 231.90 L 901.08 228.48 L 905.33 234.46 L 909.58 233.38 L 913.83 235.32 L 918.08 218.25 L 922.33 213.22 L 926.58 212.56 L 930.83 217.33 L 935.07 218.32 L 939.32 225.16 L 943.57 224.06 L 947.82 237.60 L 952.07 230.47 L 956.32 235.60 L 960.57 238.11 L 964.82 218.12 L 969.07 229.03 L 973.32 230.45 L 977.57 248.98 L 981.81 240.86 L 986.06 247.53 L 990.31 268.35 L 994.56 267.73 L 998.81 277.42 L 1003.06 272.01 L 1007.31 246.38 L 1011.56 250.35 L 1015.81 249.56 L 1020.06 249.50 L 1024.31 233.58 L 1028.56 249.09 L 1032.80 247.74 L 1037.05 252.36 L 1041.30 242.57 L 1045.55 229.69 L 1049.80 244.51 L 1054.05 244.01 L 1058.30 235.95 L 1062.55 243.56 L 1066.80 261.07 L 1071.05 272.45 L 1075.30 277.39 L 1079.54 278.28 L 1083.79 261.62 L 1088.04 250.88 L 1092.29 246.66 L 1096.54 243.10 L 1100.79 236.46 L 1105.04 244.55 L 1109.29 245.66 L 1113.54 224.64 L 1117.79 215.70 L 1122.04 201.39 L 1126.28 203.23 L 1130.53 220.68 L 1134.78 186.59 L 1139.03 195.07 L 1143.28 188.82 L 1147.53 189.25 L 1151.78 189.14 L 1156.03 182.39 L 1160.28 189.65 L 1164.53 188.07 L 1168.78 172.97 L 1173.02 172.14 L 1177.27 167.94 L 1181.52 168.66 L 1185.77 156.69 L 1190.02 136.12 L 1194.27 143.09 L 1198.52 155.58 L 1202.77 150.36 L 1207.02 161.09 L 1211.27 185.06 L 1215.52 171.89 L 1219.77 166.62 L 1224.01 160.11 L 1228.26 171.77 L 1232.51 166.14 L 1236.76 161.00 L 1241.01 171.81 L 1245.26 165.81 L 1249.51 169.36 L 1253.76 181.64 L 1258.01 180.93 L 1262.26 198.63 L 1266.51 219.87 L 1270.75 210.86 L 1275.00 211.12 L 1279.25 221.07 L 1283.50 203.26 L 1287.75 197.37 L 1292.00 193.72" fill="none" stroke="#1d4ed8" stroke-width="2"  />
  </g>
  <g>
    <text x="54" y="538" fill="#1f2937" font-size="16" font-weight="700">B. 绝对误差（越低越好）</text>
    <line x1="98" y1="558" x2="124" y2="558" stroke="#1d4ed8" stroke-width="2"  />
      <text x="130" y="562" fill="#24312e" font-size="12">持仓分段误差</text>
    <line x1="98" y1="560.00" x2="1292" y2="560.00" stroke="#d7e3df" stroke-width="1" />
      <text x="90" y="564.00" text-anchor="end" fill="#5b6b68" font-size="11">4.64%</text>
<line x1="98" y1="630.00" x2="1292" y2="630.00" stroke="#d7e3df" stroke-width="1" />
      <text x="90" y="634.00" text-anchor="end" fill="#5b6b68" font-size="11">3.48%</text>
<line x1="98" y1="700.00" x2="1292" y2="700.00" stroke="#d7e3df" stroke-width="1" />
      <text x="90" y="704.00" text-anchor="end" fill="#5b6b68" font-size="11">2.32%</text>
<line x1="98" y1="770.00" x2="1292" y2="770.00" stroke="#d7e3df" stroke-width="1" />
      <text x="90" y="774.00" text-anchor="end" fill="#5b6b68" font-size="11">1.16%</text>
<line x1="98" y1="840.00" x2="1292" y2="840.00" stroke="#d7e3df" stroke-width="1" />
      <text x="90" y="844.00" text-anchor="end" fill="#5b6b68" font-size="11">0.00%</text>
    <line x1="98.00" y1="560" x2="98.00" y2="840" stroke="#eef3f1" stroke-width="1" />
      <text x="98.00" y="868" text-anchor="middle" fill="#5b6b68" font-size="11">25-01-02</text>
<line x1="289.21" y1="560" x2="289.21" y2="840" stroke="#eef3f1" stroke-width="1" />
      <text x="289.21" y="868" text-anchor="middle" fill="#5b6b68" font-size="11">25-03-14</text>
<line x1="480.42" y1="560" x2="480.42" y2="840" stroke="#eef3f1" stroke-width="1" />
      <text x="480.42" y="868" text-anchor="middle" fill="#5b6b68" font-size="11">25-05-26</text>
<line x1="697.12" y1="560" x2="697.12" y2="840" stroke="#eef3f1" stroke-width="1" />
      <text x="697.12" y="868" text-anchor="middle" fill="#5b6b68" font-size="11">25-08-06</text>
<line x1="909.58" y1="560" x2="909.58" y2="840" stroke="#eef3f1" stroke-width="1" />
      <text x="909.58" y="868" text-anchor="middle" fill="#5b6b68" font-size="11">25-10-23</text>
<line x1="1100.79" y1="560" x2="1100.79" y2="840" stroke="#eef3f1" stroke-width="1" />
      <text x="1100.79" y="868" text-anchor="middle" fill="#5b6b68" font-size="11">25-12-29</text>
<line x1="1292.00" y1="560" x2="1292.00" y2="840" stroke="#eef3f1" stroke-width="1" />
      <text x="1292.00" y="868" text-anchor="middle" fill="#5b6b68" font-size="11">26-03-12</text>
    <line x1="1113.54" y1="560" x2="1113.54" y2="840" stroke="#f59e0b" stroke-width="1.4" stroke-dasharray="4 4" />
       <text x="1119.54" y="552" fill="#a16207" font-size="11">验证起点</text>
    <path d="M 98.00 794.39 L 102.25 794.30 L 106.50 791.70 L 110.75 684.07 L 115.00 835.58 L 119.25 836.79 L 123.49 772.68 L 127.74 733.88 L 131.99 773.53 L 136.24 804.06 L 140.49 830.15 L 144.74 733.68 L 148.99 773.01 L 153.24 803.53 L 157.49 820.46 L 161.74 828.52 L 165.99 752.68 L 170.23 630.39 L 174.48 661.75 L 178.73 812.18 L 182.98 791.80 L 187.23 815.50 L 191.48 832.99 L 195.73 838.55 L 199.98 828.11 L 204.23 746.66 L 208.48 806.14 L 212.73 808.79 L 216.98 827.74 L 221.22 694.45 L 225.47 828.34 L 229.72 708.13 L 233.97 716.99 L 238.22 715.91 L 242.47 698.92 L 246.72 789.36 L 250.97 788.44 L 255.22 829.51 L 259.47 793.27 L 263.72 810.30 L 267.96 825.79 L 272.21 728.74 L 276.46 829.54 L 280.71 788.96 L 284.96 736.20 L 289.21 715.50 L 293.46 687.60 L 297.71 774.58 L 301.96 812.05 L 306.21 813.41 L 310.46 827.94 L 314.70 744.53 L 318.95 782.39 L 323.20 797.61 L 327.45 812.57 L 331.70 819.97 L 335.95 821.61 L 340.20 771.76 L 344.45 813.20 L 348.70 646.74 L 352.95 661.34 L 357.20 590.00 L 361.44 673.93 L 365.69 768.64 L 369.94 820.84 L 374.19 764.97 L 378.44 810.54 L 382.69 728.25 L 386.94 792.79 L 391.19 735.92 L 395.44 746.09 L 399.69 812.23 L 403.94 824.15 L 408.19 836.82 L 412.43 833.08 L 416.68 837.34 L 420.93 830.36 L 425.18 811.92 L 429.43 832.82 L 433.68 789.75 L 437.93 818.34 L 442.18 757.28 L 446.43 762.37 L 450.68 775.73 L 454.93 817.33 L 459.17 826.80 L 463.42 828.28 L 467.67 769.97 L 471.92 823.52 L 476.17 827.06 L 480.42 772.29 L 484.67 741.90 L 488.92 834.19 L 493.17 785.61 L 497.42 803.47 L 501.67 796.63 L 505.91 836.79 L 510.16 835.99 L 514.41 825.49 L 518.66 837.59 L 522.91 824.31 L 527.16 802.98 L 531.41 787.09 L 535.66 784.47 L 539.91 839.33 L 544.16 812.79 L 548.41 831.10 L 552.65 747.28 L 556.90 831.05 L 561.15 838.74 L 565.40 818.98 L 569.65 826.54 L 573.90 831.69 L 578.15 808.85 L 582.40 807.29 L 586.65 812.20 L 590.90 825.22 L 595.15 825.55 L 599.40 832.00 L 603.64 823.21 L 607.89 810.67 L 612.14 834.90 L 616.39 825.18 L 620.64 833.57 L 624.89 812.47 L 629.14 837.46 L 633.39 817.01 L 637.64 827.12 L 641.89 832.58 L 646.14 833.50 L 650.38 808.73 L 654.63 790.41 L 658.88 806.12 L 663.13 782.29 L 667.38 808.74 L 671.63 784.74 L 675.88 820.89 L 680.13 804.65 L 684.38 809.54 L 688.63 799.92 L 692.88 837.83 L 697.12 787.97 L 701.37 827.25 L 705.62 829.63 L 709.87 826.36 L 714.12 778.63 L 718.37 799.81 L 722.62 799.94 L 726.87 797.56 L 731.12 836.29 L 735.37 802.98 L 739.62 764.69 L 743.86 794.27 L 748.11 837.02 L 752.36 793.71 L 756.61 830.10 L 760.86 812.57 L 765.11 802.39 L 769.36 727.06 L 773.61 788.67 L 777.86 785.91 L 782.11 783.08 L 786.36 807.90 L 790.60 801.82 L 794.85 734.21 L 799.10 770.65 L 803.35 799.29 L 807.60 755.05 L 811.85 765.42 L 816.10 822.88 L 820.35 788.01 L 824.60 837.64 L 828.85 830.82 L 833.10 805.98 L 837.35 822.59 L 841.59 838.23 L 845.84 836.70 L 850.09 817.85 L 854.34 813.23 L 858.59 827.36 L 862.84 768.60 L 867.09 724.82 L 871.34 762.12 L 875.59 797.04 L 879.84 730.41 L 884.09 726.13 L 888.33 828.23 L 892.58 725.22 L 896.83 784.90 L 901.08 816.57 L 905.33 812.42 L 909.58 804.15 L 913.83 776.33 L 918.08 803.87 L 922.33 835.46 L 926.58 800.73 L 930.83 813.24 L 935.07 783.28 L 939.32 807.10 L 943.57 729.60 L 947.82 810.10 L 952.07 820.95 L 956.32 781.41 L 960.57 683.12 L 964.82 790.24 L 969.07 804.61 L 973.32 780.11 L 977.57 797.13 L 981.81 802.14 L 986.06 721.39 L 990.31 737.39 L 994.56 772.28 L 998.81 799.14 L 1003.06 678.52 L 1007.31 806.74 L 1011.56 830.82 L 1015.81 834.25 L 1020.06 795.13 L 1024.31 728.15 L 1028.56 804.15 L 1032.80 806.15 L 1037.05 801.41 L 1041.30 791.28 L 1045.55 763.84 L 1049.80 839.68 L 1054.05 765.35 L 1058.30 805.05 L 1062.55 735.51 L 1066.80 781.99 L 1071.05 839.19 L 1075.30 822.82 L 1079.54 763.15 L 1083.79 791.08 L 1088.04 803.61 L 1092.29 813.95 L 1096.54 818.20 L 1100.79 769.80 L 1105.04 830.09 L 1109.29 817.83 L 1113.54 792.72 L 1117.79 712.69 L 1122.04 808.04 L 1126.28 717.83 L 1130.53 711.61 L 1134.78 816.38 L 1139.03 791.73 L 1143.28 838.40 L 1147.53 819.63 L 1151.78 807.74 L 1156.03 786.87 L 1160.28 798.40 L 1164.53 771.80 L 1168.78 838.58 L 1173.02 809.37 L 1177.27 824.95 L 1181.52 761.55 L 1185.77 707.70 L 1190.02 835.47 L 1194.27 765.99 L 1198.52 777.81 L 1202.77 822.46 L 1207.02 691.27 L 1211.27 823.41 L 1215.52 838.24 L 1219.77 812.18 L 1224.01 770.61 L 1228.26 734.32 L 1232.51 800.56 L 1236.76 751.94 L 1241.01 800.85 L 1245.26 794.58 L 1249.51 784.62 L 1253.76 830.19 L 1258.01 794.37 L 1262.26 710.54 L 1266.51 739.52 L 1270.75 798.00 L 1275.00 717.09 L 1279.25 752.18 L 1283.50 789.88 L 1287.75 786.19 L 1292.00 755.13" fill="none" stroke="#1d4ed8" stroke-width="2"  />
  </g>
</svg>