<?xml version="1.0" encoding="UTF-8"?>
<svg xmlns="http://www.w3.org/2000/svg" width="1360" height="980" viewBox="0 0 1360 980">
  <defs>
    <linearGradient id="bg" x1="0" y1="0" x2="1" y2="1">
      <stop offset="0%" stop-color="#f4efe6" />
      <stop offset="100%" stop-color="#eef5f2" />
    </linearGradient>
  </defs>
  <rect x="0" y="0" width="1360" height="980" fill="url(#bg)" />
  <text x="46" y="36" fill="#1f2937" font-size="31" font-weight="700">161129 离线研究图（持仓逐日估值版）</text>
  <text x="46" y="66" fill="#5b6b68" font-size="13">历史前十大持仓 + 持仓逐日涨跌幅 + USDCNY；双目标 lambda=0.10；披露期数 29；覆盖率均值 79.0%</text>
  <g>
    <text x="54" y="110" fill="#1f2937" font-size="16" font-weight="700">A. 净值拟合（同日对齐，无平移）</text>
    <line x1="98" y1="130" x2="124" y2="130" stroke="#0f766e" stroke-width="2"  />
      <text x="130" y="134" fill="#24312e" font-size="12">真实净值</text>
<line x1="313" y1="130" x2="339" y2="130" stroke="#1d4ed8" stroke-width="2"  />
      <text x="345" y="134" fill="#24312e" font-size="12">持仓分段估值</text>
    <line x1="98" y1="132.00" x2="1292" y2="132.00" stroke="#d7e3df" stroke-width="1" />
      <text x="90" y="136.00" text-anchor="end" fill="#5b6b68" font-size="11">1.631</text>
<line x1="98" y1="209.50" x2="1292" y2="209.50" stroke="#d7e3df" stroke-width="1" />
      <text x="90" y="213.50" text-anchor="end" fill="#5b6b68" font-size="11">1.477</text>
<line x1="98" y1="287.00" x2="1292" y2="287.00" stroke="#d7e3df" stroke-width="1" />
      <text x="90" y="291.00" text-anchor="end" fill="#5b6b68" font-size="11">1.323</text>
<line x1="98" y1="364.50" x2="1292" y2="364.50" stroke="#d7e3df" stroke-width="1" />
      <text x="90" y="368.50" text-anchor="end" fill="#5b6b68" font-size="11">1.168</text>
<line x1="98" y1="442.00" x2="1292" y2="442.00" stroke="#d7e3df" stroke-width="1" />
      <text x="90" y="446.00" text-anchor="end" fill="#5b6b68" font-size="11">1.014</text>
    <line x1="98.00" y1="132" x2="98.00" y2="442" stroke="#eef3f1" stroke-width="1" />
      <text x="98.00" y="470" text-anchor="middle" fill="#5b6b68" font-size="11">25-01-02</text>
<line x1="290.72" y1="132" x2="290.72" y2="442" stroke="#eef3f1" stroke-width="1" />
      <text x="290.72" y="470" text-anchor="middle" fill="#5b6b68" font-size="11">25-03-17</text>
<line x1="479.24" y1="132" x2="479.24" y2="442" stroke="#eef3f1" stroke-width="1" />
      <text x="479.24" y="470" text-anchor="middle" fill="#5b6b68" font-size="11">25-05-23</text>
<line x1="697.09" y1="132" x2="697.09" y2="442" stroke="#eef3f1" stroke-width="1" />
      <text x="697.09" y="470" text-anchor="middle" fill="#5b6b68" font-size="11">25-08-06</text>
<line x1="910.76" y1="132" x2="910.76" y2="442" stroke="#eef3f1" stroke-width="1" />
      <text x="910.76" y="470" text-anchor="middle" fill="#5b6b68" font-size="11">25-10-24</text>
<line x1="1099.28" y1="132" x2="1099.28" y2="442" stroke="#eef3f1" stroke-width="1" />
      <text x="1099.28" y="470" text-anchor="middle" fill="#5b6b68" font-size="11">25-12-26</text>
<line x1="1292.00" y1="132" x2="1292.00" y2="442" stroke="#eef3f1" stroke-width="1" />
      <text x="1292.00" y="470" text-anchor="middle" fill="#5b6b68" font-size="11">26-03-12</text>
    <line x1="1116.04" y1="132" x2="1116.04" y2="442" stroke="#f59e0b" stroke-width="1.4" stroke-dasharray="4 4" />
       <text x="1122.04" y="124" fill="#a16207" font-size="11">验证起点</text>
    <path d="M 98.00 321.42 L 102.19 320.61 L 106.38 310.66 L 110.57 310.66 L 114.76 306.58 L 118.95 311.21 L 123.14 300.75 L 127.33 290.39 L 131.52 285.87 L 135.71 281.59 L 139.89 275.86 L 144.08 276.26 L 148.27 284.41 L 152.46 287.58 L 156.65 292.40 L 160.84 296.23 L 165.03 300.60 L 169.22 306.83 L 173.41 317.24 L 177.60 321.92 L 181.79 321.42 L 185.98 315.43 L 190.17 310.15 L 194.36 305.48 L 198.55 319.91 L 202.74 319.10 L 206.93 320.06 L 211.12 313.62 L 215.31 308.75 L 219.49 308.75 L 223.68 309.95 L 227.87 314.18 L 232.06 326.04 L 236.25 333.79 L 240.44 332.68 L 244.63 330.92 L 248.82 331.67 L 253.01 347.51 L 257.20 355.81 L 261.39 359.73 L 265.58 354.85 L 269.77 355.86 L 273.96 357.82 L 278.15 353.85 L 282.34 351.08 L 286.53 350.18 L 290.72 347.76 L 294.91 345.50 L 299.09 351.94 L 303.28 345.60 L 307.47 338.21 L 311.66 335.85 L 315.85 333.89 L 320.04 328.20 L 324.23 328.46 L 328.42 330.06 L 332.61 325.84 L 336.80 313.92 L 340.99 315.99 L 345.18 339.72 L 349.37 400.61 L 353.56 397.09 L 357.75 425.40 L 361.94 399.00 L 366.13 402.22 L 370.32 395.73 L 374.51 393.27 L 378.69 396.13 L 382.88 377.38 L 387.07 375.62 L 391.26 378.23 L 395.45 377.33 L 399.64 374.21 L 403.83 378.49 L 408.02 375.77 L 412.21 382.06 L 416.40 389.90 L 420.59 404.83 L 424.78 405.94 L 428.97 408.60 L 433.16 407.65 L 437.35 397.44 L 441.54 383.51 L 445.73 381.20 L 449.92 377.63 L 454.11 391.31 L 458.29 389.40 L 462.48 387.03 L 466.67 386.28 L 470.86 383.26 L 475.05 393.02 L 479.24 392.51 L 483.43 389.25 L 487.62 392.82 L 491.81 390.15 L 496.00 387.84 L 500.19 400.06 L 504.38 382.91 L 508.57 384.32 L 512.76 382.26 L 516.95 378.54 L 521.14 372.55 L 525.33 366.27 L 529.52 363.25 L 533.71 351.94 L 537.89 319.00 L 542.08 323.43 L 546.27 313.57 L 550.46 305.78 L 554.65 292.00 L 558.84 298.89 L 563.03 298.39 L 567.22 364.76 L 571.41 364.21 L 575.60 364.96 L 579.79 366.37 L 583.98 369.33 L 588.17 367.27 L 592.36 361.44 L 596.55 354.15 L 600.74 356.56 L 604.93 352.89 L 609.12 345.35 L 613.31 341.48 L 617.49 347.01 L 621.68 345.45 L 625.87 344.24 L 630.06 351.53 L 634.25 354.10 L 638.44 350.93 L 642.63 344.60 L 646.82 345.95 L 651.01 351.43 L 655.20 352.89 L 659.39 346.91 L 663.58 347.76 L 667.77 345.05 L 671.96 334.64 L 676.15 318.35 L 680.34 320.86 L 684.53 330.62 L 688.72 341.48 L 692.91 350.88 L 697.09 352.89 L 701.28 361.34 L 705.47 365.97 L 709.66 366.82 L 713.85 363.70 L 718.04 372.45 L 722.23 368.63 L 726.42 368.73 L 730.61 370.09 L 734.80 370.94 L 738.99 367.68 L 743.18 361.84 L 747.37 357.27 L 751.56 357.37 L 755.75 357.97 L 759.94 362.24 L 764.13 360.79 L 768.32 357.57 L 772.51 356.61 L 776.69 346.81 L 780.88 351.74 L 785.07 361.89 L 789.26 370.79 L 793.45 368.33 L 797.64 367.17 L 801.83 360.54 L 806.02 364.11 L 810.21 367.68 L 814.40 366.87 L 818.59 357.57 L 822.78 355.16 L 826.97 358.42 L 831.16 365.31 L 835.35 366.87 L 839.54 360.99 L 843.73 354.80 L 847.92 348.57 L 852.11 341.33 L 856.29 353.60 L 860.48 367.37 L 864.67 371.65 L 868.86 389.45 L 873.05 386.58 L 877.24 401.41 L 881.43 401.97 L 885.62 403.27 L 889.81 411.07 L 894.00 411.52 L 898.19 408.40 L 902.38 400.16 L 906.57 385.27 L 910.76 381.55 L 914.95 383.82 L 919.14 393.87 L 923.33 391.16 L 927.52 392.01 L 931.71 390.35 L 935.89 387.18 L 940.08 389.50 L 944.27 391.46 L 948.46 396.94 L 952.65 394.58 L 956.84 394.02 L 961.03 387.44 L 965.22 396.08 L 969.41 402.42 L 973.60 394.27 L 977.79 394.93 L 981.98 393.87 L 986.17 395.38 L 990.36 400.36 L 994.55 409.66 L 998.74 405.24 L 1002.93 410.16 L 1007.12 408.70 L 1011.31 405.44 L 1015.49 401.87 L 1019.68 399.15 L 1023.87 401.26 L 1028.06 402.97 L 1032.25 398.35 L 1036.44 396.39 L 1040.63 398.45 L 1044.82 406.19 L 1049.01 407.70 L 1053.20 412.53 L 1057.39 413.73 L 1061.58 419.46 L 1065.77 429.52 L 1069.96 425.30 L 1074.15 424.29 L 1078.34 424.69 L 1082.53 415.14 L 1086.72 411.67 L 1090.91 408.45 L 1095.09 408.45 L 1099.28 410.87 L 1103.47 414.94 L 1107.66 412.27 L 1111.85 413.58 L 1116.04 415.74 L 1120.23 415.09 L 1124.42 426.50 L 1128.61 420.17 L 1132.80 404.53 L 1136.99 405.49 L 1141.18 390.65 L 1145.37 388.04 L 1149.56 398.95 L 1153.75 400.21 L 1157.94 400.41 L 1162.13 397.49 L 1166.32 393.07 L 1170.51 394.58 L 1174.69 390.45 L 1178.88 387.74 L 1183.07 383.06 L 1187.26 373.06 L 1191.45 356.46 L 1195.64 353.45 L 1199.83 382.51 L 1204.02 375.77 L 1208.21 367.27 L 1212.40 368.48 L 1216.59 363.00 L 1220.78 365.41 L 1224.97 361.24 L 1229.16 354.65 L 1233.35 363.65 L 1237.54 372.30 L 1241.73 338.01 L 1245.92 345.75 L 1250.11 343.69 L 1254.29 339.52 L 1258.48 296.28 L 1262.67 277.12 L 1266.86 271.94 L 1271.05 255.45 L 1275.24 216.33 L 1279.43 163.28 L 1283.62 204.86 L 1287.81 187.72 L 1292.00 136.08" fill="none" stroke="#0f766e" stroke-width="2"  />
<path d="M 98.00 325.76 L 102.19 317.75 L 106.38 320.26 L 110.57 308.01 L 114.76 312.69 L 118.95 305.98 L 123.14 310.89 L 127.33 290.03 L 131.52 291.84 L 135.71 271.04 L 139.89 284.73 L 144.08 276.66 L 148.27 274.96 L 152.46 284.32 L 156.65 289.23 L 160.84 294.86 L 165.03 296.00 L 169.22 305.14 L 173.41 313.01 L 177.60 318.34 L 181.79 320.89 L 185.98 319.06 L 190.17 313.07 L 194.36 314.73 L 198.55 305.30 L 202.74 321.76 L 206.93 317.87 L 211.12 319.37 L 215.31 312.05 L 219.49 308.30 L 223.68 314.40 L 227.87 310.02 L 232.06 317.97 L 236.25 326.76 L 240.44 329.80 L 244.63 332.71 L 248.82 332.23 L 253.01 332.18 L 257.20 352.70 L 261.39 356.82 L 265.58 357.63 L 269.77 352.87 L 273.96 354.97 L 278.15 354.25 L 282.34 356.97 L 286.53 349.55 L 290.72 349.41 L 294.91 349.10 L 299.09 344.84 L 303.28 348.97 L 307.47 345.42 L 311.66 331.85 L 315.85 336.01 L 320.04 332.26 L 324.23 327.88 L 328.42 329.98 L 332.61 328.40 L 336.80 325.91 L 340.99 312.18 L 345.18 334.92 L 349.37 411.22 L 353.56 409.73 L 357.75 376.08 L 361.94 439.44 L 366.13 397.00 L 370.32 403.82 L 374.51 395.83 L 378.69 390.74 L 382.88 392.86 L 387.07 376.68 L 391.26 372.95 L 395.45 375.99 L 399.64 380.36 L 403.83 372.10 L 408.02 377.14 L 412.21 374.79 L 416.40 385.32 L 420.59 397.21 L 424.78 413.99 L 428.97 407.81 L 433.16 400.99 L 437.35 405.82 L 441.54 388.50 L 445.73 379.75 L 449.92 382.59 L 454.11 379.36 L 458.29 390.33 L 462.48 386.60 L 466.67 386.56 L 470.86 388.27 L 475.05 384.06 L 479.24 391.68 L 483.43 390.87 L 487.62 388.79 L 491.81 391.81 L 496.00 391.62 L 500.19 388.12 L 504.38 388.01 L 508.57 384.28 L 512.76 383.43 L 516.95 379.44 L 521.14 373.89 L 525.33 373.28 L 529.52 354.72 L 533.71 363.26 L 537.89 334.37 L 542.08 294.88 L 546.27 310.04 L 550.46 313.26 L 554.65 305.03 L 558.84 291.15 L 563.03 361.32 L 567.22 309.90 L 571.41 364.78 L 575.60 363.98 L 579.79 365.97 L 583.98 363.52 L 588.17 368.17 L 592.36 364.24 L 596.55 362.43 L 600.74 353.83 L 604.93 354.52 L 609.12 352.06 L 613.31 345.32 L 617.49 344.26 L 621.68 343.23 L 625.87 343.06 L 630.06 344.81 L 634.25 351.73 L 638.44 352.09 L 642.63 351.52 L 646.82 337.64 L 651.01 346.42 L 655.20 351.77 L 659.39 351.26 L 663.58 349.32 L 667.77 342.33 L 671.96 334.05 L 676.15 332.06 L 680.34 320.82 L 684.53 325.05 L 688.72 337.45 L 692.91 343.45 L 697.09 353.43 L 701.28 353.75 L 705.47 361.52 L 709.66 367.55 L 713.85 368.65 L 718.04 365.01 L 722.23 369.38 L 726.42 370.73 L 730.61 367.28 L 734.80 371.98 L 738.99 368.19 L 743.18 366.25 L 747.37 360.63 L 751.56 352.17 L 755.75 360.97 L 759.94 356.36 L 764.13 361.45 L 768.32 361.43 L 772.51 354.58 L 776.69 355.96 L 780.88 350.60 L 785.07 353.04 L 789.26 365.19 L 793.45 376.39 L 797.64 367.60 L 801.83 363.88 L 806.02 364.14 L 810.21 363.03 L 814.40 368.39 L 818.59 363.90 L 822.78 359.11 L 826.97 355.49 L 831.16 360.66 L 835.35 369.26 L 839.54 363.04 L 843.73 357.67 L 847.92 353.27 L 852.11 348.09 L 856.29 340.24 L 860.48 355.13 L 864.67 378.23 L 868.86 386.03 L 873.05 399.99 L 877.24 389.74 L 881.43 401.81 L 885.62 405.04 L 889.81 402.87 L 894.00 415.18 L 898.19 410.60 L 902.38 397.26 L 906.57 388.44 L 910.76 385.52 L 914.95 377.38 L 919.14 387.77 L 923.33 392.83 L 927.52 391.29 L 931.71 390.00 L 935.89 387.82 L 940.08 388.97 L 944.27 391.44 L 948.46 391.90 L 952.65 396.15 L 956.84 391.41 L 961.03 391.63 L 965.22 399.77 L 969.41 396.05 L 973.60 398.86 L 977.79 387.75 L 981.98 392.17 L 986.17 397.26 L 990.36 396.73 L 994.55 402.20 L 998.74 414.71 L 1002.93 408.25 L 1007.12 408.64 L 1011.31 408.48 L 1015.49 405.30 L 1019.68 398.45 L 1023.87 401.02 L 1028.06 400.34 L 1032.25 401.41 L 1036.44 397.17 L 1040.63 395.69 L 1044.82 399.63 L 1049.01 404.67 L 1053.20 410.53 L 1057.39 413.53 L 1061.58 415.06 L 1065.77 423.12 L 1069.96 425.69 L 1074.15 427.11 L 1078.34 422.62 L 1082.53 423.46 L 1086.72 414.36 L 1090.91 412.18 L 1095.09 408.17 L 1099.28 408.17 L 1103.47 410.53 L 1107.66 414.97 L 1111.85 413.30 L 1116.04 412.96 L 1120.23 418.79 L 1124.42 416.04 L 1128.61 416.24 L 1132.80 419.93 L 1136.99 392.24 L 1141.18 401.43 L 1145.37 392.23 L 1149.56 390.63 L 1153.75 397.46 L 1157.94 401.69 L 1162.13 400.01 L 1166.32 393.99 L 1170.51 395.72 L 1174.69 390.05 L 1178.88 388.79 L 1183.07 383.24 L 1187.26 381.14 L 1191.45 363.21 L 1195.64 355.04 L 1199.83 379.73 L 1204.02 377.77 L 1208.21 374.48 L 1212.40 369.08 L 1216.59 367.27 L 1220.78 358.93 L 1224.97 364.96 L 1229.16 358.75 L 1233.35 359.50 L 1237.54 363.17 L 1241.73 350.49 L 1245.92 339.71 L 1250.11 345.71 L 1254.29 338.00 L 1258.48 292.69 L 1262.67 282.63 L 1266.86 273.78 L 1271.05 254.65 L 1275.24 210.18 L 1279.43 194.45 L 1283.62 160.10 L 1287.81 200.58 L 1292.00 152.17" fill="none" stroke="#1d4ed8" stroke-width="2"  />
  </g>
  <g>
    <text x="54" y="538" fill="#1f2937" font-size="16" font-weight="700">B. 绝对误差（越低越好）</text>
    <line x1="98" y1="558" x2="124" y2="558" stroke="#1d4ed8" stroke-width="2"  />
      <text x="130" y="562" fill="#24312e" font-size="12">持仓分段误差</text>
    <line x1="98" y1="560.00" x2="1292" y2="560.00" stroke="#d7e3df" stroke-width="1" />
      <text x="90" y="564.00" text-anchor="end" fill="#5b6b68" font-size="11">10.78%</text>
<line x1="98" y1="630.00" x2="1292" y2="630.00" stroke="#d7e3df" stroke-width="1" />
      <text x="90" y="634.00" text-anchor="end" fill="#5b6b68" font-size="11">8.09%</text>
<line x1="98" y1="700.00" x2="1292" y2="700.00" stroke="#d7e3df" stroke-width="1" />
      <text x="90" y="704.00" text-anchor="end" fill="#5b6b68" font-size="11">5.39%</text>
<line x1="98" y1="770.00" x2="1292" y2="770.00" stroke="#d7e3df" stroke-width="1" />
      <text x="90" y="774.00" text-anchor="end" fill="#5b6b68" font-size="11">2.70%</text>
<line x1="98" y1="840.00" x2="1292" y2="840.00" stroke="#d7e3df" stroke-width="1" />
      <text x="90" y="844.00" text-anchor="end" fill="#5b6b68" font-size="11">0.00%</text>
    <line x1="98.00" y1="560" x2="98.00" y2="840" stroke="#eef3f1" stroke-width="1" />
      <text x="98.00" y="868" text-anchor="middle" fill="#5b6b68" font-size="11">25-01-02</text>
<line x1="290.72" y1="560" x2="290.72" y2="840" stroke="#eef3f1" stroke-width="1" />
      <text x="290.72" y="868" text-anchor="middle" fill="#5b6b68" font-size="11">25-03-17</text>
<line x1="479.24" y1="560" x2="479.24" y2="840" stroke="#eef3f1" stroke-width="1" />
      <text x="479.24" y="868" text-anchor="middle" fill="#5b6b68" font-size="11">25-05-23</text>
<line x1="697.09" y1="560" x2="697.09" y2="840" stroke="#eef3f1" stroke-width="1" />
      <text x="697.09" y="868" text-anchor="middle" fill="#5b6b68" font-size="11">25-08-06</text>
<line x1="910.76" y1="560" x2="910.76" y2="840" stroke="#eef3f1" stroke-width="1" />
      <text x="910.76" y="868" text-anchor="middle" fill="#5b6b68" font-size="11">25-10-24</text>
<line x1="1099.28" y1="560" x2="1099.28" y2="840" stroke="#eef3f1" stroke-width="1" />
      <text x="1099.28" y="868" text-anchor="middle" fill="#5b6b68" font-size="11">25-12-26</text>
<line x1="1292.00" y1="560" x2="1292.00" y2="840" stroke="#eef3f1" stroke-width="1" />
      <text x="1292.00" y="868" text-anchor="middle" fill="#5b6b68" font-size="11">26-03-12</text>
    <line x1="1116.04" y1="560" x2="1116.04" y2="840" stroke="#f59e0b" stroke-width="1.4" stroke-dasharray="4 4" />
       <text x="1122.04" y="552" fill="#a16207" font-size="11">验证起点</text>
    <path d="M 98.00 822.13 L 102.19 828.25 L 106.38 801.13 L 110.57 829.29 L 114.76 815.42 L 118.95 818.82 L 123.14 799.57 L 127.33 838.58 L 131.52 816.71 L 135.71 799.11 L 139.89 805.96 L 144.08 838.49 L 148.27 803.26 L 152.46 827.29 L 156.65 827.52 L 160.84 834.60 L 165.03 821.68 L 169.22 833.18 L 173.41 822.67 L 177.60 825.26 L 181.79 837.84 L 185.98 825.20 L 190.17 828.20 L 194.36 802.82 L 198.55 780.01 L 202.74 829.11 L 206.93 831.01 L 211.12 816.64 L 215.31 826.66 L 219.49 838.19 L 223.68 822.02 L 227.87 823.09 L 232.06 806.51 L 236.25 810.50 L 240.44 827.91 L 244.63 832.51 L 248.82 837.65 L 253.01 774.15 L 257.20 826.48 L 261.39 827.24 L 265.58 827.95 L 269.77 826.98 L 273.96 827.55 L 278.15 838.27 L 282.34 814.58 L 286.53 837.30 L 290.72 832.92 L 294.91 824.59 L 299.09 809.28 L 303.28 825.57 L 307.47 809.49 L 311.66 823.15 L 315.85 831.09 L 320.04 823.12 L 324.23 837.59 L 328.42 839.65 L 332.61 829.38 L 336.80 791.23 L 340.99 824.46 L 345.18 819.67 L 349.37 790.04 L 353.56 780.83 L 357.75 596.85 L 361.94 650.15 L 366.13 815.35 L 370.32 802.25 L 374.51 828.09 L 378.69 814.83 L 382.88 770.04 L 387.07 835.20 L 391.26 816.08 L 395.45 833.97 L 399.64 812.35 L 403.83 811.11 L 408.02 833.83 L 412.21 806.90 L 416.40 818.85 L 420.59 803.82 L 424.78 801.74 L 428.97 836.19 L 433.16 808.24 L 437.35 800.79 L 441.54 817.24 L 445.73 833.38 L 449.92 817.58 L 454.11 784.66 L 458.29 835.70 L 462.48 838.01 L 466.67 838.71 L 470.86 817.14 L 475.05 798.39 L 479.24 836.13 L 483.43 832.52 L 487.62 821.30 L 491.81 832.32 L 496.00 822.57 L 500.19 783.87 L 504.38 816.71 L 508.57 839.83 L 512.76 834.67 L 516.95 835.89 L 521.14 833.99 L 525.33 808.93 L 529.52 802.40 L 533.71 791.00 L 537.89 776.95 L 542.08 722.08 L 546.27 825.64 L 550.46 809.95 L 554.65 788.75 L 558.84 809.21 L 563.03 590.00 L 567.22 597.47 L 571.41 837.47 L 575.60 835.67 L 579.79 838.24 L 583.98 814.09 L 588.17 836.03 L 592.36 827.70 L 596.55 804.02 L 600.74 828.08 L 604.93 832.93 L 609.12 811.29 L 613.31 823.65 L 617.49 828.22 L 621.68 830.50 L 625.87 834.92 L 630.06 810.91 L 634.25 829.73 L 638.44 835.01 L 642.63 810.38 L 646.82 804.40 L 651.01 818.31 L 655.20 835.12 L 659.39 821.34 L 663.58 833.33 L 667.77 828.39 L 671.96 837.52 L 676.15 783.80 L 680.34 839.82 L 684.53 816.75 L 688.72 822.86 L 692.91 807.89 L 697.09 837.67 L 701.28 806.64 L 705.47 820.30 L 709.66 836.78 L 713.85 818.17 L 718.04 806.65 L 722.23 836.66 L 726.42 831.12 L 730.61 827.48 L 734.80 835.39 L 738.99 837.73 L 743.18 820.61 L 747.37 825.30 L 751.56 817.30 L 755.75 826.90 L 759.94 814.09 L 764.13 837.09 L 768.32 823.12 L 772.51 831.12 L 776.69 800.74 L 780.88 835.09 L 785.07 801.05 L 789.26 814.97 L 793.45 804.12 L 797.64 838.10 L 801.83 825.31 L 806.02 839.85 L 810.21 819.36 L 814.40 833.24 L 818.59 812.33 L 822.78 822.81 L 826.97 827.18 L 831.16 819.42 L 835.35 829.39 L 839.54 831.00 L 843.73 827.55 L 847.92 819.76 L 852.11 811.26 L 856.29 782.03 L 860.48 785.63 L 864.67 810.56 L 868.86 824.23 L 873.05 778.41 L 877.24 784.97 L 881.43 839.25 L 885.62 831.63 L 889.81 800.67 L 894.00 822.43 L 898.19 829.49 L 902.38 826.37 L 906.57 825.48 L 910.76 821.93 L 914.95 810.58 L 919.14 811.63 L 923.33 832.27 L 927.52 836.67 L 931.71 838.39 L 935.89 837.06 L 940.08 837.58 L 944.27 839.90 L 948.46 816.41 L 952.65 832.66 L 956.84 827.83 L 961.03 820.72 L 965.22 822.79 L 969.41 809.93 L 973.60 818.67 L 977.79 806.56 L 981.98 832.10 L 986.17 831.22 L 990.36 822.90 L 994.55 804.27 L 998.74 795.02 L 1002.93 830.85 L 1007.12 839.69 L 1011.31 825.52 L 1015.49 823.80 L 1019.68 836.70 L 1023.87 838.86 L 1028.06 827.57 L 1032.25 825.62 L 1036.44 836.36 L 1040.63 827.08 L 1044.82 808.79 L 1049.01 825.54 L 1053.20 830.40 L 1057.39 839.01 L 1061.58 818.53 L 1065.77 808.21 L 1069.96 838.06 L 1074.15 826.11 L 1078.34 829.79 L 1082.53 799.77 L 1086.72 827.10 L 1090.91 822.20 L 1095.09 838.64 L 1099.28 827.05 L 1103.47 818.70 L 1107.66 827.03 L 1111.85 838.64 L 1116.04 826.53 L 1120.23 822.13 L 1124.42 788.29 L 1128.61 820.82 L 1132.80 766.99 L 1136.99 777.06 L 1141.18 790.16 L 1145.37 820.71 L 1149.56 800.94 L 1153.75 827.07 L 1157.94 833.94 L 1162.13 828.19 L 1166.32 835.72 L 1170.51 834.66 L 1174.69 838.15 L 1178.88 835.16 L 1183.07 839.19 L 1187.26 803.76 L 1191.45 810.58 L 1195.64 833.09 L 1199.83 827.35 L 1204.02 830.97 L 1208.21 807.99 L 1212.40 837.31 L 1216.59 821.17 L 1220.78 811.32 L 1224.97 823.65 L 1229.16 822.19 L 1233.35 821.69 L 1237.54 799.10 L 1241.73 787.22 L 1245.92 814.14 L 1250.11 831.37 L 1254.29 833.59 L 1258.48 825.82 L 1262.67 818.81 L 1266.86 832.96 L 1271.05 837.03 L 1275.24 818.31 L 1279.43 737.38 L 1283.62 684.45 L 1287.81 796.32 L 1292.00 788.81" fill="none" stroke="#1d4ed8" stroke-width="2"  />
  </g>
</svg>