<?xml version="1.0" encoding="UTF-8"?>
<svg xmlns="http://www.w3.org/2000/svg" width="1360" height="980" viewBox="0 0 1360 980">
  <defs>
    <linearGradient id="bg" x1="0" y1="0" x2="1" y2="1">
      <stop offset="0%" stop-color="#f4efe6" />
      <stop offset="100%" stop-color="#eef5f2" />
    </linearGradient>
  </defs>
  <rect x="0" y="0" width="1360" height="980" fill="url(#bg)" />
  <text x="46" y="36" fill="#1f2937" font-size="31" font-weight="700">161126 离线研究图（持仓逐日估值版）</text>
  <text x="46" y="66" fill="#5b6b68" font-size="13">历史前十大持仓 + 持仓逐日涨跌幅 + USDCNY；双目标 lambda=0.10；披露期数 29；覆盖率均值 0.0%</text>
  <g>
    <text x="54" y="110" fill="#1f2937" font-size="16" font-weight="700">A. 净值拟合（同日对齐，无平移）</text>
    <line x1="98" y1="130" x2="124" y2="130" stroke="#0f766e" stroke-width="2"  />
      <text x="130" y="134" fill="#24312e" font-size="12">真实净值</text>
<line x1="313" y1="130" x2="339" y2="130" stroke="#1d4ed8" stroke-width="2"  />
      <text x="345" y="134" fill="#24312e" font-size="12">持仓分段估值</text>
    <line x1="98" y1="132.00" x2="1292" y2="132.00" stroke="#d7e3df" stroke-width="1" />
      <text x="90" y="136.00" text-anchor="end" fill="#5b6b68" font-size="11">2.013</text>
<line x1="98" y1="209.50" x2="1292" y2="209.50" stroke="#d7e3df" stroke-width="1" />
      <text x="90" y="213.50" text-anchor="end" fill="#5b6b68" font-size="11">1.930</text>
<line x1="98" y1="287.00" x2="1292" y2="287.00" stroke="#d7e3df" stroke-width="1" />
      <text x="90" y="291.00" text-anchor="end" fill="#5b6b68" font-size="11">1.847</text>
<line x1="98" y1="364.50" x2="1292" y2="364.50" stroke="#d7e3df" stroke-width="1" />
      <text x="90" y="368.50" text-anchor="end" fill="#5b6b68" font-size="11">1.765</text>
<line x1="98" y1="442.00" x2="1292" y2="442.00" stroke="#d7e3df" stroke-width="1" />
      <text x="90" y="446.00" text-anchor="end" fill="#5b6b68" font-size="11">1.682</text>
    <line x1="98.00" y1="132" x2="98.00" y2="442" stroke="#eef3f1" stroke-width="1" />
      <text x="98.00" y="470" text-anchor="middle" fill="#5b6b68" font-size="11">25-01-02</text>
<line x1="290.04" y1="132" x2="290.04" y2="442" stroke="#eef3f1" stroke-width="1" />
      <text x="290.04" y="470" text-anchor="middle" fill="#5b6b68" font-size="11">25-03-17</text>
<line x1="482.08" y1="132" x2="482.08" y2="442" stroke="#eef3f1" stroke-width="1" />
      <text x="482.08" y="470" text-anchor="middle" fill="#5b6b68" font-size="11">25-05-26</text>
<line x1="695.00" y1="132" x2="695.00" y2="442" stroke="#eef3f1" stroke-width="1" />
      <text x="695.00" y="470" text-anchor="middle" fill="#5b6b68" font-size="11">25-08-06</text>
<line x1="907.92" y1="132" x2="907.92" y2="442" stroke="#eef3f1" stroke-width="1" />
      <text x="907.92" y="470" text-anchor="middle" fill="#5b6b68" font-size="11">25-10-24</text>
<line x1="1099.96" y1="132" x2="1099.96" y2="442" stroke="#eef3f1" stroke-width="1" />
      <text x="1099.96" y="470" text-anchor="middle" fill="#5b6b68" font-size="11">25-12-29</text>
<line x1="1292.00" y1="132" x2="1292.00" y2="442" stroke="#eef3f1" stroke-width="1" />
      <text x="1292.00" y="470" text-anchor="middle" fill="#5b6b68" font-size="11">26-03-13</text>
    <line x1="1112.48" y1="132" x2="1112.48" y2="442" stroke="#f59e0b" stroke-width="1.4" stroke-dasharray="4 4" />
       <text x="1118.48" y="124" fill="#a16207" font-size="11">验证起点</text>
    <path d="M 98.00 301.67 L 102.17 281.84 L 106.35 272.86 L 110.52 261.72 L 114.70 257.70 L 118.87 257.79 L 123.05 276.60 L 127.22 255.55 L 131.40 263.87 L 135.57 262.75 L 139.75 249.65 L 143.92 249.56 L 148.10 249.75 L 152.27 223.93 L 156.45 225.05 L 160.62 207.37 L 164.80 206.99 L 168.97 180.05 L 173.15 187.63 L 177.32 216.44 L 181.50 229.63 L 185.67 234.69 L 189.85 245.63 L 194.02 254.80 L 198.20 250.96 L 202.37 264.81 L 206.55 265.09 L 210.72 263.87 L 214.90 246.75 L 219.07 240.58 L 223.24 247.50 L 227.42 230.38 L 231.59 218.31 L 235.77 233.56 L 239.94 255.64 L 244.12 245.63 L 248.29 246.57 L 252.47 261.16 L 256.64 245.26 L 260.82 245.54 L 264.99 230.76 L 269.17 241.05 L 273.34 270.52 L 277.52 291.94 L 281.69 300.17 L 285.87 280.81 L 290.04 262.47 L 294.22 259.38 L 298.39 264.62 L 302.57 269.11 L 306.74 275.57 L 310.92 259.10 L 315.09 276.13 L 319.27 280.25 L 323.44 276.50 L 327.62 289.88 L 331.79 278.84 L 335.97 298.68 L 340.14 285.95 L 344.31 311.87 L 348.49 400.00 L 352.66 431.15 L 356.84 349.20 L 361.01 405.05 L 365.19 381.38 L 369.36 359.30 L 373.54 376.89 L 377.71 391.20 L 381.89 397.75 L 386.06 398.12 L 390.24 432.83 L 394.41 397.00 L 398.59 377.45 L 402.76 353.41 L 406.94 357.52 L 411.11 352.38 L 415.29 344.89 L 419.46 334.32 L 423.64 371.27 L 427.81 347.32 L 431.99 344.99 L 436.16 350.13 L 440.34 305.79 L 444.51 337.22 L 448.69 367.72 L 452.86 341.90 L 457.03 315.70 L 461.21 307.84 L 465.38 301.20 L 469.56 343.58 L 473.73 355.65 L 477.91 361.64 L 482.08 363.70 L 486.26 331.42 L 490.43 340.31 L 494.61 329.36 L 498.78 339.75 L 502.96 336.57 L 507.13 334.79 L 511.31 336.94 L 515.48 322.44 L 519.66 324.31 L 523.83 312.05 L 528.01 318.04 L 532.18 309.15 L 536.36 323.84 L 540.53 318.04 L 544.71 344.24 L 548.88 342.74 L 553.06 343.58 L 557.23 343.68 L 561.41 344.05 L 565.58 323.37 L 569.76 324.59 L 573.93 318.32 L 578.10 316.55 L 582.28 311.03 L 586.45 287.64 L 590.63 312.05 L 594.80 310.65 L 598.98 310.46 L 603.15 328.24 L 607.33 318.14 L 611.50 311.96 L 615.68 300.73 L 619.85 322.81 L 624.03 332.54 L 628.20 360.14 L 632.38 352.84 L 636.55 358.36 L 640.73 377.26 L 644.90 387.83 L 649.08 352.75 L 653.25 325.15 L 657.43 328.15 L 661.60 319.07 L 665.78 334.13 L 669.95 331.51 L 674.13 337.60 L 678.30 394.85 L 682.48 395.04 L 686.65 374.55 L 690.83 385.78 L 695.00 412.63 L 699.17 400.84 L 703.35 380.91 L 707.52 383.81 L 711.70 365.19 L 715.87 338.72 L 720.05 340.31 L 724.22 325.06 L 728.40 331.70 L 732.57 315.24 L 736.75 304.94 L 740.92 320.47 L 745.10 297.18 L 749.27 325.15 L 753.45 324.31 L 757.62 326.09 L 761.80 337.69 L 765.97 326.46 L 770.15 325.53 L 774.32 331.05 L 778.50 335.35 L 782.67 331.70 L 786.85 316.64 L 791.02 321.97 L 795.20 324.50 L 799.37 346.48 L 803.55 315.14 L 807.72 341.06 L 811.90 351.63 L 816.07 353.13 L 820.24 351.72 L 824.42 339.09 L 828.59 347.51 L 832.77 344.89 L 836.94 345.17 L 841.12 347.98 L 845.29 376.14 L 849.47 357.43 L 853.64 355.37 L 857.82 326.37 L 861.99 286.33 L 866.17 316.45 L 870.34 313.55 L 874.52 303.35 L 878.69 302.79 L 882.87 298.68 L 887.04 286.05 L 891.22 262.28 L 895.39 253.30 L 899.57 249.47 L 903.74 250.59 L 907.92 249.37 L 912.09 248.72 L 916.27 261.07 L 920.44 276.78 L 924.62 283.05 L 928.79 284.08 L 932.97 282.49 L 937.14 275.10 L 941.31 276.04 L 945.49 280.62 L 949.66 272.95 L 953.84 272.39 L 958.01 235.34 L 962.19 223.55 L 966.36 229.91 L 970.54 244.04 L 974.71 252.83 L 978.89 243.29 L 983.06 250.78 L 987.24 259.76 L 991.41 212.42 L 995.59 195.95 L 999.76 159.56 L 1003.94 164.33 L 1008.11 164.89 L 1012.29 167.89 L 1016.46 196.70 L 1020.64 203.62 L 1024.81 196.80 L 1028.99 200.91 L 1033.16 200.26 L 1037.34 220.46 L 1041.51 233.28 L 1045.69 207.09 L 1049.86 194.08 L 1054.03 199.60 L 1058.21 188.00 L 1062.38 212.42 L 1066.56 213.45 L 1070.73 213.64 L 1074.91 201.29 L 1079.08 188.38 L 1083.26 196.42 L 1087.43 192.02 L 1091.61 194.08 L 1095.78 192.77 L 1099.96 196.70 L 1104.13 196.98 L 1108.31 211.30 L 1112.48 180.80 L 1116.66 142.63 L 1120.83 144.40 L 1125.01 149.27 L 1129.18 153.29 L 1133.36 160.50 L 1137.53 165.83 L 1141.71 153.29 L 1145.88 146.74 L 1150.06 163.30 L 1154.23 164.14 L 1158.41 180.33 L 1162.58 145.15 L 1166.76 142.72 L 1170.93 160.96 L 1175.10 156.66 L 1179.28 184.54 L 1183.45 203.34 L 1187.63 207.37 L 1191.80 205.87 L 1195.98 200.35 L 1200.15 215.04 L 1204.33 203.62 L 1208.50 200.91 L 1212.68 184.54 L 1216.85 198.48 L 1221.03 203.62 L 1225.20 192.40 L 1229.38 222.80 L 1233.55 200.07 L 1237.73 182.58 L 1241.90 182.29 L 1246.08 183.60 L 1250.25 165.64 L 1254.43 181.27 L 1258.60 212.23 L 1262.78 198.39 L 1266.95 237.77 L 1271.13 263.97 L 1275.30 244.04 L 1279.48 275.66 L 1283.65 276.50 L 1287.83 310.37 L 1292.00 315.89" fill="none" stroke="#0f766e" stroke-width="2"  />
<path d="M 98.00 297.18 L 102.17 301.48 L 106.35 282.10 L 110.52 272.24 L 114.70 260.90 L 118.87 256.82 L 123.05 256.96 L 127.22 275.90 L 131.40 255.14 L 135.57 263.66 L 139.75 262.52 L 143.92 249.15 L 148.10 246.80 L 152.27 249.26 L 156.45 222.90 L 160.62 224.10 L 164.80 206.07 L 168.97 204.65 L 173.15 175.30 L 177.32 186.37 L 181.50 215.86 L 185.67 226.53 L 189.85 234.41 L 194.02 245.59 L 198.20 254.95 L 202.37 251.02 L 206.55 262.77 L 210.72 265.42 L 214.90 264.16 L 219.07 246.66 L 223.24 240.35 L 227.42 245.80 L 231.59 230.30 L 235.77 217.98 L 239.94 233.56 L 244.12 256.09 L 248.29 242.47 L 252.47 246.78 L 256.64 261.66 L 260.82 245.39 L 264.99 245.66 L 269.17 228.19 L 273.34 240.85 L 277.52 270.94 L 281.69 292.77 L 285.87 301.12 L 290.04 279.73 L 294.22 262.97 L 298.39 259.79 L 302.57 265.11 L 306.74 269.66 L 310.92 272.79 L 315.09 259.76 L 319.27 277.09 L 323.44 281.24 L 327.62 277.36 L 331.79 285.93 L 335.97 279.93 L 340.14 300.11 L 344.31 287.04 L 348.49 307.51 L 352.66 401.47 L 356.84 433.15 L 361.01 349.38 L 365.19 406.35 L 369.36 386.43 L 373.54 360.05 L 377.71 377.95 L 381.89 392.50 L 386.06 399.11 L 390.24 400.04 L 394.41 434.09 L 398.59 397.45 L 402.76 377.46 L 406.94 352.90 L 411.11 362.72 L 415.29 351.97 L 419.46 344.35 L 423.64 338.15 L 427.81 370.54 L 431.99 346.10 L 436.16 343.77 L 440.34 356.96 L 444.51 304.71 L 448.69 336.86 L 452.86 368.01 L 457.03 341.62 L 461.21 316.90 L 465.38 307.01 L 469.56 300.26 L 473.73 343.57 L 477.91 355.89 L 482.08 361.82 L 486.26 364.04 L 490.43 331.06 L 494.61 340.14 L 498.78 328.97 L 502.96 340.10 L 507.13 336.41 L 511.31 334.59 L 515.48 336.79 L 519.66 322.40 L 523.83 323.86 L 528.01 311.36 L 532.18 317.50 L 536.36 308.45 L 540.53 323.98 L 544.71 317.68 L 548.88 344.43 L 553.06 342.89 L 557.23 343.73 L 561.41 343.20 L 565.58 344.19 L 569.76 323.06 L 573.93 324.32 L 578.10 317.92 L 582.28 316.17 L 586.45 310.60 L 590.63 286.73 L 594.80 311.70 L 598.98 310.28 L 603.15 309.58 L 607.33 327.88 L 611.50 317.58 L 615.68 311.29 L 619.85 299.85 L 624.03 323.86 L 628.20 332.17 L 632.38 360.36 L 636.55 352.89 L 640.73 358.52 L 644.90 379.04 L 649.08 388.36 L 653.25 352.51 L 657.43 324.32 L 661.60 327.42 L 665.78 321.69 L 669.95 333.25 L 674.13 330.61 L 678.30 336.86 L 682.48 395.34 L 686.65 398.56 L 690.83 375.01 L 695.00 386.44 L 699.17 413.80 L 703.35 401.70 L 707.52 381.76 L 711.70 384.21 L 715.87 365.18 L 720.05 338.13 L 724.22 339.78 L 728.40 326.08 L 732.57 330.87 L 736.75 314.09 L 740.92 303.62 L 745.10 319.55 L 749.27 298.72 L 753.45 323.78 L 757.62 322.99 L 761.80 324.87 L 765.97 336.77 L 770.15 330.48 L 774.32 324.41 L 778.50 330.10 L 782.67 334.54 L 786.85 330.85 L 791.02 319.89 L 795.20 320.83 L 799.37 323.46 L 803.55 345.97 L 807.72 313.97 L 811.90 344.24 L 816.07 351.06 L 820.24 352.61 L 824.42 351.20 L 828.59 338.32 L 832.77 351.20 L 836.94 344.34 L 841.12 344.64 L 845.29 347.53 L 849.47 376.30 L 853.64 360.20 L 857.82 355.12 L 861.99 328.50 L 866.17 285.44 L 870.34 314.16 L 874.52 313.34 L 878.69 302.93 L 882.87 302.37 L 887.04 298.18 L 891.22 283.81 L 895.39 261.53 L 899.57 252.39 L 903.74 248.51 L 907.92 249.70 L 912.09 245.03 L 916.27 247.84 L 920.44 260.49 L 924.62 276.57 L 928.79 282.97 L 932.97 280.48 L 937.14 282.43 L 941.31 274.88 L 945.49 275.84 L 949.66 280.53 L 953.84 269.78 L 958.01 272.13 L 962.19 234.29 L 966.36 222.29 L 970.54 228.85 L 974.71 241.30 L 978.89 252.13 L 983.06 242.41 L 987.24 250.09 L 991.41 259.29 L 995.59 211.00 L 999.76 194.46 L 1003.94 157.33 L 1008.11 162.32 L 1012.29 162.99 L 1016.46 164.97 L 1020.64 194.98 L 1024.81 202.13 L 1028.99 195.23 L 1033.16 199.51 L 1037.34 200.72 L 1041.51 219.13 L 1045.69 232.28 L 1049.86 205.56 L 1054.03 192.34 L 1058.21 202.02 L 1062.38 186.45 L 1066.56 211.47 L 1070.73 212.56 L 1074.91 212.79 L 1079.08 202.11 L 1083.26 187.30 L 1087.43 195.56 L 1091.61 191.11 L 1095.78 193.25 L 1099.96 192.13 L 1104.13 195.88 L 1108.31 196.21 L 1112.48 211.15 L 1116.66 180.35 L 1120.83 141.37 L 1125.01 143.24 L 1129.18 148.27 L 1133.36 149.98 L 1137.53 159.63 L 1141.71 165.11 L 1145.88 152.34 L 1150.06 145.69 L 1154.23 161.28 L 1158.41 163.49 L 1162.58 180.05 L 1166.76 144.12 L 1170.93 141.68 L 1175.10 159.36 L 1179.28 156.06 L 1183.45 184.55 L 1187.63 203.73 L 1191.80 207.81 L 1195.98 204.13 L 1200.15 200.74 L 1204.33 215.70 L 1208.50 204.01 L 1212.68 201.22 L 1216.85 182.50 L 1221.03 198.42 L 1225.20 203.67 L 1229.38 192.20 L 1233.55 223.24 L 1237.73 199.78 L 1241.90 182.50 L 1246.08 182.22 L 1250.25 183.55 L 1254.43 163.58 L 1258.60 180.83 L 1262.78 212.46 L 1266.95 198.30 L 1271.13 238.50 L 1275.30 263.83 L 1279.48 245.27 L 1283.65 277.46 L 1287.83 278.22 L 1292.00 312.66" fill="none" stroke="#1d4ed8" stroke-width="2"  />
  </g>
  <g>
    <text x="54" y="538" fill="#1f2937" font-size="16" font-weight="700">B. 绝对误差（越低越好）</text>
    <line x1="98" y1="558" x2="124" y2="558" stroke="#1d4ed8" stroke-width="2"  />
      <text x="130" y="562" fill="#24312e" font-size="12">持仓分段误差</text>
    <line x1="98" y1="560.00" x2="1292" y2="560.00" stroke="#d7e3df" stroke-width="1" />
      <text x="90" y="564.00" text-anchor="end" fill="#5b6b68" font-size="11">6.41%</text>
<line x1="98" y1="630.00" x2="1292" y2="630.00" stroke="#d7e3df" stroke-width="1" />
      <text x="90" y="634.00" text-anchor="end" fill="#5b6b68" font-size="11">4.81%</text>
<line x1="98" y1="700.00" x2="1292" y2="700.00" stroke="#d7e3df" stroke-width="1" />
      <text x="90" y="704.00" text-anchor="end" fill="#5b6b68" font-size="11">3.21%</text>
<line x1="98" y1="770.00" x2="1292" y2="770.00" stroke="#d7e3df" stroke-width="1" />
      <text x="90" y="774.00" text-anchor="end" fill="#5b6b68" font-size="11">1.60%</text>
<line x1="98" y1="840.00" x2="1292" y2="840.00" stroke="#d7e3df" stroke-width="1" />
      <text x="90" y="844.00" text-anchor="end" fill="#5b6b68" font-size="11">0.00%</text>
    <line x1="98.00" y1="560" x2="98.00" y2="840" stroke="#eef3f1" stroke-width="1" />
      <text x="98.00" y="868" text-anchor="middle" fill="#5b6b68" font-size="11">25-01-02</text>
<line x1="290.04" y1="560" x2="290.04" y2="840" stroke="#eef3f1" stroke-width="1" />
      <text x="290.04" y="868" text-anchor="middle" fill="#5b6b68" font-size="11">25-03-17</text>
<line x1="482.08" y1="560" x2="482.08" y2="840" stroke="#eef3f1" stroke-width="1" />
      <text x="482.08" y="868" text-anchor="middle" fill="#5b6b68" font-size="11">25-05-26</text>
<line x1="695.00" y1="560" x2="695.00" y2="840" stroke="#eef3f1" stroke-width="1" />
      <text x="695.00" y="868" text-anchor="middle" fill="#5b6b68" font-size="11">25-08-06</text>
<line x1="907.92" y1="560" x2="907.92" y2="840" stroke="#eef3f1" stroke-width="1" />
      <text x="907.92" y="868" text-anchor="middle" fill="#5b6b68" font-size="11">25-10-24</text>
<line x1="1099.96" y1="560" x2="1099.96" y2="840" stroke="#eef3f1" stroke-width="1" />
      <text x="1099.96" y="868" text-anchor="middle" fill="#5b6b68" font-size="11">25-12-29</text>
<line x1="1292.00" y1="560" x2="1292.00" y2="840" stroke="#eef3f1" stroke-width="1" />
      <text x="1292.00" y="868" text-anchor="middle" fill="#5b6b68" font-size="11">26-03-13</text>
    <line x1="1112.48" y1="560" x2="1112.48" y2="840" stroke="#f59e0b" stroke-width="1.4" stroke-dasharray="4 4" />
       <text x="1118.48" y="552" fill="#a16207" font-size="11">验证起点</text>
    <path d="M 98.00 828.55 L 102.17 790.52 L 106.35 816.83 L 110.52 813.80 L 114.70 832.06 L 118.87 837.59 L 123.05 790.68 L 127.22 789.51 L 131.40 818.24 L 135.57 837.73 L 139.75 808.18 L 143.92 838.98 L 148.10 832.70 L 152.27 778.25 L 156.45 834.76 L 160.62 799.60 L 164.80 837.78 L 168.97 781.47 L 173.15 810.55 L 177.32 767.01 L 181.50 806.32 L 185.67 820.00 L 189.85 812.30 L 194.02 817.16 L 198.20 830.14 L 202.37 805.59 L 206.55 834.21 L 210.72 836.14 L 214.90 797.03 L 219.07 825.05 L 223.24 822.34 L 227.42 802.27 L 231.59 810.86 L 235.77 801.81 L 239.94 785.21 L 244.12 814.19 L 248.29 829.89 L 252.47 804.20 L 256.64 799.54 L 260.82 839.64 L 264.99 803.52 L 269.17 808.36 L 273.34 765.76 L 277.52 786.78 L 281.69 821.16 L 285.87 788.85 L 290.04 797.01 L 294.22 831.08 L 298.39 827.95 L 302.57 829.99 L 306.74 825.18 L 310.92 805.96 L 315.09 798.90 L 319.27 832.07 L 323.44 828.11 L 327.62 808.32 L 331.79 822.18 L 335.97 792.33 L 340.14 804.27 L 344.31 776.37 L 348.49 590.00 L 352.66 758.19 L 356.84 619.97 L 361.01 689.06 L 365.19 773.28 L 369.36 768.47 L 373.54 795.13 L 377.71 804.38 L 381.89 825.82 L 386.06 837.35 L 390.24 749.52 L 394.41 739.92 L 398.59 786.68 L 402.76 776.81 L 406.94 827.82 L 411.11 812.83 L 415.29 821.49 L 419.46 813.96 L 423.64 752.02 L 427.81 779.23 L 431.99 837.08 L 436.16 823.32 L 440.34 709.30 L 444.51 755.41 L 448.69 758.22 L 452.86 771.88 L 457.03 773.42 L 461.21 816.86 L 465.38 825.21 L 469.56 726.84 L 473.73 808.22 L 477.91 824.81 L 482.08 835.03 L 486.26 755.42 L 490.43 815.88 L 494.61 812.08 L 498.78 811.91 L 502.96 830.82 L 507.13 835.80 L 511.31 833.89 L 515.48 802.98 L 519.66 835.05 L 523.83 809.74 L 528.01 822.80 L 532.18 818.64 L 536.36 800.26 L 540.53 824.72 L 544.71 770.60 L 548.88 835.59 L 553.06 838.18 L 557.23 839.85 L 561.41 837.78 L 565.58 786.28 L 569.76 836.06 L 573.93 824.58 L 578.10 836.46 L 582.28 826.81 L 586.45 781.96 L 590.63 775.07 L 594.80 837.31 L 598.98 839.53 L 603.15 791.71 L 607.33 814.92 L 611.50 825.61 L 615.68 813.11 L 619.85 780.76 L 624.03 817.47 L 628.20 766.21 L 632.38 820.26 L 636.55 825.58 L 640.73 790.04 L 644.90 816.41 L 649.08 746.47 L 653.25 769.34 L 657.43 830.10 L 661.60 818.52 L 665.78 807.69 L 669.95 835.51 L 674.13 821.82 L 678.30 683.75 L 682.48 839.20 L 686.65 776.11 L 690.83 811.16 L 695.00 768.67 L 699.17 804.95 L 703.35 784.45 L 707.52 834.51 L 711.70 789.67 L 715.87 771.09 L 720.05 834.33 L 724.22 801.97 L 728.40 825.42 L 732.57 799.84 L 736.75 816.67 L 740.92 796.59 L 745.10 783.15 L 749.27 771.70 L 753.45 838.64 L 757.62 831.99 L 761.80 806.62 L 765.97 813.34 L 770.15 827.19 L 774.32 822.79 L 778.50 826.35 L 782.67 832.65 L 786.85 803.48 L 791.02 834.64 L 795.20 830.53 L 799.37 779.77 L 803.55 760.84 L 807.72 769.35 L 811.90 820.61 L 816.07 834.58 L 820.24 837.66 L 824.42 808.45 L 828.59 815.94 L 832.77 823.51 L 836.94 837.81 L 841.12 831.27 L 845.29 763.80 L 849.47 790.30 L 853.64 827.28 L 857.82 765.67 L 861.99 733.50 L 866.17 760.29 L 870.34 838.44 L 874.52 814.53 L 878.69 839.65 L 882.87 830.60 L 887.04 809.35 L 891.22 786.38 L 895.39 819.61 L 899.57 832.77 L 903.74 834.86 L 907.92 839.19 L 912.09 830.88 L 916.27 807.08 L 920.44 799.09 L 924.62 823.65 L 928.79 837.20 L 932.97 834.93 L 937.14 821.61 L 941.31 837.10 L 945.49 827.97 L 949.66 821.01 L 953.84 833.46 L 958.01 749.75 L 962.19 813.83 L 966.36 821.37 L 970.54 802.56 L 974.71 811.42 L 978.89 818.23 L 983.06 819.30 L 987.24 815.96 L 991.41 726.48 L 995.59 803.89 L 999.76 757.88 L 1003.94 823.48 L 1008.11 833.92 L 1012.29 828.42 L 1016.46 763.80 L 1020.64 819.16 L 1024.81 827.18 L 1028.99 826.32 L 1033.16 838.19 L 1037.34 791.98 L 1041.51 805.31 L 1045.69 779.16 L 1049.86 812.49 L 1054.03 822.54 L 1058.21 806.50 L 1062.38 777.11 L 1066.56 835.21 L 1070.73 837.40 L 1074.91 812.30 L 1079.08 807.18 L 1083.26 818.10 L 1087.43 831.52 L 1091.61 832.87 L 1095.78 838.85 L 1099.96 829.04 L 1104.13 837.36 L 1108.31 803.47 L 1112.48 767.75 L 1116.66 752.05 L 1120.83 832.92 L 1125.01 825.90 L 1129.18 828.21 L 1133.36 815.25 L 1137.53 825.36 L 1141.71 812.28 L 1145.88 826.93 L 1150.06 798.47 L 1154.23 833.25 L 1158.41 799.93 L 1162.58 758.53 L 1166.76 836.74 L 1170.93 794.60 L 1175.10 833.66 L 1179.28 772.07 L 1183.45 794.70 L 1187.63 831.23 L 1191.80 835.31 L 1195.98 830.90 L 1200.15 805.32 L 1204.33 810.89 L 1208.50 832.54 L 1212.68 800.22 L 1216.85 801.61 L 1221.03 827.46 L 1225.20 813.00 L 1229.38 765.45 L 1233.55 784.27 L 1237.73 799.02 L 1241.90 839.50 L 1246.08 836.69 L 1250.25 797.73 L 1254.43 797.89 L 1258.60 763.96 L 1262.78 806.18 L 1266.95 743.05 L 1271.13 776.51 L 1275.30 791.23 L 1279.48 763.72 L 1283.65 837.61 L 1287.83 757.65 L 1292.00 831.69" fill="none" stroke="#1d4ed8" stroke-width="2"  />
  </g>
</svg>