<?xml version="1.0" encoding="UTF-8"?>
<svg xmlns="http://www.w3.org/2000/svg" width="1360" height="980" viewBox="0 0 1360 980">
  <defs>
    <linearGradient id="bg" x1="0" y1="0" x2="1" y2="1">
      <stop offset="0%" stop-color="#f4efe6" />
      <stop offset="100%" stop-color="#eef5f2" />
    </linearGradient>
  </defs>
  <rect x="0" y="0" width="1360" height="980" fill="url(#bg)" />
  <text x="46" y="36" fill="#1f2937" font-size="31" font-weight="700">161128 离线研究图（持仓逐日估值版）</text>
  <text x="46" y="66" fill="#5b6b68" font-size="13">历史前十大持仓 + 持仓逐日涨跌幅 + USDCNY；双目标 lambda=0.10；披露期数 29；覆盖率均值 92.4%</text>
  <g>
    <text x="54" y="110" fill="#1f2937" font-size="16" font-weight="700">A. 净值拟合（同日对齐，无平移）</text>
    <line x1="98" y1="130" x2="124" y2="130" stroke="#0f766e" stroke-width="2"  />
      <text x="130" y="134" fill="#24312e" font-size="12">真实净值</text>
<line x1="313" y1="130" x2="339" y2="130" stroke="#1d4ed8" stroke-width="2"  />
      <text x="345" y="134" fill="#24312e" font-size="12">持仓分段估值</text>
    <line x1="98" y1="132.00" x2="1292" y2="132.00" stroke="#d7e3df" stroke-width="1" />
      <text x="90" y="136.00" text-anchor="end" fill="#5b6b68" font-size="11">6.224</text>
<line x1="98" y1="209.50" x2="1292" y2="209.50" stroke="#d7e3df" stroke-width="1" />
      <text x="90" y="213.50" text-anchor="end" fill="#5b6b68" font-size="11">5.604</text>
<line x1="98" y1="287.00" x2="1292" y2="287.00" stroke="#d7e3df" stroke-width="1" />
      <text x="90" y="291.00" text-anchor="end" fill="#5b6b68" font-size="11">4.983</text>
<line x1="98" y1="364.50" x2="1292" y2="364.50" stroke="#d7e3df" stroke-width="1" />
      <text x="90" y="368.50" text-anchor="end" fill="#5b6b68" font-size="11">4.362</text>
<line x1="98" y1="442.00" x2="1292" y2="442.00" stroke="#d7e3df" stroke-width="1" />
      <text x="90" y="446.00" text-anchor="end" fill="#5b6b68" font-size="11">3.741</text>
    <line x1="98.00" y1="132" x2="98.00" y2="442" stroke="#eef3f1" stroke-width="1" />
      <text x="98.00" y="470" text-anchor="middle" fill="#5b6b68" font-size="11">25-01-02</text>
<line x1="290.04" y1="132" x2="290.04" y2="442" stroke="#eef3f1" stroke-width="1" />
      <text x="290.04" y="470" text-anchor="middle" fill="#5b6b68" font-size="11">25-03-17</text>
<line x1="482.08" y1="132" x2="482.08" y2="442" stroke="#eef3f1" stroke-width="1" />
      <text x="482.08" y="470" text-anchor="middle" fill="#5b6b68" font-size="11">25-05-26</text>
<line x1="695.00" y1="132" x2="695.00" y2="442" stroke="#eef3f1" stroke-width="1" />
      <text x="695.00" y="470" text-anchor="middle" fill="#5b6b68" font-size="11">25-08-06</text>
<line x1="907.92" y1="132" x2="907.92" y2="442" stroke="#eef3f1" stroke-width="1" />
      <text x="907.92" y="470" text-anchor="middle" fill="#5b6b68" font-size="11">25-10-24</text>
<line x1="1099.96" y1="132" x2="1099.96" y2="442" stroke="#eef3f1" stroke-width="1" />
      <text x="1099.96" y="470" text-anchor="middle" fill="#5b6b68" font-size="11">25-12-29</text>
<line x1="1292.00" y1="132" x2="1292.00" y2="442" stroke="#eef3f1" stroke-width="1" />
      <text x="1292.00" y="470" text-anchor="middle" fill="#5b6b68" font-size="11">26-03-13</text>
    <line x1="1112.48" y1="132" x2="1112.48" y2="442" stroke="#f59e0b" stroke-width="1.4" stroke-dasharray="4 4" />
       <text x="1118.48" y="124" fill="#a16207" font-size="11">验证起点</text>
    <path d="M 98.00 301.58 L 102.17 292.20 L 106.35 283.88 L 110.52 298.01 L 114.70 297.43 L 118.87 297.45 L 123.05 310.27 L 127.22 315.23 L 131.40 315.87 L 135.57 303.32 L 139.75 310.73 L 143.92 301.30 L 148.10 301.38 L 152.27 300.67 L 156.45 286.48 L 160.62 285.71 L 164.80 292.13 L 168.97 324.71 L 173.15 312.04 L 177.32 308.37 L 181.50 314.18 L 185.67 305.80 L 189.85 304.74 L 194.02 305.05 L 198.20 296.28 L 202.37 292.92 L 206.55 293.01 L 210.72 289.85 L 214.90 288.95 L 219.07 289.09 L 223.24 303.64 L 227.42 311.72 L 231.59 319.47 L 235.77 314.50 L 239.94 335.77 L 244.12 326.50 L 248.29 345.90 L 252.47 345.90 L 256.64 338.69 L 260.82 353.17 L 264.99 345.54 L 269.17 368.51 L 273.34 370.43 L 277.52 362.80 L 281.69 371.82 L 285.87 356.29 L 290.04 355.73 L 294.22 364.09 L 298.39 357.01 L 302.57 359.12 L 306.74 356.50 L 310.92 347.39 L 315.09 345.78 L 319.27 359.15 L 323.44 362.98 L 327.62 375.66 L 331.79 375.34 L 335.97 370.61 L 340.14 367.62 L 344.31 402.03 L 348.49 430.14 L 352.66 439.65 L 356.84 376.30 L 361.01 399.30 L 365.19 387.04 L 369.36 383.80 L 373.54 382.23 L 377.71 401.66 L 381.89 405.15 L 386.06 405.28 L 390.24 418.36 L 394.41 406.85 L 398.59 392.75 L 402.76 375.62 L 406.94 367.69 L 411.11 369.40 L 415.29 367.15 L 419.46 365.11 L 423.64 355.53 L 427.81 350.83 L 431.99 345.84 L 436.16 345.68 L 440.34 320.79 L 444.51 308.90 L 448.69 303.74 L 452.86 303.65 L 457.03 303.16 L 461.21 303.70 L 465.38 306.21 L 469.56 316.35 L 473.73 315.94 L 477.91 323.39 L 482.08 324.14 L 486.26 309.63 L 490.43 311.46 L 494.61 308.04 L 498.78 310.97 L 502.96 297.33 L 507.13 295.84 L 511.31 298.36 L 515.48 294.01 L 519.66 292.52 L 523.83 289.97 L 528.01 291.85 L 532.18 286.11 L 536.36 295.24 L 540.53 286.24 L 544.71 290.91 L 548.88 288.68 L 553.06 288.98 L 557.23 290.77 L 561.41 284.76 L 565.58 275.68 L 569.76 268.53 L 573.93 264.84 L 578.10 264.13 L 582.28 258.56 L 586.45 265.99 L 590.63 257.98 L 594.80 250.21 L 598.98 250.12 L 603.15 255.49 L 607.33 252.87 L 611.50 247.01 L 615.68 248.05 L 619.85 249.76 L 624.03 251.16 L 628.20 243.29 L 632.38 241.38 L 636.55 236.47 L 640.73 236.72 L 644.90 235.67 L 649.08 243.11 L 653.25 238.91 L 657.43 234.98 L 661.60 233.17 L 665.78 227.89 L 669.95 228.87 L 674.13 226.79 L 678.30 228.30 L 682.48 241.67 L 686.65 229.05 L 690.83 235.17 L 695.00 226.22 L 699.17 224.18 L 703.35 215.97 L 707.52 219.37 L 711.70 210.14 L 715.87 212.16 L 720.05 212.55 L 724.22 217.29 L 728.40 217.05 L 732.57 229.02 L 736.75 233.90 L 740.92 237.13 L 745.10 228.44 L 749.27 230.54 L 753.45 227.02 L 757.62 224.71 L 761.80 220.93 L 765.97 231.87 L 770.15 231.55 L 774.32 237.59 L 778.50 232.20 L 782.67 229.16 L 786.85 230.39 L 791.02 226.47 L 795.20 226.58 L 799.37 214.96 L 803.55 214.04 L 807.72 211.24 L 811.90 205.52 L 816.07 209.53 L 820.24 214.16 L 824.42 204.68 L 828.59 196.55 L 832.77 185.30 L 836.94 193.42 L 841.12 196.70 L 845.29 196.28 L 849.47 194.55 L 853.64 191.88 L 857.82 186.64 L 861.99 170.34 L 866.17 198.31 L 870.34 182.40 L 874.52 192.79 L 878.69 188.25 L 882.87 187.86 L 887.04 185.44 L 891.22 177.53 L 895.39 178.98 L 899.57 184.43 L 903.74 178.22 L 907.92 167.58 L 912.09 154.13 L 916.27 143.05 L 920.44 135.87 L 924.62 145.94 L 928.79 147.77 L 932.97 145.16 L 937.14 161.13 L 941.31 161.19 L 945.49 175.32 L 949.66 177.80 L 953.84 159.59 L 958.01 164.35 L 962.19 163.05 L 966.36 179.06 L 970.54 174.56 L 974.71 184.32 L 978.89 195.22 L 983.06 189.07 L 987.24 206.55 L 991.41 206.04 L 995.59 189.77 L 999.76 189.85 L 1003.94 181.67 L 1008.11 181.85 L 1012.29 178.12 L 1016.46 178.15 L 1020.64 172.02 L 1024.81 174.94 L 1028.99 172.49 L 1033.16 169.28 L 1037.34 163.30 L 1041.51 162.03 L 1045.69 161.76 L 1049.86 166.23 L 1054.03 186.24 L 1058.21 192.91 L 1062.38 191.37 L 1066.56 206.30 L 1070.73 196.88 L 1074.91 184.02 L 1079.08 181.00 L 1083.26 175.22 L 1087.43 174.26 L 1091.61 175.01 L 1095.78 174.05 L 1099.96 177.45 L 1104.13 179.10 L 1108.31 185.53 L 1112.48 186.50 L 1116.66 182.38 L 1120.83 181.69 L 1125.01 191.63 L 1129.18 185.62 L 1133.36 183.61 L 1137.53 184.58 L 1141.71 194.12 L 1145.88 191.38 L 1150.06 190.73 L 1154.23 191.03 L 1158.41 210.90 L 1162.58 204.19 L 1166.76 199.50 L 1170.93 196.84 L 1175.10 192.24 L 1179.28 182.82 L 1183.45 179.74 L 1187.63 191.75 L 1191.80 201.54 L 1195.98 198.22 L 1200.15 213.24 L 1204.33 226.29 L 1208.50 236.88 L 1212.68 211.82 L 1216.85 202.40 L 1221.03 206.82 L 1225.20 205.60 L 1229.38 222.71 L 1233.55 226.28 L 1237.73 216.36 L 1241.90 205.71 L 1246.08 218.21 L 1250.25 231.39 L 1254.43 225.99 L 1258.60 234.02 L 1262.78 225.52 L 1266.95 224.37 L 1271.13 235.90 L 1275.30 223.67 L 1279.48 224.80 L 1283.65 223.30 L 1287.83 234.05 L 1292.00 241.55" fill="none" stroke="#0f766e" stroke-width="2"  />
<path d="M 98.00 300.83 L 102.17 291.15 L 106.35 286.93 L 110.52 298.64 L 114.70 296.36 L 118.87 297.72 L 123.05 298.05 L 127.22 311.83 L 131.40 315.48 L 135.57 304.01 L 139.75 307.40 L 143.92 302.46 L 148.10 302.52 L 152.27 302.93 L 156.45 288.59 L 160.62 285.12 L 164.80 293.17 L 168.97 331.86 L 173.15 305.81 L 177.32 308.90 L 181.50 311.34 L 185.67 306.78 L 189.85 304.55 L 194.02 304.18 L 198.20 300.43 L 202.37 294.80 L 206.55 293.28 L 210.72 292.98 L 214.90 288.12 L 219.07 289.22 L 223.24 301.76 L 227.42 308.48 L 231.59 314.94 L 235.77 316.37 L 239.94 334.08 L 244.12 326.72 L 248.29 351.92 L 252.47 345.97 L 256.64 341.96 L 260.82 352.00 L 264.99 348.97 L 269.17 373.93 L 273.34 369.45 L 277.52 362.94 L 281.69 370.17 L 285.87 358.41 L 290.04 354.72 L 294.22 362.99 L 298.39 357.73 L 302.57 357.68 L 306.74 356.94 L 310.92 348.93 L 315.09 345.99 L 319.27 356.34 L 323.44 360.64 L 327.62 373.54 L 331.79 375.09 L 335.97 371.69 L 340.14 368.80 L 344.31 398.26 L 348.49 437.53 L 352.66 435.71 L 356.84 385.77 L 361.01 398.60 L 365.19 389.33 L 369.36 383.26 L 373.54 382.12 L 377.71 400.63 L 381.89 403.64 L 386.06 405.52 L 390.24 404.34 L 394.41 407.50 L 398.59 395.49 L 402.76 377.43 L 406.94 367.51 L 411.11 367.82 L 415.29 368.41 L 419.46 365.77 L 423.64 356.95 L 427.81 351.92 L 431.99 347.41 L 436.16 345.38 L 440.34 312.68 L 444.51 308.58 L 448.69 304.52 L 452.86 303.07 L 457.03 303.02 L 461.21 302.94 L 465.38 304.28 L 469.56 314.90 L 473.73 315.01 L 477.91 323.04 L 482.08 324.42 L 486.26 324.19 L 490.43 309.61 L 494.61 308.13 L 498.78 308.39 L 502.96 296.03 L 507.13 295.92 L 511.31 297.09 L 515.48 295.22 L 519.66 293.73 L 523.83 290.48 L 528.01 289.96 L 532.18 287.47 L 536.36 289.61 L 540.53 290.32 L 544.71 287.80 L 548.88 288.54 L 553.06 289.11 L 557.23 289.63 L 561.41 287.04 L 565.58 279.74 L 569.76 270.52 L 573.93 265.88 L 578.10 263.74 L 582.28 260.32 L 586.45 262.35 L 590.63 257.89 L 594.80 253.29 L 598.98 250.46 L 603.15 250.02 L 607.33 253.84 L 611.50 248.05 L 615.68 246.67 L 619.85 248.20 L 624.03 250.21 L 628.20 243.08 L 632.38 241.42 L 636.55 237.59 L 640.73 236.35 L 644.90 236.04 L 649.08 239.00 L 653.25 240.16 L 657.43 236.04 L 661.60 233.22 L 665.78 230.49 L 669.95 228.29 L 674.13 226.46 L 678.30 225.69 L 682.48 237.94 L 686.65 233.11 L 690.83 230.58 L 695.00 227.08 L 699.17 224.15 L 703.35 217.16 L 707.52 216.59 L 711.70 214.64 L 715.87 211.28 L 720.05 211.51 L 724.22 213.93 L 728.40 216.43 L 732.57 227.09 L 736.75 231.19 L 740.92 234.59 L 745.10 232.68 L 749.27 228.39 L 753.45 228.12 L 757.62 224.96 L 761.80 223.23 L 765.97 229.45 L 770.15 232.51 L 774.32 231.73 L 778.50 234.12 L 782.67 230.12 L 786.85 229.80 L 791.02 227.79 L 795.20 226.26 L 799.37 215.25 L 803.55 214.12 L 807.72 211.17 L 811.90 208.05 L 816.07 207.45 L 820.24 212.12 L 824.42 209.90 L 828.59 197.37 L 832.77 185.23 L 836.94 189.10 L 841.12 194.08 L 845.29 195.70 L 849.47 194.99 L 853.64 192.61 L 857.82 188.25 L 861.99 174.88 L 866.17 193.09 L 870.34 175.98 L 874.52 190.50 L 878.69 191.43 L 882.87 187.15 L 887.04 185.69 L 891.22 180.76 L 895.39 177.87 L 899.57 180.54 L 903.74 181.52 L 907.92 170.15 L 912.09 156.71 L 916.27 141.73 L 920.44 138.63 L 924.62 140.39 L 928.79 147.05 L 932.97 145.09 L 937.14 156.62 L 941.31 162.14 L 945.49 172.94 L 949.66 175.90 L 953.84 154.31 L 958.01 160.90 L 962.19 163.70 L 966.36 177.57 L 970.54 175.44 L 974.71 179.01 L 978.89 192.90 L 983.06 191.56 L 987.24 202.07 L 991.41 207.05 L 995.59 189.08 L 999.76 190.61 L 1003.94 185.69 L 1008.11 182.25 L 1012.29 182.72 L 1016.46 177.75 L 1020.64 175.19 L 1024.81 174.59 L 1028.99 172.02 L 1033.16 170.84 L 1037.34 165.19 L 1041.51 162.50 L 1045.69 162.40 L 1049.86 163.70 L 1054.03 180.14 L 1058.21 190.45 L 1062.38 191.25 L 1066.56 201.77 L 1070.73 202.00 L 1074.91 186.56 L 1079.08 182.79 L 1083.26 177.03 L 1087.43 174.49 L 1091.61 174.81 L 1095.78 175.49 L 1099.96 175.59 L 1104.13 178.00 L 1108.31 180.92 L 1112.48 188.65 L 1116.66 185.51 L 1120.83 180.37 L 1125.01 189.22 L 1129.18 188.82 L 1133.36 184.37 L 1137.53 183.97 L 1141.71 192.88 L 1145.88 192.90 L 1150.06 190.69 L 1154.23 191.50 L 1158.41 191.72 L 1162.58 209.26 L 1166.76 200.88 L 1170.93 195.58 L 1175.10 192.68 L 1179.28 187.40 L 1183.45 181.66 L 1187.63 195.73 L 1191.80 192.09 L 1195.98 201.87 L 1200.15 213.26 L 1204.33 216.43 L 1208.50 239.40 L 1212.68 211.63 L 1216.85 203.84 L 1221.03 204.17 L 1225.20 207.96 L 1229.38 222.32 L 1233.55 225.91 L 1237.73 222.77 L 1241.90 206.43 L 1246.08 216.79 L 1250.25 231.73 L 1254.43 222.98 L 1258.60 225.54 L 1262.78 230.76 L 1266.95 222.66 L 1271.13 227.93 L 1275.30 230.10 L 1279.48 225.31 L 1283.65 223.41 L 1287.83 230.78 L 1292.00 241.85" fill="none" stroke="#1d4ed8" stroke-width="2"  />
  </g>
  <g>
    <text x="54" y="538" fill="#1f2937" font-size="16" font-weight="700">B. 绝对误差（越低越好）</text>
    <line x1="98" y1="558" x2="124" y2="558" stroke="#1d4ed8" stroke-width="2"  />
      <text x="130" y="562" fill="#24312e" font-size="12">持仓分段误差</text>
    <line x1="98" y1="560.00" x2="1292" y2="560.00" stroke="#d7e3df" stroke-width="1" />
      <text x="90" y="564.00" text-anchor="end" fill="#5b6b68" font-size="11">3.20%</text>
<line x1="98" y1="630.00" x2="1292" y2="630.00" stroke="#d7e3df" stroke-width="1" />
      <text x="90" y="634.00" text-anchor="end" fill="#5b6b68" font-size="11">2.40%</text>
<line x1="98" y1="700.00" x2="1292" y2="700.00" stroke="#d7e3df" stroke-width="1" />
      <text x="90" y="704.00" text-anchor="end" fill="#5b6b68" font-size="11">1.60%</text>
<line x1="98" y1="770.00" x2="1292" y2="770.00" stroke="#d7e3df" stroke-width="1" />
      <text x="90" y="774.00" text-anchor="end" fill="#5b6b68" font-size="11">0.80%</text>
<line x1="98" y1="840.00" x2="1292" y2="840.00" stroke="#d7e3df" stroke-width="1" />
      <text x="90" y="844.00" text-anchor="end" fill="#5b6b68" font-size="11">0.00%</text>
    <line x1="98.00" y1="560" x2="98.00" y2="840" stroke="#eef3f1" stroke-width="1" />
      <text x="98.00" y="868" text-anchor="middle" fill="#5b6b68" font-size="11">25-01-02</text>
<line x1="290.04" y1="560" x2="290.04" y2="840" stroke="#eef3f1" stroke-width="1" />
      <text x="290.04" y="868" text-anchor="middle" fill="#5b6b68" font-size="11">25-03-17</text>
<line x1="482.08" y1="560" x2="482.08" y2="840" stroke="#eef3f1" stroke-width="1" />
      <text x="482.08" y="868" text-anchor="middle" fill="#5b6b68" font-size="11">25-05-26</text>
<line x1="695.00" y1="560" x2="695.00" y2="840" stroke="#eef3f1" stroke-width="1" />
      <text x="695.00" y="868" text-anchor="middle" fill="#5b6b68" font-size="11">25-08-06</text>
<line x1="907.92" y1="560" x2="907.92" y2="840" stroke="#eef3f1" stroke-width="1" />
      <text x="907.92" y="868" text-anchor="middle" fill="#5b6b68" font-size="11">25-10-24</text>
<line x1="1099.96" y1="560" x2="1099.96" y2="840" stroke="#eef3f1" stroke-width="1" />
      <text x="1099.96" y="868" text-anchor="middle" fill="#5b6b68" font-size="11">25-12-29</text>
<line x1="1292.00" y1="560" x2="1292.00" y2="840" stroke="#eef3f1" stroke-width="1" />
      <text x="1292.00" y="868" text-anchor="middle" fill="#5b6b68" font-size="11">26-03-13</text>
    <line x1="1112.48" y1="560" x2="1112.48" y2="840" stroke="#f59e0b" stroke-width="1.4" stroke-dasharray="4 4" />
       <text x="1118.48" y="552" fill="#a16207" font-size="11">验证起点</text>
    <path d="M 98.00 829.19 L 102.17 825.16 L 106.35 797.30 L 110.52 830.98 L 114.70 824.71 L 118.87 836.12 L 123.05 661.48 L 127.22 789.93 L 131.40 834.20 L 135.57 830.03 L 139.75 791.29 L 143.92 823.20 L 148.10 823.56 L 152.27 807.58 L 156.45 810.32 L 160.62 831.82 L 164.80 825.34 L 168.97 732.94 L 173.15 748.60 L 177.32 832.39 L 181.50 798.25 L 185.67 825.76 L 189.85 837.27 L 194.02 827.41 L 198.20 780.65 L 202.37 813.31 L 206.55 836.14 L 210.72 795.84 L 214.90 828.23 L 219.07 838.12 L 223.24 812.83 L 227.42 792.54 L 231.59 772.79 L 235.77 812.48 L 239.94 814.22 L 244.12 836.65 L 248.29 746.49 L 252.47 838.97 L 256.64 789.85 L 260.82 821.64 L 264.99 786.75 L 269.17 752.20 L 273.34 824.10 L 277.52 837.91 L 281.69 813.20 L 285.87 806.40 L 290.04 824.07 L 294.22 822.33 L 298.39 828.70 L 302.57 817.01 L 306.74 833.02 L 310.92 816.01 L 315.09 836.80 L 319.27 795.30 L 323.44 802.52 L 327.62 805.22 L 331.79 836.00 L 335.97 822.35 L 340.14 820.98 L 344.31 774.93 L 348.49 704.96 L 352.66 766.50 L 356.84 684.34 L 361.01 827.88 L 365.19 801.69 L 369.36 831.06 L 373.54 838.18 L 377.71 822.32 L 381.89 813.71 L 386.06 835.75 L 390.24 590.00 L 394.41 828.76 L 398.59 793.60 L 402.76 810.33 L 406.94 837.23 L 411.11 814.44 L 415.29 819.67 L 419.46 829.52 L 423.64 817.54 L 427.81 822.96 L 431.99 815.69 L 436.16 835.27 L 440.34 719.32 L 444.51 835.44 L 448.69 828.80 L 452.86 831.51 L 457.03 838.01 L 461.21 828.99 L 465.38 811.88 L 469.56 818.65 L 473.73 826.27 L 477.91 834.87 L 482.08 835.73 L 486.26 627.52 L 490.43 813.05 L 494.61 838.59 L 498.78 802.25 L 502.96 821.48 L 507.13 838.92 L 511.31 821.71 L 515.48 822.71 L 519.66 822.80 L 523.83 832.88 L 528.01 813.30 L 532.18 820.90 L 536.36 759.67 L 540.53 782.79 L 544.71 795.94 L 548.88 838.03 L 553.06 838.10 L 557.23 823.78 L 561.41 807.94 L 565.58 783.97 L 569.76 812.87 L 573.93 825.79 L 578.10 834.82 L 582.28 816.36 L 586.45 790.55 L 590.63 838.78 L 594.80 799.10 L 598.98 835.57 L 603.15 766.85 L 607.33 827.01 L 611.50 826.33 L 615.68 821.70 L 619.85 819.26 L 624.03 827.43 L 628.20 837.15 L 632.38 839.57 L 636.55 825.35 L 640.73 835.25 L 644.90 835.18 L 649.08 786.07 L 653.25 823.73 L 657.43 826.21 L 661.60 839.33 L 665.78 806.58 L 669.95 832.54 L 674.13 835.72 L 678.30 806.38 L 682.48 791.04 L 686.65 787.80 L 690.83 780.44 L 695.00 829.02 L 699.17 839.53 L 703.35 825.05 L 707.52 804.78 L 711.70 783.65 L 715.87 828.94 L 720.05 826.88 L 724.22 797.45 L 728.40 832.22 L 732.57 815.20 L 736.75 804.91 L 740.92 806.94 L 745.10 785.49 L 749.27 812.35 L 753.45 825.83 L 757.62 836.80 L 761.80 810.69 L 765.97 808.73 L 770.15 827.53 L 774.32 763.61 L 778.50 815.21 L 782.67 827.73 L 786.85 832.47 L 791.02 823.02 L 795.20 835.85 L 799.37 836.35 L 803.55 838.99 L 807.72 839.09 L 811.90 808.54 L 816.07 813.99 L 820.24 814.27 L 824.42 775.09 L 828.59 829.96 L 832.77 839.05 L 836.94 787.24 L 841.12 807.77 L 845.29 832.93 L 849.47 834.63 L 853.64 831.10 L 857.82 820.55 L 861.99 786.17 L 866.17 775.67 L 870.34 762.75 L 874.52 811.95 L 878.69 801.39 L 882.87 831.30 L 887.04 837.01 L 891.22 801.38 L 895.39 826.68 L 899.57 793.01 L 903.74 800.41 L 907.92 809.70 L 912.09 810.05 L 916.27 824.91 L 920.44 808.69 L 924.62 776.41 L 928.79 831.67 L 932.97 839.18 L 937.14 787.28 L 941.31 828.90 L 945.49 811.60 L 949.66 817.20 L 953.84 778.38 L 958.01 799.52 L 962.19 832.37 L 966.36 822.05 L 970.54 829.45 L 974.71 775.88 L 978.89 811.68 L 983.06 809.74 L 987.24 784.22 L 991.41 827.40 L 995.59 831.51 L 999.76 830.73 L 1003.94 791.72 L 1008.11 835.13 L 1012.29 784.83 L 1016.46 835.17 L 1020.64 802.45 L 1024.81 835.79 L 1028.99 834.52 L 1033.16 821.49 L 1037.34 817.78 L 1041.51 834.41 L 1045.69 832.52 L 1049.86 810.16 L 1054.03 766.09 L 1058.21 810.02 L 1062.38 838.54 L 1066.56 783.63 L 1070.73 777.02 L 1074.91 809.33 L 1079.08 818.51 L 1083.26 818.46 L 1087.43 837.19 L 1091.61 837.59 L 1095.78 822.87 L 1099.96 817.67 L 1104.13 826.79 L 1108.31 784.32 L 1112.48 813.99 L 1116.66 802.34 L 1120.83 824.17 L 1125.01 810.55 L 1129.18 801.26 L 1133.36 830.84 L 1137.53 832.59 L 1141.71 824.82 L 1145.88 821.45 L 1150.06 839.41 L 1154.23 834.35 L 1158.41 599.60 L 1162.58 777.09 L 1166.76 822.92 L 1170.93 824.49 L 1175.10 834.74 L 1179.28 784.83 L 1183.45 816.99 L 1187.63 791.43 L 1191.80 723.04 L 1195.98 795.08 L 1200.15 839.76 L 1204.33 713.57 L 1208.50 807.16 L 1212.68 837.65 L 1216.85 822.23 L 1221.03 806.90 L 1225.20 810.61 L 1229.38 835.01 L 1233.55 835.26 L 1237.73 759.01 L 1241.90 831.08 L 1246.08 822.09 L 1250.25 835.56 L 1254.43 801.35 L 1258.60 730.11 L 1262.78 772.88 L 1266.95 818.09 L 1271.13 736.29 L 1275.30 757.95 L 1279.48 833.44 L 1283.65 838.53 L 1287.83 797.63 L 1292.00 836.00" fill="none" stroke="#1d4ed8" stroke-width="2"  />
  </g>
</svg>