<?xml version="1.0" encoding="UTF-8"?>
<svg xmlns="http://www.w3.org/2000/svg" width="1360" height="980" viewBox="0 0 1360 980">
  <defs>
    <linearGradient id="bg" x1="0" y1="0" x2="1" y2="1">
      <stop offset="0%" stop-color="#f4efe6" />
      <stop offset="100%" stop-color="#eef5f2" />
    </linearGradient>
  </defs>
  <rect x="0" y="0" width="1360" height="980" fill="url(#bg)" />
  <text x="46" y="36" fill="#1f2937" font-size="31" font-weight="700">161124 离线研究图（持仓逐日估值版）</text>
  <text x="46" y="66" fill="#5b6b68" font-size="13">历史前十大持仓 + 持仓逐日涨跌幅 + USDCNY；双目标 lambda=0.10；披露期数 29；覆盖率均值 55.4%</text>
  <g>
    <text x="54" y="110" fill="#1f2937" font-size="16" font-weight="700">A. 净值拟合（同日对齐，无平移）</text>
    <line x1="98" y1="130" x2="124" y2="130" stroke="#0f766e" stroke-width="2"  />
      <text x="130" y="134" fill="#24312e" font-size="12">真实净值</text>
<line x1="313" y1="130" x2="339" y2="130" stroke="#1d4ed8" stroke-width="2"  />
      <text x="345" y="134" fill="#24312e" font-size="12">持仓分段估值</text>
    <line x1="98" y1="132.00" x2="1292" y2="132.00" stroke="#d7e3df" stroke-width="1" />
      <text x="90" y="136.00" text-anchor="end" fill="#5b6b68" font-size="11">1.263</text>
<line x1="98" y1="209.50" x2="1292" y2="209.50" stroke="#d7e3df" stroke-width="1" />
      <text x="90" y="213.50" text-anchor="end" fill="#5b6b68" font-size="11">1.156</text>
<line x1="98" y1="287.00" x2="1292" y2="287.00" stroke="#d7e3df" stroke-width="1" />
      <text x="90" y="291.00" text-anchor="end" fill="#5b6b68" font-size="11">1.049</text>
<line x1="98" y1="364.50" x2="1292" y2="364.50" stroke="#d7e3df" stroke-width="1" />
      <text x="90" y="368.50" text-anchor="end" fill="#5b6b68" font-size="11">0.943</text>
<line x1="98" y1="442.00" x2="1292" y2="442.00" stroke="#d7e3df" stroke-width="1" />
      <text x="90" y="446.00" text-anchor="end" fill="#5b6b68" font-size="11">0.836</text>
    <line x1="98.00" y1="132" x2="98.00" y2="442" stroke="#eef3f1" stroke-width="1" />
      <text x="98.00" y="470" text-anchor="middle" fill="#5b6b68" font-size="11">25-01-02</text>
<line x1="290.04" y1="132" x2="290.04" y2="442" stroke="#eef3f1" stroke-width="1" />
      <text x="290.04" y="470" text-anchor="middle" fill="#5b6b68" font-size="11">25-03-17</text>
<line x1="482.08" y1="132" x2="482.08" y2="442" stroke="#eef3f1" stroke-width="1" />
      <text x="482.08" y="470" text-anchor="middle" fill="#5b6b68" font-size="11">25-05-26</text>
<line x1="695.00" y1="132" x2="695.00" y2="442" stroke="#eef3f1" stroke-width="1" />
      <text x="695.00" y="470" text-anchor="middle" fill="#5b6b68" font-size="11">25-08-06</text>
<line x1="907.92" y1="132" x2="907.92" y2="442" stroke="#eef3f1" stroke-width="1" />
      <text x="907.92" y="470" text-anchor="middle" fill="#5b6b68" font-size="11">25-10-24</text>
<line x1="1099.96" y1="132" x2="1099.96" y2="442" stroke="#eef3f1" stroke-width="1" />
      <text x="1099.96" y="470" text-anchor="middle" fill="#5b6b68" font-size="11">25-12-29</text>
<line x1="1292.00" y1="132" x2="1292.00" y2="442" stroke="#eef3f1" stroke-width="1" />
      <text x="1292.00" y="470" text-anchor="middle" fill="#5b6b68" font-size="11">26-03-13</text>
    <line x1="1112.48" y1="132" x2="1112.48" y2="442" stroke="#f59e0b" stroke-width="1.4" stroke-dasharray="4 4" />
       <text x="1118.48" y="124" fill="#a16207" font-size="11">验证起点</text>
    <path d="M 98.00 403.25 L 102.17 410.14 L 106.35 410.87 L 110.52 413.26 L 114.70 422.62 L 118.87 421.39 L 123.05 435.03 L 127.22 438.95 L 131.40 426.33 L 135.57 429.08 L 139.75 423.57 L 143.92 421.32 L 148.10 421.90 L 152.27 421.25 L 156.45 425.09 L 160.62 425.45 L 164.80 419.79 L 168.97 413.70 L 173.15 408.62 L 177.32 397.73 L 181.50 393.60 L 185.67 386.20 L 189.85 395.41 L 194.02 384.96 L 198.20 396.14 L 202.37 374.08 L 206.55 367.91 L 210.72 364.13 L 214.90 360.07 L 219.07 361.89 L 223.24 346.28 L 227.42 347.88 L 231.59 359.13 L 235.77 345.05 L 239.94 345.70 L 244.12 370.59 L 248.29 367.26 L 252.47 367.40 L 256.64 353.10 L 260.82 337.43 L 264.99 339.61 L 269.17 342.95 L 273.34 336.27 L 277.52 337.72 L 281.69 343.09 L 285.87 329.52 L 290.04 322.55 L 294.22 308.04 L 298.39 305.28 L 302.57 312.54 L 306.74 327.85 L 310.92 324.44 L 315.09 335.47 L 319.27 333.87 L 323.44 329.52 L 327.62 334.96 L 331.79 344.98 L 335.97 335.04 L 340.14 333.08 L 344.31 338.30 L 348.49 426.83 L 352.66 408.47 L 356.84 398.10 L 361.01 383.44 L 365.19 375.82 L 369.36 362.32 L 373.54 362.83 L 377.71 374.58 L 381.89 372.77 L 386.06 373.21 L 390.24 373.13 L 394.41 357.24 L 398.59 358.55 L 402.76 360.22 L 406.94 363.84 L 411.11 367.76 L 415.29 365.73 L 419.46 360.43 L 423.64 351.87 L 427.81 354.12 L 431.99 355.93 L 436.16 356.37 L 440.34 348.82 L 444.51 354.12 L 448.69 350.20 L 452.86 354.19 L 457.03 354.56 L 461.21 354.19 L 465.38 346.07 L 469.56 337.50 L 473.73 341.42 L 477.91 342.87 L 482.08 348.02 L 486.26 345.12 L 490.43 345.41 L 494.61 334.96 L 498.78 339.46 L 502.96 333.22 L 507.13 323.86 L 511.31 327.13 L 515.48 327.71 L 519.66 315.59 L 523.83 307.53 L 528.01 300.20 L 532.18 290.19 L 536.36 297.66 L 540.53 289.61 L 544.71 297.23 L 548.88 296.65 L 553.06 314.21 L 557.23 311.52 L 561.41 304.05 L 565.58 293.60 L 569.76 278.29 L 573.93 278.00 L 578.10 278.94 L 582.28 272.34 L 586.45 272.99 L 590.63 267.77 L 594.80 263.85 L 598.98 260.65 L 603.15 261.45 L 607.33 248.61 L 611.50 247.95 L 615.68 242.22 L 619.85 238.52 L 624.03 230.03 L 628.20 228.43 L 632.38 226.33 L 636.55 220.67 L 640.73 211.09 L 644.90 204.27 L 649.08 204.34 L 653.25 207.10 L 657.43 193.67 L 661.60 202.02 L 665.78 202.60 L 669.95 196.43 L 674.13 203.83 L 678.30 214.50 L 682.48 226.47 L 686.65 217.91 L 690.83 202.31 L 695.00 195.49 L 699.17 191.13 L 703.35 192.29 L 707.52 191.28 L 711.70 192.22 L 715.87 183.37 L 720.05 183.37 L 724.22 172.48 L 728.40 165.66 L 732.57 166.53 L 736.75 172.56 L 740.92 172.12 L 745.10 169.15 L 749.27 155.87 L 753.45 152.60 L 757.62 168.57 L 761.80 173.14 L 765.97 168.64 L 770.15 171.40 L 774.32 182.21 L 778.50 182.21 L 782.67 196.50 L 786.85 175.17 L 791.02 166.82 L 795.20 164.07 L 799.37 162.76 L 803.55 159.20 L 807.72 151.80 L 811.90 152.31 L 816.07 152.82 L 820.24 147.96 L 824.42 151.08 L 828.59 152.02 L 832.77 150.57 L 836.94 156.74 L 841.12 155.50 L 845.29 159.28 L 849.47 168.57 L 853.64 151.51 L 857.82 138.16 L 861.99 138.09 L 866.17 158.91 L 870.34 161.67 L 874.52 179.31 L 878.69 162.03 L 882.87 163.27 L 887.04 189.03 L 891.22 180.97 L 895.39 176.62 L 899.57 183.73 L 903.74 187.72 L 907.92 181.41 L 912.09 171.90 L 916.27 183.01 L 920.44 183.30 L 924.62 178.94 L 928.79 185.11 L 932.97 177.35 L 937.14 193.60 L 941.31 193.09 L 945.49 184.02 L 949.66 190.12 L 953.84 179.60 L 958.01 176.91 L 962.19 176.40 L 966.36 168.20 L 970.54 179.67 L 974.71 183.15 L 978.89 204.85 L 983.06 204.41 L 987.24 206.81 L 991.41 232.06 L 995.59 218.64 L 999.76 213.99 L 1003.94 211.60 L 1008.11 207.82 L 1012.29 206.45 L 1016.46 202.74 L 1020.64 203.62 L 1024.81 212.25 L 1028.99 210.73 L 1033.16 207.39 L 1037.34 212.47 L 1041.51 226.47 L 1045.69 227.42 L 1049.86 235.33 L 1054.03 222.63 L 1058.21 226.62 L 1062.38 241.13 L 1066.56 235.47 L 1070.73 239.32 L 1074.91 231.70 L 1079.08 224.30 L 1083.26 225.75 L 1087.43 227.49 L 1091.61 228.36 L 1095.78 228.72 L 1099.96 240.04 L 1104.13 241.93 L 1108.31 243.82 L 1112.48 232.35 L 1116.66 220.45 L 1120.83 218.49 L 1125.01 221.97 L 1129.18 212.54 L 1133.36 200.71 L 1137.53 194.40 L 1141.71 191.13 L 1145.88 191.35 L 1150.06 193.96 L 1154.23 195.63 L 1158.41 192.66 L 1162.58 183.44 L 1166.76 184.38 L 1170.93 182.93 L 1175.10 186.20 L 1179.28 187.22 L 1183.45 179.01 L 1187.63 175.17 L 1191.80 192.66 L 1195.98 217.11 L 1200.15 204.27 L 1204.33 203.69 L 1208.50 209.42 L 1212.68 212.54 L 1216.85 198.46 L 1221.03 193.82 L 1225.20 185.98 L 1229.38 182.86 L 1233.55 195.42 L 1237.73 189.75 L 1241.90 187.43 L 1246.08 201.73 L 1250.25 197.01 L 1254.43 207.39 L 1258.60 233.30 L 1262.78 240.84 L 1266.95 240.55 L 1271.13 232.42 L 1275.30 238.67 L 1279.48 220.45 L 1283.65 216.31 L 1287.83 222.77 L 1292.00 232.13" fill="none" stroke="#0f766e" stroke-width="2"  />
<path d="M 98.00 393.08 L 102.17 399.37 L 106.35 413.11 L 110.52 413.47 L 114.70 414.49 L 118.87 423.09 L 123.05 422.00 L 127.22 434.65 L 131.40 435.40 L 135.57 422.53 L 139.75 428.64 L 143.92 416.98 L 148.10 422.91 L 152.27 423.04 L 156.45 422.54 L 160.62 425.20 L 164.80 422.69 L 168.97 419.02 L 173.15 412.97 L 177.32 406.06 L 181.50 396.40 L 185.67 385.84 L 189.85 388.51 L 194.02 382.69 L 198.20 383.51 L 202.37 390.53 L 206.55 372.82 L 210.72 367.85 L 214.90 364.08 L 219.07 356.21 L 223.24 357.53 L 227.42 350.79 L 231.59 343.76 L 235.77 350.90 L 239.94 345.64 L 244.12 346.58 L 248.29 374.69 L 252.47 363.29 L 256.64 350.62 L 260.82 351.43 L 264.99 337.73 L 269.17 345.41 L 273.34 339.11 L 277.52 335.12 L 281.69 337.04 L 285.87 338.28 L 290.04 321.84 L 294.22 324.35 L 298.39 306.13 L 302.57 315.36 L 306.74 315.37 L 310.92 326.01 L 315.09 325.80 L 319.27 336.02 L 323.44 329.40 L 327.62 336.93 L 331.79 333.22 L 335.97 342.51 L 340.14 335.03 L 344.31 335.30 L 348.49 412.13 L 352.66 433.53 L 356.84 389.52 L 361.01 397.89 L 365.19 377.58 L 369.36 369.93 L 373.54 361.61 L 377.71 363.71 L 381.89 372.98 L 386.06 372.65 L 390.24 374.12 L 394.41 361.33 L 398.59 353.67 L 402.76 356.34 L 406.94 359.54 L 411.11 363.84 L 415.29 367.85 L 419.46 363.63 L 423.64 341.05 L 427.81 354.60 L 431.99 351.81 L 436.16 354.95 L 440.34 346.75 L 444.51 349.11 L 448.69 350.53 L 452.86 351.85 L 457.03 353.75 L 461.21 354.33 L 465.38 351.98 L 469.56 347.38 L 473.73 337.32 L 477.91 341.05 L 482.08 344.53 L 486.26 347.91 L 490.43 347.03 L 494.61 341.94 L 498.78 337.40 L 502.96 334.49 L 507.13 329.37 L 511.31 321.93 L 515.48 325.77 L 519.66 326.44 L 523.83 313.43 L 528.01 305.34 L 532.18 299.96 L 536.36 293.28 L 540.53 297.53 L 544.71 291.77 L 548.88 299.15 L 553.06 296.53 L 557.23 314.61 L 561.41 305.03 L 565.58 293.57 L 569.76 291.94 L 573.93 278.21 L 578.10 278.15 L 582.28 278.01 L 586.45 270.71 L 590.63 271.28 L 594.80 267.69 L 598.98 263.65 L 603.15 259.66 L 607.33 258.33 L 611.50 248.96 L 615.68 245.37 L 619.85 239.93 L 624.03 235.53 L 628.20 223.22 L 632.38 227.11 L 636.55 223.01 L 640.73 216.90 L 644.90 207.66 L 649.08 196.68 L 653.25 201.33 L 657.43 205.96 L 661.60 193.63 L 665.78 198.59 L 669.95 201.05 L 674.13 199.89 L 678.30 206.03 L 682.48 222.48 L 686.65 221.21 L 690.83 214.15 L 695.00 199.68 L 699.17 192.68 L 703.35 189.91 L 707.52 191.80 L 711.70 183.65 L 715.87 177.48 L 720.05 190.86 L 724.22 182.87 L 728.40 170.34 L 732.57 165.78 L 736.75 164.23 L 740.92 171.37 L 745.10 164.41 L 749.27 167.19 L 753.45 154.98 L 757.62 158.63 L 761.80 166.91 L 765.97 169.88 L 770.15 166.60 L 774.32 171.65 L 778.50 183.79 L 782.67 184.93 L 786.85 192.67 L 791.02 169.50 L 795.20 162.83 L 799.37 163.78 L 803.55 152.82 L 807.72 160.07 L 811.90 147.78 L 816.07 152.15 L 820.24 150.28 L 824.42 150.18 L 828.59 151.19 L 832.77 150.46 L 836.94 152.16 L 841.12 154.83 L 845.29 154.84 L 849.47 158.74 L 853.64 161.56 L 857.82 150.37 L 861.99 136.56 L 866.17 164.01 L 870.34 142.53 L 874.52 162.21 L 878.69 177.18 L 882.87 161.47 L 887.04 160.88 L 891.22 185.73 L 895.39 184.07 L 899.57 179.17 L 903.74 179.42 L 907.92 185.66 L 912.09 177.86 L 916.27 171.06 L 920.44 181.90 L 924.62 191.07 L 928.79 179.44 L 932.97 180.22 L 937.14 180.06 L 941.31 189.79 L 945.49 190.95 L 949.66 184.18 L 953.84 182.73 L 958.01 177.75 L 962.19 173.71 L 966.36 179.49 L 970.54 171.15 L 974.71 181.96 L 978.89 185.92 L 983.06 208.58 L 987.24 209.21 L 991.41 206.07 L 995.59 224.22 L 999.76 218.61 L 1003.94 215.31 L 1008.11 212.71 L 1012.29 209.03 L 1016.46 203.24 L 1020.64 204.10 L 1024.81 204.19 L 1028.99 212.73 L 1033.16 208.85 L 1037.34 207.70 L 1041.51 215.65 L 1045.69 224.29 L 1049.86 227.05 L 1054.03 236.09 L 1058.21 221.51 L 1062.38 238.78 L 1066.56 241.67 L 1070.73 232.56 L 1074.91 237.33 L 1079.08 230.09 L 1083.26 224.16 L 1087.43 225.12 L 1091.61 228.23 L 1095.78 229.08 L 1099.96 235.42 L 1104.13 238.96 L 1108.31 244.41 L 1112.48 215.70 L 1116.66 230.74 L 1120.83 223.26 L 1125.01 216.76 L 1129.18 220.48 L 1133.36 204.37 L 1137.53 202.65 L 1141.71 193.26 L 1145.88 188.17 L 1150.06 195.62 L 1154.23 195.53 L 1158.41 195.84 L 1162.58 188.44 L 1166.76 181.44 L 1170.93 183.48 L 1175.10 182.08 L 1179.28 181.75 L 1183.45 183.98 L 1187.63 176.48 L 1191.80 182.48 L 1195.98 195.69 L 1200.15 217.14 L 1204.33 204.00 L 1208.50 203.66 L 1212.68 201.56 L 1216.85 213.81 L 1221.03 198.07 L 1225.20 192.55 L 1229.38 195.35 L 1233.55 183.30 L 1237.73 190.19 L 1241.90 189.07 L 1246.08 195.01 L 1250.25 198.62 L 1254.43 200.68 L 1258.60 217.41 L 1262.78 233.39 L 1266.95 246.09 L 1271.13 237.83 L 1275.30 230.93 L 1279.48 235.43 L 1283.65 220.74 L 1287.83 223.40 L 1292.00 221.48" fill="none" stroke="#1d4ed8" stroke-width="2"  />
  </g>
  <g>
    <text x="54" y="538" fill="#1f2937" font-size="16" font-weight="700">B. 绝对误差（越低越好）</text>
    <line x1="98" y1="558" x2="124" y2="558" stroke="#1d4ed8" stroke-width="2"  />
      <text x="130" y="562" fill="#24312e" font-size="12">持仓分段误差</text>
    <line x1="98" y1="560.00" x2="1292" y2="560.00" stroke="#d7e3df" stroke-width="1" />
      <text x="90" y="564.00" text-anchor="end" fill="#5b6b68" font-size="11">4.38%</text>
<line x1="98" y1="630.00" x2="1292" y2="630.00" stroke="#d7e3df" stroke-width="1" />
      <text x="90" y="634.00" text-anchor="end" fill="#5b6b68" font-size="11">3.29%</text>
<line x1="98" y1="700.00" x2="1292" y2="700.00" stroke="#d7e3df" stroke-width="1" />
      <text x="90" y="704.00" text-anchor="end" fill="#5b6b68" font-size="11">2.19%</text>
<line x1="98" y1="770.00" x2="1292" y2="770.00" stroke="#d7e3df" stroke-width="1" />
      <text x="90" y="774.00" text-anchor="end" fill="#5b6b68" font-size="11">1.10%</text>
<line x1="98" y1="840.00" x2="1292" y2="840.00" stroke="#d7e3df" stroke-width="1" />
      <text x="90" y="844.00" text-anchor="end" fill="#5b6b68" font-size="11">0.00%</text>
    <line x1="98.00" y1="560" x2="98.00" y2="840" stroke="#eef3f1" stroke-width="1" />
      <text x="98.00" y="868" text-anchor="middle" fill="#5b6b68" font-size="11">25-01-02</text>
<line x1="290.04" y1="560" x2="290.04" y2="840" stroke="#eef3f1" stroke-width="1" />
      <text x="290.04" y="868" text-anchor="middle" fill="#5b6b68" font-size="11">25-03-17</text>
<line x1="482.08" y1="560" x2="482.08" y2="840" stroke="#eef3f1" stroke-width="1" />
      <text x="482.08" y="868" text-anchor="middle" fill="#5b6b68" font-size="11">25-05-26</text>
<line x1="695.00" y1="560" x2="695.00" y2="840" stroke="#eef3f1" stroke-width="1" />
      <text x="695.00" y="868" text-anchor="middle" fill="#5b6b68" font-size="11">25-08-06</text>
<line x1="907.92" y1="560" x2="907.92" y2="840" stroke="#eef3f1" stroke-width="1" />
      <text x="907.92" y="868" text-anchor="middle" fill="#5b6b68" font-size="11">25-10-24</text>
<line x1="1099.96" y1="560" x2="1099.96" y2="840" stroke="#eef3f1" stroke-width="1" />
      <text x="1099.96" y="868" text-anchor="middle" fill="#5b6b68" font-size="11">25-12-29</text>
<line x1="1292.00" y1="560" x2="1292.00" y2="840" stroke="#eef3f1" stroke-width="1" />
      <text x="1292.00" y="868" text-anchor="middle" fill="#5b6b68" font-size="11">26-03-13</text>
    <line x1="1112.48" y1="560" x2="1112.48" y2="840" stroke="#f59e0b" stroke-width="1.4" stroke-dasharray="4 4" />
       <text x="1118.48" y="552" fill="#a16207" font-size="11">验证起点</text>
    <path d="M 98.00 739.33 L 102.17 732.18 L 106.35 817.52 L 110.52 837.93 L 114.70 757.01 L 118.87 822.71 L 123.05 704.28 L 127.22 794.95 L 131.40 746.82 L 135.57 772.46 L 139.75 788.13 L 143.92 795.80 L 148.10 829.65 L 152.27 821.73 L 156.45 813.84 L 160.62 837.37 L 164.80 810.54 L 168.97 786.51 L 173.15 796.55 L 177.32 758.31 L 181.50 812.65 L 185.67 836.61 L 189.85 772.47 L 194.02 818.10 L 198.20 716.35 L 202.37 684.23 L 206.55 793.91 L 210.72 805.30 L 214.90 802.79 L 219.07 787.18 L 223.24 737.72 L 227.42 813.45 L 231.59 697.68 L 235.77 786.91 L 239.94 839.39 L 244.12 613.80 L 248.29 770.32 L 252.47 801.49 L 256.64 817.17 L 260.82 714.30 L 264.99 823.09 L 269.17 817.68 L 273.34 814.54 L 277.52 816.62 L 281.69 785.24 L 285.87 762.17 L 290.04 833.71 L 294.22 699.32 L 298.39 832.71 L 302.57 815.52 L 306.74 729.42 L 310.92 826.15 L 315.09 753.38 L 319.27 820.82 L 323.44 838.95 L 327.62 822.38 L 331.79 733.24 L 335.97 773.07 L 340.14 822.60 L 344.31 812.98 L 348.49 689.00 L 352.66 590.00 L 356.84 755.76 L 361.01 701.18 L 365.19 823.23 L 369.36 769.14 L 373.54 828.62 L 377.71 736.90 L 381.89 838.05 L 386.06 834.74 L 390.24 830.63 L 394.41 802.26 L 398.59 794.84 L 402.76 804.01 L 406.94 799.85 L 411.11 803.22 L 415.29 820.18 L 419.46 810.32 L 423.64 740.77 L 427.81 835.60 L 431.99 801.95 L 436.16 826.86 L 440.34 821.06 L 444.51 793.90 L 448.69 836.97 L 452.86 818.44 L 457.03 832.54 L 461.21 838.70 L 465.38 786.20 L 469.56 751.25 L 473.73 802.97 L 477.91 823.55 L 482.08 808.15 L 486.26 814.72 L 490.43 825.34 L 494.61 777.53 L 498.78 821.39 L 502.96 828.64 L 507.13 791.46 L 511.31 793.96 L 515.48 822.89 L 519.66 745.44 L 523.83 789.21 L 528.01 796.16 L 532.18 757.72 L 536.36 802.76 L 540.53 773.35 L 544.71 793.60 L 548.88 818.72 L 553.06 686.24 L 557.23 813.22 L 561.41 831.56 L 565.58 839.79 L 569.76 726.84 L 573.93 838.20 L 578.10 833.44 L 582.28 793.30 L 586.45 821.26 L 590.63 811.28 L 594.80 808.69 L 598.98 815.72 L 603.15 825.49 L 607.33 762.35 L 611.50 831.95 L 615.68 815.09 L 619.85 828.90 L 624.03 797.11 L 628.20 799.40 L 632.38 833.96 L 636.55 821.94 L 640.73 795.66 L 644.90 814.32 L 649.08 782.02 L 653.25 796.22 L 657.43 748.21 L 661.60 776.69 L 665.78 809.76 L 669.95 805.38 L 674.13 810.18 L 678.30 775.14 L 682.48 809.00 L 686.65 814.63 L 690.83 750.60 L 695.00 808.65 L 699.17 828.49 L 703.35 822.23 L 707.52 836.12 L 711.70 776.06 L 715.87 796.52 L 720.05 784.70 L 724.22 764.25 L 728.40 806.14 L 732.57 834.55 L 736.75 779.31 L 740.92 834.49 L 745.10 805.63 L 749.27 758.98 L 753.45 823.07 L 757.62 767.88 L 761.80 794.58 L 765.97 830.98 L 770.15 805.07 L 774.32 762.19 L 778.50 828.33 L 782.67 753.24 L 786.85 712.02 L 791.02 820.58 L 795.20 831.10 L 799.37 832.68 L 803.55 794.16 L 807.72 781.14 L 811.90 807.72 L 816.07 835.22 L 820.24 823.52 L 824.42 833.65 L 828.59 834.07 L 832.77 839.25 L 836.94 807.23 L 841.12 835.17 L 845.29 808.14 L 849.47 768.67 L 853.64 768.49 L 857.82 754.36 L 861.99 829.29 L 866.17 803.42 L 870.34 702.12 L 874.52 714.38 L 878.69 730.85 L 882.87 827.02 L 887.04 630.86 L 891.22 805.00 L 895.39 785.46 L 899.57 806.28 L 903.74 778.40 L 907.92 808.68 L 912.09 796.63 L 916.27 751.85 L 920.44 829.72 L 924.62 750.92 L 928.79 798.05 L 932.97 818.93 L 937.14 738.85 L 941.31 815.35 L 945.49 788.84 L 949.66 795.81 L 953.84 816.93 L 958.01 833.83 L 962.19 820.27 L 966.36 758.12 L 970.54 777.38 L 974.71 831.24 L 978.89 696.70 L 983.06 808.45 L 987.24 821.80 L 991.41 636.72 L 995.59 797.01 L 999.76 804.65 L 1003.94 811.64 L 1008.11 802.87 L 1012.29 820.43 L 1016.46 836.29 L 1020.64 836.36 L 1024.81 778.45 L 1028.99 824.69 L 1033.16 828.89 L 1037.34 803.60 L 1041.51 755.90 L 1045.69 815.66 L 1049.86 774.99 L 1054.03 735.90 L 1058.21 800.28 L 1062.38 821.42 L 1066.56 791.29 L 1070.73 786.68 L 1074.91 795.94 L 1079.08 795.12 L 1083.26 827.67 L 1087.43 821.56 L 1091.61 838.97 L 1095.78 837.25 L 1099.96 803.47 L 1104.13 816.48 L 1108.31 835.31 L 1112.48 709.72 L 1116.66 760.61 L 1120.83 803.32 L 1125.01 799.71 L 1129.18 779.37 L 1133.36 812.42 L 1137.53 778.30 L 1141.71 824.13 L 1145.88 816.28 L 1150.06 827.62 L 1154.23 839.20 L 1158.41 816.24 L 1162.58 803.13 L 1166.76 818.24 L 1170.93 835.95 L 1175.10 809.51 L 1179.28 799.46 L 1183.45 803.55 L 1187.63 830.40 L 1191.80 764.03 L 1195.98 675.42 L 1200.15 742.63 L 1204.33 837.65 L 1208.50 796.16 L 1212.68 756.14 L 1216.85 724.73 L 1221.03 808.23 L 1225.20 791.33 L 1229.38 747.84 L 1233.55 749.29 L 1237.73 836.80 L 1241.90 827.85 L 1246.08 789.31 L 1250.25 827.93 L 1254.43 789.04 L 1258.60 715.58 L 1262.78 781.05 L 1266.95 796.20 L 1271.13 797.71 L 1275.30 778.98 L 1279.48 724.49 L 1283.65 806.03 L 1287.83 835.14 L 1292.00 756.67" fill="none" stroke="#1d4ed8" stroke-width="2"  />
  </g>
</svg>