<?xml version="1.0" encoding="UTF-8"?>
<svg xmlns="http://www.w3.org/2000/svg" width="1360" height="980" viewBox="0 0 1360 980">
  <defs>
    <linearGradient id="bg" x1="0" y1="0" x2="1" y2="1">
      <stop offset="0%" stop-color="#f4efe6" />
      <stop offset="100%" stop-color="#eef5f2" />
    </linearGradient>
  </defs>
  <rect x="0" y="0" width="1360" height="980" fill="url(#bg)" />
  <text x="46" y="36" fill="#1f2937" font-size="31" font-weight="700">161126 离线研究图（持仓逐日估值版）</text>
  <text x="46" y="66" fill="#5b6b68" font-size="13">历史前十大持仓 + 持仓逐日涨跌幅 + USDCNY；双目标 lambda=0.10；披露期数 29；覆盖率均值 92.1%</text>
  <g>
    <text x="54" y="110" fill="#1f2937" font-size="16" font-weight="700">A. 净值拟合（同日对齐，无平移）</text>
    <line x1="98" y1="130" x2="124" y2="130" stroke="#0f766e" stroke-width="2"  />
      <text x="130" y="134" fill="#24312e" font-size="12">真实净值</text>
<line x1="313" y1="130" x2="339" y2="130" stroke="#1d4ed8" stroke-width="2"  />
      <text x="345" y="134" fill="#24312e" font-size="12">持仓分段估值</text>
    <line x1="98" y1="132.00" x2="1292" y2="132.00" stroke="#d7e3df" stroke-width="1" />
      <text x="90" y="136.00" text-anchor="end" fill="#5b6b68" font-size="11">2.029</text>
<line x1="98" y1="209.50" x2="1292" y2="209.50" stroke="#d7e3df" stroke-width="1" />
      <text x="90" y="213.50" text-anchor="end" fill="#5b6b68" font-size="11">1.942</text>
<line x1="98" y1="287.00" x2="1292" y2="287.00" stroke="#d7e3df" stroke-width="1" />
      <text x="90" y="291.00" text-anchor="end" fill="#5b6b68" font-size="11">1.856</text>
<line x1="98" y1="364.50" x2="1292" y2="364.50" stroke="#d7e3df" stroke-width="1" />
      <text x="90" y="368.50" text-anchor="end" fill="#5b6b68" font-size="11">1.770</text>
<line x1="98" y1="442.00" x2="1292" y2="442.00" stroke="#d7e3df" stroke-width="1" />
      <text x="90" y="446.00" text-anchor="end" fill="#5b6b68" font-size="11">1.683</text>
    <line x1="98.00" y1="132" x2="98.00" y2="442" stroke="#eef3f1" stroke-width="1" />
      <text x="98.00" y="470" text-anchor="middle" fill="#5b6b68" font-size="11">25-01-02</text>
<line x1="290.72" y1="132" x2="290.72" y2="442" stroke="#eef3f1" stroke-width="1" />
      <text x="290.72" y="470" text-anchor="middle" fill="#5b6b68" font-size="11">25-03-17</text>
<line x1="479.24" y1="132" x2="479.24" y2="442" stroke="#eef3f1" stroke-width="1" />
      <text x="479.24" y="470" text-anchor="middle" fill="#5b6b68" font-size="11">25-05-23</text>
<line x1="697.09" y1="132" x2="697.09" y2="442" stroke="#eef3f1" stroke-width="1" />
      <text x="697.09" y="470" text-anchor="middle" fill="#5b6b68" font-size="11">25-08-06</text>
<line x1="910.76" y1="132" x2="910.76" y2="442" stroke="#eef3f1" stroke-width="1" />
      <text x="910.76" y="470" text-anchor="middle" fill="#5b6b68" font-size="11">25-10-24</text>
<line x1="1099.28" y1="132" x2="1099.28" y2="442" stroke="#eef3f1" stroke-width="1" />
      <text x="1099.28" y="470" text-anchor="middle" fill="#5b6b68" font-size="11">25-12-26</text>
<line x1="1292.00" y1="132" x2="1292.00" y2="442" stroke="#eef3f1" stroke-width="1" />
      <text x="1292.00" y="470" text-anchor="middle" fill="#5b6b68" font-size="11">26-03-12</text>
    <line x1="1116.04" y1="132" x2="1116.04" y2="442" stroke="#f59e0b" stroke-width="1.4" stroke-dasharray="4 4" />
       <text x="1122.04" y="124" fill="#a16207" font-size="11">验证起点</text>
    <path d="M 98.00 308.76 L 102.19 289.76 L 106.38 281.15 L 110.57 270.49 L 114.76 266.63 L 118.95 266.72 L 123.14 284.74 L 127.33 264.57 L 131.52 272.55 L 135.71 271.47 L 139.89 258.92 L 144.08 258.83 L 148.27 259.01 L 152.46 234.27 L 156.65 235.35 L 160.84 218.41 L 165.03 218.05 L 169.22 192.24 L 173.41 199.50 L 177.60 227.10 L 181.79 239.74 L 185.98 244.58 L 190.17 255.07 L 194.36 263.85 L 198.55 260.18 L 202.74 273.44 L 206.93 273.71 L 211.12 272.55 L 215.31 256.14 L 219.49 250.23 L 223.68 256.86 L 227.87 240.46 L 232.06 228.90 L 236.25 243.51 L 240.44 264.66 L 244.63 255.07 L 248.82 255.97 L 253.01 269.95 L 257.20 254.71 L 261.39 254.98 L 265.58 240.82 L 269.77 250.68 L 273.96 278.91 L 278.15 299.44 L 282.34 307.32 L 286.53 288.77 L 290.72 271.20 L 294.91 268.24 L 299.09 273.26 L 303.28 277.57 L 307.47 283.75 L 311.66 267.98 L 315.85 284.29 L 320.04 288.23 L 324.23 284.65 L 328.42 297.46 L 332.61 286.89 L 336.80 305.89 L 340.99 293.70 L 345.18 318.53 L 349.37 402.96 L 353.56 432.81 L 357.75 354.29 L 361.94 407.80 L 366.13 385.12 L 370.32 363.97 L 374.51 380.82 L 378.69 394.53 L 382.88 400.81 L 387.07 401.17 L 391.26 434.42 L 395.45 400.09 L 399.64 381.36 L 403.83 358.32 L 408.02 362.27 L 412.21 357.34 L 416.40 350.17 L 420.59 340.04 L 424.78 375.44 L 428.97 352.50 L 433.16 350.26 L 437.35 355.19 L 441.54 312.70 L 445.73 342.82 L 449.92 372.04 L 454.11 347.30 L 458.29 322.20 L 462.48 314.67 L 466.67 308.31 L 470.86 348.91 L 475.05 360.47 L 479.24 366.21 L 483.43 368.18 L 487.62 337.26 L 491.81 345.77 L 496.00 335.29 L 500.19 345.24 L 504.38 342.19 L 508.57 340.49 L 512.76 342.55 L 516.95 328.66 L 521.14 330.45 L 525.33 318.71 L 529.52 324.44 L 533.71 315.93 L 537.89 330.00 L 542.08 324.44 L 546.27 349.54 L 550.46 348.11 L 554.65 348.91 L 558.84 349.00 L 563.03 349.36 L 567.22 329.55 L 571.41 330.72 L 575.60 324.71 L 579.79 323.01 L 583.98 317.72 L 588.17 295.31 L 592.36 318.71 L 596.55 317.36 L 600.74 317.18 L 604.93 334.21 L 609.12 324.53 L 613.31 318.62 L 617.49 307.86 L 621.68 329.01 L 625.87 338.34 L 630.06 364.78 L 634.25 357.79 L 638.44 363.07 L 642.63 381.18 L 646.82 391.31 L 651.01 357.70 L 655.20 331.25 L 659.39 334.12 L 663.58 325.43 L 667.77 339.86 L 671.96 337.35 L 676.15 343.18 L 680.34 398.03 L 684.53 398.21 L 688.72 378.58 L 692.91 389.34 L 697.09 415.06 L 701.28 403.77 L 705.47 384.67 L 709.66 387.45 L 713.85 369.62 L 718.04 344.25 L 722.23 345.77 L 726.42 331.17 L 730.61 337.53 L 734.80 321.75 L 738.99 311.89 L 743.18 326.77 L 747.37 304.46 L 751.56 331.25 L 755.75 330.45 L 759.94 332.15 L 764.13 343.27 L 768.32 332.51 L 772.51 331.61 L 776.69 336.90 L 780.88 341.02 L 785.07 337.53 L 789.26 323.10 L 793.45 328.21 L 797.64 330.63 L 801.83 351.69 L 806.02 321.66 L 810.21 346.49 L 814.40 356.62 L 818.59 358.05 L 822.78 356.71 L 826.97 344.61 L 831.16 352.68 L 835.35 350.17 L 839.54 350.44 L 843.73 353.12 L 847.92 380.10 L 852.11 362.18 L 856.29 360.21 L 860.48 332.42 L 864.67 294.06 L 868.86 322.92 L 873.05 320.14 L 877.24 310.37 L 881.43 309.83 L 885.62 305.89 L 889.81 293.79 L 894.00 271.02 L 898.19 262.42 L 902.38 258.74 L 906.57 259.82 L 910.76 258.65 L 914.95 258.03 L 919.14 269.86 L 923.33 284.92 L 927.52 290.92 L 931.71 291.91 L 935.89 290.38 L 940.08 283.30 L 944.27 284.20 L 948.46 288.59 L 952.65 281.24 L 956.84 280.70 L 961.03 245.21 L 965.22 233.92 L 969.41 240.01 L 973.60 253.55 L 977.79 261.97 L 981.98 252.83 L 986.17 260.00 L 990.36 268.60 L 994.55 223.25 L 998.74 207.48 L 1002.93 172.61 L 1007.12 177.18 L 1011.31 177.72 L 1015.49 180.59 L 1019.68 208.19 L 1023.87 214.82 L 1028.06 208.28 L 1032.25 212.23 L 1036.44 211.60 L 1040.63 230.96 L 1044.82 243.24 L 1049.01 218.14 L 1053.20 205.68 L 1057.39 210.97 L 1061.58 199.86 L 1065.77 223.25 L 1069.96 224.24 L 1074.15 224.42 L 1078.34 212.58 L 1082.53 200.22 L 1086.72 207.92 L 1090.91 203.71 L 1095.09 205.68 L 1099.28 204.43 L 1103.47 208.19 L 1107.66 208.46 L 1111.85 222.17 L 1116.04 192.95 L 1120.23 156.39 L 1124.42 158.09 L 1128.61 162.75 L 1132.80 166.60 L 1136.99 173.51 L 1141.18 178.61 L 1145.37 166.60 L 1149.56 160.33 L 1153.75 176.19 L 1157.94 177.00 L 1162.13 192.51 L 1166.32 158.81 L 1170.51 156.48 L 1174.69 173.95 L 1178.88 169.83 L 1183.07 196.54 L 1187.26 214.56 L 1191.45 218.41 L 1195.64 216.98 L 1199.83 211.69 L 1204.02 225.76 L 1208.21 214.82 L 1212.40 212.23 L 1216.59 196.54 L 1220.78 209.90 L 1224.97 214.82 L 1229.16 204.07 L 1233.35 233.20 L 1237.54 211.42 L 1241.73 194.66 L 1245.92 194.39 L 1250.11 195.64 L 1254.29 178.43 L 1258.48 193.40 L 1262.67 223.07 L 1266.86 209.81 L 1271.05 247.54 L 1275.24 272.64 L 1279.43 253.55 L 1283.62 283.84 L 1287.81 284.65 L 1292.00 317.09" fill="none" stroke="#0f766e" stroke-width="2"  />
<path d="M 98.00 304.20 L 102.19 301.21 L 106.38 291.23 L 110.57 276.07 L 114.76 267.83 L 118.95 267.17 L 123.14 267.86 L 127.33 267.49 L 131.52 279.00 L 135.71 272.33 L 139.89 270.29 L 144.08 272.60 L 148.27 260.27 L 152.46 261.36 L 156.65 236.69 L 160.84 221.90 L 165.03 217.73 L 169.22 189.08 L 173.41 182.65 L 177.60 199.22 L 181.79 229.28 L 185.98 239.98 L 190.17 243.13 L 194.36 255.57 L 198.55 262.93 L 202.74 276.68 L 206.93 276.04 L 211.12 273.81 L 215.31 257.41 L 219.49 252.78 L 223.68 253.04 L 227.87 255.08 L 232.06 233.65 L 236.25 232.61 L 240.44 241.83 L 244.63 253.76 L 248.82 252.28 L 253.01 260.24 L 257.20 266.15 L 261.39 254.54 L 265.58 256.00 L 269.77 242.79 L 273.96 254.49 L 278.15 283.81 L 282.34 302.01 L 286.53 303.50 L 290.72 280.95 L 294.91 271.18 L 299.09 267.67 L 303.28 269.95 L 307.47 278.87 L 311.66 281.13 L 315.85 290.74 L 320.04 286.14 L 324.23 287.85 L 328.42 282.68 L 332.61 286.18 L 336.80 307.89 L 340.99 303.34 L 345.18 292.00 L 349.37 380.86 L 353.56 406.28 L 357.75 393.26 L 361.94 384.47 L 366.13 400.57 L 370.32 374.19 L 374.51 367.62 L 378.69 399.59 L 382.88 398.90 L 387.07 402.35 L 391.26 400.85 L 395.45 417.18 L 399.64 399.74 L 403.83 367.08 L 408.02 349.46 L 412.21 360.51 L 416.40 356.22 L 420.59 345.18 L 424.78 401.56 L 428.97 371.46 L 433.16 359.91 L 437.35 356.76 L 441.54 337.47 L 445.73 360.04 L 449.92 362.06 L 454.11 365.86 L 458.29 321.42 L 462.48 300.07 L 466.67 310.77 L 470.86 328.26 L 475.05 351.03 L 479.24 361.90 L 483.43 363.59 L 487.62 368.21 L 491.81 340.77 L 496.00 340.03 L 500.19 328.79 L 504.38 340.44 L 508.57 338.97 L 512.76 341.67 L 516.95 332.14 L 521.14 325.30 L 525.33 318.66 L 529.52 317.12 L 533.71 319.59 L 537.89 316.48 L 542.08 329.85 L 546.27 338.23 L 550.46 350.08 L 554.65 349.28 L 558.84 350.40 L 563.03 345.10 L 567.22 344.67 L 571.41 328.91 L 575.60 330.17 L 579.79 325.77 L 583.98 318.76 L 588.17 301.66 L 592.36 298.20 L 596.55 319.82 L 600.74 318.14 L 604.93 316.39 L 609.12 329.89 L 613.31 320.18 L 617.49 315.19 L 621.68 309.90 L 625.87 328.61 L 630.06 359.86 L 634.25 344.17 L 638.44 364.23 L 642.63 366.12 L 646.82 383.39 L 651.01 374.76 L 655.20 338.69 L 659.39 334.42 L 663.58 330.99 L 667.77 328.24 L 671.96 356.29 L 676.15 337.30 L 680.34 366.72 L 684.53 391.98 L 688.72 395.08 L 692.91 373.45 L 697.09 400.87 L 701.28 431.56 L 705.47 400.95 L 709.66 381.39 L 713.85 381.85 L 718.04 348.30 L 722.23 338.50 L 726.42 315.39 L 730.61 330.93 L 734.80 335.54 L 738.99 319.73 L 743.18 308.55 L 747.37 321.07 L 751.56 317.92 L 755.75 325.92 L 759.94 329.94 L 764.13 336.22 L 768.32 336.81 L 772.51 335.65 L 776.69 332.02 L 780.88 338.21 L 785.07 338.59 L 789.26 336.69 L 793.45 323.91 L 797.64 314.82 L 801.83 332.49 L 806.02 332.92 L 810.21 327.43 L 814.40 352.06 L 818.59 358.50 L 822.78 356.27 L 826.97 357.46 L 831.16 343.95 L 835.35 355.54 L 839.54 349.03 L 843.73 351.18 L 847.92 363.64 L 852.11 375.15 L 856.29 362.89 L 860.48 334.36 L 864.67 296.43 L 868.86 306.16 L 873.05 324.05 L 877.24 320.91 L 881.43 310.35 L 885.62 310.89 L 889.81 304.28 L 894.00 287.33 L 898.19 270.93 L 902.38 260.60 L 906.57 258.10 L 910.76 259.04 L 914.95 257.13 L 919.14 261.66 L 923.33 275.67 L 927.52 281.18 L 931.71 292.78 L 935.89 293.35 L 940.08 287.05 L 944.27 280.97 L 948.46 282.73 L 952.65 288.24 L 956.84 277.33 L 961.03 264.27 L 965.22 232.60 L 969.41 234.18 L 973.60 242.13 L 977.79 252.03 L 981.98 258.13 L 986.17 252.80 L 990.36 261.67 L 994.55 246.90 L 998.74 222.29 L 1002.93 182.36 L 1007.12 174.36 L 1011.31 177.97 L 1015.49 179.12 L 1019.68 192.64 L 1023.87 210.45 L 1028.06 207.48 L 1032.25 213.64 L 1036.44 214.76 L 1040.63 222.01 L 1044.82 234.83 L 1049.01 232.10 L 1053.20 211.66 L 1057.39 201.17 L 1061.58 201.81 L 1065.77 210.28 L 1069.96 223.51 L 1074.15 223.97 L 1078.34 221.23 L 1082.53 210.34 L 1086.72 201.04 L 1090.91 204.02 L 1095.09 204.90 L 1099.28 206.88 L 1103.47 204.78 L 1107.66 208.95 L 1111.85 210.38 L 1116.04 223.11 L 1120.23 176.92 L 1124.42 141.05 L 1128.61 162.38 L 1132.80 166.85 L 1136.99 163.35 L 1141.18 174.19 L 1145.37 173.20 L 1149.56 170.55 L 1153.75 164.12 L 1157.94 176.65 L 1162.13 178.46 L 1166.32 177.53 L 1170.51 156.34 L 1174.69 158.09 L 1178.88 172.49 L 1183.07 198.94 L 1187.26 198.05 L 1191.45 214.19 L 1195.64 214.05 L 1199.83 211.98 L 1204.02 215.24 L 1208.21 212.57 L 1212.40 222.38 L 1216.59 193.94 L 1220.78 203.00 L 1224.97 213.75 L 1229.16 211.84 L 1233.35 197.09 L 1237.54 225.23 L 1241.73 216.21 L 1245.92 195.15 L 1250.11 198.65 L 1254.29 177.47 L 1258.48 180.26 L 1262.67 197.00 L 1266.86 221.84 L 1271.05 233.32 L 1275.24 249.18 L 1279.43 270.80 L 1283.62 260.51 L 1287.81 285.61 L 1292.00 304.82" fill="none" stroke="#1d4ed8" stroke-width="2"  />
  </g>
  <g>
    <text x="54" y="538" fill="#1f2937" font-size="16" font-weight="700">B. 绝对误差（越低越好）</text>
    <line x1="98" y1="558" x2="124" y2="558" stroke="#1d4ed8" stroke-width="2"  />
      <text x="130" y="562" fill="#24312e" font-size="12">持仓分段误差</text>
    <line x1="98" y1="560.00" x2="1292" y2="560.00" stroke="#d7e3df" stroke-width="1" />
      <text x="90" y="564.00" text-anchor="end" fill="#5b6b68" font-size="11">2.73%</text>
<line x1="98" y1="630.00" x2="1292" y2="630.00" stroke="#d7e3df" stroke-width="1" />
      <text x="90" y="634.00" text-anchor="end" fill="#5b6b68" font-size="11">2.05%</text>
<line x1="98" y1="700.00" x2="1292" y2="700.00" stroke="#d7e3df" stroke-width="1" />
      <text x="90" y="704.00" text-anchor="end" fill="#5b6b68" font-size="11">1.37%</text>
<line x1="98" y1="770.00" x2="1292" y2="770.00" stroke="#d7e3df" stroke-width="1" />
      <text x="90" y="774.00" text-anchor="end" fill="#5b6b68" font-size="11">0.68%</text>
<line x1="98" y1="840.00" x2="1292" y2="840.00" stroke="#d7e3df" stroke-width="1" />
      <text x="90" y="844.00" text-anchor="end" fill="#5b6b68" font-size="11">0.00%</text>
    <line x1="98.00" y1="560" x2="98.00" y2="840" stroke="#eef3f1" stroke-width="1" />
      <text x="98.00" y="868" text-anchor="middle" fill="#5b6b68" font-size="11">25-01-02</text>
<line x1="290.72" y1="560" x2="290.72" y2="840" stroke="#eef3f1" stroke-width="1" />
      <text x="290.72" y="868" text-anchor="middle" fill="#5b6b68" font-size="11">25-03-17</text>
<line x1="479.24" y1="560" x2="479.24" y2="840" stroke="#eef3f1" stroke-width="1" />
      <text x="479.24" y="868" text-anchor="middle" fill="#5b6b68" font-size="11">25-05-23</text>
<line x1="697.09" y1="560" x2="697.09" y2="840" stroke="#eef3f1" stroke-width="1" />
      <text x="697.09" y="868" text-anchor="middle" fill="#5b6b68" font-size="11">25-08-06</text>
<line x1="910.76" y1="560" x2="910.76" y2="840" stroke="#eef3f1" stroke-width="1" />
      <text x="910.76" y="868" text-anchor="middle" fill="#5b6b68" font-size="11">25-10-24</text>
<line x1="1099.28" y1="560" x2="1099.28" y2="840" stroke="#eef3f1" stroke-width="1" />
      <text x="1099.28" y="868" text-anchor="middle" fill="#5b6b68" font-size="11">25-12-26</text>
<line x1="1292.00" y1="560" x2="1292.00" y2="840" stroke="#eef3f1" stroke-width="1" />
      <text x="1292.00" y="868" text-anchor="middle" fill="#5b6b68" font-size="11">26-03-12</text>
    <line x1="1116.04" y1="560" x2="1116.04" y2="840" stroke="#f59e0b" stroke-width="1.4" stroke-dasharray="4 4" />
       <text x="1122.04" y="552" fill="#a16207" font-size="11">验证起点</text>
    <path d="M 98.00 811.59 L 102.19 769.40 L 106.38 778.17 L 110.57 805.96 L 114.76 832.73 L 118.95 837.25 L 123.14 736.24 L 127.33 822.27 L 131.52 800.59 L 135.71 834.77 L 139.89 771.20 L 144.08 756.67 L 148.27 832.40 L 152.46 678.36 L 156.65 832.00 L 160.84 819.35 L 165.03 838.10 L 169.22 821.62 L 173.41 741.45 L 177.60 674.30 L 181.79 777.37 L 185.98 812.39 L 190.17 767.89 L 194.36 789.69 L 198.55 823.30 L 202.74 820.23 L 206.93 825.75 L 211.12 832.31 L 215.31 832.38 L 219.49 824.63 L 223.68 816.88 L 227.87 752.42 L 232.06 811.70 L 236.25 774.62 L 240.44 701.30 L 244.63 832.12 L 248.82 817.74 L 253.01 780.87 L 257.20 770.95 L 261.39 837.34 L 265.58 749.06 L 269.77 792.50 L 273.96 690.37 L 278.15 743.06 L 282.34 806.89 L 286.53 749.21 L 290.72 780.54 L 294.91 822.14 L 299.09 805.87 L 303.28 793.38 L 307.47 810.02 L 311.66 759.91 L 315.85 800.37 L 320.04 827.12 L 324.23 820.31 L 328.42 748.41 L 332.61 835.66 L 336.80 827.52 L 340.99 780.40 L 345.18 673.54 L 349.37 693.73 L 353.56 661.04 L 357.75 590.00 L 361.94 685.13 L 366.13 738.96 L 370.32 774.05 L 374.51 753.88 L 378.69 806.72 L 382.88 827.41 L 387.07 832.18 L 391.26 613.23 L 395.45 727.10 L 399.64 720.01 L 403.83 783.68 L 408.02 757.42 L 412.21 819.62 L 416.40 801.23 L 420.59 807.28 L 424.78 670.19 L 428.97 718.46 L 433.16 778.22 L 437.35 829.89 L 441.54 685.12 L 445.73 730.29 L 449.92 775.26 L 454.11 721.42 L 458.29 835.07 L 462.48 748.55 L 466.67 824.63 L 470.86 707.96 L 475.05 779.18 L 479.24 812.11 L 483.43 810.28 L 487.62 643.51 L 491.81 808.03 L 496.00 809.91 L 500.19 735.05 L 504.38 828.89 L 508.57 830.38 L 512.76 834.42 L 516.95 817.99 L 521.14 807.45 L 525.33 839.74 L 529.52 793.85 L 533.71 817.06 L 537.89 754.56 L 542.08 805.96 L 546.27 767.65 L 550.46 827.41 L 554.65 837.63 L 558.84 831.08 L 563.03 812.74 L 567.22 744.51 L 571.41 828.58 L 575.60 805.59 L 579.79 822.60 L 583.98 833.50 L 588.17 800.71 L 592.36 711.32 L 596.55 824.58 L 600.74 833.98 L 604.93 727.08 L 609.12 806.26 L 613.31 830.16 L 617.49 794.32 L 621.68 719.28 L 625.87 778.23 L 630.06 808.24 L 634.25 752.48 L 638.44 832.53 L 642.63 741.74 L 646.82 787.99 L 651.01 730.28 L 655.20 792.99 L 659.39 838.13 L 663.58 804.95 L 667.77 766.14 L 671.96 719.76 L 676.15 802.58 L 680.34 633.49 L 684.53 798.89 L 688.72 732.48 L 692.91 735.76 L 697.09 745.39 L 701.28 656.00 L 705.47 733.53 L 709.66 800.26 L 713.85 760.73 L 718.04 814.18 L 722.23 793.57 L 726.42 740.23 L 730.61 798.10 L 734.80 753.31 L 738.99 791.05 L 743.18 725.09 L 747.37 736.66 L 751.56 755.68 L 755.75 811.38 L 759.94 826.00 L 764.13 795.09 L 768.32 812.78 L 772.51 814.49 L 776.69 809.02 L 780.88 822.12 L 785.07 833.23 L 789.26 754.48 L 793.45 812.89 L 797.64 740.06 L 801.83 716.98 L 806.02 769.22 L 810.21 718.29 L 814.40 810.71 L 818.59 837.14 L 822.78 837.15 L 826.97 758.02 L 831.16 784.07 L 835.35 805.60 L 839.54 831.03 L 843.73 827.55 L 847.92 732.65 L 852.11 756.36 L 856.29 822.73 L 860.48 827.71 L 864.67 825.32 L 868.86 734.53 L 873.05 815.44 L 877.24 774.18 L 881.43 836.76 L 885.62 808.87 L 889.81 775.14 L 894.00 740.58 L 898.19 788.34 L 902.38 828.75 L 906.57 829.59 L 910.76 837.66 L 914.95 834.59 L 919.14 790.06 L 923.33 783.18 L 927.52 779.87 L 931.71 834.61 L 935.89 821.70 L 940.08 817.01 L 944.27 820.16 L 948.46 803.90 L 952.65 797.07 L 956.84 819.31 L 961.03 725.53 L 965.22 832.17 L 969.41 805.11 L 973.60 771.11 L 977.79 779.69 L 981.98 808.05 L 986.17 796.40 L 990.36 797.80 L 994.55 699.80 L 998.74 752.97 L 1002.93 783.84 L 1007.12 823.72 L 1011.31 838.56 L 1015.49 831.51 L 1019.68 748.56 L 1023.87 814.22 L 1028.06 835.28 L 1032.25 831.66 L 1036.44 821.38 L 1040.63 786.71 L 1044.82 789.58 L 1049.01 757.48 L 1053.20 804.92 L 1057.39 782.31 L 1061.58 828.60 L 1065.77 763.08 L 1069.96 835.70 L 1074.15 837.36 L 1078.34 789.06 L 1082.53 780.79 L 1086.72 799.54 L 1090.91 838.20 L 1095.09 835.41 L 1099.28 825.62 L 1103.47 819.97 L 1107.66 837.12 L 1111.85 770.09 L 1116.04 664.28 L 1120.23 722.78 L 1124.42 742.64 L 1128.61 837.89 L 1132.80 838.56 L 1136.99 781.50 L 1141.18 814.43 L 1145.37 802.14 L 1149.56 781.55 L 1153.75 770.32 L 1157.94 838.00 L 1162.13 758.20 L 1166.32 732.96 L 1170.51 839.20 L 1174.69 748.54 L 1178.88 824.71 L 1183.07 825.96 L 1187.26 742.62 L 1191.45 815.07 L 1195.64 822.73 L 1199.83 838.27 L 1204.02 777.53 L 1208.21 826.71 L 1212.40 780.19 L 1216.59 824.81 L 1220.78 799.44 L 1224.97 833.64 L 1229.16 794.42 L 1233.35 624.67 L 1237.54 758.69 L 1241.73 714.32 L 1245.92 835.58 L 1250.11 822.47 L 1254.29 834.44 L 1258.48 763.43 L 1262.67 685.43 L 1266.86 769.20 L 1271.05 754.52 L 1275.24 696.83 L 1279.43 735.85 L 1283.62 696.64 L 1287.81 834.08 L 1292.00 763.04" fill="none" stroke="#1d4ed8" stroke-width="2"  />
  </g>
</svg>