<?xml version="1.0" encoding="UTF-8"?>
<svg xmlns="http://www.w3.org/2000/svg" width="1360" height="980" viewBox="0 0 1360 980">
  <defs>
    <linearGradient id="bg" x1="0" y1="0" x2="1" y2="1">
      <stop offset="0%" stop-color="#f4efe6" />
      <stop offset="100%" stop-color="#eef5f2" />
    </linearGradient>
  </defs>
  <rect x="0" y="0" width="1360" height="980" fill="url(#bg)" />
  <text x="46" y="36" fill="#1f2937" font-size="31" font-weight="700">161127 离线研究图（持仓逐日估值版）</text>
  <text x="46" y="66" fill="#5b6b68" font-size="13">历史前十大持仓 + 持仓逐日涨跌幅 + USDCNY；双目标 lambda=0.10；披露期数 29；覆盖率均值 92.1%</text>
  <g>
    <text x="54" y="110" fill="#1f2937" font-size="16" font-weight="700">A. 净值拟合（同日对齐，无平移）</text>
    <line x1="98" y1="130" x2="124" y2="130" stroke="#0f766e" stroke-width="2"  />
      <text x="130" y="134" fill="#24312e" font-size="12">真实净值</text>
<line x1="313" y1="130" x2="339" y2="130" stroke="#1d4ed8" stroke-width="2"  />
      <text x="345" y="134" fill="#24312e" font-size="12">持仓分段估值</text>
    <line x1="98" y1="132.00" x2="1292" y2="132.00" stroke="#d7e3df" stroke-width="1" />
      <text x="90" y="136.00" text-anchor="end" fill="#5b6b68" font-size="11">1.841</text>
<line x1="98" y1="209.50" x2="1292" y2="209.50" stroke="#d7e3df" stroke-width="1" />
      <text x="90" y="213.50" text-anchor="end" fill="#5b6b68" font-size="11">1.640</text>
<line x1="98" y1="287.00" x2="1292" y2="287.00" stroke="#d7e3df" stroke-width="1" />
      <text x="90" y="291.00" text-anchor="end" fill="#5b6b68" font-size="11">1.438</text>
<line x1="98" y1="364.50" x2="1292" y2="364.50" stroke="#d7e3df" stroke-width="1" />
      <text x="90" y="368.50" text-anchor="end" fill="#5b6b68" font-size="11">1.237</text>
<line x1="98" y1="442.00" x2="1292" y2="442.00" stroke="#d7e3df" stroke-width="1" />
      <text x="90" y="446.00" text-anchor="end" fill="#5b6b68" font-size="11">1.035</text>
    <line x1="98.00" y1="132" x2="98.00" y2="442" stroke="#eef3f1" stroke-width="1" />
      <text x="98.00" y="470" text-anchor="middle" fill="#5b6b68" font-size="11">25-01-02</text>
<line x1="290.72" y1="132" x2="290.72" y2="442" stroke="#eef3f1" stroke-width="1" />
      <text x="290.72" y="470" text-anchor="middle" fill="#5b6b68" font-size="11">25-03-17</text>
<line x1="479.24" y1="132" x2="479.24" y2="442" stroke="#eef3f1" stroke-width="1" />
      <text x="479.24" y="470" text-anchor="middle" fill="#5b6b68" font-size="11">25-05-23</text>
<line x1="697.09" y1="132" x2="697.09" y2="442" stroke="#eef3f1" stroke-width="1" />
      <text x="697.09" y="470" text-anchor="middle" fill="#5b6b68" font-size="11">25-08-06</text>
<line x1="910.76" y1="132" x2="910.76" y2="442" stroke="#eef3f1" stroke-width="1" />
      <text x="910.76" y="470" text-anchor="middle" fill="#5b6b68" font-size="11">25-10-24</text>
<line x1="1099.28" y1="132" x2="1099.28" y2="442" stroke="#eef3f1" stroke-width="1" />
      <text x="1099.28" y="470" text-anchor="middle" fill="#5b6b68" font-size="11">25-12-26</text>
<line x1="1292.00" y1="132" x2="1292.00" y2="442" stroke="#eef3f1" stroke-width="1" />
      <text x="1292.00" y="470" text-anchor="middle" fill="#5b6b68" font-size="11">26-03-12</text>
    <line x1="1116.04" y1="132" x2="1116.04" y2="442" stroke="#f59e0b" stroke-width="1.4" stroke-dasharray="4 4" />
       <text x="1122.04" y="124" fill="#a16207" font-size="11">验证起点</text>
    <path d="M 98.00 323.56 L 102.19 318.87 L 106.38 320.14 L 110.57 316.41 L 114.76 319.75 L 118.95 319.75 L 123.14 334.67 L 127.33 336.44 L 131.52 349.21 L 135.71 339.21 L 139.89 343.13 L 144.08 342.44 L 148.27 342.52 L 152.46 330.44 L 156.65 326.79 L 160.84 317.29 L 165.03 320.25 L 169.22 319.52 L 173.41 308.53 L 177.60 316.02 L 181.79 326.83 L 185.98 331.52 L 190.17 338.48 L 194.36 333.48 L 198.55 329.02 L 202.74 326.06 L 206.93 326.14 L 211.12 326.37 L 215.31 320.02 L 219.49 319.18 L 223.68 324.95 L 227.87 333.10 L 232.06 340.60 L 236.25 342.60 L 240.44 349.06 L 244.63 340.33 L 248.82 357.25 L 253.01 354.63 L 257.20 345.86 L 261.39 349.94 L 265.58 348.60 L 269.77 354.13 L 273.96 354.13 L 278.15 349.02 L 282.34 355.36 L 286.53 349.06 L 290.72 343.37 L 294.91 354.75 L 299.09 347.63 L 303.28 351.40 L 307.47 349.02 L 311.66 339.94 L 315.85 349.48 L 320.04 360.28 L 324.23 357.67 L 328.42 363.55 L 332.61 380.97 L 336.80 396.74 L 340.99 383.28 L 345.18 396.28 L 349.37 423.00 L 353.56 440.00 L 357.75 412.43 L 361.94 430.04 L 366.13 414.89 L 370.32 403.20 L 374.51 403.31 L 378.69 411.08 L 382.88 406.54 L 387.07 406.66 L 391.26 409.28 L 395.45 397.39 L 399.64 389.47 L 403.83 380.01 L 408.02 383.82 L 412.21 377.90 L 416.40 375.67 L 420.59 369.44 L 424.78 400.70 L 428.97 399.35 L 433.16 395.89 L 437.35 404.81 L 441.54 388.24 L 445.73 398.89 L 449.92 405.47 L 454.11 398.78 L 458.29 391.47 L 462.48 387.78 L 466.67 378.59 L 470.86 389.59 L 475.05 390.43 L 479.24 391.47 L 483.43 392.01 L 487.62 390.24 L 491.81 393.12 L 496.00 384.01 L 500.19 391.12 L 504.38 374.47 L 508.57 373.51 L 512.76 373.28 L 516.95 364.13 L 521.14 364.09 L 525.33 358.59 L 529.52 363.67 L 533.71 363.98 L 537.89 368.36 L 542.08 369.63 L 546.27 376.47 L 550.46 373.32 L 554.65 373.51 L 558.84 375.09 L 563.03 375.94 L 567.22 367.82 L 571.41 370.94 L 575.60 369.05 L 579.79 372.36 L 583.98 373.36 L 588.17 372.63 L 592.36 363.52 L 596.55 361.09 L 600.74 361.02 L 604.93 370.21 L 609.12 364.28 L 613.31 347.60 L 617.49 345.06 L 621.68 352.33 L 625.87 345.71 L 630.06 358.21 L 634.25 347.98 L 638.44 347.06 L 642.63 356.44 L 646.82 358.48 L 651.01 354.29 L 655.20 346.67 L 659.39 350.86 L 663.58 350.36 L 667.77 356.48 L 671.96 358.98 L 676.15 357.25 L 680.34 360.28 L 684.53 359.17 L 688.72 354.75 L 692.91 354.94 L 697.09 358.63 L 701.28 363.05 L 705.47 362.17 L 709.66 363.48 L 713.85 354.13 L 718.04 341.33 L 722.23 341.02 L 726.42 334.94 L 730.61 337.67 L 734.80 344.90 L 738.99 342.56 L 743.18 339.29 L 747.37 333.91 L 751.56 346.40 L 755.75 340.17 L 759.94 338.67 L 764.13 339.06 L 768.32 341.63 L 772.51 341.40 L 776.69 325.14 L 780.88 321.45 L 785.07 322.60 L 789.26 311.99 L 793.45 317.83 L 797.64 314.99 L 801.83 320.45 L 806.02 310.99 L 810.21 319.60 L 814.40 323.25 L 818.59 321.37 L 822.78 321.52 L 826.97 305.72 L 831.16 311.06 L 835.35 302.10 L 839.54 305.26 L 843.73 301.57 L 847.92 309.76 L 852.11 298.18 L 856.29 291.34 L 860.48 287.57 L 864.67 254.34 L 868.86 262.80 L 873.05 261.84 L 877.24 262.54 L 881.43 245.65 L 885.62 248.15 L 889.81 248.88 L 894.00 236.08 L 898.19 239.96 L 902.38 251.50 L 906.57 250.04 L 910.76 246.00 L 914.95 229.66 L 919.14 227.43 L 923.33 233.00 L 927.52 227.97 L 931.71 223.54 L 935.89 238.66 L 940.08 247.96 L 944.27 241.58 L 948.46 241.62 L 952.65 243.69 L 956.84 237.66 L 961.03 217.74 L 965.22 217.78 L 969.41 228.31 L 973.60 218.47 L 977.79 214.62 L 981.98 212.12 L 986.17 215.81 L 990.36 218.81 L 994.55 204.74 L 998.74 190.01 L 1002.93 180.82 L 1007.12 173.67 L 1011.31 173.82 L 1015.49 172.02 L 1019.68 189.36 L 1023.87 196.13 L 1028.06 179.24 L 1032.25 172.21 L 1036.44 171.25 L 1040.63 170.02 L 1044.82 181.97 L 1049.01 177.86 L 1053.20 173.82 L 1057.39 173.75 L 1061.58 174.90 L 1065.77 179.74 L 1069.96 185.28 L 1074.15 189.55 L 1078.34 172.98 L 1082.53 157.98 L 1086.72 164.13 L 1090.91 157.33 L 1095.09 158.06 L 1099.28 165.06 L 1103.47 172.86 L 1107.66 181.51 L 1111.85 180.86 L 1116.04 190.55 L 1120.23 181.36 L 1124.42 159.71 L 1128.61 173.28 L 1132.80 169.63 L 1136.99 172.75 L 1141.18 173.17 L 1145.37 158.13 L 1149.56 171.32 L 1153.75 171.75 L 1157.94 172.05 L 1162.13 167.13 L 1166.32 152.56 L 1170.51 135.52 L 1174.69 154.37 L 1178.88 155.94 L 1183.07 152.37 L 1187.26 166.90 L 1191.45 162.75 L 1195.64 174.01 L 1199.83 160.63 L 1204.02 159.98 L 1208.21 172.75 L 1212.40 195.40 L 1216.59 170.90 L 1220.78 168.90 L 1224.97 173.59 L 1229.16 176.71 L 1233.35 184.24 L 1237.54 186.47 L 1241.73 154.67 L 1245.92 160.33 L 1250.11 163.94 L 1254.29 165.29 L 1258.48 169.75 L 1262.67 186.09 L 1266.86 171.59 L 1271.05 185.17 L 1275.24 184.47 L 1279.43 167.94 L 1283.62 167.79 L 1287.81 173.67 L 1292.00 192.32" fill="none" stroke="#0f766e" stroke-width="2"  />
<path d="M 98.00 328.71 L 102.19 318.96 L 106.38 317.76 L 110.57 310.13 L 114.76 318.81 L 118.95 320.27 L 123.14 320.41 L 127.33 338.32 L 131.52 346.76 L 135.71 344.89 L 139.89 341.97 L 144.08 343.30 L 148.27 343.15 L 152.46 343.81 L 156.65 326.05 L 160.84 313.16 L 165.03 321.24 L 169.22 318.65 L 173.41 306.44 L 177.60 312.82 L 181.79 324.29 L 185.98 329.32 L 190.17 336.05 L 194.36 337.52 L 198.55 326.13 L 202.74 327.70 L 206.93 327.02 L 211.12 326.21 L 215.31 323.14 L 219.49 322.56 L 223.68 318.30 L 227.87 325.86 L 232.06 334.69 L 236.25 342.13 L 240.44 351.26 L 244.63 347.16 L 248.82 346.38 L 253.01 356.30 L 257.20 341.84 L 261.39 347.92 L 265.58 346.97 L 269.77 349.42 L 273.96 362.19 L 278.15 352.55 L 282.34 351.23 L 286.53 352.94 L 290.72 347.12 L 294.91 349.89 L 299.09 353.00 L 303.28 350.25 L 307.47 349.73 L 311.66 345.37 L 315.85 347.31 L 320.04 357.85 L 324.23 359.33 L 328.42 361.22 L 332.61 369.83 L 336.80 390.79 L 340.99 392.95 L 345.18 392.82 L 349.37 419.07 L 353.56 434.77 L 357.75 417.86 L 361.94 431.17 L 366.13 417.17 L 370.32 406.68 L 374.51 403.82 L 378.69 414.08 L 382.88 410.51 L 387.07 406.30 L 391.26 408.21 L 395.45 397.17 L 399.64 394.02 L 403.83 381.34 L 408.02 379.82 L 412.21 383.08 L 416.40 378.37 L 420.59 370.83 L 424.78 416.96 L 428.97 399.66 L 433.16 397.88 L 437.35 403.67 L 441.54 381.35 L 445.73 392.04 L 449.92 409.11 L 454.11 400.51 L 458.29 390.47 L 462.48 387.44 L 466.67 379.20 L 470.86 391.47 L 475.05 388.47 L 479.24 391.43 L 483.43 391.41 L 487.62 391.96 L 491.81 392.71 L 496.00 388.69 L 500.19 395.31 L 504.38 384.02 L 508.57 373.80 L 512.76 375.25 L 516.95 361.95 L 521.14 359.68 L 525.33 361.56 L 529.52 358.93 L 533.71 362.85 L 537.89 365.56 L 542.08 368.08 L 546.27 373.89 L 550.46 374.77 L 554.65 373.67 L 558.84 373.98 L 563.03 375.84 L 567.22 368.26 L 571.41 367.97 L 575.60 369.60 L 579.79 370.59 L 583.98 370.61 L 588.17 369.41 L 592.36 363.34 L 596.55 362.52 L 600.74 361.50 L 604.93 361.11 L 609.12 360.88 L 613.31 357.29 L 617.49 343.84 L 621.68 348.72 L 625.87 352.95 L 630.06 355.85 L 634.25 353.96 L 638.44 347.94 L 642.63 349.89 L 646.82 356.72 L 651.01 347.78 L 655.20 347.16 L 659.39 349.50 L 663.58 350.98 L 667.77 352.48 L 671.96 358.38 L 676.15 359.82 L 680.34 366.75 L 684.53 360.34 L 688.72 356.63 L 692.91 365.79 L 697.09 357.60 L 701.28 358.30 L 705.47 362.68 L 709.66 362.26 L 713.85 356.88 L 718.04 344.94 L 722.23 340.87 L 726.42 334.03 L 730.61 335.22 L 734.80 338.42 L 738.99 344.23 L 743.18 341.72 L 747.37 336.18 L 751.56 347.57 L 755.75 344.57 L 759.94 338.93 L 764.13 340.07 L 768.32 338.73 L 772.51 341.56 L 776.69 341.22 L 780.88 325.41 L 785.07 320.04 L 789.26 316.11 L 793.45 313.50 L 797.64 316.53 L 801.83 317.97 L 806.02 306.55 L 810.21 321.19 L 814.40 318.39 L 818.59 320.14 L 822.78 320.66 L 826.97 312.48 L 831.16 305.31 L 835.35 308.13 L 839.54 305.97 L 843.73 306.04 L 847.92 309.62 L 852.11 306.01 L 856.29 295.07 L 860.48 286.52 L 864.67 253.69 L 868.86 262.76 L 873.05 261.53 L 877.24 259.37 L 881.43 252.59 L 885.62 246.28 L 889.81 248.24 L 894.00 239.39 L 898.19 235.83 L 902.38 244.91 L 906.57 251.97 L 910.76 247.91 L 914.95 244.51 L 919.14 227.04 L 923.33 230.12 L 927.52 220.81 L 931.71 224.65 L 935.89 228.03 L 940.08 247.22 L 944.27 240.38 L 948.46 242.74 L 952.65 241.38 L 956.84 239.91 L 961.03 224.68 L 965.22 216.54 L 969.41 225.35 L 973.60 227.43 L 977.79 216.10 L 981.98 211.53 L 986.17 215.13 L 990.36 217.08 L 994.55 206.32 L 998.74 199.44 L 1002.93 181.28 L 1007.12 178.81 L 1011.31 173.58 L 1015.49 174.03 L 1019.68 192.52 L 1023.87 189.15 L 1028.06 183.65 L 1032.25 177.13 L 1036.44 170.70 L 1040.63 171.65 L 1044.82 173.76 L 1049.01 175.21 L 1053.20 175.03 L 1057.39 174.84 L 1061.58 169.67 L 1065.77 176.47 L 1069.96 180.32 L 1074.15 186.24 L 1078.34 172.85 L 1082.53 164.71 L 1086.72 161.94 L 1090.91 162.29 L 1095.09 157.94 L 1099.28 158.65 L 1103.47 165.19 L 1107.66 177.97 L 1111.85 184.08 L 1116.04 176.56 L 1120.23 169.72 L 1124.42 167.59 L 1128.61 177.00 L 1132.80 173.76 L 1136.99 172.45 L 1141.18 162.93 L 1145.37 170.13 L 1149.56 163.13 L 1153.75 171.60 L 1157.94 174.75 L 1162.13 172.75 L 1166.32 143.37 L 1170.51 141.46 L 1174.69 146.41 L 1178.88 155.55 L 1183.07 159.65 L 1187.26 157.53 L 1191.45 165.54 L 1195.64 172.85 L 1199.83 173.88 L 1204.02 162.81 L 1208.21 156.66 L 1212.40 186.83 L 1216.59 182.82 L 1220.78 172.20 L 1224.97 173.50 L 1229.16 174.37 L 1233.35 180.18 L 1237.54 173.98 L 1241.73 163.97 L 1245.92 155.42 L 1250.11 162.03 L 1254.29 159.97 L 1258.48 166.86 L 1262.67 185.05 L 1266.86 171.59 L 1271.05 190.38 L 1275.24 187.78 L 1279.43 167.26 L 1283.62 168.06 L 1287.81 168.36 L 1292.00 191.57" fill="none" stroke="#1d4ed8" stroke-width="2"  />
  </g>
  <g>
    <text x="54" y="538" fill="#1f2937" font-size="16" font-weight="700">B. 绝对误差（越低越好）</text>
    <line x1="98" y1="558" x2="124" y2="558" stroke="#1d4ed8" stroke-width="2"  />
      <text x="130" y="562" fill="#24312e" font-size="12">持仓分段误差</text>
    <line x1="98" y1="560.00" x2="1292" y2="560.00" stroke="#d7e3df" stroke-width="1" />
      <text x="90" y="564.00" text-anchor="end" fill="#5b6b68" font-size="11">4.14%</text>
<line x1="98" y1="630.00" x2="1292" y2="630.00" stroke="#d7e3df" stroke-width="1" />
      <text x="90" y="634.00" text-anchor="end" fill="#5b6b68" font-size="11">3.11%</text>
<line x1="98" y1="700.00" x2="1292" y2="700.00" stroke="#d7e3df" stroke-width="1" />
      <text x="90" y="704.00" text-anchor="end" fill="#5b6b68" font-size="11">2.07%</text>
<line x1="98" y1="770.00" x2="1292" y2="770.00" stroke="#d7e3df" stroke-width="1" />
      <text x="90" y="774.00" text-anchor="end" fill="#5b6b68" font-size="11">1.04%</text>
<line x1="98" y1="840.00" x2="1292" y2="840.00" stroke="#d7e3df" stroke-width="1" />
      <text x="90" y="844.00" text-anchor="end" fill="#5b6b68" font-size="11">0.00%</text>
    <line x1="98.00" y1="560" x2="98.00" y2="840" stroke="#eef3f1" stroke-width="1" />
      <text x="98.00" y="868" text-anchor="middle" fill="#5b6b68" font-size="11">25-01-02</text>
<line x1="290.72" y1="560" x2="290.72" y2="840" stroke="#eef3f1" stroke-width="1" />
      <text x="290.72" y="868" text-anchor="middle" fill="#5b6b68" font-size="11">25-03-17</text>
<line x1="479.24" y1="560" x2="479.24" y2="840" stroke="#eef3f1" stroke-width="1" />
      <text x="479.24" y="868" text-anchor="middle" fill="#5b6b68" font-size="11">25-05-23</text>
<line x1="697.09" y1="560" x2="697.09" y2="840" stroke="#eef3f1" stroke-width="1" />
      <text x="697.09" y="868" text-anchor="middle" fill="#5b6b68" font-size="11">25-08-06</text>
<line x1="910.76" y1="560" x2="910.76" y2="840" stroke="#eef3f1" stroke-width="1" />
      <text x="910.76" y="868" text-anchor="middle" fill="#5b6b68" font-size="11">25-10-24</text>
<line x1="1099.28" y1="560" x2="1099.28" y2="840" stroke="#eef3f1" stroke-width="1" />
      <text x="1099.28" y="868" text-anchor="middle" fill="#5b6b68" font-size="11">25-12-26</text>
<line x1="1292.00" y1="560" x2="1292.00" y2="840" stroke="#eef3f1" stroke-width="1" />
      <text x="1292.00" y="868" text-anchor="middle" fill="#5b6b68" font-size="11">26-03-12</text>
    <line x1="1116.04" y1="560" x2="1116.04" y2="840" stroke="#f59e0b" stroke-width="1.4" stroke-dasharray="4 4" />
       <text x="1122.04" y="552" fill="#a16207" font-size="11">验证起点</text>
    <path d="M 98.00 772.67 L 102.19 838.80 L 106.38 809.09 L 110.57 759.04 L 114.76 827.72 L 118.95 833.28 L 123.14 649.27 L 127.33 814.80 L 131.52 806.23 L 135.71 763.42 L 139.89 824.12 L 144.08 828.35 L 148.27 831.46 L 152.46 662.78 L 156.65 830.28 L 160.84 786.62 L 165.03 827.25 L 169.22 828.61 L 173.41 813.44 L 177.60 798.69 L 181.79 806.53 L 185.98 810.74 L 190.17 807.26 L 194.36 786.14 L 198.55 801.72 L 202.74 818.46 L 206.93 828.42 L 211.12 837.95 L 215.31 799.46 L 219.49 796.14 L 223.68 752.82 L 227.87 743.59 L 232.06 760.06 L 236.25 833.63 L 240.44 809.73 L 244.63 747.63 L 248.82 687.88 L 253.01 816.80 L 257.20 785.03 L 261.39 812.08 L 265.58 817.65 L 269.77 774.43 L 273.96 727.94 L 278.15 791.44 L 282.34 782.44 L 286.53 786.58 L 290.72 788.87 L 294.91 772.43 L 299.09 766.36 L 303.28 824.08 L 307.47 830.25 L 311.66 766.65 L 315.85 810.10 L 320.04 805.69 L 324.23 816.73 L 328.42 806.89 L 332.61 676.08 L 336.80 749.31 L 340.99 696.96 L 345.18 787.35 L 349.37 776.24 L 353.56 751.73 L 357.75 754.21 L 361.94 821.34 L 366.13 803.82 L 370.32 786.14 L 374.51 832.23 L 378.69 792.85 L 382.88 778.21 L 387.07 834.43 L 391.26 823.36 L 395.45 836.61 L 399.64 771.77 L 403.83 820.48 L 408.02 780.83 L 412.21 764.27 L 416.40 800.61 L 420.59 819.97 L 424.78 590.00 L 428.97 835.24 L 433.16 809.76 L 437.35 822.23 L 441.54 736.94 L 445.73 735.13 L 449.92 783.42 L 454.11 813.54 L 458.29 824.91 L 462.48 835.00 L 466.67 831.10 L 470.86 811.70 L 475.05 810.51 L 479.24 839.42 L 483.43 830.96 L 487.62 814.15 L 491.81 833.79 L 496.00 770.69 L 500.19 777.01 L 504.38 701.43 L 508.57 835.89 L 512.76 811.49 L 516.95 809.00 L 521.14 777.38 L 525.33 798.32 L 529.52 772.78 L 533.71 824.03 L 537.89 799.82 L 542.08 817.74 L 546.27 802.39 L 550.46 819.06 L 554.65 837.71 L 558.84 823.84 L 563.03 838.56 L 567.22 833.77 L 571.41 797.31 L 575.60 832.16 L 579.79 814.42 L 583.98 800.16 L 588.17 793.49 L 592.36 837.51 L 596.55 819.91 L 600.74 833.18 L 604.93 709.18 L 609.12 791.63 L 613.31 707.04 L 617.49 823.34 L 621.68 790.10 L 625.87 741.07 L 630.06 806.99 L 634.25 757.82 L 638.44 827.96 L 642.63 748.55 L 646.82 815.36 L 651.01 749.46 L 655.20 833.33 L 659.39 821.13 L 663.58 831.46 L 667.77 784.11 L 671.96 831.57 L 676.15 803.99 L 680.34 748.94 L 684.53 823.55 L 688.72 813.78 L 692.91 688.96 L 697.09 825.49 L 701.28 772.65 L 705.47 832.79 L 709.66 822.72 L 713.85 801.77 L 718.04 791.04 L 722.23 837.95 L 726.42 827.83 L 730.61 806.95 L 734.80 751.53 L 738.99 817.30 L 743.18 807.25 L 747.37 809.59 L 751.56 823.96 L 755.75 780.54 L 759.94 836.53 L 764.13 826.39 L 768.32 800.68 L 772.51 837.82 L 776.69 628.99 L 780.88 788.42 L 785.07 806.63 L 789.26 787.24 L 793.45 783.99 L 797.64 820.15 L 801.83 807.84 L 806.02 783.39 L 810.21 819.31 L 814.40 776.42 L 818.59 823.98 L 822.78 828.69 L 826.97 754.53 L 831.16 766.48 L 835.35 764.38 L 839.54 831.03 L 843.73 783.87 L 847.92 838.29 L 852.11 742.46 L 856.29 794.04 L 860.48 827.18 L 864.67 832.48 L 868.86 839.42 L 873.05 836.40 L 877.24 802.98 L 881.43 761.20 L 885.62 818.64 L 889.81 832.69 L 894.00 802.98 L 898.19 793.47 L 902.38 764.35 L 906.57 817.86 L 910.76 818.25 L 914.95 675.60 L 919.14 835.71 L 923.33 807.94 L 927.52 761.03 L 931.71 827.89 L 935.89 720.58 L 940.08 831.57 L 944.27 826.46 L 948.46 827.28 L 952.65 813.74 L 956.84 814.70 L 961.03 764.58 L 965.22 826.63 L 969.41 807.29 L 973.60 742.60 L 977.79 824.04 L 981.98 833.63 L 986.17 832.63 L 990.36 821.20 L 994.55 823.21 L 998.74 741.98 L 1002.93 835.30 L 1007.12 787.85 L 1011.31 837.58 L 1015.49 819.64 L 1019.68 807.17 L 1023.87 766.85 L 1028.06 794.92 L 1032.25 790.24 L 1036.44 834.44 L 1040.63 823.48 L 1044.82 755.65 L 1049.01 812.96 L 1053.20 827.78 L 1057.39 828.94 L 1061.58 786.85 L 1065.77 806.46 L 1069.96 788.84 L 1074.15 805.58 L 1078.34 838.70 L 1082.53 773.36 L 1086.72 818.11 L 1090.91 790.85 L 1095.09 838.86 L 1099.28 775.88 L 1103.47 762.36 L 1107.66 803.68 L 1111.85 806.96 L 1116.04 694.50 L 1120.23 720.59 L 1124.42 761.78 L 1128.61 802.34 L 1132.80 798.40 L 1136.99 837.00 L 1141.18 736.22 L 1145.37 721.18 L 1149.56 757.24 L 1153.75 838.48 L 1157.94 812.71 L 1162.13 783.56 L 1166.32 749.71 L 1170.51 783.03 L 1174.69 761.59 L 1178.88 836.10 L 1183.07 768.48 L 1187.26 745.95 L 1191.45 812.15 L 1195.64 828.20 L 1199.83 708.30 L 1204.02 811.89 L 1208.21 677.14 L 1212.40 750.20 L 1216.59 719.64 L 1220.78 806.80 L 1224.97 839.07 L 1229.16 816.23 L 1233.35 798.16 L 1237.54 710.85 L 1241.73 748.37 L 1245.92 791.27 L 1250.11 820.87 L 1254.29 786.79 L 1258.48 810.89 L 1262.67 829.22 L 1266.86 839.94 L 1271.05 786.18 L 1275.24 805.93 L 1279.43 833.22 L 1283.62 837.27 L 1287.81 786.19 L 1292.00 832.15" fill="none" stroke="#1d4ed8" stroke-width="2"  />
  </g>
</svg>