<?xml version="1.0" encoding="UTF-8"?>
<svg xmlns="http://www.w3.org/2000/svg" width="1360" height="980" viewBox="0 0 1360 980">
  <defs>
    <linearGradient id="bg" x1="0" y1="0" x2="1" y2="1">
      <stop offset="0%" stop-color="#f4efe6" />
      <stop offset="100%" stop-color="#eef5f2" />
    </linearGradient>
  </defs>
  <rect x="0" y="0" width="1360" height="980" fill="url(#bg)" />
  <text x="46" y="36" fill="#1f2937" font-size="31" font-weight="700">161226 离线研究图（持仓逐日估值版）</text>
  <text x="46" y="66" fill="#5b6b68" font-size="13">历史前十大持仓 + 持仓逐日涨跌幅 + USDCNY；双目标 lambda=0.10；披露期数 34；覆盖率均值 92.4%</text>
  <g>
    <text x="54" y="110" fill="#1f2937" font-size="16" font-weight="700">A. 净值拟合（同日对齐，无平移）</text>
    <line x1="98" y1="130" x2="124" y2="130" stroke="#0f766e" stroke-width="2"  />
      <text x="130" y="134" fill="#24312e" font-size="12">真实净值</text>
<line x1="313" y1="130" x2="339" y2="130" stroke="#1d4ed8" stroke-width="2"  />
      <text x="345" y="134" fill="#24312e" font-size="12">持仓分段估值</text>
    <line x1="98" y1="132.00" x2="1292" y2="132.00" stroke="#d7e3df" stroke-width="1" />
      <text x="90" y="136.00" text-anchor="end" fill="#5b6b68" font-size="11">3.324</text>
<line x1="98" y1="209.50" x2="1292" y2="209.50" stroke="#d7e3df" stroke-width="1" />
      <text x="90" y="213.50" text-anchor="end" fill="#5b6b68" font-size="11">2.715</text>
<line x1="98" y1="287.00" x2="1292" y2="287.00" stroke="#d7e3df" stroke-width="1" />
      <text x="90" y="291.00" text-anchor="end" fill="#5b6b68" font-size="11">2.105</text>
<line x1="98" y1="364.50" x2="1292" y2="364.50" stroke="#d7e3df" stroke-width="1" />
      <text x="90" y="368.50" text-anchor="end" fill="#5b6b68" font-size="11">1.495</text>
<line x1="98" y1="442.00" x2="1292" y2="442.00" stroke="#d7e3df" stroke-width="1" />
      <text x="90" y="446.00" text-anchor="end" fill="#5b6b68" font-size="11">0.886</text>
    <line x1="98.00" y1="132" x2="98.00" y2="442" stroke="#eef3f1" stroke-width="1" />
      <text x="98.00" y="470" text-anchor="middle" fill="#5b6b68" font-size="11">25-01-02</text>
<line x1="290.04" y1="132" x2="290.04" y2="442" stroke="#eef3f1" stroke-width="1" />
      <text x="290.04" y="470" text-anchor="middle" fill="#5b6b68" font-size="11">25-03-17</text>
<line x1="482.08" y1="132" x2="482.08" y2="442" stroke="#eef3f1" stroke-width="1" />
      <text x="482.08" y="470" text-anchor="middle" fill="#5b6b68" font-size="11">25-05-26</text>
<line x1="695.00" y1="132" x2="695.00" y2="442" stroke="#eef3f1" stroke-width="1" />
      <text x="695.00" y="470" text-anchor="middle" fill="#5b6b68" font-size="11">25-08-06</text>
<line x1="907.92" y1="132" x2="907.92" y2="442" stroke="#eef3f1" stroke-width="1" />
      <text x="907.92" y="470" text-anchor="middle" fill="#5b6b68" font-size="11">25-10-24</text>
<line x1="1099.96" y1="132" x2="1099.96" y2="442" stroke="#eef3f1" stroke-width="1" />
      <text x="1099.96" y="470" text-anchor="middle" fill="#5b6b68" font-size="11">25-12-29</text>
<line x1="1292.00" y1="132" x2="1292.00" y2="442" stroke="#eef3f1" stroke-width="1" />
      <text x="1292.00" y="470" text-anchor="middle" fill="#5b6b68" font-size="11">26-03-13</text>
    <line x1="1112.48" y1="132" x2="1112.48" y2="442" stroke="#f59e0b" stroke-width="1.4" stroke-dasharray="4 4" />
       <text x="1118.48" y="124" fill="#a16207" font-size="11">验证起点</text>
    <path d="M 98.00 441.30 L 102.17 440.82 L 106.35 440.32 L 110.52 439.78 L 114.70 439.24 L 118.87 439.25 L 123.05 438.49 L 127.22 438.66 L 131.40 440.96 L 135.57 440.95 L 139.75 438.66 L 143.92 437.70 L 148.10 439.27 L 152.27 439.29 L 156.45 438.58 L 160.62 439.22 L 164.80 440.26 L 168.97 439.66 L 173.15 434.27 L 177.32 434.02 L 181.50 434.64 L 185.67 434.22 L 189.85 434.83 L 194.02 436.46 L 198.20 435.52 L 202.37 433.80 L 206.55 433.82 L 210.72 434.80 L 214.90 433.77 L 219.07 433.66 L 223.24 433.51 L 227.42 434.33 L 231.59 434.89 L 235.77 436.44 L 239.94 436.71 L 244.12 437.07 L 248.29 437.50 L 252.47 436.22 L 256.64 436.06 L 260.82 435.27 L 264.99 434.87 L 269.17 435.06 L 273.34 435.67 L 277.52 434.44 L 281.69 433.46 L 285.87 431.10 L 290.04 430.54 L 294.22 430.66 L 298.39 429.87 L 302.57 430.51 L 306.74 431.75 L 310.92 432.77 L 315.09 432.41 L 319.27 430.60 L 323.44 430.51 L 327.62 428.97 L 331.79 428.89 L 335.97 429.63 L 340.14 429.81 L 344.31 430.29 L 348.49 441.25 L 352.66 441.08 L 356.84 440.56 L 361.01 438.69 L 365.19 437.52 L 369.36 435.25 L 373.54 434.99 L 377.71 434.02 L 381.89 433.60 L 386.06 434.70 L 390.24 433.82 L 394.41 433.70 L 398.59 433.34 L 402.76 432.35 L 406.94 432.27 L 411.11 433.60 L 415.29 433.43 L 419.46 433.10 L 423.64 432.97 L 427.81 433.00 L 431.99 434.10 L 436.16 434.33 L 440.34 433.84 L 444.51 434.17 L 448.69 433.91 L 452.86 436.08 L 457.03 435.27 L 461.21 435.48 L 465.38 435.24 L 469.56 433.66 L 473.73 432.50 L 477.91 433.30 L 482.08 432.87 L 486.26 433.10 L 490.43 433.55 L 494.61 433.72 L 498.78 433.58 L 502.96 430.05 L 507.13 429.82 L 511.31 429.87 L 515.48 425.66 L 519.66 424.57 L 523.83 423.23 L 528.01 423.63 L 532.18 424.51 L 536.36 424.75 L 540.53 424.70 L 544.71 424.51 L 548.88 422.28 L 553.06 423.42 L 557.23 426.03 L 561.41 426.01 L 565.58 425.57 L 569.76 427.21 L 573.93 425.84 L 578.10 424.96 L 582.28 426.31 L 586.45 425.92 L 590.63 425.33 L 594.80 423.87 L 598.98 423.34 L 603.15 423.50 L 607.33 423.74 L 611.50 423.95 L 615.68 424.16 L 619.85 422.22 L 624.03 419.92 L 628.20 419.88 L 632.38 420.22 L 636.55 420.39 L 640.73 419.83 L 644.90 418.90 L 649.08 417.04 L 653.25 415.81 L 657.43 416.55 L 661.60 417.17 L 665.78 419.29 L 669.95 419.78 L 674.13 419.51 L 678.30 421.78 L 682.48 423.68 L 686.65 422.52 L 690.83 421.49 L 695.00 420.28 L 699.17 419.66 L 703.35 418.64 L 707.52 419.14 L 711.70 420.13 L 715.87 419.43 L 720.05 418.06 L 724.22 419.65 L 728.40 419.65 L 732.57 419.64 L 736.75 421.17 L 740.92 420.32 L 745.10 419.46 L 749.27 417.63 L 753.45 417.46 L 757.62 417.89 L 761.80 417.80 L 765.97 416.98 L 770.15 413.72 L 774.32 410.61 L 778.50 411.37 L 782.67 410.67 L 786.85 411.69 L 791.02 411.04 L 795.20 410.19 L 799.37 411.56 L 803.55 411.13 L 807.72 409.09 L 811.90 407.81 L 816.07 406.97 L 820.24 408.09 L 824.42 409.87 L 828.59 409.43 L 832.77 406.15 L 836.94 404.17 L 841.12 402.86 L 845.29 402.97 L 849.47 401.12 L 853.64 396.84 L 857.82 395.58 L 861.99 391.42 L 866.17 391.42 L 870.34 391.00 L 874.52 384.87 L 878.69 385.27 L 882.87 380.92 L 887.04 377.80 L 891.22 383.31 L 895.39 382.24 L 899.57 390.15 L 903.74 389.76 L 907.92 388.26 L 912.09 388.50 L 916.27 392.85 L 920.44 391.70 L 924.62 390.52 L 928.79 388.46 L 932.97 388.75 L 937.14 389.25 L 941.31 391.47 L 945.49 389.37 L 949.66 388.62 L 953.84 386.77 L 958.01 382.19 L 962.19 380.69 L 966.36 374.70 L 970.54 373.79 L 974.71 380.22 L 978.89 382.01 L 983.06 380.86 L 987.24 378.47 L 991.41 381.43 L 995.59 383.37 L 999.76 380.14 L 1003.94 378.67 L 1008.11 375.68 L 1012.29 372.64 L 1016.46 364.11 L 1020.64 358.71 L 1024.81 356.75 L 1028.99 356.70 L 1033.16 359.30 L 1037.34 355.58 L 1041.51 356.35 L 1045.69 350.23 L 1049.86 345.78 L 1054.03 340.31 L 1058.21 340.92 L 1062.38 340.23 L 1066.56 336.41 L 1070.73 330.68 L 1074.91 332.87 L 1079.08 325.94 L 1083.26 319.08 L 1087.43 309.53 L 1091.61 307.10 L 1095.78 294.21 L 1099.96 283.84 L 1104.13 298.83 L 1108.31 296.28 L 1112.48 294.03 L 1116.66 283.58 L 1120.83 273.67 L 1125.01 283.68 L 1129.18 291.75 L 1133.36 270.16 L 1137.53 252.32 L 1141.71 234.93 L 1145.88 227.80 L 1150.06 230.90 L 1154.23 235.25 L 1158.41 222.85 L 1162.58 224.31 L 1166.76 224.96 L 1170.93 209.14 L 1175.10 177.09 L 1179.28 149.19 L 1183.45 148.48 L 1187.63 134.10 L 1191.80 137.12 L 1195.98 268.64 L 1200.15 259.18 L 1204.33 235.40 L 1208.50 248.56 L 1212.68 290.28 L 1216.85 278.02 L 1221.03 268.38 L 1225.20 267.09 L 1229.38 258.82 L 1233.55 273.57 L 1237.73 241.43 L 1241.90 233.96 L 1246.08 228.45 L 1250.25 235.50 L 1254.43 214.46 L 1258.60 228.76 L 1262.78 251.62 L 1266.95 246.08 L 1271.13 249.27 L 1275.30 248.47 L 1279.48 234.93 L 1283.65 228.67 L 1287.83 239.91 L 1292.00 242.70" fill="none" stroke="#0f766e" stroke-width="2"  />
<path d="M 98.00 441.43 L 102.17 440.91 L 106.35 440.31 L 110.52 439.88 L 114.70 439.31 L 118.87 439.05 L 123.05 439.11 L 127.22 439.40 L 131.40 438.12 L 135.57 439.14 L 139.75 440.61 L 143.92 438.69 L 148.10 437.36 L 152.27 439.25 L 156.45 439.03 L 160.62 438.47 L 164.80 438.86 L 168.97 440.74 L 173.15 429.54 L 177.32 433.94 L 181.50 433.89 L 185.67 434.32 L 189.85 434.03 L 194.02 434.30 L 198.20 436.07 L 202.37 435.42 L 206.55 433.53 L 210.72 433.63 L 214.90 434.55 L 219.07 433.44 L 223.24 433.51 L 227.42 433.45 L 231.59 434.26 L 235.77 434.54 L 239.94 436.36 L 244.12 436.46 L 248.29 436.36 L 252.47 437.10 L 256.64 435.28 L 260.82 435.85 L 264.99 435.06 L 269.17 435.10 L 273.34 434.06 L 277.52 435.26 L 281.69 433.64 L 285.87 433.18 L 290.04 430.52 L 294.22 430.16 L 298.39 430.38 L 302.57 429.63 L 306.74 430.36 L 310.92 432.09 L 315.09 431.97 L 319.27 432.13 L 323.44 429.53 L 327.62 430.30 L 331.79 428.56 L 335.97 428.67 L 340.14 429.25 L 344.31 430.92 L 348.49 438.11 L 352.66 440.93 L 356.84 439.93 L 361.01 440.18 L 365.19 437.65 L 369.36 437.46 L 373.54 434.90 L 377.71 434.46 L 381.89 433.79 L 386.06 433.44 L 390.24 435.20 L 394.41 433.59 L 398.59 432.88 L 402.76 433.00 L 406.94 432.28 L 411.11 432.00 L 415.29 433.47 L 419.46 433.25 L 423.64 431.93 L 427.81 433.40 L 431.99 432.73 L 436.16 433.57 L 440.34 435.09 L 444.51 433.38 L 448.69 434.72 L 452.86 433.36 L 457.03 435.93 L 461.21 434.88 L 465.38 434.49 L 469.56 434.79 L 473.73 433.55 L 477.91 431.98 L 482.08 433.62 L 486.26 432.72 L 490.43 432.89 L 494.61 433.10 L 498.78 433.53 L 502.96 428.31 L 507.13 429.77 L 511.31 428.88 L 515.48 429.52 L 519.66 423.52 L 523.83 424.30 L 528.01 422.99 L 532.18 423.21 L 536.36 424.17 L 540.53 424.94 L 544.71 424.08 L 548.88 424.33 L 553.06 422.12 L 557.23 423.30 L 561.41 426.59 L 565.58 425.85 L 569.76 425.11 L 573.93 426.82 L 578.10 425.80 L 582.28 424.55 L 586.45 426.01 L 590.63 425.37 L 594.80 424.96 L 598.98 423.71 L 603.15 423.36 L 607.33 423.25 L 611.50 423.49 L 615.68 422.87 L 619.85 422.67 L 624.03 422.31 L 628.20 419.69 L 632.38 419.49 L 636.55 419.79 L 640.73 420.07 L 644.90 418.10 L 649.08 418.40 L 653.25 416.77 L 657.43 415.55 L 661.60 416.48 L 665.78 417.16 L 669.95 418.94 L 674.13 420.42 L 678.30 419.19 L 682.48 421.20 L 686.65 424.13 L 690.83 422.02 L 695.00 421.16 L 699.17 419.68 L 703.35 419.27 L 707.52 419.44 L 711.70 418.66 L 715.87 419.46 L 720.05 419.37 L 724.22 417.71 L 728.40 419.81 L 732.57 419.63 L 736.75 419.00 L 740.92 420.80 L 745.10 419.23 L 749.27 419.33 L 753.45 417.25 L 757.62 417.15 L 761.80 417.37 L 765.97 416.75 L 770.15 416.54 L 774.32 413.60 L 778.50 410.15 L 782.67 411.21 L 786.85 410.17 L 791.02 411.12 L 795.20 410.87 L 799.37 409.72 L 803.55 411.06 L 807.72 410.57 L 811.90 407.59 L 816.07 407.54 L 820.24 406.90 L 824.42 407.69 L 828.59 408.70 L 832.77 406.80 L 836.94 405.82 L 841.12 403.86 L 845.29 401.74 L 849.47 402.10 L 853.64 399.38 L 857.82 396.47 L 861.99 389.34 L 866.17 390.89 L 870.34 382.68 L 874.52 390.67 L 878.69 383.33 L 882.87 384.55 L 887.04 382.06 L 891.22 374.42 L 895.39 385.45 L 899.57 381.65 L 903.74 389.62 L 907.92 389.38 L 912.09 394.09 L 916.27 387.98 L 920.44 392.34 L 924.62 390.35 L 928.79 390.21 L 932.97 387.93 L 937.14 389.10 L 941.31 388.19 L 945.49 391.11 L 949.66 388.81 L 953.84 382.62 L 958.01 386.14 L 962.19 379.97 L 966.36 380.55 L 970.54 375.39 L 974.71 374.22 L 978.89 379.45 L 983.06 381.42 L 987.24 380.55 L 991.41 378.13 L 995.59 378.92 L 999.76 382.96 L 1003.94 378.02 L 1008.11 378.32 L 1012.29 375.33 L 1016.46 371.30 L 1020.64 363.32 L 1024.81 358.21 L 1028.99 356.62 L 1033.16 354.83 L 1037.34 360.40 L 1041.51 352.51 L 1045.69 355.40 L 1049.86 347.83 L 1054.03 346.57 L 1058.21 333.93 L 1062.38 340.39 L 1066.56 336.81 L 1070.73 336.09 L 1074.91 328.31 L 1079.08 331.12 L 1083.26 323.08 L 1087.43 318.26 L 1091.61 308.68 L 1095.78 306.23 L 1099.96 310.24 L 1104.13 278.83 L 1108.31 302.37 L 1112.48 275.19 L 1116.66 287.94 L 1120.83 284.90 L 1125.01 273.12 L 1129.18 278.96 L 1133.36 278.78 L 1137.53 268.55 L 1141.71 241.72 L 1145.88 234.59 L 1150.06 229.12 L 1154.23 230.64 L 1158.41 234.09 L 1162.58 222.13 L 1166.76 218.35 L 1170.93 216.83 L 1175.10 187.42 L 1179.28 171.42 L 1183.45 140.47 L 1187.63 147.03 L 1191.80 166.53 L 1195.98 153.25 L 1200.15 260.42 L 1204.33 255.15 L 1208.50 248.54 L 1212.68 240.08 L 1216.85 281.05 L 1221.03 279.61 L 1225.20 263.21 L 1229.38 273.70 L 1233.55 254.58 L 1237.73 243.34 L 1241.90 240.02 L 1246.08 232.70 L 1250.25 218.97 L 1254.43 245.54 L 1258.60 222.51 L 1262.78 227.21 L 1266.95 251.43 L 1271.13 242.53 L 1275.30 246.80 L 1279.48 246.87 L 1283.65 236.82 L 1287.83 228.59 L 1292.00 243.94" fill="none" stroke="#1d4ed8" stroke-width="2"  />
  </g>
  <g>
    <text x="54" y="538" fill="#1f2937" font-size="16" font-weight="700">B. 绝对误差（越低越好）</text>
    <line x1="98" y1="558" x2="124" y2="558" stroke="#1d4ed8" stroke-width="2"  />
      <text x="130" y="562" fill="#24312e" font-size="12">持仓分段误差</text>
    <line x1="98" y1="560.00" x2="1292" y2="560.00" stroke="#d7e3df" stroke-width="1" />
      <text x="90" y="564.00" text-anchor="end" fill="#5b6b68" font-size="11">45.19%</text>
<line x1="98" y1="630.00" x2="1292" y2="630.00" stroke="#d7e3df" stroke-width="1" />
      <text x="90" y="634.00" text-anchor="end" fill="#5b6b68" font-size="11">33.89%</text>
<line x1="98" y1="700.00" x2="1292" y2="700.00" stroke="#d7e3df" stroke-width="1" />
      <text x="90" y="704.00" text-anchor="end" fill="#5b6b68" font-size="11">22.59%</text>
<line x1="98" y1="770.00" x2="1292" y2="770.00" stroke="#d7e3df" stroke-width="1" />
      <text x="90" y="774.00" text-anchor="end" fill="#5b6b68" font-size="11">11.30%</text>
<line x1="98" y1="840.00" x2="1292" y2="840.00" stroke="#d7e3df" stroke-width="1" />
      <text x="90" y="844.00" text-anchor="end" fill="#5b6b68" font-size="11">0.00%</text>
    <line x1="98.00" y1="560" x2="98.00" y2="840" stroke="#eef3f1" stroke-width="1" />
      <text x="98.00" y="868" text-anchor="middle" fill="#5b6b68" font-size="11">25-01-02</text>
<line x1="290.04" y1="560" x2="290.04" y2="840" stroke="#eef3f1" stroke-width="1" />
      <text x="290.04" y="868" text-anchor="middle" fill="#5b6b68" font-size="11">25-03-17</text>
<line x1="482.08" y1="560" x2="482.08" y2="840" stroke="#eef3f1" stroke-width="1" />
      <text x="482.08" y="868" text-anchor="middle" fill="#5b6b68" font-size="11">25-05-26</text>
<line x1="695.00" y1="560" x2="695.00" y2="840" stroke="#eef3f1" stroke-width="1" />
      <text x="695.00" y="868" text-anchor="middle" fill="#5b6b68" font-size="11">25-08-06</text>
<line x1="907.92" y1="560" x2="907.92" y2="840" stroke="#eef3f1" stroke-width="1" />
      <text x="907.92" y="868" text-anchor="middle" fill="#5b6b68" font-size="11">25-10-24</text>
<line x1="1099.96" y1="560" x2="1099.96" y2="840" stroke="#eef3f1" stroke-width="1" />
      <text x="1099.96" y="868" text-anchor="middle" fill="#5b6b68" font-size="11">25-12-29</text>
<line x1="1292.00" y1="560" x2="1292.00" y2="840" stroke="#eef3f1" stroke-width="1" />
      <text x="1292.00" y="868" text-anchor="middle" fill="#5b6b68" font-size="11">26-03-13</text>
    <line x1="1112.48" y1="560" x2="1112.48" y2="840" stroke="#f59e0b" stroke-width="1.4" stroke-dasharray="4 4" />
       <text x="1118.48" y="552" fill="#a16207" font-size="11">验证起点</text>
    <path d="M 98.00 839.27 L 102.17 839.52 L 106.35 839.93 L 110.52 839.45 L 114.70 839.64 L 118.87 838.89 L 123.05 836.67 L 127.22 836.05 L 131.40 824.54 L 135.57 830.19 L 139.75 829.59 L 143.92 834.78 L 148.10 829.76 L 152.27 839.76 L 156.45 837.61 L 160.62 836.00 L 164.80 832.44 L 168.97 834.19 L 173.15 815.63 L 177.32 839.62 L 181.50 836.15 L 185.67 839.49 L 189.85 835.88 L 194.02 828.69 L 198.20 837.12 L 202.37 831.68 L 206.55 838.50 L 210.72 833.94 L 214.90 836.01 L 219.07 838.87 L 223.24 839.97 L 227.42 835.43 L 231.59 836.74 L 235.77 830.02 L 239.94 838.16 L 244.12 836.83 L 248.29 833.96 L 252.47 835.35 L 256.64 835.92 L 260.82 837.03 L 264.99 839.00 L 269.17 839.78 L 273.34 831.61 L 277.52 835.77 L 281.69 839.08 L 285.87 829.58 L 290.04 839.87 L 294.22 837.53 L 298.39 837.49 L 302.57 835.65 L 306.74 832.97 L 310.92 836.56 L 315.09 837.74 L 319.27 832.32 L 323.44 835.13 L 327.62 833.42 L 331.79 838.38 L 335.97 835.23 L 340.14 837.25 L 344.31 836.88 L 348.49 822.82 L 352.66 839.18 L 356.84 836.57 L 361.01 832.05 L 365.19 839.33 L 369.36 828.52 L 373.54 839.50 L 377.71 837.70 L 381.89 838.98 L 386.06 833.49 L 390.24 832.97 L 394.41 839.47 L 398.59 837.62 L 402.76 836.69 L 406.94 839.94 L 411.11 831.81 L 415.29 839.79 L 419.46 839.22 L 423.64 834.67 L 427.81 837.94 L 431.99 832.95 L 436.16 836.06 L 440.34 833.58 L 444.51 835.97 L 448.69 835.84 L 452.86 825.83 L 457.03 836.58 L 461.21 836.89 L 465.38 836.13 L 469.56 834.21 L 473.73 834.66 L 477.91 833.27 L 482.08 836.18 L 486.26 838.05 L 490.43 836.65 L 494.61 836.81 L 498.78 839.75 L 502.96 831.33 L 507.13 839.73 L 511.31 835.09 L 515.48 821.44 L 519.66 835.01 L 523.83 834.99 L 528.01 836.99 L 532.18 833.85 L 536.36 837.25 L 540.53 838.85 L 544.71 837.97 L 548.88 830.40 L 553.06 833.82 L 557.23 826.82 L 561.41 837.19 L 565.58 838.68 L 569.76 829.76 L 573.93 835.28 L 578.10 835.98 L 582.28 831.52 L 586.45 839.54 L 590.63 839.83 L 594.80 834.83 L 598.98 838.25 L 603.15 839.32 L 607.33 837.69 L 611.50 837.85 L 615.68 833.85 L 619.85 837.87 L 624.03 829.00 L 628.20 839.15 L 632.38 836.66 L 636.55 837.25 L 640.73 838.87 L 644.90 836.34 L 649.08 833.86 L 653.25 835.73 L 657.43 835.53 L 661.60 836.91 L 665.78 830.25 L 669.95 836.15 L 674.13 835.81 L 678.30 827.92 L 682.48 828.29 L 686.65 832.45 L 690.83 837.55 L 695.00 835.97 L 699.17 839.89 L 703.35 837.15 L 707.52 838.64 L 711.70 833.22 L 715.87 839.87 L 720.05 834.07 L 724.22 831.12 L 728.40 839.26 L 732.57 839.96 L 736.75 829.89 L 740.92 837.80 L 745.10 838.94 L 749.27 832.32 L 753.45 839.07 L 757.62 836.61 L 761.80 838.03 L 765.97 838.98 L 770.15 827.63 L 774.32 827.12 L 778.50 834.71 L 782.67 837.69 L 786.85 833.43 L 791.02 839.66 L 795.20 837.07 L 799.37 832.01 L 803.55 839.72 L 807.72 833.73 L 811.90 839.05 L 816.07 837.62 L 820.24 834.95 L 824.42 830.65 L 828.59 836.89 L 832.77 837.26 L 836.94 833.20 L 841.12 835.92 L 845.29 834.97 L 849.47 836.05 L 853.64 830.01 L 857.82 836.51 L 861.99 832.10 L 866.17 837.99 L 870.34 808.49 L 874.52 818.85 L 878.69 832.93 L 882.87 827.05 L 887.04 825.09 L 891.22 807.84 L 895.39 828.47 L 899.57 807.96 L 903.74 839.47 L 907.92 835.80 L 912.09 819.15 L 916.27 821.38 L 920.44 837.56 L 924.62 839.36 L 928.79 833.47 L 932.97 836.93 L 937.14 839.45 L 941.31 827.55 L 945.49 833.50 L 949.66 839.31 L 953.84 824.68 L 958.01 825.83 L 962.19 837.45 L 966.36 819.86 L 970.54 834.50 L 974.71 818.67 L 978.89 830.80 L 983.06 837.98 L 987.24 832.67 L 991.41 828.19 L 995.59 823.90 L 999.76 830.00 L 1003.94 837.70 L 1008.11 830.88 L 1012.29 830.86 L 1016.46 816.62 L 1020.64 825.41 L 1024.81 835.42 L 1028.99 839.75 L 1033.16 825.81 L 1037.34 825.00 L 1041.51 827.98 L 1045.69 824.31 L 1049.86 833.90 L 1054.03 821.89 L 1058.21 819.74 L 1062.38 839.54 L 1066.56 838.84 L 1070.73 825.03 L 1074.91 827.27 L 1079.08 825.97 L 1083.26 829.45 L 1087.43 817.91 L 1091.61 836.05 L 1095.78 811.38 L 1099.96 779.59 L 1104.13 791.55 L 1108.31 825.38 L 1112.48 795.21 L 1116.66 830.02 L 1120.83 815.23 L 1125.01 815.87 L 1129.18 809.84 L 1133.36 821.23 L 1137.53 806.73 L 1141.71 826.84 L 1145.88 827.11 L 1150.06 836.59 L 1154.23 831.05 L 1158.41 819.01 L 1162.58 835.91 L 1166.76 827.58 L 1170.93 826.22 L 1175.10 823.05 L 1179.28 806.03 L 1183.45 827.77 L 1187.63 820.95 L 1191.80 796.34 L 1195.98 590.00 L 1200.15 837.38 L 1204.33 801.67 L 1208.50 839.95 L 1212.68 722.34 L 1216.85 833.20 L 1221.03 815.69 L 1225.20 831.65 L 1229.38 808.83 L 1233.55 798.14 L 1237.73 836.22 L 1241.90 828.30 L 1246.08 831.92 L 1250.25 807.90 L 1254.43 783.38 L 1258.60 828.11 L 1262.78 790.07 L 1266.95 829.25 L 1271.13 826.31 L 1275.30 836.61 L 1279.48 816.87 L 1283.65 824.51 L 1287.83 817.71 L 1292.00 837.53" fill="none" stroke="#1d4ed8" stroke-width="2"  />
  </g>
</svg>