<?xml version="1.0" encoding="UTF-8"?>
<svg xmlns="http://www.w3.org/2000/svg" width="1360" height="980" viewBox="0 0 1360 980">
  <defs>
    <linearGradient id="bg" x1="0" y1="0" x2="1" y2="1">
      <stop offset="0%" stop-color="#f4efe6" />
      <stop offset="100%" stop-color="#eef5f2" />
    </linearGradient>
  </defs>
  <rect x="0" y="0" width="1360" height="980" fill="url(#bg)" />
  <text x="46" y="36" fill="#1f2937" font-size="31" font-weight="700">161217 离线研究图（持仓逐日估值版）</text>
  <text x="46" y="66" fill="#5b6b68" font-size="13">历史前十大持仓 + 持仓逐日涨跌幅 + USDCNY；双目标 lambda=0.10；披露期数 43；覆盖率均值 77.0%</text>
  <g>
    <text x="54" y="110" fill="#1f2937" font-size="16" font-weight="700">A. 净值拟合（同日对齐，无平移）</text>
    <line x1="98" y1="130" x2="124" y2="130" stroke="#0f766e" stroke-width="2"  />
      <text x="130" y="134" fill="#24312e" font-size="12">真实净值</text>
<line x1="313" y1="130" x2="339" y2="130" stroke="#1d4ed8" stroke-width="2"  />
      <text x="345" y="134" fill="#24312e" font-size="12">持仓分段估值</text>
    <line x1="98" y1="132.00" x2="1292" y2="132.00" stroke="#d7e3df" stroke-width="1" />
      <text x="90" y="136.00" text-anchor="end" fill="#5b6b68" font-size="11">2.758</text>
<line x1="98" y1="209.50" x2="1292" y2="209.50" stroke="#d7e3df" stroke-width="1" />
      <text x="90" y="213.50" text-anchor="end" fill="#5b6b68" font-size="11">2.373</text>
<line x1="98" y1="287.00" x2="1292" y2="287.00" stroke="#d7e3df" stroke-width="1" />
      <text x="90" y="291.00" text-anchor="end" fill="#5b6b68" font-size="11">1.987</text>
<line x1="98" y1="364.50" x2="1292" y2="364.50" stroke="#d7e3df" stroke-width="1" />
      <text x="90" y="368.50" text-anchor="end" fill="#5b6b68" font-size="11">1.602</text>
<line x1="98" y1="442.00" x2="1292" y2="442.00" stroke="#d7e3df" stroke-width="1" />
      <text x="90" y="446.00" text-anchor="end" fill="#5b6b68" font-size="11">1.216</text>
    <line x1="98.00" y1="132" x2="98.00" y2="442" stroke="#eef3f1" stroke-width="1" />
      <text x="98.00" y="470" text-anchor="middle" fill="#5b6b68" font-size="11">25-01-02</text>
<line x1="290.04" y1="132" x2="290.04" y2="442" stroke="#eef3f1" stroke-width="1" />
      <text x="290.04" y="470" text-anchor="middle" fill="#5b6b68" font-size="11">25-03-17</text>
<line x1="482.08" y1="132" x2="482.08" y2="442" stroke="#eef3f1" stroke-width="1" />
      <text x="482.08" y="470" text-anchor="middle" fill="#5b6b68" font-size="11">25-05-26</text>
<line x1="695.00" y1="132" x2="695.00" y2="442" stroke="#eef3f1" stroke-width="1" />
      <text x="695.00" y="470" text-anchor="middle" fill="#5b6b68" font-size="11">25-08-06</text>
<line x1="907.92" y1="132" x2="907.92" y2="442" stroke="#eef3f1" stroke-width="1" />
      <text x="907.92" y="470" text-anchor="middle" fill="#5b6b68" font-size="11">25-10-24</text>
<line x1="1099.96" y1="132" x2="1099.96" y2="442" stroke="#eef3f1" stroke-width="1" />
      <text x="1099.96" y="470" text-anchor="middle" fill="#5b6b68" font-size="11">25-12-29</text>
<line x1="1292.00" y1="132" x2="1292.00" y2="442" stroke="#eef3f1" stroke-width="1" />
      <text x="1292.00" y="470" text-anchor="middle" fill="#5b6b68" font-size="11">26-03-13</text>
    <line x1="1112.48" y1="132" x2="1112.48" y2="442" stroke="#f59e0b" stroke-width="1.4" stroke-dasharray="4 4" />
       <text x="1118.48" y="124" fill="#a16207" font-size="11">验证起点</text>
    <path d="M 98.00 419.31 L 102.17 417.58 L 106.35 417.34 L 110.52 414.80 L 114.70 416.87 L 118.87 418.66 L 123.05 419.63 L 127.22 416.87 L 131.40 413.68 L 135.57 416.79 L 139.75 412.57 L 143.92 412.61 L 148.10 415.41 L 152.27 417.56 L 156.45 418.78 L 160.62 419.97 L 164.80 417.90 L 168.97 416.43 L 173.15 416.97 L 177.32 415.49 L 181.50 412.61 L 185.67 411.73 L 189.85 411.08 L 194.02 412.81 L 198.20 414.10 L 202.37 413.32 L 206.55 418.60 L 210.72 420.83 L 214.90 421.20 L 219.07 420.73 L 223.24 421.98 L 227.42 422.44 L 231.59 425.01 L 235.77 424.17 L 239.94 424.91 L 244.12 428.13 L 248.29 424.69 L 252.47 425.07 L 256.64 424.07 L 260.82 421.64 L 264.99 419.49 L 269.17 416.79 L 273.34 416.43 L 277.52 417.03 L 281.69 412.75 L 285.87 409.82 L 290.04 411.33 L 294.22 408.99 L 298.39 408.49 L 302.57 408.19 L 306.74 412.17 L 310.92 408.61 L 315.09 406.10 L 319.27 407.45 L 323.44 409.50 L 327.62 410.06 L 331.79 411.02 L 335.97 409.96 L 340.14 412.43 L 344.31 415.16 L 348.49 435.51 L 352.66 431.25 L 356.84 429.76 L 361.01 423.99 L 365.19 423.35 L 369.36 418.16 L 373.54 418.80 L 377.71 417.24 L 381.89 417.90 L 386.06 418.60 L 390.24 412.77 L 394.41 413.32 L 398.59 416.75 L 402.76 417.11 L 406.94 417.48 L 411.11 418.48 L 415.29 419.53 L 419.46 420.69 L 423.64 417.09 L 427.81 415.31 L 431.99 417.01 L 436.16 417.42 L 440.34 416.03 L 444.51 415.06 L 448.69 412.61 L 452.86 414.78 L 457.03 416.15 L 461.21 416.49 L 465.38 416.03 L 469.56 409.32 L 473.73 410.54 L 477.91 411.41 L 482.08 411.41 L 486.26 415.65 L 490.43 414.20 L 494.61 413.92 L 498.78 415.18 L 502.96 413.54 L 507.13 411.73 L 511.31 413.28 L 515.48 411.14 L 519.66 410.66 L 523.83 410.40 L 528.01 406.40 L 532.18 404.11 L 536.36 402.98 L 540.53 404.65 L 544.71 403.57 L 548.88 404.45 L 553.06 407.23 L 557.23 408.21 L 561.41 406.18 L 565.58 406.56 L 569.76 404.67 L 573.93 404.05 L 578.10 400.45 L 582.28 400.71 L 586.45 397.38 L 590.63 394.56 L 594.80 395.02 L 598.98 396.79 L 603.15 399.45 L 607.33 397.42 L 611.50 402.02 L 615.68 399.06 L 619.85 397.50 L 624.03 395.29 L 628.20 397.58 L 632.38 398.20 L 636.55 397.48 L 640.73 392.73 L 644.90 386.64 L 649.08 378.46 L 653.25 379.73 L 657.43 374.52 L 661.60 376.21 L 665.78 378.90 L 669.95 378.62 L 674.13 377.58 L 678.30 386.00 L 682.48 388.33 L 686.65 384.77 L 690.83 383.04 L 695.00 379.37 L 699.17 375.69 L 703.35 372.71 L 707.52 373.38 L 711.70 372.53 L 715.87 369.05 L 720.05 371.45 L 724.22 367.00 L 728.40 368.33 L 732.57 370.16 L 736.75 367.45 L 740.92 366.98 L 745.10 364.43 L 749.27 352.27 L 753.45 353.19 L 757.62 356.53 L 761.80 354.26 L 765.97 347.91 L 770.15 338.66 L 774.32 339.91 L 778.50 340.57 L 782.67 350.14 L 786.85 339.34 L 791.02 340.25 L 795.20 337.98 L 799.37 340.97 L 803.55 336.07 L 807.72 332.55 L 811.90 333.29 L 816.07 336.11 L 820.24 334.62 L 824.42 345.09 L 828.59 340.15 L 832.77 338.26 L 836.94 338.62 L 841.12 335.63 L 845.29 329.84 L 849.47 329.64 L 853.64 320.31 L 857.82 312.19 L 861.99 288.15 L 866.17 296.01 L 870.34 288.55 L 874.52 297.58 L 878.69 293.72 L 882.87 296.91 L 887.04 302.06 L 891.22 303.36 L 895.39 299.93 L 899.57 302.88 L 903.74 298.70 L 907.92 294.84 L 912.09 287.00 L 916.27 296.67 L 920.44 285.17 L 924.62 281.86 L 928.79 289.27 L 932.97 289.53 L 937.14 298.08 L 941.31 296.45 L 945.49 287.16 L 949.66 284.63 L 953.84 282.84 L 958.01 288.39 L 962.19 288.39 L 966.36 277.66 L 970.54 284.45 L 974.71 286.26 L 978.89 294.94 L 983.06 285.19 L 987.24 289.01 L 991.41 302.94 L 995.59 306.66 L 999.76 300.89 L 1003.94 301.98 L 1008.11 300.17 L 1012.29 297.60 L 1016.46 287.04 L 1020.64 290.20 L 1024.81 287.99 L 1028.99 285.80 L 1033.16 279.46 L 1037.34 278.86 L 1041.51 288.27 L 1045.69 286.46 L 1049.86 288.01 L 1054.03 284.01 L 1058.21 285.70 L 1062.38 294.16 L 1066.56 285.64 L 1070.73 284.85 L 1074.91 281.47 L 1079.08 272.89 L 1083.26 270.62 L 1087.43 269.11 L 1091.61 272.21 L 1095.78 263.40 L 1099.96 269.29 L 1104.13 263.20 L 1108.31 259.42 L 1112.48 251.68 L 1116.66 235.36 L 1120.83 234.30 L 1125.01 240.03 L 1129.18 229.15 L 1133.36 226.30 L 1137.53 221.98 L 1141.71 219.52 L 1145.88 214.80 L 1150.06 220.05 L 1154.23 219.18 L 1158.41 218.86 L 1162.58 209.47 L 1166.76 210.34 L 1170.93 205.39 L 1175.10 185.05 L 1179.28 186.74 L 1183.45 164.01 L 1187.63 158.56 L 1191.80 178.14 L 1195.98 205.51 L 1200.15 190.98 L 1204.33 184.61 L 1208.50 203.72 L 1212.68 202.20 L 1216.85 192.77 L 1221.03 190.98 L 1225.20 179.54 L 1229.38 174.74 L 1233.55 192.33 L 1237.73 175.20 L 1241.90 163.74 L 1246.08 166.56 L 1250.25 154.74 L 1254.43 134.76 L 1258.60 149.21 L 1262.78 152.73 L 1266.95 156.47 L 1271.13 166.66 L 1275.30 166.30 L 1279.48 167.38 L 1283.65 167.60 L 1287.83 166.86 L 1292.00 178.84" fill="none" stroke="#0f766e" stroke-width="2"  />
<path d="M 98.00 415.35 L 102.17 418.81 L 106.35 416.38 L 110.52 416.69 L 114.70 413.76 L 118.87 417.85 L 123.05 419.67 L 127.22 419.95 L 131.40 415.68 L 135.57 408.94 L 139.75 416.79 L 143.92 411.22 L 148.10 413.75 L 152.27 416.74 L 156.45 421.19 L 160.62 418.31 L 164.80 419.76 L 168.97 417.39 L 173.15 414.48 L 177.32 417.15 L 181.50 415.00 L 185.67 404.53 L 189.85 412.74 L 194.02 410.90 L 198.20 411.83 L 202.37 416.36 L 206.55 414.26 L 210.72 419.99 L 214.90 420.92 L 219.07 421.59 L 223.24 423.44 L 227.42 422.87 L 231.59 422.34 L 235.77 424.90 L 239.94 423.70 L 244.12 425.75 L 248.29 431.33 L 252.47 423.86 L 256.64 424.19 L 260.82 423.70 L 264.99 420.73 L 269.17 418.27 L 273.34 415.84 L 277.52 415.50 L 281.69 416.47 L 285.87 408.55 L 290.04 407.07 L 294.22 410.81 L 298.39 407.46 L 302.57 407.89 L 306.74 408.22 L 310.92 413.84 L 315.09 407.03 L 319.27 406.18 L 323.44 408.27 L 327.62 413.28 L 331.79 409.93 L 335.97 410.46 L 340.14 409.10 L 344.31 423.40 L 348.49 438.08 L 352.66 440.77 L 356.84 419.67 L 361.01 433.38 L 365.19 420.75 L 369.36 423.37 L 373.54 416.82 L 377.71 417.93 L 381.89 416.15 L 386.06 418.67 L 390.24 420.56 L 394.41 410.07 L 398.59 413.20 L 402.76 415.10 L 406.94 416.86 L 411.11 417.51 L 415.29 418.46 L 419.46 422.59 L 423.64 417.04 L 427.81 417.40 L 431.99 414.29 L 436.16 416.52 L 440.34 416.95 L 444.51 415.01 L 448.69 414.74 L 452.86 411.73 L 457.03 415.56 L 461.21 416.38 L 465.38 415.94 L 469.56 416.27 L 473.73 407.93 L 477.91 408.86 L 482.08 412.45 L 486.26 412.11 L 490.43 416.00 L 494.61 413.48 L 498.78 413.52 L 502.96 408.70 L 507.13 412.74 L 511.31 410.80 L 515.48 412.79 L 519.66 409.28 L 523.83 410.09 L 528.01 409.39 L 532.18 404.88 L 536.36 400.51 L 540.53 402.28 L 544.71 404.90 L 548.88 403.01 L 553.06 405.36 L 557.23 408.46 L 561.41 409.84 L 565.58 408.82 L 569.76 406.21 L 573.93 400.70 L 578.10 404.10 L 582.28 398.22 L 586.45 399.90 L 590.63 392.15 L 594.80 393.81 L 598.98 395.85 L 603.15 399.36 L 607.33 399.10 L 611.50 396.80 L 615.68 403.00 L 619.85 398.51 L 624.03 396.34 L 628.20 394.97 L 632.38 397.36 L 636.55 398.64 L 640.73 396.92 L 644.90 389.12 L 649.08 383.12 L 653.25 376.49 L 657.43 379.69 L 661.60 373.44 L 665.78 375.86 L 669.95 378.19 L 674.13 380.56 L 678.30 376.85 L 682.48 387.12 L 686.65 389.51 L 690.83 383.42 L 695.00 382.45 L 699.17 377.98 L 703.35 373.82 L 707.52 370.02 L 711.70 372.37 L 715.87 371.48 L 720.05 368.27 L 724.22 371.37 L 728.40 363.26 L 732.57 368.76 L 736.75 369.35 L 740.92 365.99 L 745.10 361.81 L 749.27 362.26 L 753.45 349.60 L 757.62 352.59 L 761.80 356.18 L 765.97 352.76 L 770.15 344.32 L 774.32 338.03 L 778.50 339.64 L 782.67 340.43 L 786.85 350.17 L 791.02 329.70 L 795.20 339.88 L 799.37 333.80 L 803.55 340.42 L 807.72 334.60 L 811.90 328.02 L 816.07 332.57 L 820.24 336.56 L 824.42 334.36 L 828.59 345.67 L 832.77 336.65 L 836.94 336.59 L 841.12 336.74 L 845.29 333.92 L 849.47 327.48 L 853.64 329.17 L 857.82 318.23 L 861.99 293.88 L 866.17 293.20 L 870.34 280.69 L 874.52 289.61 L 878.69 298.87 L 882.87 293.20 L 887.04 302.77 L 891.22 297.04 L 895.39 316.21 L 899.57 296.80 L 903.74 298.65 L 907.92 297.17 L 912.09 292.41 L 916.27 285.41 L 920.44 296.79 L 924.62 282.96 L 928.79 280.35 L 932.97 292.59 L 937.14 296.33 L 941.31 297.84 L 945.49 295.14 L 949.66 280.77 L 953.84 279.58 L 958.01 281.72 L 962.19 289.08 L 966.36 291.77 L 970.54 275.18 L 974.71 287.11 L 978.89 285.41 L 983.06 295.52 L 987.24 287.91 L 991.41 288.47 L 995.59 308.02 L 999.76 306.59 L 1003.94 297.33 L 1008.11 303.20 L 1012.29 300.99 L 1016.46 294.38 L 1020.64 284.96 L 1024.81 286.41 L 1028.99 286.66 L 1033.16 284.07 L 1037.34 274.07 L 1041.51 278.54 L 1045.69 288.25 L 1049.86 288.54 L 1054.03 288.18 L 1058.21 280.74 L 1062.38 287.62 L 1066.56 292.88 L 1070.73 283.75 L 1074.91 281.81 L 1079.08 272.24 L 1083.26 270.05 L 1087.43 269.83 L 1091.61 270.01 L 1095.78 273.80 L 1099.96 260.21 L 1104.13 269.55 L 1108.31 261.94 L 1112.48 238.07 L 1116.66 253.46 L 1120.83 237.30 L 1125.01 232.12 L 1129.18 237.18 L 1133.36 220.34 L 1137.53 224.32 L 1141.71 214.48 L 1145.88 218.79 L 1150.06 215.35 L 1154.23 226.16 L 1158.41 220.17 L 1162.58 211.14 L 1166.76 210.85 L 1170.93 203.51 L 1175.10 198.84 L 1179.28 174.65 L 1183.45 182.50 L 1187.63 156.03 L 1191.80 178.29 L 1195.98 197.43 L 1200.15 192.96 L 1204.33 190.34 L 1208.50 192.73 L 1212.68 198.38 L 1216.85 191.46 L 1221.03 191.17 L 1225.20 186.63 L 1229.38 188.75 L 1233.55 171.84 L 1237.73 185.49 L 1241.90 171.48 L 1246.08 160.96 L 1250.25 160.03 L 1254.43 135.89 L 1258.60 141.51 L 1262.78 149.36 L 1266.95 158.92 L 1271.13 148.27 L 1275.30 172.64 L 1279.48 164.96 L 1283.65 166.14 L 1287.83 165.06 L 1292.00 169.84" fill="none" stroke="#1d4ed8" stroke-width="2"  />
  </g>
  <g>
    <text x="54" y="538" fill="#1f2937" font-size="16" font-weight="700">B. 绝对误差（越低越好）</text>
    <line x1="98" y1="558" x2="124" y2="558" stroke="#1d4ed8" stroke-width="2"  />
      <text x="130" y="562" fill="#24312e" font-size="12">持仓分段误差</text>
    <line x1="98" y1="560.00" x2="1292" y2="560.00" stroke="#d7e3df" stroke-width="1" />
      <text x="90" y="564.00" text-anchor="end" fill="#5b6b68" font-size="11">4.72%</text>
<line x1="98" y1="630.00" x2="1292" y2="630.00" stroke="#d7e3df" stroke-width="1" />
      <text x="90" y="634.00" text-anchor="end" fill="#5b6b68" font-size="11">3.54%</text>
<line x1="98" y1="700.00" x2="1292" y2="700.00" stroke="#d7e3df" stroke-width="1" />
      <text x="90" y="704.00" text-anchor="end" fill="#5b6b68" font-size="11">2.36%</text>
<line x1="98" y1="770.00" x2="1292" y2="770.00" stroke="#d7e3df" stroke-width="1" />
      <text x="90" y="774.00" text-anchor="end" fill="#5b6b68" font-size="11">1.18%</text>
<line x1="98" y1="840.00" x2="1292" y2="840.00" stroke="#d7e3df" stroke-width="1" />
      <text x="90" y="844.00" text-anchor="end" fill="#5b6b68" font-size="11">0.00%</text>
    <line x1="98.00" y1="560" x2="98.00" y2="840" stroke="#eef3f1" stroke-width="1" />
      <text x="98.00" y="868" text-anchor="middle" fill="#5b6b68" font-size="11">25-01-02</text>
<line x1="290.04" y1="560" x2="290.04" y2="840" stroke="#eef3f1" stroke-width="1" />
      <text x="290.04" y="868" text-anchor="middle" fill="#5b6b68" font-size="11">25-03-17</text>
<line x1="482.08" y1="560" x2="482.08" y2="840" stroke="#eef3f1" stroke-width="1" />
      <text x="482.08" y="868" text-anchor="middle" fill="#5b6b68" font-size="11">25-05-26</text>
<line x1="695.00" y1="560" x2="695.00" y2="840" stroke="#eef3f1" stroke-width="1" />
      <text x="695.00" y="868" text-anchor="middle" fill="#5b6b68" font-size="11">25-08-06</text>
<line x1="907.92" y1="560" x2="907.92" y2="840" stroke="#eef3f1" stroke-width="1" />
      <text x="907.92" y="868" text-anchor="middle" fill="#5b6b68" font-size="11">25-10-24</text>
<line x1="1099.96" y1="560" x2="1099.96" y2="840" stroke="#eef3f1" stroke-width="1" />
      <text x="1099.96" y="868" text-anchor="middle" fill="#5b6b68" font-size="11">25-12-29</text>
<line x1="1292.00" y1="560" x2="1292.00" y2="840" stroke="#eef3f1" stroke-width="1" />
      <text x="1292.00" y="868" text-anchor="middle" fill="#5b6b68" font-size="11">26-03-13</text>
    <line x1="1112.48" y1="560" x2="1112.48" y2="840" stroke="#f59e0b" stroke-width="1.4" stroke-dasharray="4 4" />
       <text x="1118.48" y="552" fill="#a16207" font-size="11">验证起点</text>
    <path d="M 98.00 752.14 L 102.17 812.81 L 106.35 818.93 L 110.52 798.73 L 114.70 771.53 L 118.87 822.06 L 123.05 839.08 L 127.22 772.38 L 131.40 796.44 L 135.57 667.13 L 139.75 748.55 L 143.92 809.94 L 148.10 803.78 L 152.27 822.08 L 156.45 786.66 L 160.62 803.02 L 164.80 798.93 L 168.97 819.00 L 173.15 785.06 L 177.32 803.47 L 181.50 788.26 L 185.67 684.62 L 189.85 804.41 L 194.02 798.54 L 198.20 790.49 L 202.37 773.85 L 206.55 743.87 L 210.72 821.16 L 214.90 833.89 L 219.07 820.75 L 223.24 807.22 L 227.42 830.43 L 231.59 779.23 L 235.77 823.56 L 239.94 812.58 L 244.12 785.45 L 248.29 689.56 L 252.47 812.39 L 256.64 837.19 L 260.82 793.83 L 264.99 812.37 L 269.17 807.60 L 273.34 826.99 L 277.52 806.27 L 281.69 759.33 L 285.87 812.70 L 290.04 748.21 L 294.22 801.10 L 298.39 817.96 L 302.57 833.63 L 306.74 754.61 L 310.92 728.31 L 315.09 820.31 L 319.27 813.16 L 323.44 813.65 L 327.62 770.92 L 331.79 816.46 L 335.97 829.30 L 340.14 767.83 L 344.31 660.00 L 348.49 779.13 L 352.66 618.55 L 356.84 606.80 L 361.01 627.82 L 365.19 781.35 L 369.36 724.81 L 373.54 796.04 L 377.71 824.68 L 381.89 801.40 L 386.06 838.57 L 390.24 671.29 L 394.41 769.43 L 398.59 761.75 L 402.76 795.60 L 406.94 826.43 L 411.11 818.52 L 415.29 816.31 L 419.46 797.59 L 423.64 838.77 L 427.81 794.09 L 431.99 779.94 L 436.16 820.18 L 440.34 819.87 L 444.51 838.90 L 448.69 793.94 L 452.86 773.28 L 457.03 827.15 L 461.21 837.51 L 465.38 838.11 L 469.56 691.02 L 473.73 783.95 L 477.91 785.17 L 482.08 817.38 L 486.26 762.51 L 490.43 800.68 L 494.61 830.37 L 498.78 803.53 L 502.96 734.93 L 507.13 818.23 L 511.31 786.13 L 515.48 804.58 L 519.66 810.18 L 523.83 833.21 L 528.01 776.71 L 532.18 823.72 L 536.36 788.28 L 540.53 790.11 L 544.71 811.98 L 548.88 809.78 L 553.06 800.30 L 557.23 834.64 L 561.41 762.62 L 565.58 792.11 L 569.76 807.64 L 573.93 769.74 L 578.10 764.31 L 582.28 788.32 L 586.45 788.23 L 590.63 790.96 L 594.80 815.36 L 598.98 820.69 L 603.15 838.20 L 607.33 805.33 L 611.50 731.21 L 615.68 758.77 L 619.85 819.25 L 624.03 818.52 L 628.20 786.41 L 632.38 822.71 L 636.55 816.19 L 640.73 755.51 L 644.90 790.87 L 649.08 750.30 L 653.25 777.31 L 657.43 741.60 L 661.60 786.96 L 665.78 781.26 L 669.95 831.76 L 674.13 782.62 L 678.30 659.41 L 682.48 815.86 L 686.65 746.83 L 690.83 832.61 L 695.00 780.47 L 699.17 796.25 L 703.35 819.06 L 707.52 776.49 L 711.70 836.88 L 715.87 794.67 L 720.05 780.23 L 724.22 758.88 L 728.40 745.50 L 732.57 813.68 L 736.75 804.50 L 740.92 821.57 L 745.10 791.79 L 749.27 662.69 L 753.45 775.97 L 757.62 769.11 L 761.80 805.69 L 765.97 755.04 L 770.15 743.54 L 774.32 807.90 L 778.50 824.11 L 782.67 668.67 L 786.85 655.00 L 791.02 659.25 L 795.20 807.68 L 799.37 716.87 L 803.55 766.30 L 807.72 805.69 L 811.90 751.32 L 816.07 780.07 L 820.24 807.35 L 824.42 653.40 L 828.59 745.47 L 832.77 812.57 L 836.94 805.30 L 841.12 821.13 L 845.29 772.15 L 849.47 804.12 L 853.64 696.49 L 857.82 744.27 L 861.99 754.63 L 866.17 797.39 L 870.34 722.75 L 874.52 718.54 L 878.69 762.08 L 882.87 783.45 L 887.04 828.95 L 891.22 742.03 L 895.39 590.00 L 899.57 745.86 L 903.74 839.20 L 907.92 804.76 L 912.09 759.69 L 916.27 668.64 L 920.44 668.25 L 924.62 823.75 L 928.79 706.64 L 932.97 794.37 L 937.14 813.35 L 941.31 818.87 L 945.49 721.52 L 949.66 782.93 L 953.84 792.05 L 958.01 740.63 L 962.19 829.77 L 966.36 635.16 L 970.54 703.17 L 974.71 827.35 L 978.89 695.50 L 983.06 687.36 L 987.24 823.55 L 991.41 616.19 L 995.59 818.69 L 999.76 752.38 L 1003.94 768.31 L 1008.11 793.44 L 1012.29 788.20 L 1016.46 731.00 L 1020.64 761.64 L 1024.81 816.54 L 1028.99 827.20 L 1033.16 772.88 L 1037.34 770.21 L 1041.51 695.06 L 1045.69 813.39 L 1049.86 832.04 L 1054.03 778.46 L 1058.21 766.67 L 1062.38 741.17 L 1066.56 732.72 L 1070.73 823.74 L 1074.91 835.14 L 1079.08 830.65 L 1083.26 831.83 L 1087.43 829.74 L 1091.61 808.59 L 1095.78 694.18 L 1099.96 710.88 L 1104.13 751.01 L 1108.31 805.01 L 1112.48 654.26 L 1116.66 602.00 L 1120.83 800.66 L 1125.01 734.89 L 1129.18 735.90 L 1133.36 763.17 L 1137.53 810.12 L 1141.71 775.91 L 1145.88 789.80 L 1150.06 780.21 L 1154.23 751.45 L 1158.41 823.33 L 1162.58 819.29 L 1166.76 833.59 L 1170.93 816.82 L 1175.10 676.82 L 1179.28 696.46 L 1183.45 629.98 L 1187.63 811.57 L 1191.80 838.22 L 1195.98 740.30 L 1200.15 816.33 L 1204.33 772.21 L 1208.50 704.82 L 1212.68 793.24 L 1216.85 824.28 L 1221.03 837.75 L 1225.20 757.10 L 1229.38 677.61 L 1233.55 594.04 L 1237.73 720.62 L 1241.90 752.21 L 1246.08 776.14 L 1250.25 780.97 L 1254.43 827.81 L 1258.60 754.98 L 1262.78 802.60 L 1266.95 812.51 L 1271.13 630.08 L 1275.30 767.67 L 1279.48 812.35 L 1283.65 823.22 L 1287.83 819.49 L 1292.00 734.78" fill="none" stroke="#1d4ed8" stroke-width="2"  />
  </g>
</svg>