<?xml version="1.0" encoding="UTF-8"?>
<svg xmlns="http://www.w3.org/2000/svg" width="1360" height="980" viewBox="0 0 1360 980">
  <defs>
    <linearGradient id="bg" x1="0" y1="0" x2="1" y2="1">
      <stop offset="0%" stop-color="#f4efe6" />
      <stop offset="100%" stop-color="#eef5f2" />
    </linearGradient>
  </defs>
  <rect x="0" y="0" width="1360" height="980" fill="url(#bg)" />
  <text x="46" y="36" fill="#1f2937" font-size="31" font-weight="700">162415 离线研究图（持仓逐日估值版）</text>
  <text x="46" y="66" fill="#5b6b68" font-size="13">历史前十大持仓 + 持仓逐日涨跌幅 + USDCNY；双目标 lambda=0.10；披露期数 32；覆盖率均值 92.1%</text>
  <g>
    <text x="54" y="110" fill="#1f2937" font-size="16" font-weight="700">A. 净值拟合（同日对齐，无平移）</text>
    <line x1="98" y1="130" x2="124" y2="130" stroke="#0f766e" stroke-width="2"  />
      <text x="130" y="134" fill="#24312e" font-size="12">真实净值</text>
<line x1="313" y1="130" x2="339" y2="130" stroke="#1d4ed8" stroke-width="2"  />
      <text x="345" y="134" fill="#24312e" font-size="12">持仓分段估值</text>
    <line x1="98" y1="132.00" x2="1292" y2="132.00" stroke="#d7e3df" stroke-width="1" />
      <text x="90" y="136.00" text-anchor="end" fill="#5b6b68" font-size="11">3.176</text>
<line x1="98" y1="209.50" x2="1292" y2="209.50" stroke="#d7e3df" stroke-width="1" />
      <text x="90" y="213.50" text-anchor="end" fill="#5b6b68" font-size="11">2.961</text>
<line x1="98" y1="287.00" x2="1292" y2="287.00" stroke="#d7e3df" stroke-width="1" />
      <text x="90" y="291.00" text-anchor="end" fill="#5b6b68" font-size="11">2.747</text>
<line x1="98" y1="364.50" x2="1292" y2="364.50" stroke="#d7e3df" stroke-width="1" />
      <text x="90" y="368.50" text-anchor="end" fill="#5b6b68" font-size="11">2.532</text>
<line x1="98" y1="442.00" x2="1292" y2="442.00" stroke="#d7e3df" stroke-width="1" />
      <text x="90" y="446.00" text-anchor="end" fill="#5b6b68" font-size="11">2.317</text>
    <line x1="98.00" y1="132" x2="98.00" y2="442" stroke="#eef3f1" stroke-width="1" />
      <text x="98.00" y="470" text-anchor="middle" fill="#5b6b68" font-size="11">25-01-02</text>
<line x1="290.72" y1="132" x2="290.72" y2="442" stroke="#eef3f1" stroke-width="1" />
      <text x="290.72" y="470" text-anchor="middle" fill="#5b6b68" font-size="11">25-03-17</text>
<line x1="479.24" y1="132" x2="479.24" y2="442" stroke="#eef3f1" stroke-width="1" />
      <text x="479.24" y="470" text-anchor="middle" fill="#5b6b68" font-size="11">25-05-23</text>
<line x1="697.09" y1="132" x2="697.09" y2="442" stroke="#eef3f1" stroke-width="1" />
      <text x="697.09" y="470" text-anchor="middle" fill="#5b6b68" font-size="11">25-08-06</text>
<line x1="910.76" y1="132" x2="910.76" y2="442" stroke="#eef3f1" stroke-width="1" />
      <text x="910.76" y="470" text-anchor="middle" fill="#5b6b68" font-size="11">25-10-24</text>
<line x1="1099.28" y1="132" x2="1099.28" y2="442" stroke="#eef3f1" stroke-width="1" />
      <text x="1099.28" y="470" text-anchor="middle" fill="#5b6b68" font-size="11">25-12-26</text>
<line x1="1292.00" y1="132" x2="1292.00" y2="442" stroke="#eef3f1" stroke-width="1" />
      <text x="1292.00" y="470" text-anchor="middle" fill="#5b6b68" font-size="11">26-03-12</text>
    <line x1="1116.04" y1="132" x2="1116.04" y2="442" stroke="#f59e0b" stroke-width="1.4" stroke-dasharray="4 4" />
       <text x="1122.04" y="124" fill="#a16207" font-size="11">验证起点</text>
    <path d="M 98.00 237.38 L 102.19 217.88 L 106.38 214.26 L 110.57 233.04 L 114.76 229.79 L 118.95 229.79 L 123.14 238.82 L 127.33 234.13 L 131.52 236.29 L 135.71 212.46 L 139.89 217.51 L 144.08 204.51 L 148.27 204.51 L 152.46 199.82 L 156.65 204.15 L 160.84 198.01 L 165.03 204.15 L 169.22 198.74 L 173.41 208.85 L 177.60 204.88 L 181.79 224.74 L 185.98 221.49 L 190.17 233.04 L 194.36 233.04 L 198.55 217.51 L 202.74 218.60 L 206.93 218.96 L 211.12 222.21 L 215.31 222.57 L 219.49 231.24 L 223.68 257.24 L 227.87 261.21 L 232.06 265.90 L 236.25 269.52 L 240.44 283.60 L 244.63 267.71 L 248.82 285.40 L 253.01 302.38 L 257.20 288.65 L 261.39 312.49 L 265.58 313.57 L 269.77 346.07 L 273.96 354.38 L 278.15 350.04 L 282.34 371.71 L 286.53 353.29 L 290.72 352.93 L 294.91 367.74 L 299.09 351.85 L 303.28 352.57 L 307.47 349.32 L 311.66 315.38 L 315.85 307.79 L 320.04 320.79 L 324.23 320.07 L 328.42 347.52 L 332.61 346.07 L 336.80 336.68 L 340.99 319.71 L 345.18 372.79 L 349.37 418.66 L 353.56 437.79 L 357.75 348.96 L 361.94 381.82 L 366.13 373.88 L 370.32 370.27 L 374.51 376.41 L 378.69 397.71 L 382.88 391.57 L 387.07 391.57 L 391.26 414.68 L 395.45 388.68 L 399.64 368.46 L 403.83 351.85 L 408.02 336.68 L 412.21 336.68 L 416.40 330.18 L 420.59 338.49 L 424.78 338.13 L 428.97 330.90 L 433.16 319.71 L 437.35 315.38 L 441.54 269.52 L 445.73 258.32 L 449.92 254.71 L 454.11 256.88 L 458.29 247.85 L 462.48 251.10 L 466.67 256.15 L 470.86 275.65 L 475.05 272.40 L 479.24 280.71 L 483.43 282.15 L 487.62 253.27 L 491.81 262.65 L 496.00 261.21 L 500.19 266.27 L 504.38 260.49 L 508.57 263.02 L 512.76 287.21 L 516.95 275.29 L 521.14 268.07 L 525.33 256.52 L 529.52 264.46 L 533.71 268.79 L 537.89 278.54 L 542.08 268.07 L 546.27 284.68 L 550.46 284.68 L 554.65 285.40 L 558.84 284.68 L 563.03 265.90 L 567.22 261.21 L 571.41 272.77 L 575.60 264.10 L 579.79 248.21 L 583.98 254.35 L 588.17 251.10 L 592.36 242.79 L 596.55 237.02 L 600.74 237.02 L 604.93 250.38 L 609.12 253.99 L 613.31 248.21 L 617.49 237.74 L 621.68 238.10 L 625.87 234.13 L 630.06 248.21 L 634.25 246.04 L 638.44 243.52 L 642.63 234.13 L 646.82 229.79 L 651.01 220.04 L 655.20 216.43 L 659.39 233.77 L 663.58 223.65 L 667.77 217.15 L 671.96 223.65 L 676.15 230.88 L 680.34 238.10 L 684.53 261.93 L 688.72 251.82 L 692.91 251.10 L 697.09 230.51 L 701.28 231.60 L 705.47 229.43 L 709.66 226.90 L 713.85 215.35 L 718.04 203.07 L 722.23 204.15 L 726.42 206.32 L 730.61 202.35 L 734.80 202.35 L 738.99 212.10 L 743.18 219.68 L 747.37 188.63 L 751.56 192.96 L 755.75 188.26 L 759.94 188.99 L 764.13 188.26 L 768.32 199.46 L 772.51 198.74 L 776.69 205.96 L 780.88 201.63 L 785.07 183.93 L 789.26 183.93 L 793.45 180.68 L 797.64 182.49 L 801.83 194.04 L 806.02 174.54 L 810.21 169.49 L 814.40 159.74 L 818.59 153.60 L 822.78 155.76 L 826.97 159.74 L 831.16 156.13 L 835.35 159.38 L 839.54 170.21 L 843.73 162.63 L 847.92 176.71 L 852.11 160.82 L 856.29 157.21 L 860.48 162.63 L 864.67 182.13 L 868.86 210.65 L 873.05 189.35 L 877.24 187.18 L 881.43 186.10 L 885.62 196.21 L 889.81 187.90 L 894.00 179.60 L 898.19 167.68 L 902.38 175.63 L 906.57 171.29 L 910.76 174.18 L 914.95 160.10 L 919.14 160.82 L 923.33 169.13 L 927.52 191.88 L 931.71 165.51 L 935.89 156.49 L 940.08 172.74 L 944.27 160.82 L 948.46 184.65 L 952.65 183.21 L 956.84 170.21 L 961.03 167.68 L 965.22 174.90 L 969.41 198.74 L 973.60 204.15 L 977.79 213.54 L 981.98 230.51 L 986.17 230.15 L 990.36 243.52 L 994.55 225.82 L 998.74 213.54 L 1002.93 193.68 L 1007.12 187.90 L 1011.31 187.90 L 1015.49 181.40 L 1019.68 182.13 L 1023.87 181.76 L 1028.06 172.01 L 1032.25 175.63 L 1036.44 170.21 L 1040.63 184.65 L 1044.82 184.65 L 1049.01 170.21 L 1053.20 167.68 L 1057.39 164.07 L 1061.58 155.40 L 1065.77 154.32 L 1069.96 166.96 L 1074.15 151.07 L 1078.34 156.49 L 1082.53 150.35 L 1086.72 152.15 L 1090.91 149.63 L 1095.09 150.71 L 1099.28 156.13 L 1103.47 167.32 L 1107.66 171.29 L 1111.85 180.68 L 1116.04 173.46 L 1120.23 167.68 L 1124.42 169.13 L 1128.61 151.43 L 1132.80 139.51 L 1136.99 139.15 L 1141.18 142.04 L 1145.37 158.65 L 1149.56 155.76 L 1153.75 159.38 L 1157.94 159.74 L 1162.13 188.26 L 1166.32 168.40 L 1170.51 157.57 L 1174.69 154.68 L 1178.88 163.35 L 1183.07 160.10 L 1187.26 169.13 L 1191.45 173.82 L 1195.64 175.99 L 1199.83 168.76 L 1204.02 178.88 L 1208.21 187.18 L 1212.40 208.85 L 1216.59 204.88 L 1220.78 209.57 L 1224.97 204.15 L 1229.16 209.21 L 1233.35 222.93 L 1237.54 223.65 L 1241.73 219.32 L 1245.92 217.51 L 1250.11 219.32 L 1254.29 220.76 L 1258.48 232.68 L 1262.67 244.24 L 1266.86 226.54 L 1271.05 226.90 L 1275.24 244.24 L 1279.43 241.35 L 1283.62 245.32 L 1287.81 248.93 L 1292.00 270.60" fill="none" stroke="#0f766e" stroke-width="2"  />
<path d="M 98.00 242.00 L 102.19 204.53 L 106.38 211.56 L 110.57 230.24 L 114.76 230.16 L 118.95 230.49 L 123.14 230.87 L 127.33 241.47 L 131.52 237.24 L 135.71 205.22 L 139.89 216.26 L 144.08 203.64 L 148.27 209.42 L 152.46 206.79 L 156.65 201.26 L 160.84 201.97 L 165.03 200.84 L 169.22 206.62 L 173.41 182.77 L 177.60 205.78 L 181.79 232.08 L 185.98 223.94 L 190.17 239.12 L 194.36 230.72 L 198.55 219.97 L 202.74 220.27 L 206.93 221.51 L 211.12 219.07 L 215.31 219.45 L 219.49 248.74 L 223.68 260.96 L 227.87 265.45 L 232.06 266.59 L 236.25 274.68 L 240.44 274.71 L 244.63 268.25 L 248.82 286.89 L 253.01 299.19 L 257.20 292.85 L 261.39 318.63 L 265.58 329.71 L 269.77 361.29 L 273.96 345.99 L 278.15 334.58 L 282.34 369.84 L 286.53 353.19 L 290.72 357.12 L 294.91 367.78 L 299.09 349.15 L 303.28 352.85 L 307.47 347.16 L 311.66 309.24 L 315.85 308.53 L 320.04 324.34 L 324.23 318.56 L 328.42 341.04 L 332.61 350.53 L 336.80 337.40 L 340.99 316.18 L 345.18 367.07 L 349.37 408.00 L 353.56 431.30 L 357.75 348.83 L 361.94 382.38 L 366.13 378.50 L 370.32 376.26 L 374.51 372.13 L 378.69 394.02 L 382.88 393.14 L 387.07 392.36 L 391.26 393.91 L 395.45 391.67 L 399.64 372.02 L 403.83 349.83 L 408.02 332.94 L 412.21 338.00 L 416.40 333.23 L 420.59 339.68 L 424.78 339.37 L 428.97 334.55 L 433.16 325.99 L 437.35 316.08 L 441.54 283.54 L 445.73 259.61 L 449.92 254.98 L 454.11 263.76 L 458.29 250.16 L 462.48 250.59 L 466.67 251.24 L 470.86 270.93 L 475.05 273.57 L 479.24 275.74 L 483.43 282.43 L 487.62 282.35 L 491.81 257.02 L 496.00 261.53 L 500.19 259.44 L 504.38 262.91 L 508.57 263.23 L 512.76 302.03 L 516.95 276.37 L 521.14 266.90 L 525.33 261.26 L 529.52 260.19 L 533.71 266.18 L 537.89 270.83 L 542.08 274.08 L 546.27 277.73 L 550.46 283.11 L 554.65 285.25 L 558.84 286.24 L 563.03 261.15 L 567.22 264.91 L 571.41 271.30 L 575.60 270.49 L 579.79 257.82 L 583.98 253.76 L 588.17 262.16 L 592.36 245.85 L 596.55 239.27 L 600.74 237.02 L 604.93 236.98 L 609.12 252.96 L 613.31 252.05 L 617.49 244.48 L 621.68 236.15 L 625.87 233.36 L 630.06 238.82 L 634.25 246.44 L 638.44 243.53 L 642.63 239.17 L 646.82 232.65 L 651.01 226.44 L 655.20 218.45 L 659.39 228.89 L 663.58 227.16 L 667.77 215.67 L 671.96 218.33 L 676.15 226.39 L 680.34 231.33 L 684.53 263.40 L 688.72 261.47 L 692.91 251.07 L 697.09 224.74 L 701.28 228.42 L 705.47 228.31 L 709.66 224.91 L 713.85 222.80 L 718.04 214.50 L 722.23 202.35 L 726.42 205.24 L 730.61 201.80 L 734.80 202.83 L 738.99 203.89 L 743.18 225.16 L 747.37 194.87 L 751.56 187.22 L 755.75 190.36 L 759.94 186.43 L 764.13 190.02 L 768.32 197.72 L 772.51 201.85 L 776.69 198.68 L 780.88 201.37 L 785.07 181.70 L 789.26 181.50 L 793.45 179.60 L 797.64 179.36 L 801.83 193.84 L 806.02 179.00 L 810.21 168.61 L 814.40 159.82 L 818.59 156.63 L 822.78 151.93 L 826.97 158.76 L 831.16 157.86 L 835.35 152.64 L 839.54 163.60 L 843.73 165.57 L 847.92 168.32 L 852.11 171.95 L 856.29 161.18 L 860.48 157.45 L 864.67 164.48 L 868.86 216.49 L 873.05 190.31 L 877.24 184.54 L 881.43 184.39 L 885.62 196.71 L 889.81 190.89 L 894.00 184.66 L 898.19 174.90 L 902.38 169.02 L 906.57 172.21 L 910.76 174.05 L 914.95 169.82 L 919.14 159.97 L 923.33 164.47 L 927.52 187.67 L 931.71 162.15 L 935.89 144.69 L 940.08 170.04 L 944.27 168.13 L 948.46 183.45 L 952.65 183.88 L 956.84 176.35 L 961.03 168.24 L 965.22 171.08 L 969.41 203.37 L 973.60 200.20 L 977.79 206.52 L 981.98 238.31 L 986.17 231.15 L 990.36 233.33 L 994.55 238.87 L 998.74 213.40 L 1002.93 199.92 L 1007.12 187.20 L 1011.31 188.31 L 1015.49 188.72 L 1019.68 182.34 L 1023.87 180.57 L 1028.06 175.79 L 1032.25 173.52 L 1036.44 173.59 L 1040.63 187.92 L 1044.82 182.46 L 1049.01 180.18 L 1053.20 166.84 L 1057.39 164.32 L 1061.58 168.02 L 1065.77 153.68 L 1069.96 164.54 L 1074.15 155.71 L 1078.34 151.77 L 1082.53 153.28 L 1086.72 150.90 L 1090.91 148.53 L 1095.09 150.11 L 1099.28 151.21 L 1103.47 164.38 L 1107.66 169.50 L 1111.85 174.40 L 1116.04 172.69 L 1120.23 169.52 L 1124.42 169.74 L 1128.61 154.36 L 1132.80 144.48 L 1136.99 138.09 L 1141.18 137.71 L 1145.37 155.63 L 1149.56 157.06 L 1153.75 155.04 L 1157.94 163.24 L 1162.13 160.60 L 1166.32 172.65 L 1170.51 164.23 L 1174.69 154.29 L 1178.88 163.13 L 1183.07 162.12 L 1187.26 163.90 L 1191.45 172.77 L 1195.64 175.43 L 1199.83 170.83 L 1204.02 173.45 L 1208.21 192.69 L 1212.40 205.81 L 1216.59 204.85 L 1220.78 208.16 L 1224.97 210.96 L 1229.16 208.32 L 1233.35 215.72 L 1237.54 220.58 L 1241.73 233.27 L 1245.92 218.31 L 1250.11 221.32 L 1254.29 214.67 L 1258.48 221.12 L 1262.67 234.45 L 1266.86 227.45 L 1271.05 230.09 L 1275.24 235.08 L 1279.43 244.53 L 1283.62 243.30 L 1287.81 247.04 L 1292.00 257.51" fill="none" stroke="#1d4ed8" stroke-width="2"  />
  </g>
  <g>
    <text x="54" y="538" fill="#1f2937" font-size="16" font-weight="700">B. 绝对误差（越低越好）</text>
    <line x1="98" y1="558" x2="124" y2="558" stroke="#1d4ed8" stroke-width="2"  />
      <text x="130" y="562" fill="#24312e" font-size="12">持仓分段误差</text>
    <line x1="98" y1="560.00" x2="1292" y2="560.00" stroke="#d7e3df" stroke-width="1" />
      <text x="90" y="564.00" text-anchor="end" fill="#5b6b68" font-size="11">3.18%</text>
<line x1="98" y1="630.00" x2="1292" y2="630.00" stroke="#d7e3df" stroke-width="1" />
      <text x="90" y="634.00" text-anchor="end" fill="#5b6b68" font-size="11">2.38%</text>
<line x1="98" y1="700.00" x2="1292" y2="700.00" stroke="#d7e3df" stroke-width="1" />
      <text x="90" y="704.00" text-anchor="end" fill="#5b6b68" font-size="11">1.59%</text>
<line x1="98" y1="770.00" x2="1292" y2="770.00" stroke="#d7e3df" stroke-width="1" />
      <text x="90" y="774.00" text-anchor="end" fill="#5b6b68" font-size="11">0.79%</text>
<line x1="98" y1="840.00" x2="1292" y2="840.00" stroke="#d7e3df" stroke-width="1" />
      <text x="90" y="844.00" text-anchor="end" fill="#5b6b68" font-size="11">0.00%</text>
    <line x1="98.00" y1="560" x2="98.00" y2="840" stroke="#eef3f1" stroke-width="1" />
      <text x="98.00" y="868" text-anchor="middle" fill="#5b6b68" font-size="11">25-01-02</text>
<line x1="290.72" y1="560" x2="290.72" y2="840" stroke="#eef3f1" stroke-width="1" />
      <text x="290.72" y="868" text-anchor="middle" fill="#5b6b68" font-size="11">25-03-17</text>
<line x1="479.24" y1="560" x2="479.24" y2="840" stroke="#eef3f1" stroke-width="1" />
      <text x="479.24" y="868" text-anchor="middle" fill="#5b6b68" font-size="11">25-05-23</text>
<line x1="697.09" y1="560" x2="697.09" y2="840" stroke="#eef3f1" stroke-width="1" />
      <text x="697.09" y="868" text-anchor="middle" fill="#5b6b68" font-size="11">25-08-06</text>
<line x1="910.76" y1="560" x2="910.76" y2="840" stroke="#eef3f1" stroke-width="1" />
      <text x="910.76" y="868" text-anchor="middle" fill="#5b6b68" font-size="11">25-10-24</text>
<line x1="1099.28" y1="560" x2="1099.28" y2="840" stroke="#eef3f1" stroke-width="1" />
      <text x="1099.28" y="868" text-anchor="middle" fill="#5b6b68" font-size="11">25-12-26</text>
<line x1="1292.00" y1="560" x2="1292.00" y2="840" stroke="#eef3f1" stroke-width="1" />
      <text x="1292.00" y="868" text-anchor="middle" fill="#5b6b68" font-size="11">26-03-12</text>
    <line x1="1116.04" y1="560" x2="1116.04" y2="840" stroke="#f59e0b" stroke-width="1.4" stroke-dasharray="4 4" />
       <text x="1122.04" y="552" fill="#a16207" font-size="11">验证起点</text>
    <path d="M 98.00 800.83 L 102.19 729.11 L 106.38 817.58 L 110.57 816.35 L 114.76 836.89 L 118.95 834.14 L 123.14 772.62 L 127.33 778.01 L 131.52 831.95 L 135.71 780.17 L 139.89 829.58 L 144.08 832.82 L 148.27 799.79 L 152.46 783.03 L 156.65 816.25 L 160.84 807.76 L 165.03 812.80 L 169.22 775.66 L 173.41 625.19 L 177.60 832.59 L 181.79 778.62 L 185.98 819.53 L 190.17 788.75 L 194.36 820.42 L 198.55 819.65 L 202.74 826.11 L 206.93 818.75 L 211.12 813.83 L 215.31 814.00 L 219.49 692.76 L 223.68 807.89 L 227.87 803.28 L 232.06 834.07 L 236.25 794.93 L 240.44 761.29 L 244.63 835.29 L 248.82 826.82 L 253.01 811.22 L 257.20 802.69 L 261.39 783.96 L 265.58 692.60 L 269.77 696.18 L 273.96 760.01 L 278.15 693.25 L 282.34 821.79 L 286.53 838.97 L 290.72 800.19 L 294.91 839.55 L 299.09 814.33 L 303.28 837.32 L 307.47 819.49 L 311.66 783.84 L 315.85 833.31 L 320.04 807.34 L 324.23 826.14 L 328.42 778.75 L 332.61 797.91 L 336.80 833.29 L 340.99 807.53 L 345.18 784.34 L 349.37 730.79 L 353.56 771.94 L 357.75 838.79 L 361.94 834.47 L 366.13 794.97 L 370.32 781.90 L 374.51 798.21 L 378.69 803.10 L 382.88 824.38 L 387.07 832.15 L 391.26 628.12 L 395.45 810.38 L 399.64 805.54 L 403.83 820.77 L 408.02 805.03 L 412.21 827.70 L 416.40 811.68 L 420.59 828.86 L 424.78 828.37 L 428.97 806.14 L 433.16 782.29 L 437.35 833.56 L 441.54 717.51 L 445.73 828.83 L 449.92 837.66 L 454.11 780.62 L 458.29 820.26 L 462.48 835.64 L 466.67 797.66 L 470.86 798.46 L 475.05 829.78 L 479.24 796.14 L 483.43 837.57 L 487.62 590.00 L 491.81 791.11 L 496.00 837.24 L 500.19 780.56 L 504.38 819.07 L 508.57 838.11 L 512.76 708.24 L 516.95 830.52 L 521.14 829.81 L 525.33 799.08 L 529.52 802.91 L 533.71 817.16 L 537.89 772.02 L 542.08 787.57 L 546.27 778.40 L 550.46 826.08 L 554.65 838.67 L 558.84 826.15 L 563.03 798.60 L 567.22 807.95 L 571.41 827.17 L 575.60 784.45 L 579.79 757.78 L 583.98 834.90 L 588.17 745.13 L 592.36 813.99 L 596.55 820.91 L 600.74 839.99 L 604.93 725.23 L 609.12 831.20 L 613.31 807.16 L 617.49 782.94 L 621.68 823.54 L 625.87 833.51 L 630.06 759.73 L 634.25 836.59 L 638.44 839.89 L 642.63 797.47 L 646.82 815.97 L 651.01 786.78 L 655.20 823.23 L 659.39 798.87 L 663.58 810.74 L 667.77 827.66 L 671.96 795.53 L 676.15 802.24 L 680.34 782.65 L 684.53 827.27 L 688.72 757.16 L 692.91 839.76 L 697.09 791.48 L 701.28 813.25 L 705.47 830.57 L 709.66 823.33 L 713.85 778.27 L 718.04 746.38 L 722.23 825.22 L 726.42 831.09 L 730.61 835.50 L 734.80 836.03 L 738.99 772.18 L 743.18 794.41 L 747.37 789.49 L 751.56 793.46 L 755.75 823.05 L 759.94 819.31 L 764.13 825.78 L 768.32 825.84 L 772.51 814.61 L 776.69 780.20 L 780.88 837.94 L 785.07 822.00 L 789.26 820.45 L 793.45 831.30 L 797.64 814.84 L 801.83 838.32 L 806.02 804.43 L 810.21 833.07 L 814.40 839.35 L 818.59 816.28 L 822.78 809.92 L 826.97 832.33 L 831.16 826.42 L 835.35 786.97 L 839.54 787.48 L 843.73 816.73 L 847.92 772.95 L 852.11 752.25 L 856.29 808.80 L 860.48 799.15 L 864.67 698.19 L 868.86 791.87 L 873.05 832.22 L 877.24 818.65 L 881.43 826.22 L 885.62 835.94 L 889.81 815.84 L 894.00 799.43 L 898.19 782.71 L 902.38 787.24 L 906.57 832.71 L 910.76 838.97 L 914.95 763.40 L 919.14 833.31 L 923.33 803.00 L 927.52 805.91 L 931.71 813.36 L 935.89 747.36 L 940.08 818.50 L 944.27 782.34 L 948.46 830.32 L 952.65 834.56 L 956.84 791.18 L 961.03 835.55 L 965.22 809.47 L 969.41 802.19 L 973.60 807.54 L 977.79 781.86 L 981.98 774.49 L 986.17 831.61 L 990.36 753.27 L 994.55 730.74 L 998.74 838.78 L 1002.93 789.36 L 1007.12 834.28 L 1011.31 836.72 L 1015.49 781.21 L 1019.68 838.30 L 1023.87 830.44 L 1028.06 809.94 L 1032.25 823.18 L 1036.44 813.13 L 1040.63 813.71 L 1044.82 822.30 L 1049.01 760.71 L 1053.20 833.30 L 1057.39 838.02 L 1061.58 741.05 L 1065.77 835.01 L 1069.96 820.81 L 1074.15 803.72 L 1078.34 802.93 L 1082.53 817.09 L 1086.72 830.21 L 1090.91 831.44 L 1095.09 835.36 L 1099.28 801.41 L 1103.47 816.69 L 1107.66 825.72 L 1111.85 789.62 L 1116.04 833.85 L 1120.23 825.39 L 1124.42 835.10 L 1128.61 817.13 L 1132.80 801.56 L 1136.99 831.80 L 1141.18 806.38 L 1145.37 816.20 L 1149.56 829.87 L 1153.75 805.83 L 1157.94 812.37 L 1162.13 616.41 L 1166.32 806.26 L 1170.51 787.62 L 1174.69 836.95 L 1178.88 838.31 L 1183.07 824.04 L 1187.26 798.49 L 1191.45 831.65 L 1195.64 835.53 L 1199.83 823.64 L 1204.02 796.54 L 1208.21 795.53 L 1212.40 815.00 L 1216.59 839.75 L 1220.78 828.38 L 1224.97 784.18 L 1229.16 832.71 L 1233.35 779.78 L 1237.54 814.33 L 1241.73 723.98 L 1245.92 833.40 L 1250.11 823.35 L 1254.29 789.26 L 1258.48 742.61 L 1262.67 756.59 L 1266.86 832.42 L 1271.05 813.27 L 1275.24 761.97 L 1279.43 812.96 L 1283.62 822.74 L 1287.81 823.84 L 1292.00 725.62" fill="none" stroke="#1d4ed8" stroke-width="2"  />
  </g>
</svg>