<?xml version="1.0" encoding="UTF-8"?>
<svg xmlns="http://www.w3.org/2000/svg" width="1360" height="980" viewBox="0 0 1360 980">
  <defs>
    <linearGradient id="bg" x1="0" y1="0" x2="1" y2="1">
      <stop offset="0%" stop-color="#f4efe6" />
      <stop offset="100%" stop-color="#eef5f2" />
    </linearGradient>
  </defs>
  <rect x="0" y="0" width="1360" height="980" fill="url(#bg)" />
  <text x="46" y="36" fill="#1f2937" font-size="31" font-weight="700">162415 离线研究图（持仓逐日估值版）</text>
  <text x="46" y="66" fill="#5b6b68" font-size="13">历史前十大持仓 + 持仓逐日涨跌幅 + USDCNY；双目标 lambda=0.10；披露期数 32；覆盖率均值 92.4%</text>
  <g>
    <text x="54" y="110" fill="#1f2937" font-size="16" font-weight="700">A. 净值拟合（同日对齐，无平移）</text>
    <line x1="98" y1="130" x2="124" y2="130" stroke="#0f766e" stroke-width="2"  />
      <text x="130" y="134" fill="#24312e" font-size="12">真实净值</text>
<line x1="313" y1="130" x2="339" y2="130" stroke="#1d4ed8" stroke-width="2"  />
      <text x="345" y="134" fill="#24312e" font-size="12">持仓分段估值</text>
    <line x1="98" y1="132.00" x2="1292" y2="132.00" stroke="#d7e3df" stroke-width="1" />
      <text x="90" y="136.00" text-anchor="end" fill="#5b6b68" font-size="11">3.184</text>
<line x1="98" y1="209.50" x2="1292" y2="209.50" stroke="#d7e3df" stroke-width="1" />
      <text x="90" y="213.50" text-anchor="end" fill="#5b6b68" font-size="11">2.967</text>
<line x1="98" y1="287.00" x2="1292" y2="287.00" stroke="#d7e3df" stroke-width="1" />
      <text x="90" y="291.00" text-anchor="end" fill="#5b6b68" font-size="11">2.751</text>
<line x1="98" y1="364.50" x2="1292" y2="364.50" stroke="#d7e3df" stroke-width="1" />
      <text x="90" y="368.50" text-anchor="end" fill="#5b6b68" font-size="11">2.534</text>
<line x1="98" y1="442.00" x2="1292" y2="442.00" stroke="#d7e3df" stroke-width="1" />
      <text x="90" y="446.00" text-anchor="end" fill="#5b6b68" font-size="11">2.317</text>
    <line x1="98.00" y1="132" x2="98.00" y2="442" stroke="#eef3f1" stroke-width="1" />
      <text x="98.00" y="470" text-anchor="middle" fill="#5b6b68" font-size="11">25-01-02</text>
<line x1="290.04" y1="132" x2="290.04" y2="442" stroke="#eef3f1" stroke-width="1" />
      <text x="290.04" y="470" text-anchor="middle" fill="#5b6b68" font-size="11">25-03-17</text>
<line x1="482.08" y1="132" x2="482.08" y2="442" stroke="#eef3f1" stroke-width="1" />
      <text x="482.08" y="470" text-anchor="middle" fill="#5b6b68" font-size="11">25-05-26</text>
<line x1="695.00" y1="132" x2="695.00" y2="442" stroke="#eef3f1" stroke-width="1" />
      <text x="695.00" y="470" text-anchor="middle" fill="#5b6b68" font-size="11">25-08-06</text>
<line x1="907.92" y1="132" x2="907.92" y2="442" stroke="#eef3f1" stroke-width="1" />
      <text x="907.92" y="470" text-anchor="middle" fill="#5b6b68" font-size="11">25-10-24</text>
<line x1="1099.96" y1="132" x2="1099.96" y2="442" stroke="#eef3f1" stroke-width="1" />
      <text x="1099.96" y="470" text-anchor="middle" fill="#5b6b68" font-size="11">25-12-29</text>
<line x1="1292.00" y1="132" x2="1292.00" y2="442" stroke="#eef3f1" stroke-width="1" />
      <text x="1292.00" y="470" text-anchor="middle" fill="#5b6b68" font-size="11">26-03-13</text>
    <line x1="1112.48" y1="132" x2="1112.48" y2="442" stroke="#f59e0b" stroke-width="1.4" stroke-dasharray="4 4" />
       <text x="1118.48" y="124" fill="#a16207" font-size="11">验证起点</text>
    <path d="M 98.00 239.35 L 102.17 220.04 L 106.35 216.46 L 110.52 235.06 L 114.70 231.84 L 118.87 231.84 L 123.05 240.78 L 127.22 236.13 L 131.40 238.28 L 135.57 214.67 L 139.75 219.68 L 143.92 206.80 L 148.10 206.80 L 152.27 202.15 L 156.45 206.45 L 160.62 200.37 L 164.80 206.45 L 168.97 201.08 L 173.15 211.10 L 177.32 207.16 L 181.50 226.83 L 185.67 223.61 L 189.85 235.06 L 194.02 235.06 L 198.20 219.68 L 202.37 220.75 L 206.55 221.11 L 210.72 224.33 L 214.90 224.69 L 219.07 233.27 L 223.24 259.02 L 227.42 262.95 L 231.59 267.60 L 235.77 271.18 L 239.94 285.13 L 244.12 269.39 L 248.29 286.91 L 252.47 303.72 L 256.64 290.13 L 260.82 313.74 L 264.99 314.81 L 269.17 347.00 L 273.34 355.22 L 277.52 350.93 L 281.69 372.39 L 285.87 354.15 L 290.04 353.79 L 294.22 368.45 L 298.39 352.72 L 302.57 353.43 L 306.74 350.22 L 310.92 316.60 L 315.09 309.09 L 319.27 321.96 L 323.44 321.25 L 327.62 348.43 L 331.79 347.00 L 335.97 337.70 L 340.14 320.89 L 344.31 373.46 L 348.49 418.88 L 352.66 437.84 L 356.84 349.86 L 361.01 382.40 L 365.19 374.53 L 369.36 370.96 L 373.54 377.04 L 377.71 398.14 L 381.89 392.06 L 386.06 392.06 L 390.24 414.95 L 394.41 389.20 L 398.59 369.17 L 402.76 352.72 L 406.94 337.70 L 411.11 337.70 L 415.29 331.26 L 419.46 339.49 L 423.64 339.13 L 427.81 331.98 L 431.99 320.89 L 436.16 316.60 L 440.34 271.18 L 444.51 260.09 L 448.69 256.52 L 452.86 258.66 L 457.03 249.72 L 461.21 252.94 L 465.38 257.95 L 469.56 277.26 L 473.73 274.04 L 477.91 282.26 L 482.08 283.70 L 486.26 255.08 L 490.43 264.38 L 494.61 262.95 L 498.78 267.96 L 502.96 262.24 L 507.13 264.74 L 511.31 288.70 L 515.48 276.90 L 519.66 269.75 L 523.83 258.30 L 528.01 266.17 L 532.18 270.46 L 536.36 280.12 L 540.53 269.75 L 544.71 286.20 L 548.88 286.20 L 553.06 286.91 L 557.23 286.20 L 561.41 267.60 L 565.58 262.95 L 569.76 274.40 L 573.93 265.81 L 578.10 250.08 L 582.28 256.16 L 586.45 252.94 L 590.63 244.71 L 594.80 238.99 L 598.98 238.99 L 603.15 252.22 L 607.33 255.80 L 611.50 250.08 L 615.68 239.71 L 619.85 240.06 L 624.03 236.13 L 628.20 250.08 L 632.38 247.93 L 636.55 245.43 L 640.73 236.13 L 644.90 231.84 L 649.08 222.18 L 653.25 218.61 L 657.43 235.77 L 661.60 225.76 L 665.78 219.32 L 669.95 225.76 L 674.13 232.91 L 678.30 240.06 L 682.48 263.67 L 686.65 253.65 L 690.83 252.94 L 695.00 232.55 L 699.17 233.63 L 703.35 231.48 L 707.52 228.98 L 711.70 217.53 L 715.87 205.37 L 720.05 206.45 L 724.22 208.59 L 728.40 204.66 L 732.57 204.66 L 736.75 214.31 L 740.92 221.82 L 745.10 191.07 L 749.27 195.36 L 753.45 190.71 L 757.62 191.43 L 761.80 190.71 L 765.97 201.80 L 770.15 201.08 L 774.32 208.23 L 778.50 203.94 L 782.67 186.42 L 786.85 186.42 L 791.02 183.20 L 795.20 184.99 L 799.37 196.43 L 803.55 177.12 L 807.72 172.11 L 811.90 162.46 L 816.07 156.38 L 820.24 158.52 L 824.42 162.46 L 828.59 158.88 L 832.77 162.10 L 836.94 172.83 L 841.12 165.32 L 845.29 179.27 L 849.47 163.53 L 853.64 159.95 L 857.82 165.32 L 861.99 184.63 L 866.17 212.88 L 870.34 191.78 L 874.52 189.64 L 878.69 188.56 L 882.87 198.58 L 887.04 190.35 L 891.22 182.13 L 895.39 170.33 L 899.57 178.19 L 903.74 173.90 L 907.92 176.76 L 912.09 162.82 L 916.27 163.53 L 920.44 171.76 L 924.62 194.29 L 928.79 168.18 L 932.97 159.24 L 937.14 175.33 L 941.31 163.53 L 945.49 187.13 L 949.66 185.70 L 953.84 172.83 L 958.01 170.33 L 962.19 177.48 L 966.36 201.08 L 970.54 206.45 L 974.71 215.74 L 978.89 232.55 L 983.06 232.20 L 987.24 245.43 L 991.41 227.90 L 995.59 215.74 L 999.76 196.08 L 1003.94 190.35 L 1008.11 190.35 L 1012.29 183.92 L 1016.46 184.63 L 1020.64 184.27 L 1024.81 174.62 L 1028.99 178.19 L 1033.16 172.83 L 1037.34 187.13 L 1041.51 187.13 L 1045.69 172.83 L 1049.86 170.33 L 1054.03 166.75 L 1058.21 158.17 L 1062.38 157.09 L 1066.56 169.61 L 1070.73 153.87 L 1074.91 159.24 L 1079.08 153.16 L 1083.26 154.95 L 1087.43 152.44 L 1091.61 153.52 L 1095.78 158.88 L 1099.96 169.97 L 1104.13 173.90 L 1108.31 183.20 L 1112.48 176.05 L 1116.66 170.33 L 1120.83 171.76 L 1125.01 154.23 L 1129.18 142.43 L 1133.36 142.07 L 1137.53 144.93 L 1141.71 161.38 L 1145.88 158.52 L 1150.06 162.10 L 1154.23 162.46 L 1158.41 190.71 L 1162.58 171.04 L 1166.76 160.31 L 1170.93 157.45 L 1175.10 166.03 L 1179.28 162.82 L 1183.45 171.76 L 1187.63 176.41 L 1191.80 178.55 L 1195.98 171.40 L 1200.15 181.41 L 1204.33 189.64 L 1208.50 211.10 L 1212.68 207.16 L 1216.85 211.81 L 1221.03 206.45 L 1225.20 211.45 L 1229.38 225.04 L 1233.55 225.76 L 1237.73 221.47 L 1241.90 219.68 L 1246.08 221.47 L 1250.25 222.90 L 1254.43 234.70 L 1258.60 246.14 L 1262.78 228.62 L 1266.95 228.98 L 1271.13 246.14 L 1275.30 243.28 L 1279.48 247.22 L 1283.65 250.79 L 1287.83 272.25 L 1292.00 276.90" fill="none" stroke="#0f766e" stroke-width="2"  />
<path d="M 98.00 237.15 L 102.17 216.13 L 106.35 218.87 L 110.52 232.52 L 114.70 232.43 L 118.87 232.59 L 123.05 233.07 L 127.22 240.67 L 131.40 239.09 L 135.57 219.92 L 139.75 216.81 L 143.92 205.95 L 148.10 208.69 L 152.27 209.46 L 156.45 203.64 L 160.62 203.47 L 164.80 202.48 L 168.97 194.79 L 173.15 197.27 L 177.32 208.43 L 181.50 226.28 L 185.67 225.22 L 189.85 227.21 L 194.02 233.81 L 198.20 223.37 L 202.37 223.13 L 206.55 223.24 L 210.72 221.29 L 214.90 222.49 L 219.07 244.06 L 223.24 249.15 L 227.42 261.13 L 231.59 261.82 L 235.77 276.06 L 239.94 277.11 L 244.12 269.86 L 248.29 280.54 L 252.47 304.09 L 256.64 297.26 L 260.82 309.38 L 264.99 321.27 L 269.17 350.47 L 273.34 348.96 L 277.52 354.28 L 281.69 371.07 L 285.87 359.10 L 290.04 352.36 L 294.22 373.69 L 298.39 354.83 L 302.57 353.73 L 306.74 348.78 L 310.92 318.70 L 315.09 315.73 L 319.27 311.31 L 323.44 319.50 L 327.62 341.81 L 331.79 346.51 L 335.97 338.64 L 340.14 324.06 L 344.31 365.53 L 348.49 429.91 L 352.66 436.57 L 356.84 349.45 L 361.01 378.24 L 365.19 379.78 L 369.36 371.69 L 373.54 374.03 L 377.71 401.80 L 381.89 388.83 L 386.06 393.04 L 390.24 393.16 L 394.41 385.50 L 398.59 382.09 L 402.76 357.58 L 406.94 340.25 L 411.11 339.65 L 415.29 334.05 L 419.46 332.92 L 423.64 341.74 L 427.81 334.89 L 431.99 326.45 L 436.16 318.39 L 440.34 286.33 L 444.51 269.18 L 448.69 256.86 L 452.86 253.00 L 457.03 246.48 L 461.21 249.47 L 465.38 252.43 L 469.56 280.38 L 473.73 274.99 L 477.91 277.80 L 482.08 283.51 L 486.26 283.76 L 490.43 258.04 L 494.61 262.91 L 498.78 260.11 L 502.96 265.54 L 507.13 264.73 L 511.31 293.98 L 515.48 278.93 L 519.66 274.04 L 523.83 264.29 L 528.01 261.93 L 532.18 267.44 L 536.36 273.76 L 540.53 276.35 L 544.71 278.87 L 548.88 285.22 L 553.06 287.15 L 557.23 288.19 L 561.41 266.94 L 565.58 267.24 L 569.76 272.43 L 573.93 273.10 L 578.10 259.90 L 582.28 250.29 L 586.45 254.27 L 590.63 247.98 L 594.80 241.18 L 598.98 238.87 L 603.15 239.32 L 607.33 255.24 L 611.50 253.79 L 615.68 246.67 L 619.85 239.16 L 624.03 238.49 L 628.20 245.31 L 632.38 248.40 L 636.55 244.75 L 640.73 241.96 L 644.90 235.29 L 649.08 226.59 L 653.25 220.70 L 657.43 231.03 L 661.60 229.92 L 665.78 224.63 L 669.95 220.50 L 674.13 228.95 L 678.30 233.86 L 682.48 255.45 L 686.65 261.75 L 690.83 253.14 L 695.00 217.83 L 699.17 232.13 L 703.35 231.76 L 707.52 229.02 L 711.70 224.91 L 715.87 216.78 L 720.05 206.47 L 724.22 207.25 L 728.40 204.84 L 732.57 204.50 L 736.75 205.98 L 740.92 229.76 L 745.10 200.61 L 749.27 192.91 L 753.45 193.45 L 757.62 187.51 L 761.80 194.05 L 765.97 193.66 L 770.15 201.45 L 774.32 201.19 L 778.50 204.88 L 782.67 188.42 L 786.85 184.80 L 791.02 183.34 L 795.20 182.81 L 799.37 196.98 L 803.55 178.75 L 807.72 174.30 L 811.90 168.27 L 816.07 160.41 L 820.24 154.90 L 824.42 160.77 L 828.59 161.82 L 832.77 159.26 L 836.94 165.00 L 841.12 169.12 L 845.29 175.35 L 849.47 174.67 L 853.64 160.90 L 857.82 160.27 L 861.99 167.38 L 866.17 213.64 L 870.34 194.38 L 874.52 185.37 L 878.69 187.51 L 882.87 201.31 L 887.04 193.85 L 891.22 187.63 L 895.39 179.51 L 899.57 171.30 L 903.74 175.47 L 907.92 176.49 L 912.09 173.00 L 916.27 163.37 L 920.44 168.89 L 924.62 186.08 L 928.79 175.68 L 932.97 160.37 L 937.14 164.00 L 941.31 170.90 L 945.49 185.95 L 949.66 184.69 L 953.84 180.30 L 958.01 170.14 L 962.19 172.86 L 966.36 198.96 L 970.54 203.12 L 974.71 207.31 L 978.89 229.80 L 983.06 234.16 L 987.24 231.63 L 991.41 237.68 L 995.59 223.90 L 999.76 196.03 L 1003.94 190.20 L 1008.11 191.35 L 1012.29 191.86 L 1016.46 181.94 L 1020.64 184.43 L 1024.81 179.52 L 1028.99 176.16 L 1033.16 175.96 L 1037.34 185.57 L 1041.51 185.01 L 1045.69 182.96 L 1049.86 168.98 L 1054.03 168.05 L 1058.21 165.93 L 1062.38 157.81 L 1066.56 160.06 L 1070.73 165.40 L 1074.91 154.78 L 1079.08 158.80 L 1083.26 154.90 L 1087.43 151.07 L 1091.61 153.15 L 1095.78 154.11 L 1099.96 160.69 L 1104.13 172.93 L 1108.31 177.37 L 1112.48 177.87 L 1116.66 171.26 L 1120.83 172.94 L 1125.01 154.12 L 1129.18 148.55 L 1133.36 137.67 L 1137.53 140.09 L 1141.71 147.57 L 1145.88 160.01 L 1150.06 158.66 L 1154.23 163.48 L 1158.41 164.07 L 1162.58 179.67 L 1166.76 169.12 L 1170.93 158.06 L 1175.10 160.18 L 1179.28 165.69 L 1183.45 167.92 L 1187.63 175.69 L 1191.80 173.30 L 1195.98 167.82 L 1200.15 170.19 L 1204.33 183.59 L 1208.50 204.52 L 1212.68 206.80 L 1216.85 210.37 L 1221.03 215.56 L 1225.20 205.54 L 1229.38 213.63 L 1233.55 222.76 L 1237.73 229.89 L 1241.90 222.78 L 1246.08 223.07 L 1250.25 218.14 L 1254.43 226.01 L 1258.60 236.68 L 1262.78 242.05 L 1266.95 241.44 L 1271.13 231.88 L 1275.30 246.30 L 1279.48 246.32 L 1283.65 250.20 L 1287.83 259.81 L 1292.00 271.95" fill="none" stroke="#1d4ed8" stroke-width="2"  />
  </g>
  <g>
    <text x="54" y="538" fill="#1f2937" font-size="16" font-weight="700">B. 绝对误差（越低越好）</text>
    <line x1="98" y1="558" x2="124" y2="558" stroke="#1d4ed8" stroke-width="2"  />
      <text x="130" y="562" fill="#24312e" font-size="12">持仓分段误差</text>
    <line x1="98" y1="560.00" x2="1292" y2="560.00" stroke="#d7e3df" stroke-width="1" />
      <text x="90" y="564.00" text-anchor="end" fill="#5b6b68" font-size="11">3.16%</text>
<line x1="98" y1="630.00" x2="1292" y2="630.00" stroke="#d7e3df" stroke-width="1" />
      <text x="90" y="634.00" text-anchor="end" fill="#5b6b68" font-size="11">2.37%</text>
<line x1="98" y1="700.00" x2="1292" y2="700.00" stroke="#d7e3df" stroke-width="1" />
      <text x="90" y="704.00" text-anchor="end" fill="#5b6b68" font-size="11">1.58%</text>
<line x1="98" y1="770.00" x2="1292" y2="770.00" stroke="#d7e3df" stroke-width="1" />
      <text x="90" y="774.00" text-anchor="end" fill="#5b6b68" font-size="11">0.79%</text>
<line x1="98" y1="840.00" x2="1292" y2="840.00" stroke="#d7e3df" stroke-width="1" />
      <text x="90" y="844.00" text-anchor="end" fill="#5b6b68" font-size="11">0.00%</text>
    <line x1="98.00" y1="560" x2="98.00" y2="840" stroke="#eef3f1" stroke-width="1" />
      <text x="98.00" y="868" text-anchor="middle" fill="#5b6b68" font-size="11">25-01-02</text>
<line x1="290.04" y1="560" x2="290.04" y2="840" stroke="#eef3f1" stroke-width="1" />
      <text x="290.04" y="868" text-anchor="middle" fill="#5b6b68" font-size="11">25-03-17</text>
<line x1="482.08" y1="560" x2="482.08" y2="840" stroke="#eef3f1" stroke-width="1" />
      <text x="482.08" y="868" text-anchor="middle" fill="#5b6b68" font-size="11">25-05-26</text>
<line x1="695.00" y1="560" x2="695.00" y2="840" stroke="#eef3f1" stroke-width="1" />
      <text x="695.00" y="868" text-anchor="middle" fill="#5b6b68" font-size="11">25-08-06</text>
<line x1="907.92" y1="560" x2="907.92" y2="840" stroke="#eef3f1" stroke-width="1" />
      <text x="907.92" y="868" text-anchor="middle" fill="#5b6b68" font-size="11">25-10-24</text>
<line x1="1099.96" y1="560" x2="1099.96" y2="840" stroke="#eef3f1" stroke-width="1" />
      <text x="1099.96" y="868" text-anchor="middle" fill="#5b6b68" font-size="11">25-12-29</text>
<line x1="1292.00" y1="560" x2="1292.00" y2="840" stroke="#eef3f1" stroke-width="1" />
      <text x="1292.00" y="868" text-anchor="middle" fill="#5b6b68" font-size="11">26-03-13</text>
    <line x1="1112.48" y1="560" x2="1112.48" y2="840" stroke="#f59e0b" stroke-width="1.4" stroke-dasharray="4 4" />
       <text x="1118.48" y="552" fill="#a16207" font-size="11">验证起点</text>
    <path d="M 98.00 821.09 L 102.17 807.04 L 106.35 819.80 L 110.52 818.34 L 114.70 834.99 L 118.87 833.60 L 123.05 773.69 L 127.22 801.14 L 131.40 833.06 L 135.57 795.98 L 139.75 815.82 L 143.92 832.88 L 148.10 824.31 L 152.27 779.50 L 156.45 816.66 L 160.62 814.33 L 164.80 807.04 L 168.97 787.92 L 173.15 724.51 L 177.32 829.48 L 181.50 835.36 L 185.67 826.42 L 189.85 772.93 L 194.02 829.32 L 198.20 808.89 L 202.37 819.94 L 206.55 822.05 L 210.72 814.31 L 214.90 821.44 L 219.07 747.87 L 223.24 753.65 L 227.42 823.95 L 231.59 788.97 L 235.77 796.74 L 239.94 767.98 L 244.12 835.84 L 248.29 782.63 L 252.47 836.65 L 256.64 775.67 L 260.82 799.71 L 264.99 780.18 L 269.17 806.70 L 273.34 779.44 L 277.52 807.76 L 281.69 827.00 L 285.87 792.20 L 290.04 826.15 L 294.22 788.65 L 298.39 819.62 L 302.57 837.12 L 306.74 826.20 L 310.92 820.48 L 315.09 778.87 L 319.27 740.56 L 323.44 823.67 L 327.62 776.52 L 331.79 835.37 L 335.97 831.11 L 340.14 810.48 L 344.31 761.75 L 348.49 725.41 L 352.66 826.58 L 356.84 836.10 L 361.01 798.51 L 365.19 788.15 L 369.36 832.75 L 373.54 810.23 L 377.71 802.80 L 381.89 807.49 L 386.06 830.08 L 390.24 614.55 L 394.41 802.84 L 398.59 713.16 L 402.76 793.08 L 406.94 815.83 L 411.11 821.52 L 415.29 813.76 L 419.46 777.60 L 423.64 815.17 L 427.81 812.50 L 431.99 788.14 L 436.16 823.33 L 440.34 705.76 L 444.51 760.37 L 448.69 836.97 L 452.86 790.45 L 457.03 811.89 L 461.21 809.83 L 465.38 791.78 L 469.56 812.13 L 473.73 831.51 L 477.91 800.04 L 482.08 838.36 L 486.26 590.00 L 490.43 784.21 L 494.61 839.58 L 498.78 770.69 L 502.96 810.99 L 507.13 839.91 L 511.31 792.41 L 515.48 821.92 L 519.66 801.99 L 523.83 787.63 L 528.01 802.63 L 532.18 813.27 L 536.36 783.15 L 540.53 781.61 L 544.71 774.06 L 548.88 831.19 L 553.06 837.92 L 557.23 822.13 L 561.41 834.15 L 565.58 802.33 L 569.76 822.51 L 573.93 775.80 L 578.10 754.83 L 582.28 788.76 L 586.45 828.44 L 590.63 811.78 L 594.80 821.24 L 598.98 838.97 L 603.15 727.85 L 607.33 835.11 L 611.50 807.77 L 615.68 780.22 L 619.85 832.24 L 624.03 819.82 L 628.20 798.60 L 632.38 835.91 L 636.55 834.18 L 640.73 790.08 L 644.90 810.59 L 649.08 802.77 L 653.25 822.42 L 657.43 799.46 L 661.60 804.78 L 665.78 795.31 L 669.95 795.45 L 674.13 806.17 L 678.30 786.70 L 682.48 767.74 L 686.65 769.49 L 690.83 838.28 L 695.00 714.41 L 699.17 827.20 L 703.35 837.63 L 707.52 839.62 L 711.70 778.02 L 715.87 745.19 L 720.05 839.77 L 724.22 828.85 L 728.40 838.46 L 732.57 838.72 L 736.75 770.13 L 740.92 773.01 L 745.10 761.77 L 749.27 819.81 L 753.45 817.57 L 757.62 807.86 L 761.80 812.59 L 765.97 772.62 L 770.15 836.97 L 774.32 781.29 L 778.50 832.25 L 782.67 823.69 L 786.85 826.76 L 791.02 838.88 L 795.20 822.25 L 799.37 835.53 L 803.55 826.83 L 807.72 822.37 L 811.90 793.55 L 816.07 807.93 L 820.24 811.14 L 824.42 826.52 L 828.59 816.56 L 832.77 817.28 L 836.94 776.86 L 841.12 809.57 L 845.29 808.24 L 849.47 750.90 L 853.64 832.47 L 857.82 799.54 L 861.99 699.37 L 866.17 833.66 L 870.34 818.65 L 874.52 805.01 L 878.69 831.37 L 882.87 817.44 L 887.04 811.33 L 891.22 795.22 L 895.39 766.11 L 899.57 784.17 L 903.74 827.37 L 907.92 837.81 L 912.09 758.62 L 916.27 838.70 L 920.44 816.87 L 924.62 772.45 L 928.79 779.74 L 932.97 830.95 L 937.14 748.38 L 941.31 781.05 L 945.49 830.33 L 949.66 831.76 L 953.84 779.78 L 958.01 838.52 L 962.19 802.58 L 966.36 822.40 L 970.54 812.29 L 974.71 769.25 L 978.89 816.48 L 983.06 823.28 L 987.24 720.82 L 991.41 757.01 L 995.59 771.56 L 999.76 839.61 L 1003.94 838.71 L 1008.11 831.80 L 1012.29 775.32 L 1016.46 818.03 L 1020.64 838.72 L 1024.81 800.42 L 1028.99 823.51 L 1033.16 814.79 L 1037.34 827.23 L 1041.51 822.61 L 1045.69 758.30 L 1049.86 829.21 L 1054.03 829.57 L 1058.21 778.20 L 1062.38 834.33 L 1066.56 763.18 L 1070.73 748.61 L 1074.91 804.45 L 1079.08 795.30 L 1083.26 839.65 L 1087.43 829.12 L 1091.61 837.10 L 1095.78 802.02 L 1099.96 765.36 L 1104.13 832.14 L 1108.31 792.54 L 1112.48 825.29 L 1116.66 832.46 L 1120.83 830.46 L 1125.01 839.09 L 1129.18 791.99 L 1133.36 805.43 L 1137.53 801.92 L 1141.71 729.76 L 1145.88 828.13 L 1150.06 812.53 L 1154.23 831.81 L 1158.41 621.60 L 1162.58 770.49 L 1166.76 769.74 L 1170.93 835.16 L 1175.10 793.07 L 1179.28 817.01 L 1183.45 809.08 L 1187.63 834.20 L 1191.80 797.42 L 1195.98 811.16 L 1200.15 748.80 L 1204.33 790.45 L 1208.50 785.06 L 1212.68 837.01 L 1216.85 827.93 L 1221.03 764.18 L 1225.20 790.60 L 1229.38 743.34 L 1233.55 814.55 L 1237.73 768.89 L 1241.90 813.87 L 1246.08 826.51 L 1250.25 799.83 L 1254.43 765.77 L 1258.60 758.19 L 1262.78 725.91 L 1266.95 734.10 L 1271.13 716.77 L 1275.30 814.02 L 1279.48 832.24 L 1283.65 834.85 L 1287.83 729.72 L 1292.00 795.86" fill="none" stroke="#1d4ed8" stroke-width="2"  />
  </g>
</svg>