<?xml version="1.0" encoding="UTF-8"?>
<svg xmlns="http://www.w3.org/2000/svg" width="1360" height="980" viewBox="0 0 1360 980">
  <defs>
    <linearGradient id="bg" x1="0" y1="0" x2="1" y2="1">
      <stop offset="0%" stop-color="#f4efe6" />
      <stop offset="100%" stop-color="#eef5f2" />
    </linearGradient>
  </defs>
  <rect x="0" y="0" width="1360" height="980" fill="url(#bg)" />
  <text x="46" y="36" fill="#1f2937" font-size="31" font-weight="700">164824 离线研究图（持仓逐日估值版）</text>
  <text x="46" y="66" fill="#5b6b68" font-size="13">历史前十大持仓 + 持仓逐日涨跌幅 + USDCNY；双目标 lambda=0.10；披露期数 29；覆盖率均值 69.1%</text>
  <g>
    <text x="54" y="110" fill="#1f2937" font-size="16" font-weight="700">A. 净值拟合（同日对齐，无平移）</text>
    <line x1="98" y1="130" x2="124" y2="130" stroke="#0f766e" stroke-width="2"  />
      <text x="130" y="134" fill="#24312e" font-size="12">真实净值</text>
<line x1="313" y1="130" x2="339" y2="130" stroke="#1d4ed8" stroke-width="2"  />
      <text x="345" y="134" fill="#24312e" font-size="12">持仓分段估值</text>
    <line x1="98" y1="132.00" x2="1292" y2="132.00" stroke="#d7e3df" stroke-width="1" />
      <text x="90" y="136.00" text-anchor="end" fill="#5b6b68" font-size="11">1.579</text>
<line x1="98" y1="209.50" x2="1292" y2="209.50" stroke="#d7e3df" stroke-width="1" />
      <text x="90" y="213.50" text-anchor="end" fill="#5b6b68" font-size="11">1.509</text>
<line x1="98" y1="287.00" x2="1292" y2="287.00" stroke="#d7e3df" stroke-width="1" />
      <text x="90" y="291.00" text-anchor="end" fill="#5b6b68" font-size="11">1.440</text>
<line x1="98" y1="364.50" x2="1292" y2="364.50" stroke="#d7e3df" stroke-width="1" />
      <text x="90" y="368.50" text-anchor="end" fill="#5b6b68" font-size="11">1.370</text>
<line x1="98" y1="442.00" x2="1292" y2="442.00" stroke="#d7e3df" stroke-width="1" />
      <text x="90" y="446.00" text-anchor="end" fill="#5b6b68" font-size="11">1.300</text>
    <line x1="98.00" y1="132" x2="98.00" y2="442" stroke="#eef3f1" stroke-width="1" />
      <text x="98.00" y="470" text-anchor="middle" fill="#5b6b68" font-size="11">25-01-02</text>
<line x1="290.72" y1="132" x2="290.72" y2="442" stroke="#eef3f1" stroke-width="1" />
      <text x="290.72" y="470" text-anchor="middle" fill="#5b6b68" font-size="11">25-03-17</text>
<line x1="479.24" y1="132" x2="479.24" y2="442" stroke="#eef3f1" stroke-width="1" />
      <text x="479.24" y="470" text-anchor="middle" fill="#5b6b68" font-size="11">25-05-23</text>
<line x1="697.09" y1="132" x2="697.09" y2="442" stroke="#eef3f1" stroke-width="1" />
      <text x="697.09" y="470" text-anchor="middle" fill="#5b6b68" font-size="11">25-08-06</text>
<line x1="910.76" y1="132" x2="910.76" y2="442" stroke="#eef3f1" stroke-width="1" />
      <text x="910.76" y="470" text-anchor="middle" fill="#5b6b68" font-size="11">25-10-24</text>
<line x1="1099.28" y1="132" x2="1099.28" y2="442" stroke="#eef3f1" stroke-width="1" />
      <text x="1099.28" y="470" text-anchor="middle" fill="#5b6b68" font-size="11">25-12-26</text>
<line x1="1292.00" y1="132" x2="1292.00" y2="442" stroke="#eef3f1" stroke-width="1" />
      <text x="1292.00" y="470" text-anchor="middle" fill="#5b6b68" font-size="11">26-03-12</text>
    <line x1="1116.04" y1="132" x2="1116.04" y2="442" stroke="#f59e0b" stroke-width="1.4" stroke-dasharray="4 4" />
       <text x="1122.04" y="124" fill="#a16207" font-size="11">验证起点</text>
    <path d="M 98.00 187.78 L 102.19 191.12 L 106.38 217.46 L 110.57 217.01 L 114.76 222.90 L 118.95 225.90 L 123.14 255.13 L 127.33 277.25 L 131.52 270.47 L 135.71 260.36 L 139.89 263.69 L 144.08 261.91 L 148.27 260.25 L 152.46 275.58 L 156.65 284.59 L 160.84 270.81 L 165.03 283.36 L 169.22 303.81 L 173.41 269.58 L 177.60 281.25 L 181.79 290.14 L 185.98 291.26 L 190.17 304.26 L 194.36 314.04 L 198.55 301.93 L 202.74 323.93 L 206.93 324.04 L 211.12 327.27 L 215.31 322.04 L 219.49 314.04 L 223.68 329.49 L 227.87 334.27 L 232.06 339.82 L 236.25 340.27 L 240.44 355.05 L 244.63 373.50 L 248.82 379.72 L 253.01 382.28 L 257.20 352.61 L 261.39 345.83 L 265.58 344.05 L 269.77 359.27 L 273.96 354.83 L 278.15 355.05 L 282.34 358.39 L 286.53 348.94 L 290.72 337.38 L 294.91 319.93 L 299.09 299.59 L 303.28 293.03 L 307.47 270.25 L 311.66 250.36 L 315.85 254.58 L 320.04 271.81 L 324.23 262.36 L 328.42 275.58 L 332.61 273.81 L 336.80 280.03 L 340.99 267.25 L 345.18 279.36 L 349.37 340.60 L 353.56 326.71 L 357.75 305.93 L 361.94 300.48 L 366.13 295.70 L 370.32 278.03 L 374.51 268.92 L 378.69 268.58 L 382.88 236.69 L 387.07 236.80 L 391.26 221.90 L 395.45 203.79 L 399.64 211.01 L 403.83 199.79 L 408.02 224.79 L 412.21 213.12 L 416.40 206.57 L 420.59 209.23 L 424.78 202.68 L 428.97 217.57 L 433.16 258.36 L 437.35 243.24 L 441.54 180.56 L 445.73 190.12 L 449.92 192.45 L 454.11 171.00 L 458.29 172.11 L 462.48 169.00 L 466.67 187.67 L 470.86 189.01 L 475.05 199.79 L 479.24 178.56 L 483.43 176.22 L 487.62 175.67 L 491.81 182.89 L 496.00 177.89 L 500.19 183.89 L 504.38 190.56 L 508.57 193.79 L 512.76 185.23 L 516.95 164.44 L 521.14 156.66 L 525.33 154.22 L 529.52 152.00 L 533.71 171.33 L 537.89 191.34 L 542.08 178.67 L 546.27 196.56 L 550.46 202.01 L 554.65 208.46 L 558.84 199.56 L 563.03 193.79 L 567.22 176.89 L 571.41 169.89 L 575.60 154.44 L 579.79 144.44 L 583.98 152.66 L 588.17 148.77 L 592.36 153.33 L 596.55 147.66 L 600.74 150.22 L 604.93 159.22 L 609.12 153.33 L 613.31 154.77 L 617.49 164.78 L 621.68 177.34 L 625.87 176.00 L 630.06 173.89 L 634.25 167.00 L 638.44 172.67 L 642.63 187.67 L 646.82 179.89 L 651.01 187.67 L 655.20 183.45 L 659.39 201.90 L 663.58 212.79 L 667.77 223.24 L 671.96 219.24 L 676.15 239.80 L 680.34 241.46 L 684.53 243.69 L 688.72 250.91 L 692.91 253.69 L 697.09 260.80 L 701.28 251.69 L 705.47 264.47 L 709.66 258.25 L 713.85 254.02 L 718.04 248.24 L 722.23 257.47 L 726.42 251.02 L 730.61 226.35 L 734.80 218.90 L 738.99 214.57 L 743.18 219.57 L 747.37 225.13 L 751.56 233.35 L 755.75 254.80 L 759.94 255.58 L 764.13 262.25 L 768.32 279.92 L 772.51 273.03 L 776.69 264.25 L 780.88 256.91 L 785.07 258.58 L 789.26 263.69 L 793.45 251.69 L 797.64 255.36 L 801.83 242.02 L 806.02 241.91 L 810.21 243.13 L 814.40 237.24 L 818.59 228.68 L 822.78 216.68 L 826.97 224.24 L 831.16 219.24 L 835.35 233.35 L 839.54 245.35 L 843.73 253.69 L 847.92 259.14 L 852.11 270.81 L 856.29 273.70 L 860.48 277.70 L 864.67 251.91 L 868.86 253.91 L 873.05 248.36 L 877.24 256.80 L 881.43 232.68 L 885.62 222.46 L 889.81 212.57 L 894.00 204.12 L 898.19 209.79 L 902.38 188.23 L 906.57 204.34 L 910.76 210.35 L 914.95 205.90 L 919.14 211.12 L 923.33 210.79 L 927.52 216.79 L 931.71 227.02 L 935.89 221.79 L 940.08 227.68 L 944.27 221.79 L 948.46 242.24 L 952.65 242.24 L 956.84 230.80 L 961.03 214.68 L 965.22 217.35 L 969.41 227.02 L 973.60 217.68 L 977.79 214.35 L 981.98 218.01 L 986.17 211.12 L 990.36 211.79 L 994.55 229.91 L 998.74 230.35 L 1002.93 232.68 L 1007.12 220.35 L 1011.31 220.13 L 1015.49 216.90 L 1019.68 228.46 L 1023.87 241.58 L 1028.06 255.91 L 1032.25 246.02 L 1036.44 240.58 L 1040.63 265.92 L 1044.82 258.69 L 1049.01 260.25 L 1053.20 255.58 L 1057.39 267.14 L 1061.58 265.03 L 1065.77 274.70 L 1069.96 273.36 L 1074.15 262.47 L 1078.34 239.02 L 1082.53 238.13 L 1086.72 234.13 L 1090.91 244.47 L 1095.09 246.47 L 1099.28 249.47 L 1103.47 261.69 L 1107.66 255.91 L 1111.85 247.80 L 1116.04 237.69 L 1120.23 246.80 L 1124.42 242.35 L 1128.61 258.47 L 1132.80 273.58 L 1136.99 271.14 L 1141.18 280.03 L 1145.37 275.14 L 1149.56 276.03 L 1153.75 288.48 L 1157.94 292.14 L 1162.13 321.15 L 1166.32 328.82 L 1170.51 321.38 L 1174.69 340.05 L 1178.88 335.27 L 1183.07 328.82 L 1187.26 332.38 L 1191.45 328.60 L 1195.64 324.93 L 1199.83 297.81 L 1204.02 286.03 L 1208.21 282.48 L 1212.40 292.92 L 1216.59 286.92 L 1220.78 282.70 L 1224.97 273.47 L 1229.16 279.81 L 1233.35 289.48 L 1237.54 301.81 L 1241.73 304.04 L 1245.92 308.04 L 1250.11 312.82 L 1254.29 323.60 L 1258.48 357.38 L 1262.67 390.39 L 1266.86 384.73 L 1271.05 384.39 L 1275.24 391.06 L 1279.43 400.29 L 1283.62 395.62 L 1287.81 414.18 L 1292.00 434.74" fill="none" stroke="#0f766e" stroke-width="2"  />
<path d="M 98.00 208.43 L 102.19 186.89 L 106.38 213.39 L 110.57 217.86 L 114.76 220.02 L 118.95 223.37 L 123.14 227.02 L 127.33 270.69 L 131.52 275.50 L 135.71 267.42 L 139.89 262.89 L 144.08 263.99 L 148.27 263.22 L 152.46 263.07 L 156.65 283.33 L 160.84 273.32 L 165.03 291.93 L 169.22 299.42 L 173.41 275.76 L 177.60 275.20 L 181.79 294.76 L 185.98 289.48 L 190.17 306.17 L 194.36 310.40 L 198.55 308.35 L 202.74 331.55 L 206.93 323.32 L 211.12 323.24 L 215.31 323.62 L 219.49 317.39 L 223.68 336.04 L 227.87 329.19 L 232.06 332.81 L 236.25 343.20 L 240.44 354.19 L 244.63 358.48 L 248.82 378.05 L 253.01 379.10 L 257.20 358.08 L 261.39 353.52 L 265.58 343.71 L 269.77 361.63 L 273.96 357.43 L 278.15 354.28 L 282.34 358.49 L 286.53 353.81 L 290.72 345.69 L 294.91 332.61 L 299.09 300.71 L 303.28 298.10 L 307.47 273.53 L 311.66 265.37 L 315.85 251.97 L 320.04 269.00 L 324.23 266.35 L 328.42 273.10 L 332.61 272.38 L 336.80 276.33 L 340.99 274.17 L 345.18 270.81 L 349.37 347.94 L 353.56 339.98 L 357.75 279.54 L 361.94 327.05 L 366.13 297.02 L 370.32 289.52 L 374.51 275.54 L 378.69 267.81 L 382.88 243.22 L 387.07 236.04 L 391.26 233.12 L 395.45 209.58 L 399.64 216.07 L 403.83 196.91 L 408.02 221.93 L 412.21 216.80 L 416.40 210.47 L 420.59 208.66 L 424.78 207.54 L 428.97 208.05 L 433.16 259.51 L 437.35 239.98 L 441.54 193.13 L 445.73 182.49 L 449.92 192.14 L 454.11 175.40 L 458.29 172.70 L 462.48 161.62 L 466.67 185.91 L 470.86 189.92 L 475.05 192.90 L 479.24 186.44 L 483.43 174.00 L 487.62 176.05 L 491.81 178.38 L 496.00 179.81 L 500.19 180.09 L 504.38 181.51 L 508.57 191.57 L 512.76 191.35 L 516.95 171.17 L 521.14 157.72 L 525.33 155.52 L 529.52 152.86 L 533.71 166.96 L 537.89 191.21 L 542.08 185.93 L 546.27 196.93 L 550.46 196.75 L 554.65 202.63 L 558.84 209.77 L 563.03 191.07 L 567.22 188.34 L 571.41 172.71 L 575.60 162.28 L 579.79 150.36 L 583.98 140.73 L 588.17 151.02 L 592.36 150.26 L 596.55 149.51 L 600.74 147.00 L 604.93 148.32 L 609.12 154.94 L 613.31 152.19 L 617.49 159.85 L 621.68 170.40 L 625.87 173.59 L 630.06 176.91 L 634.25 168.51 L 638.44 171.11 L 642.63 185.57 L 646.82 186.09 L 651.01 182.78 L 655.20 187.63 L 659.39 200.44 L 663.58 205.63 L 667.77 216.89 L 671.96 220.36 L 676.15 239.74 L 680.34 239.90 L 684.53 240.88 L 688.72 248.23 L 692.91 251.71 L 697.09 256.95 L 701.28 258.72 L 705.47 257.78 L 709.66 263.92 L 713.85 256.25 L 718.04 252.13 L 722.23 253.45 L 726.42 253.60 L 730.61 234.36 L 734.80 224.09 L 738.99 217.91 L 743.18 217.19 L 747.37 219.29 L 751.56 229.81 L 755.75 249.10 L 759.94 254.16 L 764.13 260.53 L 768.32 276.43 L 772.51 279.35 L 776.69 273.51 L 780.88 261.03 L 785.07 257.77 L 789.26 261.38 L 793.45 259.71 L 797.64 255.31 L 801.83 249.69 L 806.02 241.14 L 810.21 243.38 L 814.40 237.74 L 818.59 233.10 L 822.78 226.35 L 826.97 220.67 L 831.16 220.60 L 835.35 222.68 L 839.54 242.16 L 843.73 248.41 L 847.92 256.80 L 852.11 262.47 L 856.29 270.03 L 860.48 275.70 L 864.67 264.07 L 868.86 252.91 L 873.05 249.98 L 877.24 251.45 L 881.43 239.61 L 885.62 230.36 L 889.81 217.48 L 894.00 208.73 L 898.19 208.26 L 902.38 190.67 L 906.57 203.05 L 910.76 206.93 L 914.95 208.43 L 919.14 208.53 L 923.33 211.33 L 927.52 214.36 L 931.71 221.14 L 935.89 221.12 L 940.08 226.69 L 944.27 224.65 L 948.46 241.61 L 952.65 241.46 L 956.84 238.08 L 961.03 220.70 L 965.22 217.01 L 969.41 227.85 L 973.60 222.65 L 977.79 212.40 L 981.98 214.97 L 986.17 215.89 L 990.36 212.99 L 994.55 224.88 L 998.74 226.35 L 1002.93 230.74 L 1007.12 228.00 L 1011.31 220.28 L 1015.49 220.60 L 1019.68 218.19 L 1023.87 237.91 L 1028.06 252.76 L 1032.25 251.97 L 1036.44 244.73 L 1040.63 264.13 L 1044.82 261.38 L 1049.01 257.74 L 1053.20 257.69 L 1057.39 266.44 L 1061.58 265.73 L 1065.77 292.84 L 1069.96 273.34 L 1074.15 268.47 L 1078.34 241.45 L 1082.53 237.28 L 1086.72 234.12 L 1090.91 243.62 L 1095.09 243.93 L 1099.28 246.17 L 1103.47 250.69 L 1107.66 260.51 L 1111.85 249.80 L 1116.04 243.93 L 1120.23 242.27 L 1124.42 244.28 L 1128.61 254.49 L 1132.80 270.47 L 1136.99 274.03 L 1141.18 275.54 L 1145.37 278.49 L 1149.56 275.86 L 1153.75 280.91 L 1157.94 288.04 L 1162.13 293.19 L 1166.32 325.24 L 1170.51 327.23 L 1174.69 340.07 L 1178.88 336.82 L 1183.07 334.33 L 1187.26 332.49 L 1191.45 331.49 L 1195.64 325.94 L 1199.83 291.88 L 1204.02 300.21 L 1208.21 282.89 L 1212.40 294.02 L 1216.59 289.33 L 1220.78 282.51 L 1224.97 279.16 L 1229.16 276.23 L 1233.35 289.62 L 1237.54 291.65 L 1241.73 305.46 L 1245.92 303.82 L 1250.11 313.23 L 1254.29 315.87 L 1258.48 352.00 L 1262.67 376.22 L 1266.86 389.64 L 1271.05 386.12 L 1275.24 388.84 L 1279.43 391.56 L 1283.62 403.19 L 1287.81 408.42 L 1292.00 434.29" fill="none" stroke="#1d4ed8" stroke-width="2"  />
  </g>
  <g>
    <text x="54" y="538" fill="#1f2937" font-size="16" font-weight="700">B. 绝对误差（越低越好）</text>
    <line x1="98" y1="558" x2="124" y2="558" stroke="#1d4ed8" stroke-width="2"  />
      <text x="130" y="562" fill="#24312e" font-size="12">持仓分段误差</text>
    <line x1="98" y1="560.00" x2="1292" y2="560.00" stroke="#d7e3df" stroke-width="1" />
      <text x="90" y="564.00" text-anchor="end" fill="#5b6b68" font-size="11">2.00%</text>
<line x1="98" y1="630.00" x2="1292" y2="630.00" stroke="#d7e3df" stroke-width="1" />
      <text x="90" y="634.00" text-anchor="end" fill="#5b6b68" font-size="11">1.50%</text>
<line x1="98" y1="700.00" x2="1292" y2="700.00" stroke="#d7e3df" stroke-width="1" />
      <text x="90" y="704.00" text-anchor="end" fill="#5b6b68" font-size="11">1.00%</text>
<line x1="98" y1="770.00" x2="1292" y2="770.00" stroke="#d7e3df" stroke-width="1" />
      <text x="90" y="774.00" text-anchor="end" fill="#5b6b68" font-size="11">0.50%</text>
<line x1="98" y1="840.00" x2="1292" y2="840.00" stroke="#d7e3df" stroke-width="1" />
      <text x="90" y="844.00" text-anchor="end" fill="#5b6b68" font-size="11">0.00%</text>
    <line x1="98.00" y1="560" x2="98.00" y2="840" stroke="#eef3f1" stroke-width="1" />
      <text x="98.00" y="868" text-anchor="middle" fill="#5b6b68" font-size="11">25-01-02</text>
<line x1="290.72" y1="560" x2="290.72" y2="840" stroke="#eef3f1" stroke-width="1" />
      <text x="290.72" y="868" text-anchor="middle" fill="#5b6b68" font-size="11">25-03-17</text>
<line x1="479.24" y1="560" x2="479.24" y2="840" stroke="#eef3f1" stroke-width="1" />
      <text x="479.24" y="868" text-anchor="middle" fill="#5b6b68" font-size="11">25-05-23</text>
<line x1="697.09" y1="560" x2="697.09" y2="840" stroke="#eef3f1" stroke-width="1" />
      <text x="697.09" y="868" text-anchor="middle" fill="#5b6b68" font-size="11">25-08-06</text>
<line x1="910.76" y1="560" x2="910.76" y2="840" stroke="#eef3f1" stroke-width="1" />
      <text x="910.76" y="868" text-anchor="middle" fill="#5b6b68" font-size="11">25-10-24</text>
<line x1="1099.28" y1="560" x2="1099.28" y2="840" stroke="#eef3f1" stroke-width="1" />
      <text x="1099.28" y="868" text-anchor="middle" fill="#5b6b68" font-size="11">25-12-26</text>
<line x1="1292.00" y1="560" x2="1292.00" y2="840" stroke="#eef3f1" stroke-width="1" />
      <text x="1292.00" y="868" text-anchor="middle" fill="#5b6b68" font-size="11">26-03-12</text>
    <line x1="1116.04" y1="560" x2="1116.04" y2="840" stroke="#f59e0b" stroke-width="1.4" stroke-dasharray="4 4" />
       <text x="1122.04" y="552" fill="#a16207" font-size="11">验证起点</text>
    <path d="M 98.00 669.95 L 102.19 805.07 L 106.38 805.89 L 110.57 832.90 L 114.76 815.74 L 118.95 818.65 L 123.14 598.85 L 127.33 782.97 L 131.52 796.48 L 135.71 779.20 L 139.89 833.06 L 144.08 822.09 L 148.27 814.44 L 152.46 731.32 L 156.65 829.00 L 160.84 818.22 L 165.03 765.24 L 169.22 801.14 L 173.41 786.58 L 177.60 787.22 L 181.79 799.58 L 185.98 824.43 L 190.17 823.06 L 194.36 807.61 L 198.55 783.25 L 202.74 771.81 L 206.93 833.53 L 211.12 803.88 L 215.31 825.93 L 219.49 810.21 L 223.68 781.08 L 227.87 794.26 L 232.06 776.50 L 236.25 813.51 L 240.44 832.10 L 244.63 701.07 L 248.82 824.45 L 253.01 810.39 L 257.20 790.04 L 261.39 770.08 L 265.58 836.92 L 269.77 818.38 L 273.96 816.25 L 278.15 832.97 L 282.34 839.08 L 286.53 795.64 L 290.72 764.92 L 294.91 726.76 L 299.09 830.10 L 303.28 795.55 L 307.47 811.62 L 311.66 711.57 L 315.85 817.62 L 320.04 815.64 L 324.23 805.60 L 328.42 818.38 L 332.61 827.66 L 336.80 807.73 L 340.99 780.15 L 345.18 765.55 L 349.37 773.61 L 353.56 720.95 L 357.75 606.39 L 361.94 605.55 L 366.13 828.40 L 370.32 740.08 L 374.51 782.74 L 378.69 833.32 L 382.88 784.59 L 387.07 833.58 L 391.26 745.73 L 395.45 791.83 L 399.64 797.75 L 403.83 816.10 L 408.02 815.90 L 412.21 809.29 L 416.40 807.48 L 420.59 835.21 L 424.78 799.57 L 428.97 760.17 L 433.16 830.10 L 437.35 812.22 L 441.54 736.85 L 445.73 777.08 L 449.92 837.39 L 454.11 804.09 L 458.29 835.23 L 462.48 779.89 L 466.67 825.47 L 470.86 832.49 L 475.05 782.83 L 479.24 775.41 L 483.43 821.80 L 487.62 836.85 L 491.81 802.93 L 496.00 824.31 L 500.19 808.76 L 504.38 765.32 L 508.57 821.66 L 512.76 789.68 L 516.95 785.31 L 521.14 831.45 L 525.33 829.47 L 529.52 833.01 L 533.71 804.30 L 537.89 838.89 L 542.08 780.50 L 546.27 836.92 L 550.46 796.30 L 554.65 791.39 L 558.84 755.36 L 563.03 817.54 L 567.22 746.30 L 571.41 816.98 L 575.60 776.67 L 579.79 792.46 L 583.98 743.70 L 588.17 821.88 L 592.36 815.24 L 596.55 825.09 L 600.74 814.03 L 604.93 751.73 L 609.12 827.01 L 613.31 819.15 L 617.49 799.94 L 621.68 783.21 L 625.87 820.23 L 630.06 815.34 L 634.25 827.70 L 638.44 827.30 L 642.63 822.69 L 646.82 789.19 L 651.01 799.70 L 655.20 805.68 L 659.39 827.92 L 663.58 780.14 L 667.77 786.62 L 671.96 830.58 L 676.15 839.50 L 680.34 826.70 L 684.53 816.06 L 688.72 817.02 L 692.91 822.99 L 697.09 806.84 L 701.28 779.81 L 705.47 782.25 L 709.66 791.28 L 713.85 820.92 L 718.04 806.81 L 722.23 805.49 L 726.42 817.93 L 730.61 772.50 L 734.80 796.48 L 738.99 812.07 L 743.18 820.00 L 747.37 790.88 L 751.56 810.06 L 755.75 791.07 L 759.94 827.85 L 764.13 825.22 L 768.32 809.62 L 772.51 785.19 L 776.69 760.11 L 780.88 804.64 L 785.07 833.07 L 789.26 820.05 L 793.45 771.38 L 797.64 839.59 L 801.83 774.74 L 806.02 833.42 L 810.21 837.87 L 814.40 835.79 L 818.59 802.68 L 822.78 758.95 L 826.97 810.00 L 831.16 828.54 L 835.35 749.68 L 839.54 812.78 L 843.73 794.77 L 847.92 819.94 L 852.11 767.79 L 856.29 808.18 L 860.48 822.66 L 864.67 735.91 L 868.86 831.43 L 873.05 826.08 L 877.24 794.02 L 881.43 781.38 L 885.62 773.54 L 889.81 798.97 L 894.00 801.66 L 898.19 827.20 L 902.38 819.84 L 906.57 829.23 L 910.76 811.46 L 914.95 818.91 L 919.14 818.38 L 923.33 835.51 L 927.52 819.63 L 931.71 790.48 L 935.89 834.38 L 940.08 831.58 L 944.27 815.99 L 948.46 834.58 L 952.65 833.31 L 956.84 778.40 L 961.03 789.64 L 965.22 837.19 L 969.41 832.98 L 973.60 798.37 L 977.79 823.73 L 981.98 814.51 L 986.17 800.17 L 990.36 829.94 L 994.55 797.56 L 998.74 806.23 L 1002.93 823.59 L 1007.12 775.70 L 1011.31 838.72 L 1015.49 809.02 L 1019.68 753.30 L 1023.87 808.84 L 1028.06 812.90 L 1032.25 789.28 L 1036.44 804.64 L 1040.63 824.58 L 1044.82 816.91 L 1049.01 818.44 L 1053.20 821.94 L 1057.39 834.00 L 1061.58 833.94 L 1065.77 682.44 L 1069.96 839.77 L 1074.15 788.29 L 1078.34 819.33 L 1082.53 832.74 L 1086.72 839.93 L 1090.91 832.75 L 1095.09 818.36 L 1099.28 811.81 L 1103.47 745.23 L 1107.66 800.53 L 1111.85 822.94 L 1116.04 787.00 L 1120.23 801.37 L 1124.42 823.56 L 1128.61 805.77 L 1132.80 812.99 L 1136.99 814.95 L 1141.18 800.86 L 1145.37 810.93 L 1149.56 838.52 L 1153.75 773.74 L 1157.94 804.00 L 1162.13 590.00 L 1166.32 807.85 L 1170.51 787.63 L 1174.69 839.76 L 1178.88 825.98 L 1183.07 790.54 L 1187.26 839.04 L 1191.45 814.03 L 1195.64 830.96 L 1199.83 787.74 L 1204.02 716.07 L 1208.21 836.35 L 1212.40 830.40 L 1216.59 818.91 L 1220.78 838.35 L 1224.97 790.68 L 1229.16 808.88 L 1233.35 838.76 L 1237.54 750.28 L 1241.73 827.44 L 1245.92 802.63 L 1250.11 836.29 L 1254.29 770.85 L 1258.48 790.72 L 1262.67 707.48 L 1266.86 794.22 L 1271.05 823.87 L 1275.24 819.24 L 1279.43 757.81 L 1283.62 768.93 L 1287.81 785.28 L 1292.00 835.66" fill="none" stroke="#1d4ed8" stroke-width="2"  />
  </g>
</svg>