<?xml version="1.0" encoding="UTF-8"?>
<svg xmlns="http://www.w3.org/2000/svg" width="1360" height="980" viewBox="0 0 1360 980">
  <defs>
    <linearGradient id="bg" x1="0" y1="0" x2="1" y2="1">
      <stop offset="0%" stop-color="#f4efe6" />
      <stop offset="100%" stop-color="#eef5f2" />
    </linearGradient>
  </defs>
  <rect x="0" y="0" width="1360" height="980" fill="url(#bg)" />
  <text x="46" y="36" fill="#1f2937" font-size="31" font-weight="700">501300 离线研究图（持仓逐日估值版）</text>
  <text x="46" y="66" fill="#5b6b68" font-size="13">历史前十大持仓 + 持仓逐日涨跌幅 + USDCNY；双目标 lambda=0.10；披露期数 36；覆盖率均值 91.9%</text>
  <g>
    <text x="54" y="110" fill="#1f2937" font-size="16" font-weight="700">A. 净值拟合（同日对齐，无平移）</text>
    <line x1="98" y1="130" x2="124" y2="130" stroke="#0f766e" stroke-width="2"  />
      <text x="130" y="134" fill="#24312e" font-size="12">真实净值</text>
<line x1="313" y1="130" x2="339" y2="130" stroke="#1d4ed8" stroke-width="2"  />
      <text x="345" y="134" fill="#24312e" font-size="12">持仓分段估值</text>
    <line x1="98" y1="132.00" x2="1292" y2="132.00" stroke="#d7e3df" stroke-width="1" />
      <text x="90" y="136.00" text-anchor="end" fill="#5b6b68" font-size="11">0.987</text>
<line x1="98" y1="209.50" x2="1292" y2="209.50" stroke="#d7e3df" stroke-width="1" />
      <text x="90" y="213.50" text-anchor="end" fill="#5b6b68" font-size="11">0.974</text>
<line x1="98" y1="287.00" x2="1292" y2="287.00" stroke="#d7e3df" stroke-width="1" />
      <text x="90" y="291.00" text-anchor="end" fill="#5b6b68" font-size="11">0.961</text>
<line x1="98" y1="364.50" x2="1292" y2="364.50" stroke="#d7e3df" stroke-width="1" />
      <text x="90" y="368.50" text-anchor="end" fill="#5b6b68" font-size="11">0.948</text>
<line x1="98" y1="442.00" x2="1292" y2="442.00" stroke="#d7e3df" stroke-width="1" />
      <text x="90" y="446.00" text-anchor="end" fill="#5b6b68" font-size="11">0.935</text>
    <line x1="98.00" y1="132" x2="98.00" y2="442" stroke="#eef3f1" stroke-width="1" />
      <text x="98.00" y="470" text-anchor="middle" fill="#5b6b68" font-size="11">25-01-02</text>
<line x1="290.72" y1="132" x2="290.72" y2="442" stroke="#eef3f1" stroke-width="1" />
      <text x="290.72" y="470" text-anchor="middle" fill="#5b6b68" font-size="11">25-03-17</text>
<line x1="479.24" y1="132" x2="479.24" y2="442" stroke="#eef3f1" stroke-width="1" />
      <text x="479.24" y="470" text-anchor="middle" fill="#5b6b68" font-size="11">25-05-23</text>
<line x1="697.09" y1="132" x2="697.09" y2="442" stroke="#eef3f1" stroke-width="1" />
      <text x="697.09" y="470" text-anchor="middle" fill="#5b6b68" font-size="11">25-08-06</text>
<line x1="910.76" y1="132" x2="910.76" y2="442" stroke="#eef3f1" stroke-width="1" />
      <text x="910.76" y="470" text-anchor="middle" fill="#5b6b68" font-size="11">25-10-24</text>
<line x1="1099.28" y1="132" x2="1099.28" y2="442" stroke="#eef3f1" stroke-width="1" />
      <text x="1099.28" y="470" text-anchor="middle" fill="#5b6b68" font-size="11">25-12-26</text>
<line x1="1292.00" y1="132" x2="1292.00" y2="442" stroke="#eef3f1" stroke-width="1" />
      <text x="1292.00" y="470" text-anchor="middle" fill="#5b6b68" font-size="11">26-03-12</text>
    <line x1="1116.04" y1="132" x2="1116.04" y2="442" stroke="#f59e0b" stroke-width="1.4" stroke-dasharray="4 4" />
       <text x="1122.04" y="124" fill="#a16207" font-size="11">验证起点</text>
    <path d="M 98.00 368.09 L 102.19 375.24 L 106.38 380.61 L 110.57 390.14 L 114.76 393.12 L 118.95 391.93 L 123.14 406.24 L 127.33 409.81 L 131.52 413.98 L 135.71 383.59 L 139.89 374.05 L 144.08 375.84 L 148.27 374.65 L 152.46 378.22 L 156.65 384.78 L 160.84 390.14 L 165.03 385.38 L 169.22 364.52 L 173.41 332.93 L 177.60 335.91 L 181.79 349.02 L 185.98 347.83 L 190.17 355.58 L 194.36 377.63 L 198.55 352.60 L 202.74 340.08 L 206.93 338.89 L 211.12 356.17 L 215.31 351.40 L 219.49 344.25 L 223.68 326.97 L 227.87 316.84 L 232.06 290.02 L 236.25 279.29 L 240.44 278.69 L 244.63 264.98 L 248.82 250.68 L 253.01 272.14 L 257.20 282.27 L 261.39 282.86 L 265.58 287.04 L 269.77 262.00 L 273.96 276.31 L 278.15 288.82 L 282.34 275.12 L 286.53 284.06 L 290.72 282.86 L 294.91 275.71 L 299.09 267.96 L 303.28 262.00 L 307.47 263.79 L 311.66 281.67 L 315.85 276.31 L 320.04 288.23 L 324.23 287.63 L 328.42 262.00 L 332.61 247.70 L 336.80 238.76 L 340.99 228.03 L 345.18 196.44 L 349.37 227.44 L 353.56 250.68 L 357.75 260.81 L 361.94 279.29 L 366.13 293.59 L 370.32 263.79 L 374.51 255.45 L 378.69 238.16 L 382.88 253.06 L 387.07 254.26 L 391.26 273.92 L 395.45 269.16 L 399.64 260.22 L 403.83 245.91 L 408.02 229.22 L 412.21 223.26 L 416.40 214.32 L 420.59 213.73 L 424.78 244.72 L 428.97 236.38 L 433.16 256.64 L 437.35 254.26 L 441.54 277.50 L 445.73 282.27 L 449.92 301.34 L 454.11 275.71 L 458.29 288.23 L 462.48 281.08 L 466.67 288.82 L 470.86 315.05 L 475.05 301.94 L 479.24 296.57 L 483.43 301.94 L 487.62 282.86 L 491.81 288.23 L 496.00 272.73 L 500.19 272.73 L 504.38 281.08 L 508.57 257.83 L 512.76 266.18 L 516.95 290.61 L 521.14 282.27 L 525.33 282.27 L 529.52 273.33 L 533.71 259.02 L 537.89 270.35 L 542.08 278.69 L 546.27 269.75 L 550.46 268.56 L 554.65 270.35 L 558.84 269.16 L 563.03 259.62 L 567.22 252.47 L 571.41 250.08 L 575.60 244.72 L 579.79 250.68 L 583.98 241.74 L 588.17 248.30 L 592.36 254.85 L 596.55 270.35 L 600.74 269.16 L 604.93 279.29 L 609.12 280.48 L 613.31 264.39 L 617.49 269.16 L 621.68 286.44 L 625.87 291.21 L 630.06 300.74 L 634.25 293.00 L 638.44 296.57 L 642.63 285.25 L 646.82 273.92 L 651.01 270.35 L 655.20 281.08 L 659.39 285.84 L 663.58 281.08 L 667.77 282.27 L 671.96 254.85 L 676.15 271.54 L 680.34 268.56 L 684.53 232.20 L 688.72 231.01 L 692.91 235.78 L 697.09 236.97 L 701.28 243.53 L 705.47 248.30 L 709.66 245.91 L 713.85 245.91 L 718.04 235.78 L 722.23 248.89 L 726.42 254.26 L 730.61 260.22 L 734.80 250.68 L 738.99 244.72 L 743.18 260.22 L 747.37 239.95 L 751.56 256.04 L 755.75 250.08 L 759.94 248.89 L 764.13 244.12 L 768.32 251.87 L 772.51 247.70 L 776.69 253.66 L 780.88 240.55 L 785.07 231.01 L 789.26 208.36 L 793.45 200.62 L 797.64 213.13 L 801.83 198.83 L 806.02 194.66 L 810.21 205.98 L 814.40 194.66 L 818.59 193.46 L 822.78 208.36 L 826.97 206.58 L 831.16 208.36 L 835.35 213.73 L 839.54 207.17 L 843.73 214.92 L 847.92 217.30 L 852.11 216.11 L 856.29 210.15 L 860.48 214.92 L 864.67 203.60 L 868.86 180.95 L 873.05 183.33 L 877.24 180.35 L 881.43 181.54 L 885.62 169.62 L 889.81 179.16 L 894.00 168.43 L 898.19 167.24 L 902.38 161.28 L 906.57 176.77 L 910.76 175.58 L 914.95 172.60 L 919.14 173.20 L 923.33 198.83 L 927.52 202.40 L 931.71 195.85 L 935.89 203.60 L 940.08 195.25 L 944.27 211.94 L 948.46 195.25 L 952.65 200.02 L 956.84 202.40 L 961.03 200.62 L 965.22 191.67 L 969.41 198.23 L 973.60 207.77 L 977.79 204.79 L 981.98 195.25 L 986.17 199.42 L 990.36 183.93 L 994.55 180.35 L 998.74 172.60 L 1002.93 166.64 L 1007.12 167.83 L 1011.31 169.03 L 1015.49 172.60 L 1019.68 191.67 L 1023.87 188.10 L 1028.06 185.12 L 1032.25 194.06 L 1036.44 202.40 L 1040.63 207.17 L 1044.82 211.94 L 1049.01 203.60 L 1053.20 210.15 L 1057.39 219.69 L 1061.58 213.73 L 1065.77 210.15 L 1069.96 214.32 L 1074.15 204.79 L 1078.34 213.13 L 1082.53 214.32 L 1086.72 218.50 L 1090.91 214.92 L 1095.09 220.88 L 1099.28 220.88 L 1103.47 216.71 L 1107.66 217.30 L 1111.85 232.80 L 1116.04 232.20 L 1120.23 239.95 L 1124.42 232.20 L 1128.61 235.78 L 1132.80 240.55 L 1136.99 242.93 L 1141.18 243.53 L 1145.37 230.42 L 1149.56 244.12 L 1153.75 254.26 L 1157.94 255.45 L 1162.13 274.52 L 1166.32 262.00 L 1170.51 261.41 L 1174.69 263.79 L 1178.88 266.18 L 1183.07 271.54 L 1187.26 279.29 L 1191.45 275.12 L 1195.64 281.67 L 1199.83 289.42 L 1204.02 293.00 L 1208.21 300.15 L 1212.40 273.92 L 1216.59 278.10 L 1220.78 280.48 L 1224.97 271.54 L 1229.16 279.29 L 1233.35 259.62 L 1237.54 251.87 L 1241.73 242.34 L 1245.92 254.26 L 1250.11 250.08 L 1254.29 234.59 L 1258.48 254.26 L 1262.67 271.54 L 1266.86 276.31 L 1271.05 294.19 L 1275.24 293.00 L 1279.43 272.14 L 1283.62 298.96 L 1287.81 320.41 L 1292.00 325.18" fill="none" stroke="#0f766e" stroke-width="2"  />
<path d="M 98.00 371.66 L 102.19 368.08 L 106.38 376.94 L 110.57 408.50 L 114.76 383.43 L 118.95 393.94 L 123.14 394.36 L 127.33 406.10 L 131.52 410.41 L 135.71 370.77 L 139.89 377.83 L 144.08 373.05 L 148.27 379.75 L 152.46 381.56 L 156.65 385.92 L 160.84 387.97 L 165.03 392.03 L 169.22 353.56 L 173.41 336.79 L 177.60 332.30 L 181.79 347.83 L 185.98 347.17 L 190.17 352.58 L 194.36 373.06 L 198.55 359.49 L 202.74 349.86 L 206.93 341.83 L 211.12 338.42 L 215.31 353.00 L 219.49 350.63 L 223.68 330.84 L 227.87 324.30 L 232.06 292.11 L 236.25 286.21 L 240.44 282.27 L 244.63 261.55 L 248.82 262.32 L 253.01 264.91 L 257.20 285.16 L 261.39 284.80 L 265.58 285.94 L 269.77 257.41 L 273.96 275.25 L 278.15 278.53 L 282.34 283.92 L 286.53 278.70 L 290.72 279.35 L 294.91 281.90 L 299.09 265.42 L 303.28 266.60 L 307.47 262.96 L 311.66 278.12 L 315.85 279.57 L 320.04 279.28 L 324.23 289.45 L 328.42 272.40 L 332.61 257.90 L 336.80 243.48 L 340.99 238.85 L 345.18 212.77 L 349.37 237.01 L 353.56 243.03 L 357.75 234.15 L 361.94 294.06 L 366.13 281.35 L 370.32 270.25 L 374.51 258.78 L 378.69 251.60 L 382.88 243.68 L 387.07 254.53 L 391.26 253.07 L 395.45 261.17 L 399.64 265.43 L 403.83 241.34 L 408.02 235.37 L 412.21 223.94 L 416.40 220.24 L 420.59 218.52 L 424.78 256.36 L 428.97 239.91 L 433.16 248.40 L 437.35 254.42 L 441.54 266.98 L 445.73 279.95 L 449.92 291.14 L 454.11 284.58 L 458.29 273.98 L 462.48 286.39 L 466.67 284.22 L 470.86 311.93 L 475.05 311.40 L 479.24 302.46 L 483.43 296.82 L 487.62 302.31 L 491.81 286.70 L 496.00 273.73 L 500.19 268.10 L 504.38 292.03 L 508.57 258.96 L 512.76 261.52 L 516.95 281.40 L 521.14 286.48 L 525.33 277.15 L 529.52 277.45 L 533.71 261.53 L 537.89 270.45 L 542.08 269.84 L 546.27 267.45 L 550.46 268.01 L 554.65 270.28 L 558.84 272.71 L 563.03 264.60 L 567.22 255.09 L 571.41 251.76 L 575.60 245.90 L 579.79 247.87 L 583.98 235.86 L 588.17 245.08 L 592.36 249.05 L 596.55 259.42 L 600.74 271.90 L 604.93 269.25 L 609.12 280.12 L 613.31 267.81 L 617.49 264.76 L 621.68 283.57 L 625.87 285.78 L 630.06 295.13 L 634.25 298.32 L 638.44 291.89 L 642.63 294.71 L 646.82 281.65 L 651.01 269.50 L 655.20 280.54 L 659.39 282.74 L 663.58 280.18 L 667.77 281.03 L 671.96 265.21 L 676.15 258.45 L 680.34 269.28 L 684.53 251.50 L 688.72 231.76 L 692.91 227.82 L 697.09 237.13 L 701.28 239.08 L 705.47 245.83 L 709.66 246.20 L 713.85 246.01 L 718.04 241.02 L 722.23 244.39 L 726.42 250.64 L 730.61 253.78 L 734.80 256.76 L 738.99 249.23 L 743.18 248.09 L 747.37 245.23 L 751.56 241.20 L 755.75 254.04 L 759.94 248.71 L 764.13 248.67 L 768.32 247.30 L 772.51 254.81 L 776.69 248.07 L 780.88 241.24 L 785.07 229.02 L 789.26 216.60 L 793.45 197.53 L 797.64 204.62 L 801.83 208.84 L 806.02 193.13 L 810.21 196.49 L 814.40 204.09 L 818.59 195.11 L 822.78 197.54 L 826.97 219.93 L 831.16 205.06 L 835.35 208.36 L 839.54 209.13 L 843.73 209.20 L 847.92 216.21 L 852.11 215.36 L 856.29 213.67 L 860.48 210.99 L 864.67 215.06 L 868.86 190.67 L 873.05 177.01 L 877.24 179.53 L 881.43 182.40 L 885.62 176.00 L 889.81 170.75 L 894.00 176.17 L 898.19 165.98 L 902.38 166.18 L 906.57 164.82 L 910.76 174.75 L 914.95 173.04 L 919.14 171.86 L 923.33 188.12 L 927.52 202.06 L 931.71 204.00 L 935.89 203.29 L 940.08 201.73 L 944.27 205.39 L 948.46 201.27 L 952.65 195.87 L 956.84 197.92 L 961.03 197.07 L 965.22 200.99 L 969.41 205.69 L 973.60 200.85 L 977.79 204.97 L 981.98 203.51 L 986.17 195.24 L 990.36 196.14 L 994.55 179.15 L 998.74 176.74 L 1002.93 170.68 L 1007.12 163.42 L 1011.31 168.93 L 1015.49 171.30 L 1019.68 189.96 L 1023.87 189.73 L 1028.06 185.20 L 1032.25 187.90 L 1036.44 195.99 L 1040.63 201.52 L 1044.82 208.18 L 1049.01 205.35 L 1053.20 204.87 L 1057.39 225.28 L 1061.58 217.80 L 1065.77 209.94 L 1069.96 209.98 L 1074.15 211.08 L 1078.34 217.73 L 1082.53 211.60 L 1086.72 214.36 L 1090.91 214.60 L 1095.09 216.60 L 1099.28 222.64 L 1103.47 218.38 L 1107.66 219.27 L 1111.85 221.91 L 1116.04 229.90 L 1120.23 232.88 L 1124.42 236.61 L 1128.61 236.15 L 1132.80 230.35 L 1136.99 240.18 L 1141.18 241.11 L 1145.37 240.77 L 1149.56 232.41 L 1153.75 247.71 L 1157.94 255.97 L 1162.13 258.19 L 1166.32 262.74 L 1170.51 260.22 L 1174.69 260.04 L 1178.88 261.58 L 1183.07 268.82 L 1187.26 274.21 L 1191.45 279.55 L 1195.64 276.51 L 1199.83 290.39 L 1204.02 289.64 L 1208.21 294.57 L 1212.40 288.72 L 1216.59 273.60 L 1220.78 277.33 L 1224.97 275.31 L 1229.16 275.32 L 1233.35 267.44 L 1237.54 249.39 L 1241.73 251.46 L 1245.92 243.51 L 1250.11 254.79 L 1254.29 243.48 L 1258.48 243.81 L 1262.67 252.94 L 1266.86 272.79 L 1271.05 290.32 L 1275.24 295.26 L 1279.43 283.93 L 1283.62 298.89 L 1287.81 321.23 L 1292.00 326.95" fill="none" stroke="#1d4ed8" stroke-width="2"  />
  </g>
  <g>
    <text x="54" y="538" fill="#1f2937" font-size="16" font-weight="700">B. 绝对误差（越低越好）</text>
    <line x1="98" y1="558" x2="124" y2="558" stroke="#1d4ed8" stroke-width="2"  />
      <text x="130" y="562" fill="#24312e" font-size="12">持仓分段误差</text>
    <line x1="98" y1="560.00" x2="1292" y2="560.00" stroke="#d7e3df" stroke-width="1" />
      <text x="90" y="564.00" text-anchor="end" fill="#5b6b68" font-size="11">0.52%</text>
<line x1="98" y1="630.00" x2="1292" y2="630.00" stroke="#d7e3df" stroke-width="1" />
      <text x="90" y="634.00" text-anchor="end" fill="#5b6b68" font-size="11">0.39%</text>
<line x1="98" y1="700.00" x2="1292" y2="700.00" stroke="#d7e3df" stroke-width="1" />
      <text x="90" y="704.00" text-anchor="end" fill="#5b6b68" font-size="11">0.26%</text>
<line x1="98" y1="770.00" x2="1292" y2="770.00" stroke="#d7e3df" stroke-width="1" />
      <text x="90" y="774.00" text-anchor="end" fill="#5b6b68" font-size="11">0.13%</text>
<line x1="98" y1="840.00" x2="1292" y2="840.00" stroke="#d7e3df" stroke-width="1" />
      <text x="90" y="844.00" text-anchor="end" fill="#5b6b68" font-size="11">0.00%</text>
    <line x1="98.00" y1="560" x2="98.00" y2="840" stroke="#eef3f1" stroke-width="1" />
      <text x="98.00" y="868" text-anchor="middle" fill="#5b6b68" font-size="11">25-01-02</text>
<line x1="290.72" y1="560" x2="290.72" y2="840" stroke="#eef3f1" stroke-width="1" />
      <text x="290.72" y="868" text-anchor="middle" fill="#5b6b68" font-size="11">25-03-17</text>
<line x1="479.24" y1="560" x2="479.24" y2="840" stroke="#eef3f1" stroke-width="1" />
      <text x="479.24" y="868" text-anchor="middle" fill="#5b6b68" font-size="11">25-05-23</text>
<line x1="697.09" y1="560" x2="697.09" y2="840" stroke="#eef3f1" stroke-width="1" />
      <text x="697.09" y="868" text-anchor="middle" fill="#5b6b68" font-size="11">25-08-06</text>
<line x1="910.76" y1="560" x2="910.76" y2="840" stroke="#eef3f1" stroke-width="1" />
      <text x="910.76" y="868" text-anchor="middle" fill="#5b6b68" font-size="11">25-10-24</text>
<line x1="1099.28" y1="560" x2="1099.28" y2="840" stroke="#eef3f1" stroke-width="1" />
      <text x="1099.28" y="868" text-anchor="middle" fill="#5b6b68" font-size="11">25-12-26</text>
<line x1="1292.00" y1="560" x2="1292.00" y2="840" stroke="#eef3f1" stroke-width="1" />
      <text x="1292.00" y="868" text-anchor="middle" fill="#5b6b68" font-size="11">26-03-12</text>
    <line x1="1116.04" y1="560" x2="1116.04" y2="840" stroke="#f59e0b" stroke-width="1.4" stroke-dasharray="4 4" />
       <text x="1122.04" y="552" fill="#a16207" font-size="11">验证起点</text>
    <path d="M 98.00 805.94 L 102.19 771.46 L 106.38 804.84 L 110.57 663.93 L 114.76 747.00 L 118.95 820.70 L 123.14 725.77 L 127.33 804.24 L 131.52 805.52 L 135.71 717.17 L 139.89 803.92 L 144.08 813.32 L 148.27 791.19 L 152.46 808.06 L 156.65 829.09 L 160.84 819.19 L 165.03 776.25 L 169.22 735.40 L 173.41 803.34 L 177.60 805.74 L 181.79 828.68 L 185.98 833.77 L 190.17 811.48 L 194.36 796.30 L 198.55 774.27 L 202.74 747.05 L 206.93 811.99 L 211.12 670.70 L 215.31 824.82 L 219.49 779.31 L 223.68 803.24 L 227.87 769.29 L 232.06 820.28 L 236.25 774.93 L 240.44 806.37 L 244.63 807.77 L 248.82 731.08 L 253.01 772.15 L 257.20 812.76 L 261.39 821.80 L 265.58 829.71 L 269.77 796.97 L 273.96 830.09 L 278.15 743.04 L 282.34 757.20 L 286.53 789.54 L 290.72 806.92 L 294.91 781.87 L 299.09 816.15 L 303.28 796.92 L 307.47 832.21 L 311.66 806.57 L 315.85 809.30 L 320.04 755.70 L 324.23 822.90 L 328.42 742.47 L 332.61 744.53 L 336.80 795.91 L 340.99 739.10 L 345.18 688.65 L 349.37 750.77 L 353.56 768.38 L 357.75 590.00 L 361.94 701.01 L 366.13 724.51 L 370.32 779.44 L 374.51 808.74 L 378.69 714.46 L 382.88 752.12 L 387.07 837.45 L 391.26 644.01 L 395.45 764.98 L 399.64 791.09 L 403.83 797.22 L 408.02 782.66 L 412.21 833.72 L 416.40 784.95 L 420.59 795.47 L 424.78 731.17 L 428.97 806.96 L 433.16 762.75 L 437.35 838.47 L 441.54 741.07 L 445.73 818.19 L 449.92 743.68 L 454.11 756.64 L 458.29 705.75 L 462.48 789.99 L 466.67 796.63 L 470.86 810.51 L 475.05 750.67 L 479.24 784.41 L 483.43 791.65 L 487.62 656.99 L 491.81 825.59 L 496.00 830.63 L 500.19 796.47 L 504.38 736.95 L 508.57 829.39 L 512.76 796.33 L 516.95 753.17 L 521.14 800.40 L 525.33 791.82 L 529.52 801.22 L 533.71 816.51 L 537.89 839.06 L 542.08 756.73 L 546.27 818.36 L 550.46 834.87 L 554.65 839.35 L 558.84 806.62 L 563.03 793.32 L 567.22 815.47 L 571.41 824.33 L 575.60 828.92 L 579.79 813.72 L 583.98 785.09 L 588.17 809.96 L 592.36 785.62 L 596.55 737.40 L 600.74 814.19 L 604.93 745.58 L 609.12 836.59 L 613.31 807.90 L 617.49 798.77 L 621.68 812.98 L 625.87 788.82 L 630.06 786.99 L 634.25 789.84 L 638.44 795.81 L 642.63 750.91 L 646.82 767.40 L 651.01 832.03 L 655.20 835.00 L 659.39 810.81 L 663.58 831.56 L 667.77 828.36 L 671.96 742.94 L 676.15 717.04 L 680.34 833.27 L 684.53 659.93 L 688.72 833.02 L 692.91 765.71 L 697.09 838.54 L 701.28 798.39 L 705.47 816.94 L 709.66 837.29 L 713.85 839.04 L 718.04 791.08 L 722.23 797.86 L 726.42 806.10 L 730.61 779.68 L 734.80 783.04 L 738.99 797.84 L 743.18 726.36 L 747.37 790.67 L 751.56 700.90 L 755.75 802.96 L 759.94 838.33 L 764.13 797.53 L 768.32 797.16 L 772.51 773.44 L 776.69 787.68 L 780.88 833.51 L 785.07 821.47 L 789.26 763.43 L 793.45 811.40 L 797.64 760.83 L 801.83 747.09 L 806.02 825.82 L 810.21 751.83 L 814.40 752.54 L 818.59 824.70 L 822.78 739.45 L 826.97 715.95 L 831.16 809.33 L 835.35 790.11 L 839.54 821.83 L 843.73 786.82 L 847.92 829.83 L 852.11 833.06 L 856.29 807.25 L 860.48 803.43 L 864.67 733.57 L 868.86 750.07 L 873.05 781.56 L 877.24 832.44 L 881.43 832.11 L 885.62 781.15 L 889.81 762.25 L 894.00 768.54 L 898.19 828.42 L 902.38 794.85 L 906.57 729.50 L 910.76 832.28 L 914.95 835.95 L 919.14 827.61 L 923.33 740.69 L 927.52 836.85 L 931.71 764.39 L 935.89 837.17 L 940.08 779.95 L 944.27 779.07 L 948.46 784.19 L 952.65 801.54 L 956.84 798.40 L 961.03 807.10 L 965.22 753.67 L 969.41 770.80 L 973.60 775.71 L 977.79 838.34 L 981.98 763.42 L 986.17 801.22 L 990.36 726.97 L 994.55 828.92 L 998.74 801.84 L 1002.93 802.78 L 1007.12 799.29 L 1011.31 839.14 L 1015.49 827.96 L 1019.68 824.15 L 1023.87 824.86 L 1028.06 839.22 L 1032.25 782.88 L 1036.44 780.44 L 1040.63 787.54 L 1044.82 805.06 L 1049.01 823.73 L 1053.20 790.92 L 1057.39 787.94 L 1061.58 802.17 L 1065.77 838.04 L 1069.96 799.58 L 1074.15 781.57 L 1078.34 797.24 L 1082.53 814.71 L 1086.72 801.48 L 1090.91 837.03 L 1095.09 800.11 L 1099.28 823.61 L 1103.47 824.39 L 1107.66 821.74 L 1111.85 738.38 L 1116.04 818.54 L 1120.23 773.91 L 1124.42 798.87 L 1128.61 836.54 L 1132.80 744.72 L 1136.99 814.29 L 1141.18 817.42 L 1145.37 743.39 L 1149.56 730.48 L 1153.75 778.67 L 1157.94 835.11 L 1162.13 686.56 L 1166.32 833.09 L 1170.51 828.89 L 1174.69 804.82 L 1178.88 796.90 L 1183.07 814.47 L 1187.26 792.23 L 1191.45 798.34 L 1195.64 791.44 L 1199.83 830.82 L 1204.02 808.37 L 1208.21 787.33 L 1212.40 700.95 L 1216.59 797.70 L 1220.78 810.40 L 1224.97 804.62 L 1229.16 802.64 L 1233.35 766.73 L 1237.54 816.81 L 1241.73 754.75 L 1245.92 739.35 L 1250.11 795.91 L 1254.29 756.96 L 1258.48 742.18 L 1262.67 665.27 L 1266.86 806.95 L 1271.05 803.55 L 1275.24 818.69 L 1279.43 729.18 L 1283.62 839.42 L 1287.81 832.27 L 1292.00 823.23" fill="none" stroke="#1d4ed8" stroke-width="2"  />
  </g>
</svg>