<?xml version="1.0" encoding="UTF-8"?>
<svg xmlns="http://www.w3.org/2000/svg" width="1360" height="980" viewBox="0 0 1360 980">
  <defs>
    <linearGradient id="bg" x1="0" y1="0" x2="1" y2="1">
      <stop offset="0%" stop-color="#f4efe6" />
      <stop offset="100%" stop-color="#eef5f2" />
    </linearGradient>
  </defs>
  <rect x="0" y="0" width="1360" height="980" fill="url(#bg)" />
  <text x="46" y="36" fill="#1f2937" font-size="31" font-weight="700">华宝海外科技股票(QDII-LOF)A(501312)（501312）离线研究图（持仓逐日估值版）</text>
  <text x="46" y="66" fill="#5b6b68" font-size="13">历史前十大持仓 + 持仓逐日涨跌幅 + USDCNY；双目标 lambda=0.10；披露期数 11；覆盖率均值 92.3%</text>
  <g>
    <text x="54" y="110" fill="#1f2937" font-size="16" font-weight="700">A. 净值拟合（同日对齐，无平移）</text>
    <line x1="98" y1="130" x2="124" y2="130" stroke="#0f766e" stroke-width="2"  />
      <text x="130" y="134" fill="#24312e" font-size="12">真实净值</text>
<line x1="313" y1="130" x2="339" y2="130" stroke="#1d4ed8" stroke-width="2"  />
      <text x="345" y="134" fill="#24312e" font-size="12">持仓分段估值</text>
    <line x1="98" y1="132.00" x2="1292" y2="132.00" stroke="#d7e3df" stroke-width="1" />
      <text x="90" y="136.00" text-anchor="end" fill="#5b6b68" font-size="11">2.165</text>
<line x1="98" y1="209.50" x2="1292" y2="209.50" stroke="#d7e3df" stroke-width="1" />
      <text x="90" y="213.50" text-anchor="end" fill="#5b6b68" font-size="11">1.933</text>
<line x1="98" y1="287.00" x2="1292" y2="287.00" stroke="#d7e3df" stroke-width="1" />
      <text x="90" y="291.00" text-anchor="end" fill="#5b6b68" font-size="11">1.701</text>
<line x1="98" y1="364.50" x2="1292" y2="364.50" stroke="#d7e3df" stroke-width="1" />
      <text x="90" y="368.50" text-anchor="end" fill="#5b6b68" font-size="11">1.470</text>
<line x1="98" y1="442.00" x2="1292" y2="442.00" stroke="#d7e3df" stroke-width="1" />
      <text x="90" y="446.00" text-anchor="end" fill="#5b6b68" font-size="11">1.238</text>
    <line x1="98.00" y1="132" x2="98.00" y2="442" stroke="#eef3f1" stroke-width="1" />
      <text x="98.00" y="470" text-anchor="middle" fill="#5b6b68" font-size="11">25-01-02</text>
<line x1="288.71" y1="132" x2="288.71" y2="442" stroke="#eef3f1" stroke-width="1" />
      <text x="288.71" y="470" text-anchor="middle" fill="#5b6b68" font-size="11">25-03-17</text>
<line x1="479.42" y1="132" x2="479.42" y2="442" stroke="#eef3f1" stroke-width="1" />
      <text x="479.42" y="470" text-anchor="middle" fill="#5b6b68" font-size="11">25-05-26</text>
<line x1="695.00" y1="132" x2="695.00" y2="442" stroke="#eef3f1" stroke-width="1" />
      <text x="695.00" y="470" text-anchor="middle" fill="#5b6b68" font-size="11">25-08-07</text>
<line x1="910.58" y1="132" x2="910.58" y2="442" stroke="#eef3f1" stroke-width="1" />
      <text x="910.58" y="470" text-anchor="middle" fill="#5b6b68" font-size="11">25-10-28</text>
<line x1="1101.29" y1="132" x2="1101.29" y2="442" stroke="#eef3f1" stroke-width="1" />
      <text x="1101.29" y="470" text-anchor="middle" fill="#5b6b68" font-size="11">25-12-31</text>
<line x1="1292.00" y1="132" x2="1292.00" y2="442" stroke="#eef3f1" stroke-width="1" />
      <text x="1292.00" y="470" text-anchor="middle" fill="#5b6b68" font-size="11">26-03-17</text>
    <line x1="1105.44" y1="132" x2="1105.44" y2="442" stroke="#f59e0b" stroke-width="1.4" stroke-dasharray="4 4" />
       <text x="1111.44" y="124" fill="#a16207" font-size="11">验证起点</text>
    <path d="M 98.00 313.13 L 102.15 295.61 L 106.29 286.00 L 110.44 298.18 L 114.58 299.62 L 118.73 299.65 L 122.88 311.83 L 127.02 316.45 L 131.17 318.85 L 135.31 304.67 L 139.46 305.11 L 143.60 298.82 L 147.75 298.88 L 151.90 284.90 L 156.04 275.60 L 160.19 272.12 L 164.33 277.07 L 168.48 298.62 L 172.63 277.91 L 176.77 282.56 L 180.92 286.84 L 185.06 283.40 L 189.21 289.12 L 193.35 284.70 L 197.50 273.79 L 201.65 263.39 L 205.79 263.46 L 209.94 260.85 L 214.08 261.32 L 218.23 269.98 L 222.38 292.43 L 226.52 302.36 L 230.67 317.78 L 234.81 311.36 L 238.96 330.46 L 243.10 324.74 L 247.25 344.11 L 251.40 342.10 L 255.54 331.97 L 259.69 350.40 L 263.83 345.28 L 267.98 372.35 L 272.13 370.91 L 276.27 361.44 L 280.42 373.88 L 284.56 358.53 L 288.71 351.64 L 292.85 362.08 L 297.00 353.38 L 301.15 355.89 L 305.29 351.81 L 309.44 336.62 L 313.58 338.26 L 317.73 354.18 L 321.88 360.30 L 326.02 375.05 L 330.17 381.14 L 334.31 381.01 L 338.46 372.98 L 342.60 404.39 L 346.75 428.31 L 350.90 439.92 L 355.04 384.29 L 359.19 408.47 L 363.33 394.72 L 367.48 391.05 L 371.63 389.64 L 375.77 402.62 L 379.92 403.89 L 384.06 404.02 L 388.21 412.56 L 392.35 400.21 L 396.50 386.53 L 400.65 369.70 L 404.79 364.25 L 408.94 364.38 L 413.08 363.38 L 417.23 366.06 L 421.38 370.71 L 425.52 365.32 L 429.67 354.65 L 433.81 356.35 L 437.96 332.67 L 442.10 321.26 L 446.25 321.93 L 450.40 323.81 L 454.54 317.52 L 458.69 321.40 L 462.83 321.06 L 466.98 333.81 L 471.13 332.24 L 475.27 335.01 L 479.42 335.68 L 483.56 320.66 L 487.71 326.01 L 491.85 326.45 L 496.00 330.56 L 500.15 316.31 L 504.29 312.47 L 508.44 318.99 L 512.58 303.67 L 516.73 295.84 L 520.88 290.69 L 525.02 289.72 L 529.17 294.57 L 533.31 301.06 L 537.46 288.05 L 541.60 294.43 L 545.75 286.51 L 549.90 286.77 L 554.04 289.12 L 558.19 284.23 L 562.33 272.39 L 566.48 271.89 L 570.63 264.03 L 574.77 266.00 L 578.92 263.36 L 583.06 271.42 L 587.21 260.48 L 591.35 255.56 L 595.50 255.46 L 599.65 264.83 L 603.79 258.77 L 607.94 250.38 L 612.08 247.67 L 616.23 254.16 L 620.38 251.21 L 624.52 254.39 L 628.67 245.53 L 632.81 241.31 L 636.96 237.30 L 641.10 238.50 L 645.25 239.54 L 649.40 231.11 L 653.54 237.16 L 657.69 234.55 L 661.83 234.02 L 665.98 243.09 L 670.13 241.25 L 674.27 248.30 L 678.42 262.96 L 682.56 249.57 L 686.71 254.83 L 690.85 253.82 L 695.00 252.08 L 699.15 248.24 L 703.29 248.84 L 707.44 236.29 L 711.58 228.20 L 715.73 232.01 L 719.88 233.85 L 724.02 234.15 L 728.17 250.01 L 732.31 253.56 L 736.46 255.23 L 740.60 237.97 L 744.75 243.55 L 748.90 239.30 L 753.04 241.75 L 757.19 238.47 L 761.33 246.80 L 765.48 246.46 L 769.63 250.24 L 773.77 249.57 L 777.92 247.63 L 782.06 241.88 L 786.21 238.27 L 790.35 236.93 L 794.50 238.94 L 798.65 225.72 L 802.79 226.46 L 806.94 218.33 L 811.08 213.21 L 815.23 215.42 L 819.38 198.09 L 823.52 192.94 L 827.67 186.72 L 831.81 191.80 L 835.96 196.25 L 840.10 201.87 L 844.25 197.52 L 848.40 190.00 L 852.54 186.18 L 856.69 145.77 L 860.83 175.88 L 864.98 163.10 L 869.13 166.68 L 873.27 152.80 L 877.42 159.86 L 881.56 166.01 L 885.71 145.00 L 889.85 151.63 L 894.00 169.29 L 898.15 157.18 L 902.29 148.28 L 906.44 142.90 L 910.58 145.94 L 914.73 143.70 L 918.88 155.24 L 923.02 143.16 L 927.17 144.13 L 931.31 166.04 L 935.46 160.32 L 939.60 180.16 L 943.75 183.17 L 947.90 170.39 L 952.04 174.27 L 956.19 176.31 L 960.33 196.69 L 964.48 197.86 L 968.63 205.22 L 972.77 210.90 L 976.92 208.26 L 981.06 222.88 L 985.21 212.98 L 989.35 193.81 L 993.50 188.36 L 997.65 183.17 L 1001.79 183.37 L 1005.94 176.98 L 1010.08 185.51 L 1014.23 181.83 L 1018.38 170.66 L 1022.52 161.80 L 1026.67 164.30 L 1030.81 162.03 L 1034.96 161.90 L 1039.10 157.45 L 1043.25 161.19 L 1047.40 175.98 L 1051.54 182.20 L 1055.69 182.67 L 1059.83 197.49 L 1063.98 189.83 L 1068.13 177.38 L 1072.27 167.15 L 1076.42 169.89 L 1080.56 169.46 L 1084.71 170.16 L 1088.85 174.88 L 1093.00 179.66 L 1097.15 182.27 L 1101.29 187.99 L 1105.44 163.20 L 1109.58 150.79 L 1113.73 151.43 L 1117.88 158.68 L 1122.02 154.70 L 1126.17 143.56 L 1130.31 143.56 L 1134.46 142.33 L 1138.60 144.17 L 1142.75 142.90 L 1146.90 143.23 L 1151.04 159.05 L 1155.19 148.01 L 1159.33 135.60 L 1163.48 146.21 L 1167.63 150.69 L 1171.77 144.80 L 1175.92 147.31 L 1180.06 153.63 L 1184.21 172.84 L 1188.35 171.97 L 1192.50 178.19 L 1196.65 202.44 L 1200.79 221.27 L 1204.94 192.37 L 1209.08 181.63 L 1213.23 184.24 L 1217.38 187.59 L 1221.52 202.91 L 1225.67 195.68 L 1229.81 182.80 L 1233.96 176.92 L 1238.10 175.68 L 1242.25 185.18 L 1246.40 183.07 L 1250.54 201.00 L 1254.69 188.66 L 1258.83 197.09 L 1262.98 209.73 L 1267.13 195.72 L 1271.27 202.57 L 1275.42 202.07 L 1279.56 219.63 L 1283.71 221.84 L 1287.85 212.07 L 1292.00 205.75" fill="none" stroke="#0f766e" stroke-width="2"  />
<path d="M 98.00 314.34 L 102.15 289.20 L 106.29 289.96 L 110.44 299.46 L 114.58 299.13 L 118.73 300.09 L 122.88 300.30 L 127.02 314.67 L 131.17 317.04 L 135.31 305.69 L 139.46 304.97 L 143.60 300.60 L 147.75 300.03 L 151.90 300.31 L 156.04 279.50 L 160.19 272.56 L 164.33 274.92 L 168.48 298.07 L 172.63 279.55 L 176.77 280.05 L 180.92 284.79 L 185.06 283.68 L 189.21 288.62 L 193.35 285.46 L 197.50 278.26 L 201.65 267.76 L 205.79 262.98 L 209.94 262.93 L 214.08 260.46 L 218.23 266.55 L 222.38 294.89 L 226.52 298.24 L 230.67 315.17 L 234.81 313.70 L 238.96 330.28 L 243.10 325.95 L 247.25 340.86 L 251.40 343.89 L 255.54 332.67 L 259.69 350.60 L 263.83 346.65 L 267.98 369.90 L 272.13 371.97 L 276.27 361.15 L 280.42 373.05 L 284.56 359.28 L 288.71 354.33 L 292.85 359.58 L 297.00 353.68 L 301.15 354.57 L 305.29 353.59 L 309.44 338.92 L 313.58 336.68 L 317.73 353.48 L 321.88 357.40 L 326.02 375.05 L 330.17 379.86 L 334.31 379.86 L 338.46 374.89 L 342.60 405.65 L 346.75 429.63 L 350.90 437.78 L 355.04 387.90 L 359.19 409.26 L 363.33 397.66 L 367.48 391.86 L 371.63 389.52 L 375.77 401.92 L 379.92 402.63 L 384.06 404.10 L 388.21 404.18 L 392.35 399.97 L 396.50 388.53 L 400.65 370.36 L 404.79 365.81 L 408.94 364.56 L 413.08 363.27 L 417.23 364.13 L 421.38 371.03 L 425.52 367.48 L 429.67 354.48 L 433.81 354.63 L 437.96 335.77 L 442.10 320.22 L 446.25 320.40 L 450.40 322.72 L 454.54 318.84 L 458.69 319.64 L 462.83 321.09 L 466.98 332.20 L 471.13 332.59 L 475.27 334.46 L 479.42 335.55 L 483.56 335.85 L 487.71 322.76 L 491.85 325.11 L 496.00 328.00 L 500.15 322.16 L 504.29 313.30 L 508.44 315.86 L 512.58 302.15 L 516.73 297.38 L 520.88 292.49 L 525.02 289.96 L 529.17 293.70 L 533.31 299.15 L 537.46 292.22 L 541.60 291.34 L 545.75 287.20 L 549.90 287.06 L 554.04 287.46 L 558.19 284.82 L 562.33 271.96 L 566.48 271.67 L 570.63 267.08 L 574.77 264.54 L 578.92 263.27 L 583.06 267.81 L 587.21 262.51 L 591.35 257.19 L 595.50 255.86 L 599.65 254.92 L 603.79 261.39 L 607.94 253.99 L 612.08 248.58 L 616.23 250.26 L 620.38 252.29 L 624.52 250.99 L 628.67 246.32 L 632.81 241.40 L 636.96 239.12 L 641.10 239.16 L 645.25 239.47 L 649.40 232.17 L 653.54 235.52 L 657.69 235.29 L 661.83 234.41 L 665.98 240.64 L 670.13 241.25 L 674.27 245.08 L 678.42 262.90 L 682.56 255.25 L 686.71 252.08 L 690.85 254.15 L 695.00 252.55 L 699.15 249.91 L 703.29 247.80 L 707.44 237.40 L 711.58 232.03 L 715.73 229.80 L 719.88 233.17 L 724.02 232.51 L 728.17 249.71 L 732.31 251.87 L 736.46 254.18 L 740.60 236.34 L 744.75 240.93 L 748.90 241.09 L 753.04 239.27 L 757.19 240.06 L 761.33 243.07 L 765.48 247.58 L 769.63 246.83 L 773.77 250.15 L 777.92 247.78 L 782.06 244.67 L 786.21 239.21 L 790.35 237.27 L 794.50 236.88 L 798.65 226.74 L 802.79 225.39 L 806.94 221.28 L 811.08 216.19 L 815.23 213.92 L 819.38 197.62 L 823.52 195.35 L 827.67 187.97 L 831.81 189.14 L 835.96 193.47 L 840.10 199.27 L 844.25 199.61 L 848.40 191.48 L 852.54 187.71 L 856.69 135.86 L 860.83 181.77 L 864.98 161.62 L 869.13 165.10 L 873.27 154.67 L 877.42 158.20 L 881.56 164.94 L 885.71 146.68 L 889.85 147.26 L 894.00 170.55 L 898.15 155.88 L 902.29 150.55 L 906.44 145.66 L 910.58 146.23 L 914.73 144.30 L 918.88 155.37 L 923.02 144.17 L 927.17 142.98 L 931.31 170.80 L 935.46 160.96 L 939.60 184.92 L 943.75 180.83 L 947.90 174.25 L 952.04 172.97 L 956.19 173.81 L 960.33 203.88 L 964.48 196.59 L 968.63 201.41 L 972.77 209.15 L 976.92 208.33 L 981.06 224.57 L 985.21 216.98 L 989.35 194.18 L 993.50 190.42 L 997.65 183.32 L 1001.79 183.11 L 1005.94 183.62 L 1010.08 181.10 L 1014.23 182.14 L 1018.38 169.98 L 1022.52 160.23 L 1026.67 161.46 L 1030.81 162.16 L 1034.96 161.14 L 1039.10 158.11 L 1043.25 158.55 L 1047.40 176.34 L 1051.54 180.53 L 1055.69 181.72 L 1059.83 196.76 L 1063.98 191.67 L 1068.13 177.90 L 1072.27 170.05 L 1076.42 167.26 L 1080.56 169.22 L 1084.71 169.97 L 1088.85 170.61 L 1093.00 176.51 L 1097.15 181.45 L 1101.29 185.40 L 1105.44 157.69 L 1109.58 153.34 L 1113.73 150.96 L 1117.88 155.21 L 1122.02 154.64 L 1126.17 148.94 L 1130.31 144.15 L 1134.46 144.08 L 1138.60 143.65 L 1142.75 142.55 L 1146.90 143.86 L 1151.04 143.94 L 1155.19 151.31 L 1159.33 143.23 L 1163.48 141.66 L 1167.63 149.90 L 1171.77 146.92 L 1175.92 144.30 L 1180.06 150.88 L 1184.21 171.56 L 1188.35 174.42 L 1192.50 177.72 L 1196.65 200.09 L 1200.79 221.75 L 1204.94 189.41 L 1209.08 185.74 L 1213.23 182.84 L 1217.38 188.93 L 1221.52 203.54 L 1225.67 196.08 L 1229.81 188.57 L 1233.96 177.23 L 1238.10 173.16 L 1242.25 181.08 L 1246.40 182.26 L 1250.54 196.19 L 1254.69 191.00 L 1258.83 191.94 L 1262.98 208.03 L 1267.13 201.47 L 1271.27 201.07 L 1275.42 202.11 L 1279.56 221.08 L 1283.71 220.41 L 1287.85 214.36 L 1292.00 208.70" fill="none" stroke="#1d4ed8" stroke-width="2"  />
  </g>
  <g>
    <text x="54" y="538" fill="#1f2937" font-size="16" font-weight="700">B. 绝对误差（越低越好）</text>
    <line x1="98" y1="558" x2="124" y2="558" stroke="#1d4ed8" stroke-width="2"  />
      <text x="130" y="562" fill="#24312e" font-size="12">持仓分段误差</text>
    <line x1="98" y1="560.00" x2="1292" y2="560.00" stroke="#d7e3df" stroke-width="1" />
      <text x="90" y="564.00" text-anchor="end" fill="#5b6b68" font-size="11">3.18%</text>
<line x1="98" y1="630.00" x2="1292" y2="630.00" stroke="#d7e3df" stroke-width="1" />
      <text x="90" y="634.00" text-anchor="end" fill="#5b6b68" font-size="11">2.38%</text>
<line x1="98" y1="700.00" x2="1292" y2="700.00" stroke="#d7e3df" stroke-width="1" />
      <text x="90" y="704.00" text-anchor="end" fill="#5b6b68" font-size="11">1.59%</text>
<line x1="98" y1="770.00" x2="1292" y2="770.00" stroke="#d7e3df" stroke-width="1" />
      <text x="90" y="774.00" text-anchor="end" fill="#5b6b68" font-size="11">0.79%</text>
<line x1="98" y1="840.00" x2="1292" y2="840.00" stroke="#d7e3df" stroke-width="1" />
      <text x="90" y="844.00" text-anchor="end" fill="#5b6b68" font-size="11">0.00%</text>
    <line x1="98.00" y1="560" x2="98.00" y2="840" stroke="#eef3f1" stroke-width="1" />
      <text x="98.00" y="868" text-anchor="middle" fill="#5b6b68" font-size="11">25-01-02</text>
<line x1="288.71" y1="560" x2="288.71" y2="840" stroke="#eef3f1" stroke-width="1" />
      <text x="288.71" y="868" text-anchor="middle" fill="#5b6b68" font-size="11">25-03-17</text>
<line x1="479.42" y1="560" x2="479.42" y2="840" stroke="#eef3f1" stroke-width="1" />
      <text x="479.42" y="868" text-anchor="middle" fill="#5b6b68" font-size="11">25-05-26</text>
<line x1="695.00" y1="560" x2="695.00" y2="840" stroke="#eef3f1" stroke-width="1" />
      <text x="695.00" y="868" text-anchor="middle" fill="#5b6b68" font-size="11">25-08-07</text>
<line x1="910.58" y1="560" x2="910.58" y2="840" stroke="#eef3f1" stroke-width="1" />
      <text x="910.58" y="868" text-anchor="middle" fill="#5b6b68" font-size="11">25-10-28</text>
<line x1="1101.29" y1="560" x2="1101.29" y2="840" stroke="#eef3f1" stroke-width="1" />
      <text x="1101.29" y="868" text-anchor="middle" fill="#5b6b68" font-size="11">25-12-31</text>
<line x1="1292.00" y1="560" x2="1292.00" y2="840" stroke="#eef3f1" stroke-width="1" />
      <text x="1292.00" y="868" text-anchor="middle" fill="#5b6b68" font-size="11">26-03-17</text>
    <line x1="1105.44" y1="560" x2="1105.44" y2="840" stroke="#f59e0b" stroke-width="1.4" stroke-dasharray="4 4" />
       <text x="1111.44" y="552" fill="#a16207" font-size="11">验证起点</text>
    <path d="M 98.00 820.44 L 102.15 739.31 L 106.29 778.92 L 110.44 819.74 L 114.58 832.18 L 118.73 833.07 L 122.88 653.25 L 127.02 810.93 L 131.17 810.19 L 135.31 823.67 L 139.46 837.77 L 143.60 811.87 L 147.75 821.91 L 151.90 602.28 L 156.04 780.78 L 160.19 833.40 L 164.33 807.18 L 168.48 831.43 L 172.63 815.06 L 176.77 801.50 L 180.92 808.30 L 185.06 835.64 L 189.21 832.36 L 193.35 828.21 L 197.50 772.41 L 201.65 775.06 L 205.79 832.85 L 209.94 809.18 L 214.08 827.24 L 218.23 788.41 L 222.38 801.46 L 226.52 774.38 L 230.67 797.13 L 234.81 802.15 L 238.96 836.91 L 243.10 819.91 L 247.25 784.02 L 251.40 809.37 L 255.54 828.21 L 259.69 836.58 L 263.83 816.46 L 267.98 795.53 L 272.13 820.60 L 276.27 834.80 L 280.42 824.72 L 284.56 826.66 L 288.71 792.91 L 292.85 795.42 L 297.00 834.75 L 301.15 816.78 L 305.29 808.73 L 309.44 800.89 L 313.58 813.22 L 317.73 827.68 L 321.88 788.33 L 326.02 840.00 L 330.17 816.12 L 334.31 818.69 L 338.46 805.15 L 342.60 815.42 L 346.75 812.79 L 350.90 794.70 L 355.04 772.44 L 359.19 824.54 L 363.33 783.89 L 367.48 824.61 L 371.63 837.76 L 375.77 826.37 L 379.92 815.36 L 384.06 838.55 L 388.21 673.51 L 392.35 835.33 L 396.50 802.49 L 400.65 828.03 L 404.79 812.03 L 408.94 836.90 L 413.08 838.10 L 417.23 805.37 L 421.38 834.08 L 425.52 801.17 L 429.67 837.04 L 433.81 809.52 L 437.96 787.75 L 442.10 822.86 L 446.25 814.64 L 450.40 821.95 L 454.54 818.41 L 458.69 811.08 L 462.83 839.49 L 466.98 812.78 L 471.13 834.12 L 475.27 830.63 L 479.42 837.82 L 483.56 590.00 L 487.71 785.96 L 491.85 817.66 L 496.00 796.96 L 500.15 744.54 L 504.29 826.50 L 508.44 788.67 L 512.58 815.84 L 516.73 815.74 L 520.88 811.91 L 525.02 836.30 L 529.17 826.42 L 533.31 809.68 L 537.46 775.24 L 541.60 791.50 L 545.75 829.23 L 549.90 835.61 L 554.04 814.27 L 558.19 830.94 L 562.33 833.51 L 566.48 836.65 L 570.63 794.53 L 574.77 818.25 L 578.92 838.75 L 583.06 785.62 L 587.21 809.96 L 591.35 816.18 L 595.50 834.16 L 599.65 692.25 L 603.79 801.42 L 607.94 787.38 L 612.08 826.80 L 616.23 782.99 L 620.38 824.34 L 624.52 790.15 L 628.67 828.54 L 632.81 838.71 L 636.96 814.11 L 641.10 830.61 L 645.25 839.01 L 649.40 824.99 L 653.54 816.60 L 657.69 829.63 L 661.83 834.43 L 665.98 804.79 L 670.13 839.98 L 674.27 793.25 L 678.42 839.13 L 682.56 757.56 L 686.71 799.70 L 690.85 835.16 L 695.00 833.26 L 699.15 815.67 L 703.29 824.92 L 707.44 824.34 L 711.58 786.17 L 715.73 808.69 L 719.88 830.39 L 724.02 816.72 L 728.17 835.70 L 732.31 815.36 L 736.46 824.62 L 740.60 816.81 L 744.75 802.26 L 748.90 814.56 L 753.04 804.43 L 757.19 817.23 L 761.33 786.12 L 765.48 823.83 L 769.63 790.39 L 773.77 831.65 L 777.92 837.87 L 782.06 799.99 L 786.21 826.52 L 790.35 835.16 L 794.50 810.58 L 798.65 825.81 L 802.79 825.04 L 806.94 799.21 L 811.08 799.23 L 815.23 819.39 L 819.38 833.64 L 823.52 807.93 L 827.67 823.54 L 831.81 804.71 L 835.96 802.87 L 840.10 804.91 L 844.25 812.06 L 848.40 820.34 L 852.54 819.93 L 856.69 717.04 L 860.83 763.62 L 864.98 821.19 L 869.13 819.86 L 873.27 816.51 L 877.42 819.07 L 881.56 826.27 L 885.71 819.27 L 889.85 785.32 L 894.00 823.77 L 898.15 823.60 L 902.29 811.69 L 906.44 805.87 L 910.58 836.40 L 914.73 832.58 L 918.88 838.35 L 923.02 827.55 L 927.17 825.79 L 931.31 779.24 L 935.46 831.88 L 939.60 777.96 L 943.75 809.30 L 947.90 790.45 L 952.04 823.18 L 956.19 807.50 L 960.33 743.86 L 964.48 823.04 L 968.63 788.46 L 972.77 816.04 L 976.92 839.04 L 981.06 816.47 L 985.21 785.21 L 989.35 835.06 L 993.50 812.82 L 997.65 838.11 L 1001.79 836.61 L 1005.94 753.85 L 1010.08 781.93 L 1014.23 835.99 L 1018.38 831.29 L 1022.52 820.15 L 1026.67 803.70 L 1030.81 838.29 L 1034.96 830.38 L 1039.10 831.68 L 1043.25 806.53 L 1047.40 835.36 L 1051.54 818.15 L 1055.69 827.61 L 1059.83 830.25 L 1063.98 815.65 L 1068.13 833.27 L 1072.27 802.87 L 1076.42 806.18 L 1080.56 837.00 L 1084.71 837.62 L 1088.85 784.86 L 1093.00 798.93 L 1097.15 829.36 L 1101.29 805.80 L 1105.44 769.92 L 1109.58 808.15 L 1113.73 834.16 L 1117.88 796.09 L 1122.02 839.25 L 1126.17 773.53 L 1130.31 832.78 L 1134.46 818.38 L 1138.60 833.56 L 1142.75 835.71 L 1146.90 832.17 L 1151.04 648.87 L 1155.19 798.96 L 1159.33 746.66 L 1163.48 783.52 L 1167.63 830.09 L 1171.77 813.81 L 1175.92 802.52 L 1180.06 805.47 L 1184.21 823.62 L 1188.35 808.34 L 1192.50 833.91 L 1196.65 808.27 L 1200.79 833.41 L 1204.94 800.66 L 1209.08 786.27 L 1213.23 821.62 L 1217.38 822.34 L 1221.52 831.50 L 1225.67 834.73 L 1229.81 764.48 L 1233.96 835.91 L 1238.10 807.43 L 1242.25 786.21 L 1246.40 829.40 L 1250.54 775.31 L 1254.69 809.06 L 1258.83 771.18 L 1262.98 816.84 L 1267.13 763.20 L 1271.27 819.73 L 1275.42 839.45 L 1279.56 819.98 L 1283.71 820.03 L 1287.85 808.78 L 1292.00 800.04" fill="none" stroke="#1d4ed8" stroke-width="2"  />
  </g>
</svg>