<?xml version="1.0" encoding="UTF-8"?>
<svg xmlns="http://www.w3.org/2000/svg" width="1360" height="980" viewBox="0 0 1360 980">
  <defs>
    <linearGradient id="bg" x1="0" y1="0" x2="1" y2="1">
      <stop offset="0%" stop-color="#f4efe6" />
      <stop offset="100%" stop-color="#eef5f2" />
    </linearGradient>
  </defs>
  <rect x="0" y="0" width="1360" height="980" fill="url(#bg)" />
  <text x="46" y="36" fill="#1f2937" font-size="31" font-weight="700">513080 离线研究图（持仓逐日估值版）</text>
  <text x="46" y="66" fill="#5b6b68" font-size="13">历史前十大持仓 + 持仓逐日涨跌幅 + USDCNY；双目标 lambda=0.10；披露期数 16；覆盖率均值 92.1%</text>
  <g>
    <text x="54" y="110" fill="#1f2937" font-size="16" font-weight="700">A. 净值拟合（同日对齐，无平移）</text>
    <line x1="98" y1="130" x2="124" y2="130" stroke="#0f766e" stroke-width="2"  />
      <text x="130" y="134" fill="#24312e" font-size="12">真实净值</text>
<line x1="313" y1="130" x2="339" y2="130" stroke="#1d4ed8" stroke-width="2"  />
      <text x="345" y="134" fill="#24312e" font-size="12">持仓分段估值</text>
    <line x1="98" y1="132.00" x2="1292" y2="132.00" stroke="#d7e3df" stroke-width="1" />
      <text x="90" y="136.00" text-anchor="end" fill="#5b6b68" font-size="11">1.864</text>
<line x1="98" y1="209.50" x2="1292" y2="209.50" stroke="#d7e3df" stroke-width="1" />
      <text x="90" y="213.50" text-anchor="end" fill="#5b6b68" font-size="11">1.747</text>
<line x1="98" y1="287.00" x2="1292" y2="287.00" stroke="#d7e3df" stroke-width="1" />
      <text x="90" y="291.00" text-anchor="end" fill="#5b6b68" font-size="11">1.629</text>
<line x1="98" y1="364.50" x2="1292" y2="364.50" stroke="#d7e3df" stroke-width="1" />
      <text x="90" y="368.50" text-anchor="end" fill="#5b6b68" font-size="11">1.512</text>
<line x1="98" y1="442.00" x2="1292" y2="442.00" stroke="#d7e3df" stroke-width="1" />
      <text x="90" y="446.00" text-anchor="end" fill="#5b6b68" font-size="11">1.395</text>
    <line x1="98.00" y1="132" x2="98.00" y2="442" stroke="#eef3f1" stroke-width="1" />
      <text x="98.00" y="470" text-anchor="middle" fill="#5b6b68" font-size="11">25-01-02</text>
<line x1="290.72" y1="132" x2="290.72" y2="442" stroke="#eef3f1" stroke-width="1" />
      <text x="290.72" y="470" text-anchor="middle" fill="#5b6b68" font-size="11">25-03-17</text>
<line x1="479.24" y1="132" x2="479.24" y2="442" stroke="#eef3f1" stroke-width="1" />
      <text x="479.24" y="470" text-anchor="middle" fill="#5b6b68" font-size="11">25-05-23</text>
<line x1="697.09" y1="132" x2="697.09" y2="442" stroke="#eef3f1" stroke-width="1" />
      <text x="697.09" y="470" text-anchor="middle" fill="#5b6b68" font-size="11">25-08-06</text>
<line x1="910.76" y1="132" x2="910.76" y2="442" stroke="#eef3f1" stroke-width="1" />
      <text x="910.76" y="470" text-anchor="middle" fill="#5b6b68" font-size="11">25-10-24</text>
<line x1="1099.28" y1="132" x2="1099.28" y2="442" stroke="#eef3f1" stroke-width="1" />
      <text x="1099.28" y="470" text-anchor="middle" fill="#5b6b68" font-size="11">25-12-26</text>
<line x1="1292.00" y1="132" x2="1292.00" y2="442" stroke="#eef3f1" stroke-width="1" />
      <text x="1292.00" y="470" text-anchor="middle" fill="#5b6b68" font-size="11">26-03-12</text>
    <line x1="1116.04" y1="132" x2="1116.04" y2="442" stroke="#f59e0b" stroke-width="1.4" stroke-dasharray="4 4" />
       <text x="1122.04" y="124" fill="#a16207" font-size="11">验证起点</text>
    <path d="M 98.00 403.01 L 102.19 425.09 L 106.38 402.22 L 110.57 389.40 L 114.76 395.68 L 118.95 393.43 L 123.14 402.95 L 127.33 409.49 L 131.52 407.71 L 135.71 397.46 L 139.89 378.55 L 144.08 367.71 L 148.27 368.90 L 152.46 355.09 L 156.65 346.96 L 160.84 339.42 L 165.03 334.79 L 169.22 334.13 L 173.41 342.06 L 177.60 326.99 L 181.79 332.28 L 185.98 334.59 L 190.17 331.36 L 194.36 325.47 L 198.55 305.18 L 202.74 299.76 L 206.93 297.18 L 211.12 295.72 L 215.31 309.80 L 219.49 310.93 L 223.68 301.67 L 227.87 309.14 L 232.06 316.42 L 236.25 299.03 L 240.44 306.90 L 244.63 312.91 L 248.82 300.48 L 253.01 314.50 L 257.20 286.21 L 261.39 267.63 L 265.58 277.41 L 269.77 280.78 L 273.96 294.67 L 278.15 284.02 L 282.34 292.42 L 286.53 283.49 L 290.72 276.55 L 294.91 267.70 L 299.09 257.19 L 303.28 270.14 L 307.47 280.52 L 311.66 286.07 L 315.85 276.42 L 320.04 288.52 L 324.23 296.85 L 328.42 303.52 L 332.61 317.87 L 336.80 307.09 L 340.99 310.53 L 345.18 338.63 L 349.37 418.48 L 353.56 397.39 L 357.75 424.37 L 361.94 390.12 L 366.13 370.75 L 370.32 336.51 L 374.51 329.37 L 378.69 333.93 L 382.88 331.88 L 387.07 333.73 L 391.26 327.85 L 395.45 314.76 L 399.64 301.54 L 403.83 302.27 L 408.02 294.53 L 412.21 290.77 L 416.40 290.77 L 420.59 287.00 L 424.78 278.34 L 428.97 285.35 L 433.16 276.49 L 437.35 275.89 L 441.54 259.43 L 445.73 269.48 L 449.92 270.01 L 454.11 264.79 L 458.29 259.96 L 462.48 257.52 L 466.67 245.35 L 470.86 243.24 L 475.05 247.07 L 479.24 268.09 L 483.43 248.46 L 487.62 245.62 L 491.81 255.27 L 496.00 263.40 L 500.19 259.17 L 504.38 249.78 L 508.57 248.26 L 512.76 247.80 L 516.95 244.82 L 521.14 248.99 L 525.33 245.55 L 529.52 249.65 L 533.71 244.56 L 537.89 249.38 L 542.08 244.10 L 546.27 251.70 L 550.46 260.75 L 554.65 276.62 L 558.84 268.82 L 563.03 277.55 L 567.22 258.57 L 571.41 265.45 L 575.60 260.75 L 579.79 239.14 L 583.98 239.53 L 588.17 235.57 L 592.36 222.68 L 596.55 220.03 L 600.74 231.80 L 604.93 226.91 L 609.12 223.07 L 613.31 208.73 L 617.49 204.70 L 621.68 219.77 L 625.87 224.07 L 630.06 231.27 L 634.25 242.71 L 638.44 227.57 L 642.63 228.23 L 646.82 230.81 L 651.01 233.65 L 655.20 213.75 L 659.39 216.33 L 663.58 215.01 L 667.77 218.71 L 671.96 224.40 L 676.15 228.63 L 680.34 252.09 L 684.53 284.75 L 688.72 262.41 L 692.91 263.13 L 697.09 261.02 L 701.28 243.44 L 705.47 237.35 L 709.66 244.36 L 713.85 239.67 L 718.04 227.77 L 722.23 216.00 L 726.42 213.03 L 730.61 213.49 L 734.80 202.85 L 738.99 206.28 L 743.18 211.04 L 747.37 210.32 L 751.56 222.08 L 755.75 247.27 L 759.94 242.84 L 764.13 240.00 L 768.32 247.47 L 772.51 245.75 L 776.69 251.83 L 780.88 247.93 L 785.07 249.19 L 789.26 252.82 L 793.45 240.20 L 797.64 233.45 L 801.83 237.42 L 806.02 229.16 L 810.21 226.78 L 814.40 216.53 L 818.59 224.53 L 822.78 219.90 L 826.97 212.96 L 831.16 216.07 L 835.35 224.07 L 839.54 212.83 L 843.73 218.58 L 847.92 227.64 L 852.11 222.08 L 856.29 217.98 L 860.48 215.34 L 864.67 200.53 L 868.86 225.39 L 873.05 220.50 L 877.24 225.79 L 881.43 200.47 L 885.62 180.83 L 889.81 178.59 L 894.00 177.00 L 898.19 171.78 L 902.38 183.08 L 906.57 180.57 L 910.76 179.84 L 914.95 177.07 L 919.14 179.64 L 923.33 182.68 L 927.52 192.14 L 931.71 199.94 L 935.89 205.69 L 940.08 212.70 L 944.27 214.08 L 948.46 228.83 L 952.65 227.37 L 956.84 211.97 L 961.03 197.23 L 965.22 182.82 L 969.41 182.88 L 973.60 189.63 L 977.79 198.48 L 981.98 221.29 L 986.17 223.74 L 990.36 222.94 L 994.55 223.74 L 998.74 229.09 L 1002.93 218.78 L 1007.12 205.95 L 1011.31 203.38 L 1015.49 199.87 L 1019.68 203.97 L 1023.87 205.16 L 1028.06 202.38 L 1032.25 194.91 L 1036.44 195.91 L 1040.63 196.90 L 1044.82 204.63 L 1049.01 210.58 L 1053.20 197.23 L 1057.39 196.24 L 1061.58 187.71 L 1065.77 190.22 L 1069.96 194.65 L 1074.15 185.99 L 1078.34 187.84 L 1082.53 193.66 L 1086.72 192.14 L 1090.91 190.29 L 1095.09 192.27 L 1099.28 193.33 L 1103.47 193.79 L 1107.66 185.06 L 1111.85 191.48 L 1116.04 187.18 L 1120.23 185.06 L 1124.42 187.11 L 1128.61 186.45 L 1132.80 172.44 L 1136.99 175.21 L 1141.18 176.01 L 1145.37 178.78 L 1149.56 182.88 L 1153.75 193.99 L 1157.94 214.28 L 1162.13 220.03 L 1166.32 211.70 L 1170.51 203.31 L 1174.69 199.28 L 1178.88 193.13 L 1183.07 186.45 L 1187.26 189.63 L 1191.45 190.15 L 1195.64 183.61 L 1199.83 183.61 L 1204.02 190.22 L 1208.21 179.38 L 1212.40 183.94 L 1216.59 180.44 L 1220.78 171.78 L 1224.97 164.70 L 1229.16 168.54 L 1233.35 166.49 L 1237.54 171.45 L 1241.73 148.64 L 1245.92 148.38 L 1250.11 138.13 L 1254.29 147.45 L 1258.48 174.75 L 1262.67 220.89 L 1266.86 219.04 L 1271.05 233.98 L 1275.24 244.29 L 1279.43 261.09 L 1283.62 234.84 L 1287.81 239.93 L 1292.00 253.55" fill="none" stroke="#0f766e" stroke-width="2"  />
<path d="M 98.00 404.71 L 102.19 404.41 L 106.38 412.26 L 110.57 400.85 L 114.76 392.29 L 118.95 395.31 L 123.14 393.42 L 127.33 403.26 L 131.52 406.21 L 135.71 405.44 L 139.89 376.80 L 144.08 375.35 L 148.27 363.73 L 152.46 370.07 L 156.65 353.21 L 160.84 339.51 L 165.03 335.81 L 169.22 330.88 L 173.41 337.09 L 177.60 336.15 L 181.79 337.17 L 185.98 330.48 L 190.17 329.29 L 194.36 326.28 L 198.55 322.55 L 202.74 300.50 L 206.93 297.40 L 211.12 295.74 L 215.31 307.05 L 219.49 305.61 L 223.68 313.78 L 227.87 300.04 L 232.06 305.09 L 236.25 315.66 L 240.44 301.78 L 244.63 304.82 L 248.82 300.56 L 253.01 297.15 L 257.20 299.91 L 261.39 294.40 L 265.58 263.94 L 269.77 294.52 L 273.96 279.65 L 278.15 294.46 L 282.34 288.74 L 286.53 283.46 L 290.72 276.39 L 294.91 275.13 L 299.09 265.18 L 303.28 271.00 L 307.47 273.12 L 311.66 280.76 L 315.85 281.82 L 320.04 292.37 L 324.23 286.82 L 328.42 298.15 L 332.61 313.29 L 336.80 314.43 L 340.99 304.94 L 345.18 321.65 L 349.37 426.81 L 353.56 421.04 L 357.75 338.16 L 361.94 437.37 L 366.13 378.62 L 370.32 364.44 L 374.51 334.67 L 378.69 329.75 L 382.88 330.64 L 387.07 331.54 L 391.26 329.38 L 395.45 310.00 L 399.64 312.43 L 403.83 289.79 L 408.02 299.66 L 412.21 286.68 L 416.40 292.63 L 420.59 289.47 L 424.78 278.03 L 428.97 281.70 L 433.16 284.40 L 437.35 271.32 L 441.54 270.73 L 445.73 256.22 L 449.92 271.56 L 454.11 267.61 L 458.29 263.08 L 462.48 248.47 L 466.67 253.23 L 470.86 250.26 L 475.05 243.21 L 479.24 251.02 L 483.43 268.85 L 487.62 247.70 L 491.81 252.31 L 496.00 251.42 L 500.19 266.19 L 504.38 249.12 L 508.57 247.22 L 512.76 248.63 L 516.95 247.28 L 521.14 237.66 L 525.33 247.56 L 529.52 246.04 L 533.71 245.31 L 537.89 258.04 L 542.08 259.10 L 546.27 250.80 L 550.46 251.72 L 554.65 260.53 L 558.84 276.85 L 563.03 258.45 L 567.22 273.23 L 571.41 260.12 L 575.60 262.12 L 579.79 254.79 L 583.98 228.23 L 588.17 238.16 L 592.36 228.68 L 596.55 225.74 L 600.74 219.18 L 604.93 231.57 L 609.12 214.45 L 613.31 212.53 L 617.49 209.60 L 621.68 213.65 L 625.87 221.18 L 630.06 234.64 L 634.25 228.86 L 638.44 240.33 L 642.63 227.78 L 646.82 224.40 L 651.01 229.07 L 655.20 215.53 L 659.39 232.32 L 663.58 212.99 L 667.77 226.66 L 671.96 217.15 L 676.15 226.85 L 680.34 233.47 L 684.53 259.07 L 688.72 287.62 L 692.91 262.31 L 697.09 261.13 L 701.28 257.03 L 705.47 240.88 L 709.66 233.19 L 713.85 237.95 L 718.04 235.75 L 722.23 225.43 L 726.42 210.33 L 730.61 210.83 L 734.80 210.01 L 738.99 200.59 L 743.18 210.98 L 747.37 201.23 L 751.56 230.61 L 755.75 225.46 L 759.94 247.29 L 764.13 240.15 L 768.32 243.26 L 772.51 244.55 L 776.69 245.38 L 780.88 249.33 L 785.07 247.69 L 789.26 249.20 L 793.45 246.53 L 797.64 239.71 L 801.83 234.94 L 806.02 228.22 L 810.21 229.38 L 814.40 218.04 L 818.59 217.24 L 822.78 228.25 L 826.97 216.87 L 831.16 213.96 L 835.35 210.72 L 839.54 222.86 L 843.73 218.20 L 847.92 222.47 L 852.11 218.60 L 856.29 215.79 L 860.48 216.25 L 864.67 211.25 L 868.86 211.95 L 873.05 226.09 L 877.24 207.37 L 881.43 223.77 L 885.62 187.72 L 889.81 179.60 L 894.00 173.19 L 898.19 179.80 L 902.38 171.89 L 906.57 178.57 L 910.76 182.20 L 914.95 173.52 L 919.14 179.02 L 923.33 182.01 L 927.52 185.82 L 931.71 193.23 L 935.89 199.42 L 940.08 210.63 L 944.27 210.06 L 948.46 222.22 L 952.65 225.57 L 956.84 220.02 L 961.03 207.94 L 965.22 193.34 L 969.41 184.38 L 973.60 184.55 L 977.79 200.70 L 981.98 209.32 L 986.17 223.41 L 990.36 228.46 L 994.55 213.60 L 998.74 223.50 L 1002.93 221.51 L 1007.12 216.07 L 1011.31 205.66 L 1015.49 203.38 L 1019.68 196.75 L 1023.87 203.29 L 1028.06 201.82 L 1032.25 202.10 L 1036.44 195.66 L 1040.63 192.65 L 1044.82 200.42 L 1049.01 201.49 L 1053.20 207.68 L 1057.39 197.92 L 1061.58 190.90 L 1065.77 189.48 L 1069.96 192.16 L 1074.15 193.12 L 1078.34 184.38 L 1082.53 184.71 L 1086.72 194.08 L 1090.91 191.33 L 1095.09 189.87 L 1099.28 191.89 L 1103.47 193.34 L 1107.66 192.56 L 1111.85 186.09 L 1116.04 187.35 L 1120.23 184.78 L 1124.42 186.48 L 1128.61 186.24 L 1132.80 182.23 L 1136.99 165.02 L 1141.18 176.01 L 1145.37 176.37 L 1149.56 183.47 L 1153.75 183.18 L 1157.94 195.42 L 1162.13 214.13 L 1166.32 214.44 L 1170.51 210.09 L 1174.69 198.93 L 1178.88 197.42 L 1183.07 187.41 L 1187.26 199.36 L 1191.45 186.54 L 1195.64 193.46 L 1199.83 178.60 L 1204.02 182.96 L 1208.21 187.17 L 1212.40 181.51 L 1216.59 175.23 L 1220.78 175.02 L 1224.97 172.75 L 1229.16 162.40 L 1233.35 170.88 L 1237.54 165.48 L 1241.73 160.47 L 1245.92 146.12 L 1250.11 146.65 L 1254.29 141.01 L 1258.48 173.40 L 1262.67 200.73 L 1266.86 219.15 L 1271.05 237.03 L 1275.24 234.16 L 1279.43 244.07 L 1283.62 263.80 L 1287.81 233.23 L 1292.00 249.82" fill="none" stroke="#1d4ed8" stroke-width="2"  />
  </g>
  <g>
    <text x="54" y="538" fill="#1f2937" font-size="16" font-weight="700">B. 绝对误差（越低越好）</text>
    <line x1="98" y1="558" x2="124" y2="558" stroke="#1d4ed8" stroke-width="2"  />
      <text x="130" y="562" fill="#24312e" font-size="12">持仓分段误差</text>
    <line x1="98" y1="560.00" x2="1292" y2="560.00" stroke="#d7e3df" stroke-width="1" />
      <text x="90" y="564.00" text-anchor="end" fill="#5b6b68" font-size="11">10.28%</text>
<line x1="98" y1="630.00" x2="1292" y2="630.00" stroke="#d7e3df" stroke-width="1" />
      <text x="90" y="634.00" text-anchor="end" fill="#5b6b68" font-size="11">7.71%</text>
<line x1="98" y1="700.00" x2="1292" y2="700.00" stroke="#d7e3df" stroke-width="1" />
      <text x="90" y="704.00" text-anchor="end" fill="#5b6b68" font-size="11">5.14%</text>
<line x1="98" y1="770.00" x2="1292" y2="770.00" stroke="#d7e3df" stroke-width="1" />
      <text x="90" y="774.00" text-anchor="end" fill="#5b6b68" font-size="11">2.57%</text>
<line x1="98" y1="840.00" x2="1292" y2="840.00" stroke="#d7e3df" stroke-width="1" />
      <text x="90" y="844.00" text-anchor="end" fill="#5b6b68" font-size="11">0.00%</text>
    <line x1="98.00" y1="560" x2="98.00" y2="840" stroke="#eef3f1" stroke-width="1" />
      <text x="98.00" y="868" text-anchor="middle" fill="#5b6b68" font-size="11">25-01-02</text>
<line x1="290.72" y1="560" x2="290.72" y2="840" stroke="#eef3f1" stroke-width="1" />
      <text x="290.72" y="868" text-anchor="middle" fill="#5b6b68" font-size="11">25-03-17</text>
<line x1="479.24" y1="560" x2="479.24" y2="840" stroke="#eef3f1" stroke-width="1" />
      <text x="479.24" y="868" text-anchor="middle" fill="#5b6b68" font-size="11">25-05-23</text>
<line x1="697.09" y1="560" x2="697.09" y2="840" stroke="#eef3f1" stroke-width="1" />
      <text x="697.09" y="868" text-anchor="middle" fill="#5b6b68" font-size="11">25-08-06</text>
<line x1="910.76" y1="560" x2="910.76" y2="840" stroke="#eef3f1" stroke-width="1" />
      <text x="910.76" y="868" text-anchor="middle" fill="#5b6b68" font-size="11">25-10-24</text>
<line x1="1099.28" y1="560" x2="1099.28" y2="840" stroke="#eef3f1" stroke-width="1" />
      <text x="1099.28" y="868" text-anchor="middle" fill="#5b6b68" font-size="11">25-12-26</text>
<line x1="1292.00" y1="560" x2="1292.00" y2="840" stroke="#eef3f1" stroke-width="1" />
      <text x="1292.00" y="868" text-anchor="middle" fill="#5b6b68" font-size="11">26-03-12</text>
    <line x1="1116.04" y1="560" x2="1116.04" y2="840" stroke="#f59e0b" stroke-width="1.4" stroke-dasharray="4 4" />
       <text x="1122.04" y="552" fill="#a16207" font-size="11">验证起点</text>
    <path d="M 98.00 835.20 L 102.19 779.98 L 106.38 811.56 L 110.57 807.99 L 114.76 830.48 L 118.95 834.73 L 123.14 813.00 L 127.33 822.22 L 131.52 835.75 L 135.71 817.50 L 139.89 835.16 L 144.08 819.12 L 148.27 825.84 L 152.46 799.55 L 156.65 823.25 L 160.84 839.75 L 165.03 837.30 L 169.22 831.40 L 173.41 826.73 L 177.60 815.94 L 181.79 827.08 L 185.98 829.12 L 190.17 834.54 L 194.36 837.88 L 198.55 795.29 L 202.74 838.11 L 206.93 839.43 L 211.12 839.97 L 215.31 832.89 L 219.49 826.23 L 223.68 808.96 L 227.87 816.47 L 232.06 810.55 L 236.25 797.45 L 240.44 826.81 L 244.63 819.03 L 248.82 839.80 L 253.01 794.95 L 257.20 805.35 L 261.39 773.46 L 265.58 806.22 L 269.77 805.44 L 273.96 801.74 L 278.15 813.66 L 282.34 830.64 L 286.53 839.91 L 290.72 839.60 L 294.91 821.52 L 299.09 820.31 L 303.28 837.87 L 307.47 821.38 L 311.66 826.58 L 315.85 826.48 L 320.04 830.23 L 324.23 814.39 L 328.42 826.19 L 332.61 828.06 L 336.80 821.08 L 340.99 825.53 L 345.18 794.90 L 349.37 815.98 L 353.56 773.34 L 357.75 590.00 L 361.94 707.81 L 366.13 818.41 L 370.32 765.93 L 374.51 826.04 L 378.69 828.93 L 382.88 836.72 L 387.07 834.19 L 391.26 835.98 L 395.45 827.64 L 399.64 812.06 L 403.83 807.96 L 408.02 826.93 L 412.21 829.64 L 416.40 835.28 L 420.59 833.76 L 424.78 839.22 L 428.97 830.79 L 433.16 820.18 L 437.35 828.55 L 441.54 812.13 L 445.73 807.00 L 449.92 836.13 L 454.11 833.00 L 458.29 832.30 L 462.48 817.72 L 466.67 820.81 L 470.86 822.93 L 475.05 830.59 L 479.24 797.56 L 483.43 790.19 L 487.62 834.92 L 491.81 832.73 L 496.00 810.34 L 500.19 822.68 L 504.38 838.37 L 508.57 837.46 L 512.76 837.97 L 516.95 834.02 L 521.14 812.33 L 525.33 835.10 L 529.52 831.17 L 533.71 838.18 L 537.89 818.83 L 542.08 803.49 L 546.27 837.80 L 550.46 817.68 L 554.65 799.68 L 558.84 820.01 L 563.03 792.11 L 567.22 803.87 L 571.41 826.78 L 575.60 836.64 L 579.79 802.09 L 583.98 812.60 L 588.17 833.75 L 592.36 825.67 L 596.55 826.41 L 600.74 809.62 L 604.93 828.83 L 609.12 819.39 L 613.31 831.03 L 617.49 828.49 L 621.68 825.43 L 625.87 833.11 L 630.06 831.90 L 634.25 806.35 L 638.44 809.40 L 642.63 838.91 L 646.82 824.58 L 651.01 828.95 L 655.20 835.79 L 659.39 802.04 L 663.58 835.20 L 667.77 821.09 L 671.96 822.66 L 676.15 835.74 L 680.34 794.36 L 684.53 775.15 L 688.72 777.64 L 692.91 837.96 L 697.09 839.73 L 701.28 806.93 L 705.47 831.47 L 709.66 812.81 L 713.85 835.83 L 718.04 820.85 L 722.23 817.62 L 726.42 833.61 L 730.61 833.70 L 734.80 823.19 L 738.99 826.59 L 743.18 839.85 L 747.37 818.53 L 751.56 819.66 L 755.75 786.77 L 759.94 829.18 L 764.13 839.62 L 768.32 829.74 L 772.51 837.09 L 776.69 824.19 L 780.88 836.57 L 785.07 836.35 L 789.26 831.11 L 793.45 824.64 L 797.64 824.93 L 801.83 833.99 L 806.02 837.74 L 810.21 833.77 L 814.40 836.42 L 818.59 822.57 L 822.78 820.12 L 826.97 830.74 L 831.16 834.99 L 835.35 808.10 L 839.54 816.24 L 843.73 839.11 L 847.92 827.60 L 852.11 831.69 L 856.29 834.79 L 860.48 837.84 L 864.67 814.90 L 868.86 807.84 L 873.05 826.67 L 877.24 795.90 L 881.43 785.43 L 885.62 824.14 L 889.81 837.68 L 894.00 831.26 L 898.19 821.66 L 902.38 814.19 L 906.57 835.40 L 910.76 834.58 L 914.95 831.86 L 919.14 838.55 L 923.33 838.44 L 927.52 825.32 L 931.71 824.30 L 935.89 825.26 L 940.08 835.10 L 944.27 830.47 L 948.46 824.14 L 952.65 835.68 L 956.84 820.95 L 961.03 814.99 L 965.22 815.72 L 969.41 836.54 L 973.60 828.23 L 977.79 834.81 L 981.98 811.47 L 986.17 839.23 L 990.36 826.81 L 994.55 815.77 L 998.74 826.57 L 1002.93 833.51 L 1007.12 816.19 L 1011.31 834.63 L 1015.49 831.78 L 1019.68 823.04 L 1023.87 835.61 L 1028.06 838.68 L 1032.25 823.26 L 1036.44 839.44 L 1040.63 830.08 L 1044.82 830.10 L 1049.01 818.51 L 1053.20 815.58 L 1057.39 836.06 L 1061.58 832.60 L 1065.77 838.29 L 1069.96 834.20 L 1074.15 823.50 L 1078.34 831.98 L 1082.53 819.16 L 1086.72 835.49 L 1090.91 837.57 L 1095.09 834.42 L 1099.28 836.64 L 1103.47 838.95 L 1107.66 822.66 L 1111.85 827.47 L 1116.04 839.61 L 1120.23 839.35 L 1124.42 838.52 L 1128.61 839.51 L 1132.80 817.61 L 1136.99 816.63 L 1141.18 839.99 L 1145.37 834.45 L 1149.56 838.65 L 1153.75 814.84 L 1157.94 795.30 L 1162.13 825.94 L 1166.32 833.53 L 1170.51 824.09 L 1174.69 839.18 L 1178.88 830.01 L 1183.07 837.79 L 1187.26 817.41 L 1191.45 831.61 L 1195.64 817.27 L 1199.83 828.43 L 1204.02 823.13 L 1208.21 822.09 L 1212.40 834.38 L 1216.59 828.00 L 1220.78 832.59 L 1224.97 821.72 L 1229.16 826.01 L 1233.35 830.01 L 1237.54 826.36 L 1241.73 813.47 L 1245.92 834.95 L 1250.11 821.07 L 1254.29 825.58 L 1258.48 836.89 L 1262.67 791.93 L 1266.86 839.73 L 1271.05 832.65 L 1275.24 815.35 L 1279.43 797.96 L 1283.62 770.12 L 1287.81 823.76 L 1292.00 830.85" fill="none" stroke="#1d4ed8" stroke-width="2"  />
  </g>
</svg>