<?xml version="1.0" encoding="UTF-8"?>
<svg xmlns="http://www.w3.org/2000/svg" width="1360" height="980" viewBox="0 0 1360 980">
  <defs>
    <linearGradient id="bg" x1="0" y1="0" x2="1" y2="1">
      <stop offset="0%" stop-color="#f4efe6" />
      <stop offset="100%" stop-color="#eef5f2" />
    </linearGradient>
  </defs>
  <rect x="0" y="0" width="1360" height="980" fill="url(#bg)" />
  <text x="46" y="36" fill="#1f2937" font-size="31" font-weight="700">513520 离线研究图（持仓逐日估值版）</text>
  <text x="46" y="66" fill="#5b6b68" font-size="13">历史前十大持仓 + 持仓逐日涨跌幅 + USDCNY；双目标 lambda=0.10；披露期数 19；覆盖率均值 92.3%</text>
  <g>
    <text x="54" y="110" fill="#1f2937" font-size="16" font-weight="700">A. 净值拟合（同日对齐，无平移）</text>
    <line x1="98" y1="130" x2="124" y2="130" stroke="#0f766e" stroke-width="2"  />
      <text x="130" y="134" fill="#24312e" font-size="12">真实净值</text>
<line x1="313" y1="130" x2="339" y2="130" stroke="#1d4ed8" stroke-width="2"  />
      <text x="345" y="134" fill="#24312e" font-size="12">持仓分段估值</text>
    <line x1="98" y1="132.00" x2="1292" y2="132.00" stroke="#d7e3df" stroke-width="1" />
      <text x="90" y="136.00" text-anchor="end" fill="#5b6b68" font-size="11">2.037</text>
<line x1="98" y1="209.50" x2="1292" y2="209.50" stroke="#d7e3df" stroke-width="1" />
      <text x="90" y="213.50" text-anchor="end" fill="#5b6b68" font-size="11">1.828</text>
<line x1="98" y1="287.00" x2="1292" y2="287.00" stroke="#d7e3df" stroke-width="1" />
      <text x="90" y="291.00" text-anchor="end" fill="#5b6b68" font-size="11">1.620</text>
<line x1="98" y1="364.50" x2="1292" y2="364.50" stroke="#d7e3df" stroke-width="1" />
      <text x="90" y="368.50" text-anchor="end" fill="#5b6b68" font-size="11">1.412</text>
<line x1="98" y1="442.00" x2="1292" y2="442.00" stroke="#d7e3df" stroke-width="1" />
      <text x="90" y="446.00" text-anchor="end" fill="#5b6b68" font-size="11">1.204</text>
    <line x1="98.00" y1="132" x2="98.00" y2="442" stroke="#eef3f1" stroke-width="1" />
      <text x="98.00" y="470" text-anchor="middle" fill="#5b6b68" font-size="11">25-01-02</text>
<line x1="289.37" y1="132" x2="289.37" y2="442" stroke="#eef3f1" stroke-width="1" />
      <text x="289.37" y="470" text-anchor="middle" fill="#5b6b68" font-size="11">25-03-17</text>
<line x1="480.75" y1="132" x2="480.75" y2="442" stroke="#eef3f1" stroke-width="1" />
      <text x="480.75" y="470" text-anchor="middle" fill="#5b6b68" font-size="11">25-05-26</text>
<line x1="697.08" y1="132" x2="697.08" y2="442" stroke="#eef3f1" stroke-width="1" />
      <text x="697.08" y="470" text-anchor="middle" fill="#5b6b68" font-size="11">25-08-07</text>
<line x1="909.25" y1="132" x2="909.25" y2="442" stroke="#eef3f1" stroke-width="1" />
      <text x="909.25" y="470" text-anchor="middle" fill="#5b6b68" font-size="11">25-10-27</text>
<line x1="1100.63" y1="132" x2="1100.63" y2="442" stroke="#eef3f1" stroke-width="1" />
      <text x="1100.63" y="470" text-anchor="middle" fill="#5b6b68" font-size="11">25-12-30</text>
<line x1="1292.00" y1="132" x2="1292.00" y2="442" stroke="#eef3f1" stroke-width="1" />
      <text x="1292.00" y="470" text-anchor="middle" fill="#5b6b68" font-size="11">26-03-16</text>
    <line x1="1108.95" y1="132" x2="1108.95" y2="442" stroke="#f59e0b" stroke-width="1.4" stroke-dasharray="4 4" />
       <text x="1114.95" y="124" fill="#a16207" font-size="11">验证起点</text>
    <path d="M 98.00 360.10 L 102.16 360.37 L 106.32 368.07 L 110.48 358.88 L 114.64 360.14 L 118.80 364.64 L 122.96 370.97 L 127.12 367.70 L 131.28 378.60 L 135.44 378.08 L 139.60 372.42 L 143.76 372.16 L 147.92 369.63 L 152.08 368.26 L 156.24 361.52 L 160.40 359.77 L 164.56 357.72 L 168.72 363.04 L 172.89 363.23 L 177.05 356.46 L 181.21 357.16 L 185.37 356.75 L 189.53 356.64 L 193.69 360.22 L 197.85 357.35 L 202.01 356.12 L 206.17 354.75 L 210.33 352.21 L 214.49 352.92 L 218.65 356.31 L 222.81 355.90 L 226.97 352.81 L 231.13 359.62 L 235.29 360.85 L 239.45 357.72 L 243.61 373.06 L 247.77 366.02 L 251.93 369.97 L 256.09 371.38 L 260.25 365.65 L 264.41 372.35 L 268.57 369.15 L 272.73 372.24 L 276.89 375.96 L 281.05 374.51 L 285.21 372.94 L 289.37 370.90 L 293.53 367.47 L 297.69 368.44 L 301.85 363.49 L 306.01 368.22 L 310.17 368.48 L 314.33 368.92 L 318.49 365.28 L 322.66 368.63 L 326.82 375.36 L 330.98 390.06 L 335.14 391.96 L 339.30 390.81 L 343.46 392.89 L 347.62 439.75 L 351.78 418.24 L 355.94 420.06 L 360.10 392.63 L 364.26 396.21 L 368.42 388.65 L 372.58 385.56 L 376.74 387.16 L 380.90 383.51 L 385.06 377.19 L 389.22 378.94 L 393.38 375.25 L 397.54 374.32 L 401.70 374.95 L 405.86 368.37 L 410.02 365.39 L 414.18 362.97 L 418.34 361.00 L 422.50 357.91 L 426.66 355.12 L 430.82 354.00 L 434.98 352.74 L 439.14 353.44 L 443.30 354.78 L 447.46 351.25 L 451.62 352.62 L 455.78 351.02 L 459.94 353.52 L 464.10 350.13 L 468.26 350.65 L 472.43 354.82 L 476.59 353.26 L 480.75 346.11 L 484.91 344.32 L 489.07 347.93 L 493.23 344.14 L 497.39 342.58 L 501.55 346.89 L 505.71 347.79 L 509.87 347.49 L 514.03 347.82 L 518.19 344.18 L 522.35 343.39 L 526.51 342.05 L 530.67 341.42 L 534.83 345.55 L 538.99 340.19 L 543.15 339.30 L 547.31 335.84 L 551.47 340.83 L 555.63 343.84 L 559.79 350.73 L 563.95 339.04 L 568.11 336.17 L 572.27 325.86 L 576.43 316.11 L 580.59 309.94 L 584.75 316.08 L 588.91 319.58 L 593.07 320.54 L 597.23 320.92 L 601.39 327.35 L 605.55 329.33 L 609.71 330.63 L 613.87 330.22 L 618.03 334.57 L 622.20 337.63 L 626.36 335.50 L 630.52 339.90 L 634.68 335.32 L 638.84 337.10 L 643.00 335.65 L 647.16 335.28 L 651.32 313.03 L 655.48 300.71 L 659.64 309.38 L 663.80 318.09 L 667.96 324.12 L 672.12 323.71 L 676.28 318.61 L 680.44 327.39 L 684.60 326.87 L 688.76 320.88 L 692.92 318.01 L 697.08 314.96 L 701.24 304.43 L 705.40 304.99 L 709.56 294.64 L 713.72 286.01 L 717.88 289.50 L 722.04 281.80 L 726.20 277.89 L 730.36 281.35 L 734.52 289.76 L 738.68 293.63 L 742.84 298.32 L 747.00 292.59 L 751.16 299.55 L 755.32 297.69 L 759.48 291.48 L 763.64 293.71 L 767.80 301.45 L 771.97 302.60 L 776.13 310.53 L 780.29 300.15 L 784.45 294.49 L 788.61 285.52 L 792.77 284.11 L 796.93 281.17 L 801.09 274.58 L 805.25 268.55 L 809.41 269.18 L 813.57 265.24 L 817.73 265.50 L 821.89 261.22 L 826.05 266.47 L 830.21 262.45 L 834.37 260.44 L 838.53 258.46 L 842.69 260.21 L 846.85 268.40 L 851.01 266.39 L 855.17 264.90 L 859.33 233.42 L 863.49 242.09 L 867.65 237.73 L 871.81 252.51 L 875.97 239.89 L 880.13 231.07 L 884.29 235.28 L 888.45 217.68 L 892.61 220.02 L 896.77 221.14 L 900.93 232.38 L 905.09 225.64 L 909.25 211.09 L 913.41 211.12 L 917.57 197.47 L 921.74 201.19 L 925.90 189.65 L 930.06 189.95 L 934.22 198.25 L 938.38 215.29 L 942.54 209.60 L 946.70 213.88 L 950.86 208.41 L 955.02 210.27 L 959.18 209.79 L 963.34 209.67 L 967.50 220.58 L 971.66 220.80 L 975.82 242.50 L 979.98 246.52 L 984.14 239.56 L 988.30 252.73 L 992.46 250.72 L 996.62 252.92 L 1000.78 239.89 L 1004.94 231.71 L 1009.10 232.45 L 1013.26 241.35 L 1017.42 242.05 L 1021.58 235.39 L 1025.74 218.23 L 1029.90 222.36 L 1034.06 224.11 L 1038.22 226.01 L 1042.38 230.92 L 1046.54 233.60 L 1050.70 223.63 L 1054.86 230.11 L 1059.02 239.60 L 1063.18 239.45 L 1067.34 248.79 L 1071.51 243.58 L 1075.67 238.37 L 1079.83 233.34 L 1083.99 233.60 L 1088.15 234.61 L 1092.31 232.15 L 1096.47 235.24 L 1100.63 236.58 L 1104.79 239.34 L 1108.95 223.03 L 1113.11 211.91 L 1117.27 218.34 L 1121.43 230.44 L 1125.59 223.03 L 1129.75 226.46 L 1133.91 208.82 L 1138.07 200.70 L 1142.23 200.63 L 1146.39 202.71 L 1150.55 205.65 L 1154.71 214.40 L 1158.87 217.71 L 1163.03 208.26 L 1167.19 205.47 L 1171.35 198.55 L 1175.51 195.53 L 1179.67 187.49 L 1183.83 188.61 L 1187.99 193.26 L 1192.15 205.13 L 1196.31 182.84 L 1200.47 192.11 L 1204.63 199.18 L 1208.79 194.38 L 1212.95 168.10 L 1217.11 147.63 L 1221.28 136.69 L 1225.44 137.14 L 1229.60 146.37 L 1233.76 152.81 L 1237.92 140.75 L 1242.08 144.25 L 1246.24 140.90 L 1250.40 153.51 L 1254.56 176.81 L 1258.72 199.77 L 1262.88 188.65 L 1267.04 185.15 L 1271.20 223.74 L 1275.36 204.61 L 1279.52 200.33 L 1283.68 208.33 L 1287.84 218.12 L 1292.00 217.56" fill="none" stroke="#0f766e" stroke-width="2"  />
<path d="M 98.00 356.65 L 102.16 359.10 L 106.32 360.14 L 110.48 368.11 L 114.64 358.67 L 118.80 360.30 L 122.96 364.92 L 127.12 371.31 L 131.28 367.60 L 135.44 376.91 L 139.60 378.80 L 143.76 371.37 L 147.92 373.04 L 152.08 370.22 L 156.24 368.18 L 160.40 360.20 L 164.56 358.75 L 168.72 357.93 L 172.89 354.41 L 177.05 362.39 L 181.21 357.69 L 185.37 357.78 L 189.53 356.23 L 193.69 357.20 L 197.85 358.31 L 202.01 357.25 L 206.17 357.51 L 210.33 354.83 L 214.49 352.60 L 218.65 352.81 L 222.81 357.10 L 226.97 356.43 L 231.13 351.15 L 235.29 359.34 L 239.45 360.94 L 243.61 357.99 L 247.77 372.42 L 251.93 366.91 L 256.09 363.96 L 260.25 372.16 L 264.41 364.68 L 268.57 382.07 L 272.73 369.75 L 276.89 367.21 L 281.05 376.23 L 285.21 370.76 L 289.37 370.35 L 293.53 371.08 L 297.69 366.30 L 301.85 368.74 L 306.01 363.20 L 310.17 366.78 L 314.33 367.76 L 318.49 369.71 L 322.66 365.16 L 326.82 374.88 L 330.98 374.50 L 335.14 390.33 L 339.30 391.74 L 343.46 402.19 L 347.62 430.68 L 351.78 439.19 L 355.94 399.93 L 360.10 429.94 L 364.26 386.74 L 368.42 394.75 L 372.58 387.55 L 376.74 386.12 L 380.90 382.34 L 385.06 383.64 L 389.22 378.09 L 393.38 373.18 L 397.54 374.54 L 401.70 373.12 L 405.86 373.95 L 410.02 367.20 L 414.18 364.65 L 418.34 363.20 L 422.50 360.62 L 426.66 357.94 L 430.82 354.37 L 434.98 353.32 L 439.14 351.44 L 443.30 353.95 L 447.46 355.50 L 451.62 349.71 L 455.78 351.78 L 459.94 350.92 L 464.10 352.57 L 468.26 350.59 L 472.43 350.03 L 476.59 353.87 L 480.75 354.08 L 484.91 346.15 L 489.07 348.91 L 493.23 347.05 L 497.39 343.33 L 501.55 341.96 L 505.71 346.62 L 509.87 348.23 L 514.03 346.25 L 518.19 347.64 L 522.35 343.67 L 526.51 343.13 L 530.67 341.06 L 534.83 341.65 L 538.99 345.15 L 543.15 340.77 L 547.31 337.89 L 551.47 335.98 L 555.63 341.05 L 559.79 342.78 L 563.95 349.79 L 568.11 339.11 L 572.27 330.37 L 576.43 320.28 L 580.59 316.14 L 584.75 310.15 L 588.91 315.47 L 593.07 318.69 L 597.23 320.66 L 601.39 320.92 L 605.55 326.26 L 609.71 328.63 L 613.87 330.69 L 618.03 330.45 L 622.20 334.32 L 626.36 338.09 L 630.52 334.78 L 634.68 338.94 L 638.84 335.74 L 643.00 336.82 L 647.16 334.87 L 651.32 323.97 L 655.48 312.44 L 659.64 301.20 L 663.80 317.34 L 667.96 318.20 L 672.12 323.31 L 676.28 323.37 L 680.44 317.76 L 684.60 326.86 L 688.76 326.55 L 692.92 319.14 L 697.08 316.97 L 701.24 309.55 L 705.40 304.40 L 709.56 299.16 L 713.72 294.32 L 717.88 286.12 L 722.04 283.75 L 726.20 281.65 L 730.36 277.57 L 734.52 281.34 L 738.68 290.64 L 742.84 291.38 L 747.00 299.79 L 751.16 292.36 L 755.32 299.66 L 759.48 296.70 L 763.64 292.74 L 767.80 293.51 L 771.97 301.60 L 776.13 302.54 L 780.29 308.95 L 784.45 299.05 L 788.61 283.98 L 792.77 286.94 L 796.93 283.25 L 801.09 279.12 L 805.25 275.10 L 809.41 268.23 L 813.57 269.07 L 817.73 265.17 L 821.89 264.16 L 826.05 261.84 L 830.21 266.07 L 834.37 262.23 L 838.53 260.14 L 842.69 258.43 L 846.85 259.52 L 851.01 268.02 L 855.17 266.46 L 859.33 254.88 L 863.49 249.42 L 867.65 237.65 L 871.81 236.13 L 875.97 250.55 L 880.13 239.24 L 884.29 229.77 L 888.45 224.16 L 892.61 218.57 L 896.77 219.79 L 900.93 220.45 L 905.09 231.50 L 909.25 222.41 L 913.41 210.48 L 917.57 211.86 L 921.74 196.42 L 925.90 200.42 L 930.06 185.86 L 934.22 190.45 L 938.38 197.60 L 942.54 214.80 L 946.70 208.47 L 950.86 210.65 L 955.02 207.94 L 959.18 208.82 L 963.34 216.67 L 967.50 207.67 L 971.66 226.57 L 975.82 228.49 L 979.98 242.23 L 984.14 248.03 L 988.30 232.82 L 992.46 249.36 L 996.62 250.39 L 1000.78 251.05 L 1004.94 240.32 L 1009.10 232.17 L 1013.26 229.90 L 1017.42 241.16 L 1021.58 241.68 L 1025.74 233.57 L 1029.90 217.64 L 1034.06 220.83 L 1038.22 223.30 L 1042.38 224.71 L 1046.54 230.22 L 1050.70 233.49 L 1054.86 221.74 L 1059.02 242.15 L 1063.18 240.58 L 1067.34 238.78 L 1071.51 248.24 L 1075.67 243.07 L 1079.83 237.17 L 1083.99 233.36 L 1088.15 233.89 L 1092.31 234.90 L 1096.47 231.07 L 1100.63 235.01 L 1104.79 236.51 L 1108.95 222.11 L 1113.11 222.76 L 1117.27 211.34 L 1121.43 217.83 L 1125.59 223.19 L 1129.75 222.17 L 1133.91 227.06 L 1138.07 207.53 L 1142.23 199.64 L 1146.39 199.87 L 1150.55 203.45 L 1154.71 205.93 L 1158.87 212.46 L 1163.03 216.97 L 1167.19 208.70 L 1171.35 205.50 L 1175.51 196.57 L 1179.67 196.10 L 1183.83 185.68 L 1187.99 188.12 L 1192.15 192.51 L 1196.31 203.41 L 1200.47 180.60 L 1204.63 197.38 L 1208.79 186.07 L 1212.95 186.22 L 1217.11 161.85 L 1221.28 146.02 L 1225.44 136.93 L 1229.60 135.77 L 1233.76 160.68 L 1237.92 150.50 L 1242.08 140.52 L 1246.24 143.51 L 1250.40 151.69 L 1254.56 169.83 L 1258.72 169.15 L 1262.88 212.61 L 1267.04 189.65 L 1271.20 183.22 L 1275.36 222.35 L 1279.52 205.06 L 1283.68 207.00 L 1287.84 208.63 L 1292.00 216.71" fill="none" stroke="#1d4ed8" stroke-width="2"  />
  </g>
  <g>
    <text x="54" y="538" fill="#1f2937" font-size="16" font-weight="700">B. 绝对误差（越低越好）</text>
    <line x1="98" y1="558" x2="124" y2="558" stroke="#1d4ed8" stroke-width="2"  />
      <text x="130" y="562" fill="#24312e" font-size="12">持仓分段误差</text>
    <line x1="98" y1="560.00" x2="1292" y2="560.00" stroke="#d7e3df" stroke-width="1" />
      <text x="90" y="564.00" text-anchor="end" fill="#5b6b68" font-size="11">8.40%</text>
<line x1="98" y1="630.00" x2="1292" y2="630.00" stroke="#d7e3df" stroke-width="1" />
      <text x="90" y="634.00" text-anchor="end" fill="#5b6b68" font-size="11">6.30%</text>
<line x1="98" y1="700.00" x2="1292" y2="700.00" stroke="#d7e3df" stroke-width="1" />
      <text x="90" y="704.00" text-anchor="end" fill="#5b6b68" font-size="11">4.20%</text>
<line x1="98" y1="770.00" x2="1292" y2="770.00" stroke="#d7e3df" stroke-width="1" />
      <text x="90" y="774.00" text-anchor="end" fill="#5b6b68" font-size="11">2.10%</text>
<line x1="98" y1="840.00" x2="1292" y2="840.00" stroke="#d7e3df" stroke-width="1" />
      <text x="90" y="844.00" text-anchor="end" fill="#5b6b68" font-size="11">0.00%</text>
    <line x1="98.00" y1="560" x2="98.00" y2="840" stroke="#eef3f1" stroke-width="1" />
      <text x="98.00" y="868" text-anchor="middle" fill="#5b6b68" font-size="11">25-01-02</text>
<line x1="289.37" y1="560" x2="289.37" y2="840" stroke="#eef3f1" stroke-width="1" />
      <text x="289.37" y="868" text-anchor="middle" fill="#5b6b68" font-size="11">25-03-17</text>
<line x1="480.75" y1="560" x2="480.75" y2="840" stroke="#eef3f1" stroke-width="1" />
      <text x="480.75" y="868" text-anchor="middle" fill="#5b6b68" font-size="11">25-05-26</text>
<line x1="697.08" y1="560" x2="697.08" y2="840" stroke="#eef3f1" stroke-width="1" />
      <text x="697.08" y="868" text-anchor="middle" fill="#5b6b68" font-size="11">25-08-07</text>
<line x1="909.25" y1="560" x2="909.25" y2="840" stroke="#eef3f1" stroke-width="1" />
      <text x="909.25" y="868" text-anchor="middle" fill="#5b6b68" font-size="11">25-10-27</text>
<line x1="1100.63" y1="560" x2="1100.63" y2="840" stroke="#eef3f1" stroke-width="1" />
      <text x="1100.63" y="868" text-anchor="middle" fill="#5b6b68" font-size="11">25-12-30</text>
<line x1="1292.00" y1="560" x2="1292.00" y2="840" stroke="#eef3f1" stroke-width="1" />
      <text x="1292.00" y="868" text-anchor="middle" fill="#5b6b68" font-size="11">26-03-16</text>
    <line x1="1108.95" y1="560" x2="1108.95" y2="840" stroke="#f59e0b" stroke-width="1.4" stroke-dasharray="4 4" />
       <text x="1114.95" y="552" fill="#a16207" font-size="11">验证起点</text>
    <path d="M 98.00 818.27 L 102.16 832.03 L 106.32 789.34 L 110.48 782.03 L 114.64 830.76 L 118.80 812.43 L 122.96 801.14 L 127.12 816.92 L 131.28 768.31 L 135.44 832.36 L 139.60 798.91 L 143.76 834.88 L 147.92 818.18 L 152.08 827.46 L 156.24 797.98 L 160.40 837.30 L 164.56 833.58 L 168.72 807.65 L 172.89 784.20 L 177.05 802.94 L 181.21 836.72 L 185.37 833.60 L 189.53 837.40 L 193.69 821.04 L 197.85 834.01 L 202.01 832.99 L 206.17 822.78 L 210.33 823.79 L 214.49 838.01 L 218.65 818.15 L 222.81 832.53 L 226.97 817.53 L 231.13 786.79 L 235.29 830.51 L 239.45 819.87 L 243.61 742.87 L 247.77 799.29 L 251.93 820.41 L 256.09 792.31 L 260.25 798.64 L 264.41 790.59 L 268.57 757.29 L 272.73 823.99 L 276.89 783.27 L 281.05 828.86 L 285.21 825.91 L 289.37 836.49 L 293.53 816.98 L 297.69 826.32 L 301.85 806.77 L 306.01 807.91 L 310.17 829.15 L 314.33 832.58 L 318.49 811.81 L 322.66 817.85 L 326.82 836.89 L 330.98 736.25 L 335.14 829.08 L 339.30 833.77 L 343.46 777.62 L 347.62 772.84 L 351.78 691.93 L 355.94 697.24 L 360.10 590.00 L 364.26 776.12 L 368.42 799.45 L 372.58 826.84 L 376.74 833.12 L 380.90 832.30 L 385.06 798.07 L 389.22 834.45 L 393.38 826.58 L 397.54 838.58 L 401.70 828.15 L 405.86 804.31 L 410.02 828.49 L 414.18 829.35 L 418.34 826.14 L 422.50 823.02 L 426.66 822.39 L 430.82 837.70 L 434.98 836.38 L 439.14 827.57 L 443.30 834.79 L 447.46 813.69 L 451.62 821.94 L 455.78 835.33 L 459.94 823.88 L 464.10 824.91 L 468.26 839.62 L 472.43 810.17 L 476.59 836.18 L 480.75 791.18 L 484.91 828.86 L 489.07 834.03 L 493.23 822.25 L 497.39 835.41 L 501.55 809.73 L 505.71 832.85 L 509.87 835.45 L 514.03 830.35 L 518.19 818.84 L 522.35 838.33 L 526.51 833.46 L 530.67 837.82 L 534.83 816.10 L 538.99 809.94 L 543.15 831.12 L 547.31 827.67 L 551.47 810.56 L 555.63 822.95 L 559.79 790.88 L 563.95 774.96 L 568.11 822.31 L 572.27 813.37 L 576.43 815.82 L 580.59 804.35 L 584.75 805.55 L 588.91 816.03 L 593.07 829.17 L 597.23 838.51 L 601.39 801.86 L 605.55 821.76 L 609.71 828.11 L 613.87 837.23 L 618.03 815.23 L 622.20 820.04 L 626.36 824.48 L 630.52 809.01 L 634.68 818.22 L 638.84 831.80 L 643.00 833.01 L 647.16 837.51 L 651.32 776.75 L 655.48 773.62 L 659.64 793.07 L 663.80 835.67 L 667.96 805.15 L 672.12 837.69 L 676.28 812.23 L 680.44 782.92 L 684.60 839.94 L 688.76 806.77 L 692.92 833.43 L 697.08 828.34 L 701.24 810.87 L 705.40 836.69 L 709.56 814.68 L 713.72 794.09 L 717.88 821.20 L 722.04 829.34 L 726.20 819.56 L 730.36 819.29 L 734.52 793.20 L 738.68 823.28 L 742.84 800.88 L 747.00 799.86 L 751.16 799.37 L 755.32 828.91 L 759.48 810.93 L 763.64 834.58 L 767.80 795.05 L 771.97 834.30 L 776.13 794.00 L 780.29 790.23 L 784.45 814.50 L 788.61 831.52 L 792.77 824.43 L 796.93 828.60 L 801.09 815.41 L 805.25 804.87 L 809.41 834.87 L 813.57 819.54 L 817.73 838.22 L 821.89 824.42 L 826.05 815.26 L 830.21 820.76 L 834.37 830.50 L 838.53 831.16 L 842.69 830.53 L 846.85 792.36 L 851.01 831.32 L 855.17 831.70 L 859.33 731.07 L 863.49 802.27 L 867.65 839.57 L 871.81 754.34 L 875.97 785.34 L 880.13 798.71 L 884.29 811.93 L 888.45 807.87 L 892.61 832.80 L 896.77 833.29 L 900.93 779.55 L 905.09 810.59 L 909.25 784.40 L 913.41 836.85 L 917.57 770.71 L 921.74 816.93 L 925.90 788.75 L 930.06 820.53 L 934.22 802.44 L 938.38 752.59 L 942.54 814.53 L 946.70 813.32 L 950.86 829.06 L 955.02 828.56 L 959.18 835.29 L 963.34 805.71 L 967.50 775.73 L 971.66 811.26 L 975.82 767.89 L 979.98 817.77 L 984.14 796.58 L 988.30 735.86 L 992.46 832.91 L 996.62 826.77 L 1000.78 782.81 L 1004.94 796.36 L 1009.10 838.60 L 1013.26 781.19 L 1017.42 835.42 L 1021.58 807.98 L 1025.74 763.90 L 1029.90 816.40 L 1034.06 823.57 L 1038.22 826.37 L 1042.38 808.58 L 1046.54 822.84 L 1050.70 790.66 L 1054.86 797.76 L 1059.02 826.90 L 1063.18 834.19 L 1067.34 787.97 L 1071.51 815.94 L 1075.67 815.93 L 1079.83 820.56 L 1083.99 838.75 L 1088.15 836.34 L 1092.31 826.09 L 1096.47 818.76 L 1100.63 831.97 L 1104.79 825.53 L 1108.95 835.37 L 1113.11 786.65 L 1117.27 805.24 L 1121.43 776.26 L 1125.59 839.22 L 1129.75 818.44 L 1133.91 750.72 L 1138.07 807.01 L 1142.23 835.23 L 1146.39 826.22 L 1150.55 829.27 L 1154.71 798.23 L 1158.87 813.97 L 1163.03 797.39 L 1167.19 824.27 L 1171.35 806.50 L 1175.51 835.03 L 1179.67 799.14 L 1183.83 826.09 L 1187.99 815.40 L 1192.15 778.58 L 1196.31 743.05 L 1200.47 785.05 L 1204.63 831.30 L 1208.79 800.19 L 1212.95 756.35 L 1217.11 776.16 L 1221.28 798.73 L 1225.44 839.08 L 1229.60 792.50 L 1233.76 804.39 L 1237.92 796.62 L 1242.08 823.35 L 1246.24 828.35 L 1250.40 831.74 L 1254.56 807.39 L 1258.72 692.11 L 1262.88 726.12 L 1267.04 818.70 L 1271.20 637.25 L 1275.36 753.73 L 1279.52 817.12 L 1283.68 833.47 L 1287.84 792.92 L 1292.00 835.75" fill="none" stroke="#1d4ed8" stroke-width="2"  />
  </g>
</svg>