<?xml version="1.0" encoding="UTF-8"?>
<svg xmlns="http://www.w3.org/2000/svg" width="1360" height="980" viewBox="0 0 1360 980">
  <defs>
    <linearGradient id="bg" x1="0" y1="0" x2="1" y2="1">
      <stop offset="0%" stop-color="#f4efe6" />
      <stop offset="100%" stop-color="#eef5f2" />
    </linearGradient>
  </defs>
  <rect x="0" y="0" width="1360" height="980" fill="url(#bg)" />
  <text x="46" y="36" fill="#1f2937" font-size="31" font-weight="700">华夏日经225ETF（513520）离线研究图（持仓逐日估值版）</text>
  <text x="46" y="66" fill="#5b6b68" font-size="13">历史前十大持仓 + 持仓逐日涨跌幅 + USDCNY；双目标 lambda=0.10；披露期数 19；覆盖率均值 92.3%</text>
  <g>
    <text x="54" y="110" fill="#1f2937" font-size="16" font-weight="700">A. 净值拟合（同日对齐，无平移）</text>
    <line x1="98" y1="130" x2="124" y2="130" stroke="#0f766e" stroke-width="2"  />
      <text x="130" y="134" fill="#24312e" font-size="12">真实净值</text>
<line x1="313" y1="130" x2="339" y2="130" stroke="#1d4ed8" stroke-width="2"  />
      <text x="345" y="134" fill="#24312e" font-size="12">持仓分段估值</text>
    <line x1="98" y1="132.00" x2="1292" y2="132.00" stroke="#d7e3df" stroke-width="1" />
      <text x="90" y="136.00" text-anchor="end" fill="#5b6b68" font-size="11">2.037</text>
<line x1="98" y1="209.50" x2="1292" y2="209.50" stroke="#d7e3df" stroke-width="1" />
      <text x="90" y="213.50" text-anchor="end" fill="#5b6b68" font-size="11">1.825</text>
<line x1="98" y1="287.00" x2="1292" y2="287.00" stroke="#d7e3df" stroke-width="1" />
      <text x="90" y="291.00" text-anchor="end" fill="#5b6b68" font-size="11">1.613</text>
<line x1="98" y1="364.50" x2="1292" y2="364.50" stroke="#d7e3df" stroke-width="1" />
      <text x="90" y="368.50" text-anchor="end" fill="#5b6b68" font-size="11">1.400</text>
<line x1="98" y1="442.00" x2="1292" y2="442.00" stroke="#d7e3df" stroke-width="1" />
      <text x="90" y="446.00" text-anchor="end" fill="#5b6b68" font-size="11">1.188</text>
    <line x1="98.00" y1="132" x2="98.00" y2="442" stroke="#eef3f1" stroke-width="1" />
      <text x="98.00" y="470" text-anchor="middle" fill="#5b6b68" font-size="11">24-06-24</text>
<line x1="289.38" y1="132" x2="289.38" y2="442" stroke="#eef3f1" stroke-width="1" />
      <text x="289.38" y="470" text-anchor="middle" fill="#5b6b68" font-size="11">24-09-26</text>
<line x1="480.77" y1="132" x2="480.77" y2="442" stroke="#eef3f1" stroke-width="1" />
      <text x="480.77" y="470" text-anchor="middle" fill="#5b6b68" font-size="11">25-01-07</text>
<line x1="695.00" y1="132" x2="695.00" y2="442" stroke="#eef3f1" stroke-width="1" />
      <text x="695.00" y="470" text-anchor="middle" fill="#5b6b68" font-size="11">25-05-06</text>
<line x1="909.23" y1="132" x2="909.23" y2="442" stroke="#eef3f1" stroke-width="1" />
      <text x="909.23" y="470" text-anchor="middle" fill="#5b6b68" font-size="11">25-08-20</text>
<line x1="1100.62" y1="132" x2="1100.62" y2="442" stroke="#eef3f1" stroke-width="1" />
      <text x="1100.62" y="470" text-anchor="middle" fill="#5b6b68" font-size="11">25-12-01</text>
<line x1="1292.00" y1="132" x2="1292.00" y2="442" stroke="#eef3f1" stroke-width="1" />
      <text x="1292.00" y="470" text-anchor="middle" fill="#5b6b68" font-size="11">26-03-16</text>
    <line x1="98.00" y1="132" x2="98.00" y2="442" stroke="#f59e0b" stroke-width="1.4" stroke-dasharray="4 4" />
       <text x="104.00" y="124" fill="#a16207" font-size="11">验证起点</text>
    <path d="M 98.00 383.55 L 100.86 378.11 L 103.71 372.34 L 106.57 378.22 L 109.43 377.05 L 112.28 377.05 L 115.14 376.98 L 118.00 373.40 L 120.85 367.38 L 123.71 362.16 L 126.56 360.62 L 129.42 361.17 L 132.28 351.57 L 135.13 349.96 L 137.99 346.17 L 140.85 351.10 L 143.70 347.74 L 146.56 349.27 L 149.42 348.65 L 152.27 355.73 L 155.13 361.75 L 157.99 365.08 L 160.84 362.30 L 163.70 362.96 L 166.56 374.02 L 169.41 380.81 L 172.27 368.58 L 175.12 371.94 L 177.98 360.00 L 180.84 363.18 L 183.69 391.51 L 186.55 432.61 L 189.41 408.33 L 192.26 397.97 L 195.12 400.49 L 197.98 399.68 L 200.83 399.28 L 203.69 386.14 L 206.55 382.78 L 209.40 379.17 L 212.26 365.26 L 215.11 365.70 L 217.97 361.02 L 220.83 358.14 L 223.68 354.13 L 226.54 352.30 L 229.40 352.19 L 232.25 351.53 L 235.11 348.07 L 237.97 350.99 L 240.82 349.64 L 243.68 352.48 L 246.54 351.24 L 249.39 370.77 L 252.25 370.33 L 255.11 372.38 L 257.96 374.49 L 260.82 376.32 L 263.67 376.47 L 266.53 364.60 L 269.39 362.27 L 272.24 368.47 L 275.10 363.69 L 277.96 355.84 L 280.81 362.34 L 283.67 359.42 L 286.53 359.60 L 289.38 351.57 L 292.24 340.98 L 295.10 349.38 L 297.95 355.26 L 300.81 352.99 L 303.67 353.29 L 306.52 348.65 L 309.38 350.26 L 312.23 343.25 L 315.09 352.26 L 317.95 355.84 L 320.80 358.21 L 323.66 355.37 L 326.52 367.52 L 329.37 375.92 L 332.23 376.50 L 335.09 377.38 L 337.94 373.14 L 340.80 366.83 L 343.66 363.98 L 346.51 365.95 L 349.37 378.29 L 352.22 378.29 L 355.08 372.96 L 357.94 360.84 L 360.79 362.38 L 363.65 359.13 L 366.51 357.74 L 369.36 357.52 L 372.22 369.90 L 375.08 375.01 L 377.93 374.86 L 380.79 373.76 L 383.65 371.98 L 386.50 374.13 L 389.36 378.66 L 392.22 372.96 L 395.07 365.92 L 397.93 367.27 L 400.78 367.12 L 403.64 361.94 L 406.50 360.22 L 409.35 355.73 L 412.21 342.12 L 415.07 343.32 L 417.92 341.57 L 420.78 346.39 L 423.64 343.14 L 426.49 347.08 L 429.35 348.65 L 432.21 344.09 L 435.06 349.78 L 437.92 352.59 L 440.78 354.49 L 443.63 355.26 L 446.49 364.82 L 449.34 371.83 L 452.20 364.31 L 455.06 366.79 L 457.91 367.34 L 460.77 362.30 L 463.63 353.80 L 466.48 358.36 L 469.34 352.96 L 472.20 356.02 L 475.05 356.28 L 477.91 363.84 L 480.77 354.82 L 483.62 356.06 L 486.48 360.48 L 489.33 366.68 L 492.19 363.47 L 495.05 374.17 L 497.90 373.66 L 500.76 368.11 L 503.62 367.85 L 506.47 365.37 L 509.33 364.02 L 512.19 357.41 L 515.04 355.70 L 517.90 353.69 L 520.76 358.91 L 523.61 359.09 L 526.47 352.45 L 529.33 353.14 L 532.18 352.74 L 535.04 352.63 L 537.89 356.13 L 540.75 353.32 L 543.61 352.12 L 546.46 350.77 L 549.32 348.28 L 552.18 348.98 L 555.03 352.30 L 557.89 351.90 L 560.75 348.87 L 563.60 355.55 L 566.46 356.75 L 569.32 353.69 L 572.17 368.73 L 575.03 361.83 L 577.89 365.70 L 580.74 367.08 L 583.60 361.46 L 586.45 368.03 L 589.31 364.89 L 592.17 367.92 L 595.02 371.57 L 597.88 370.15 L 600.74 368.62 L 603.59 366.61 L 606.45 363.25 L 609.31 364.20 L 612.16 359.35 L 615.02 363.98 L 617.88 364.24 L 620.73 364.68 L 623.59 361.10 L 626.44 364.38 L 629.30 370.99 L 632.16 385.41 L 635.01 387.27 L 637.87 386.14 L 640.73 388.18 L 643.58 434.14 L 646.44 413.04 L 649.30 414.83 L 652.15 387.93 L 655.01 391.43 L 657.87 384.02 L 660.72 380.99 L 663.58 382.56 L 666.44 378.98 L 669.29 372.78 L 672.15 374.49 L 675.00 370.88 L 677.86 369.97 L 680.72 370.59 L 683.57 364.13 L 686.43 361.21 L 689.29 358.83 L 692.14 356.90 L 695.00 353.87 L 697.86 351.13 L 700.71 350.04 L 703.57 348.80 L 706.43 349.49 L 709.28 350.80 L 712.14 347.34 L 715.00 348.69 L 717.85 347.12 L 720.71 349.56 L 723.56 346.24 L 726.42 346.75 L 729.28 350.84 L 732.13 349.31 L 734.99 342.30 L 737.85 340.55 L 740.70 344.09 L 743.56 340.36 L 746.42 338.83 L 749.27 343.06 L 752.13 343.94 L 754.99 343.65 L 757.84 343.98 L 760.70 340.40 L 763.56 339.63 L 766.41 338.32 L 769.27 337.70 L 772.12 341.75 L 774.98 336.49 L 777.84 335.62 L 780.69 332.22 L 783.55 337.11 L 786.41 340.07 L 789.26 346.82 L 792.12 335.36 L 794.98 332.55 L 797.83 322.44 L 800.69 312.88 L 803.55 306.82 L 806.40 312.84 L 809.26 316.27 L 812.11 317.22 L 814.97 317.58 L 817.83 323.90 L 820.68 325.83 L 823.54 327.11 L 826.40 326.71 L 829.25 330.98 L 832.11 333.98 L 834.97 331.89 L 837.82 336.20 L 840.68 331.71 L 843.54 333.46 L 846.39 332.04 L 849.25 331.68 L 852.11 309.85 L 854.96 297.76 L 857.82 306.27 L 860.67 314.81 L 863.53 320.72 L 866.39 320.32 L 869.24 315.32 L 872.10 323.94 L 874.96 323.43 L 877.81 317.55 L 880.67 314.74 L 883.53 311.74 L 886.38 301.41 L 889.24 301.96 L 892.10 291.81 L 894.95 283.34 L 897.81 286.78 L 900.67 279.22 L 903.52 275.39 L 906.38 278.78 L 909.23 287.03 L 912.09 290.83 L 914.95 295.43 L 917.80 289.81 L 920.66 296.63 L 923.52 294.81 L 926.37 288.71 L 929.23 290.90 L 932.09 298.49 L 934.94 299.62 L 937.80 307.40 L 940.66 297.22 L 943.51 291.67 L 946.37 282.87 L 949.22 281.48 L 952.08 278.60 L 954.94 272.14 L 957.79 266.22 L 960.65 266.84 L 963.51 262.97 L 966.36 263.23 L 969.22 259.03 L 972.08 264.18 L 974.93 260.24 L 977.79 258.27 L 980.65 256.33 L 983.50 258.05 L 986.36 266.08 L 989.22 264.11 L 992.07 262.65 L 994.93 231.76 L 997.78 240.27 L 1000.64 236.00 L 1003.50 250.49 L 1006.35 238.11 L 1009.21 229.46 L 1012.07 233.59 L 1014.92 216.32 L 1017.78 218.62 L 1020.64 219.72 L 1023.49 230.74 L 1026.35 224.13 L 1029.21 209.86 L 1032.06 209.90 L 1034.92 196.50 L 1037.78 200.15 L 1040.63 188.83 L 1043.49 189.13 L 1046.34 197.27 L 1049.20 213.99 L 1052.06 208.40 L 1054.91 212.60 L 1057.77 207.23 L 1060.63 209.06 L 1063.48 208.58 L 1066.34 208.47 L 1069.20 219.17 L 1072.05 219.39 L 1074.91 240.67 L 1077.77 244.61 L 1080.62 237.79 L 1083.48 250.71 L 1086.33 248.74 L 1089.19 250.89 L 1092.05 238.11 L 1094.90 230.08 L 1097.76 230.81 L 1100.62 239.54 L 1103.47 240.23 L 1106.33 233.70 L 1109.19 216.87 L 1112.04 220.92 L 1114.90 222.64 L 1117.76 224.50 L 1120.61 229.32 L 1123.47 231.95 L 1126.33 222.16 L 1129.18 228.51 L 1132.04 237.82 L 1134.89 237.68 L 1137.75 246.84 L 1140.61 241.73 L 1143.46 236.62 L 1146.32 231.69 L 1149.18 231.95 L 1152.03 232.93 L 1154.89 230.52 L 1157.75 233.55 L 1160.60 234.87 L 1163.46 237.57 L 1166.32 221.58 L 1169.17 210.66 L 1172.03 216.98 L 1174.89 228.84 L 1177.74 221.58 L 1180.60 224.94 L 1183.45 207.63 L 1186.31 199.68 L 1189.17 199.60 L 1192.02 201.65 L 1194.88 204.53 L 1197.74 213.11 L 1200.59 216.36 L 1203.45 207.09 L 1206.31 204.35 L 1209.16 197.56 L 1212.02 194.60 L 1214.88 186.72 L 1217.73 187.81 L 1220.59 192.38 L 1223.44 204.02 L 1226.30 182.15 L 1229.16 191.24 L 1232.01 198.18 L 1234.87 193.47 L 1237.73 167.70 L 1240.58 147.62 L 1243.44 136.89 L 1246.30 137.33 L 1249.15 146.38 L 1252.01 152.69 L 1254.87 140.87 L 1257.72 144.30 L 1260.58 141.01 L 1263.44 153.39 L 1266.29 176.24 L 1269.15 198.76 L 1272.00 187.85 L 1274.86 184.42 L 1277.72 222.27 L 1280.57 203.51 L 1283.43 199.31 L 1286.29 207.16 L 1289.14 216.76 L 1292.00 216.21" fill="none" stroke="#0f766e" stroke-width="2"  />
<path d="M 98.00 384.75 L 100.86 380.65 L 103.71 376.96 L 106.57 370.51 L 109.43 377.83 L 112.28 378.30 L 115.14 376.82 L 118.00 373.96 L 120.85 371.55 L 123.71 366.35 L 126.56 361.23 L 129.42 361.69 L 132.28 360.27 L 135.13 346.26 L 137.99 348.55 L 140.85 344.70 L 143.70 353.11 L 146.56 344.51 L 149.42 348.42 L 152.27 350.30 L 155.13 356.93 L 157.99 361.77 L 160.84 365.50 L 163.70 364.04 L 166.56 366.84 L 169.41 372.83 L 172.27 382.09 L 175.12 366.41 L 177.98 364.44 L 180.84 366.56 L 183.69 368.71 L 186.55 408.04 L 189.41 438.06 L 192.26 405.45 L 195.12 392.99 L 197.98 400.73 L 200.83 401.61 L 203.69 395.26 L 206.55 383.65 L 209.40 381.69 L 212.26 377.81 L 215.11 362.87 L 217.97 366.00 L 220.83 358.76 L 223.68 357.73 L 226.54 348.07 L 229.40 357.31 L 232.25 350.69 L 235.11 351.27 L 237.97 347.07 L 240.82 350.19 L 243.68 349.94 L 246.54 352.50 L 249.39 352.01 L 252.25 372.71 L 255.11 377.37 L 257.96 371.90 L 260.82 374.90 L 263.67 375.69 L 266.53 375.12 L 269.39 363.47 L 272.24 366.19 L 275.10 365.09 L 277.96 362.34 L 280.81 356.01 L 283.67 365.00 L 286.53 358.51 L 289.38 354.60 L 292.24 355.46 L 295.10 341.82 L 297.95 357.66 L 300.81 355.81 L 303.67 351.90 L 306.52 352.52 L 309.38 349.40 L 312.23 352.91 L 315.09 340.82 L 317.95 353.28 L 320.80 355.48 L 323.66 364.38 L 326.52 356.54 L 329.37 372.20 L 332.23 376.23 L 335.09 375.97 L 337.94 378.52 L 340.80 371.04 L 343.66 365.51 L 346.51 363.78 L 349.37 365.82 L 352.22 379.83 L 355.08 375.59 L 357.94 372.70 L 360.79 357.81 L 363.65 363.35 L 366.51 357.68 L 369.36 359.30 L 372.22 358.99 L 375.08 370.79 L 377.93 373.91 L 380.79 373.69 L 383.65 373.46 L 386.50 371.92 L 389.36 373.90 L 392.22 378.15 L 395.07 370.51 L 397.93 364.97 L 400.78 365.10 L 403.64 366.95 L 406.50 361.09 L 409.35 357.86 L 412.21 352.62 L 415.07 340.30 L 417.92 343.38 L 420.78 340.83 L 423.64 347.74 L 426.49 342.91 L 429.35 344.96 L 432.21 349.63 L 435.06 343.95 L 437.92 349.93 L 440.78 355.14 L 443.63 358.35 L 446.49 356.37 L 449.34 363.33 L 452.20 373.49 L 455.06 363.00 L 457.91 367.14 L 460.77 367.35 L 463.63 360.60 L 466.48 351.23 L 469.34 358.47 L 472.20 352.97 L 475.05 355.53 L 477.91 356.64 L 480.77 364.96 L 483.62 353.15 L 486.48 356.02 L 489.33 361.05 L 492.19 367.63 L 495.05 362.89 L 497.90 374.21 L 500.76 374.20 L 503.62 366.28 L 506.47 368.83 L 509.33 365.27 L 512.19 363.76 L 515.04 355.14 L 517.90 354.56 L 520.76 352.16 L 523.61 355.22 L 526.47 358.28 L 529.33 353.80 L 532.18 354.14 L 535.04 352.16 L 537.89 356.20 L 540.75 354.04 L 543.61 352.85 L 546.46 352.62 L 549.32 350.23 L 552.18 348.27 L 555.03 349.03 L 557.89 353.59 L 560.75 352.97 L 563.60 346.77 L 566.46 356.27 L 569.32 356.98 L 572.17 353.45 L 575.03 369.06 L 577.89 361.72 L 580.74 362.98 L 583.60 368.07 L 586.45 359.66 L 589.31 370.66 L 592.17 365.07 L 595.02 365.45 L 597.88 372.37 L 600.74 367.69 L 603.59 367.35 L 606.45 366.48 L 609.31 361.51 L 612.16 364.61 L 615.02 358.26 L 617.88 364.95 L 620.73 363.51 L 623.59 366.37 L 626.44 360.41 L 629.30 368.28 L 632.16 371.56 L 635.01 387.76 L 637.87 387.30 L 640.73 386.43 L 643.58 415.44 L 646.44 439.82 L 649.30 403.41 L 652.15 419.35 L 655.01 377.96 L 657.87 392.08 L 660.72 381.77 L 663.58 381.93 L 666.44 379.92 L 669.29 378.21 L 672.15 372.16 L 675.00 371.22 L 677.86 374.39 L 680.72 368.54 L 683.57 369.61 L 686.43 360.51 L 689.29 360.02 L 692.14 358.78 L 695.00 355.15 L 697.86 353.48 L 700.71 352.89 L 703.57 349.14 L 706.43 352.17 L 709.28 350.92 L 712.14 352.62 L 715.00 345.14 L 717.85 347.98 L 720.71 344.46 L 723.56 348.89 L 726.42 346.32 L 729.28 346.16 L 732.13 350.47 L 734.99 348.89 L 737.85 340.82 L 740.70 342.96 L 743.56 343.68 L 746.42 338.94 L 749.27 338.05 L 752.13 343.44 L 754.99 344.64 L 757.84 342.28 L 760.70 343.19 L 763.56 339.33 L 766.41 339.27 L 769.27 337.09 L 772.12 337.91 L 774.98 344.31 L 777.84 336.39 L 780.69 333.98 L 783.55 331.46 L 786.41 337.70 L 789.26 338.72 L 792.12 346.84 L 794.98 333.78 L 797.83 328.32 L 800.69 317.20 L 803.55 310.00 L 806.40 306.26 L 809.26 313.10 L 812.11 315.87 L 814.97 317.06 L 817.83 316.79 L 820.68 323.66 L 823.54 325.37 L 826.40 327.45 L 829.25 327.00 L 832.11 331.96 L 834.97 334.99 L 837.82 330.79 L 840.68 335.80 L 843.54 331.58 L 846.39 331.42 L 849.25 330.98 L 852.11 324.46 L 854.96 305.82 L 857.82 296.44 L 860.67 311.94 L 863.53 316.21 L 866.39 320.77 L 869.24 319.86 L 872.10 309.52 L 874.96 325.84 L 877.81 323.03 L 880.67 314.85 L 883.53 313.28 L 886.38 307.91 L 889.24 301.29 L 892.10 298.41 L 894.95 290.02 L 897.81 282.27 L 900.67 283.67 L 903.52 279.84 L 906.38 274.51 L 909.23 279.34 L 912.09 289.26 L 914.95 287.87 L 917.80 298.64 L 920.66 288.72 L 923.52 297.79 L 926.37 293.58 L 929.23 290.52 L 932.09 291.10 L 934.94 299.31 L 937.80 299.73 L 940.66 306.97 L 943.51 294.55 L 946.37 287.91 L 949.22 284.56 L 952.08 280.40 L 954.94 276.08 L 957.79 271.74 L 960.65 264.53 L 963.51 266.83 L 966.36 262.39 L 969.22 261.91 L 972.08 259.07 L 974.93 264.32 L 977.79 259.47 L 980.65 257.65 L 983.50 256.05 L 986.36 257.58 L 989.22 266.22 L 992.07 263.93 L 994.93 268.40 L 997.78 236.45 L 1000.64 237.63 L 1003.50 233.76 L 1006.35 250.70 L 1009.21 235.62 L 1012.07 226.89 L 1014.92 227.43 L 1017.78 214.79 L 1020.64 218.84 L 1023.49 219.28 L 1026.35 231.55 L 1029.21 218.49 L 1032.06 207.16 L 1034.92 210.83 L 1037.78 193.43 L 1040.63 200.00 L 1043.49 181.84 L 1046.34 189.85 L 1049.20 197.89 L 1052.06 216.02 L 1054.91 206.44 L 1057.77 209.87 L 1060.63 206.00 L 1063.48 207.91 L 1066.34 212.69 L 1069.20 206.45 L 1072.05 221.00 L 1074.91 223.98 L 1077.77 243.56 L 1080.62 248.51 L 1083.48 232.73 L 1086.33 249.21 L 1089.19 248.17 L 1092.05 248.52 L 1094.90 236.15 L 1097.76 228.95 L 1100.62 227.00 L 1103.47 240.72 L 1106.33 240.02 L 1109.19 230.80 L 1112.04 213.72 L 1114.90 220.47 L 1117.76 222.13 L 1120.61 223.48 L 1123.47 229.39 L 1126.33 232.31 L 1129.18 217.34 L 1132.04 243.15 L 1134.89 241.52 L 1137.75 236.99 L 1140.61 252.28 L 1143.46 238.24 L 1146.32 222.66 L 1149.18 231.11 L 1152.03 231.86 L 1154.89 232.94 L 1157.75 228.38 L 1160.60 233.90 L 1163.46 235.07 L 1166.32 231.09 L 1169.17 218.91 L 1172.03 208.47 L 1174.89 217.48 L 1177.74 226.23 L 1180.60 218.95 L 1183.45 226.16 L 1186.31 203.66 L 1189.17 197.43 L 1192.02 198.86 L 1194.88 201.50 L 1197.74 204.83 L 1200.59 212.37 L 1203.45 216.11 L 1206.31 202.54 L 1209.16 200.86 L 1212.02 194.52 L 1214.88 194.94 L 1217.73 183.70 L 1220.59 187.53 L 1223.44 193.25 L 1226.30 204.01 L 1229.16 176.49 L 1232.01 195.75 L 1234.87 191.49 L 1237.73 187.91 L 1240.58 159.90 L 1243.44 142.90 L 1246.30 135.70 L 1249.15 136.04 L 1252.01 158.55 L 1254.87 151.32 L 1257.72 139.06 L 1260.58 144.09 L 1263.44 145.41 L 1266.29 165.46 L 1269.15 174.83 L 1272.00 210.20 L 1274.86 187.38 L 1277.72 180.37 L 1280.57 226.33 L 1283.43 201.25 L 1286.29 202.83 L 1289.14 208.71 L 1292.00 215.86" fill="none" stroke="#1d4ed8" stroke-width="2"  />
  </g>
  <g>
    <text x="54" y="538" fill="#1f2937" font-size="16" font-weight="700">B. 绝对误差（越低越好）</text>
    <line x1="98" y1="558" x2="124" y2="558" stroke="#1d4ed8" stroke-width="2"  />
      <text x="130" y="562" fill="#24312e" font-size="12">持仓分段误差</text>
    <line x1="98" y1="560.00" x2="1292" y2="560.00" stroke="#d7e3df" stroke-width="1" />
      <text x="90" y="564.00" text-anchor="end" fill="#5b6b68" font-size="11">7.22%</text>
<line x1="98" y1="630.00" x2="1292" y2="630.00" stroke="#d7e3df" stroke-width="1" />
      <text x="90" y="634.00" text-anchor="end" fill="#5b6b68" font-size="11">5.41%</text>
<line x1="98" y1="700.00" x2="1292" y2="700.00" stroke="#d7e3df" stroke-width="1" />
      <text x="90" y="704.00" text-anchor="end" fill="#5b6b68" font-size="11">3.61%</text>
<line x1="98" y1="770.00" x2="1292" y2="770.00" stroke="#d7e3df" stroke-width="1" />
      <text x="90" y="774.00" text-anchor="end" fill="#5b6b68" font-size="11">1.80%</text>
<line x1="98" y1="840.00" x2="1292" y2="840.00" stroke="#d7e3df" stroke-width="1" />
      <text x="90" y="844.00" text-anchor="end" fill="#5b6b68" font-size="11">0.00%</text>
    <line x1="98.00" y1="560" x2="98.00" y2="840" stroke="#eef3f1" stroke-width="1" />
      <text x="98.00" y="868" text-anchor="middle" fill="#5b6b68" font-size="11">24-06-24</text>
<line x1="289.38" y1="560" x2="289.38" y2="840" stroke="#eef3f1" stroke-width="1" />
      <text x="289.38" y="868" text-anchor="middle" fill="#5b6b68" font-size="11">24-09-26</text>
<line x1="480.77" y1="560" x2="480.77" y2="840" stroke="#eef3f1" stroke-width="1" />
      <text x="480.77" y="868" text-anchor="middle" fill="#5b6b68" font-size="11">25-01-07</text>
<line x1="695.00" y1="560" x2="695.00" y2="840" stroke="#eef3f1" stroke-width="1" />
      <text x="695.00" y="868" text-anchor="middle" fill="#5b6b68" font-size="11">25-05-06</text>
<line x1="909.23" y1="560" x2="909.23" y2="840" stroke="#eef3f1" stroke-width="1" />
      <text x="909.23" y="868" text-anchor="middle" fill="#5b6b68" font-size="11">25-08-20</text>
<line x1="1100.62" y1="560" x2="1100.62" y2="840" stroke="#eef3f1" stroke-width="1" />
      <text x="1100.62" y="868" text-anchor="middle" fill="#5b6b68" font-size="11">25-12-01</text>
<line x1="1292.00" y1="560" x2="1292.00" y2="840" stroke="#eef3f1" stroke-width="1" />
      <text x="1292.00" y="868" text-anchor="middle" fill="#5b6b68" font-size="11">26-03-16</text>
    <line x1="98.00" y1="560" x2="98.00" y2="840" stroke="#f59e0b" stroke-width="1.4" stroke-dasharray="4 4" />
       <text x="104.00" y="552" fill="#a16207" font-size="11">验证起点</text>
    <path d="M 98.00 830.51 L 100.86 820.21 L 103.71 804.42 L 106.57 779.85 L 109.43 833.91 L 112.28 830.27 L 115.14 838.75 L 118.00 835.71 L 120.85 808.16 L 123.71 808.29 L 126.56 835.44 L 129.42 836.06 L 132.28 775.59 L 135.13 812.66 L 137.99 822.54 L 140.85 792.66 L 143.70 800.54 L 146.56 804.91 L 149.42 838.27 L 152.27 799.48 L 155.13 803.57 L 157.99 814.84 L 160.84 815.81 L 163.70 831.84 L 166.56 784.50 L 169.41 777.46 L 172.27 736.61 L 175.12 797.41 L 177.98 806.59 L 180.84 814.36 L 183.69 657.34 L 186.55 624.83 L 189.41 593.18 L 192.26 779.26 L 195.12 778.81 L 197.98 831.47 L 200.83 821.05 L 203.69 767.74 L 206.55 833.15 L 209.40 820.32 L 212.26 744.59 L 215.11 818.47 L 217.97 802.50 L 220.83 835.34 L 223.68 813.17 L 226.54 808.61 L 229.40 802.09 L 232.25 833.75 L 235.11 816.41 L 237.97 811.02 L 240.82 835.94 L 243.68 821.15 L 246.54 830.71 L 249.39 695.80 L 252.25 821.77 L 255.11 801.52 L 257.96 819.90 L 260.82 828.93 L 263.67 833.99 L 266.53 760.12 L 269.39 830.90 L 272.24 822.53 L 275.10 829.40 L 277.96 791.52 L 280.81 792.18 L 283.67 798.06 L 286.53 831.83 L 289.38 817.60 L 292.24 734.94 L 295.10 784.28 L 297.95 822.07 L 300.81 819.11 L 303.67 829.69 L 306.52 811.49 L 309.38 833.68 L 312.23 769.55 L 315.09 755.13 L 317.95 820.87 L 320.80 819.52 L 323.66 772.75 L 326.52 756.16 L 329.37 811.10 L 332.23 837.85 L 335.09 829.05 L 337.94 798.46 L 340.80 807.92 L 343.66 828.43 L 346.51 823.44 L 349.37 742.70 L 352.22 828.02 L 355.08 819.70 L 357.94 750.62 L 360.79 805.49 L 363.65 808.29 L 366.51 839.58 L 369.36 826.68 L 372.22 756.31 L 375.08 807.29 L 377.93 832.65 L 380.79 839.41 L 383.65 828.59 L 386.50 822.92 L 389.36 802.84 L 392.22 799.99 L 395.07 805.00 L 397.93 822.46 L 400.78 824.56 L 403.64 802.14 L 406.50 833.50 L 409.35 824.12 L 412.21 763.62 L 415.07 817.96 L 417.92 826.86 L 420.78 799.24 L 423.64 806.45 L 426.49 809.38 L 429.35 812.81 L 432.21 799.57 L 435.06 796.99 L 437.92 820.22 L 440.78 835.15 L 443.63 816.92 L 446.49 775.80 L 449.34 774.55 L 452.20 770.33 L 455.06 811.11 L 457.91 838.47 L 460.77 801.86 L 463.63 789.39 L 466.48 786.52 L 469.34 799.09 L 472.20 817.23 L 475.05 834.37 L 477.91 785.42 L 480.77 764.45 L 483.62 818.30 L 486.48 806.44 L 489.33 797.03 L 492.19 808.48 L 495.05 752.73 L 497.90 835.67 L 500.76 793.40 L 503.62 827.97 L 506.47 813.72 L 509.33 830.52 L 512.19 792.49 L 515.04 835.88 L 517.90 833.51 L 520.76 789.31 L 523.61 810.91 L 526.47 796.75 L 529.33 835.13 L 532.18 829.59 L 535.04 836.53 L 537.89 839.53 L 540.75 834.70 L 543.61 834.54 L 546.46 826.33 L 549.32 825.66 L 552.18 834.75 L 555.03 815.76 L 557.89 827.48 L 560.75 809.77 L 563.60 774.50 L 566.46 836.36 L 569.32 815.50 L 572.17 723.08 L 575.03 785.39 L 577.89 809.72 L 580.74 808.72 L 583.60 790.12 L 586.45 775.99 L 589.31 796.22 L 592.17 818.23 L 595.02 792.83 L 597.88 822.94 L 600.74 832.93 L 603.59 834.38 L 606.45 815.55 L 609.31 819.60 L 612.16 800.42 L 615.02 796.62 L 617.88 834.62 L 620.73 831.18 L 623.59 800.28 L 626.44 809.88 L 629.30 819.18 L 632.16 730.41 L 635.01 836.11 L 637.87 830.79 L 640.73 826.05 L 643.58 675.66 L 646.44 615.42 L 649.30 743.81 L 652.15 590.00 L 655.01 732.07 L 657.87 776.40 L 660.72 833.89 L 663.58 835.00 L 666.44 832.69 L 669.29 798.08 L 672.15 821.94 L 675.00 837.43 L 677.86 806.11 L 680.72 824.26 L 683.57 798.45 L 686.43 834.73 L 689.29 831.09 L 692.14 825.96 L 695.00 830.49 L 697.86 822.65 L 700.71 818.96 L 703.57 837.48 L 706.43 820.22 L 709.28 839.11 L 712.14 801.23 L 715.00 813.88 L 717.85 833.63 L 720.71 802.38 L 723.56 820.55 L 726.42 836.80 L 729.28 805.40 L 732.13 831.42 L 734.99 792.03 L 737.85 838.02 L 740.70 831.79 L 743.56 815.98 L 746.42 839.23 L 749.27 803.50 L 752.13 836.33 L 754.99 832.74 L 757.84 827.65 L 760.70 819.78 L 763.56 837.78 L 766.41 833.15 L 769.27 835.62 L 772.12 812.07 L 774.98 783.74 L 777.84 834.47 L 780.69 827.44 L 783.55 799.24 L 786.41 822.85 L 789.26 780.50 L 792.12 757.60 L 794.98 831.24 L 797.83 798.74 L 800.69 810.21 L 803.55 818.28 L 806.40 794.67 L 809.26 817.98 L 812.11 830.61 L 814.97 836.32 L 817.83 790.02 L 820.68 824.62 L 823.54 827.69 L 826.40 834.77 L 829.25 811.62 L 832.11 825.58 L 834.97 817.88 L 837.82 801.09 L 840.68 810.84 L 843.54 826.55 L 846.39 835.54 L 849.25 835.05 L 852.11 739.78 L 854.96 785.94 L 857.82 773.03 L 860.67 820.13 L 863.53 808.47 L 866.39 836.90 L 869.24 808.54 L 872.10 738.63 L 874.96 823.01 L 877.81 801.91 L 880.67 839.21 L 883.53 829.43 L 886.38 796.13 L 889.24 835.44 L 892.10 796.19 L 894.95 796.25 L 897.81 810.34 L 900.67 811.03 L 903.52 811.21 L 906.38 812.27 L 909.23 789.34 L 912.09 829.59 L 914.95 789.45 L 917.80 781.46 L 920.66 787.00 L 923.52 820.07 L 926.37 807.78 L 929.23 837.45 L 932.09 790.29 L 934.94 837.89 L 937.80 787.62 L 940.66 774.60 L 943.51 820.85 L 946.37 806.98 L 949.22 819.88 L 952.08 828.32 L 954.94 814.62 L 957.79 804.90 L 960.65 825.28 L 963.51 815.57 L 966.36 834.70 L 969.22 821.91 L 972.08 807.56 L 974.93 814.28 L 977.79 832.44 L 980.65 831.73 L 983.50 827.46 L 986.36 785.91 L 989.22 826.59 L 992.07 831.89 L 994.93 619.25 L 997.78 816.65 L 1000.64 830.13 L 1003.50 736.19 L 1006.35 763.41 L 1009.21 803.01 L 1012.07 799.52 L 1014.92 774.65 L 1017.78 817.39 L 1020.64 834.83 L 1023.49 771.03 L 1026.35 795.83 L 1029.21 789.70 L 1032.06 824.03 L 1034.92 758.13 L 1037.78 801.41 L 1040.63 776.94 L 1043.49 798.81 L 1046.34 797.60 L 1049.20 745.61 L 1052.06 795.67 L 1054.91 803.99 L 1057.77 824.68 L 1060.63 822.23 L 1063.48 836.08 L 1066.34 815.47 L 1069.20 764.85 L 1072.05 830.47 L 1074.91 737.99 L 1077.77 833.54 L 1080.62 774.76 L 1083.48 728.36 L 1086.33 837.09 L 1089.19 823.12 L 1092.05 776.67 L 1094.90 803.53 L 1097.76 828.76 L 1100.62 763.49 L 1103.47 837.01 L 1106.33 801.79 L 1109.19 757.95 L 1112.04 797.34 L 1114.90 827.13 L 1117.76 825.88 L 1120.61 804.94 L 1123.47 824.58 L 1126.33 779.76 L 1129.18 772.99 L 1132.04 807.57 L 1134.89 816.61 L 1137.75 779.22 L 1140.61 775.41 L 1143.46 830.15 L 1146.32 785.61 L 1149.18 834.96 L 1152.03 833.53 L 1154.89 825.48 L 1157.75 808.74 L 1160.60 834.14 L 1163.46 824.83 L 1166.32 783.60 L 1169.17 791.89 L 1172.03 789.86 L 1174.89 771.84 L 1177.74 812.38 L 1180.60 804.32 L 1183.45 732.38 L 1186.31 817.15 L 1189.17 827.55 L 1192.02 823.95 L 1194.88 822.48 L 1197.74 791.49 L 1200.59 816.52 L 1203.45 787.65 L 1206.31 829.53 L 1209.16 821.13 L 1212.02 839.54 L 1214.88 793.67 L 1217.73 816.81 L 1220.59 812.49 L 1223.44 777.76 L 1226.30 717.71 L 1229.16 756.37 L 1232.01 826.07 L 1234.87 828.72 L 1237.73 729.20 L 1240.58 774.55 L 1243.44 808.43 L 1246.30 831.45 L 1249.15 784.97 L 1252.01 808.60 L 1254.87 784.78 L 1257.72 812.20 L 1260.58 823.76 L 1263.44 797.12 L 1266.29 780.20 L 1269.15 702.82 L 1272.00 713.88 L 1274.86 823.34 L 1277.72 591.14 L 1280.57 708.25 L 1283.43 828.90 L 1286.29 814.88 L 1289.14 792.58 L 1292.00 837.93" fill="none" stroke="#1d4ed8" stroke-width="2"  />
  </g>
</svg>