<?xml version="1.0" encoding="UTF-8"?>
<svg xmlns="http://www.w3.org/2000/svg" width="1360" height="980" viewBox="0 0 1360 980">
  <defs>
    <linearGradient id="bg" x1="0" y1="0" x2="1" y2="1">
      <stop offset="0%" stop-color="#f4efe6" />
      <stop offset="100%" stop-color="#eef5f2" />
    </linearGradient>
  </defs>
  <rect x="0" y="0" width="1360" height="980" fill="url(#bg)" />
  <text x="46" y="36" fill="#1f2937" font-size="31" font-weight="700">华泰柏瑞南方东英新交所泛东南亚科技ETF(QDII)(513730)（513730）离线研究图（持仓逐日估值版）</text>
  <text x="46" y="66" fill="#5b6b68" font-size="13">历史前十大持仓 + 持仓逐日涨跌幅 + USDCNY；双目标 lambda=0.10；披露期数 8；覆盖率均值 80.8%</text>
  <g>
    <text x="54" y="110" fill="#1f2937" font-size="16" font-weight="700">A. 净值拟合（同日对齐，无平移）</text>
    <line x1="98" y1="130" x2="124" y2="130" stroke="#0f766e" stroke-width="2"  />
      <text x="130" y="134" fill="#24312e" font-size="12">真实净值</text>
<line x1="313" y1="130" x2="339" y2="130" stroke="#1d4ed8" stroke-width="2"  />
      <text x="345" y="134" fill="#24312e" font-size="12">持仓分段估值</text>
    <line x1="98" y1="132.00" x2="1292" y2="132.00" stroke="#d7e3df" stroke-width="1" />
      <text x="90" y="136.00" text-anchor="end" fill="#5b6b68" font-size="11">1.471</text>
<line x1="98" y1="209.50" x2="1292" y2="209.50" stroke="#d7e3df" stroke-width="1" />
      <text x="90" y="213.50" text-anchor="end" fill="#5b6b68" font-size="11">1.348</text>
<line x1="98" y1="287.00" x2="1292" y2="287.00" stroke="#d7e3df" stroke-width="1" />
      <text x="90" y="291.00" text-anchor="end" fill="#5b6b68" font-size="11">1.225</text>
<line x1="98" y1="364.50" x2="1292" y2="364.50" stroke="#d7e3df" stroke-width="1" />
      <text x="90" y="368.50" text-anchor="end" fill="#5b6b68" font-size="11">1.102</text>
<line x1="98" y1="442.00" x2="1292" y2="442.00" stroke="#d7e3df" stroke-width="1" />
      <text x="90" y="446.00" text-anchor="end" fill="#5b6b68" font-size="11">0.979</text>
    <line x1="98.00" y1="132" x2="98.00" y2="442" stroke="#eef3f1" stroke-width="1" />
      <text x="98.00" y="470" text-anchor="middle" fill="#5b6b68" font-size="11">25-01-02</text>
<line x1="290.04" y1="132" x2="290.04" y2="442" stroke="#eef3f1" stroke-width="1" />
      <text x="290.04" y="470" text-anchor="middle" fill="#5b6b68" font-size="11">25-03-17</text>
<line x1="482.08" y1="132" x2="482.08" y2="442" stroke="#eef3f1" stroke-width="1" />
      <text x="482.08" y="470" text-anchor="middle" fill="#5b6b68" font-size="11">25-05-26</text>
<line x1="695.00" y1="132" x2="695.00" y2="442" stroke="#eef3f1" stroke-width="1" />
      <text x="695.00" y="470" text-anchor="middle" fill="#5b6b68" font-size="11">25-08-06</text>
<line x1="907.92" y1="132" x2="907.92" y2="442" stroke="#eef3f1" stroke-width="1" />
      <text x="907.92" y="470" text-anchor="middle" fill="#5b6b68" font-size="11">25-10-24</text>
<line x1="1099.96" y1="132" x2="1099.96" y2="442" stroke="#eef3f1" stroke-width="1" />
      <text x="1099.96" y="470" text-anchor="middle" fill="#5b6b68" font-size="11">25-12-29</text>
<line x1="1292.00" y1="132" x2="1292.00" y2="442" stroke="#eef3f1" stroke-width="1" />
      <text x="1292.00" y="470" text-anchor="middle" fill="#5b6b68" font-size="11">26-03-13</text>
    <line x1="1112.48" y1="132" x2="1112.48" y2="442" stroke="#f59e0b" stroke-width="1.4" stroke-dasharray="4 4" />
       <text x="1118.48" y="124" fill="#a16207" font-size="11">验证起点</text>
    <path d="M 98.00 227.13 L 102.17 227.06 L 106.35 226.56 L 110.52 223.72 L 114.70 226.88 L 118.87 227.00 L 123.05 235.20 L 127.22 251.71 L 131.40 256.31 L 135.57 254.23 L 139.75 263.24 L 143.92 255.05 L 148.10 255.11 L 152.27 240.87 L 156.45 232.55 L 160.62 234.19 L 164.80 230.78 L 168.97 249.19 L 173.15 257.13 L 177.32 264.25 L 181.50 254.10 L 185.67 260.15 L 189.85 250.57 L 194.02 250.64 L 198.20 241.94 L 202.37 242.95 L 206.55 243.01 L 210.72 250.70 L 214.90 257.82 L 219.07 266.77 L 223.24 278.24 L 227.42 283.10 L 231.59 303.96 L 235.77 288.77 L 239.94 295.13 L 244.12 319.08 L 248.29 323.81 L 252.47 326.84 L 256.64 298.41 L 260.82 305.53 L 264.99 309.57 L 269.17 336.23 L 273.34 342.15 L 277.52 350.41 L 281.69 353.50 L 285.87 349.84 L 290.04 348.45 L 294.22 348.01 L 298.39 343.41 L 302.57 349.40 L 306.74 344.04 L 310.92 345.56 L 315.09 345.30 L 319.27 333.33 L 323.44 324.50 L 327.62 339.76 L 331.79 339.44 L 335.97 339.63 L 340.14 338.62 L 344.31 368.37 L 348.49 397.11 L 352.66 438.90 L 356.84 419.67 L 361.01 401.15 L 365.19 396.17 L 369.36 395.98 L 373.54 396.10 L 377.71 391.00 L 381.89 388.98 L 386.06 389.17 L 390.24 388.04 L 394.41 381.61 L 398.59 364.84 L 402.76 357.53 L 406.94 338.24 L 411.11 341.08 L 415.29 329.92 L 419.46 318.52 L 423.64 306.16 L 427.81 298.54 L 431.99 303.33 L 436.16 306.86 L 440.34 307.23 L 444.51 282.02 L 448.69 268.66 L 452.86 276.79 L 457.03 277.42 L 461.21 287.44 L 465.38 292.68 L 469.56 296.46 L 473.73 296.46 L 477.91 290.22 L 482.08 291.16 L 486.26 297.84 L 490.43 302.63 L 494.61 300.11 L 498.78 306.10 L 502.96 307.05 L 507.13 316.37 L 511.31 308.12 L 515.48 307.23 L 519.66 305.66 L 523.83 306.79 L 528.01 302.89 L 532.18 309.69 L 536.36 317.57 L 540.53 311.27 L 544.71 311.96 L 548.88 319.40 L 553.06 319.71 L 557.23 339.88 L 561.41 343.41 L 565.58 322.99 L 569.76 320.03 L 573.93 318.52 L 578.10 318.45 L 582.28 316.94 L 586.45 312.84 L 590.63 311.27 L 594.80 300.68 L 598.98 300.62 L 603.15 299.73 L 607.33 305.53 L 611.50 305.22 L 615.68 305.60 L 619.85 310.39 L 624.03 306.92 L 628.20 299.29 L 632.38 292.55 L 636.55 269.17 L 640.73 266.02 L 644.90 272.44 L 649.08 275.15 L 653.25 258.77 L 657.43 266.08 L 661.60 268.10 L 665.78 267.53 L 669.95 266.20 L 674.13 260.72 L 678.30 268.98 L 682.48 279.19 L 686.65 267.84 L 690.83 265.26 L 695.00 272.19 L 699.17 267.72 L 703.35 272.07 L 707.52 271.88 L 711.70 271.75 L 715.87 226.25 L 720.05 231.98 L 724.22 233.30 L 728.40 236.96 L 732.57 227.76 L 736.75 226.56 L 740.92 226.75 L 745.10 210.74 L 749.27 200.53 L 753.45 210.61 L 757.62 213.01 L 761.80 213.58 L 765.97 219.50 L 770.15 219.00 L 774.32 224.17 L 778.50 217.23 L 782.67 214.84 L 786.85 214.71 L 791.02 211.69 L 795.20 204.75 L 799.37 202.86 L 803.55 191.96 L 807.72 177.97 L 811.90 176.90 L 816.07 171.16 L 820.24 169.33 L 824.42 163.66 L 828.59 167.50 L 832.77 165.80 L 836.94 169.96 L 841.12 176.58 L 845.29 181.81 L 849.47 186.41 L 853.64 187.42 L 857.82 196.50 L 861.99 143.05 L 866.17 171.85 L 870.34 172.42 L 874.52 174.06 L 878.69 178.09 L 882.87 181.31 L 887.04 196.37 L 891.22 196.12 L 895.39 169.14 L 899.57 171.03 L 903.74 171.54 L 907.92 157.23 L 912.09 139.52 L 916.27 147.65 L 920.44 142.23 L 924.62 149.48 L 928.79 152.44 L 932.97 147.40 L 937.14 160.13 L 941.31 159.18 L 945.49 155.59 L 949.66 158.24 L 953.84 141.85 L 958.01 149.16 L 962.19 154.71 L 966.36 163.72 L 970.54 175.70 L 974.71 173.24 L 978.89 179.54 L 983.06 174.06 L 987.24 183.51 L 991.41 186.98 L 995.59 175.13 L 999.76 170.03 L 1003.94 169.40 L 1008.11 169.65 L 1012.29 169.33 L 1016.46 168.83 L 1020.64 163.72 L 1024.81 163.79 L 1028.99 159.06 L 1033.16 158.87 L 1037.34 163.79 L 1041.51 159.88 L 1045.69 160.19 L 1049.86 169.96 L 1054.03 174.63 L 1058.21 176.64 L 1062.38 184.52 L 1066.56 194.92 L 1070.73 196.37 L 1074.91 181.12 L 1079.08 172.04 L 1083.26 176.52 L 1087.43 177.21 L 1091.61 178.22 L 1095.78 174.25 L 1099.96 172.17 L 1104.13 170.72 L 1108.31 171.47 L 1112.48 153.58 L 1116.66 143.62 L 1120.83 144.00 L 1125.01 164.48 L 1129.18 169.84 L 1133.36 169.14 L 1137.53 171.35 L 1141.71 160.38 L 1145.88 165.87 L 1150.06 165.74 L 1154.23 166.12 L 1158.41 176.96 L 1162.58 181.56 L 1166.76 173.87 L 1170.93 170.40 L 1175.10 169.40 L 1179.28 157.86 L 1183.45 177.40 L 1187.63 182.38 L 1191.80 194.42 L 1195.98 207.27 L 1200.15 215.28 L 1204.33 230.97 L 1208.50 240.99 L 1212.68 249.25 L 1216.85 237.91 L 1221.03 228.07 L 1225.20 231.85 L 1229.38 244.40 L 1233.55 253.98 L 1237.73 242.57 L 1241.90 227.76 L 1246.08 214.46 L 1250.25 220.01 L 1254.43 255.62 L 1258.60 257.32 L 1262.78 298.79 L 1266.95 282.59 L 1271.13 290.03 L 1275.30 311.84 L 1279.48 293.62 L 1283.65 297.40 L 1287.83 308.50 L 1292.00 320.34" fill="none" stroke="#0f766e" stroke-width="2"  />
<path d="M 98.00 222.31 L 102.17 220.76 L 106.35 219.50 L 110.52 230.40 L 114.70 226.24 L 118.87 228.02 L 123.05 227.90 L 127.22 240.49 L 131.40 251.96 L 135.57 253.23 L 139.75 253.94 L 143.92 262.56 L 148.10 257.79 L 152.27 256.67 L 156.45 237.83 L 160.62 230.91 L 164.80 235.43 L 168.97 250.92 L 173.15 238.06 L 177.32 257.26 L 181.50 267.95 L 185.67 251.53 L 189.85 261.11 L 194.02 248.39 L 198.20 247.06 L 202.37 240.49 L 206.55 247.40 L 210.72 243.14 L 214.90 250.30 L 219.07 258.56 L 223.24 271.12 L 227.42 285.65 L 231.59 284.61 L 235.77 305.34 L 239.94 291.86 L 244.12 296.86 L 248.29 327.64 L 252.47 323.62 L 256.64 323.34 L 260.82 299.81 L 264.99 304.01 L 269.17 324.44 L 273.34 340.65 L 277.52 339.26 L 281.69 354.79 L 285.87 350.17 L 290.04 348.03 L 294.22 351.23 L 298.39 347.09 L 302.57 344.28 L 306.74 350.77 L 310.92 346.49 L 315.09 345.86 L 319.27 348.34 L 323.44 332.47 L 327.62 327.37 L 331.79 346.39 L 335.97 337.37 L 340.14 339.40 L 344.31 347.30 L 348.49 420.47 L 352.66 402.96 L 356.84 429.83 L 361.01 422.84 L 365.19 393.31 L 369.36 397.51 L 373.54 395.46 L 377.71 399.25 L 381.89 389.31 L 386.06 389.47 L 390.24 393.95 L 394.41 385.11 L 398.59 378.01 L 402.76 357.96 L 406.94 356.42 L 411.11 336.10 L 415.29 340.86 L 419.46 326.96 L 423.64 299.28 L 427.81 305.36 L 431.99 297.37 L 436.16 301.17 L 440.34 302.50 L 444.51 305.67 L 448.69 275.99 L 452.86 264.58 L 457.03 277.51 L 461.21 281.47 L 465.38 289.33 L 469.56 293.24 L 473.73 298.12 L 477.91 296.02 L 482.08 294.13 L 486.26 291.19 L 490.43 305.27 L 494.61 307.75 L 498.78 302.81 L 502.96 304.29 L 507.13 307.23 L 511.31 322.91 L 515.48 305.12 L 519.66 307.52 L 523.83 302.17 L 528.01 305.84 L 532.18 299.85 L 536.36 314.91 L 540.53 317.13 L 544.71 313.82 L 548.88 309.78 L 553.06 321.05 L 557.23 320.43 L 561.41 343.07 L 565.58 343.80 L 569.76 319.25 L 573.93 318.20 L 578.10 319.31 L 582.28 320.27 L 586.45 317.19 L 590.63 309.72 L 594.80 309.60 L 598.98 299.39 L 603.15 299.60 L 607.33 299.10 L 611.50 305.41 L 615.68 303.40 L 619.85 306.73 L 624.03 312.25 L 628.20 305.52 L 632.38 296.87 L 636.55 290.15 L 640.73 266.24 L 644.90 265.83 L 649.08 275.20 L 653.25 272.08 L 657.43 257.08 L 661.60 266.94 L 665.78 269.73 L 669.95 268.54 L 674.13 266.03 L 678.30 262.46 L 682.48 266.02 L 686.65 281.79 L 690.83 265.58 L 695.00 263.47 L 699.17 270.35 L 703.35 266.26 L 707.52 271.78 L 711.70 265.89 L 715.87 269.80 L 720.05 221.58 L 724.22 233.49 L 728.40 230.27 L 732.57 240.70 L 736.75 230.27 L 740.92 226.75 L 745.10 221.82 L 749.27 209.91 L 753.45 198.21 L 757.62 211.84 L 761.80 211.43 L 765.97 217.34 L 770.15 219.88 L 774.32 219.03 L 778.50 223.14 L 782.67 214.41 L 786.85 211.35 L 791.02 211.15 L 795.20 209.80 L 799.37 198.74 L 803.55 199.22 L 807.72 189.32 L 811.90 174.16 L 816.07 173.94 L 820.24 171.30 L 824.42 165.37 L 828.59 164.01 L 832.77 166.70 L 836.94 165.82 L 841.12 173.12 L 845.29 178.66 L 849.47 183.57 L 853.64 187.79 L 857.82 186.42 L 861.99 186.52 L 866.17 144.08 L 870.34 151.29 L 874.52 176.12 L 878.69 168.51 L 882.87 179.78 L 887.04 181.32 L 891.22 190.61 L 895.39 200.16 L 899.57 167.45 L 903.74 168.56 L 907.92 168.25 L 912.09 151.47 L 916.27 136.61 L 920.44 151.08 L 924.62 144.40 L 928.79 148.88 L 932.97 151.34 L 937.14 142.42 L 941.31 159.52 L 945.49 164.29 L 949.66 157.56 L 953.84 151.04 L 958.01 141.06 L 962.19 149.38 L 966.36 161.84 L 970.54 164.27 L 974.71 182.48 L 978.89 176.71 L 983.06 181.63 L 987.24 179.26 L 991.41 183.84 L 995.59 180.87 L 999.76 173.97 L 1003.94 166.33 L 1008.11 170.48 L 1012.29 171.01 L 1016.46 168.29 L 1020.64 166.76 L 1024.81 161.88 L 1028.99 165.44 L 1033.16 156.10 L 1037.34 157.05 L 1041.51 164.74 L 1045.69 157.16 L 1049.86 162.43 L 1054.03 176.72 L 1058.21 173.54 L 1062.38 178.86 L 1066.56 189.81 L 1070.73 193.65 L 1074.91 194.18 L 1079.08 176.05 L 1083.26 169.34 L 1087.43 178.77 L 1091.61 178.41 L 1095.78 179.42 L 1099.96 175.55 L 1104.13 172.14 L 1108.31 172.65 L 1112.48 154.91 L 1116.66 149.63 L 1120.83 143.66 L 1125.01 145.69 L 1129.18 164.31 L 1133.36 166.10 L 1137.53 171.06 L 1141.71 170.57 L 1145.88 156.70 L 1150.06 165.77 L 1154.23 165.10 L 1158.41 167.40 L 1162.58 180.35 L 1166.76 181.47 L 1170.93 170.59 L 1175.10 167.53 L 1179.28 169.60 L 1183.45 158.64 L 1187.63 182.02 L 1191.80 188.83 L 1195.98 192.38 L 1200.15 215.05 L 1204.33 215.97 L 1208.50 234.61 L 1212.68 237.19 L 1216.85 251.48 L 1221.03 234.52 L 1225.20 227.85 L 1229.38 235.47 L 1233.55 244.66 L 1237.73 249.56 L 1241.90 237.77 L 1246.08 232.08 L 1250.25 213.03 L 1254.43 219.92 L 1258.60 258.65 L 1262.78 255.98 L 1266.95 303.33 L 1271.13 283.35 L 1275.30 283.08 L 1279.48 317.11 L 1283.65 289.03 L 1287.83 296.10 L 1292.00 310.41" fill="none" stroke="#1d4ed8" stroke-width="2"  />
  </g>
  <g>
    <text x="54" y="538" fill="#1f2937" font-size="16" font-weight="700">B. 绝对误差（越低越好）</text>
    <line x1="98" y1="558" x2="124" y2="558" stroke="#1d4ed8" stroke-width="2"  />
      <text x="130" y="562" fill="#24312e" font-size="12">持仓分段误差</text>
    <line x1="98" y1="560.00" x2="1292" y2="560.00" stroke="#d7e3df" stroke-width="1" />
      <text x="90" y="564.00" text-anchor="end" fill="#5b6b68" font-size="11">6.49%</text>
<line x1="98" y1="630.00" x2="1292" y2="630.00" stroke="#d7e3df" stroke-width="1" />
      <text x="90" y="634.00" text-anchor="end" fill="#5b6b68" font-size="11">4.87%</text>
<line x1="98" y1="700.00" x2="1292" y2="700.00" stroke="#d7e3df" stroke-width="1" />
      <text x="90" y="704.00" text-anchor="end" fill="#5b6b68" font-size="11">3.24%</text>
<line x1="98" y1="770.00" x2="1292" y2="770.00" stroke="#d7e3df" stroke-width="1" />
      <text x="90" y="774.00" text-anchor="end" fill="#5b6b68" font-size="11">1.62%</text>
<line x1="98" y1="840.00" x2="1292" y2="840.00" stroke="#d7e3df" stroke-width="1" />
      <text x="90" y="844.00" text-anchor="end" fill="#5b6b68" font-size="11">0.00%</text>
    <line x1="98.00" y1="560" x2="98.00" y2="840" stroke="#eef3f1" stroke-width="1" />
      <text x="98.00" y="868" text-anchor="middle" fill="#5b6b68" font-size="11">25-01-02</text>
<line x1="290.04" y1="560" x2="290.04" y2="840" stroke="#eef3f1" stroke-width="1" />
      <text x="290.04" y="868" text-anchor="middle" fill="#5b6b68" font-size="11">25-03-17</text>
<line x1="482.08" y1="560" x2="482.08" y2="840" stroke="#eef3f1" stroke-width="1" />
      <text x="482.08" y="868" text-anchor="middle" fill="#5b6b68" font-size="11">25-05-26</text>
<line x1="695.00" y1="560" x2="695.00" y2="840" stroke="#eef3f1" stroke-width="1" />
      <text x="695.00" y="868" text-anchor="middle" fill="#5b6b68" font-size="11">25-08-06</text>
<line x1="907.92" y1="560" x2="907.92" y2="840" stroke="#eef3f1" stroke-width="1" />
      <text x="907.92" y="868" text-anchor="middle" fill="#5b6b68" font-size="11">25-10-24</text>
<line x1="1099.96" y1="560" x2="1099.96" y2="840" stroke="#eef3f1" stroke-width="1" />
      <text x="1099.96" y="868" text-anchor="middle" fill="#5b6b68" font-size="11">25-12-29</text>
<line x1="1292.00" y1="560" x2="1292.00" y2="840" stroke="#eef3f1" stroke-width="1" />
      <text x="1292.00" y="868" text-anchor="middle" fill="#5b6b68" font-size="11">26-03-13</text>
    <line x1="1112.48" y1="560" x2="1112.48" y2="840" stroke="#f59e0b" stroke-width="1.4" stroke-dasharray="4 4" />
       <text x="1118.48" y="552" fill="#a16207" font-size="11">验证起点</text>
    <path d="M 98.00 815.00 L 102.17 807.29 L 106.35 803.42 L 110.52 805.53 L 114.70 836.73 L 118.87 834.74 L 123.05 801.79 L 127.22 780.06 L 131.40 816.62 L 135.57 834.64 L 139.75 789.57 L 143.92 799.71 L 148.10 825.65 L 152.27 756.67 L 156.45 812.42 L 160.62 822.85 L 164.80 815.79 L 168.97 830.78 L 173.15 737.44 L 177.32 802.04 L 181.50 765.77 L 185.67 793.46 L 189.85 783.80 L 194.02 828.03 L 198.20 812.98 L 202.37 827.03 L 206.55 816.80 L 210.72 799.65 L 214.90 799.48 L 219.07 795.30 L 223.24 800.66 L 227.42 825.78 L 231.59 729.47 L 235.77 747.18 L 239.94 821.52 L 244.12 710.41 L 248.29 817.51 L 252.47 821.05 L 256.64 698.62 L 260.82 807.25 L 264.99 807.99 L 269.17 769.65 L 273.34 830.98 L 277.52 772.12 L 281.69 832.09 L 285.87 837.99 L 290.04 837.41 L 294.22 820.48 L 298.39 817.82 L 302.57 808.89 L 306.74 799.39 L 310.92 834.32 L 315.09 836.66 L 319.27 750.79 L 323.44 793.20 L 327.62 765.70 L 331.79 798.38 L 335.97 826.45 L 340.14 835.32 L 344.31 708.38 L 348.49 687.79 L 352.66 590.00 L 356.84 771.48 L 361.01 697.78 L 365.19 821.44 L 369.36 830.06 L 373.54 835.85 L 377.71 786.70 L 381.89 837.89 L 386.06 838.07 L 390.24 801.99 L 394.41 817.69 L 398.59 758.15 L 402.76 837.33 L 406.94 731.22 L 411.11 810.07 L 415.29 775.29 L 419.46 790.83 L 423.64 800.56 L 427.81 801.32 L 431.99 805.98 L 436.16 807.37 L 440.34 812.84 L 444.51 708.71 L 448.69 800.03 L 452.86 772.66 L 457.03 839.52 L 461.21 806.58 L 465.38 821.14 L 469.56 821.82 L 473.73 830.62 L 477.91 807.42 L 482.08 823.30 L 486.26 802.32 L 490.43 824.96 L 494.61 796.58 L 498.78 821.18 L 502.96 824.18 L 507.13 786.88 L 511.31 755.00 L 515.48 827.86 L 519.66 829.36 L 523.83 813.46 L 528.01 823.17 L 532.18 783.35 L 536.36 824.53 L 540.53 806.21 L 544.71 829.26 L 548.88 783.90 L 553.06 832.21 L 557.23 723.32 L 561.41 837.92 L 565.58 718.07 L 569.76 835.43 L 573.93 838.18 L 578.10 835.04 L 582.28 820.65 L 586.45 814.89 L 590.63 831.07 L 594.80 789.28 L 598.98 833.00 L 603.15 839.23 L 607.33 803.19 L 611.50 838.89 L 615.68 827.41 L 619.85 818.96 L 624.03 809.43 L 628.20 804.63 L 632.38 815.68 L 636.55 725.42 L 640.73 838.79 L 644.90 803.71 L 649.08 839.77 L 653.25 768.25 L 657.43 791.02 L 661.60 833.68 L 665.78 828.01 L 669.95 827.29 L 674.13 811.30 L 678.30 804.43 L 682.48 767.13 L 686.65 763.94 L 690.83 838.27 L 695.00 792.18 L 699.17 825.63 L 703.35 808.17 L 707.52 839.50 L 711.70 807.91 L 715.87 614.37 L 720.05 785.73 L 724.22 839.03 L 728.40 804.87 L 732.57 772.86 L 736.75 820.77 L 740.92 839.99 L 745.10 783.64 L 749.27 792.87 L 753.45 776.94 L 757.62 834.05 L 761.80 829.07 L 765.97 828.90 L 770.15 835.44 L 774.32 813.48 L 778.50 809.73 L 782.67 837.81 L 786.85 822.84 L 791.02 837.25 L 795.20 814.53 L 799.37 819.21 L 803.55 803.89 L 807.72 784.40 L 811.90 826.60 L 816.07 826.50 L 820.24 830.46 L 824.42 831.76 L 828.59 823.08 L 832.77 835.65 L 836.94 819.88 L 841.12 823.08 L 845.29 824.52 L 849.47 825.95 L 853.64 838.17 L 857.82 789.60 L 861.99 635.26 L 866.17 704.94 L 870.34 737.21 L 874.52 829.96 L 878.69 793.05 L 882.87 832.48 L 887.04 764.72 L 891.22 812.46 L 895.39 689.65 L 899.57 822.60 L 903.74 825.53 L 907.92 787.28 L 912.09 783.92 L 916.27 787.75 L 920.44 798.37 L 924.62 815.90 L 928.79 823.06 L 932.97 821.34 L 937.14 755.02 L 941.31 838.38 L 945.49 798.49 L 949.66 836.76 L 953.84 796.79 L 958.01 801.59 L 962.19 814.57 L 966.36 830.94 L 970.54 784.17 L 974.71 794.99 L 978.89 826.10 L 983.06 803.07 L 987.24 819.03 L 991.41 824.47 L 995.59 811.99 L 999.76 820.86 L 1003.94 825.15 L 1008.11 835.95 L 1012.29 831.85 L 1016.46 837.38 L 1020.64 825.35 L 1024.81 830.83 L 1028.99 809.43 L 1033.16 826.71 L 1037.34 807.53 L 1041.51 816.69 L 1045.69 825.44 L 1049.86 803.46 L 1054.03 829.79 L 1058.21 824.84 L 1062.38 812.10 L 1066.56 814.49 L 1070.73 826.39 L 1074.91 775.82 L 1079.08 820.52 L 1083.26 804.89 L 1087.43 832.37 L 1091.61 839.05 L 1095.78 814.79 L 1099.96 823.54 L 1104.13 833.09 L 1108.31 834.31 L 1112.48 833.64 L 1116.66 811.65 L 1120.83 838.43 L 1125.01 749.37 L 1129.18 813.18 L 1133.36 825.27 L 1137.53 838.58 L 1141.71 791.09 L 1145.88 795.71 L 1150.06 839.84 L 1154.23 835.10 L 1158.41 793.23 L 1162.58 834.08 L 1166.76 802.94 L 1170.93 839.08 L 1175.10 830.95 L 1179.28 783.81 L 1183.45 748.23 L 1187.63 838.21 L 1191.80 812.10 L 1195.98 764.59 L 1200.15 838.86 L 1204.33 761.85 L 1208.50 806.32 L 1212.68 775.73 L 1216.85 768.67 L 1221.03 806.52 L 1225.20 819.14 L 1229.38 792.74 L 1233.55 790.06 L 1237.73 803.04 L 1241.90 788.04 L 1246.08 750.01 L 1250.25 804.13 L 1254.43 648.32 L 1258.60 832.84 L 1262.78 597.10 L 1266.95 724.79 L 1271.13 802.52 L 1275.30 673.96 L 1279.48 707.61 L 1283.65 792.55 L 1287.83 768.74 L 1292.00 781.97" fill="none" stroke="#1d4ed8" stroke-width="2"  />
  </g>
</svg>