<?xml version="1.0" encoding="UTF-8"?>
<svg xmlns="http://www.w3.org/2000/svg" width="1360" height="980" viewBox="0 0 1360 980">
  <defs>
    <linearGradient id="bg" x1="0" y1="0" x2="1" y2="1">
      <stop offset="0%" stop-color="#f4efe6" />
      <stop offset="100%" stop-color="#eef5f2" />
    </linearGradient>
  </defs>
  <rect x="0" y="0" width="1360" height="980" fill="url(#bg)" />
  <text x="46" y="36" fill="#1f2937" font-size="31" font-weight="700">513730 离线研究图（持仓逐日估值版）</text>
  <text x="46" y="66" fill="#5b6b68" font-size="13">历史前十大持仓 + 持仓逐日涨跌幅 + USDCNY；双目标 lambda=0.10；披露期数 8；覆盖率均值 80.6%</text>
  <g>
    <text x="54" y="110" fill="#1f2937" font-size="16" font-weight="700">A. 净值拟合（同日对齐，无平移）</text>
    <line x1="98" y1="130" x2="124" y2="130" stroke="#0f766e" stroke-width="2"  />
      <text x="130" y="134" fill="#24312e" font-size="12">真实净值</text>
<line x1="313" y1="130" x2="339" y2="130" stroke="#1d4ed8" stroke-width="2"  />
      <text x="345" y="134" fill="#24312e" font-size="12">持仓分段估值</text>
    <line x1="98" y1="132.00" x2="1292" y2="132.00" stroke="#d7e3df" stroke-width="1" />
      <text x="90" y="136.00" text-anchor="end" fill="#5b6b68" font-size="11">1.467</text>
<line x1="98" y1="209.50" x2="1292" y2="209.50" stroke="#d7e3df" stroke-width="1" />
      <text x="90" y="213.50" text-anchor="end" fill="#5b6b68" font-size="11">1.345</text>
<line x1="98" y1="287.00" x2="1292" y2="287.00" stroke="#d7e3df" stroke-width="1" />
      <text x="90" y="291.00" text-anchor="end" fill="#5b6b68" font-size="11">1.223</text>
<line x1="98" y1="364.50" x2="1292" y2="364.50" stroke="#d7e3df" stroke-width="1" />
      <text x="90" y="368.50" text-anchor="end" fill="#5b6b68" font-size="11">1.101</text>
<line x1="98" y1="442.00" x2="1292" y2="442.00" stroke="#d7e3df" stroke-width="1" />
      <text x="90" y="446.00" text-anchor="end" fill="#5b6b68" font-size="11">0.979</text>
    <line x1="98.00" y1="132" x2="98.00" y2="442" stroke="#eef3f1" stroke-width="1" />
      <text x="98.00" y="470" text-anchor="middle" fill="#5b6b68" font-size="11">25-01-02</text>
<line x1="290.72" y1="132" x2="290.72" y2="442" stroke="#eef3f1" stroke-width="1" />
      <text x="290.72" y="470" text-anchor="middle" fill="#5b6b68" font-size="11">25-03-17</text>
<line x1="479.24" y1="132" x2="479.24" y2="442" stroke="#eef3f1" stroke-width="1" />
      <text x="479.24" y="470" text-anchor="middle" fill="#5b6b68" font-size="11">25-05-23</text>
<line x1="697.09" y1="132" x2="697.09" y2="442" stroke="#eef3f1" stroke-width="1" />
      <text x="697.09" y="470" text-anchor="middle" fill="#5b6b68" font-size="11">25-08-06</text>
<line x1="910.76" y1="132" x2="910.76" y2="442" stroke="#eef3f1" stroke-width="1" />
      <text x="910.76" y="470" text-anchor="middle" fill="#5b6b68" font-size="11">25-10-24</text>
<line x1="1099.28" y1="132" x2="1099.28" y2="442" stroke="#eef3f1" stroke-width="1" />
      <text x="1099.28" y="470" text-anchor="middle" fill="#5b6b68" font-size="11">25-12-26</text>
<line x1="1292.00" y1="132" x2="1292.00" y2="442" stroke="#eef3f1" stroke-width="1" />
      <text x="1292.00" y="470" text-anchor="middle" fill="#5b6b68" font-size="11">26-03-12</text>
    <line x1="1116.04" y1="132" x2="1116.04" y2="442" stroke="#f59e0b" stroke-width="1.4" stroke-dasharray="4 4" />
       <text x="1122.04" y="124" fill="#a16207" font-size="11">验证起点</text>
    <path d="M 98.00 225.27 L 102.19 225.20 L 106.38 224.70 L 110.57 221.83 L 114.76 225.01 L 118.95 225.14 L 123.14 233.40 L 127.33 250.06 L 131.52 254.70 L 135.71 252.60 L 139.89 261.69 L 144.08 253.43 L 148.27 253.49 L 152.46 239.13 L 156.65 230.73 L 160.84 232.39 L 165.03 228.95 L 169.22 247.52 L 173.41 255.53 L 177.60 262.71 L 181.79 252.48 L 185.98 258.58 L 190.17 248.92 L 194.36 248.98 L 198.55 240.21 L 202.74 241.22 L 206.93 241.29 L 211.12 249.04 L 215.31 256.23 L 219.49 265.25 L 223.68 276.82 L 227.87 281.72 L 232.06 302.76 L 236.25 287.44 L 240.44 293.86 L 244.63 318.02 L 248.82 322.79 L 253.01 325.84 L 257.20 297.17 L 261.39 304.35 L 265.58 308.42 L 269.77 335.31 L 273.96 341.29 L 278.15 349.62 L 282.34 352.73 L 286.53 349.04 L 290.72 347.64 L 294.91 347.20 L 299.09 342.56 L 303.28 348.60 L 307.47 343.19 L 311.66 344.72 L 315.85 344.47 L 320.04 332.39 L 324.23 323.49 L 328.42 338.87 L 332.61 338.55 L 336.80 338.74 L 340.99 337.73 L 345.18 367.73 L 349.37 396.72 L 353.56 438.87 L 357.75 419.48 L 361.94 400.79 L 366.13 395.77 L 370.32 395.58 L 374.51 395.71 L 378.69 390.56 L 382.88 388.52 L 387.07 388.71 L 391.26 387.57 L 395.45 381.08 L 399.64 364.17 L 403.83 356.80 L 408.02 337.35 L 412.21 340.21 L 416.40 328.95 L 420.59 317.45 L 424.78 304.99 L 428.97 297.30 L 433.16 302.13 L 437.35 305.69 L 441.54 306.07 L 445.73 280.64 L 449.92 267.16 L 454.11 275.36 L 458.29 276.00 L 462.48 286.11 L 466.67 291.38 L 470.86 295.20 L 475.05 295.20 L 479.24 288.90 L 483.43 289.86 L 487.62 296.60 L 491.81 301.43 L 496.00 298.88 L 500.19 304.92 L 504.38 305.88 L 508.57 315.29 L 512.76 306.96 L 516.95 306.07 L 521.14 304.48 L 525.33 305.62 L 529.52 301.68 L 533.71 308.55 L 537.89 316.49 L 542.08 310.14 L 546.27 310.84 L 550.46 318.34 L 554.65 318.66 L 558.84 339.00 L 563.03 342.56 L 567.22 321.96 L 571.41 318.97 L 575.60 317.45 L 579.79 317.38 L 583.98 315.86 L 588.17 311.73 L 592.36 310.14 L 596.55 299.46 L 600.74 299.39 L 604.93 298.50 L 609.12 304.35 L 613.31 304.03 L 617.49 304.42 L 621.68 309.25 L 625.87 305.75 L 630.06 298.06 L 634.25 291.26 L 638.44 267.67 L 642.63 264.49 L 646.82 270.98 L 651.01 273.71 L 655.20 257.18 L 659.39 264.56 L 663.58 266.59 L 667.77 266.02 L 671.96 264.68 L 676.15 259.15 L 680.34 267.48 L 684.53 277.78 L 688.72 266.34 L 692.91 263.73 L 697.09 270.72 L 701.28 266.21 L 705.47 270.59 L 709.66 270.40 L 713.85 270.28 L 718.04 224.38 L 722.23 230.16 L 726.42 231.50 L 730.61 235.18 L 734.80 225.90 L 738.99 224.70 L 743.18 224.89 L 747.37 208.74 L 751.56 198.44 L 755.75 208.61 L 759.94 211.03 L 764.13 211.60 L 768.32 217.58 L 772.51 217.07 L 776.69 222.28 L 780.88 215.29 L 785.07 212.87 L 789.26 212.74 L 793.45 209.69 L 797.64 202.70 L 801.83 200.79 L 806.02 189.79 L 810.21 175.68 L 814.40 174.60 L 818.59 168.81 L 822.78 166.97 L 826.97 161.25 L 831.16 165.13 L 835.35 163.41 L 839.54 167.61 L 843.73 174.28 L 847.92 179.56 L 852.11 184.20 L 856.29 185.22 L 860.48 194.37 L 864.67 140.46 L 868.86 169.51 L 873.05 170.09 L 877.24 171.74 L 881.43 175.81 L 885.62 179.05 L 889.81 194.24 L 894.00 193.99 L 898.19 166.78 L 902.38 168.69 L 906.57 169.20 L 910.76 154.77 L 914.95 136.90 L 919.14 145.10 L 923.33 139.64 L 927.52 146.95 L 931.71 149.93 L 935.89 144.85 L 940.08 157.69 L 944.27 156.74 L 948.46 153.11 L 952.65 155.78 L 956.84 139.25 L 961.03 146.63 L 965.22 152.22 L 969.41 161.31 L 973.60 173.39 L 977.79 170.91 L 981.98 177.27 L 986.17 171.74 L 990.36 181.28 L 994.55 184.77 L 998.74 172.82 L 1002.93 167.67 L 1007.12 167.03 L 1011.31 167.29 L 1015.49 166.97 L 1019.68 166.46 L 1023.87 161.31 L 1028.06 161.38 L 1032.25 156.61 L 1036.44 156.42 L 1040.63 161.38 L 1044.82 157.44 L 1049.01 157.75 L 1053.20 167.61 L 1057.39 172.31 L 1061.58 174.35 L 1065.77 182.29 L 1069.96 192.78 L 1074.15 194.24 L 1078.34 178.86 L 1082.53 169.70 L 1086.72 174.22 L 1090.91 174.92 L 1095.09 175.94 L 1099.28 171.93 L 1103.47 169.83 L 1107.66 168.37 L 1111.85 169.13 L 1116.04 151.08 L 1120.23 141.03 L 1124.42 141.42 L 1128.61 162.08 L 1132.80 167.48 L 1136.99 166.78 L 1141.18 169.01 L 1145.37 157.94 L 1149.56 163.47 L 1153.75 163.35 L 1157.94 163.73 L 1162.13 174.66 L 1166.32 179.30 L 1170.51 171.55 L 1174.69 168.05 L 1178.88 167.03 L 1183.07 155.40 L 1187.26 175.11 L 1191.45 180.13 L 1195.64 192.27 L 1199.83 205.24 L 1204.02 213.32 L 1208.21 229.15 L 1212.40 239.25 L 1216.59 247.58 L 1220.78 236.14 L 1224.97 226.22 L 1229.16 230.04 L 1233.35 242.69 L 1237.54 252.35 L 1241.73 240.84 L 1245.92 225.90 L 1250.11 212.49 L 1254.29 218.08 L 1258.48 254.00 L 1262.67 255.72 L 1266.86 297.55 L 1271.05 281.21 L 1275.24 288.71 L 1279.43 310.71 L 1283.62 292.34 L 1287.81 296.15 L 1292.00 307.34" fill="none" stroke="#0f766e" stroke-width="2"  />
<path d="M 98.00 219.08 L 102.19 217.62 L 106.38 215.66 L 110.57 229.10 L 114.76 223.67 L 118.95 225.71 L 123.14 226.06 L 127.33 239.28 L 131.52 247.94 L 135.71 251.06 L 139.89 252.79 L 144.08 259.87 L 148.27 255.51 L 152.46 255.30 L 156.65 238.28 L 160.84 230.28 L 165.03 233.43 L 169.22 248.44 L 173.41 239.54 L 177.60 254.38 L 181.79 265.64 L 185.98 247.71 L 190.17 258.55 L 194.36 248.03 L 198.55 245.21 L 202.74 239.92 L 206.93 246.32 L 211.12 241.25 L 215.31 247.40 L 219.49 255.91 L 223.68 268.70 L 227.87 286.16 L 232.06 282.68 L 236.25 301.42 L 240.44 293.49 L 244.63 296.63 L 248.82 330.02 L 253.01 322.21 L 257.20 322.08 L 261.39 303.69 L 265.58 301.80 L 269.77 326.14 L 273.96 336.01 L 278.15 337.68 L 282.34 353.32 L 286.53 349.20 L 290.72 344.16 L 294.91 351.17 L 299.09 346.52 L 303.28 344.37 L 307.47 349.43 L 311.66 344.05 L 315.85 344.88 L 320.04 347.77 L 324.23 333.34 L 328.42 327.81 L 332.61 347.86 L 336.80 336.53 L 340.99 338.44 L 345.18 346.47 L 349.37 422.02 L 353.56 400.12 L 357.75 424.68 L 361.94 426.20 L 366.13 396.05 L 370.32 396.70 L 374.51 395.20 L 378.69 399.09 L 382.88 389.66 L 387.07 389.29 L 391.26 392.85 L 395.45 384.86 L 399.64 378.46 L 403.83 359.76 L 408.02 356.53 L 412.21 333.80 L 416.40 339.14 L 420.59 327.22 L 424.78 299.65 L 428.97 305.62 L 433.16 296.70 L 437.35 298.75 L 441.54 301.26 L 445.73 304.04 L 449.92 277.92 L 454.11 264.43 L 458.29 274.30 L 462.48 280.09 L 466.67 286.10 L 470.86 290.81 L 475.05 296.13 L 479.24 294.49 L 483.43 292.19 L 487.62 289.46 L 491.81 301.21 L 496.00 304.17 L 500.19 302.15 L 504.38 302.56 L 508.57 304.52 L 512.76 318.91 L 516.95 305.17 L 521.14 306.12 L 525.33 303.24 L 529.52 304.46 L 533.71 299.20 L 537.89 313.21 L 542.08 317.37 L 546.27 314.05 L 550.46 308.59 L 554.65 319.01 L 558.84 319.47 L 563.03 343.75 L 567.22 340.77 L 571.41 321.50 L 575.60 317.66 L 579.79 318.62 L 583.98 317.61 L 588.17 316.42 L 592.36 309.23 L 596.55 308.71 L 600.74 299.71 L 604.93 298.85 L 609.12 296.02 L 613.31 303.38 L 617.49 302.29 L 621.68 305.66 L 625.87 310.91 L 630.06 304.96 L 634.25 296.81 L 638.44 289.83 L 642.63 268.22 L 646.82 262.59 L 651.01 272.69 L 655.20 270.00 L 659.39 257.79 L 663.58 264.07 L 667.77 268.78 L 671.96 266.00 L 676.15 264.56 L 680.34 261.80 L 684.53 266.86 L 688.72 279.50 L 692.91 265.72 L 697.09 262.23 L 701.28 267.85 L 705.47 265.40 L 709.66 271.55 L 713.85 264.52 L 718.04 268.42 L 722.23 226.88 L 726.42 230.54 L 730.61 230.00 L 734.80 238.37 L 738.99 228.21 L 743.18 224.76 L 747.37 219.77 L 751.56 206.52 L 755.75 197.25 L 759.94 208.05 L 764.13 208.88 L 768.32 215.46 L 772.51 218.60 L 776.69 217.05 L 780.88 220.42 L 785.07 213.42 L 789.26 209.67 L 793.45 209.24 L 797.64 208.20 L 801.83 197.65 L 806.02 197.37 L 810.21 188.67 L 814.40 169.92 L 818.59 171.66 L 822.78 169.70 L 826.97 163.02 L 831.16 162.67 L 835.35 163.43 L 839.54 163.51 L 843.73 170.23 L 847.92 175.38 L 852.11 180.58 L 856.29 184.67 L 860.48 184.08 L 864.67 183.27 L 868.86 150.73 L 873.05 152.99 L 877.24 174.07 L 881.43 166.20 L 885.62 174.23 L 889.81 178.83 L 894.00 189.01 L 898.19 198.67 L 902.38 168.23 L 906.57 166.02 L 910.76 165.96 L 914.95 144.81 L 919.14 136.64 L 923.33 144.69 L 927.52 142.82 L 931.71 145.32 L 935.89 145.75 L 940.08 145.30 L 944.27 155.36 L 948.46 162.43 L 952.65 155.79 L 956.84 145.54 L 961.03 141.06 L 965.22 145.80 L 969.41 156.84 L 973.60 160.68 L 977.79 181.25 L 981.98 175.18 L 986.17 178.67 L 990.36 176.23 L 994.55 180.44 L 998.74 178.07 L 1002.93 173.68 L 1007.12 164.99 L 1011.31 168.34 L 1015.49 168.72 L 1019.68 165.73 L 1023.87 164.62 L 1028.06 160.31 L 1032.25 163.10 L 1036.44 154.38 L 1040.63 153.88 L 1044.82 161.55 L 1049.01 155.30 L 1053.20 160.00 L 1057.39 171.53 L 1061.58 172.00 L 1065.77 178.39 L 1069.96 186.40 L 1074.15 190.39 L 1078.34 195.22 L 1082.53 170.92 L 1086.72 168.41 L 1090.91 173.05 L 1095.09 176.05 L 1099.28 177.04 L 1103.47 169.55 L 1107.66 170.08 L 1111.85 170.53 L 1116.04 146.43 L 1120.23 148.31 L 1124.42 142.50 L 1128.61 142.94 L 1132.80 159.05 L 1136.99 165.31 L 1141.18 168.98 L 1145.37 168.04 L 1149.56 155.99 L 1153.75 162.63 L 1157.94 162.83 L 1162.13 165.00 L 1166.32 172.22 L 1170.51 178.79 L 1174.69 169.65 L 1178.88 166.33 L 1183.07 165.33 L 1187.26 155.61 L 1191.45 177.14 L 1195.64 186.41 L 1199.83 193.78 L 1204.02 209.09 L 1208.21 216.86 L 1212.40 230.86 L 1216.59 234.36 L 1220.78 250.61 L 1224.97 237.07 L 1229.16 225.11 L 1233.35 233.59 L 1237.54 241.56 L 1241.73 244.89 L 1245.92 238.37 L 1250.11 231.03 L 1254.29 213.18 L 1258.48 220.76 L 1262.67 257.84 L 1266.86 254.23 L 1271.05 300.02 L 1275.24 283.88 L 1279.43 279.71 L 1283.62 314.65 L 1287.81 290.61 L 1292.00 298.28" fill="none" stroke="#1d4ed8" stroke-width="2"  />
  </g>
  <g>
    <text x="54" y="538" fill="#1f2937" font-size="16" font-weight="700">B. 绝对误差（越低越好）</text>
    <line x1="98" y1="558" x2="124" y2="558" stroke="#1d4ed8" stroke-width="2"  />
      <text x="130" y="562" fill="#24312e" font-size="12">持仓分段误差</text>
    <line x1="98" y1="560.00" x2="1292" y2="560.00" stroke="#d7e3df" stroke-width="1" />
      <text x="90" y="564.00" text-anchor="end" fill="#5b6b68" font-size="11">6.94%</text>
<line x1="98" y1="630.00" x2="1292" y2="630.00" stroke="#d7e3df" stroke-width="1" />
      <text x="90" y="634.00" text-anchor="end" fill="#5b6b68" font-size="11">5.20%</text>
<line x1="98" y1="700.00" x2="1292" y2="700.00" stroke="#d7e3df" stroke-width="1" />
      <text x="90" y="704.00" text-anchor="end" fill="#5b6b68" font-size="11">3.47%</text>
<line x1="98" y1="770.00" x2="1292" y2="770.00" stroke="#d7e3df" stroke-width="1" />
      <text x="90" y="774.00" text-anchor="end" fill="#5b6b68" font-size="11">1.73%</text>
<line x1="98" y1="840.00" x2="1292" y2="840.00" stroke="#d7e3df" stroke-width="1" />
      <text x="90" y="844.00" text-anchor="end" fill="#5b6b68" font-size="11">0.00%</text>
    <line x1="98.00" y1="560" x2="98.00" y2="840" stroke="#eef3f1" stroke-width="1" />
      <text x="98.00" y="868" text-anchor="middle" fill="#5b6b68" font-size="11">25-01-02</text>
<line x1="290.72" y1="560" x2="290.72" y2="840" stroke="#eef3f1" stroke-width="1" />
      <text x="290.72" y="868" text-anchor="middle" fill="#5b6b68" font-size="11">25-03-17</text>
<line x1="479.24" y1="560" x2="479.24" y2="840" stroke="#eef3f1" stroke-width="1" />
      <text x="479.24" y="868" text-anchor="middle" fill="#5b6b68" font-size="11">25-05-23</text>
<line x1="697.09" y1="560" x2="697.09" y2="840" stroke="#eef3f1" stroke-width="1" />
      <text x="697.09" y="868" text-anchor="middle" fill="#5b6b68" font-size="11">25-08-06</text>
<line x1="910.76" y1="560" x2="910.76" y2="840" stroke="#eef3f1" stroke-width="1" />
      <text x="910.76" y="868" text-anchor="middle" fill="#5b6b68" font-size="11">25-10-24</text>
<line x1="1099.28" y1="560" x2="1099.28" y2="840" stroke="#eef3f1" stroke-width="1" />
      <text x="1099.28" y="868" text-anchor="middle" fill="#5b6b68" font-size="11">25-12-26</text>
<line x1="1292.00" y1="560" x2="1292.00" y2="840" stroke="#eef3f1" stroke-width="1" />
      <text x="1292.00" y="868" text-anchor="middle" fill="#5b6b68" font-size="11">26-03-12</text>
    <line x1="1116.04" y1="560" x2="1116.04" y2="840" stroke="#f59e0b" stroke-width="1.4" stroke-dasharray="4 4" />
       <text x="1122.04" y="552" fill="#a16207" font-size="11">验证起点</text>
    <path d="M 98.00 810.26 L 102.19 803.54 L 106.38 796.58 L 110.57 805.19 L 114.76 833.52 L 118.95 837.25 L 123.14 804.35 L 127.33 786.55 L 131.52 806.31 L 135.71 832.32 L 139.89 795.24 L 144.08 807.94 L 148.27 829.96 L 152.46 760.92 L 156.65 803.49 L 160.84 829.77 L 165.03 818.36 L 169.22 835.42 L 173.41 760.25 L 177.60 798.05 L 181.79 774.56 L 185.98 785.56 L 190.17 792.33 L 194.36 835.27 L 198.55 815.50 L 202.74 833.59 L 206.93 815.33 L 211.12 801.41 L 215.31 795.92 L 219.49 792.83 L 223.68 798.35 L 227.87 817.11 L 232.06 733.61 L 236.25 767.38 L 240.44 838.07 L 244.63 724.34 L 248.82 800.66 L 253.01 820.15 L 257.20 708.94 L 261.39 836.48 L 265.58 804.68 L 269.77 789.21 L 273.96 810.53 L 278.15 772.63 L 282.34 836.67 L 286.53 839.11 L 290.72 820.37 L 294.91 817.68 L 299.09 817.86 L 303.28 816.16 L 307.47 805.11 L 311.66 836.24 L 315.85 837.68 L 320.04 755.22 L 324.23 786.33 L 328.42 778.48 L 332.61 788.26 L 336.80 827.69 L 340.99 836.04 L 345.18 716.81 L 349.37 687.09 L 353.56 590.00 L 357.75 807.45 L 361.94 685.46 L 366.13 838.28 L 370.32 833.26 L 374.51 836.96 L 378.69 788.92 L 382.88 833.19 L 387.07 836.57 L 391.26 808.50 L 395.45 817.72 L 399.64 757.67 L 403.83 823.12 L 408.02 733.51 L 412.21 804.27 L 416.40 784.09 L 420.59 787.21 L 424.78 811.65 L 428.97 796.19 L 433.16 811.26 L 437.35 803.11 L 441.54 814.42 L 445.73 719.52 L 449.92 785.55 L 454.11 784.08 L 458.29 831.33 L 462.48 808.80 L 466.67 812.41 L 470.86 816.98 L 475.05 835.11 L 479.24 810.94 L 483.43 827.87 L 487.62 802.50 L 491.81 838.83 L 496.00 812.12 L 500.19 825.28 L 504.38 822.33 L 508.57 782.01 L 512.76 776.34 L 516.95 835.24 L 521.14 831.27 L 525.33 827.33 L 529.52 825.30 L 533.71 790.09 L 537.89 822.29 L 542.08 801.32 L 546.27 822.77 L 550.46 787.30 L 554.65 838.10 L 558.84 731.35 L 563.03 833.36 L 567.22 737.78 L 571.41 826.34 L 575.60 838.83 L 579.79 833.31 L 583.98 830.54 L 588.17 814.81 L 592.36 835.13 L 596.55 791.18 L 600.74 838.34 L 604.93 838.16 L 609.12 795.77 L 613.31 836.54 L 617.49 828.74 L 621.68 820.81 L 625.87 812.57 L 630.06 803.65 L 634.25 811.00 L 638.44 727.74 L 642.63 821.21 L 646.82 797.35 L 651.01 834.78 L 655.20 775.91 L 659.39 805.89 L 663.58 827.24 L 667.77 826.02 L 671.96 833.33 L 676.15 812.92 L 680.34 811.22 L 684.53 783.96 L 688.72 773.43 L 692.91 829.96 L 697.09 796.82 L 701.28 831.68 L 705.47 813.60 L 709.66 834.19 L 713.85 810.75 L 718.04 628.39 L 722.23 824.13 L 726.42 835.37 L 730.61 814.78 L 734.80 780.01 L 738.99 823.10 L 743.18 839.38 L 747.37 787.97 L 751.56 802.35 L 755.75 786.42 L 759.94 825.93 L 764.13 827.11 L 768.32 829.91 L 772.51 832.71 L 776.69 814.93 L 780.88 815.61 L 785.07 837.38 L 789.26 825.42 L 793.45 837.85 L 797.64 814.26 L 801.83 825.33 L 806.02 805.06 L 810.21 781.02 L 814.40 818.75 L 818.59 827.19 L 822.78 827.71 L 826.97 832.09 L 831.16 828.97 L 835.35 839.91 L 839.54 821.56 L 843.73 821.63 L 847.92 820.96 L 852.11 823.40 L 856.29 837.51 L 860.48 792.27 L 864.67 653.00 L 868.86 755.27 L 873.05 762.86 L 877.24 829.46 L 881.43 796.36 L 885.62 818.04 L 889.81 768.53 L 894.00 816.90 L 898.19 696.63 L 902.38 837.92 L 906.57 825.67 L 910.76 790.33 L 914.95 805.60 L 919.14 802.85 L 923.33 817.93 L 927.52 821.84 L 931.71 819.63 L 935.89 836.03 L 940.08 784.86 L 944.27 833.87 L 948.46 798.74 L 952.65 839.96 L 956.84 812.56 L 961.03 815.52 L 965.22 811.59 L 969.41 820.00 L 973.60 782.43 L 977.79 793.29 L 981.98 830.50 L 986.17 808.67 L 990.36 816.93 L 994.55 820.11 L 998.74 816.24 L 1002.93 812.96 L 1007.12 830.79 L 1011.31 835.28 L 1015.49 832.13 L 1019.68 836.72 L 1023.87 825.24 L 1028.06 835.22 L 1032.25 811.14 L 1036.44 830.95 L 1040.63 806.48 L 1044.82 821.70 L 1049.01 829.09 L 1053.20 805.78 L 1057.39 836.45 L 1061.58 829.35 L 1065.77 822.14 L 1069.96 810.43 L 1074.15 822.15 L 1078.34 765.44 L 1082.53 834.51 L 1086.72 813.65 L 1090.91 831.52 L 1095.09 839.50 L 1099.28 816.88 L 1103.47 838.73 L 1107.66 832.29 L 1111.85 833.72 L 1116.04 819.48 L 1120.23 808.21 L 1124.42 835.28 L 1128.61 754.42 L 1132.80 802.06 L 1136.99 833.39 L 1141.18 839.87 L 1145.37 795.04 L 1149.56 806.48 L 1153.75 836.80 L 1157.94 835.98 L 1162.13 796.15 L 1166.32 807.70 L 1170.51 807.27 L 1174.69 832.82 L 1178.88 836.83 L 1183.07 795.90 L 1187.26 751.51 L 1191.45 826.34 L 1195.64 812.88 L 1199.83 786.16 L 1204.02 819.98 L 1208.21 780.63 L 1212.40 798.94 L 1216.59 774.70 L 1220.78 769.48 L 1224.97 787.77 L 1229.16 816.16 L 1233.35 795.32 L 1237.54 786.39 L 1241.73 820.15 L 1245.92 780.00 L 1250.11 752.18 L 1254.29 816.63 L 1258.48 674.48 L 1262.67 829.44 L 1266.86 612.04 L 1271.05 743.09 L 1275.24 814.88 L 1279.43 674.04 L 1283.62 723.39 L 1287.81 810.88 L 1292.00 791.73" fill="none" stroke="#1d4ed8" stroke-width="2"  />
  </g>
</svg>