<?xml version="1.0" encoding="UTF-8"?>
<svg xmlns="http://www.w3.org/2000/svg" width="1360" height="980" viewBox="0 0 1360 980">
  <defs>
    <linearGradient id="bg" x1="0" y1="0" x2="1" y2="1">
      <stop offset="0%" stop-color="#f4efe6" />
      <stop offset="100%" stop-color="#eef5f2" />
    </linearGradient>
  </defs>
  <rect x="0" y="0" width="1360" height="980" fill="url(#bg)" />
  <text x="46" y="36" fill="#1f2937" font-size="31" font-weight="700">513880 离线研究图（持仓逐日估值版）</text>
  <text x="46" y="66" fill="#5b6b68" font-size="13">历史前十大持仓 + 持仓逐日涨跌幅 + USDCNY；双目标 lambda=0.10；披露期数 20；覆盖率均值 92.3%</text>
  <g>
    <text x="54" y="110" fill="#1f2937" font-size="16" font-weight="700">A. 净值拟合（同日对齐，无平移）</text>
    <line x1="98" y1="130" x2="124" y2="130" stroke="#0f766e" stroke-width="2"  />
      <text x="130" y="134" fill="#24312e" font-size="12">真实净值</text>
<line x1="313" y1="130" x2="339" y2="130" stroke="#1d4ed8" stroke-width="2"  />
      <text x="345" y="134" fill="#24312e" font-size="12">持仓分段估值</text>
    <line x1="98" y1="132.00" x2="1292" y2="132.00" stroke="#d7e3df" stroke-width="1" />
      <text x="90" y="136.00" text-anchor="end" fill="#5b6b68" font-size="11">1.897</text>
<line x1="98" y1="209.50" x2="1292" y2="209.50" stroke="#d7e3df" stroke-width="1" />
      <text x="90" y="213.50" text-anchor="end" fill="#5b6b68" font-size="11">1.705</text>
<line x1="98" y1="287.00" x2="1292" y2="287.00" stroke="#d7e3df" stroke-width="1" />
      <text x="90" y="291.00" text-anchor="end" fill="#5b6b68" font-size="11">1.512</text>
<line x1="98" y1="364.50" x2="1292" y2="364.50" stroke="#d7e3df" stroke-width="1" />
      <text x="90" y="368.50" text-anchor="end" fill="#5b6b68" font-size="11">1.319</text>
<line x1="98" y1="442.00" x2="1292" y2="442.00" stroke="#d7e3df" stroke-width="1" />
      <text x="90" y="446.00" text-anchor="end" fill="#5b6b68" font-size="11">1.126</text>
    <line x1="98.00" y1="132" x2="98.00" y2="442" stroke="#eef3f1" stroke-width="1" />
      <text x="98.00" y="470" text-anchor="middle" fill="#5b6b68" font-size="11">25-01-02</text>
<line x1="289.37" y1="132" x2="289.37" y2="442" stroke="#eef3f1" stroke-width="1" />
      <text x="289.37" y="470" text-anchor="middle" fill="#5b6b68" font-size="11">25-03-17</text>
<line x1="480.75" y1="132" x2="480.75" y2="442" stroke="#eef3f1" stroke-width="1" />
      <text x="480.75" y="470" text-anchor="middle" fill="#5b6b68" font-size="11">25-05-26</text>
<line x1="697.08" y1="132" x2="697.08" y2="442" stroke="#eef3f1" stroke-width="1" />
      <text x="697.08" y="470" text-anchor="middle" fill="#5b6b68" font-size="11">25-08-07</text>
<line x1="909.25" y1="132" x2="909.25" y2="442" stroke="#eef3f1" stroke-width="1" />
      <text x="909.25" y="470" text-anchor="middle" fill="#5b6b68" font-size="11">25-10-27</text>
<line x1="1100.63" y1="132" x2="1100.63" y2="442" stroke="#eef3f1" stroke-width="1" />
      <text x="1100.63" y="470" text-anchor="middle" fill="#5b6b68" font-size="11">25-12-30</text>
<line x1="1292.00" y1="132" x2="1292.00" y2="442" stroke="#eef3f1" stroke-width="1" />
      <text x="1292.00" y="470" text-anchor="middle" fill="#5b6b68" font-size="11">26-03-16</text>
    <line x1="1108.95" y1="132" x2="1108.95" y2="442" stroke="#f59e0b" stroke-width="1.4" stroke-dasharray="4 4" />
       <text x="1114.95" y="124" fill="#a16207" font-size="11">验证起点</text>
    <path d="M 98.00 365.13 L 102.16 365.89 L 106.32 374.45 L 110.48 365.09 L 114.64 366.17 L 118.80 371.56 L 122.96 376.38 L 127.12 376.14 L 131.28 384.38 L 135.44 386.07 L 139.60 380.72 L 143.76 378.95 L 147.92 375.98 L 152.08 373.57 L 156.24 367.10 L 160.40 364.56 L 164.56 362.84 L 168.72 368.78 L 172.89 373.57 L 177.05 365.13 L 181.21 363.20 L 185.37 363.44 L 189.53 364.08 L 193.69 364.89 L 197.85 363.60 L 202.01 364.77 L 206.17 362.15 L 210.33 358.09 L 214.49 360.71 L 218.65 364.48 L 222.81 358.58 L 226.97 357.97 L 231.13 365.61 L 235.29 365.17 L 239.45 362.11 L 243.61 377.87 L 247.77 374.49 L 251.93 376.86 L 256.09 378.11 L 260.25 370.91 L 264.41 380.00 L 268.57 376.02 L 272.73 375.58 L 276.89 381.08 L 281.05 380.68 L 285.21 376.30 L 289.37 374.73 L 293.53 371.44 L 297.69 372.44 L 301.85 369.19 L 306.01 370.43 L 310.17 373.69 L 314.33 375.46 L 318.49 369.47 L 322.66 374.57 L 326.82 381.73 L 330.98 395.83 L 335.14 399.29 L 339.30 396.11 L 343.46 405.16 L 347.62 438.52 L 351.78 425.49 L 355.94 436.55 L 360.10 402.91 L 364.26 406.44 L 368.42 398.32 L 372.58 392.66 L 376.74 397.64 L 380.90 387.47 L 385.06 384.26 L 389.22 388.12 L 393.38 386.15 L 397.54 381.65 L 401.70 382.21 L 405.86 371.80 L 410.02 373.57 L 414.18 368.74 L 418.34 365.89 L 422.50 360.42 L 426.66 360.18 L 430.82 357.57 L 434.98 359.46 L 439.14 355.56 L 443.30 358.05 L 447.46 358.34 L 451.62 358.50 L 455.78 355.40 L 459.94 358.09 L 464.10 356.29 L 468.26 357.21 L 472.43 360.67 L 476.59 357.61 L 480.75 349.81 L 484.91 346.20 L 489.07 350.94 L 493.23 345.39 L 497.39 347.68 L 501.55 350.42 L 505.71 349.98 L 509.87 349.25 L 514.03 349.98 L 518.19 348.33 L 522.35 346.76 L 526.51 345.39 L 530.67 346.28 L 534.83 348.37 L 538.99 344.83 L 543.15 342.54 L 547.31 339.97 L 551.47 343.50 L 555.63 347.00 L 559.79 350.62 L 563.95 344.23 L 568.11 338.84 L 572.27 330.88 L 576.43 319.79 L 580.59 314.37 L 584.75 320.92 L 588.91 321.36 L 593.07 322.32 L 597.23 325.90 L 601.39 327.79 L 605.55 330.93 L 609.71 332.53 L 613.87 332.41 L 618.03 335.23 L 622.20 339.81 L 626.36 339.85 L 630.52 343.18 L 634.68 336.87 L 638.84 339.85 L 643.00 339.93 L 647.16 338.08 L 651.32 314.57 L 655.48 305.08 L 659.64 313.40 L 663.80 321.44 L 667.96 328.84 L 672.12 329.04 L 676.28 325.06 L 680.44 334.10 L 684.60 329.24 L 688.76 324.70 L 692.92 323.85 L 697.08 319.51 L 701.24 307.21 L 705.40 308.98 L 709.56 298.73 L 713.72 290.37 L 717.88 296.20 L 722.04 288.73 L 726.20 282.70 L 730.36 286.88 L 734.52 294.87 L 738.68 297.21 L 742.84 301.26 L 747.00 296.20 L 751.16 303.56 L 755.32 301.30 L 759.48 295.92 L 763.64 297.17 L 767.80 305.56 L 771.97 303.47 L 776.13 313.32 L 780.29 303.27 L 784.45 298.97 L 788.61 290.17 L 792.77 288.60 L 796.93 284.02 L 801.09 276.35 L 805.25 271.44 L 809.41 272.85 L 813.57 270.24 L 817.73 267.62 L 821.89 261.48 L 826.05 270.24 L 830.21 263.77 L 834.37 262.92 L 838.53 260.91 L 842.69 261.68 L 846.85 271.32 L 851.01 271.64 L 855.17 269.55 L 859.33 236.16 L 863.49 245.04 L 867.65 241.78 L 871.81 258.34 L 875.97 245.00 L 880.13 234.39 L 884.29 241.58 L 888.45 219.96 L 892.61 220.24 L 896.77 223.42 L 900.93 234.03 L 905.09 227.64 L 909.25 213.93 L 913.41 216.62 L 917.57 199.26 L 921.74 202.28 L 925.90 192.59 L 930.06 193.03 L 934.22 203.12 L 938.38 217.47 L 942.54 212.52 L 946.70 214.05 L 950.86 211.44 L 955.02 213.89 L 959.18 211.56 L 963.34 211.16 L 967.50 222.01 L 971.66 223.25 L 975.82 246.24 L 979.98 248.61 L 984.14 238.17 L 988.30 254.56 L 992.46 251.83 L 996.62 254.76 L 1000.78 240.70 L 1004.94 234.99 L 1009.10 233.38 L 1013.26 244.39 L 1017.42 241.94 L 1021.58 237.36 L 1025.74 220.68 L 1029.90 225.87 L 1034.06 224.46 L 1038.22 226.95 L 1042.38 232.22 L 1046.54 233.99 L 1050.70 223.29 L 1054.86 233.18 L 1059.02 240.38 L 1063.18 239.29 L 1067.34 248.90 L 1071.51 242.83 L 1075.67 240.01 L 1079.83 236.92 L 1083.99 235.47 L 1088.15 234.79 L 1092.31 230.05 L 1096.47 235.19 L 1100.63 235.79 L 1104.79 238.25 L 1108.95 220.96 L 1113.11 211.80 L 1117.27 219.40 L 1121.43 229.08 L 1125.59 220.64 L 1129.75 223.25 L 1133.91 205.57 L 1138.07 198.78 L 1142.23 201.59 L 1146.39 203.92 L 1150.55 205.09 L 1154.71 215.66 L 1158.87 218.07 L 1163.03 205.61 L 1167.19 205.73 L 1171.35 205.37 L 1175.51 195.60 L 1179.67 190.50 L 1183.83 190.46 L 1187.99 190.50 L 1192.15 206.21 L 1196.31 182.30 L 1200.47 190.18 L 1204.63 200.31 L 1208.79 195.04 L 1212.95 171.05 L 1217.11 151.64 L 1221.28 144.00 L 1225.44 137.21 L 1229.60 145.33 L 1233.76 147.50 L 1237.92 138.65 L 1242.08 139.54 L 1246.24 138.05 L 1250.40 151.31 L 1254.56 174.99 L 1258.72 202.96 L 1262.88 187.20 L 1267.04 186.24 L 1271.20 225.22 L 1275.36 205.49 L 1279.52 198.78 L 1283.68 208.10 L 1287.84 218.07 L 1292.00 218.75" fill="none" stroke="#0f766e" stroke-width="2"  />
<path d="M 98.00 363.71 L 102.16 364.20 L 106.32 365.72 L 110.48 374.43 L 114.64 364.86 L 118.80 365.88 L 122.96 371.38 L 127.12 377.87 L 131.28 376.02 L 135.44 382.82 L 139.60 386.61 L 143.76 379.76 L 147.92 378.90 L 152.08 376.05 L 156.24 373.45 L 160.40 365.86 L 164.56 363.58 L 168.72 362.64 L 172.89 364.54 L 177.05 372.77 L 181.21 366.28 L 185.37 363.58 L 189.53 362.90 L 193.69 364.45 L 197.85 362.87 L 202.01 363.41 L 206.17 366.13 L 210.33 361.77 L 214.49 358.33 L 218.65 360.55 L 222.81 365.09 L 226.97 357.72 L 231.13 356.36 L 235.29 365.30 L 239.45 365.16 L 243.61 362.26 L 247.77 381.41 L 251.93 375.17 L 256.09 374.35 L 260.25 378.67 L 264.41 369.93 L 268.57 387.94 L 272.73 376.44 L 276.89 373.42 L 281.05 381.22 L 285.21 378.98 L 289.37 372.73 L 293.53 374.78 L 297.69 370.15 L 301.85 372.59 L 306.01 368.84 L 310.17 369.80 L 314.33 372.94 L 318.49 376.02 L 322.66 369.26 L 326.82 376.25 L 330.98 383.18 L 335.14 396.00 L 339.30 399.05 L 343.46 399.78 L 347.62 437.80 L 351.78 438.02 L 355.94 418.27 L 360.10 439.73 L 364.26 400.48 L 368.42 404.52 L 372.58 397.33 L 376.74 393.19 L 380.90 395.45 L 385.06 387.16 L 389.22 383.43 L 393.38 385.40 L 397.54 385.45 L 401.70 380.34 L 405.86 381.13 L 410.02 367.44 L 414.18 372.79 L 418.34 368.95 L 422.50 365.49 L 426.66 360.43 L 430.82 359.40 L 434.98 356.84 L 439.14 358.77 L 443.30 356.04 L 447.46 358.93 L 451.62 356.75 L 455.78 357.64 L 459.94 354.47 L 464.10 357.11 L 468.26 356.73 L 472.43 356.61 L 476.59 359.70 L 480.75 357.13 L 484.91 349.37 L 489.07 347.53 L 493.23 350.07 L 497.39 344.59 L 501.55 347.73 L 505.71 350.16 L 509.87 350.32 L 514.03 348.07 L 518.19 349.87 L 522.35 347.85 L 526.51 346.49 L 530.67 344.45 L 534.83 346.44 L 538.99 348.54 L 543.15 345.26 L 547.31 341.20 L 551.47 339.63 L 555.63 343.24 L 559.79 347.00 L 563.95 349.73 L 568.11 344.26 L 572.27 336.44 L 576.43 328.58 L 580.59 316.74 L 584.75 314.44 L 588.91 320.32 L 593.07 320.47 L 597.23 321.92 L 601.39 326.31 L 605.55 326.73 L 609.71 330.26 L 613.87 332.53 L 618.03 332.56 L 622.20 335.39 L 626.36 340.14 L 630.52 339.17 L 634.68 342.28 L 638.84 337.20 L 643.00 340.17 L 647.16 339.16 L 651.32 333.12 L 655.48 313.93 L 659.64 305.39 L 663.80 320.29 L 667.96 321.44 L 672.12 328.04 L 676.28 328.68 L 680.44 324.22 L 684.60 335.81 L 688.76 328.91 L 692.92 322.79 L 697.08 322.85 L 701.24 317.08 L 705.40 303.44 L 709.56 306.33 L 713.72 298.36 L 717.88 290.39 L 722.04 293.51 L 726.20 286.53 L 730.36 282.33 L 734.52 286.79 L 738.68 295.60 L 742.84 294.61 L 747.00 304.42 L 751.16 295.91 L 755.32 303.58 L 759.48 300.28 L 763.64 297.20 L 767.80 296.42 L 771.97 305.16 L 776.13 303.32 L 780.29 311.74 L 784.45 302.16 L 788.61 288.71 L 792.77 291.29 L 796.93 287.75 L 801.09 282.01 L 805.25 276.69 L 809.41 269.67 L 813.57 272.56 L 817.73 270.08 L 821.89 266.28 L 826.05 261.92 L 830.21 272.11 L 834.37 263.51 L 838.53 262.60 L 842.69 260.83 L 846.85 260.97 L 851.01 273.00 L 855.17 271.66 L 859.33 259.91 L 863.49 241.36 L 867.65 241.42 L 871.81 240.24 L 875.97 256.24 L 880.13 244.41 L 884.29 233.14 L 888.45 233.86 L 892.61 220.77 L 896.77 220.04 L 900.93 222.79 L 905.09 233.19 L 909.25 221.84 L 913.41 213.39 L 917.57 217.35 L 921.74 198.26 L 925.90 201.55 L 930.06 185.70 L 934.22 193.49 L 938.38 202.54 L 942.54 217.02 L 946.70 211.43 L 950.86 210.88 L 955.02 211.00 L 959.18 212.46 L 963.34 213.68 L 967.50 208.92 L 971.66 225.63 L 975.82 225.72 L 979.98 246.06 L 984.14 250.42 L 988.30 235.06 L 992.46 255.42 L 996.62 251.54 L 1000.78 252.67 L 1004.94 240.59 L 1009.10 234.93 L 1013.26 230.16 L 1017.42 244.25 L 1021.58 241.60 L 1025.74 235.39 L 1029.90 220.13 L 1034.06 225.61 L 1038.22 223.70 L 1042.38 225.71 L 1046.54 231.57 L 1050.70 233.89 L 1054.86 218.39 L 1059.02 237.01 L 1063.18 241.27 L 1067.34 238.69 L 1071.51 248.42 L 1075.67 240.97 L 1079.83 238.90 L 1083.99 236.93 L 1088.15 235.23 L 1092.31 234.54 L 1096.47 228.27 L 1100.63 234.96 L 1104.79 235.69 L 1108.95 223.99 L 1113.11 220.69 L 1117.27 211.28 L 1121.43 218.93 L 1125.59 226.08 L 1129.75 217.97 L 1133.91 223.70 L 1138.07 204.32 L 1142.23 197.76 L 1146.39 200.88 L 1150.55 204.87 L 1154.71 204.78 L 1158.87 213.69 L 1163.03 217.39 L 1167.19 205.90 L 1171.35 205.96 L 1175.51 203.36 L 1179.67 196.03 L 1183.83 188.74 L 1187.99 189.97 L 1192.15 190.47 L 1196.31 204.50 L 1200.47 179.82 L 1204.63 191.51 L 1208.79 194.81 L 1212.95 188.26 L 1217.11 168.15 L 1221.28 149.99 L 1225.44 144.06 L 1229.60 135.79 L 1233.76 159.74 L 1237.92 144.90 L 1242.08 138.29 L 1246.24 138.74 L 1250.40 145.42 L 1254.56 155.83 L 1258.72 171.91 L 1262.88 206.59 L 1267.04 187.97 L 1271.20 184.88 L 1275.36 223.98 L 1279.52 205.79 L 1283.68 200.50 L 1287.84 208.31 L 1292.00 218.66" fill="none" stroke="#1d4ed8" stroke-width="2"  />
  </g>
  <g>
    <text x="54" y="538" fill="#1f2937" font-size="16" font-weight="700">B. 绝对误差（越低越好）</text>
    <line x1="98" y1="558" x2="124" y2="558" stroke="#1d4ed8" stroke-width="2"  />
      <text x="130" y="562" fill="#24312e" font-size="12">持仓分段误差</text>
    <line x1="98" y1="560.00" x2="1292" y2="560.00" stroke="#d7e3df" stroke-width="1" />
      <text x="90" y="564.00" text-anchor="end" fill="#5b6b68" font-size="11">8.39%</text>
<line x1="98" y1="630.00" x2="1292" y2="630.00" stroke="#d7e3df" stroke-width="1" />
      <text x="90" y="634.00" text-anchor="end" fill="#5b6b68" font-size="11">6.29%</text>
<line x1="98" y1="700.00" x2="1292" y2="700.00" stroke="#d7e3df" stroke-width="1" />
      <text x="90" y="704.00" text-anchor="end" fill="#5b6b68" font-size="11">4.19%</text>
<line x1="98" y1="770.00" x2="1292" y2="770.00" stroke="#d7e3df" stroke-width="1" />
      <text x="90" y="774.00" text-anchor="end" fill="#5b6b68" font-size="11">2.10%</text>
<line x1="98" y1="840.00" x2="1292" y2="840.00" stroke="#d7e3df" stroke-width="1" />
      <text x="90" y="844.00" text-anchor="end" fill="#5b6b68" font-size="11">0.00%</text>
    <line x1="98.00" y1="560" x2="98.00" y2="840" stroke="#eef3f1" stroke-width="1" />
      <text x="98.00" y="868" text-anchor="middle" fill="#5b6b68" font-size="11">25-01-02</text>
<line x1="289.37" y1="560" x2="289.37" y2="840" stroke="#eef3f1" stroke-width="1" />
      <text x="289.37" y="868" text-anchor="middle" fill="#5b6b68" font-size="11">25-03-17</text>
<line x1="480.75" y1="560" x2="480.75" y2="840" stroke="#eef3f1" stroke-width="1" />
      <text x="480.75" y="868" text-anchor="middle" fill="#5b6b68" font-size="11">25-05-26</text>
<line x1="697.08" y1="560" x2="697.08" y2="840" stroke="#eef3f1" stroke-width="1" />
      <text x="697.08" y="868" text-anchor="middle" fill="#5b6b68" font-size="11">25-08-07</text>
<line x1="909.25" y1="560" x2="909.25" y2="840" stroke="#eef3f1" stroke-width="1" />
      <text x="909.25" y="868" text-anchor="middle" fill="#5b6b68" font-size="11">25-10-27</text>
<line x1="1100.63" y1="560" x2="1100.63" y2="840" stroke="#eef3f1" stroke-width="1" />
      <text x="1100.63" y="868" text-anchor="middle" fill="#5b6b68" font-size="11">25-12-30</text>
<line x1="1292.00" y1="560" x2="1292.00" y2="840" stroke="#eef3f1" stroke-width="1" />
      <text x="1292.00" y="868" text-anchor="middle" fill="#5b6b68" font-size="11">26-03-16</text>
    <line x1="1108.95" y1="560" x2="1108.95" y2="840" stroke="#f59e0b" stroke-width="1.4" stroke-dasharray="4 4" />
       <text x="1114.95" y="552" fill="#a16207" font-size="11">验证起点</text>
    <path d="M 98.00 831.06 L 102.16 829.33 L 106.32 783.94 L 110.48 781.07 L 114.64 831.72 L 118.80 803.73 L 122.96 807.77 L 127.12 828.85 L 131.28 785.28 L 135.44 818.68 L 139.60 801.72 L 143.76 834.78 L 147.92 821.21 L 152.08 824.09 L 156.24 799.77 L 160.40 831.83 L 164.56 835.33 L 168.72 800.97 L 172.89 782.17 L 177.05 791.79 L 181.21 820.65 L 185.37 839.10 L 189.53 832.55 L 193.69 837.28 L 197.85 835.43 L 202.01 831.48 L 206.17 815.07 L 210.33 817.15 L 214.49 825.17 L 218.65 815.23 L 222.81 799.40 L 226.97 838.44 L 231.13 781.61 L 235.29 839.16 L 239.45 820.87 L 243.61 739.17 L 247.77 795.61 L 251.93 829.09 L 256.09 815.70 L 260.25 790.56 L 264.41 774.68 L 268.57 763.25 L 272.73 834.42 L 276.89 790.16 L 281.05 836.53 L 285.21 822.74 L 289.37 827.13 L 293.53 818.69 L 297.69 825.33 L 301.85 818.38 L 306.01 829.84 L 310.17 815.06 L 314.33 823.79 L 318.49 798.37 L 322.66 805.88 L 326.82 804.34 L 330.98 755.29 L 335.14 817.82 L 339.30 820.33 L 343.46 803.30 L 347.62 834.75 L 351.78 750.88 L 355.94 706.83 L 360.10 590.00 L 364.26 799.19 L 368.42 798.30 L 372.58 808.93 L 376.74 810.09 L 380.90 787.46 L 385.06 821.00 L 389.22 809.14 L 393.38 835.08 L 397.54 815.23 L 401.70 827.82 L 405.86 780.41 L 410.02 800.72 L 414.18 814.35 L 418.34 820.68 L 422.50 808.32 L 426.66 838.45 L 430.82 828.65 L 434.98 823.64 L 439.14 820.13 L 443.30 827.44 L 447.46 836.28 L 451.62 829.11 L 455.78 826.11 L 459.94 817.48 L 464.10 834.90 L 468.26 837.04 L 472.43 814.62 L 476.59 826.99 L 480.75 795.20 L 484.91 820.71 L 489.07 819.05 L 493.23 811.58 L 497.39 821.11 L 501.55 823.52 L 505.71 838.88 L 509.87 833.47 L 514.03 828.33 L 518.19 830.55 L 522.35 833.35 L 526.51 833.34 L 530.67 828.84 L 534.83 828.21 L 538.99 817.48 L 543.15 823.55 L 547.31 832.58 L 551.47 816.51 L 555.63 817.05 L 559.79 817.79 L 563.95 806.64 L 568.11 807.48 L 572.27 807.08 L 576.43 788.93 L 580.59 826.35 L 584.75 802.31 L 588.91 833.95 L 593.07 829.21 L 597.23 816.62 L 601.39 831.27 L 605.55 815.14 L 609.71 826.50 L 613.87 839.29 L 618.03 824.09 L 622.20 813.43 L 626.36 838.24 L 630.52 815.71 L 634.68 807.61 L 638.84 824.06 L 643.00 838.52 L 647.16 833.52 L 651.32 733.24 L 655.48 789.87 L 659.64 793.99 L 663.80 833.31 L 667.96 796.37 L 672.12 834.09 L 676.28 818.78 L 680.44 781.13 L 684.60 801.21 L 688.76 815.31 L 692.92 833.81 L 697.08 820.61 L 701.24 783.89 L 705.40 808.41 L 709.56 797.41 L 713.72 795.87 L 717.88 807.56 L 722.04 813.65 L 726.20 819.07 L 730.36 815.02 L 734.52 795.02 L 738.68 831.03 L 742.84 802.54 L 747.00 794.16 L 751.16 796.83 L 755.32 827.18 L 759.48 815.69 L 763.64 839.81 L 767.80 788.20 L 771.97 830.46 L 776.13 782.56 L 780.29 792.18 L 784.45 822.12 L 788.61 831.92 L 792.77 825.22 L 796.93 819.61 L 801.09 809.40 L 805.25 811.86 L 809.41 822.94 L 813.57 827.57 L 817.73 826.92 L 821.89 814.66 L 826.05 795.53 L 830.21 795.85 L 834.37 836.90 L 838.53 831.12 L 842.69 835.51 L 846.85 784.55 L 851.01 832.73 L 855.17 828.77 L 859.33 719.55 L 863.49 821.10 L 867.65 838.17 L 871.81 745.00 L 875.97 782.20 L 880.13 789.32 L 884.29 796.84 L 888.45 771.19 L 892.61 837.36 L 896.77 823.20 L 900.93 783.22 L 905.09 812.18 L 909.25 801.21 L 913.41 824.08 L 917.57 753.16 L 921.74 820.63 L 925.90 797.38 L 930.06 805.12 L 934.22 793.53 L 938.38 766.42 L 942.54 817.98 L 946.70 827.13 L 950.86 837.25 L 955.02 825.84 L 959.18 835.61 L 963.34 827.66 L 967.50 775.04 L 971.66 828.18 L 975.82 734.32 L 979.98 826.80 L 984.14 777.67 L 988.30 738.28 L 992.46 821.36 L 996.62 823.16 L 1000.78 778.85 L 1004.94 811.65 L 1009.10 832.19 L 1013.26 766.93 L 1017.42 828.19 L 1021.58 818.49 L 1025.74 767.16 L 1029.90 811.38 L 1034.06 834.26 L 1038.22 823.71 L 1042.38 807.21 L 1046.54 827.80 L 1050.70 787.30 L 1054.86 765.35 L 1059.02 822.84 L 1063.18 829.91 L 1067.34 787.25 L 1071.51 811.35 L 1075.67 835.11 L 1079.83 829.94 L 1083.99 832.60 L 1088.15 837.76 L 1092.31 817.40 L 1096.47 804.97 L 1100.63 835.76 L 1104.79 827.00 L 1108.95 824.99 L 1113.11 796.53 L 1117.27 799.89 L 1121.43 789.08 L 1125.59 813.05 L 1129.75 813.72 L 1133.91 752.15 L 1138.07 813.40 L 1142.23 821.53 L 1146.39 825.29 L 1150.55 838.96 L 1154.71 786.50 L 1158.87 818.39 L 1163.03 782.92 L 1167.19 839.16 L 1171.35 837.14 L 1175.51 802.93 L 1179.67 813.79 L 1183.83 831.86 L 1187.99 837.48 L 1192.15 763.63 L 1196.31 735.95 L 1200.47 790.93 L 1204.63 797.72 L 1208.79 838.89 L 1212.95 760.57 L 1217.11 765.79 L 1221.28 813.37 L 1225.44 809.80 L 1229.60 797.53 L 1233.76 785.30 L 1237.92 812.42 L 1242.08 834.47 L 1246.24 836.94 L 1250.40 813.53 L 1254.56 751.11 L 1258.72 690.12 L 1262.88 748.52 L 1267.04 831.85 L 1271.20 638.80 L 1275.36 750.45 L 1279.52 806.37 L 1283.68 803.01 L 1287.84 791.86 L 1292.00 839.55" fill="none" stroke="#1d4ed8" stroke-width="2"  />
  </g>
</svg>