<?xml version="1.0" encoding="UTF-8"?>
<svg xmlns="http://www.w3.org/2000/svg" width="1360" height="980" viewBox="0 0 1360 980">
  <defs>
    <linearGradient id="bg" x1="0" y1="0" x2="1" y2="1">
      <stop offset="0%" stop-color="#f4efe6" />
      <stop offset="100%" stop-color="#eef5f2" />
    </linearGradient>
  </defs>
  <rect x="0" y="0" width="1360" height="980" fill="url(#bg)" />
  <text x="46" y="36" fill="#1f2937" font-size="31" font-weight="700">513800 离线研究图（持仓逐日估值版）</text>
  <text x="46" y="66" fill="#5b6b68" font-size="13">历史前十大持仓 + 持仓逐日涨跌幅 + USDCNY；双目标 lambda=0.10；披露期数 26；覆盖率均值 92.3%</text>
  <g>
    <text x="54" y="110" fill="#1f2937" font-size="16" font-weight="700">A. 净值拟合（同日对齐，无平移）</text>
    <line x1="98" y1="130" x2="124" y2="130" stroke="#0f766e" stroke-width="2"  />
      <text x="130" y="134" fill="#24312e" font-size="12">真实净值</text>
<line x1="313" y1="130" x2="339" y2="130" stroke="#1d4ed8" stroke-width="2"  />
      <text x="345" y="134" fill="#24312e" font-size="12">持仓分段估值</text>
    <line x1="98" y1="132.00" x2="1292" y2="132.00" stroke="#d7e3df" stroke-width="1" />
      <text x="90" y="136.00" text-anchor="end" fill="#5b6b68" font-size="11">1.897</text>
<line x1="98" y1="209.50" x2="1292" y2="209.50" stroke="#d7e3df" stroke-width="1" />
      <text x="90" y="213.50" text-anchor="end" fill="#5b6b68" font-size="11">1.726</text>
<line x1="98" y1="287.00" x2="1292" y2="287.00" stroke="#d7e3df" stroke-width="1" />
      <text x="90" y="291.00" text-anchor="end" fill="#5b6b68" font-size="11">1.555</text>
<line x1="98" y1="364.50" x2="1292" y2="364.50" stroke="#d7e3df" stroke-width="1" />
      <text x="90" y="368.50" text-anchor="end" fill="#5b6b68" font-size="11">1.384</text>
<line x1="98" y1="442.00" x2="1292" y2="442.00" stroke="#d7e3df" stroke-width="1" />
      <text x="90" y="446.00" text-anchor="end" fill="#5b6b68" font-size="11">1.214</text>
    <line x1="98.00" y1="132" x2="98.00" y2="442" stroke="#eef3f1" stroke-width="1" />
      <text x="98.00" y="470" text-anchor="middle" fill="#5b6b68" font-size="11">25-01-02</text>
<line x1="290.04" y1="132" x2="290.04" y2="442" stroke="#eef3f1" stroke-width="1" />
      <text x="290.04" y="470" text-anchor="middle" fill="#5b6b68" font-size="11">25-03-17</text>
<line x1="482.08" y1="132" x2="482.08" y2="442" stroke="#eef3f1" stroke-width="1" />
      <text x="482.08" y="470" text-anchor="middle" fill="#5b6b68" font-size="11">25-05-26</text>
<line x1="695.00" y1="132" x2="695.00" y2="442" stroke="#eef3f1" stroke-width="1" />
      <text x="695.00" y="470" text-anchor="middle" fill="#5b6b68" font-size="11">25-08-06</text>
<line x1="907.92" y1="132" x2="907.92" y2="442" stroke="#eef3f1" stroke-width="1" />
      <text x="907.92" y="470" text-anchor="middle" fill="#5b6b68" font-size="11">25-10-24</text>
<line x1="1099.96" y1="132" x2="1099.96" y2="442" stroke="#eef3f1" stroke-width="1" />
      <text x="1099.96" y="470" text-anchor="middle" fill="#5b6b68" font-size="11">25-12-29</text>
<line x1="1292.00" y1="132" x2="1292.00" y2="442" stroke="#eef3f1" stroke-width="1" />
      <text x="1292.00" y="470" text-anchor="middle" fill="#5b6b68" font-size="11">26-03-13</text>
    <line x1="1112.48" y1="132" x2="1112.48" y2="442" stroke="#f59e0b" stroke-width="1.4" stroke-dasharray="4 4" />
       <text x="1118.48" y="124" fill="#a16207" font-size="11">验证起点</text>
    <path d="M 98.00 371.58 L 102.17 372.31 L 106.35 378.71 L 110.52 373.58 L 114.70 376.71 L 118.87 384.21 L 123.05 388.56 L 127.22 387.29 L 131.40 394.42 L 135.57 395.87 L 139.75 389.70 L 143.92 388.52 L 148.10 384.25 L 152.27 383.52 L 156.45 379.26 L 160.62 378.12 L 164.80 377.30 L 168.97 375.72 L 173.15 373.58 L 177.32 365.36 L 181.50 362.78 L 185.67 363.64 L 189.85 364.37 L 194.02 368.36 L 198.20 366.45 L 202.37 365.27 L 206.55 360.64 L 210.72 355.15 L 214.90 358.74 L 219.07 362.78 L 223.24 357.15 L 227.42 355.88 L 231.59 360.73 L 235.77 359.10 L 239.94 353.56 L 244.12 368.81 L 248.29 362.10 L 252.47 361.05 L 256.64 362.50 L 260.82 352.29 L 264.99 358.55 L 269.17 357.33 L 273.34 360.69 L 277.52 362.41 L 281.69 360.46 L 285.87 354.42 L 290.04 351.52 L 294.22 346.07 L 298.39 343.03 L 302.57 339.12 L 306.74 337.53 L 310.92 343.84 L 315.09 346.80 L 319.27 341.21 L 323.44 342.57 L 327.62 350.61 L 331.79 366.54 L 335.97 370.36 L 340.14 372.31 L 344.31 384.75 L 348.49 439.23 L 352.66 412.26 L 356.84 422.39 L 361.01 382.48 L 365.19 390.06 L 369.36 381.89 L 373.54 374.31 L 377.71 378.12 L 381.89 365.41 L 386.06 361.28 L 390.24 366.32 L 394.41 361.28 L 398.59 353.83 L 402.76 356.83 L 406.94 346.80 L 411.11 344.07 L 415.29 338.44 L 419.46 334.90 L 423.64 336.58 L 427.81 333.36 L 431.99 334.90 L 436.16 335.26 L 440.34 332.36 L 444.51 335.67 L 448.69 338.85 L 452.86 338.58 L 457.03 333.49 L 461.21 333.49 L 465.38 333.13 L 469.56 331.72 L 473.73 333.31 L 477.91 328.23 L 482.08 321.83 L 486.26 315.20 L 490.43 321.69 L 494.61 318.06 L 498.78 313.65 L 502.96 316.15 L 507.13 318.47 L 511.31 320.19 L 515.48 321.55 L 519.66 322.32 L 523.83 321.64 L 528.01 323.55 L 532.18 321.83 L 536.36 324.64 L 540.53 323.10 L 544.71 322.42 L 548.88 319.42 L 553.06 322.19 L 557.23 327.59 L 561.41 335.35 L 565.58 330.04 L 569.76 325.46 L 573.93 321.24 L 578.10 308.70 L 582.28 305.89 L 586.45 309.02 L 590.63 308.80 L 594.80 309.75 L 598.98 313.56 L 603.15 317.78 L 607.33 321.46 L 611.50 324.14 L 615.68 324.41 L 619.85 322.55 L 624.03 326.41 L 628.20 329.45 L 632.38 334.67 L 636.55 326.05 L 640.73 329.32 L 644.90 329.41 L 649.08 327.64 L 653.25 300.76 L 657.43 287.64 L 661.60 297.54 L 665.78 304.66 L 669.95 313.70 L 674.13 310.34 L 678.30 307.89 L 682.48 312.61 L 686.65 306.30 L 690.83 299.35 L 695.00 295.40 L 699.17 290.05 L 703.35 280.06 L 707.52 283.05 L 711.70 275.29 L 715.87 267.12 L 720.05 272.57 L 724.22 263.39 L 728.40 258.13 L 732.57 262.71 L 736.75 264.89 L 740.92 267.93 L 745.10 269.12 L 749.27 264.44 L 753.45 272.61 L 757.62 272.79 L 761.80 268.03 L 765.97 272.07 L 770.15 275.65 L 774.32 270.80 L 778.50 283.83 L 782.67 277.15 L 786.85 271.43 L 791.02 263.30 L 795.20 260.63 L 799.37 258.22 L 803.55 257.49 L 807.72 253.41 L 811.90 255.18 L 816.07 253.04 L 820.24 252.18 L 824.42 251.55 L 828.59 260.22 L 832.77 256.31 L 836.94 255.59 L 841.12 253.59 L 845.29 252.04 L 849.47 259.81 L 853.64 263.71 L 857.82 260.72 L 861.99 248.28 L 866.17 265.57 L 870.34 260.72 L 874.52 278.38 L 878.69 263.08 L 882.87 256.68 L 887.04 260.08 L 891.22 245.73 L 895.39 244.05 L 899.57 247.05 L 903.74 249.91 L 907.92 248.14 L 912.09 239.88 L 916.27 247.50 L 920.44 246.96 L 924.62 242.69 L 928.79 242.01 L 932.97 242.33 L 937.14 247.41 L 941.31 254.36 L 945.49 246.42 L 949.66 243.65 L 953.84 244.33 L 958.01 245.28 L 962.19 237.88 L 966.36 235.66 L 970.54 241.92 L 974.71 243.28 L 978.89 266.66 L 983.06 268.03 L 987.24 264.39 L 991.41 264.76 L 995.59 261.81 L 999.76 264.85 L 1003.94 250.32 L 1008.11 248.23 L 1012.29 245.69 L 1016.46 254.13 L 1020.64 251.05 L 1024.81 255.81 L 1028.99 238.33 L 1033.16 245.10 L 1037.34 239.83 L 1041.51 242.87 L 1045.69 246.69 L 1049.86 248.69 L 1054.03 232.80 L 1058.21 232.16 L 1062.38 243.06 L 1066.56 242.83 L 1070.73 249.46 L 1074.91 231.84 L 1079.08 248.69 L 1083.26 243.65 L 1087.43 244.46 L 1091.61 241.78 L 1095.78 242.60 L 1099.96 243.28 L 1104.13 243.60 L 1108.31 246.60 L 1112.48 235.16 L 1116.66 221.31 L 1120.83 226.53 L 1125.01 232.93 L 1129.18 228.71 L 1133.36 234.29 L 1137.53 215.54 L 1141.71 212.68 L 1145.88 203.10 L 1150.06 206.42 L 1154.23 205.28 L 1158.41 215.27 L 1162.58 221.40 L 1166.76 214.86 L 1170.93 213.55 L 1175.10 216.36 L 1179.28 206.92 L 1183.45 209.37 L 1187.63 207.78 L 1191.80 200.61 L 1195.98 218.99 L 1200.15 196.70 L 1204.33 195.48 L 1208.50 201.70 L 1212.68 192.07 L 1216.85 178.41 L 1221.03 157.97 L 1225.20 149.58 L 1229.38 138.13 L 1233.55 148.35 L 1237.73 159.47 L 1241.90 160.38 L 1246.08 157.02 L 1250.25 143.99 L 1254.43 155.93 L 1258.60 182.58 L 1262.78 215.91 L 1266.95 199.06 L 1271.13 197.93 L 1275.30 231.84 L 1279.48 213.77 L 1283.65 206.46 L 1287.83 221.49 L 1292.00 226.03" fill="none" stroke="#0f766e" stroke-width="2"  />
<path d="M 98.00 370.40 L 102.17 370.33 L 106.35 372.39 L 110.52 378.71 L 114.70 373.32 L 118.87 376.28 L 123.05 383.94 L 127.22 389.12 L 131.40 387.17 L 135.57 392.32 L 139.75 396.71 L 143.92 388.39 L 148.10 389.27 L 152.27 384.31 L 156.45 383.41 L 160.62 377.66 L 164.80 376.89 L 168.97 377.97 L 173.15 369.99 L 177.32 372.58 L 181.50 366.82 L 185.67 362.82 L 189.85 362.98 L 194.02 365.00 L 198.20 366.05 L 202.37 366.30 L 206.55 365.81 L 210.72 360.11 L 214.90 355.57 L 219.07 358.59 L 223.24 363.72 L 227.42 357.37 L 231.59 353.80 L 235.77 360.32 L 239.94 359.12 L 244.12 353.79 L 248.29 368.25 L 252.47 363.07 L 256.64 354.81 L 260.82 363.28 L 264.99 350.90 L 269.17 365.26 L 273.34 357.87 L 277.52 355.30 L 281.69 362.53 L 285.87 356.24 L 290.04 352.74 L 294.22 351.52 L 298.39 344.34 L 302.57 343.16 L 306.74 338.51 L 310.92 336.49 L 315.09 342.57 L 319.27 347.70 L 323.44 340.82 L 327.62 348.67 L 331.79 350.75 L 335.97 366.69 L 340.14 369.84 L 344.31 384.42 L 348.49 426.03 L 352.66 438.38 L 356.84 391.87 L 361.01 432.79 L 365.19 375.79 L 369.36 391.29 L 373.54 380.36 L 377.71 375.07 L 381.89 372.36 L 386.06 364.79 L 390.24 362.55 L 394.41 359.16 L 398.59 360.20 L 402.76 351.90 L 406.94 355.23 L 411.11 347.59 L 415.29 342.91 L 419.46 338.77 L 423.64 335.46 L 427.81 336.61 L 431.99 332.18 L 436.16 333.86 L 440.34 335.72 L 444.51 332.97 L 448.69 336.60 L 452.86 336.75 L 457.03 337.40 L 461.21 334.31 L 465.38 332.11 L 469.56 333.74 L 473.73 330.84 L 477.91 331.95 L 482.08 329.11 L 486.26 321.06 L 490.43 320.01 L 494.61 320.37 L 498.78 316.87 L 502.96 313.79 L 507.13 315.71 L 511.31 319.11 L 515.48 318.35 L 519.66 321.94 L 523.83 321.58 L 528.01 321.26 L 532.18 322.10 L 536.36 322.23 L 540.53 325.18 L 544.71 323.95 L 548.88 320.35 L 553.06 318.84 L 557.23 321.71 L 561.41 327.64 L 565.58 334.00 L 569.76 330.18 L 573.93 319.10 L 578.10 315.56 L 582.28 309.97 L 586.45 306.19 L 590.63 308.25 L 594.80 307.64 L 598.98 309.15 L 603.15 314.25 L 607.33 316.39 L 611.50 320.58 L 615.68 324.19 L 619.85 324.67 L 624.03 323.33 L 628.20 326.87 L 632.38 328.54 L 636.55 333.48 L 640.73 326.54 L 644.90 329.95 L 649.08 328.38 L 653.25 315.83 L 657.43 299.96 L 661.60 288.24 L 665.78 304.53 L 669.95 304.76 L 674.13 312.64 L 678.30 309.86 L 682.48 306.74 L 686.65 312.99 L 690.83 305.82 L 695.00 296.93 L 699.17 293.94 L 703.35 283.72 L 707.52 280.58 L 711.70 276.52 L 715.87 274.86 L 720.05 267.27 L 724.22 266.42 L 728.40 263.96 L 732.57 257.72 L 736.75 262.70 L 740.92 265.87 L 745.10 265.07 L 749.27 270.06 L 753.45 264.01 L 757.62 272.60 L 761.80 271.45 L 765.97 269.39 L 770.15 271.98 L 774.32 275.05 L 778.50 270.57 L 782.67 281.81 L 786.85 275.79 L 791.02 264.65 L 795.20 264.80 L 799.37 259.55 L 803.55 255.83 L 807.72 257.96 L 811.90 253.13 L 816.07 254.86 L 820.24 252.90 L 824.42 250.68 L 828.59 252.10 L 832.77 260.18 L 836.94 256.05 L 841.12 255.25 L 845.29 253.52 L 849.47 251.26 L 853.64 259.93 L 857.82 263.71 L 861.99 254.54 L 866.17 260.55 L 870.34 264.73 L 874.52 259.09 L 878.69 276.40 L 882.87 262.40 L 887.04 255.34 L 891.22 253.96 L 895.39 246.68 L 899.57 243.80 L 903.74 246.32 L 907.92 248.89 L 912.09 246.53 L 916.27 239.22 L 920.44 248.26 L 924.62 246.00 L 928.79 241.93 L 932.97 240.46 L 937.14 242.93 L 941.31 246.83 L 945.49 253.85 L 949.66 245.25 L 953.84 242.25 L 958.01 243.77 L 962.19 243.71 L 966.36 243.56 L 970.54 233.33 L 974.71 247.45 L 978.89 249.65 L 983.06 266.24 L 987.24 269.59 L 991.41 258.17 L 995.59 263.42 L 999.76 261.22 L 1003.94 262.50 L 1008.11 249.90 L 1012.29 247.90 L 1016.46 245.03 L 1020.64 253.77 L 1024.81 250.44 L 1028.99 253.71 L 1033.16 237.58 L 1037.34 245.22 L 1041.51 238.84 L 1045.69 241.36 L 1049.86 245.82 L 1054.03 248.47 L 1058.21 231.69 L 1062.38 242.41 L 1066.56 244.06 L 1070.73 241.97 L 1074.91 248.71 L 1079.08 231.60 L 1083.26 247.14 L 1087.43 243.46 L 1091.61 243.89 L 1095.78 241.20 L 1099.96 243.59 L 1104.13 242.84 L 1108.31 243.32 L 1112.48 238.53 L 1116.66 234.66 L 1120.83 220.49 L 1125.01 225.76 L 1129.18 226.15 L 1133.36 229.06 L 1137.53 234.70 L 1141.71 213.92 L 1145.88 211.40 L 1150.06 202.03 L 1154.23 207.79 L 1158.41 204.64 L 1162.58 212.88 L 1166.76 220.38 L 1170.93 215.20 L 1175.10 214.59 L 1179.28 214.03 L 1183.45 207.43 L 1187.63 207.21 L 1191.80 207.12 L 1195.98 201.60 L 1200.15 216.81 L 1204.33 193.96 L 1208.50 199.69 L 1212.68 189.01 L 1216.85 189.05 L 1221.03 171.95 L 1225.20 155.88 L 1229.38 149.58 L 1233.55 136.28 L 1237.73 159.73 L 1241.90 156.60 L 1246.08 159.88 L 1250.25 155.97 L 1254.43 154.66 L 1258.60 167.46 L 1262.78 175.95 L 1266.95 225.19 L 1271.13 199.81 L 1275.30 198.88 L 1279.48 230.19 L 1283.65 214.02 L 1287.83 211.26 L 1292.00 221.66" fill="none" stroke="#1d4ed8" stroke-width="2"  />
  </g>
  <g>
    <text x="54" y="538" fill="#1f2937" font-size="16" font-weight="700">B. 绝对误差（越低越好）</text>
    <line x1="98" y1="558" x2="124" y2="558" stroke="#1d4ed8" stroke-width="2"  />
      <text x="130" y="562" fill="#24312e" font-size="12">持仓分段误差</text>
    <line x1="98" y1="560.00" x2="1292" y2="560.00" stroke="#d7e3df" stroke-width="1" />
      <text x="90" y="564.00" text-anchor="end" fill="#5b6b68" font-size="11">9.23%</text>
<line x1="98" y1="630.00" x2="1292" y2="630.00" stroke="#d7e3df" stroke-width="1" />
      <text x="90" y="634.00" text-anchor="end" fill="#5b6b68" font-size="11">6.92%</text>
<line x1="98" y1="700.00" x2="1292" y2="700.00" stroke="#d7e3df" stroke-width="1" />
      <text x="90" y="704.00" text-anchor="end" fill="#5b6b68" font-size="11">4.61%</text>
<line x1="98" y1="770.00" x2="1292" y2="770.00" stroke="#d7e3df" stroke-width="1" />
      <text x="90" y="774.00" text-anchor="end" fill="#5b6b68" font-size="11">2.31%</text>
<line x1="98" y1="840.00" x2="1292" y2="840.00" stroke="#d7e3df" stroke-width="1" />
      <text x="90" y="844.00" text-anchor="end" fill="#5b6b68" font-size="11">0.00%</text>
    <line x1="98.00" y1="560" x2="98.00" y2="840" stroke="#eef3f1" stroke-width="1" />
      <text x="98.00" y="868" text-anchor="middle" fill="#5b6b68" font-size="11">25-01-02</text>
<line x1="290.04" y1="560" x2="290.04" y2="840" stroke="#eef3f1" stroke-width="1" />
      <text x="290.04" y="868" text-anchor="middle" fill="#5b6b68" font-size="11">25-03-17</text>
<line x1="482.08" y1="560" x2="482.08" y2="840" stroke="#eef3f1" stroke-width="1" />
      <text x="482.08" y="868" text-anchor="middle" fill="#5b6b68" font-size="11">25-05-26</text>
<line x1="695.00" y1="560" x2="695.00" y2="840" stroke="#eef3f1" stroke-width="1" />
      <text x="695.00" y="868" text-anchor="middle" fill="#5b6b68" font-size="11">25-08-06</text>
<line x1="907.92" y1="560" x2="907.92" y2="840" stroke="#eef3f1" stroke-width="1" />
      <text x="907.92" y="868" text-anchor="middle" fill="#5b6b68" font-size="11">25-10-24</text>
<line x1="1099.96" y1="560" x2="1099.96" y2="840" stroke="#eef3f1" stroke-width="1" />
      <text x="1099.96" y="868" text-anchor="middle" fill="#5b6b68" font-size="11">25-12-29</text>
<line x1="1292.00" y1="560" x2="1292.00" y2="840" stroke="#eef3f1" stroke-width="1" />
      <text x="1292.00" y="868" text-anchor="middle" fill="#5b6b68" font-size="11">26-03-13</text>
    <line x1="1112.48" y1="560" x2="1112.48" y2="840" stroke="#f59e0b" stroke-width="1.4" stroke-dasharray="4 4" />
       <text x="1118.48" y="552" fill="#a16207" font-size="11">验证起点</text>
    <path d="M 98.00 834.24 L 102.17 830.30 L 106.35 808.80 L 110.52 814.90 L 114.70 823.29 L 118.87 800.52 L 123.05 816.78 L 127.22 830.86 L 131.40 803.25 L 135.57 821.94 L 139.75 804.73 L 143.92 839.37 L 148.10 814.97 L 152.27 836.09 L 156.45 819.49 L 160.62 837.72 L 164.80 837.96 L 168.97 828.93 L 173.15 822.40 L 177.32 805.13 L 181.50 820.53 L 185.67 836.04 L 189.85 833.30 L 194.02 823.70 L 198.20 838.05 L 202.37 835.03 L 206.55 815.22 L 210.72 816.42 L 214.90 824.87 L 219.07 819.83 L 223.24 808.63 L 227.42 832.91 L 231.59 806.74 L 235.77 834.15 L 239.94 813.63 L 244.12 766.99 L 248.29 810.43 L 252.47 830.29 L 256.64 802.99 L 260.82 787.94 L 264.99 803.38 L 269.17 802.15 L 273.34 826.48 L 277.52 805.79 L 281.69 830.06 L 285.87 831.38 L 290.04 834.20 L 294.22 814.46 L 298.39 833.89 L 302.57 821.28 L 306.74 835.50 L 310.92 805.61 L 315.09 820.15 L 319.27 809.81 L 323.44 831.83 L 327.62 830.84 L 331.79 763.52 L 335.97 822.12 L 340.14 827.92 L 344.31 838.38 L 348.49 767.68 L 352.66 703.57 L 356.84 677.72 L 361.01 590.00 L 365.19 768.17 L 369.36 793.35 L 373.54 810.34 L 377.71 824.95 L 381.89 806.42 L 386.06 823.14 L 390.24 821.76 L 394.41 829.83 L 398.59 809.77 L 402.76 816.49 L 406.94 800.39 L 411.11 823.56 L 415.29 819.29 L 419.46 822.15 L 423.64 834.81 L 427.81 825.06 L 431.99 827.47 L 436.16 833.54 L 440.34 824.56 L 444.51 827.52 L 448.69 829.55 L 452.86 831.53 L 457.03 822.02 L 461.21 836.24 L 465.38 835.33 L 469.56 830.76 L 473.73 828.64 L 477.91 823.00 L 482.08 807.07 L 486.26 813.75 L 490.43 832.42 L 494.61 829.62 L 498.78 825.62 L 502.96 829.43 L 507.13 827.62 L 511.31 835.15 L 515.48 825.53 L 519.66 838.25 L 523.83 839.71 L 528.01 829.61 L 532.18 838.76 L 536.36 829.07 L 540.53 830.55 L 544.71 833.04 L 548.88 835.82 L 553.06 824.84 L 557.23 813.18 L 561.41 804.42 L 565.58 821.91 L 569.76 818.54 L 573.93 830.35 L 578.10 809.61 L 582.28 822.00 L 586.45 827.45 L 590.63 837.59 L 594.80 830.65 L 598.98 820.31 L 603.15 824.10 L 607.33 817.10 L 611.50 823.84 L 615.68 838.97 L 619.85 830.40 L 624.03 825.97 L 628.20 828.17 L 632.38 811.74 L 636.55 806.17 L 640.73 827.29 L 644.90 837.52 L 649.08 836.63 L 653.25 773.95 L 657.43 786.99 L 661.60 799.45 L 665.78 839.39 L 669.95 800.08 L 674.13 829.78 L 678.30 831.26 L 682.48 813.84 L 686.65 810.45 L 690.83 811.69 L 695.00 833.37 L 699.17 823.21 L 703.35 824.39 L 707.52 829.44 L 711.70 834.82 L 715.87 807.62 L 720.05 817.72 L 724.22 827.42 L 728.40 815.93 L 732.57 819.24 L 736.75 830.84 L 740.92 831.36 L 745.10 823.04 L 749.27 816.60 L 753.45 803.76 L 757.62 839.21 L 761.80 825.68 L 765.97 828.74 L 770.15 824.47 L 774.32 822.12 L 778.50 783.29 L 782.67 820.26 L 786.85 821.69 L 791.02 834.41 L 795.20 822.69 L 799.37 834.53 L 803.55 833.14 L 807.72 821.32 L 811.90 831.59 L 816.07 832.57 L 820.24 837.04 L 824.42 836.45 L 828.59 806.41 L 832.77 824.07 L 836.94 838.09 L 841.12 833.19 L 845.29 833.98 L 849.47 804.63 L 853.64 824.24 L 857.82 827.59 L 861.99 814.48 L 866.17 819.07 L 870.34 823.35 L 874.52 758.11 L 878.69 784.62 L 882.87 816.40 L 887.04 820.37 L 891.22 806.61 L 895.39 829.36 L 899.57 826.78 L 903.74 825.33 L 907.92 836.94 L 912.09 813.21 L 916.27 806.27 L 920.44 834.72 L 924.62 826.62 L 928.79 839.65 L 932.97 832.43 L 937.14 821.74 L 941.31 809.07 L 945.49 809.78 L 949.66 833.50 L 953.84 831.59 L 958.01 833.88 L 962.19 816.57 L 966.36 808.32 L 970.54 805.30 L 974.71 823.15 L 978.89 768.91 L 983.06 832.53 L 987.24 818.36 L 991.41 812.57 L 995.59 833.30 L 999.76 824.87 L 1003.94 790.23 L 1008.11 833.20 L 1012.29 831.02 L 1016.46 802.61 L 1020.64 828.87 L 1024.81 817.88 L 1028.99 778.17 L 1033.16 809.49 L 1037.34 818.29 L 1041.51 823.70 L 1045.69 818.34 L 1049.86 828.32 L 1054.03 777.46 L 1058.21 838.14 L 1062.38 837.38 L 1066.56 835.01 L 1070.73 809.43 L 1074.91 772.77 L 1079.08 770.34 L 1083.26 825.87 L 1087.43 835.95 L 1091.61 831.49 L 1095.78 834.33 L 1099.96 838.74 L 1104.13 836.93 L 1108.31 826.70 L 1112.48 826.50 L 1116.66 787.49 L 1120.83 816.11 L 1125.01 811.36 L 1129.18 829.85 L 1133.36 819.06 L 1137.53 765.22 L 1141.71 835.17 L 1145.88 808.15 L 1150.06 823.07 L 1154.23 830.35 L 1158.41 798.53 L 1162.58 806.49 L 1166.76 818.47 L 1170.93 833.56 L 1175.10 833.10 L 1179.28 812.56 L 1183.45 832.48 L 1187.63 837.80 L 1191.80 815.05 L 1195.98 771.81 L 1200.15 763.38 L 1204.33 834.23 L 1208.50 832.31 L 1212.68 828.40 L 1216.85 800.37 L 1221.03 789.22 L 1225.20 817.34 L 1229.38 799.39 L 1233.55 796.66 L 1237.73 839.06 L 1241.90 826.21 L 1246.08 829.62 L 1250.25 797.19 L 1254.43 835.38 L 1258.60 783.39 L 1262.78 683.98 L 1266.95 740.15 L 1271.13 832.81 L 1275.30 708.60 L 1279.48 776.09 L 1283.65 810.83 L 1287.83 799.76 L 1292.00 822.72" fill="none" stroke="#1d4ed8" stroke-width="2"  />
  </g>
</svg>