<?xml version="1.0" encoding="UTF-8"?>
<svg xmlns="http://www.w3.org/2000/svg" width="1360" height="980" viewBox="0 0 1360 980">
  <defs>
    <linearGradient id="bg" x1="0" y1="0" x2="1" y2="1">
      <stop offset="0%" stop-color="#f4efe6" />
      <stop offset="100%" stop-color="#eef5f2" />
    </linearGradient>
  </defs>
  <rect x="0" y="0" width="1360" height="980" fill="url(#bg)" />
  <text x="46" y="36" fill="#1f2937" font-size="31" font-weight="700">华安日经225ETF（513880）离线研究图（持仓逐日估值版）</text>
  <text x="46" y="66" fill="#5b6b68" font-size="13">历史前十大持仓 + 持仓逐日涨跌幅 + USDCNY；双目标 lambda=0.10；披露期数 20；覆盖率均值 92.3%</text>
  <g>
    <text x="54" y="110" fill="#1f2937" font-size="16" font-weight="700">A. 净值拟合（同日对齐，无平移）</text>
    <line x1="98" y1="130" x2="124" y2="130" stroke="#0f766e" stroke-width="2"  />
      <text x="130" y="134" fill="#24312e" font-size="12">真实净值</text>
<line x1="313" y1="130" x2="339" y2="130" stroke="#1d4ed8" stroke-width="2"  />
      <text x="345" y="134" fill="#24312e" font-size="12">持仓分段估值</text>
    <line x1="98" y1="132.00" x2="1292" y2="132.00" stroke="#d7e3df" stroke-width="1" />
      <text x="90" y="136.00" text-anchor="end" fill="#5b6b68" font-size="11">1.900</text>
<line x1="98" y1="209.50" x2="1292" y2="209.50" stroke="#d7e3df" stroke-width="1" />
      <text x="90" y="213.50" text-anchor="end" fill="#5b6b68" font-size="11">1.701</text>
<line x1="98" y1="287.00" x2="1292" y2="287.00" stroke="#d7e3df" stroke-width="1" />
      <text x="90" y="291.00" text-anchor="end" fill="#5b6b68" font-size="11">1.501</text>
<line x1="98" y1="364.50" x2="1292" y2="364.50" stroke="#d7e3df" stroke-width="1" />
      <text x="90" y="368.50" text-anchor="end" fill="#5b6b68" font-size="11">1.302</text>
<line x1="98" y1="442.00" x2="1292" y2="442.00" stroke="#d7e3df" stroke-width="1" />
      <text x="90" y="446.00" text-anchor="end" fill="#5b6b68" font-size="11">1.103</text>
    <line x1="98.00" y1="132" x2="98.00" y2="442" stroke="#eef3f1" stroke-width="1" />
      <text x="98.00" y="470" text-anchor="middle" fill="#5b6b68" font-size="11">24-06-24</text>
<line x1="289.38" y1="132" x2="289.38" y2="442" stroke="#eef3f1" stroke-width="1" />
      <text x="289.38" y="470" text-anchor="middle" fill="#5b6b68" font-size="11">24-09-26</text>
<line x1="480.77" y1="132" x2="480.77" y2="442" stroke="#eef3f1" stroke-width="1" />
      <text x="480.77" y="470" text-anchor="middle" fill="#5b6b68" font-size="11">25-01-07</text>
<line x1="695.00" y1="132" x2="695.00" y2="442" stroke="#eef3f1" stroke-width="1" />
      <text x="695.00" y="470" text-anchor="middle" fill="#5b6b68" font-size="11">25-05-06</text>
<line x1="909.23" y1="132" x2="909.23" y2="442" stroke="#eef3f1" stroke-width="1" />
      <text x="909.23" y="470" text-anchor="middle" fill="#5b6b68" font-size="11">25-08-20</text>
<line x1="1100.62" y1="132" x2="1100.62" y2="442" stroke="#eef3f1" stroke-width="1" />
      <text x="1100.62" y="470" text-anchor="middle" fill="#5b6b68" font-size="11">25-12-01</text>
<line x1="1292.00" y1="132" x2="1292.00" y2="442" stroke="#eef3f1" stroke-width="1" />
      <text x="1292.00" y="470" text-anchor="middle" fill="#5b6b68" font-size="11">26-03-16</text>
    <line x1="98.00" y1="132" x2="98.00" y2="442" stroke="#f59e0b" stroke-width="1.4" stroke-dasharray="4 4" />
       <text x="104.00" y="124" fill="#a16207" font-size="11">验证起点</text>
    <path d="M 98.00 376.49 L 100.86 372.33 L 103.71 364.87 L 106.57 371.67 L 109.43 369.14 L 112.28 369.18 L 115.14 368.91 L 118.00 364.52 L 120.85 357.79 L 123.71 354.02 L 126.56 353.78 L 129.42 352.81 L 132.28 342.70 L 135.13 340.83 L 137.99 336.67 L 140.85 343.05 L 143.70 341.92 L 146.56 340.21 L 149.42 342.62 L 152.27 347.79 L 155.13 353.78 L 157.99 359.73 L 160.84 357.91 L 163.70 360.94 L 166.56 369.07 L 169.41 374.94 L 172.27 364.87 L 175.12 363.35 L 177.98 351.64 L 180.84 358.41 L 183.69 383.69 L 186.55 439.84 L 189.41 400.14 L 192.26 387.54 L 195.12 394.69 L 197.98 396.17 L 200.83 394.38 L 203.69 380.07 L 206.55 377.97 L 209.40 375.76 L 212.26 363.08 L 215.11 369.11 L 217.97 356.47 L 220.83 352.77 L 223.68 349.74 L 226.54 349.74 L 229.40 347.79 L 232.25 346.59 L 235.11 343.44 L 237.97 344.68 L 240.82 344.29 L 243.68 349.47 L 246.54 349.78 L 249.39 365.84 L 252.25 366.81 L 255.11 370.23 L 257.96 366.73 L 260.82 371.98 L 263.67 375.56 L 266.53 360.20 L 269.39 361.60 L 272.24 366.77 L 275.10 357.91 L 277.96 352.46 L 280.81 356.86 L 283.67 353.55 L 286.53 354.76 L 289.38 347.48 L 292.24 336.44 L 295.10 351.61 L 297.95 352.93 L 300.81 349.93 L 303.67 350.52 L 306.52 346.32 L 309.38 348.73 L 312.23 344.72 L 315.09 349.66 L 317.95 354.37 L 320.80 356.04 L 323.66 354.76 L 326.52 365.33 L 329.37 370.62 L 332.23 374.01 L 335.09 375.83 L 337.94 368.41 L 340.80 366.85 L 343.66 360.36 L 346.51 364.09 L 349.37 374.39 L 352.22 374.43 L 355.08 370.04 L 357.94 356.27 L 360.79 362.07 L 363.65 357.71 L 366.51 354.29 L 369.36 358.26 L 372.22 365.53 L 375.08 371.52 L 377.93 371.79 L 380.79 373.03 L 383.65 370.54 L 386.50 370.82 L 389.36 377.39 L 392.22 370.23 L 395.07 364.48 L 397.93 368.68 L 400.78 369.69 L 403.64 360.94 L 406.50 364.24 L 409.35 356.31 L 412.21 343.94 L 415.07 342.86 L 417.92 345.77 L 420.78 349.08 L 423.64 346.63 L 426.49 347.99 L 429.35 350.28 L 432.21 345.31 L 435.06 351.37 L 437.92 354.64 L 440.78 356.82 L 443.63 357.79 L 446.49 364.24 L 449.34 375.02 L 452.20 367.08 L 455.06 369.84 L 457.91 369.11 L 460.77 363.93 L 463.63 356.12 L 466.48 359.81 L 469.34 357.56 L 472.20 358.61 L 475.05 359.34 L 477.91 367.63 L 480.77 358.57 L 483.62 359.62 L 486.48 364.83 L 489.33 369.49 L 492.19 369.26 L 495.05 377.23 L 497.90 378.87 L 500.76 373.69 L 503.62 371.98 L 506.47 369.11 L 509.33 366.77 L 512.19 360.51 L 515.04 358.06 L 517.90 356.39 L 520.76 362.14 L 523.61 366.77 L 526.47 358.61 L 529.33 356.74 L 532.18 356.97 L 535.04 357.59 L 537.89 358.37 L 540.75 357.13 L 543.61 358.26 L 546.46 355.73 L 549.32 351.80 L 552.18 354.33 L 555.03 357.98 L 557.89 352.27 L 560.75 351.68 L 563.60 359.07 L 566.46 358.64 L 569.32 355.69 L 572.17 370.93 L 575.03 367.67 L 577.89 369.96 L 580.74 371.17 L 583.60 364.21 L 586.45 372.99 L 589.31 369.14 L 592.17 368.72 L 595.02 374.04 L 597.88 373.66 L 600.74 369.42 L 603.59 367.90 L 606.45 364.71 L 609.31 365.68 L 612.16 362.53 L 615.02 363.74 L 617.88 366.89 L 620.73 368.60 L 623.59 362.81 L 626.44 367.74 L 629.30 374.67 L 632.16 388.32 L 635.01 391.66 L 637.87 388.59 L 640.73 397.34 L 643.58 429.62 L 646.44 417.02 L 649.30 427.71 L 652.15 395.16 L 655.01 398.58 L 657.87 390.73 L 660.72 385.24 L 663.58 390.07 L 666.44 380.23 L 669.29 377.12 L 672.15 380.85 L 675.00 378.94 L 677.86 374.59 L 680.72 375.13 L 683.57 365.06 L 686.43 366.77 L 689.29 362.11 L 692.14 359.34 L 695.00 354.06 L 697.86 353.82 L 700.71 351.29 L 703.57 353.12 L 706.43 349.35 L 709.28 351.76 L 712.14 352.03 L 715.00 352.19 L 717.85 349.19 L 720.71 351.80 L 723.56 350.05 L 726.42 350.94 L 729.28 354.29 L 732.13 351.33 L 734.99 343.79 L 737.85 340.29 L 740.70 344.88 L 743.56 339.51 L 746.42 341.73 L 749.27 344.37 L 752.13 343.94 L 754.99 343.24 L 757.84 343.94 L 760.70 342.35 L 763.56 340.83 L 766.41 339.51 L 769.27 340.37 L 772.12 342.39 L 774.98 338.97 L 777.84 336.75 L 780.69 334.26 L 783.55 337.68 L 786.41 341.07 L 789.26 344.57 L 792.12 338.38 L 794.98 333.17 L 797.83 325.47 L 800.69 314.74 L 803.55 309.49 L 806.40 315.83 L 809.26 316.26 L 812.11 317.19 L 814.97 320.65 L 817.83 322.48 L 820.68 325.51 L 823.54 327.07 L 826.40 326.95 L 829.25 329.67 L 832.11 334.11 L 834.97 334.14 L 837.82 337.37 L 840.68 331.27 L 843.54 334.14 L 846.39 334.22 L 849.25 332.43 L 852.11 309.68 L 854.96 300.51 L 857.82 308.56 L 860.67 316.33 L 863.53 323.49 L 866.39 323.68 L 869.24 319.83 L 872.10 328.58 L 874.96 323.88 L 877.81 319.48 L 880.67 318.67 L 883.53 314.47 L 886.38 302.57 L 889.24 304.28 L 892.10 294.36 L 894.95 286.27 L 897.81 291.91 L 900.67 284.68 L 903.52 278.84 L 906.38 282.89 L 909.23 290.63 L 912.09 292.88 L 914.95 296.81 L 917.80 291.91 L 920.66 299.03 L 923.52 296.85 L 926.37 291.64 L 929.23 292.84 L 932.09 300.97 L 934.94 298.95 L 937.80 308.48 L 940.66 298.76 L 943.51 294.59 L 946.37 286.08 L 949.22 284.56 L 952.08 280.13 L 954.94 272.70 L 957.79 267.96 L 960.65 269.32 L 963.51 266.79 L 966.36 264.26 L 969.22 258.31 L 972.08 266.79 L 974.93 260.53 L 977.79 259.71 L 980.65 257.77 L 983.50 258.51 L 986.36 267.84 L 989.22 268.15 L 992.07 266.13 L 994.93 233.81 L 997.78 242.41 L 1000.64 239.26 L 1003.50 255.28 L 1006.35 242.37 L 1009.21 232.10 L 1012.07 239.06 L 1014.92 218.14 L 1017.78 218.41 L 1020.64 221.48 L 1023.49 231.75 L 1026.35 225.57 L 1029.21 212.31 L 1032.06 214.91 L 1034.92 198.11 L 1037.78 201.03 L 1040.63 191.66 L 1043.49 192.08 L 1046.34 201.84 L 1049.20 215.73 L 1052.06 210.94 L 1054.91 212.42 L 1057.77 209.89 L 1060.63 212.27 L 1063.48 210.01 L 1066.34 209.62 L 1069.20 220.12 L 1072.05 221.33 L 1074.91 243.57 L 1077.77 245.87 L 1080.62 235.76 L 1083.48 251.62 L 1086.33 248.98 L 1089.19 251.82 L 1092.05 238.21 L 1094.90 232.68 L 1097.76 231.13 L 1100.62 241.78 L 1103.47 239.41 L 1106.33 234.98 L 1109.19 218.84 L 1112.04 223.86 L 1114.90 222.49 L 1117.76 224.91 L 1120.61 230.00 L 1123.47 231.71 L 1126.33 221.37 L 1129.18 230.93 L 1132.04 237.89 L 1134.89 236.84 L 1137.75 246.14 L 1140.61 240.27 L 1143.46 237.54 L 1146.32 234.55 L 1149.18 233.15 L 1152.03 232.49 L 1154.89 227.90 L 1157.75 232.88 L 1160.60 233.46 L 1163.46 235.83 L 1166.32 219.11 L 1169.17 210.24 L 1172.03 217.59 L 1174.89 226.97 L 1177.74 218.80 L 1180.60 221.33 L 1183.45 204.22 L 1186.31 197.64 L 1189.17 200.37 L 1192.02 202.62 L 1194.88 203.75 L 1197.74 213.98 L 1200.59 216.31 L 1203.45 204.26 L 1206.31 204.37 L 1209.16 204.02 L 1212.02 194.57 L 1214.88 189.63 L 1217.73 189.59 L 1220.59 189.63 L 1223.44 204.84 L 1226.30 181.70 L 1229.16 189.32 L 1232.01 199.12 L 1234.87 194.03 L 1237.73 170.81 L 1240.58 152.03 L 1243.44 144.64 L 1246.30 138.07 L 1249.15 145.92 L 1252.01 148.02 L 1254.87 139.47 L 1257.72 140.32 L 1260.58 138.88 L 1263.44 151.72 L 1266.29 174.62 L 1269.15 201.69 L 1272.00 186.44 L 1274.86 185.51 L 1277.72 223.23 L 1280.57 204.14 L 1283.43 197.64 L 1286.29 206.67 L 1289.14 216.31 L 1292.00 216.97" fill="none" stroke="#0f766e" stroke-width="2"  />
<path d="M 98.00 377.96 L 100.86 373.45 L 103.71 371.93 L 106.57 363.50 L 109.43 369.88 L 112.28 369.27 L 115.14 368.73 L 118.00 365.60 L 120.85 362.55 L 123.71 357.63 L 126.56 353.81 L 129.42 355.77 L 132.28 351.38 L 135.13 339.70 L 137.99 342.56 L 140.85 335.40 L 143.70 348.74 L 146.56 338.83 L 149.42 341.29 L 152.27 343.81 L 155.13 348.00 L 157.99 357.65 L 160.84 359.80 L 163.70 360.03 L 166.56 363.17 L 169.41 366.59 L 172.27 379.23 L 175.12 364.67 L 177.98 359.23 L 180.84 356.13 L 183.69 362.04 L 186.55 422.12 L 189.41 439.46 L 192.26 399.04 L 195.12 384.57 L 197.98 394.44 L 200.83 397.57 L 203.69 390.76 L 206.55 379.61 L 209.40 375.27 L 212.26 374.30 L 215.11 353.59 L 217.97 369.47 L 220.83 353.68 L 223.68 352.65 L 226.54 347.69 L 229.40 357.07 L 232.25 344.94 L 235.11 346.26 L 237.97 342.94 L 240.82 342.59 L 243.68 344.80 L 246.54 348.38 L 249.39 352.01 L 252.25 364.61 L 255.11 370.35 L 257.96 363.18 L 260.82 366.79 L 263.67 370.72 L 266.53 373.36 L 269.39 361.58 L 272.24 365.75 L 275.10 363.51 L 277.96 357.09 L 280.81 350.39 L 283.67 358.22 L 286.53 353.00 L 289.38 350.78 L 292.24 352.77 L 295.10 329.07 L 297.95 362.28 L 300.81 352.33 L 303.67 348.68 L 306.52 349.44 L 309.38 345.19 L 312.23 350.11 L 315.09 342.67 L 317.95 349.06 L 320.80 353.29 L 323.66 362.98 L 326.52 355.80 L 329.37 367.44 L 332.23 369.43 L 335.09 373.13 L 337.94 377.95 L 340.80 366.05 L 343.66 366.70 L 346.51 360.81 L 349.37 363.63 L 352.22 382.19 L 355.08 371.49 L 357.94 368.27 L 360.79 354.65 L 363.65 363.21 L 366.51 351.10 L 369.36 355.32 L 372.22 359.64 L 375.08 363.90 L 377.93 371.82 L 380.79 370.70 L 383.65 373.09 L 386.50 370.95 L 389.36 370.22 L 392.22 375.65 L 395.07 364.45 L 397.93 364.74 L 400.78 369.06 L 403.64 369.45 L 406.50 360.87 L 409.35 359.69 L 412.21 353.25 L 415.07 344.75 L 417.92 342.99 L 420.78 345.32 L 423.64 351.69 L 426.49 347.47 L 429.35 344.44 L 432.21 351.79 L 435.06 346.20 L 437.92 355.21 L 440.78 356.58 L 443.63 359.00 L 446.49 355.77 L 449.34 364.33 L 452.20 382.83 L 455.06 367.22 L 457.91 369.86 L 460.77 368.94 L 463.63 362.51 L 466.48 350.47 L 469.34 358.74 L 472.20 356.70 L 475.05 356.95 L 477.91 360.21 L 480.77 368.03 L 483.62 358.24 L 486.48 359.24 L 489.33 364.79 L 492.19 373.36 L 495.05 369.47 L 497.90 374.89 L 500.76 380.00 L 503.62 372.33 L 506.47 371.88 L 509.33 369.82 L 512.19 367.05 L 515.04 358.43 L 517.90 357.33 L 520.76 356.04 L 523.61 360.06 L 526.47 365.38 L 529.33 360.60 L 532.18 356.27 L 535.04 356.31 L 537.89 360.29 L 540.75 355.53 L 543.61 357.49 L 546.46 360.30 L 549.32 354.95 L 552.18 352.34 L 555.03 354.71 L 557.89 359.40 L 560.75 349.45 L 563.60 348.69 L 566.46 358.90 L 569.32 358.74 L 572.17 355.99 L 575.03 380.25 L 577.89 369.36 L 580.74 367.32 L 583.60 372.48 L 586.45 362.91 L 589.31 382.45 L 592.17 370.41 L 595.02 366.18 L 597.88 374.58 L 600.74 371.11 L 603.59 363.28 L 606.45 368.35 L 609.31 362.67 L 612.16 366.13 L 615.02 362.05 L 617.88 364.02 L 620.73 365.72 L 623.59 369.75 L 626.44 362.70 L 629.30 369.52 L 632.16 380.04 L 635.01 388.71 L 637.87 391.51 L 640.73 390.75 L 643.58 432.96 L 646.44 428.59 L 649.30 409.23 L 652.15 432.30 L 655.01 391.01 L 657.87 396.01 L 660.72 389.01 L 663.58 386.66 L 666.44 387.58 L 669.29 379.83 L 672.15 374.13 L 675.00 377.52 L 677.86 379.23 L 680.72 372.49 L 683.57 373.48 L 686.43 353.66 L 689.29 366.02 L 692.14 362.69 L 695.00 357.09 L 697.86 354.17 L 700.71 353.40 L 703.57 350.27 L 706.43 354.55 L 709.28 350.48 L 712.14 353.01 L 715.00 349.42 L 717.85 351.04 L 720.71 346.34 L 723.56 350.23 L 726.42 351.15 L 729.28 350.16 L 732.13 353.24 L 734.99 349.47 L 737.85 342.95 L 740.70 342.67 L 743.56 343.51 L 746.42 338.18 L 749.27 343.04 L 752.13 344.22 L 754.99 345.05 L 757.84 341.15 L 760.70 344.24 L 763.56 341.74 L 766.41 340.66 L 769.27 338.12 L 772.12 340.93 L 774.98 344.14 L 777.84 340.03 L 780.69 334.39 L 783.55 333.82 L 786.41 337.46 L 789.26 342.19 L 792.12 343.35 L 794.98 338.81 L 797.83 330.24 L 800.69 322.64 L 803.55 307.07 L 806.40 310.12 L 809.26 314.91 L 812.11 315.03 L 814.97 316.55 L 817.83 322.83 L 820.68 320.72 L 823.54 324.48 L 826.40 327.53 L 829.25 327.66 L 832.11 331.38 L 834.97 334.97 L 837.82 333.11 L 840.68 335.92 L 843.54 332.22 L 846.39 335.12 L 849.25 333.11 L 852.11 326.70 L 854.96 308.93 L 857.82 301.23 L 860.67 318.60 L 863.53 316.61 L 866.39 322.20 L 869.24 323.07 L 872.10 317.13 L 874.96 334.50 L 877.81 323.49 L 880.67 316.44 L 883.53 317.31 L 886.38 311.54 L 889.24 294.15 L 892.10 301.18 L 894.95 294.34 L 897.81 286.73 L 900.67 287.43 L 903.52 280.31 L 906.38 278.56 L 909.23 283.21 L 912.09 292.31 L 914.95 288.71 L 917.80 305.14 L 920.66 291.76 L 923.52 299.45 L 926.37 295.92 L 929.23 293.88 L 932.09 293.25 L 934.94 300.20 L 937.80 299.06 L 940.66 305.70 L 943.51 297.06 L 946.37 283.78 L 949.22 288.81 L 952.08 283.24 L 954.94 276.35 L 957.79 273.78 L 960.65 264.23 L 963.51 269.44 L 966.36 267.14 L 969.22 261.94 L 972.08 259.29 L 974.93 272.78 L 977.79 260.52 L 980.65 259.20 L 983.50 257.99 L 986.36 257.27 L 989.22 274.30 L 992.07 268.56 L 994.93 259.00 L 997.78 239.69 L 1000.64 240.82 L 1003.50 236.41 L 1006.35 252.13 L 1009.21 241.70 L 1012.07 230.05 L 1014.92 234.71 L 1017.78 220.22 L 1020.64 218.37 L 1023.49 220.74 L 1026.35 230.52 L 1029.21 215.96 L 1032.06 211.90 L 1034.92 216.68 L 1037.78 196.27 L 1040.63 199.98 L 1043.49 180.30 L 1046.34 193.37 L 1049.20 201.07 L 1052.06 215.50 L 1054.91 209.16 L 1057.77 210.13 L 1060.63 209.54 L 1063.48 209.89 L 1066.34 214.00 L 1069.20 206.06 L 1072.05 229.32 L 1074.91 225.37 L 1077.77 243.60 L 1080.62 248.84 L 1083.48 232.15 L 1086.33 258.89 L 1089.19 249.19 L 1092.05 248.49 L 1094.90 238.15 L 1097.76 232.91 L 1100.62 227.06 L 1103.47 241.93 L 1106.33 239.29 L 1109.19 231.68 L 1112.04 218.19 L 1114.90 225.99 L 1117.76 221.50 L 1120.61 222.87 L 1123.47 229.34 L 1126.33 231.94 L 1129.18 210.43 L 1132.04 237.08 L 1134.89 239.78 L 1137.75 236.17 L 1140.61 247.23 L 1143.46 235.61 L 1146.32 232.22 L 1149.18 235.20 L 1152.03 232.91 L 1154.89 232.16 L 1157.75 224.26 L 1160.60 233.08 L 1163.46 233.61 L 1166.32 222.89 L 1169.17 219.00 L 1172.03 209.50 L 1174.89 217.24 L 1177.74 223.46 L 1180.60 212.60 L 1183.45 222.38 L 1186.31 202.28 L 1189.17 196.23 L 1192.02 199.37 L 1194.88 205.53 L 1197.74 203.45 L 1200.59 210.83 L 1203.45 215.38 L 1206.31 205.63 L 1209.16 205.02 L 1212.02 200.92 L 1214.88 195.83 L 1217.73 186.72 L 1220.59 188.89 L 1223.44 190.34 L 1226.30 202.09 L 1229.16 177.79 L 1232.01 191.63 L 1234.87 192.78 L 1237.73 186.26 L 1240.58 166.48 L 1243.44 149.40 L 1246.30 145.43 L 1249.15 135.68 L 1252.01 168.43 L 1254.87 144.19 L 1257.72 139.84 L 1260.58 138.96 L 1263.44 143.78 L 1266.29 156.33 L 1269.15 171.10 L 1272.00 205.71 L 1274.86 187.88 L 1277.72 182.84 L 1280.57 222.01 L 1283.43 205.13 L 1286.29 200.63 L 1289.14 206.97 L 1292.00 216.86" fill="none" stroke="#1d4ed8" stroke-width="2"  />
  </g>
  <g>
    <text x="54" y="538" fill="#1f2937" font-size="16" font-weight="700">B. 绝对误差（越低越好）</text>
    <line x1="98" y1="558" x2="124" y2="558" stroke="#1d4ed8" stroke-width="2"  />
      <text x="130" y="562" fill="#24312e" font-size="12">持仓分段误差</text>
    <line x1="98" y1="560.00" x2="1292" y2="560.00" stroke="#d7e3df" stroke-width="1" />
      <text x="90" y="564.00" text-anchor="end" fill="#5b6b68" font-size="11">9.35%</text>
<line x1="98" y1="630.00" x2="1292" y2="630.00" stroke="#d7e3df" stroke-width="1" />
      <text x="90" y="634.00" text-anchor="end" fill="#5b6b68" font-size="11">7.02%</text>
<line x1="98" y1="700.00" x2="1292" y2="700.00" stroke="#d7e3df" stroke-width="1" />
      <text x="90" y="704.00" text-anchor="end" fill="#5b6b68" font-size="11">4.68%</text>
<line x1="98" y1="770.00" x2="1292" y2="770.00" stroke="#d7e3df" stroke-width="1" />
      <text x="90" y="774.00" text-anchor="end" fill="#5b6b68" font-size="11">2.34%</text>
<line x1="98" y1="840.00" x2="1292" y2="840.00" stroke="#d7e3df" stroke-width="1" />
      <text x="90" y="844.00" text-anchor="end" fill="#5b6b68" font-size="11">0.00%</text>
    <line x1="98.00" y1="560" x2="98.00" y2="840" stroke="#eef3f1" stroke-width="1" />
      <text x="98.00" y="868" text-anchor="middle" fill="#5b6b68" font-size="11">24-06-24</text>
<line x1="289.38" y1="560" x2="289.38" y2="840" stroke="#eef3f1" stroke-width="1" />
      <text x="289.38" y="868" text-anchor="middle" fill="#5b6b68" font-size="11">24-09-26</text>
<line x1="480.77" y1="560" x2="480.77" y2="840" stroke="#eef3f1" stroke-width="1" />
      <text x="480.77" y="868" text-anchor="middle" fill="#5b6b68" font-size="11">25-01-07</text>
<line x1="695.00" y1="560" x2="695.00" y2="840" stroke="#eef3f1" stroke-width="1" />
      <text x="695.00" y="868" text-anchor="middle" fill="#5b6b68" font-size="11">25-05-06</text>
<line x1="909.23" y1="560" x2="909.23" y2="840" stroke="#eef3f1" stroke-width="1" />
      <text x="909.23" y="868" text-anchor="middle" fill="#5b6b68" font-size="11">25-08-20</text>
<line x1="1100.62" y1="560" x2="1100.62" y2="840" stroke="#eef3f1" stroke-width="1" />
      <text x="1100.62" y="868" text-anchor="middle" fill="#5b6b68" font-size="11">25-12-01</text>
<line x1="1292.00" y1="560" x2="1292.00" y2="840" stroke="#eef3f1" stroke-width="1" />
      <text x="1292.00" y="868" text-anchor="middle" fill="#5b6b68" font-size="11">26-03-16</text>
    <line x1="98.00" y1="560" x2="98.00" y2="840" stroke="#f59e0b" stroke-width="1.4" stroke-dasharray="4 4" />
       <text x="104.00" y="552" fill="#a16207" font-size="11">验证起点</text>
    <path d="M 98.00 831.15 L 100.86 833.29 L 103.71 798.20 L 106.57 791.01 L 109.43 835.63 L 112.28 839.50 L 115.14 838.93 L 118.00 833.59 L 120.85 812.22 L 123.71 819.09 L 126.56 839.86 L 129.42 822.94 L 132.28 790.82 L 135.13 833.62 L 137.99 807.01 L 140.85 796.62 L 143.70 801.44 L 146.56 832.20 L 149.42 832.46 L 152.27 817.20 L 155.13 806.50 L 157.99 827.80 L 160.84 828.97 L 163.70 834.66 L 166.56 804.84 L 169.41 789.63 L 172.27 755.06 L 175.12 832.21 L 177.98 796.28 L 180.84 826.65 L 183.69 706.99 L 186.55 716.93 L 189.41 590.00 L 192.26 768.76 L 195.12 776.36 L 197.98 829.10 L 200.83 819.96 L 203.69 774.85 L 206.55 830.07 L 209.40 837.07 L 212.26 773.87 L 215.11 747.46 L 217.97 764.32 L 220.83 834.77 L 223.68 823.30 L 226.54 828.23 L 229.40 786.90 L 232.25 830.58 L 235.11 823.99 L 237.97 830.06 L 240.82 830.30 L 243.68 813.22 L 246.54 831.98 L 249.39 758.05 L 252.25 826.95 L 255.11 839.28 L 257.96 818.90 L 260.82 808.82 L 263.67 810.76 L 266.53 762.88 L 269.39 839.86 L 272.24 833.95 L 275.10 807.31 L 277.96 813.26 L 280.81 802.37 L 283.67 812.95 L 286.53 829.83 L 289.38 821.17 L 292.24 748.57 L 295.10 710.12 L 297.95 785.93 L 300.81 826.21 L 303.67 829.43 L 306.52 822.20 L 309.38 819.70 L 312.23 809.33 L 315.09 799.84 L 317.95 809.24 L 320.80 824.04 L 323.66 792.29 L 326.52 783.54 L 329.37 820.99 L 332.23 812.43 L 335.09 823.66 L 337.94 783.13 L 340.80 835.23 L 343.66 802.81 L 346.51 820.61 L 349.37 775.10 L 352.22 793.22 L 355.08 831.35 L 357.94 770.21 L 360.79 796.36 L 363.65 807.95 L 366.51 821.52 L 369.36 822.87 L 372.22 805.11 L 375.08 794.33 L 377.93 839.84 L 380.79 825.98 L 383.65 824.79 L 386.50 839.21 L 389.36 796.52 L 392.22 807.62 L 395.07 839.84 L 397.93 816.51 L 400.78 836.23 L 403.64 790.07 L 406.50 820.04 L 409.35 820.33 L 412.21 787.13 L 415.07 829.26 L 417.92 824.13 L 420.78 818.43 L 423.64 811.08 L 426.49 837.02 L 429.35 806.38 L 432.21 803.07 L 435.06 810.20 L 437.92 836.71 L 440.78 838.61 L 443.63 832.95 L 446.49 789.96 L 449.34 775.50 L 452.20 746.44 L 455.06 824.32 L 457.91 835.49 L 460.77 810.42 L 463.63 802.83 L 466.48 785.28 L 469.34 833.09 L 472.20 828.85 L 475.05 826.00 L 477.91 795.89 L 480.77 784.73 L 483.62 831.97 L 486.48 806.93 L 489.33 811.89 L 492.19 815.54 L 495.05 792.93 L 497.90 815.79 L 500.76 802.07 L 503.62 837.94 L 506.47 823.47 L 509.33 821.93 L 512.19 801.66 L 515.04 837.84 L 517.90 834.54 L 520.76 804.09 L 523.61 800.12 L 526.47 800.43 L 529.33 817.52 L 532.18 835.90 L 535.04 832.53 L 537.89 828.80 L 540.75 830.70 L 543.61 835.56 L 546.46 813.44 L 549.32 821.87 L 552.18 828.49 L 555.03 820.88 L 557.89 798.84 L 560.75 827.10 L 563.60 779.28 L 566.46 838.53 L 569.32 822.25 L 572.17 750.55 L 575.03 765.18 L 577.89 836.39 L 580.74 816.97 L 583.60 791.12 L 586.45 779.35 L 589.31 760.60 L 592.17 829.89 L 595.02 792.59 L 597.88 834.46 L 600.74 829.87 L 603.59 812.53 L 606.45 818.48 L 609.31 822.12 L 612.16 818.85 L 615.02 830.04 L 617.88 822.96 L 620.73 822.85 L 623.59 799.06 L 626.44 809.96 L 629.30 808.96 L 632.16 788.64 L 635.01 821.55 L 637.87 821.88 L 640.73 798.33 L 643.58 817.34 L 646.44 763.70 L 649.30 715.18 L 652.15 606.35 L 655.01 791.99 L 657.87 807.08 L 660.72 816.78 L 663.58 818.80 L 666.44 795.18 L 669.29 823.57 L 672.15 798.94 L 675.00 831.33 L 677.86 812.01 L 680.72 824.01 L 683.57 790.17 L 686.43 762.16 L 689.29 816.97 L 692.14 820.44 L 695.00 822.43 L 697.86 837.96 L 700.71 827.87 L 703.57 823.52 L 706.43 810.17 L 709.28 832.58 L 712.14 834.34 L 715.00 824.00 L 717.85 829.41 L 720.71 808.52 L 723.56 838.94 L 726.42 838.82 L 729.28 816.07 L 732.13 829.00 L 734.99 807.77 L 737.85 824.97 L 740.70 827.43 L 743.56 817.48 L 746.42 819.91 L 749.27 832.45 L 752.13 838.46 L 754.99 829.77 L 757.84 824.10 L 760.70 829.29 L 763.56 834.88 L 766.41 833.55 L 769.27 827.35 L 772.12 831.74 L 774.98 810.90 L 777.84 821.62 L 780.69 839.28 L 783.55 818.31 L 786.41 819.63 L 789.26 826.51 L 792.12 812.10 L 794.98 808.63 L 797.83 813.85 L 800.69 797.47 L 803.55 827.10 L 806.40 809.22 L 809.26 832.72 L 812.11 828.35 L 814.97 817.72 L 817.83 838.10 L 820.68 813.71 L 823.54 825.74 L 826.40 836.82 L 829.25 828.89 L 832.11 824.80 L 834.97 835.40 L 837.82 816.08 L 840.68 814.18 L 843.54 829.25 L 846.39 834.97 L 849.25 836.24 L 852.11 749.26 L 854.96 795.81 L 857.82 800.99 L 860.67 827.77 L 863.53 802.40 L 866.39 831.87 L 869.24 822.41 L 872.10 776.79 L 874.96 781.86 L 877.81 818.26 L 880.67 827.95 L 883.53 824.73 L 886.38 792.73 L 889.24 786.52 L 892.10 804.60 L 894.95 798.67 L 897.81 813.20 L 900.67 825.94 L 903.52 832.60 L 906.38 817.96 L 909.23 801.74 L 912.09 837.05 L 914.95 797.77 L 917.80 771.60 L 920.66 801.98 L 923.52 826.45 L 926.37 817.89 L 929.23 834.66 L 932.09 799.45 L 934.94 833.45 L 937.80 789.88 L 940.66 803.67 L 943.51 827.22 L 946.37 828.23 L 949.22 818.30 L 952.08 824.25 L 954.94 821.72 L 957.79 811.10 L 960.65 814.70 L 963.51 826.89 L 966.36 825.82 L 969.22 822.28 L 972.08 802.86 L 974.93 779.93 L 977.79 836.03 L 980.65 833.00 L 983.50 837.46 L 986.36 787.54 L 989.22 809.44 L 992.07 827.95 L 994.93 721.66 L 997.78 827.07 L 1000.64 832.59 L 1003.50 748.24 L 1006.35 793.50 L 1009.21 795.01 L 1012.07 797.33 L 1014.92 764.02 L 1017.78 831.72 L 1020.64 825.67 L 1023.49 788.44 L 1026.35 817.02 L 1029.21 823.40 L 1032.06 826.28 L 1034.92 757.38 L 1037.78 818.74 L 1040.63 803.33 L 1043.49 788.02 L 1046.34 802.10 L 1049.20 773.02 L 1052.06 819.34 L 1054.91 825.18 L 1057.77 838.95 L 1060.63 827.62 L 1063.48 839.47 L 1066.34 820.19 L 1069.20 775.33 L 1072.05 803.17 L 1074.91 753.16 L 1077.77 829.15 L 1080.62 778.33 L 1083.48 745.87 L 1086.33 792.31 L 1089.19 827.30 L 1092.05 791.36 L 1094.90 814.39 L 1097.76 831.68 L 1100.62 769.96 L 1103.47 828.05 L 1106.33 819.70 L 1109.19 781.03 L 1112.04 813.80 L 1114.90 823.87 L 1117.76 824.22 L 1120.61 806.69 L 1123.47 828.87 L 1126.33 791.26 L 1129.18 744.08 L 1132.04 836.14 L 1134.89 826.14 L 1137.75 792.25 L 1140.61 806.96 L 1143.46 830.85 L 1146.32 829.03 L 1149.18 830.36 L 1152.03 838.05 L 1154.89 820.17 L 1157.75 799.56 L 1160.60 838.20 L 1163.46 829.50 L 1166.32 822.66 L 1169.17 800.34 L 1172.03 802.90 L 1174.89 794.77 L 1177.74 818.63 L 1180.60 799.80 L 1183.45 758.44 L 1186.31 819.41 L 1189.17 821.55 L 1192.02 825.43 L 1194.88 832.02 L 1197.74 792.03 L 1200.59 814.96 L 1203.45 790.05 L 1206.31 834.36 L 1209.16 835.51 L 1212.02 811.90 L 1214.88 812.77 L 1217.73 827.38 L 1220.59 836.73 L 1223.44 774.82 L 1226.30 751.44 L 1229.16 789.35 L 1232.01 806.61 L 1234.87 834.48 L 1237.73 773.96 L 1240.58 779.83 L 1243.44 820.39 L 1246.30 809.91 L 1249.15 797.70 L 1252.01 755.49 L 1254.87 820.67 L 1257.72 838.01 L 1260.58 839.69 L 1263.44 806.98 L 1266.29 761.38 L 1269.15 703.18 L 1272.00 755.76 L 1274.86 829.68 L 1277.72 653.31 L 1280.57 759.77 L 1283.43 806.72 L 1286.29 812.81 L 1289.14 797.27 L 1292.00 839.49" fill="none" stroke="#1d4ed8" stroke-width="2"  />
  </g>
</svg>