<?xml version="1.0" encoding="UTF-8"?>
<svg xmlns="http://www.w3.org/2000/svg" width="1360" height="980" viewBox="0 0 1360 980">
  <defs>
    <linearGradient id="bg" x1="0" y1="0" x2="1" y2="1">
      <stop offset="0%" stop-color="#f4efe6" />
      <stop offset="100%" stop-color="#eef5f2" />
    </linearGradient>
  </defs>
  <rect x="0" y="0" width="1360" height="980" fill="url(#bg)" />
  <text x="46" y="36" fill="#1f2937" font-size="31" font-weight="700">520580 离线研究图（持仓逐日估值版）</text>
  <text x="46" y="66" fill="#5b6b68" font-size="13">历史前十大持仓 + 持仓逐日涨跌幅 + USDCNY；双目标 lambda=0.10；披露期数 4；覆盖率均值 81.1%</text>
  <g>
    <text x="54" y="110" fill="#1f2937" font-size="16" font-weight="700">A. 净值拟合（同日对齐，无平移）</text>
    <line x1="98" y1="130" x2="124" y2="130" stroke="#0f766e" stroke-width="2"  />
      <text x="130" y="134" fill="#24312e" font-size="12">真实净值</text>
<line x1="313" y1="130" x2="339" y2="130" stroke="#1d4ed8" stroke-width="2"  />
      <text x="345" y="134" fill="#24312e" font-size="12">持仓分段估值</text>
    <line x1="98" y1="132.00" x2="1292" y2="132.00" stroke="#d7e3df" stroke-width="1" />
      <text x="90" y="136.00" text-anchor="end" fill="#5b6b68" font-size="11">1.070</text>
<line x1="98" y1="209.50" x2="1292" y2="209.50" stroke="#d7e3df" stroke-width="1" />
      <text x="90" y="213.50" text-anchor="end" fill="#5b6b68" font-size="11">1.027</text>
<line x1="98" y1="287.00" x2="1292" y2="287.00" stroke="#d7e3df" stroke-width="1" />
      <text x="90" y="291.00" text-anchor="end" fill="#5b6b68" font-size="11">0.985</text>
<line x1="98" y1="364.50" x2="1292" y2="364.50" stroke="#d7e3df" stroke-width="1" />
      <text x="90" y="368.50" text-anchor="end" fill="#5b6b68" font-size="11">0.943</text>
<line x1="98" y1="442.00" x2="1292" y2="442.00" stroke="#d7e3df" stroke-width="1" />
      <text x="90" y="446.00" text-anchor="end" fill="#5b6b68" font-size="11">0.901</text>
    <line x1="98.00" y1="132" x2="98.00" y2="442" stroke="#eef3f1" stroke-width="1" />
      <text x="98.00" y="470" text-anchor="middle" fill="#5b6b68" font-size="11">25-01-17</text>
<line x1="288.68" y1="132" x2="288.68" y2="442" stroke="#eef3f1" stroke-width="1" />
      <text x="288.68" y="470" text-anchor="middle" fill="#5b6b68" font-size="11">25-04-11</text>
<line x1="479.35" y1="132" x2="479.35" y2="442" stroke="#eef3f1" stroke-width="1" />
      <text x="479.35" y="470" text-anchor="middle" fill="#5b6b68" font-size="11">25-06-16</text>
<line x1="697.27" y1="132" x2="697.27" y2="442" stroke="#eef3f1" stroke-width="1" />
      <text x="697.27" y="470" text-anchor="middle" fill="#5b6b68" font-size="11">25-08-21</text>
<line x1="910.65" y1="132" x2="910.65" y2="442" stroke="#eef3f1" stroke-width="1" />
      <text x="910.65" y="470" text-anchor="middle" fill="#5b6b68" font-size="11">25-11-04</text>
<line x1="1101.32" y1="132" x2="1101.32" y2="442" stroke="#eef3f1" stroke-width="1" />
      <text x="1101.32" y="470" text-anchor="middle" fill="#5b6b68" font-size="11">26-01-05</text>
<line x1="1292.00" y1="132" x2="1292.00" y2="442" stroke="#eef3f1" stroke-width="1" />
      <text x="1292.00" y="470" text-anchor="middle" fill="#5b6b68" font-size="11">26-03-12</text>
    <line x1="1101.32" y1="132" x2="1101.32" y2="442" stroke="#f59e0b" stroke-width="1.4" stroke-dasharray="4 4" />
       <text x="1107.32" y="124" fill="#a16207" font-size="11">验证起点</text>
    <path d="M 98.00 259.62 L 102.54 264.21 L 107.08 262.55 L 111.62 262.74 L 116.16 286.40 L 120.70 297.96 L 125.24 310.80 L 129.78 314.10 L 134.32 324.19 L 138.86 337.76 L 143.40 353.72 L 147.94 355.92 L 152.48 357.94 L 157.02 388.57 L 161.56 379.22 L 166.10 389.67 L 170.64 361.06 L 175.18 361.98 L 179.72 357.57 L 184.26 377.02 L 188.80 388.94 L 193.34 391.33 L 197.88 393.71 L 202.42 395.73 L 206.96 381.24 L 211.50 382.89 L 216.04 372.62 L 220.58 366.75 L 225.12 353.35 L 229.66 342.53 L 234.20 338.50 L 238.74 324.92 L 243.28 317.40 L 247.82 317.95 L 252.36 320.70 L 256.90 343.45 L 261.44 333.18 L 265.98 339.23 L 270.52 403.98 L 275.06 431.13 L 279.60 422.69 L 284.14 423.79 L 288.68 429.66 L 293.22 433.70 L 297.76 336.48 L 302.30 337.21 L 306.84 343.08 L 311.38 343.45 L 315.92 313.55 L 320.46 299.24 L 325.00 291.72 L 329.54 299.24 L 334.08 299.79 L 338.62 279.06 L 343.16 269.34 L 347.70 268.97 L 352.24 229.17 L 356.78 210.64 L 361.32 242.93 L 365.86 240.18 L 370.40 249.35 L 374.94 231.00 L 379.48 210.09 L 384.02 196.70 L 388.56 195.23 L 393.10 196.15 L 397.63 206.79 L 402.17 206.06 L 406.71 216.33 L 411.25 220.55 L 415.79 194.32 L 420.33 211.38 L 424.87 220.00 L 429.41 214.86 L 433.95 212.66 L 438.49 243.84 L 443.03 259.62 L 447.57 243.84 L 452.11 237.61 L 456.65 236.14 L 461.19 230.82 L 465.73 225.68 L 470.27 238.34 L 474.81 256.32 L 479.35 248.98 L 483.89 259.99 L 488.43 259.07 L 492.97 294.66 L 497.51 288.79 L 502.05 292.45 L 506.59 259.07 L 511.13 252.83 L 515.67 236.32 L 520.21 247.70 L 524.75 252.65 L 529.29 233.76 L 533.83 236.51 L 538.37 237.97 L 542.91 231.55 L 547.45 241.09 L 551.99 241.46 L 556.53 238.71 L 561.07 245.86 L 565.61 249.90 L 570.15 250.26 L 574.69 237.06 L 579.23 242.01 L 583.77 217.98 L 588.31 214.31 L 592.85 205.69 L 597.39 213.21 L 601.93 194.13 L 606.47 202.94 L 611.01 199.27 L 615.55 222.57 L 620.09 218.16 L 624.63 227.34 L 629.17 235.77 L 633.71 248.98 L 638.25 237.97 L 642.79 229.35 L 647.33 231.00 L 651.87 226.23 L 656.41 224.95 L 660.95 225.13 L 665.49 217.43 L 670.03 191.38 L 674.57 201.84 L 679.11 199.64 L 683.65 196.52 L 688.19 199.82 L 692.73 191.38 L 697.27 189.73 L 701.81 198.35 L 706.35 191.02 L 710.89 213.39 L 715.43 214.13 L 719.97 229.35 L 724.51 231.74 L 729.05 246.60 L 733.59 246.41 L 738.13 235.41 L 742.67 243.11 L 747.21 239.81 L 751.75 241.09 L 756.29 244.94 L 760.83 236.14 L 765.37 218.35 L 769.91 203.49 L 774.45 204.77 L 778.99 195.42 L 783.53 181.48 L 788.07 195.42 L 792.61 201.84 L 797.15 208.26 L 801.69 214.86 L 806.23 221.65 L 810.77 237.24 L 815.31 250.81 L 819.85 253.38 L 824.39 260.17 L 828.93 210.09 L 833.47 210.83 L 838.01 236.32 L 842.55 243.29 L 847.09 218.71 L 851.63 205.14 L 856.17 204.96 L 860.71 205.87 L 865.25 207.34 L 869.79 205.69 L 874.33 174.69 L 878.87 161.12 L 883.41 160.20 L 887.95 171.20 L 892.49 156.16 L 897.03 165.33 L 901.57 175.42 L 906.11 162.95 L 910.65 166.62 L 915.19 166.07 L 919.73 159.46 L 924.27 159.65 L 928.81 166.80 L 933.35 166.07 L 937.89 166.99 L 942.43 167.17 L 946.97 170.29 L 951.51 153.41 L 956.05 158.91 L 960.59 148.27 L 965.13 142.59 L 969.67 159.10 L 974.21 166.62 L 978.75 160.20 L 983.29 164.23 L 987.83 164.05 L 992.37 161.48 L 996.90 153.59 L 1001.44 154.14 L 1005.98 167.35 L 1010.52 166.25 L 1015.06 173.77 L 1019.60 185.33 L 1024.14 185.15 L 1028.68 187.35 L 1033.22 194.13 L 1037.76 193.22 L 1042.30 185.33 L 1046.84 206.61 L 1051.38 205.69 L 1055.92 200.92 L 1060.46 183.68 L 1065.00 157.45 L 1069.54 173.77 L 1074.08 177.44 L 1078.62 179.64 L 1083.16 186.80 L 1087.70 198.72 L 1092.24 203.86 L 1096.78 203.31 L 1101.32 189.36 L 1105.86 193.40 L 1110.40 184.41 L 1114.94 219.26 L 1119.48 225.50 L 1124.02 220.18 L 1128.56 223.48 L 1133.10 213.21 L 1137.64 213.76 L 1142.18 214.68 L 1146.72 210.64 L 1151.26 238.16 L 1155.80 229.72 L 1160.34 220.36 L 1164.88 216.15 L 1169.42 218.16 L 1173.96 181.84 L 1178.50 206.24 L 1183.04 215.41 L 1187.58 216.88 L 1192.12 220.00 L 1196.66 188.08 L 1201.20 178.54 L 1205.74 192.30 L 1210.28 194.68 L 1214.82 163.87 L 1219.36 158.91 L 1223.90 159.46 L 1228.44 165.88 L 1232.98 163.68 L 1237.52 170.10 L 1242.06 154.51 L 1246.60 151.58 L 1251.14 169.37 L 1255.68 161.48 L 1260.22 157.63 L 1264.76 268.79 L 1269.30 237.24 L 1273.84 251.92 L 1278.38 292.64 L 1282.92 264.76 L 1287.46 281.08 L 1292.00 280.71" fill="none" stroke="#0f766e" stroke-width="2"  />
<path d="M 98.00 258.18 L 102.54 266.48 L 107.08 256.85 L 111.62 263.92 L 116.16 259.48 L 120.70 288.34 L 125.24 297.89 L 129.78 310.98 L 134.32 316.17 L 138.86 332.29 L 143.40 338.60 L 147.94 351.32 L 152.48 364.57 L 157.02 363.13 L 161.56 392.87 L 166.10 377.35 L 170.64 380.46 L 175.18 367.06 L 179.72 360.85 L 184.26 362.24 L 188.80 376.03 L 193.34 387.08 L 197.88 396.28 L 202.42 391.58 L 206.96 394.95 L 211.50 385.25 L 216.04 383.76 L 220.58 375.77 L 225.12 368.27 L 229.66 355.42 L 234.20 344.05 L 238.74 341.99 L 243.28 325.65 L 247.82 326.61 L 252.36 316.63 L 256.90 317.65 L 261.44 342.89 L 265.98 329.16 L 270.52 428.86 L 275.06 409.40 L 279.60 414.77 L 284.14 429.20 L 288.68 422.27 L 293.22 426.89 L 297.76 433.42 L 302.30 339.22 L 306.84 335.24 L 311.38 343.81 L 315.92 345.55 L 320.46 301.54 L 325.00 298.45 L 329.54 288.23 L 334.08 299.13 L 338.62 297.06 L 343.16 277.47 L 347.70 267.11 L 352.24 266.04 L 356.78 231.04 L 361.32 210.31 L 365.86 240.13 L 370.40 231.81 L 374.94 248.77 L 379.48 227.86 L 384.02 209.29 L 388.56 195.91 L 393.10 188.25 L 397.63 195.84 L 402.17 206.36 L 406.71 206.73 L 411.25 215.37 L 415.79 218.31 L 420.33 194.95 L 424.87 211.86 L 429.41 217.69 L 433.95 218.24 L 438.49 206.48 L 443.03 238.88 L 447.57 257.90 L 452.11 241.97 L 456.65 235.06 L 461.19 233.37 L 465.73 228.92 L 470.27 226.28 L 474.81 242.51 L 479.35 256.44 L 483.89 253.01 L 488.43 258.98 L 492.97 260.30 L 497.51 296.23 L 502.05 285.48 L 506.59 283.17 L 511.13 258.00 L 515.67 251.96 L 520.21 237.39 L 524.75 245.30 L 529.29 251.87 L 533.83 230.48 L 538.37 234.27 L 542.91 238.99 L 547.45 232.80 L 551.99 237.81 L 556.53 240.72 L 561.07 236.91 L 565.61 246.23 L 570.15 248.15 L 574.69 248.29 L 579.23 235.01 L 583.77 240.03 L 588.31 218.55 L 592.85 213.42 L 597.39 205.83 L 601.93 209.46 L 606.47 195.35 L 611.01 203.06 L 615.55 198.99 L 620.09 221.39 L 624.63 219.77 L 629.17 228.83 L 633.71 239.31 L 638.25 250.30 L 642.79 236.06 L 647.33 227.69 L 651.87 227.59 L 656.41 226.14 L 660.95 226.29 L 665.49 220.61 L 670.03 213.97 L 674.57 194.86 L 679.11 201.75 L 683.65 200.91 L 688.19 199.36 L 692.73 195.56 L 697.27 191.47 L 701.81 182.85 L 706.35 198.64 L 710.89 191.09 L 715.43 214.64 L 719.97 212.88 L 724.51 232.14 L 729.05 232.53 L 733.59 247.68 L 738.13 244.89 L 742.67 235.63 L 747.21 239.49 L 751.75 240.11 L 756.29 238.84 L 760.83 241.64 L 765.37 232.09 L 769.91 217.91 L 774.45 202.58 L 778.99 202.81 L 783.53 194.91 L 788.07 181.03 L 792.61 196.55 L 797.15 203.56 L 801.69 208.49 L 806.23 216.54 L 810.77 222.93 L 815.31 238.17 L 819.85 250.15 L 824.39 252.03 L 828.93 262.59 L 833.47 226.82 L 838.01 202.73 L 842.55 239.20 L 847.09 237.95 L 851.63 215.86 L 856.17 204.09 L 860.71 204.05 L 865.25 209.15 L 869.79 207.86 L 874.33 202.76 L 878.87 170.73 L 883.41 159.64 L 887.95 159.17 L 892.49 168.36 L 897.03 159.81 L 901.57 163.93 L 906.11 173.34 L 910.65 170.62 L 915.19 163.41 L 919.73 169.12 L 924.27 160.36 L 928.81 157.58 L 933.35 166.19 L 937.89 164.66 L 942.43 170.90 L 946.97 170.99 L 951.51 165.99 L 956.05 155.18 L 960.59 159.91 L 965.13 151.40 L 969.67 141.76 L 974.21 156.65 L 978.75 166.17 L 983.29 157.79 L 987.83 165.28 L 992.37 165.26 L 996.90 160.05 L 1001.44 152.47 L 1005.98 153.26 L 1010.52 167.89 L 1015.06 163.65 L 1019.60 174.62 L 1024.14 185.36 L 1028.68 182.63 L 1033.22 188.65 L 1037.76 192.63 L 1042.30 194.14 L 1046.84 180.97 L 1051.38 208.38 L 1055.92 203.07 L 1060.46 199.32 L 1065.00 184.75 L 1069.54 156.11 L 1074.08 172.87 L 1078.62 178.88 L 1083.16 181.08 L 1087.70 188.92 L 1092.24 198.30 L 1096.78 205.07 L 1101.32 178.07 L 1105.86 187.23 L 1110.40 194.59 L 1114.94 184.55 L 1119.48 217.91 L 1124.02 224.82 L 1128.56 221.85 L 1133.10 222.57 L 1137.64 211.56 L 1142.18 214.36 L 1146.72 217.01 L 1151.26 212.29 L 1155.80 234.95 L 1160.34 228.76 L 1164.88 223.87 L 1169.42 215.31 L 1173.96 213.44 L 1178.50 180.19 L 1183.04 207.45 L 1187.58 219.38 L 1192.12 218.67 L 1196.66 218.90 L 1201.20 190.63 L 1205.74 179.28 L 1210.28 184.65 L 1214.82 194.75 L 1219.36 163.86 L 1223.90 153.79 L 1228.44 162.24 L 1232.98 164.54 L 1237.52 163.05 L 1242.06 167.36 L 1246.60 156.22 L 1251.14 150.78 L 1255.68 169.55 L 1260.22 174.43 L 1264.76 156.18 L 1269.30 275.58 L 1273.84 237.83 L 1278.38 248.55 L 1282.92 294.10 L 1287.46 269.54 L 1292.00 290.01" fill="none" stroke="#1d4ed8" stroke-width="2"  />
  </g>
  <g>
    <text x="54" y="538" fill="#1f2937" font-size="16" font-weight="700">B. 绝对误差（越低越好）</text>
    <line x1="98" y1="558" x2="124" y2="558" stroke="#1d4ed8" stroke-width="2"  />
      <text x="130" y="562" fill="#24312e" font-size="12">持仓分段误差</text>
    <line x1="98" y1="560.00" x2="1292" y2="560.00" stroke="#d7e3df" stroke-width="1" />
      <text x="90" y="564.00" text-anchor="end" fill="#5b6b68" font-size="11">6.91%</text>
<line x1="98" y1="630.00" x2="1292" y2="630.00" stroke="#d7e3df" stroke-width="1" />
      <text x="90" y="634.00" text-anchor="end" fill="#5b6b68" font-size="11">5.18%</text>
<line x1="98" y1="700.00" x2="1292" y2="700.00" stroke="#d7e3df" stroke-width="1" />
      <text x="90" y="704.00" text-anchor="end" fill="#5b6b68" font-size="11">3.46%</text>
<line x1="98" y1="770.00" x2="1292" y2="770.00" stroke="#d7e3df" stroke-width="1" />
      <text x="90" y="774.00" text-anchor="end" fill="#5b6b68" font-size="11">1.73%</text>
<line x1="98" y1="840.00" x2="1292" y2="840.00" stroke="#d7e3df" stroke-width="1" />
      <text x="90" y="844.00" text-anchor="end" fill="#5b6b68" font-size="11">0.00%</text>
    <line x1="98.00" y1="560" x2="98.00" y2="840" stroke="#eef3f1" stroke-width="1" />
      <text x="98.00" y="868" text-anchor="middle" fill="#5b6b68" font-size="11">25-01-17</text>
<line x1="288.68" y1="560" x2="288.68" y2="840" stroke="#eef3f1" stroke-width="1" />
      <text x="288.68" y="868" text-anchor="middle" fill="#5b6b68" font-size="11">25-04-11</text>
<line x1="479.35" y1="560" x2="479.35" y2="840" stroke="#eef3f1" stroke-width="1" />
      <text x="479.35" y="868" text-anchor="middle" fill="#5b6b68" font-size="11">25-06-16</text>
<line x1="697.27" y1="560" x2="697.27" y2="840" stroke="#eef3f1" stroke-width="1" />
      <text x="697.27" y="868" text-anchor="middle" fill="#5b6b68" font-size="11">25-08-21</text>
<line x1="910.65" y1="560" x2="910.65" y2="840" stroke="#eef3f1" stroke-width="1" />
      <text x="910.65" y="868" text-anchor="middle" fill="#5b6b68" font-size="11">25-11-04</text>
<line x1="1101.32" y1="560" x2="1101.32" y2="840" stroke="#eef3f1" stroke-width="1" />
      <text x="1101.32" y="868" text-anchor="middle" fill="#5b6b68" font-size="11">26-01-05</text>
<line x1="1292.00" y1="560" x2="1292.00" y2="840" stroke="#eef3f1" stroke-width="1" />
      <text x="1292.00" y="868" text-anchor="middle" fill="#5b6b68" font-size="11">26-03-12</text>
    <line x1="1101.32" y1="560" x2="1101.32" y2="840" stroke="#f59e0b" stroke-width="1.4" stroke-dasharray="4 4" />
       <text x="1107.32" y="552" fill="#a16207" font-size="11">验证起点</text>
    <path d="M 98.00 836.81 L 102.54 834.97 L 107.08 827.38 L 111.62 837.38 L 116.16 779.66 L 120.70 818.31 L 125.24 810.67 L 129.78 832.89 L 134.32 821.64 L 138.86 827.38 L 143.40 804.80 L 147.94 829.28 L 152.48 824.53 L 157.02 779.54 L 161.56 807.75 L 166.10 810.70 L 170.64 794.62 L 175.18 828.10 L 179.72 832.35 L 184.26 805.12 L 188.80 809.31 L 193.34 829.89 L 197.88 833.87 L 202.42 830.09 L 206.96 807.57 L 211.50 834.41 L 216.04 813.76 L 220.58 818.84 L 225.12 805.29 L 229.66 810.18 L 234.20 827.19 L 238.74 800.91 L 243.28 821.18 L 247.82 820.24 L 252.36 830.69 L 256.90 780.29 L 261.44 817.64 L 265.98 816.74 L 270.52 780.35 L 275.06 787.04 L 279.60 820.79 L 284.14 826.89 L 288.68 822.01 L 293.22 823.38 L 297.76 616.50 L 302.30 835.37 L 306.84 821.85 L 311.38 839.16 L 315.92 767.17 L 320.46 834.81 L 325.00 824.88 L 329.54 815.13 L 334.08 838.50 L 338.62 799.83 L 343.16 821.95 L 347.70 835.87 L 352.24 759.88 L 356.78 796.12 L 361.32 768.59 L 365.86 839.89 L 370.40 801.48 L 374.94 801.37 L 379.48 801.77 L 384.02 813.12 L 388.56 838.55 L 393.10 823.13 L 397.63 816.50 L 402.17 839.35 L 406.71 819.28 L 411.25 828.80 L 415.79 788.83 L 420.33 804.64 L 424.87 822.41 L 429.41 833.90 L 433.95 827.98 L 438.49 758.18 L 443.03 794.18 L 447.57 809.21 L 452.11 830.47 L 456.65 837.65 L 461.19 834.45 L 465.73 832.99 L 470.27 813.66 L 474.81 809.56 L 479.35 823.62 L 483.89 824.59 L 488.43 839.80 L 492.97 762.63 L 497.51 823.30 L 502.05 824.31 L 506.59 786.79 L 511.13 828.64 L 515.67 805.90 L 520.21 817.39 L 524.75 823.83 L 529.29 800.54 L 533.83 826.84 L 538.37 831.90 L 542.91 823.81 L 547.45 821.87 L 551.99 832.01 L 556.53 835.61 L 561.07 820.38 L 565.61 831.94 L 570.15 835.35 L 574.69 815.49 L 579.23 824.68 L 583.77 792.37 L 588.31 830.85 L 592.85 823.42 L 597.39 824.10 L 601.93 807.31 L 606.47 823.74 L 611.01 831.89 L 615.55 788.95 L 620.09 833.03 L 624.63 823.57 L 629.17 824.86 L 633.71 818.75 L 638.25 813.10 L 642.79 825.43 L 647.33 832.80 L 651.87 837.06 L 656.41 837.41 L 660.95 837.49 L 665.49 833.14 L 670.03 791.90 L 674.57 825.05 L 679.11 835.49 L 683.65 830.62 L 688.19 839.01 L 692.73 831.11 L 697.27 836.29 L 701.81 806.86 L 706.35 823.77 L 710.89 791.95 L 715.43 838.90 L 719.97 804.19 L 724.51 839.12 L 729.05 809.15 L 733.59 837.21 L 738.13 819.32 L 742.67 823.61 L 747.21 839.31 L 751.75 837.85 L 756.29 826.63 L 760.83 828.00 L 765.37 810.32 L 769.91 809.10 L 774.45 835.29 L 778.99 824.22 L 783.53 811.54 L 788.07 809.28 L 792.61 828.68 L 797.15 829.91 L 801.69 826.26 L 806.23 828.93 L 810.77 808.77 L 815.31 812.19 L 819.85 832.88 L 824.39 822.00 L 828.93 727.09 L 833.47 805.59 L 838.01 766.73 L 842.55 831.03 L 847.09 798.43 L 851.63 817.00 L 856.17 838.14 L 860.71 836.08 L 865.25 836.12 L 869.79 835.34 L 874.33 780.74 L 878.87 819.84 L 883.41 838.82 L 887.95 814.65 L 892.49 814.50 L 897.03 828.39 L 901.57 815.72 L 906.11 818.21 L 910.65 831.60 L 915.19 834.41 L 919.73 819.79 L 924.27 838.51 L 928.81 820.61 L 933.35 839.74 L 937.89 835.11 L 942.43 832.15 L 946.97 838.52 L 951.51 813.74 L 956.05 832.18 L 960.59 815.77 L 965.13 821.70 L 969.67 803.69 L 974.21 819.05 L 978.75 827.49 L 983.29 826.48 L 987.83 837.43 L 992.37 832.08 L 996.90 826.53 L 1001.44 836.50 L 1005.98 810.36 L 1010.52 836.55 L 1015.06 818.63 L 1019.60 817.26 L 1024.14 839.55 L 1028.68 829.99 L 1033.22 828.31 L 1037.76 838.75 L 1042.30 821.30 L 1046.84 784.96 L 1051.38 834.23 L 1055.92 835.41 L 1060.46 806.82 L 1065.00 782.88 L 1069.54 802.73 L 1074.08 830.33 L 1078.62 838.39 L 1083.16 827.86 L 1087.70 819.05 L 1092.24 828.10 L 1096.78 836.22 L 1101.32 815.97 L 1105.86 826.84 L 1110.40 818.40 L 1114.94 764.96 L 1119.48 823.54 L 1124.02 829.97 L 1128.56 836.47 L 1133.10 819.83 L 1137.64 835.27 L 1142.18 839.30 L 1146.72 826.30 L 1151.26 783.51 L 1155.80 828.63 L 1160.34 821.85 L 1164.88 823.33 L 1169.42 833.85 L 1173.96 773.04 L 1178.50 784.09 L 1183.04 822.83 L 1187.58 834.61 L 1192.12 837.13 L 1196.66 774.47 L 1201.20 814.44 L 1205.74 812.25 L 1210.28 818.59 L 1214.82 775.17 L 1219.36 829.65 L 1223.90 828.11 L 1228.44 832.35 L 1232.98 838.21 L 1237.52 825.13 L 1242.06 813.16 L 1246.60 830.31 L 1251.14 800.86 L 1255.68 823.09 L 1260.22 804.85 L 1264.76 590.00 L 1269.30 756.33 L 1273.84 809.02 L 1278.38 740.82 L 1282.92 775.01 L 1287.46 814.19 L 1292.00 819.22" fill="none" stroke="#1d4ed8" stroke-width="2"  />
  </g>
</svg>