<?xml version="1.0" encoding="UTF-8"?>
<svg xmlns="http://www.w3.org/2000/svg" width="1360" height="980" viewBox="0 0 1360 980">
  <defs>
    <linearGradient id="bg" x1="0" y1="0" x2="1" y2="1">
      <stop offset="0%" stop-color="#f4efe6" />
      <stop offset="100%" stop-color="#eef5f2" />
    </linearGradient>
  </defs>
  <rect x="0" y="0" width="1360" height="980" fill="url(#bg)" />
  <text x="46" y="36" fill="#1f2937" font-size="31" font-weight="700">520870 离线研究图（持仓逐日估值版）</text>
  <text x="46" y="66" fill="#5b6b68" font-size="13">历史前十大持仓 + 持仓逐日涨跌幅 + USDCNY；双目标 lambda=0.10；披露期数 1；覆盖率均值 92.7%</text>
  <g>
    <text x="54" y="110" fill="#1f2937" font-size="16" font-weight="700">A. 净值拟合（同日对齐，无平移）</text>
    <line x1="98" y1="130" x2="124" y2="130" stroke="#0f766e" stroke-width="2"  />
      <text x="130" y="134" fill="#24312e" font-size="12">真实净值</text>
<line x1="313" y1="130" x2="339" y2="130" stroke="#1d4ed8" stroke-width="2"  />
      <text x="345" y="134" fill="#24312e" font-size="12">持仓分段估值</text>
    <line x1="98" y1="132.00" x2="1292" y2="132.00" stroke="#d7e3df" stroke-width="1" />
      <text x="90" y="136.00" text-anchor="end" fill="#5b6b68" font-size="11">1.225</text>
<line x1="98" y1="209.50" x2="1292" y2="209.50" stroke="#d7e3df" stroke-width="1" />
      <text x="90" y="213.50" text-anchor="end" fill="#5b6b68" font-size="11">1.155</text>
<line x1="98" y1="287.00" x2="1292" y2="287.00" stroke="#d7e3df" stroke-width="1" />
      <text x="90" y="291.00" text-anchor="end" fill="#5b6b68" font-size="11">1.086</text>
<line x1="98" y1="364.50" x2="1292" y2="364.50" stroke="#d7e3df" stroke-width="1" />
      <text x="90" y="368.50" text-anchor="end" fill="#5b6b68" font-size="11">1.016</text>
<line x1="98" y1="442.00" x2="1292" y2="442.00" stroke="#d7e3df" stroke-width="1" />
      <text x="90" y="446.00" text-anchor="end" fill="#5b6b68" font-size="11">0.946</text>
    <line x1="698.66" y1="132" x2="698.66" y2="442" stroke="#eef3f1" stroke-width="1" />
      <text x="698.66" y="470" text-anchor="middle" fill="#5b6b68" font-size="11">25-11-07</text>
<line x1="889.12" y1="132" x2="889.12" y2="442" stroke="#eef3f1" stroke-width="1" />
      <text x="889.12" y="470" text-anchor="middle" fill="#5b6b68" font-size="11">25-12-15</text>
<line x1="1079.57" y1="132" x2="1079.57" y2="442" stroke="#eef3f1" stroke-width="1" />
      <text x="1079.57" y="470" text-anchor="middle" fill="#5b6b68" font-size="11">26-01-22</text>
<line x1="698.66" y1="132" x2="698.66" y2="442" stroke="#eef3f1" stroke-width="1" />
      <text x="698.66" y="470" text-anchor="middle" fill="#5b6b68" font-size="11">25-11-07</text>
<line x1="911.09" y1="132" x2="911.09" y2="442" stroke="#eef3f1" stroke-width="1" />
      <text x="911.09" y="470" text-anchor="middle" fill="#5b6b68" font-size="11">25-12-18</text>
<line x1="1101.55" y1="132" x2="1101.55" y2="442" stroke="#eef3f1" stroke-width="1" />
      <text x="1101.55" y="470" text-anchor="middle" fill="#5b6b68" font-size="11">26-01-27</text>
<line x1="1292.00" y1="132" x2="1292.00" y2="442" stroke="#eef3f1" stroke-width="1" />
      <text x="1292.00" y="470" text-anchor="middle" fill="#5b6b68" font-size="11">26-03-12</text>
    <line x1="698.66" y1="132" x2="698.66" y2="442" stroke="#f59e0b" stroke-width="1.4" stroke-dasharray="4 4" />
       <text x="704.66" y="124" fill="#a16207" font-size="11">验证起点</text>
    <path d="M 698.66 382.42 L 705.99 381.98 L 713.31 365.16 L 720.64 371.62 L 727.96 375.07 L 735.29 369.05 L 742.61 380.42 L 749.94 387.77 L 757.26 395.79 L 764.59 394.34 L 771.91 415.61 L 779.24 408.60 L 786.56 406.04 L 793.89 382.98 L 801.21 381.98 L 808.54 378.08 L 815.87 382.09 L 823.19 364.71 L 830.52 353.35 L 837.84 331.18 L 845.17 396.01 L 852.49 405.48 L 859.82 404.36 L 867.14 406.48 L 874.47 391.55 L 881.79 384.65 L 889.12 370.72 L 896.44 411.27 L 903.77 430.32 L 911.09 424.41 L 918.42 418.84 L 925.74 432.32 L 933.07 415.84 L 940.39 414.06 L 947.72 415.17 L 955.04 413.61 L 962.37 422.63 L 969.69 407.48 L 977.02 404.92 L 984.34 387.88 L 991.67 366.94 L 998.99 380.42 L 1006.32 374.96 L 1013.64 364.82 L 1020.97 369.83 L 1028.29 379.08 L 1035.62 360.81 L 1042.94 355.24 L 1050.27 363.15 L 1057.60 357.58 L 1064.92 350.56 L 1072.25 304.23 L 1079.57 271.37 L 1086.90 246.08 L 1094.22 243.07 L 1101.55 210.99 L 1108.87 190.72 L 1116.20 206.54 L 1123.52 219.24 L 1130.85 216.23 L 1138.17 188.05 L 1145.50 222.24 L 1152.82 225.14 L 1160.15 208.88 L 1167.47 175.68 L 1174.80 186.15 L 1182.12 156.86 L 1189.45 167.44 L 1196.77 192.17 L 1204.10 139.71 L 1211.42 145.16 L 1218.75 151.62 L 1226.07 159.98 L 1233.40 168.44 L 1240.72 237.39 L 1248.05 190.61 L 1255.37 241.85 L 1262.70 254.44 L 1270.02 224.81 L 1277.35 198.30 L 1284.67 197.63 L 1292.00 243.85 L 698.66 382.42 L 705.99 381.98 L 713.31 365.16 L 720.64 371.62 L 727.96 375.07 L 735.29 369.05 L 742.61 380.42 L 749.94 387.77 L 757.26 395.79 L 764.59 394.34 L 771.91 415.61 L 779.24 408.60 L 786.56 406.04 L 793.89 382.98 L 801.21 381.98 L 808.54 378.08 L 815.87 382.09 L 823.19 364.71 L 830.52 353.35 L 837.84 331.18 L 845.17 396.01 L 852.49 405.48 L 859.82 404.36 L 867.14 406.48 L 874.47 391.55 L 881.79 384.65 L 889.12 370.72 L 896.44 411.27 L 903.77 430.32 L 911.09 424.41 L 918.42 418.84 L 925.74 432.32 L 933.07 415.84 L 940.39 414.06 L 947.72 415.17 L 955.04 413.61 L 962.37 422.63 L 969.69 407.48 L 977.02 404.92 L 984.34 387.88 L 991.67 366.94 L 998.99 380.42 L 1006.32 374.96 L 1013.64 364.82 L 1020.97 369.83 L 1028.29 379.08 L 1035.62 360.81 L 1042.94 355.24 L 1050.27 363.15 L 1057.60 357.58 L 1064.92 350.56 L 1072.25 304.23 L 1079.57 271.37 L 1086.90 246.08 L 1094.22 243.07 L 1101.55 210.99 L 1108.87 190.72 L 1116.20 206.54 L 1123.52 219.24 L 1130.85 216.23 L 1138.17 188.05 L 1145.50 222.24 L 1152.82 225.14 L 1160.15 208.88 L 1167.47 175.68 L 1174.80 186.15 L 1182.12 156.86 L 1189.45 167.44 L 1196.77 192.17 L 1204.10 139.71 L 1211.42 145.16 L 1218.75 151.62 L 1226.07 159.98 L 1233.40 168.44 L 1240.72 237.39 L 1248.05 190.61 L 1255.37 241.85 L 1262.70 254.44 L 1270.02 224.81 L 1277.35 198.30 L 1284.67 197.63 L 1292.00 243.85" fill="none" stroke="#0f766e" stroke-width="2"  />
<path d="M 698.66 382.93 L 705.99 374.47 L 713.31 356.55 L 720.64 365.86 L 727.96 377.64 L 735.29 369.42 L 742.61 373.12 L 749.94 377.74 L 757.26 390.16 L 764.59 403.50 L 771.91 391.81 L 779.24 417.51 L 786.56 405.31 L 793.89 387.72 L 801.21 381.68 L 808.54 380.92 L 815.87 377.86 L 823.19 373.83 L 830.52 361.86 L 837.84 343.75 L 845.17 395.41 L 852.49 408.45 L 859.82 405.40 L 867.14 403.10 L 874.47 399.30 L 881.79 388.11 L 889.12 378.83 L 896.44 401.83 L 903.77 418.30 L 911.09 427.67 L 918.42 426.70 L 925.74 436.70 L 933.07 411.03 L 940.39 417.24 L 947.72 412.49 L 955.04 413.64 L 962.37 415.10 L 969.69 416.23 L 977.02 408.61 L 984.34 376.87 L 991.67 380.06 L 998.99 369.57 L 1006.32 375.94 L 1013.64 369.75 L 1020.97 361.81 L 1028.29 372.49 L 1035.62 372.31 L 1042.94 357.69 L 1050.27 358.11 L 1057.60 365.25 L 1064.92 355.87 L 1072.25 300.65 L 1079.57 278.93 L 1086.90 259.11 L 1094.22 238.15 L 1101.55 199.18 L 1108.87 203.30 L 1116.20 193.20 L 1123.52 230.26 L 1130.85 216.62 L 1138.17 202.95 L 1145.50 210.86 L 1152.82 221.72 L 1160.15 214.06 L 1167.47 188.23 L 1174.80 175.00 L 1182.12 160.43 L 1189.45 167.83 L 1196.77 170.31 L 1204.10 138.91 L 1211.42 138.79 L 1218.75 145.88 L 1226.07 157.24 L 1233.40 163.89 L 1240.72 223.35 L 1248.05 214.89 L 1255.37 225.94 L 1262.70 241.89 L 1270.02 238.51 L 1277.35 215.62 L 1284.67 196.48 L 1292.00 253.58 L 698.66 392.01 L 705.99 373.59 L 713.31 350.82 L 720.64 366.31 L 727.96 378.93 L 735.29 368.68 L 742.61 371.33 L 749.94 377.54 L 757.26 390.69 L 764.59 404.64 L 771.91 391.65 L 779.24 416.80 L 786.56 405.03 L 793.89 385.80 L 801.21 381.71 L 808.54 380.98 L 815.87 376.83 L 823.19 373.17 L 830.52 361.76 L 837.84 343.28 L 845.17 398.15 L 852.49 407.88 L 859.82 405.47 L 867.14 403.12 L 874.47 399.05 L 881.79 388.05 L 889.12 378.42 L 896.44 402.35 L 903.77 418.54 L 911.09 427.64 L 918.42 426.33 L 925.74 435.39 L 933.07 410.66 L 940.39 417.30 L 947.72 412.51 L 955.04 413.66 L 962.37 414.63 L 969.69 416.16 L 977.02 408.66 L 984.34 377.46 L 991.67 379.99 L 998.99 369.63 L 1006.32 375.93 L 1013.64 369.73 L 1020.97 361.53 L 1028.29 372.53 L 1035.62 372.29 L 1042.94 357.70 L 1050.27 358.14 L 1057.60 364.99 L 1064.92 355.88 L 1072.25 300.51 L 1079.57 278.87 L 1086.90 259.09 L 1094.22 237.96 L 1101.55 199.10 L 1108.87 203.30 L 1116.20 193.22 L 1123.52 230.32 L 1130.85 216.60 L 1138.17 202.95 L 1145.50 210.92 L 1152.82 221.73 L 1160.15 214.06 L 1167.47 188.49 L 1174.80 175.01 L 1182.12 160.43 L 1189.45 167.85 L 1196.77 170.32 L 1204.10 139.70 L 1211.42 138.80 L 1218.75 145.89 L 1226.07 157.25 L 1233.40 163.56 L 1240.72 223.38 L 1248.05 214.89 L 1255.37 225.96 L 1262.70 241.89 L 1270.02 238.58 L 1277.35 215.62 L 1284.67 196.48 L 1292.00 253.60" fill="none" stroke="#1d4ed8" stroke-width="2"  />
  </g>
  <g>
    <text x="54" y="538" fill="#1f2937" font-size="16" font-weight="700">B. 绝对误差（越低越好）</text>
    <line x1="98" y1="558" x2="124" y2="558" stroke="#1d4ed8" stroke-width="2"  />
      <text x="130" y="562" fill="#24312e" font-size="12">持仓分段误差</text>
    <line x1="98" y1="560.00" x2="1292" y2="560.00" stroke="#d7e3df" stroke-width="1" />
      <text x="90" y="564.00" text-anchor="end" fill="#5b6b68" font-size="11">2.48%</text>
<line x1="98" y1="630.00" x2="1292" y2="630.00" stroke="#d7e3df" stroke-width="1" />
      <text x="90" y="634.00" text-anchor="end" fill="#5b6b68" font-size="11">1.86%</text>
<line x1="98" y1="700.00" x2="1292" y2="700.00" stroke="#d7e3df" stroke-width="1" />
      <text x="90" y="704.00" text-anchor="end" fill="#5b6b68" font-size="11">1.24%</text>
<line x1="98" y1="770.00" x2="1292" y2="770.00" stroke="#d7e3df" stroke-width="1" />
      <text x="90" y="774.00" text-anchor="end" fill="#5b6b68" font-size="11">0.62%</text>
<line x1="98" y1="840.00" x2="1292" y2="840.00" stroke="#d7e3df" stroke-width="1" />
      <text x="90" y="844.00" text-anchor="end" fill="#5b6b68" font-size="11">0.00%</text>
    <line x1="698.66" y1="560" x2="698.66" y2="840" stroke="#eef3f1" stroke-width="1" />
      <text x="698.66" y="868" text-anchor="middle" fill="#5b6b68" font-size="11">25-11-07</text>
<line x1="889.12" y1="560" x2="889.12" y2="840" stroke="#eef3f1" stroke-width="1" />
      <text x="889.12" y="868" text-anchor="middle" fill="#5b6b68" font-size="11">25-12-15</text>
<line x1="1079.57" y1="560" x2="1079.57" y2="840" stroke="#eef3f1" stroke-width="1" />
      <text x="1079.57" y="868" text-anchor="middle" fill="#5b6b68" font-size="11">26-01-22</text>
<line x1="698.66" y1="560" x2="698.66" y2="840" stroke="#eef3f1" stroke-width="1" />
      <text x="698.66" y="868" text-anchor="middle" fill="#5b6b68" font-size="11">25-11-07</text>
<line x1="911.09" y1="560" x2="911.09" y2="840" stroke="#eef3f1" stroke-width="1" />
      <text x="911.09" y="868" text-anchor="middle" fill="#5b6b68" font-size="11">25-12-18</text>
<line x1="1101.55" y1="560" x2="1101.55" y2="840" stroke="#eef3f1" stroke-width="1" />
      <text x="1101.55" y="868" text-anchor="middle" fill="#5b6b68" font-size="11">26-01-27</text>
<line x1="1292.00" y1="560" x2="1292.00" y2="840" stroke="#eef3f1" stroke-width="1" />
      <text x="1292.00" y="868" text-anchor="middle" fill="#5b6b68" font-size="11">26-03-12</text>
    <line x1="698.66" y1="560" x2="698.66" y2="840" stroke="#f59e0b" stroke-width="1.4" stroke-dasharray="4 4" />
       <text x="704.66" y="552" fill="#a16207" font-size="11">验证起点</text>
    <path d="M 698.66 834.80 L 705.99 764.03 L 713.31 754.27 L 720.64 782.28 L 727.96 814.19 L 735.29 836.36 L 742.61 766.25 L 749.94 738.07 L 757.26 782.34 L 764.59 746.24 L 771.91 591.71 L 779.24 747.67 L 786.56 832.49 L 793.89 791.95 L 801.21 836.99 L 808.54 811.33 L 815.87 797.25 L 823.19 749.12 L 830.52 756.03 L 837.84 718.36 L 845.17 833.85 L 852.49 809.32 L 859.82 829.33 L 867.14 805.07 L 874.47 761.00 L 881.79 804.90 L 889.12 758.81 L 896.44 741.96 L 903.77 712.92 L 911.09 805.72 L 918.42 757.76 L 925.74 793.59 L 933.07 789.79 L 940.39 806.87 L 947.72 812.10 L 955.04 839.67 L 962.37 760.90 L 969.69 749.40 L 977.02 801.93 L 984.34 728.08 L 991.67 708.99 L 998.99 730.42 L 1006.32 830.10 L 1013.64 790.91 L 1020.97 759.73 L 1028.29 773.53 L 1035.62 725.85 L 1042.94 815.80 L 1050.27 789.82 L 1057.60 764.10 L 1064.92 787.80 L 1072.25 806.21 L 1079.57 770.38 L 1086.90 722.54 L 1094.22 795.71 L 1101.55 736.40 L 1108.87 731.39 L 1116.20 723.38 L 1123.52 742.73 L 1130.85 836.54 L 1138.17 711.57 L 1145.50 739.29 L 1152.82 809.68 L 1160.15 794.61 L 1167.47 732.89 L 1174.80 744.04 L 1182.12 809.92 L 1189.45 836.70 L 1196.77 651.03 L 1204.10 833.36 L 1211.42 786.80 L 1218.75 791.85 L 1226.07 816.89 L 1233.40 801.35 L 1240.72 714.25 L 1248.05 630.37 L 1255.37 697.01 L 1262.70 726.09 L 1270.02 718.53 L 1277.35 689.55 L 1284.67 830.01 L 1292.00 752.42 L 698.66 742.94 L 705.99 755.15 L 713.31 697.14 L 720.64 786.78 L 727.96 801.19 L 735.29 836.25 L 742.61 748.25 L 749.94 736.00 L 757.26 787.82 L 764.59 734.66 L 771.91 590.00 L 779.24 755.03 L 786.56 829.65 L 793.89 811.38 L 801.21 837.35 L 808.54 810.73 L 815.87 786.81 L 823.19 755.70 L 830.52 757.01 L 837.84 722.93 L 845.17 818.09 L 852.49 815.14 L 859.82 828.59 L 867.14 805.25 L 874.47 763.54 L 881.79 805.53 L 889.12 762.96 L 896.44 747.31 L 903.77 715.44 L 911.09 806.04 L 918.42 761.68 L 925.74 807.47 L 933.07 785.95 L 940.39 806.24 L 947.72 812.26 L 955.04 839.51 L 962.37 755.98 L 969.69 750.15 L 977.02 801.43 L 984.34 734.08 L 991.67 709.71 L 998.99 731.02 L 1006.32 830.26 L 1013.64 791.10 L 1020.97 756.86 L 1028.29 773.95 L 1035.62 726.07 L 1042.94 815.76 L 1050.27 790.12 L 1057.60 766.61 L 1064.92 787.69 L 1072.25 804.81 L 1079.57 770.95 L 1086.90 722.71 L 1094.22 794.00 L 1101.55 735.71 L 1108.87 731.39 L 1116.20 723.58 L 1123.52 742.16 L 1130.85 836.77 L 1138.17 711.62 L 1145.50 739.77 L 1152.82 809.79 L 1160.15 794.60 L 1167.47 730.67 L 1174.80 744.14 L 1182.12 809.94 L 1189.45 836.55 L 1196.77 651.13 L 1204.10 840.00 L 1211.42 786.88 L 1218.75 791.93 L 1226.07 816.98 L 1233.40 798.51 L 1240.72 714.51 L 1248.05 630.33 L 1255.37 697.19 L 1262.70 726.15 L 1270.02 717.86 L 1277.35 689.51 L 1284.67 830.05 L 1292.00 752.27" fill="none" stroke="#1d4ed8" stroke-width="2"  />
  </g>
</svg>