<?xml version="1.0" encoding="UTF-8"?>
<svg xmlns="http://www.w3.org/2000/svg" width="1360" height="980" viewBox="0 0 1360 980">
  <defs>
    <linearGradient id="bg" x1="0" y1="0" x2="1" y2="1">
      <stop offset="0%" stop-color="#f4efe6" />
      <stop offset="100%" stop-color="#eef5f2" />
    </linearGradient>
  </defs>
  <rect x="0" y="0" width="1360" height="980" fill="url(#bg)" />
  <text x="46" y="36" fill="#1f2937" font-size="31" font-weight="700">520830 离线研究图（持仓逐日估值版）</text>
  <text x="46" y="66" fill="#5b6b68" font-size="13">历史前十大持仓 + 持仓逐日涨跌幅 + USDCNY；双目标 lambda=0.10；披露期数 6；覆盖率均值 76.7%</text>
  <g>
    <text x="54" y="110" fill="#1f2937" font-size="16" font-weight="700">A. 净值拟合（同日对齐，无平移）</text>
    <line x1="98" y1="130" x2="124" y2="130" stroke="#0f766e" stroke-width="2"  />
      <text x="130" y="134" fill="#24312e" font-size="12">真实净值</text>
<line x1="313" y1="130" x2="339" y2="130" stroke="#1d4ed8" stroke-width="2"  />
      <text x="345" y="134" fill="#24312e" font-size="12">持仓分段估值</text>
    <line x1="98" y1="132.00" x2="1292" y2="132.00" stroke="#d7e3df" stroke-width="1" />
      <text x="90" y="136.00" text-anchor="end" fill="#5b6b68" font-size="11">1.046</text>
<line x1="98" y1="209.50" x2="1292" y2="209.50" stroke="#d7e3df" stroke-width="1" />
      <text x="90" y="213.50" text-anchor="end" fill="#5b6b68" font-size="11">0.998</text>
<line x1="98" y1="287.00" x2="1292" y2="287.00" stroke="#d7e3df" stroke-width="1" />
      <text x="90" y="291.00" text-anchor="end" fill="#5b6b68" font-size="11">0.950</text>
<line x1="98" y1="364.50" x2="1292" y2="364.50" stroke="#d7e3df" stroke-width="1" />
      <text x="90" y="368.50" text-anchor="end" fill="#5b6b68" font-size="11">0.902</text>
<line x1="98" y1="442.00" x2="1292" y2="442.00" stroke="#d7e3df" stroke-width="1" />
      <text x="90" y="446.00" text-anchor="end" fill="#5b6b68" font-size="11">0.854</text>
    <line x1="98.00" y1="132" x2="98.00" y2="442" stroke="#eef3f1" stroke-width="1" />
      <text x="98.00" y="470" text-anchor="middle" fill="#5b6b68" font-size="11">25-01-02</text>
<line x1="290.72" y1="132" x2="290.72" y2="442" stroke="#eef3f1" stroke-width="1" />
      <text x="290.72" y="470" text-anchor="middle" fill="#5b6b68" font-size="11">25-03-17</text>
<line x1="479.24" y1="132" x2="479.24" y2="442" stroke="#eef3f1" stroke-width="1" />
      <text x="479.24" y="470" text-anchor="middle" fill="#5b6b68" font-size="11">25-05-23</text>
<line x1="697.09" y1="132" x2="697.09" y2="442" stroke="#eef3f1" stroke-width="1" />
      <text x="697.09" y="470" text-anchor="middle" fill="#5b6b68" font-size="11">25-08-06</text>
<line x1="910.76" y1="132" x2="910.76" y2="442" stroke="#eef3f1" stroke-width="1" />
      <text x="910.76" y="470" text-anchor="middle" fill="#5b6b68" font-size="11">25-10-24</text>
<line x1="1099.28" y1="132" x2="1099.28" y2="442" stroke="#eef3f1" stroke-width="1" />
      <text x="1099.28" y="470" text-anchor="middle" fill="#5b6b68" font-size="11">25-12-26</text>
<line x1="1292.00" y1="132" x2="1292.00" y2="442" stroke="#eef3f1" stroke-width="1" />
      <text x="1292.00" y="470" text-anchor="middle" fill="#5b6b68" font-size="11">26-03-12</text>
    <line x1="1116.04" y1="132" x2="1116.04" y2="442" stroke="#f59e0b" stroke-width="1.4" stroke-dasharray="4 4" />
       <text x="1122.04" y="124" fill="#a16207" font-size="11">验证起点</text>
    <path d="M 98.00 181.73 L 102.19 181.89 L 106.38 186.42 L 110.57 181.57 L 114.76 184.48 L 118.95 181.89 L 123.14 184.31 L 127.33 180.27 L 131.52 175.10 L 135.71 167.51 L 139.89 160.56 L 144.08 159.75 L 148.27 141.00 L 152.46 151.02 L 156.65 157.65 L 160.84 156.52 L 165.03 157.65 L 169.22 165.73 L 173.41 155.71 L 177.60 157.65 L 181.79 155.55 L 185.98 144.56 L 190.17 151.02 L 194.36 155.87 L 198.55 156.03 L 202.74 162.01 L 206.93 177.85 L 211.12 164.92 L 215.31 161.53 L 219.49 149.24 L 223.68 155.06 L 227.87 158.46 L 232.06 161.53 L 236.25 173.32 L 240.44 191.59 L 244.63 188.68 L 248.82 183.83 L 253.01 214.21 L 257.20 218.74 L 261.39 230.54 L 265.58 229.89 L 269.77 235.06 L 273.96 234.74 L 278.15 244.44 L 282.34 238.62 L 286.53 238.62 L 290.72 217.29 L 294.91 227.95 L 299.09 237.49 L 303.28 230.22 L 307.47 228.60 L 311.66 225.53 L 315.85 234.58 L 320.04 200.96 L 324.23 192.40 L 328.42 194.66 L 332.61 194.17 L 336.80 194.66 L 340.99 193.69 L 345.18 214.86 L 349.37 299.71 L 353.56 282.58 L 357.75 308.76 L 361.94 251.39 L 366.13 255.43 L 370.32 237.16 L 374.51 233.77 L 378.69 225.85 L 382.88 229.25 L 387.07 230.05 L 391.26 242.01 L 395.45 239.10 L 399.64 218.26 L 403.83 209.20 L 408.02 211.63 L 412.21 213.08 L 416.40 220.52 L 420.59 226.50 L 424.78 261.41 L 428.97 267.71 L 433.16 267.71 L 437.35 265.29 L 441.54 250.90 L 445.73 245.57 L 449.92 251.55 L 454.11 251.87 L 458.29 253.00 L 462.48 262.54 L 466.67 258.82 L 470.86 278.22 L 475.05 290.50 L 479.24 288.40 L 483.43 306.50 L 487.62 324.76 L 491.81 306.66 L 496.00 315.07 L 500.19 320.72 L 504.38 341.73 L 508.57 311.35 L 512.76 315.07 L 516.95 316.04 L 521.14 313.45 L 525.33 314.10 L 529.52 317.81 L 533.71 336.72 L 537.89 338.34 L 542.08 333.81 L 546.27 353.86 L 550.46 365.33 L 554.65 365.82 L 558.84 367.27 L 563.03 354.34 L 567.22 324.44 L 571.41 322.34 L 575.60 310.54 L 579.79 309.89 L 583.98 297.45 L 588.17 300.36 L 592.36 304.56 L 596.55 285.65 L 600.74 284.84 L 604.93 273.21 L 609.12 277.41 L 613.31 282.10 L 617.49 282.90 L 621.68 283.87 L 625.87 290.98 L 630.06 307.63 L 634.25 312.97 L 638.44 318.78 L 642.63 318.78 L 646.82 322.18 L 651.01 343.51 L 655.20 322.99 L 659.39 328.48 L 663.58 326.87 L 667.77 334.30 L 671.96 338.83 L 676.15 327.67 L 680.34 322.99 L 684.53 322.99 L 688.72 334.78 L 692.91 319.92 L 697.09 316.36 L 701.28 319.92 L 705.47 320.40 L 709.66 333.49 L 713.85 336.08 L 718.04 337.86 L 722.23 328.32 L 726.42 326.22 L 730.61 321.69 L 734.80 321.37 L 738.99 317.33 L 743.18 315.55 L 747.37 315.23 L 751.56 318.46 L 755.75 321.05 L 759.94 332.68 L 764.13 345.77 L 768.32 348.52 L 772.51 352.72 L 776.69 352.40 L 780.88 357.25 L 785.07 353.21 L 789.26 353.05 L 793.45 376.16 L 797.64 372.12 L 801.83 373.25 L 806.02 380.04 L 810.21 381.33 L 814.40 384.73 L 818.59 372.44 L 822.78 358.54 L 826.97 340.44 L 831.16 338.83 L 835.35 324.28 L 839.54 326.22 L 843.73 244.44 L 847.92 260.44 L 852.11 258.98 L 856.29 246.22 L 860.48 234.26 L 864.67 220.84 L 868.86 220.84 L 873.05 225.69 L 877.24 221.97 L 881.43 211.31 L 885.62 211.14 L 889.81 211.31 L 894.00 215.35 L 898.19 230.22 L 902.38 227.63 L 906.57 225.20 L 910.76 225.37 L 914.95 227.14 L 919.14 221.16 L 923.33 221.97 L 927.52 222.62 L 931.71 220.84 L 935.89 247.02 L 940.08 258.01 L 944.27 275.95 L 948.46 274.34 L 952.65 276.12 L 956.84 281.13 L 961.03 276.44 L 965.22 280.80 L 969.41 292.92 L 973.60 294.70 L 977.79 310.22 L 981.98 298.90 L 986.17 314.26 L 990.36 311.35 L 994.55 311.51 L 998.74 333.81 L 1002.93 354.99 L 1007.12 363.39 L 1011.31 365.33 L 1015.49 364.68 L 1019.68 378.26 L 1023.87 378.26 L 1028.06 375.51 L 1032.25 371.15 L 1036.44 368.24 L 1040.63 366.95 L 1044.82 357.57 L 1049.01 353.37 L 1053.20 355.47 L 1057.39 356.44 L 1061.58 374.71 L 1065.77 395.07 L 1069.96 401.05 L 1074.15 394.58 L 1078.34 395.07 L 1082.53 380.04 L 1086.72 375.35 L 1090.91 376.48 L 1095.09 378.10 L 1099.28 380.20 L 1103.47 393.13 L 1107.66 405.25 L 1111.85 396.20 L 1116.04 416.73 L 1120.23 423.51 L 1124.42 397.82 L 1128.61 393.94 L 1132.80 395.55 L 1136.99 357.41 L 1141.18 336.72 L 1145.37 325.25 L 1149.56 344.64 L 1153.75 344.00 L 1157.94 333.01 L 1162.13 336.24 L 1166.32 332.68 L 1170.51 305.21 L 1174.69 308.44 L 1178.88 288.08 L 1183.07 270.30 L 1187.26 265.77 L 1191.45 272.24 L 1195.64 272.56 L 1199.83 280.80 L 1204.02 280.96 L 1208.21 281.29 L 1212.40 304.08 L 1216.59 302.95 L 1220.78 306.82 L 1224.97 307.47 L 1229.16 313.29 L 1233.35 301.65 L 1237.54 302.46 L 1241.73 345.29 L 1245.92 357.90 L 1250.11 380.85 L 1254.29 383.59 L 1258.48 413.17 L 1262.67 400.56 L 1266.86 381.01 L 1271.05 370.66 L 1275.24 370.66 L 1279.43 362.75 L 1283.62 353.53 L 1287.81 350.79 L 1292.00 355.47" fill="none" stroke="#0f766e" stroke-width="2"  />
<path d="M 98.00 191.53 L 102.19 177.50 L 106.38 184.43 L 110.57 188.50 L 114.76 181.02 L 118.95 186.45 L 123.14 183.25 L 127.33 171.92 L 131.52 179.78 L 135.71 162.90 L 139.89 167.21 L 144.08 158.84 L 148.27 164.28 L 152.46 140.41 L 156.65 155.02 L 160.84 158.26 L 165.03 157.87 L 169.22 158.01 L 173.41 167.40 L 177.60 154.40 L 181.79 159.62 L 185.98 153.75 L 190.17 143.82 L 194.36 153.51 L 198.55 155.07 L 202.74 157.24 L 206.93 164.47 L 211.12 181.55 L 215.31 163.01 L 219.49 159.19 L 223.68 161.46 L 227.87 157.57 L 232.06 158.78 L 236.25 171.71 L 240.44 187.03 L 244.63 194.56 L 248.82 190.08 L 253.01 197.36 L 257.20 218.28 L 261.39 232.59 L 265.58 232.11 L 269.77 233.14 L 273.96 237.46 L 278.15 234.15 L 282.34 246.29 L 286.53 231.48 L 290.72 226.40 L 294.91 222.38 L 299.09 230.66 L 303.28 239.06 L 307.47 229.02 L 311.66 228.35 L 315.85 226.64 L 320.04 225.22 L 324.23 184.05 L 328.42 194.22 L 332.61 194.20 L 336.80 194.04 L 340.99 193.96 L 345.18 208.71 L 349.37 259.02 L 353.56 321.21 L 357.75 249.83 L 361.94 325.96 L 366.13 241.79 L 370.32 251.71 L 374.51 233.17 L 378.69 234.33 L 382.88 224.00 L 387.07 231.04 L 391.26 234.88 L 395.45 237.00 L 399.64 238.99 L 403.83 207.47 L 408.02 207.45 L 412.21 218.02 L 416.40 213.95 L 420.59 223.05 L 424.78 250.34 L 428.97 267.56 L 433.16 269.06 L 437.35 267.07 L 441.54 266.80 L 445.73 247.50 L 449.92 245.08 L 454.11 252.64 L 458.29 251.52 L 462.48 257.70 L 466.67 264.01 L 470.86 269.15 L 475.05 282.58 L 479.24 294.48 L 483.43 292.65 L 487.62 310.30 L 491.81 324.97 L 496.00 312.26 L 500.19 316.93 L 504.38 335.18 L 508.57 336.93 L 512.76 306.08 L 516.95 315.16 L 521.14 320.54 L 525.33 311.92 L 529.52 316.04 L 533.71 325.10 L 537.89 357.99 L 542.08 331.34 L 546.27 343.87 L 550.46 364.69 L 554.65 368.33 L 558.84 367.31 L 563.03 358.88 L 567.22 342.84 L 571.41 318.92 L 575.60 319.68 L 579.79 307.88 L 583.98 311.96 L 588.17 297.68 L 592.36 299.40 L 596.55 298.11 L 600.74 283.91 L 604.93 288.39 L 609.12 272.69 L 613.31 278.00 L 617.49 282.11 L 621.68 283.73 L 625.87 287.03 L 630.06 300.24 L 634.25 309.91 L 638.44 313.50 L 642.63 319.86 L 646.82 322.65 L 651.01 327.08 L 655.20 339.54 L 659.39 322.39 L 663.58 328.90 L 667.77 328.93 L 671.96 336.97 L 676.15 338.03 L 680.34 326.21 L 684.53 323.81 L 688.72 323.83 L 692.91 335.39 L 697.09 315.45 L 701.28 317.74 L 705.47 319.99 L 709.66 334.84 L 713.85 334.88 L 718.04 336.92 L 722.23 337.49 L 726.42 327.10 L 730.61 327.37 L 734.80 320.91 L 738.99 320.84 L 743.18 316.05 L 747.37 313.34 L 751.56 318.66 L 755.75 319.34 L 759.94 329.54 L 764.13 342.14 L 768.32 348.88 L 772.51 352.91 L 776.69 354.42 L 780.88 353.30 L 785.07 356.18 L 789.26 353.81 L 793.45 367.74 L 797.64 379.36 L 801.83 371.10 L 806.02 373.24 L 810.21 381.60 L 814.40 384.89 L 818.59 384.26 L 822.78 359.85 L 826.97 353.75 L 831.16 336.75 L 835.35 339.91 L 839.54 265.67 L 843.73 328.18 L 847.92 244.47 L 852.11 261.76 L 856.29 259.87 L 860.48 236.37 L 864.67 232.45 L 868.86 234.19 L 873.05 191.89 L 877.24 225.63 L 881.43 220.75 L 885.62 210.64 L 889.81 210.71 L 894.00 214.16 L 898.19 224.78 L 902.38 231.56 L 906.57 225.78 L 910.76 224.14 L 914.95 230.14 L 919.14 225.53 L 923.33 219.09 L 927.52 233.73 L 931.71 222.09 L 935.89 225.55 L 940.08 252.68 L 944.27 261.68 L 948.46 279.12 L 952.65 274.00 L 956.84 280.90 L 961.03 281.25 L 965.22 277.64 L 969.41 292.79 L 973.60 293.94 L 977.79 310.91 L 981.98 310.29 L 986.17 303.82 L 990.36 318.41 L 994.55 310.17 L 998.74 317.04 L 1002.93 348.00 L 1007.12 359.60 L 1011.31 365.83 L 1015.49 367.00 L 1019.68 385.51 L 1023.87 380.78 L 1028.06 377.93 L 1032.25 374.08 L 1036.44 370.17 L 1040.63 372.57 L 1044.82 365.26 L 1049.01 354.39 L 1053.20 353.07 L 1057.39 357.24 L 1061.58 382.53 L 1065.77 389.51 L 1069.96 399.73 L 1074.15 393.85 L 1078.34 393.55 L 1082.53 397.09 L 1086.72 376.72 L 1090.91 375.99 L 1095.09 377.88 L 1099.28 379.58 L 1103.47 384.10 L 1107.66 401.07 L 1111.85 400.91 L 1116.04 415.14 L 1120.23 403.50 L 1124.42 435.06 L 1128.61 387.10 L 1132.80 392.91 L 1136.99 369.05 L 1141.18 349.88 L 1145.37 333.29 L 1149.56 324.94 L 1153.75 348.81 L 1157.94 347.45 L 1162.13 332.68 L 1166.32 328.25 L 1170.51 320.58 L 1174.69 300.45 L 1178.88 290.76 L 1183.07 275.79 L 1187.26 267.22 L 1191.45 267.35 L 1195.64 273.05 L 1199.83 274.29 L 1204.02 283.77 L 1208.21 280.47 L 1212.40 287.56 L 1216.59 297.53 L 1220.78 307.53 L 1224.97 309.32 L 1229.16 307.86 L 1233.35 316.67 L 1237.54 298.39 L 1241.73 340.06 L 1245.92 353.76 L 1250.11 378.29 L 1254.29 383.69 L 1258.48 403.25 L 1262.67 416.71 L 1266.86 381.12 L 1271.05 380.22 L 1275.24 369.78 L 1279.43 340.05 L 1283.62 362.02 L 1287.81 353.37 L 1292.00 351.77" fill="none" stroke="#1d4ed8" stroke-width="2"  />
  </g>
  <g>
    <text x="54" y="538" fill="#1f2937" font-size="16" font-weight="700">B. 绝对误差（越低越好）</text>
    <line x1="98" y1="558" x2="124" y2="558" stroke="#1d4ed8" stroke-width="2"  />
      <text x="130" y="562" fill="#24312e" font-size="12">持仓分段误差</text>
    <line x1="98" y1="560.00" x2="1292" y2="560.00" stroke="#d7e3df" stroke-width="1" />
      <text x="90" y="564.00" text-anchor="end" fill="#5b6b68" font-size="11">5.94%</text>
<line x1="98" y1="630.00" x2="1292" y2="630.00" stroke="#d7e3df" stroke-width="1" />
      <text x="90" y="634.00" text-anchor="end" fill="#5b6b68" font-size="11">4.46%</text>
<line x1="98" y1="700.00" x2="1292" y2="700.00" stroke="#d7e3df" stroke-width="1" />
      <text x="90" y="704.00" text-anchor="end" fill="#5b6b68" font-size="11">2.97%</text>
<line x1="98" y1="770.00" x2="1292" y2="770.00" stroke="#d7e3df" stroke-width="1" />
      <text x="90" y="774.00" text-anchor="end" fill="#5b6b68" font-size="11">1.49%</text>
<line x1="98" y1="840.00" x2="1292" y2="840.00" stroke="#d7e3df" stroke-width="1" />
      <text x="90" y="844.00" text-anchor="end" fill="#5b6b68" font-size="11">0.00%</text>
    <line x1="98.00" y1="560" x2="98.00" y2="840" stroke="#eef3f1" stroke-width="1" />
      <text x="98.00" y="868" text-anchor="middle" fill="#5b6b68" font-size="11">25-01-02</text>
<line x1="290.72" y1="560" x2="290.72" y2="840" stroke="#eef3f1" stroke-width="1" />
      <text x="290.72" y="868" text-anchor="middle" fill="#5b6b68" font-size="11">25-03-17</text>
<line x1="479.24" y1="560" x2="479.24" y2="840" stroke="#eef3f1" stroke-width="1" />
      <text x="479.24" y="868" text-anchor="middle" fill="#5b6b68" font-size="11">25-05-23</text>
<line x1="697.09" y1="560" x2="697.09" y2="840" stroke="#eef3f1" stroke-width="1" />
      <text x="697.09" y="868" text-anchor="middle" fill="#5b6b68" font-size="11">25-08-06</text>
<line x1="910.76" y1="560" x2="910.76" y2="840" stroke="#eef3f1" stroke-width="1" />
      <text x="910.76" y="868" text-anchor="middle" fill="#5b6b68" font-size="11">25-10-24</text>
<line x1="1099.28" y1="560" x2="1099.28" y2="840" stroke="#eef3f1" stroke-width="1" />
      <text x="1099.28" y="868" text-anchor="middle" fill="#5b6b68" font-size="11">25-12-26</text>
<line x1="1292.00" y1="560" x2="1292.00" y2="840" stroke="#eef3f1" stroke-width="1" />
      <text x="1292.00" y="868" text-anchor="middle" fill="#5b6b68" font-size="11">26-03-12</text>
    <line x1="1116.04" y1="560" x2="1116.04" y2="840" stroke="#f59e0b" stroke-width="1.4" stroke-dasharray="4 4" />
       <text x="1122.04" y="552" fill="#a16207" font-size="11">验证起点</text>
    <path d="M 98.00 811.85 L 102.19 827.39 L 106.38 834.28 L 110.57 820.09 L 114.76 830.05 L 118.95 826.90 L 123.14 836.92 L 127.33 816.02 L 131.52 826.62 L 135.71 826.90 L 139.89 821.13 L 144.08 837.44 L 148.27 774.79 L 152.46 810.09 L 156.65 832.57 L 160.84 835.06 L 165.03 839.37 L 169.22 818.05 L 173.41 806.95 L 177.60 830.80 L 181.79 828.49 L 185.98 814.19 L 190.17 819.69 L 194.36 833.34 L 198.55 837.27 L 202.74 826.47 L 206.93 801.68 L 211.12 792.75 L 215.31 835.79 L 219.49 811.99 L 223.68 821.92 L 227.87 837.50 L 232.06 832.22 L 236.25 835.40 L 240.44 826.84 L 244.63 823.03 L 248.82 822.02 L 253.01 790.63 L 257.20 838.65 L 261.39 833.92 L 265.58 833.44 L 269.77 834.29 L 273.96 831.92 L 278.15 809.28 L 282.34 817.20 L 286.53 818.76 L 290.72 813.24 L 294.91 823.52 L 299.09 819.69 L 303.28 813.83 L 307.47 838.74 L 311.66 831.68 L 315.85 816.46 L 320.04 769.51 L 324.23 815.87 L 328.42 838.72 L 332.61 839.94 L 336.80 838.20 L 340.99 839.21 L 345.18 821.97 L 349.37 714.11 L 353.56 721.82 L 357.75 656.57 L 361.94 616.38 L 366.13 799.00 L 370.32 796.78 L 374.51 838.20 L 378.69 815.00 L 382.88 824.48 L 387.07 837.08 L 391.26 818.73 L 395.45 833.75 L 399.64 779.12 L 403.83 834.92 L 408.02 827.77 L 412.21 825.54 L 416.40 820.69 L 420.59 829.82 L 424.78 806.60 L 428.97 839.55 L 433.16 835.92 L 437.35 834.61 L 441.54 792.36 L 445.73 834.23 L 449.92 820.61 L 454.11 837.70 L 458.29 835.54 L 462.48 825.38 L 466.67 824.37 L 470.86 812.33 L 475.05 815.63 L 479.24 821.34 L 483.43 796.95 L 487.62 794.49 L 491.81 783.11 L 496.00 831.23 L 500.19 828.11 L 504.38 819.13 L 508.57 760.26 L 512.76 811.92 L 516.95 837.25 L 521.14 817.87 L 525.33 833.19 L 529.52 834.44 L 533.71 803.14 L 537.89 777.63 L 542.08 832.15 L 546.27 807.95 L 550.46 837.92 L 554.65 831.86 L 558.84 839.87 L 563.03 825.42 L 567.22 782.15 L 571.41 829.26 L 575.60 811.52 L 579.79 833.71 L 583.98 795.18 L 588.17 831.71 L 592.36 823.99 L 596.55 801.81 L 600.74 837.15 L 604.93 793.82 L 609.12 825.60 L 613.31 827.48 L 617.49 837.56 L 621.68 839.55 L 625.87 827.85 L 630.06 817.01 L 634.25 830.47 L 638.44 823.43 L 642.63 836.63 L 646.82 838.52 L 651.01 787.67 L 655.20 787.99 L 659.39 820.79 L 663.58 833.59 L 667.77 823.02 L 671.96 834.10 L 676.15 807.35 L 680.34 829.87 L 684.53 837.42 L 688.72 805.30 L 692.91 791.46 L 697.09 837.17 L 701.28 833.19 L 705.47 838.72 L 709.66 835.74 L 713.85 836.21 L 718.04 837.04 L 722.23 811.07 L 726.42 837.23 L 730.61 822.18 L 734.80 838.56 L 738.99 829.00 L 743.18 838.45 L 747.37 834.10 L 751.56 839.37 L 755.75 834.65 L 759.94 830.07 L 764.13 828.42 L 768.32 838.87 L 772.51 839.41 L 776.69 833.54 L 780.88 827.32 L 785.07 830.47 L 789.26 837.57 L 793.45 812.58 L 797.64 816.49 L 801.83 833.00 L 806.02 817.81 L 810.21 839.14 L 814.40 839.45 L 818.59 801.61 L 822.78 835.80 L 826.97 797.71 L 831.16 833.41 L 835.35 790.86 L 839.54 649.37 L 843.73 590.00 L 847.92 791.85 L 852.11 831.65 L 856.29 799.19 L 860.48 833.72 L 864.67 805.86 L 868.86 800.75 L 873.05 740.27 L 877.24 829.23 L 881.43 812.40 L 885.62 838.53 L 889.81 838.25 L 894.00 836.53 L 898.19 823.91 L 902.38 828.40 L 906.57 838.30 L 910.76 836.38 L 914.95 831.15 L 919.14 827.17 L 923.33 831.52 L 927.52 807.27 L 931.71 836.33 L 935.89 775.79 L 940.08 823.94 L 944.27 796.51 L 948.46 825.44 L 952.65 833.55 L 956.84 839.29 L 961.03 825.35 L 965.22 830.32 L 969.41 839.59 L 973.60 837.66 L 977.79 837.84 L 981.98 804.80 L 986.17 807.39 L 990.36 817.99 L 994.55 835.82 L 998.74 786.91 L 1002.93 817.56 L 1007.12 827.76 L 1011.31 838.37 L 1015.49 832.51 L 1019.68 816.35 L 1023.87 831.78 L 1028.06 832.12 L 1032.25 830.48 L 1036.44 833.75 L 1040.63 821.81 L 1044.82 815.27 L 1049.01 836.72 L 1053.20 832.29 L 1057.39 837.44 L 1061.58 814.53 L 1065.77 821.64 L 1069.96 835.62 L 1074.15 837.58 L 1078.34 835.00 L 1082.53 784.30 L 1086.72 835.56 L 1090.91 838.40 L 1095.09 839.30 L 1099.28 837.96 L 1103.47 810.25 L 1107.66 826.10 L 1111.85 824.45 L 1116.04 834.67 L 1120.23 772.58 L 1124.42 716.83 L 1128.61 817.46 L 1132.80 831.28 L 1136.99 802.56 L 1141.18 798.29 L 1145.37 814.70 L 1149.56 777.19 L 1153.75 824.67 L 1157.94 794.30 L 1162.13 828.72 L 1166.32 825.98 L 1170.51 792.28 L 1174.69 815.15 L 1178.88 831.74 L 1183.07 823.33 L 1187.26 835.62 L 1191.45 825.16 L 1195.64 838.52 L 1199.83 820.11 L 1204.02 831.44 L 1208.21 837.49 L 1212.40 788.75 L 1216.59 823.20 L 1220.78 837.80 L 1224.97 834.25 L 1229.16 823.05 L 1233.35 793.49 L 1237.54 827.39 L 1241.73 823.33 L 1245.92 826.69 L 1250.11 831.64 L 1254.29 839.70 L 1258.48 806.85 L 1262.67 786.49 L 1266.86 839.62 L 1271.05 809.01 L 1275.24 837.15 L 1279.43 766.76 L 1283.62 812.78 L 1287.81 831.72 L 1292.00 828.12" fill="none" stroke="#1d4ed8" stroke-width="2"  />
  </g>
</svg>